<svg width="20" height="20" viewBox="0 0 20 20" fill="none" xmlns="http://www.w3.org/2000/svg">
<path d="M19.0001 9.87069C19.0001 12.2552 18.6005 14.1894 18.1074 14.1894C17.6143 14.1894 17.2148 12.2557 17.2148 9.87069C17.2148 7.48568 17.6145 5.552 18.1074 5.552C18.6003 5.552 19.0001 7.48551 19.0001 9.87069Z" fill="#F2F2F2"/>
<path d="M16.7212 9.87086C16.7212 12.5329 15.5847 14.6917 14.1828 14.6917C12.781 14.6917 11.6445 12.5329 11.6445 9.87086C11.6445 7.20888 12.7808 5.05005 14.1827 5.05005C15.5846 5.05005 16.721 7.20818 16.721 9.87086" fill="#F2F2F2"/>
<path d="M11.1531 9.87078C11.1531 12.6988 8.88021 14.9914 6.07663 14.9914C3.27305 14.9914 1 12.6983 1 9.87078C1 7.04326 3.27287 4.75 6.07663 4.75C8.88038 4.75 11.1531 7.04274 11.1531 9.87078Z" fill="#F2F2F2"/>
</svg>
