<svg width="20" height="20" viewBox="0 0 20 20" fill="none" xmlns="http://www.w3.org/2000/svg">
<path fillRule="evenodd" clipRule="evenodd" d="M11.0087 5.77506C9.8742 6.2845 7.60688 7.33891 4.20671 8.9383C3.65457 9.17535 3.36534 9.40726 3.33901 9.63401C3.29451 10.0172 3.73902 10.1681 4.34432 10.3736C4.42665 10.4016 4.51196 10.4306 4.59942 10.4612C5.19495 10.6702 5.99603 10.9147 6.41248 10.9245C6.79024 10.9333 7.21186 10.7651 7.67735 10.42C10.8542 8.10476 12.4942 6.9345 12.5971 6.90927C12.6698 6.89147 12.7704 6.86909 12.8386 6.93454C12.9068 6.99998 12.9001 7.12392 12.8929 7.15717C12.8489 7.35985 11.104 9.11122 10.201 10.0175C9.91954 10.3001 9.71987 10.5005 9.67906 10.5463C9.58762 10.6488 9.49443 10.7458 9.40486 10.839C8.85161 11.4148 8.43672 11.8466 9.42784 12.5518C9.90412 12.8907 10.2852 13.1709 10.6655 13.4504C11.0807 13.7557 11.4949 14.0602 12.0308 14.4395C12.1673 14.5361 12.2977 14.6365 12.4247 14.7342C12.9079 15.1062 13.3421 15.4403 13.8784 15.387C14.1901 15.3561 14.512 15.0397 14.6755 14.096C15.0619 11.8659 15.8214 7.03382 15.997 5.04265C16.0124 4.86819 15.993 4.64493 15.9775 4.54692C15.9619 4.44891 15.9295 4.30927 15.8115 4.2059C15.6717 4.08348 15.456 4.05766 15.3595 4.05941C14.9208 4.06784 14.2478 4.32051 11.0087 5.77506Z" fill="#F2F2F2"/>
</svg>
