<svg width="15" height="14" viewBox="0 0 15 14" fill="none" xmlns="http://www.w3.org/2000/svg">
<path fill-rule="evenodd" clip-rule="evenodd" d="M7.4974 1.60352C4.51736 1.60352 2.10156 4.01931 2.10156 6.99935C2.10156 9.97939 4.51736 12.3952 7.4974 12.3952C10.4774 12.3952 12.8932 9.97939 12.8932 6.99935C12.8932 4.01931 10.4774 1.60352 7.4974 1.60352ZM1.22656 6.99935C1.22656 3.53606 4.03411 0.728516 7.4974 0.728516C10.9607 0.728516 13.7682 3.53606 13.7682 6.99935C13.7682 10.4626 10.9607 13.2702 7.4974 13.2702C4.03411 13.2702 1.22656 10.4626 1.22656 6.99935ZM7.4974 5.97852C7.73902 5.97852 7.9349 6.17439 7.9349 6.41602V9.33268C7.9349 9.57431 7.73902 9.77018 7.4974 9.77018C7.25577 9.77018 7.0599 9.57431 7.0599 9.33268V6.41602C7.0599 6.17439 7.25577 5.97852 7.4974 5.97852ZM7.4974 5.24935C7.81956 5.24935 8.08073 4.98818 8.08073 4.66602C8.08073 4.34385 7.81956 4.08268 7.4974 4.08268C7.17523 4.08268 6.91406 4.34385 6.91406 4.66602C6.91406 4.98818 7.17523 5.24935 7.4974 5.24935Z" fill="#9AA6B5"/>
</svg>
