<svg width="400" height="258" viewBox="0 0 400 258" fill="none" xmlns="http://www.w3.org/2000/svg">
<g clip-path="url(#clip0_1629_22030)">
<path opacity="0.7" d="M-222.854 -85H-243V-64.8543M-222.854 -85V-64.8543M-222.854 -85H-202.709M-222.854 -64.8543H-243M-222.854 -64.8543V-44.7086M-222.854 -64.8543H-202.709M-243 -64.8543V-44.7086M-222.854 -44.7086H-243M-222.854 -44.7086V-24.563M-222.854 -44.7086H-202.709M-243 -44.7086V-24.563M-222.854 -24.563H-243M-222.854 -24.563V-4.41729M-222.854 -24.563H-202.709M-243 -24.563V-4.41729M-222.854 -4.41729H-243M-222.854 -4.41729V15.7284M-222.854 -4.41729H-202.709M-243 -4.41729V15.7284M-222.854 15.7284H-243M-222.854 15.7284V35.8741M-222.854 15.7284H-202.709M-243 15.7284V35.8741M-222.854 35.8741H-243M-222.854 35.8741V56.0197M-222.854 35.8741H-202.709M-243 35.8741V56.0197M-222.854 56.0197H-243M-222.854 56.0197V76.1654M-222.854 56.0197H-202.709M-243 56.0197V76.1654M-222.854 76.1654H-243M-222.854 76.1654V96.3111M-222.854 76.1654H-202.709M-243 76.1654V96.3111M-222.854 96.3111H-243M-222.854 96.3111V116.457M-222.854 96.3111H-202.709M-243 96.3111V116.457M-222.854 116.457H-243M-222.854 116.457V136.602M-222.854 116.457H-202.709M-243 116.457V136.602M-222.854 136.602H-243M-222.854 136.602V156.748M-222.854 136.602H-202.709M-243 136.602V156.748M-222.854 156.748H-243M-222.854 156.748V176.894M-222.854 156.748H-202.709M-243 156.748V176.894M-222.854 176.894H-243M-222.854 176.894V197.039M-222.854 176.894H-202.709M-243 176.894V197.039M-222.854 197.039H-243M-222.854 197.039V217.185M-222.854 197.039H-202.709M-243 197.039V217.185M-222.854 217.185H-243M-222.854 217.185V237.331M-222.854 217.185H-202.709M-243 217.185V237.331M-222.854 237.331H-243M-222.854 237.331V257.476M-222.854 237.331H-202.709M-243 237.331V257.476M-222.854 257.476H-243M-222.854 257.476V277.622M-222.854 257.476H-202.709M-243 257.476V277.622M-222.854 277.622H-243M-222.854 277.622V297.768M-222.854 277.622H-202.709M-243 277.622V297.768M-222.854 297.768H-243M-222.854 297.768V317.914M-222.854 297.768H-202.709M-243 297.768V317.914H-222.854M-222.854 317.914H-202.709M-202.709 -85V-64.8543M-202.709 -85H-182.563M-202.709 -64.8543V-44.7086M-202.709 -64.8543H-182.563M-202.709 -44.7086V-24.563M-202.709 -44.7086H-182.563M-202.709 -24.563V-4.41729M-202.709 -24.563H-182.563M-202.709 -4.41729V15.7284M-202.709 -4.41729H-182.563M-202.709 15.7284V35.8741M-202.709 15.7284H-182.563M-202.709 35.8741V56.0197M-202.709 35.8741H-182.563M-202.709 56.0197V76.1654M-202.709 56.0197H-182.563M-202.709 76.1654V96.3111M-202.709 76.1654H-182.563M-202.709 96.3111V116.457M-202.709 96.3111H-182.563M-202.709 116.457V136.602M-202.709 116.457H-182.563M-202.709 136.602V156.748M-202.709 136.602H-182.563M-202.709 156.748V176.894M-202.709 156.748H-182.563M-202.709 176.894V197.039M-202.709 176.894H-182.563M-202.709 197.039V217.185M-202.709 197.039H-182.563M-202.709 217.185V237.331M-202.709 217.185H-182.563M-202.709 237.331V257.476M-202.709 237.331H-182.563M-202.709 257.476V277.622M-202.709 257.476H-182.563M-202.709 277.622V297.768M-202.709 277.622H-182.563M-202.709 297.768V317.914M-202.709 297.768H-182.563M-202.709 317.914H-182.563M-182.563 -85V-64.8543M-182.563 -85H-162.417M-182.563 -64.8543V-44.7086M-182.563 -64.8543H-162.417M-182.563 -44.7086V-24.563M-182.563 -44.7086H-162.417M-182.563 -24.563V-4.41729M-182.563 -24.563H-162.417M-182.563 -4.41729V15.7284M-182.563 -4.41729H-162.417M-182.563 15.7284V35.8741M-182.563 15.7284H-162.417M-182.563 35.8741V56.0197M-182.563 35.8741H-162.417M-182.563 56.0197V76.1654M-182.563 56.0197H-162.417M-182.563 76.1654V96.3111M-182.563 76.1654H-162.417M-182.563 96.3111V116.457M-182.563 96.3111H-162.417M-182.563 116.457V136.602M-182.563 116.457H-162.417M-182.563 136.602V156.748M-182.563 136.602H-162.417M-182.563 156.748V176.894M-182.563 156.748H-162.417M-182.563 176.894V197.039M-182.563 176.894H-162.417M-182.563 197.039V217.185M-182.563 197.039H-162.417M-182.563 217.185V237.331M-182.563 217.185H-162.417M-182.563 237.331V257.476M-182.563 237.331H-162.417M-182.563 257.476V277.622M-182.563 257.476H-162.417M-182.563 277.622V297.768M-182.563 277.622H-162.417M-182.563 297.768V317.914M-182.563 297.768H-162.417M-182.563 317.914H-162.417M-162.417 -85V-64.8543M-162.417 -85H-142.272M-162.417 -64.8543V-44.7086M-162.417 -64.8543H-142.272M-162.417 -44.7086V-24.563M-162.417 -44.7086H-142.272M-162.417 -24.563V-4.41729M-162.417 -24.563H-142.272M-162.417 -4.41729V15.7284M-162.417 -4.41729H-142.272M-162.417 15.7284V35.8741M-162.417 15.7284H-142.272M-162.417 35.8741V56.0197M-162.417 35.8741H-142.272M-162.417 56.0197V76.1654M-162.417 56.0197H-142.272M-162.417 76.1654V96.3111M-162.417 76.1654H-142.272M-162.417 96.3111V116.457M-162.417 96.3111H-142.272M-162.417 116.457V136.602M-162.417 116.457H-142.272M-162.417 136.602V156.748M-162.417 136.602H-142.272M-162.417 156.748V176.894M-162.417 156.748H-142.272M-162.417 176.894V197.039M-162.417 176.894H-142.272M-162.417 197.039V217.185M-162.417 197.039H-142.272M-162.417 217.185V237.331M-162.417 217.185H-142.272M-162.417 237.331V257.476M-162.417 237.331H-142.272M-162.417 257.476V277.622M-162.417 257.476H-142.272M-162.417 277.622V297.768M-162.417 277.622H-142.272M-162.417 297.768V317.914M-162.417 297.768H-142.272M-162.417 317.914H-142.272M-142.272 -85V-64.8543M-142.272 -85H-122.126M-142.272 -64.8543V-44.7086M-142.272 -64.8543H-122.126M-142.272 -44.7086V-24.563M-142.272 -44.7086H-122.126M-142.272 -24.563V-4.41729M-142.272 -24.563H-122.126M-142.272 -4.41729V15.7284M-142.272 -4.41729H-122.126M-142.272 15.7284V35.8741M-142.272 15.7284H-122.126M-142.272 35.8741V56.0197M-142.272 35.8741H-122.126M-142.272 56.0197V76.1654M-142.272 56.0197H-122.126M-142.272 76.1654V96.3111M-142.272 76.1654H-122.126M-142.272 96.3111V116.457M-142.272 96.3111H-122.126M-142.272 116.457V136.602M-142.272 116.457H-122.126M-142.272 136.602V156.748M-142.272 136.602H-122.126M-142.272 156.748V176.894M-142.272 156.748H-122.126M-142.272 176.894V197.039M-142.272 176.894H-122.126M-142.272 197.039V217.185M-142.272 197.039H-122.126M-142.272 217.185V237.331M-142.272 217.185H-122.126M-142.272 237.331V257.476M-142.272 237.331H-122.126M-142.272 257.476V277.622M-142.272 257.476H-122.126M-142.272 277.622V297.768M-142.272 277.622H-122.126M-142.272 297.768V317.914M-142.272 297.768H-122.126M-142.272 317.914H-122.126M-122.126 -85V-64.8543M-122.126 -85H-101.98M-122.126 -64.8543V-44.7086M-122.126 -64.8543H-101.98M-122.126 -44.7086V-24.563M-122.126 -44.7086H-101.98M-122.126 -24.563V-4.41729M-122.126 -24.563H-101.98M-122.126 -4.41729V15.7284M-122.126 -4.41729H-101.98M-122.126 15.7284V35.8741M-122.126 15.7284H-101.98M-122.126 35.8741V56.0197M-122.126 35.8741H-101.98M-122.126 56.0197V76.1654M-122.126 56.0197H-101.98M-122.126 76.1654V96.3111M-122.126 76.1654H-101.98M-122.126 96.3111V116.457M-122.126 96.3111H-101.98M-122.126 116.457V136.602M-122.126 116.457H-101.98M-122.126 136.602V156.748M-122.126 136.602H-101.98M-122.126 156.748V176.894M-122.126 156.748H-101.98M-122.126 176.894V197.039M-122.126 176.894H-101.98M-122.126 197.039V217.185M-122.126 197.039H-101.98M-122.126 217.185V237.331M-122.126 217.185H-101.98M-122.126 237.331V257.476M-122.126 237.331H-101.98M-122.126 257.476V277.622M-122.126 257.476H-101.98M-122.126 277.622V297.768M-122.126 277.622H-101.98M-122.126 297.768V317.914M-122.126 297.768H-101.98M-122.126 317.914H-101.98M-101.98 -85V-64.8543M-101.98 -85H-81.8346M-101.98 -64.8543V-44.7086M-101.98 -64.8543H-81.8346M-101.98 -44.7086V-24.563M-101.98 -44.7086H-81.8346M-101.98 -24.563V-4.41729M-101.98 -24.563H-81.8346M-101.98 -4.41729V15.7284M-101.98 -4.41729H-81.8346M-101.98 15.7284V35.8741M-101.98 15.7284H-81.8346M-101.98 35.8741V56.0197M-101.98 35.8741H-81.8346M-101.98 56.0197V76.1654M-101.98 56.0197H-81.8346M-101.98 76.1654V96.3111M-101.98 76.1654H-81.8346M-101.98 96.3111V116.457M-101.98 96.3111H-81.8346M-101.98 116.457V136.602M-101.98 116.457H-81.8346M-101.98 136.602V156.748M-101.98 136.602H-81.8346M-101.98 156.748V176.894M-101.98 156.748H-81.8346M-101.98 176.894V197.039M-101.98 176.894H-81.8346M-101.98 197.039V217.185M-101.98 197.039H-81.8346M-101.98 217.185V237.331M-101.98 217.185H-81.8346M-101.98 237.331V257.476M-101.98 237.331H-81.8346M-101.98 257.476V277.622M-101.98 257.476H-81.8346M-101.98 277.622V297.768M-101.98 277.622H-81.8346M-101.98 297.768V317.914M-101.98 297.768H-81.8346M-101.98 317.914H-81.8346M-81.8346 -85V-64.8543M-81.8346 -85H-61.6889M-81.8346 -64.8543V-44.7086M-81.8346 -64.8543H-61.6889M-81.8346 -44.7086V-24.563M-81.8346 -44.7086H-61.6889M-81.8346 -24.563V-4.41729M-81.8346 -24.563H-61.6889M-81.8346 -4.41729V15.7284M-81.8346 -4.41729H-61.6889M-81.8346 15.7284V35.8741M-81.8346 15.7284H-61.6889M-81.8346 35.8741V56.0197M-81.8346 35.8741H-61.6889M-81.8346 56.0197V76.1654M-81.8346 56.0197H-61.6889M-81.8346 76.1654V96.3111M-81.8346 76.1654H-61.6889M-81.8346 96.3111V116.457M-81.8346 96.3111H-61.6889M-81.8346 116.457V136.602M-81.8346 116.457H-61.6889M-81.8346 136.602V156.748M-81.8346 136.602H-61.6889M-81.8346 156.748V176.894M-81.8346 156.748H-61.6889M-81.8346 176.894V197.039M-81.8346 176.894H-61.6889M-81.8346 197.039V217.185M-81.8346 197.039H-61.6889M-81.8346 217.185V237.331M-81.8346 217.185H-61.6889M-81.8346 237.331V257.476M-81.8346 237.331H-61.6889M-81.8346 257.476V277.622M-81.8346 257.476H-61.6889M-81.8346 277.622V297.768M-81.8346 277.622H-61.6889M-81.8346 297.768V317.914M-81.8346 297.768H-61.6889M-81.8346 317.914H-61.6889M-61.6889 -85V-64.8543M-61.6889 -85H-41.5432M-61.6889 -64.8543V-44.7086M-61.6889 -64.8543H-41.5432M-61.6889 -44.7086V-24.563M-61.6889 -44.7086H-41.5432M-61.6889 -24.563V-4.41729M-61.6889 -24.563H-41.5432M-61.6889 -4.41729V15.7284M-61.6889 -4.41729H-41.5432M-61.6889 15.7284V35.8741M-61.6889 15.7284H-41.5432M-61.6889 35.8741V56.0197M-61.6889 35.8741H-41.5432M-61.6889 56.0197V76.1654M-61.6889 56.0197H-41.5432M-61.6889 76.1654V96.3111M-61.6889 76.1654H-41.5432M-61.6889 96.3111V116.457M-61.6889 96.3111H-41.5432M-61.6889 116.457V136.602M-61.6889 116.457H-41.5432M-61.6889 136.602V156.748M-61.6889 136.602H-41.5432M-61.6889 156.748V176.894M-61.6889 156.748H-41.5432M-61.6889 176.894V197.039M-61.6889 176.894H-41.5432M-61.6889 197.039V217.185M-61.6889 197.039H-41.5432M-61.6889 217.185V237.331M-61.6889 217.185H-41.5432M-61.6889 237.331V257.476M-61.6889 237.331H-41.5432M-61.6889 257.476V277.622M-61.6889 257.476H-41.5432M-61.6889 277.622V297.768M-61.6889 277.622H-41.5432M-61.6889 297.768V317.914M-61.6889 297.768H-41.5432M-61.6889 317.914H-41.5432M-41.5432 -85V-64.8543M-41.5432 -85H-21.3975M-41.5432 -64.8543V-44.7086M-41.5432 -64.8543H-21.3975M-41.5432 -44.7086V-24.563M-41.5432 -44.7086H-21.3975M-41.5432 -24.563V-4.41729M-41.5432 -24.563H-21.3975M-41.5432 -4.41729V15.7284M-41.5432 -4.41729H-21.3975M-41.5432 15.7284V35.8741M-41.5432 15.7284H-21.3975M-41.5432 35.8741V56.0197M-41.5432 35.8741H-21.3975M-41.5432 56.0197V76.1654M-41.5432 56.0197H-21.3975M-41.5432 76.1654V96.3111M-41.5432 76.1654H-21.3975M-41.5432 96.3111V116.457M-41.5432 96.3111H-21.3975M-41.5432 116.457V136.602M-41.5432 116.457H-21.3975M-41.5432 136.602V156.748M-41.5432 136.602H-21.3975M-41.5432 156.748V176.894M-41.5432 156.748H-21.3975M-41.5432 176.894V197.039M-41.5432 176.894H-21.3975M-41.5432 197.039V217.185M-41.5432 197.039H-21.3975M-41.5432 217.185V237.331M-41.5432 217.185H-21.3975M-41.5432 237.331V257.476M-41.5432 237.331H-21.3975M-41.5432 257.476V277.622M-41.5432 257.476H-21.3975M-41.5432 277.622V297.768M-41.5432 277.622H-21.3975M-41.5432 297.768V317.914M-41.5432 297.768H-21.3975M-41.5432 317.914H-21.3975M-21.3975 -85V-64.8543M-21.3975 -85H-1.25185M-21.3975 -64.8543V-44.7086M-21.3975 -64.8543H-1.25185M-21.3975 -44.7086V-24.563M-21.3975 -44.7086H-1.25185M-21.3975 -24.563V-4.41729M-21.3975 -24.563H-1.25185M-21.3975 -4.41729V15.7284M-21.3975 -4.41729H-1.25185M-21.3975 15.7284V35.8741M-21.3975 15.7284H-1.25185M-21.3975 35.8741V56.0197M-21.3975 35.8741H-1.25185M-21.3975 56.0197V76.1654M-21.3975 56.0197H-1.25185M-21.3975 76.1654V96.3111M-21.3975 76.1654H-1.25185M-21.3975 96.3111V116.457M-21.3975 96.3111H-1.25185M-21.3975 116.457V136.602M-21.3975 116.457H-1.25185M-21.3975 136.602V156.748M-21.3975 136.602H-1.25185M-21.3975 156.748V176.894M-21.3975 156.748H-1.25185M-21.3975 176.894V197.039M-21.3975 176.894H-1.25185M-21.3975 197.039V217.185M-21.3975 197.039H-1.25185M-21.3975 217.185V237.331M-21.3975 217.185H-1.25185M-21.3975 237.331V257.476M-21.3975 237.331H-1.25185M-21.3975 257.476V277.622M-21.3975 257.476H-1.25185M-21.3975 277.622V297.768M-21.3975 277.622H-1.25185M-21.3975 297.768V317.914M-21.3975 297.768H-1.25185M-21.3975 317.914H-1.25185M-1.25185 -85V-64.8543M-1.25185 -85H18.8938M-1.25185 -64.8543V-44.7086M-1.25185 -64.8543H18.8938M-1.25185 -44.7086V-24.563M-1.25185 -44.7086H18.8938M-1.25185 -24.563V-4.41729M-1.25185 -24.563H18.8938M-1.25185 -4.41729V15.7284M-1.25185 -4.41729H18.8938M-1.25185 15.7284V35.8741M-1.25185 15.7284H18.8938M-1.25185 35.8741V56.0197M-1.25185 35.8741H18.8938M-1.25185 56.0197V76.1654M-1.25185 56.0197H18.8938M-1.25185 76.1654V96.3111M-1.25185 76.1654H18.8938M-1.25185 96.3111V116.457M-1.25185 96.3111H18.8938M-1.25185 116.457V136.602M-1.25185 116.457H18.8938M-1.25185 136.602V156.748M-1.25185 136.602H18.8938M-1.25185 156.748V176.894M-1.25185 156.748H18.8938M-1.25185 176.894V197.039M-1.25185 176.894H18.8938M-1.25185 197.039V217.185M-1.25185 197.039H18.8938M-1.25185 217.185V237.331M-1.25185 217.185H18.8938M-1.25185 237.331V257.476M-1.25185 237.331H18.8938M-1.25185 257.476V277.622M-1.25185 257.476H18.8938M-1.25185 277.622V297.768M-1.25185 277.622H18.8938M-1.25185 297.768V317.914M-1.25185 297.768H18.8938M-1.25185 317.914H18.8938M18.8938 -85V-64.8543M18.8938 -85H39.0395M18.8938 -64.8543V-44.7086M18.8938 -64.8543H39.0395M18.8938 -44.7086V-24.563M18.8938 -44.7086H39.0395M18.8938 -24.563V-4.41729M18.8938 -24.563H39.0395M18.8938 -4.41729V15.7284M18.8938 -4.41729H39.0395M18.8938 15.7284V35.8741M18.8938 15.7284H39.0395M18.8938 35.8741V56.0197M18.8938 35.8741H39.0395M18.8938 56.0197V76.1654M18.8938 56.0197H39.0395M18.8938 76.1654V96.3111M18.8938 76.1654H39.0395M18.8938 96.3111V116.457M18.8938 96.3111H39.0395M18.8938 116.457V136.602M18.8938 116.457H39.0395M18.8938 136.602V156.748M18.8938 136.602H39.0395M18.8938 156.748V176.894M18.8938 156.748H39.0395M18.8938 176.894V197.039M18.8938 176.894H39.0395M18.8938 197.039V217.185M18.8938 197.039H39.0395M18.8938 217.185V237.331M18.8938 217.185H39.0395M18.8938 237.331V257.476M18.8938 237.331H39.0395M18.8938 257.476V277.622M18.8938 257.476H39.0395M18.8938 277.622V297.768M18.8938 277.622H39.0395M18.8938 297.768V317.914M18.8938 297.768H39.0395M18.8938 317.914H39.0395M39.0395 -85V-64.8543M39.0395 -85H59.1852M39.0395 -64.8543V-44.7086M39.0395 -64.8543H59.1852M39.0395 -44.7086V-24.563M39.0395 -44.7086H59.1852M39.0395 -24.563V-4.41729M39.0395 -24.563H59.1852M39.0395 -4.41729V15.7284M39.0395 -4.41729H59.1852M39.0395 15.7284V35.8741M39.0395 15.7284H59.1852M39.0395 35.8741V56.0197M39.0395 35.8741H59.1852M39.0395 56.0197V76.1654M39.0395 56.0197H59.1852M39.0395 76.1654V96.3111M39.0395 76.1654H59.1852M39.0395 96.3111V116.457M39.0395 96.3111H59.1852M39.0395 116.457V136.602M39.0395 116.457H59.1852M39.0395 136.602V156.748M39.0395 136.602H59.1852M39.0395 156.748V176.894M39.0395 156.748H59.1852M39.0395 176.894V197.039M39.0395 176.894H59.1852M39.0395 197.039V217.185M39.0395 197.039H59.1852M39.0395 217.185V237.331M39.0395 217.185H59.1852M39.0395 237.331V257.476M39.0395 237.331H59.1852M39.0395 257.476V277.622M39.0395 257.476H59.1852M39.0395 277.622V297.768M39.0395 277.622H59.1852M39.0395 297.768V317.914M39.0395 297.768H59.1852M39.0395 317.914H59.1852M59.1852 -85V-64.8543M59.1852 -85H79.3309M59.1852 -64.8543V-44.7086M59.1852 -64.8543H79.3309M59.1852 -44.7086V-24.563M59.1852 -44.7086H79.3309M59.1852 -24.563V-4.41729M59.1852 -24.563H79.3309M59.1852 -4.41729V15.7284M59.1852 -4.41729H79.3309M59.1852 15.7284V35.8741M59.1852 15.7284H79.3309M59.1852 35.8741V56.0197M59.1852 35.8741H79.3309M59.1852 56.0197V76.1654M59.1852 56.0197H79.3309M59.1852 76.1654V96.3111M59.1852 76.1654H79.3309M59.1852 96.3111V116.457M59.1852 96.3111H79.3309M59.1852 116.457V136.602M59.1852 116.457H79.3309M59.1852 136.602V156.748M59.1852 136.602H79.3309M59.1852 156.748V176.894M59.1852 156.748H79.3309M59.1852 176.894V197.039M59.1852 176.894H79.3309M59.1852 197.039V217.185M59.1852 197.039H79.3309M59.1852 217.185V237.331M59.1852 217.185H79.3309M59.1852 237.331V257.476M59.1852 237.331H79.3309M59.1852 257.476V277.622M59.1852 257.476H79.3309M59.1852 277.622V297.768M59.1852 277.622H79.3309M59.1852 297.768V317.914M59.1852 297.768H79.3309M59.1852 317.914H79.3309M79.3309 -85V-64.8543M79.3309 -85H99.4766M79.3309 -64.8543V-44.7086M79.3309 -64.8543H99.4766M79.3309 -44.7086V-24.563M79.3309 -44.7086H99.4766M79.3309 -24.563V-4.41729M79.3309 -24.563H99.4766M79.3309 -4.41729V15.7284M79.3309 -4.41729H99.4766M79.3309 15.7284V35.8741M79.3309 15.7284H99.4766M79.3309 35.8741V56.0197M79.3309 35.8741H99.4766M79.3309 56.0197V76.1654M79.3309 56.0197H99.4766M79.3309 76.1654V96.3111M79.3309 76.1654H99.4766M79.3309 96.3111V116.457M79.3309 96.3111H99.4766M79.3309 116.457V136.602M79.3309 116.457H99.4766M79.3309 136.602V156.748M79.3309 136.602H99.4766M79.3309 156.748V176.894M79.3309 156.748H99.4766M79.3309 176.894V197.039M79.3309 176.894H99.4766M79.3309 197.039V217.185M79.3309 197.039H99.4766M79.3309 217.185V237.331M79.3309 217.185H99.4766M79.3309 237.331V257.476M79.3309 237.331H99.4766M79.3309 257.476V277.622M79.3309 257.476H99.4766M79.3309 277.622V297.768M79.3309 277.622H99.4766M79.3309 297.768V317.914M79.3309 297.768H99.4766M79.3309 317.914H99.4766M99.4766 -85V-64.8543M99.4766 -85H119.622M99.4766 -64.8543V-44.7086M99.4766 -64.8543H119.622M99.4766 -44.7086V-24.563M99.4766 -44.7086H119.622M99.4766 -24.563V-4.41729M99.4766 -24.563H119.622M99.4766 -4.41729V15.7284M99.4766 -4.41729H119.622M99.4766 15.7284V35.8741M99.4766 15.7284H119.622M99.4766 35.8741V56.0197M99.4766 35.8741H119.622M99.4766 56.0197V76.1654M99.4766 56.0197H119.622M99.4766 76.1654V96.3111M99.4766 76.1654H119.622M99.4766 96.3111V116.457M99.4766 96.3111H119.622M99.4766 116.457V136.602M99.4766 116.457H119.622M99.4766 136.602V156.748M99.4766 136.602H119.622M99.4766 156.748V176.894M99.4766 156.748H119.622M99.4766 176.894V197.039M99.4766 176.894H119.622M99.4766 197.039V217.185M99.4766 197.039H119.622M99.4766 217.185V237.331M99.4766 217.185H119.622M99.4766 237.331V257.476M99.4766 237.331H119.622M99.4766 257.476V277.622M99.4766 257.476H119.622M99.4766 277.622V297.768M99.4766 277.622H119.622M99.4766 297.768V317.914M99.4766 297.768H119.622M99.4766 317.914H119.622M119.622 -85V-64.8543M119.622 -85H139.768M119.622 -64.8543V-44.7086M119.622 -64.8543H139.768M119.622 -44.7086V-24.563M119.622 -44.7086H139.768M119.622 -24.563V-4.41729M119.622 -24.563H139.768M119.622 -4.41729V15.7284M119.622 -4.41729H139.768M119.622 15.7284V35.8741M119.622 15.7284H139.768M119.622 35.8741V56.0197M119.622 35.8741H139.768M119.622 56.0197V76.1654M119.622 56.0197H139.768M119.622 76.1654V96.3111M119.622 76.1654H139.768M119.622 96.3111V116.457M119.622 96.3111H139.768M119.622 116.457V136.602M119.622 116.457H139.768M119.622 136.602V156.748M119.622 136.602H139.768M119.622 156.748V176.894M119.622 156.748H139.768M119.622 176.894V197.039M119.622 176.894H139.768M119.622 197.039V217.185M119.622 197.039H139.768M119.622 217.185V237.331M119.622 217.185H139.768M119.622 237.331V257.476M119.622 237.331H139.768M119.622 257.476V277.622M119.622 257.476H139.768M119.622 277.622V297.768M119.622 277.622H139.768M119.622 297.768V317.914M119.622 297.768H139.768M119.622 317.914H139.768M139.768 -85V-64.8543M139.768 -85H159.914M139.768 -64.8543V-44.7086M139.768 -64.8543H159.914M139.768 -44.7086V-24.563M139.768 -44.7086H159.914M139.768 -24.563V-4.41729M139.768 -24.563H159.914M139.768 -4.41729V15.7284M139.768 -4.41729H159.914M139.768 15.7284V35.8741M139.768 15.7284H159.914M139.768 35.8741V56.0197M139.768 35.8741H159.914M139.768 56.0197V76.1654M139.768 56.0197H159.914M139.768 76.1654V96.3111M139.768 76.1654H159.914M139.768 96.3111V116.457M139.768 96.3111H159.914M139.768 116.457V136.602M139.768 116.457H159.914M139.768 136.602V156.748M139.768 136.602H159.914M139.768 156.748V176.894M139.768 156.748H159.914M139.768 176.894V197.039M139.768 176.894H159.914M139.768 197.039V217.185M139.768 197.039H159.914M139.768 217.185V237.331M139.768 217.185H159.914M139.768 237.331V257.476M139.768 237.331H159.914M139.768 257.476V277.622M139.768 257.476H159.914M139.768 277.622V297.768M139.768 277.622H159.914M139.768 297.768V317.914M139.768 297.768H159.914M139.768 317.914H159.914M159.914 -85V-64.8543M159.914 -85H180.059M159.914 -64.8543V-44.7086M159.914 -64.8543H180.059M159.914 -44.7086V-24.563M159.914 -44.7086H180.059M159.914 -24.563V-4.41729M159.914 -24.563H180.059M159.914 -4.41729V15.7284M159.914 -4.41729H180.059M159.914 15.7284V35.8741M159.914 15.7284H180.059M159.914 35.8741V56.0197M159.914 35.8741H180.059M159.914 56.0197V76.1654M159.914 56.0197H180.059M159.914 76.1654V96.3111M159.914 76.1654H180.059M159.914 96.3111V116.457M159.914 96.3111H180.059M159.914 116.457V136.602M159.914 116.457H180.059M159.914 136.602V156.748M159.914 136.602H180.059M159.914 156.748V176.894M159.914 156.748H180.059M159.914 176.894V197.039M159.914 176.894H180.059M159.914 197.039V217.185M159.914 197.039H180.059M159.914 217.185V237.331M159.914 217.185H180.059M159.914 237.331V257.476M159.914 237.331H180.059M159.914 257.476V277.622M159.914 257.476H180.059M159.914 277.622V297.768M159.914 277.622H180.059M159.914 297.768V317.914M159.914 297.768H180.059M159.914 317.914H180.059M180.059 -85V-64.8543M180.059 -85H200.205M180.059 -64.8543V-44.7086M180.059 -64.8543H200.205M180.059 -44.7086V-24.563M180.059 -44.7086H200.205M180.059 -24.563V-4.41729M180.059 -24.563H200.205M180.059 -4.41729V15.7284M180.059 -4.41729H200.205M180.059 15.7284V35.8741M180.059 15.7284H200.205M180.059 35.8741V56.0197M180.059 35.8741H200.205M180.059 56.0197V76.1654M180.059 56.0197H200.205M180.059 76.1654V96.3111M180.059 76.1654H200.205M180.059 96.3111V116.457M180.059 96.3111H200.205M180.059 116.457V136.602M180.059 116.457H200.205M180.059 136.602V156.748M180.059 136.602H200.205M180.059 156.748V176.894M180.059 156.748H200.205M180.059 176.894V197.039M180.059 176.894H200.205M180.059 197.039V217.185M180.059 197.039H200.205M180.059 217.185V237.331M180.059 217.185H200.205M180.059 237.331V257.476M180.059 237.331H200.205M180.059 257.476V277.622M180.059 257.476H200.205M180.059 277.622V297.768M180.059 277.622H200.205M180.059 297.768V317.914M180.059 297.768H200.205M180.059 317.914H200.205M200.205 -85V-64.8543M200.205 -85H220.351M200.205 -64.8543V-44.7086M200.205 -64.8543H220.351M200.205 -44.7086V-24.563M200.205 -44.7086H220.351M200.205 -24.563V-4.41729M200.205 -24.563H220.351M200.205 -4.41729V15.7284M200.205 -4.41729H220.351M200.205 15.7284V35.8741M200.205 15.7284H220.351M200.205 35.8741V56.0197M200.205 35.8741H220.351M200.205 56.0197V76.1654M200.205 56.0197H220.351M200.205 76.1654V96.3111M200.205 76.1654H220.351M200.205 96.3111V116.457M200.205 96.3111H220.351M200.205 116.457V136.602M200.205 116.457H220.351M200.205 136.602V156.748M200.205 136.602H220.351M200.205 156.748V176.894M200.205 156.748H220.351M200.205 176.894V197.039M200.205 176.894H220.351M200.205 197.039V217.185M200.205 197.039H220.351M200.205 217.185V237.331M200.205 217.185H220.351M200.205 237.331V257.476M200.205 237.331H220.351M200.205 257.476V277.622M200.205 257.476H220.351M200.205 277.622V297.768M200.205 277.622H220.351M200.205 297.768V317.914M200.205 297.768H220.351M200.205 317.914H220.351M220.351 -85V-64.8543M220.351 -85H240.496M220.351 -64.8543V-44.7086M220.351 -64.8543H240.496M220.351 -44.7086V-24.563M220.351 -44.7086H240.496M220.351 -24.563V-4.41729M220.351 -24.563H240.496M220.351 -4.41729V15.7284M220.351 -4.41729H240.496M220.351 15.7284V35.8741M220.351 15.7284H240.496M220.351 35.8741V56.0197M220.351 35.8741H240.496M220.351 56.0197V76.1654M220.351 56.0197H240.496M220.351 76.1654V96.3111M220.351 76.1654H240.496M220.351 96.3111V116.457M220.351 96.3111H240.496M220.351 116.457V136.602M220.351 116.457H240.496M220.351 136.602V156.748M220.351 136.602H240.496M220.351 156.748V176.894M220.351 156.748H240.496M220.351 176.894V197.039M220.351 176.894H240.496M220.351 197.039V217.185M220.351 197.039H240.496M220.351 217.185V237.331M220.351 217.185H240.496M220.351 237.331V257.476M220.351 237.331H240.496M220.351 257.476V277.622M220.351 257.476H240.496M220.351 277.622V297.768M220.351 277.622H240.496M220.351 297.768V317.914M220.351 297.768H240.496M220.351 317.914H240.496M240.496 -85V-64.8543M240.496 -85H260.642M240.496 -64.8543V-44.7086M240.496 -64.8543H260.642M240.496 -44.7086V-24.563M240.496 -44.7086H260.642M240.496 -24.563V-4.41729M240.496 -24.563H260.642M240.496 -4.41729V15.7284M240.496 -4.41729H260.642M240.496 15.7284V35.8741M240.496 15.7284H260.642M240.496 35.8741V56.0197M240.496 35.8741H260.642M240.496 56.0197V76.1654M240.496 56.0197H260.642M240.496 76.1654V96.3111M240.496 76.1654H260.642M240.496 96.3111V116.457M240.496 96.3111H260.642M240.496 116.457V136.602M240.496 116.457H260.642M240.496 136.602V156.748M240.496 136.602H260.642M240.496 156.748V176.894M240.496 156.748H260.642M240.496 176.894V197.039M240.496 176.894H260.642M240.496 197.039V217.185M240.496 197.039H260.642M240.496 217.185V237.331M240.496 217.185H260.642M240.496 237.331V257.476M240.496 237.331H260.642M240.496 257.476V277.622M240.496 257.476H260.642M240.496 277.622V297.768M240.496 277.622H260.642M240.496 297.768V317.914M240.496 297.768H260.642M240.496 317.914H260.642M260.642 -85V-64.8543M260.642 -85H280.788M260.642 -64.8543V-44.7086M260.642 -64.8543H280.788M260.642 -44.7086V-24.563M260.642 -44.7086H280.788M260.642 -24.563V-4.41729M260.642 -24.563H280.788M260.642 -4.41729V15.7284M260.642 -4.41729H280.788M260.642 15.7284V35.8741M260.642 15.7284H280.788M260.642 35.8741V56.0197M260.642 35.8741H280.788M260.642 56.0197V76.1654M260.642 56.0197H280.788M260.642 76.1654V96.3111M260.642 76.1654H280.788M260.642 96.3111V116.457M260.642 96.3111H280.788M260.642 116.457V136.602M260.642 116.457H280.788M260.642 136.602V156.748M260.642 136.602H280.788M260.642 156.748V176.894M260.642 156.748H280.788M260.642 176.894V197.039M260.642 176.894H280.788M260.642 197.039V217.185M260.642 197.039H280.788M260.642 217.185V237.331M260.642 217.185H280.788M260.642 237.331V257.476M260.642 237.331H280.788M260.642 257.476V277.622M260.642 257.476H280.788M260.642 277.622V297.768M260.642 277.622H280.788M260.642 297.768V317.914M260.642 297.768H280.788M260.642 317.914H280.788M280.788 -85V-64.8543M280.788 -85H300.933M280.788 -64.8543V-44.7086M280.788 -64.8543H300.933M280.788 -44.7086V-24.563M280.788 -44.7086H300.933M280.788 -24.563V-4.41729M280.788 -24.563H300.933M280.788 -4.41729V15.7284M280.788 -4.41729H300.933M280.788 15.7284V35.8741M280.788 15.7284H300.933M280.788 35.8741V56.0197M280.788 35.8741H300.933M280.788 56.0197V76.1654M280.788 56.0197H300.933M280.788 76.1654V96.3111M280.788 76.1654H300.933M280.788 96.3111V116.457M280.788 96.3111H300.933M280.788 116.457V136.602M280.788 116.457H300.933M280.788 136.602V156.748M280.788 136.602H300.933M280.788 156.748V176.894M280.788 156.748H300.933M280.788 176.894V197.039M280.788 176.894H300.933M280.788 197.039V217.185M280.788 197.039H300.933M280.788 217.185V237.331M280.788 217.185H300.933M280.788 237.331V257.476M280.788 237.331H300.933M280.788 257.476V277.622M280.788 257.476H300.933M280.788 277.622V297.768M280.788 277.622H300.933M280.788 297.768V317.914M280.788 297.768H300.933M280.788 317.914H300.933M300.933 -85V-64.8543M300.933 -85H321.079M300.933 -64.8543V-44.7086M300.933 -64.8543H321.079M300.933 -44.7086V-24.563M300.933 -44.7086H321.079M300.933 -24.563V-4.41729M300.933 -24.563H321.079M300.933 -4.41729V15.7284M300.933 -4.41729H321.079M300.933 15.7284V35.8741M300.933 15.7284H321.079M300.933 35.8741V56.0197M300.933 35.8741H321.079M300.933 56.0197V76.1654M300.933 56.0197H321.079M300.933 76.1654V96.3111M300.933 76.1654H321.079M300.933 96.3111V116.457M300.933 96.3111H321.079M300.933 116.457V136.602M300.933 116.457H321.079M300.933 136.602V156.748M300.933 136.602H321.079M300.933 156.748V176.894M300.933 156.748H321.079M300.933 176.894V197.039M300.933 176.894H321.079M300.933 197.039V217.185M300.933 197.039H321.079M300.933 217.185V237.331M300.933 217.185H321.079M300.933 237.331V257.476M300.933 237.331H321.079M300.933 257.476V277.622M300.933 257.476H321.079M300.933 277.622V297.768M300.933 277.622H321.079M300.933 297.768V317.914M300.933 297.768H321.079M300.933 317.914H321.079M321.079 -85V-64.8543M321.079 -85H341.225M321.079 -64.8543V-44.7086M321.079 -64.8543H341.225M321.079 -44.7086V-24.563M321.079 -44.7086H341.225M321.079 -24.563V-4.41729M321.079 -24.563H341.225M321.079 -4.41729V15.7284M321.079 -4.41729H341.225M321.079 15.7284V35.8741M321.079 15.7284H341.225M321.079 35.8741V56.0197M321.079 35.8741H341.225M321.079 56.0197V76.1654M321.079 56.0197H341.225M321.079 76.1654V96.3111M321.079 76.1654H341.225M321.079 96.3111V116.457M321.079 96.3111H341.225M321.079 116.457V136.602M321.079 116.457H341.225M321.079 136.602V156.748M321.079 136.602H341.225M321.079 156.748V176.894M321.079 156.748H341.225M321.079 176.894V197.039M321.079 176.894H341.225M321.079 197.039V217.185M321.079 197.039H341.225M321.079 217.185V237.331M321.079 217.185H341.225M321.079 237.331V257.476M321.079 237.331H341.225M321.079 257.476V277.622M321.079 257.476H341.225M321.079 277.622V297.768M321.079 277.622H341.225M321.079 297.768V317.914M321.079 297.768H341.225M321.079 317.914H341.225M341.225 -85V-64.8543M341.225 -85H361.37M341.225 -64.8543V-44.7086M341.225 -64.8543H361.37M341.225 -44.7086V-24.563M341.225 -44.7086H361.37M341.225 -24.563V-4.41729M341.225 -24.563H361.37M341.225 -4.41729V15.7284M341.225 -4.41729H361.37M341.225 15.7284V35.8741M341.225 15.7284H361.37M341.225 35.8741V56.0197M341.225 35.8741H361.37M341.225 56.0197V76.1654M341.225 56.0197H361.37M341.225 76.1654V96.3111M341.225 76.1654H361.37M341.225 96.3111V116.457M341.225 96.3111H361.37M341.225 116.457V136.602M341.225 116.457H361.37M341.225 136.602V156.748M341.225 136.602H361.37M341.225 156.748V176.894M341.225 156.748H361.37M341.225 176.894V197.039M341.225 176.894H361.37M341.225 197.039V217.185M341.225 197.039H361.37M341.225 217.185V237.331M341.225 217.185H361.37M341.225 237.331V257.476M341.225 237.331H361.37M341.225 257.476V277.622M341.225 257.476H361.37M341.225 277.622V297.768M341.225 277.622H361.37M341.225 297.768V317.914M341.225 297.768H361.37M341.225 317.914H361.37M361.37 -85V-64.8543M361.37 -85H381.516M361.37 -64.8543V-44.7086M361.37 -64.8543H381.516M361.37 -44.7086V-24.563M361.37 -44.7086H381.516M361.37 -24.563V-4.41729M361.37 -24.563H381.516M361.37 -4.41729V15.7284M361.37 -4.41729H381.516M361.37 15.7284V35.8741M361.37 15.7284H381.516M361.37 35.8741V56.0197M361.37 35.8741H381.516M361.37 56.0197V76.1654M361.37 56.0197H381.516M361.37 76.1654V96.3111M361.37 76.1654H381.516M361.37 96.3111V116.457M361.37 96.3111H381.516M361.37 116.457V136.602M361.37 116.457H381.516M361.37 136.602V156.748M361.37 136.602H381.516M361.37 156.748V176.894M361.37 156.748H381.516M361.37 176.894V197.039M361.37 176.894H381.516M361.37 197.039V217.185M361.37 197.039H381.516M361.37 217.185V237.331M361.37 217.185H381.516M361.37 237.331V257.476M361.37 237.331H381.516M361.37 257.476V277.622M361.37 257.476H381.516M361.37 277.622V297.768M361.37 277.622H381.516M361.37 297.768V317.914M361.37 297.768H381.516M361.37 317.914H381.516M381.516 -85V-64.8543M381.516 -85H401.662M381.516 -64.8543V-44.7086M381.516 -64.8543H401.662M381.516 -44.7086V-24.563M381.516 -44.7086H401.662M381.516 -24.563V-4.41729M381.516 -24.563H401.662M381.516 -4.41729V15.7284M381.516 -4.41729H401.662M381.516 15.7284V35.8741M381.516 15.7284H401.662M381.516 35.8741V56.0197M381.516 35.8741H401.662M381.516 56.0197V76.1654M381.516 56.0197H401.662M381.516 76.1654V96.3111M381.516 76.1654H401.662M381.516 96.3111V116.457M381.516 96.3111H401.662M381.516 116.457V136.602M381.516 116.457H401.662M381.516 136.602V156.748M381.516 136.602H401.662M381.516 156.748V176.894M381.516 156.748H401.662M381.516 176.894V197.039M381.516 176.894H401.662M381.516 197.039V217.185M381.516 197.039H401.662M381.516 217.185V237.331M381.516 217.185H401.662M381.516 237.331V257.476M381.516 237.331H401.662M381.516 257.476V277.622M381.516 257.476H401.662M381.516 277.622V297.768M381.516 277.622H401.662M381.516 297.768V317.914M381.516 297.768H401.662M381.516 317.914H401.662M401.662 -85V-64.8543M401.662 -85H421.807M401.662 -64.8543V-44.7086M401.662 -64.8543H421.807M401.662 -44.7086V-24.563M401.662 -44.7086H421.807M401.662 -24.563V-4.41729M401.662 -24.563H421.807M401.662 -4.41729V15.7284M401.662 -4.41729H421.807M401.662 15.7284V35.8741M401.662 15.7284H421.807M401.662 35.8741V56.0197M401.662 35.8741H421.807M401.662 56.0197V76.1654M401.662 56.0197H421.807M401.662 76.1654V96.3111M401.662 76.1654H421.807M401.662 96.3111V116.457M401.662 96.3111H421.807M401.662 116.457V136.602M401.662 116.457H421.807M401.662 136.602V156.748M401.662 136.602H421.807M401.662 156.748V176.894M401.662 156.748H421.807M401.662 176.894V197.039M401.662 176.894H421.807M401.662 197.039V217.185M401.662 197.039H421.807M401.662 217.185V237.331M401.662 217.185H421.807M401.662 237.331V257.476M401.662 237.331H421.807M401.662 257.476V277.622M401.662 257.476H421.807M401.662 277.622V297.768M401.662 277.622H421.807M401.662 297.768V317.914M401.662 297.768H421.807M401.662 317.914H421.807M421.807 -85V-64.8543M421.807 -85H441.953M421.807 -64.8543V-44.7086M421.807 -64.8543H441.953M421.807 -44.7086V-24.563M421.807 -44.7086H441.953M421.807 -24.563V-4.41729M421.807 -24.563H441.953M421.807 -4.41729V15.7284M421.807 -4.41729H441.953M421.807 15.7284V35.8741M421.807 15.7284H441.953M421.807 35.8741V56.0197M421.807 35.8741H441.953M421.807 56.0197V76.1654M421.807 56.0197H441.953M421.807 76.1654V96.3111M421.807 76.1654H441.953M421.807 96.3111V116.457M421.807 96.3111H441.953M421.807 116.457V136.602M421.807 116.457H441.953M421.807 136.602V156.748M421.807 136.602H441.953M421.807 156.748V176.894M421.807 156.748H441.953M421.807 176.894V197.039M421.807 176.894H441.953M421.807 197.039V217.185M421.807 197.039H441.953M421.807 217.185V237.331M421.807 217.185H441.953M421.807 237.331V257.476M421.807 237.331H441.953M421.807 257.476V277.622M421.807 257.476H441.953M421.807 277.622V297.768M421.807 277.622H441.953M421.807 297.768V317.914M421.807 297.768H441.953M421.807 317.914H441.953M441.953 -85V-64.8543M441.953 -85H462.099M441.953 -64.8543V-44.7086M441.953 -64.8543H462.099M441.953 -44.7086V-24.563M441.953 -44.7086H462.099M441.953 -24.563V-4.41729M441.953 -24.563H462.099M441.953 -4.41729V15.7284M441.953 -4.41729H462.099M441.953 15.7284V35.8741M441.953 15.7284H462.099M441.953 35.8741V56.0197M441.953 35.8741H462.099M441.953 56.0197V76.1654M441.953 56.0197H462.099M441.953 76.1654V96.3111M441.953 76.1654H462.099M441.953 96.3111V116.457M441.953 96.3111H462.099M441.953 116.457V136.602M441.953 116.457H462.099M441.953 136.602V156.748M441.953 136.602H462.099M441.953 156.748V176.894M441.953 156.748H462.099M441.953 176.894V197.039M441.953 176.894H462.099M441.953 197.039V217.185M441.953 197.039H462.099M441.953 217.185V237.331M441.953 217.185H462.099M441.953 237.331V257.476M441.953 237.331H462.099M441.953 257.476V277.622M441.953 257.476H462.099M441.953 277.622V297.768M441.953 277.622H462.099M441.953 297.768V317.914M441.953 297.768H462.099M441.953 317.914H462.099M462.099 -85V-64.8543M462.099 -85H482.244M462.099 -64.8543V-44.7086M462.099 -64.8543H482.244M462.099 -44.7086V-24.563M462.099 -44.7086H482.244M462.099 -24.563V-4.41729M462.099 -24.563H482.244M462.099 -4.41729V15.7284M462.099 -4.41729H482.244M462.099 15.7284V35.8741M462.099 15.7284H482.244M462.099 35.8741V56.0197M462.099 35.8741H482.244M462.099 56.0197V76.1654M462.099 56.0197H482.244M462.099 76.1654V96.3111M462.099 76.1654H482.244M462.099 96.3111V116.457M462.099 96.3111H482.244M462.099 116.457V136.602M462.099 116.457H482.244M462.099 136.602V156.748M462.099 136.602H482.244M462.099 156.748V176.894M462.099 156.748H482.244M462.099 176.894V197.039M462.099 176.894H482.244M462.099 197.039V217.185M462.099 197.039H482.244M462.099 217.185V237.331M462.099 217.185H482.244M462.099 237.331V257.476M462.099 237.331H482.244M462.099 257.476V277.622M462.099 257.476H482.244M462.099 277.622V297.768M462.099 277.622H482.244M462.099 297.768V317.914M462.099 297.768H482.244M462.099 317.914H482.244M482.244 -85V-64.8543M482.244 -85H502.39M482.244 -64.8543V-44.7086M482.244 -64.8543H502.39M482.244 -44.7086V-24.563M482.244 -44.7086H502.39M482.244 -24.563V-4.41729M482.244 -24.563H502.39M482.244 -4.41729V15.7284M482.244 -4.41729H502.39M482.244 15.7284V35.8741M482.244 15.7284H502.39M482.244 35.8741V56.0197M482.244 35.8741H502.39M482.244 56.0197V76.1654M482.244 56.0197H502.39M482.244 76.1654V96.3111M482.244 76.1654H502.39M482.244 96.3111V116.457M482.244 96.3111H502.39M482.244 116.457V136.602M482.244 116.457H502.39M482.244 136.602V156.748M482.244 136.602H502.39M482.244 156.748V176.894M482.244 156.748H502.39M482.244 176.894V197.039M482.244 176.894H502.39M482.244 197.039V217.185M482.244 197.039H502.39M482.244 217.185V237.331M482.244 217.185H502.39M482.244 237.331V257.476M482.244 237.331H502.39M482.244 257.476V277.622M482.244 257.476H502.39M482.244 277.622V297.768M482.244 277.622H502.39M482.244 297.768V317.914M482.244 297.768H502.39M482.244 317.914H502.39M502.39 -85V-64.8543M502.39 -85H522.536M502.39 -64.8543V-44.7086M502.39 -64.8543H522.536M502.39 -44.7086V-24.563M502.39 -44.7086H522.536M502.39 -24.563V-4.41729M502.39 -24.563H522.536M502.39 -4.41729V15.7284M502.39 -4.41729H522.536M502.39 15.7284V35.8741M502.39 15.7284H522.536M502.39 35.8741V56.0197M502.39 35.8741H522.536M502.39 56.0197V76.1654M502.39 56.0197H522.536M502.39 76.1654V96.3111M502.39 76.1654H522.536M502.39 96.3111V116.457M502.39 96.3111H522.536M502.39 116.457V136.602M502.39 116.457H522.536M502.39 136.602V156.748M502.39 136.602H522.536M502.39 156.748V176.894M502.39 156.748H522.536M502.39 176.894V197.039M502.39 176.894H522.536M502.39 197.039V217.185M502.39 197.039H522.536M502.39 217.185V237.331M502.39 217.185H522.536M502.39 237.331V257.476M502.39 237.331H522.536M502.39 257.476V277.622M502.39 257.476H522.536M502.39 277.622V297.768M502.39 277.622H522.536M502.39 297.768V317.914M502.39 297.768H522.536M502.39 317.914H522.536M522.536 -85V-64.8543M522.536 -85H542.682M522.536 -64.8543V-44.7086M522.536 -64.8543H542.682M522.536 -44.7086V-24.563M522.536 -44.7086H542.682M522.536 -24.563V-4.41729M522.536 -24.563H542.682M522.536 -4.41729V15.7284M522.536 -4.41729H542.682M522.536 15.7284V35.8741M522.536 15.7284H542.682M522.536 35.8741V56.0197M522.536 35.8741H542.682M522.536 56.0197V76.1654M522.536 56.0197H542.682M522.536 76.1654V96.3111M522.536 76.1654H542.682M522.536 96.3111V116.457M522.536 96.3111H542.682M522.536 116.457V136.602M522.536 116.457H542.682M522.536 136.602V156.748M522.536 136.602H542.682M522.536 156.748V176.894M522.536 156.748H542.682M522.536 176.894V197.039M522.536 176.894H542.682M522.536 197.039V217.185M522.536 197.039H542.682M522.536 217.185V237.331M522.536 217.185H542.682M522.536 237.331V257.476M522.536 237.331H542.682M522.536 257.476V277.622M522.536 257.476H542.682M522.536 277.622V297.768M522.536 277.622H542.682M522.536 297.768V317.914M522.536 297.768H542.682M522.536 317.914H542.682M542.682 -85V-64.8543M542.682 -85H562.827M542.682 -64.8543V-44.7086M542.682 -64.8543H562.827M542.682 -44.7086V-24.563M542.682 -44.7086H562.827M542.682 -24.563V-4.41729M542.682 -24.563H562.827M542.682 -4.41729V15.7284M542.682 -4.41729H562.827M542.682 15.7284V35.8741M542.682 15.7284H562.827M542.682 35.8741V56.0197M542.682 35.8741H562.827M542.682 56.0197V76.1654M542.682 56.0197H562.827M542.682 76.1654V96.3111M542.682 76.1654H562.827M542.682 96.3111V116.457M542.682 96.3111H562.827M542.682 116.457V136.602M542.682 116.457H562.827M542.682 136.602V156.748M542.682 136.602H562.827M542.682 156.748V176.894M542.682 156.748H562.827M542.682 176.894V197.039M542.682 176.894H562.827M542.682 197.039V217.185M542.682 197.039H562.827M542.682 217.185V237.331M542.682 217.185H562.827M542.682 237.331V257.476M542.682 237.331H562.827M542.682 257.476V277.622M542.682 257.476H562.827M542.682 277.622V297.768M542.682 277.622H562.827M542.682 297.768V317.914M542.682 297.768H562.827M542.682 317.914H562.827M562.827 -85V-64.8543M562.827 -85H582.973M562.827 -64.8543V-44.7086M562.827 -64.8543H582.973M562.827 -44.7086V-24.563M562.827 -44.7086H582.973M562.827 -24.563V-4.41729M562.827 -24.563H582.973M562.827 -4.41729V15.7284M562.827 -4.41729H582.973M562.827 15.7284V35.8741M562.827 15.7284H582.973M562.827 35.8741V56.0197M562.827 35.8741H582.973M562.827 56.0197V76.1654M562.827 56.0197H582.973M562.827 76.1654V96.3111M562.827 76.1654H582.973M562.827 96.3111V116.457M562.827 96.3111H582.973M562.827 116.457V136.602M562.827 116.457H582.973M562.827 136.602V156.748M562.827 136.602H582.973M562.827 156.748V176.894M562.827 156.748H582.973M562.827 176.894V197.039M562.827 176.894H582.973M562.827 197.039V217.185M562.827 197.039H582.973M562.827 217.185V237.331M562.827 217.185H582.973M562.827 237.331V257.476M562.827 237.331H582.973M562.827 257.476V277.622M562.827 257.476H582.973M562.827 277.622V297.768M562.827 277.622H582.973M562.827 297.768V317.914M562.827 297.768H582.973M562.827 317.914H582.973M582.973 -85V-64.8543M582.973 -85H603.119M582.973 -64.8543V-44.7086M582.973 -64.8543H603.119M582.973 -44.7086V-24.563M582.973 -44.7086H603.119M582.973 -24.563V-4.41729M582.973 -24.563H603.119M582.973 -4.41729V15.7284M582.973 -4.41729H603.119M582.973 15.7284V35.8741M582.973 15.7284H603.119M582.973 35.8741V56.0197M582.973 35.8741H603.119M582.973 56.0197V76.1654M582.973 56.0197H603.119M582.973 76.1654V96.3111M582.973 76.1654H603.119M582.973 96.3111V116.457M582.973 96.3111H603.119M582.973 116.457V136.602M582.973 116.457H603.119M582.973 136.602V156.748M582.973 136.602H603.119M582.973 156.748V176.894M582.973 156.748H603.119M582.973 176.894V197.039M582.973 176.894H603.119M582.973 197.039V217.185M582.973 197.039H603.119M582.973 217.185V237.331M582.973 217.185H603.119M582.973 237.331V257.476M582.973 237.331H603.119M582.973 257.476V277.622M582.973 257.476H603.119M582.973 277.622V297.768M582.973 277.622H603.119M582.973 297.768V317.914M582.973 297.768H603.119M582.973 317.914H603.119M603.119 -85V-64.8543M603.119 -85H623.264M603.119 -64.8543V-44.7086M603.119 -64.8543H623.264M603.119 -44.7086V-24.563M603.119 -44.7086H623.264M603.119 -24.563V-4.41729M603.119 -24.563H623.264M603.119 -4.41729V15.7284M603.119 -4.41729H623.264M603.119 15.7284V35.8741M603.119 15.7284H623.264M603.119 35.8741V56.0197M603.119 35.8741H623.264M603.119 56.0197V76.1654M603.119 56.0197H623.264M603.119 76.1654V96.3111M603.119 76.1654H623.264M603.119 96.3111V116.457M603.119 96.3111H623.264M603.119 116.457V136.602M603.119 116.457H623.264M603.119 136.602V156.748M603.119 136.602H623.264M603.119 156.748V176.894M603.119 156.748H623.264M603.119 176.894V197.039M603.119 176.894H623.264M603.119 197.039V217.185M603.119 197.039H623.264M603.119 217.185V237.331M603.119 217.185H623.264M603.119 237.331V257.476M603.119 237.331H623.264M603.119 257.476V277.622M603.119 257.476H623.264M603.119 277.622V297.768M603.119 277.622H623.264M603.119 297.768V317.914M603.119 297.768H623.264M603.119 317.914H623.264M623.264 -85V-64.8543M623.264 -85H643.41V-64.8543M623.264 -64.8543V-44.7086M623.264 -64.8543H643.41M623.264 -44.7086V-24.563M623.264 -44.7086H643.41M623.264 -24.563V-4.41729M623.264 -24.563H643.41M623.264 -4.41729V15.7284M623.264 -4.41729H643.41M623.264 15.7284V35.8741M623.264 15.7284H643.41M623.264 35.8741V56.0197M623.264 35.8741H643.41M623.264 56.0197V76.1654M623.264 56.0197H643.41M623.264 76.1654V96.3111M623.264 76.1654H643.41M623.264 96.3111V116.457M623.264 96.3111H643.41M623.264 116.457V136.602M623.264 116.457H643.41M623.264 136.602V156.748M623.264 136.602H643.41M623.264 156.748V176.894M623.264 156.748H643.41M623.264 176.894V197.039M623.264 176.894H643.41M623.264 197.039V217.185M623.264 197.039H643.41M623.264 217.185V237.331M623.264 217.185H643.41M623.264 237.331V257.476M623.264 237.331H643.41M623.264 257.476V277.622M623.264 257.476H643.41M623.264 277.622V297.768M623.264 277.622H643.41M623.264 297.768V317.914M623.264 297.768H643.41M623.264 317.914H643.41V297.768M643.41 -64.8543V-44.7086M643.41 -44.7086V-24.563M643.41 -24.563V-4.41729M643.41 -4.41729V15.7284M643.41 15.7284V35.8741M643.41 35.8741V56.0197M643.41 56.0197V76.1654M643.41 76.1654V96.3111M643.41 96.3111V116.457M643.41 116.457V136.602M643.41 136.602V156.748M643.41 156.748V176.894M643.41 176.894V197.039M643.41 197.039V217.185M643.41 217.185V237.331M643.41 237.331V257.476M643.41 257.476V277.622M643.41 277.622V297.768" stroke="url(#paint0_radial_1629_22030)" stroke-width="0.5"/>
<path d="M78.5476 130.537V136.581M78.5476 136.581V142.624M78.5476 136.581H72.5039M78.5476 136.581H84.5913M320.77 50V56.0437M320.77 56.0437V62.0874M320.77 56.0437H314.726M320.77 56.0437H326.813M320.77 130.537V136.581M320.77 136.581V142.624M320.77 136.581H314.726M320.77 136.581H326.813M78.5476 50V56.0437M78.5476 56.0437V62.0874M78.5476 56.0437H72.5039M78.5476 56.0437H84.5914" stroke="url(#paint1_radial_1629_22030)" stroke-width="0.503642"/>
</g>
<defs>
<radialGradient id="paint0_radial_1629_22030" cx="0" cy="0" r="1" gradientUnits="userSpaceOnUse" gradientTransform="translate(200.205 116.457) rotate(90.0583) scale(201.543 307.844)">
<stop offset="0.204166" stop-color="#282D33"/>
<stop offset="0.678272" stop-color="#282D33" stop-opacity="0"/>
</radialGradient>
<radialGradient id="paint1_radial_1629_22030" cx="0" cy="0" r="1" gradientUnits="userSpaceOnUse" gradientTransform="translate(190 113.878) rotate(90) scale(202.5 438.423)">
<stop stop-color="#F2F2F2"/>
<stop offset="0.40685" stop-color="#F2F2F2" stop-opacity="0"/>
</radialGradient>
<clipPath id="clip0_1629_22030">
<rect width="400" height="258" fill="white"/>
</clipPath>
</defs>
</svg>
