<svg width="390" height="217" viewBox="0 0 390 217" fill="none" xmlns="http://www.w3.org/2000/svg">
<g clip-path="url(#clip0_2573_23997)">
<g style="" opacity="0.7">
<path d="M-227.854 -142H-248V-121.854M-227.854 -142V-121.854M-227.854 -142H-207.709M-227.854 -121.854H-248M-227.854 -121.854V-101.709M-227.854 -121.854H-207.709M-248 -121.854V-101.709M-227.854 -101.709H-248M-227.854 -101.709V-81.563M-227.854 -101.709H-207.709M-248 -101.709V-81.563M-227.854 -81.563H-248M-227.854 -81.563V-61.4173M-227.854 -81.563H-207.709M-248 -81.563V-61.4173M-227.854 -61.4173H-248M-227.854 -61.4173V-41.2716M-227.854 -61.4173H-207.709M-248 -61.4173V-41.2716M-227.854 -41.2716H-248M-227.854 -41.2716V-21.1259M-227.854 -41.2716H-207.709M-248 -41.2716V-21.1259M-227.854 -21.1259H-248M-227.854 -21.1259V-0.98027M-227.854 -21.1259H-207.709M-248 -21.1259V-0.98027M-227.854 -0.98027H-248M-227.854 -0.98027V19.1654M-227.854 -0.98027H-207.709M-248 -0.98027V19.1654M-227.854 19.1654H-248M-227.854 19.1654V39.3111M-227.854 19.1654H-207.709M-248 19.1654V39.3111M-227.854 39.3111H-248M-227.854 39.3111V59.4568M-227.854 39.3111H-207.709M-248 39.3111V59.4568M-227.854 59.4568H-248M-227.854 59.4568V79.6024M-227.854 59.4568H-207.709M-248 59.4568V79.6024M-227.854 79.6024H-248M-227.854 79.6024V99.7481M-227.854 79.6024H-207.709M-248 79.6024V99.7481M-227.854 99.7481H-248M-227.854 99.7481V119.894M-227.854 99.7481H-207.709M-248 99.7481V119.894M-227.854 119.894H-248M-227.854 119.894V140.039M-227.854 119.894H-207.709M-248 119.894V140.039M-227.854 140.039H-248M-227.854 140.039V160.185M-227.854 140.039H-207.709M-248 140.039V160.185M-227.854 160.185H-248M-227.854 160.185V180.331M-227.854 160.185H-207.709M-248 160.185V180.331M-227.854 180.331H-248M-227.854 180.331V200.477M-227.854 180.331H-207.709M-248 180.331V200.477M-227.854 200.477H-248M-227.854 200.477V220.622M-227.854 200.477H-207.709M-248 200.477V220.622M-227.854 220.622H-248M-227.854 220.622V240.768M-227.854 220.622H-207.709M-248 220.622V240.768M-227.854 240.768H-248M-227.854 240.768V260.914M-227.854 240.768H-207.709M-248 240.768V260.914H-227.854M-227.854 260.914H-207.709M-207.709 -142V-121.854M-207.709 -142H-187.563M-207.709 -121.854V-101.709M-207.709 -121.854H-187.563M-207.709 -101.709V-81.563M-207.709 -101.709H-187.563M-207.709 -81.563V-61.4173M-207.709 -81.563H-187.563M-207.709 -61.4173V-41.2716M-207.709 -61.4173H-187.563M-207.709 -41.2716V-21.1259M-207.709 -41.2716H-187.563M-207.709 -21.1259V-0.98027M-207.709 -21.1259H-187.563M-207.709 -0.98027V19.1654M-207.709 -0.98027H-187.563M-207.709 19.1654V39.3111M-207.709 19.1654H-187.563M-207.709 39.3111V59.4568M-207.709 39.3111H-187.563M-207.709 59.4568V79.6024M-207.709 59.4568H-187.563M-207.709 79.6024V99.7481M-207.709 79.6024H-187.563M-207.709 99.7481V119.894M-207.709 99.7481H-187.563M-207.709 119.894V140.039M-207.709 119.894H-187.563M-207.709 140.039V160.185M-207.709 140.039H-187.563M-207.709 160.185V180.331M-207.709 160.185H-187.563M-207.709 180.331V200.477M-207.709 180.331H-187.563M-207.709 200.477V220.622M-207.709 200.477H-187.563M-207.709 220.622V240.768M-207.709 220.622H-187.563M-207.709 240.768V260.914M-207.709 240.768H-187.563M-207.709 260.914H-187.563M-187.563 -142V-121.854M-187.563 -142H-167.417M-187.563 -121.854V-101.709M-187.563 -121.854H-167.417M-187.563 -101.709V-81.563M-187.563 -101.709H-167.417M-187.563 -81.563V-61.4173M-187.563 -81.563H-167.417M-187.563 -61.4173V-41.2716M-187.563 -61.4173H-167.417M-187.563 -41.2716V-21.1259M-187.563 -41.2716H-167.417M-187.563 -21.1259V-0.98027M-187.563 -21.1259H-167.417M-187.563 -0.98027V19.1654M-187.563 -0.98027H-167.417M-187.563 19.1654V39.3111M-187.563 19.1654H-167.417M-187.563 39.3111V59.4568M-187.563 39.3111H-167.417M-187.563 59.4568V79.6024M-187.563 59.4568H-167.417M-187.563 79.6024V99.7481M-187.563 79.6024H-167.417M-187.563 99.7481V119.894M-187.563 99.7481H-167.417M-187.563 119.894V140.039M-187.563 119.894H-167.417M-187.563 140.039V160.185M-187.563 140.039H-167.417M-187.563 160.185V180.331M-187.563 160.185H-167.417M-187.563 180.331V200.477M-187.563 180.331H-167.417M-187.563 200.477V220.622M-187.563 200.477H-167.417M-187.563 220.622V240.768M-187.563 220.622H-167.417M-187.563 240.768V260.914M-187.563 240.768H-167.417M-187.563 260.914H-167.417M-167.417 -142V-121.854M-167.417 -142H-147.272M-167.417 -121.854V-101.709M-167.417 -121.854H-147.272M-167.417 -101.709V-81.563M-167.417 -101.709H-147.272M-167.417 -81.563V-61.4173M-167.417 -81.563H-147.272M-167.417 -61.4173V-41.2716M-167.417 -61.4173H-147.272M-167.417 -41.2716V-21.1259M-167.417 -41.2716H-147.272M-167.417 -21.1259V-0.98027M-167.417 -21.1259H-147.272M-167.417 -0.98027V19.1654M-167.417 -0.98027H-147.272M-167.417 19.1654V39.3111M-167.417 19.1654H-147.272M-167.417 39.3111V59.4568M-167.417 39.3111H-147.272M-167.417 59.4568V79.6024M-167.417 59.4568H-147.272M-167.417 79.6024V99.7481M-167.417 79.6024H-147.272M-167.417 99.7481V119.894M-167.417 99.7481H-147.272M-167.417 119.894V140.039M-167.417 119.894H-147.272M-167.417 140.039V160.185M-167.417 140.039H-147.272M-167.417 160.185V180.331M-167.417 160.185H-147.272M-167.417 180.331V200.477M-167.417 180.331H-147.272M-167.417 200.477V220.622M-167.417 200.477H-147.272M-167.417 220.622V240.768M-167.417 220.622H-147.272M-167.417 240.768V260.914M-167.417 240.768H-147.272M-167.417 260.914H-147.272M-147.272 -142V-121.854M-147.272 -142H-127.126M-147.272 -121.854V-101.709M-147.272 -121.854H-127.126M-147.272 -101.709V-81.563M-147.272 -101.709H-127.126M-147.272 -81.563V-61.4173M-147.272 -81.563H-127.126M-147.272 -61.4173V-41.2716M-147.272 -61.4173H-127.126M-147.272 -41.2716V-21.1259M-147.272 -41.2716H-127.126M-147.272 -21.1259V-0.98027M-147.272 -21.1259H-127.126M-147.272 -0.98027V19.1654M-147.272 -0.98027H-127.126M-147.272 19.1654V39.3111M-147.272 19.1654H-127.126M-147.272 39.3111V59.4568M-147.272 39.3111H-127.126M-147.272 59.4568V79.6024M-147.272 59.4568H-127.126M-147.272 79.6024V99.7481M-147.272 79.6024H-127.126M-147.272 99.7481V119.894M-147.272 99.7481H-127.126M-147.272 119.894V140.039M-147.272 119.894H-127.126M-147.272 140.039V160.185M-147.272 140.039H-127.126M-147.272 160.185V180.331M-147.272 160.185H-127.126M-147.272 180.331V200.477M-147.272 180.331H-127.126M-147.272 200.477V220.622M-147.272 200.477H-127.126M-147.272 220.622V240.768M-147.272 220.622H-127.126M-147.272 240.768V260.914M-147.272 240.768H-127.126M-147.272 260.914H-127.126M-127.126 -142V-121.854M-127.126 -142H-106.98M-127.126 -121.854V-101.709M-127.126 -121.854H-106.98M-127.126 -101.709V-81.563M-127.126 -101.709H-106.98M-127.126 -81.563V-61.4173M-127.126 -81.563H-106.98M-127.126 -61.4173V-41.2716M-127.126 -61.4173H-106.98M-127.126 -41.2716V-21.1259M-127.126 -41.2716H-106.98M-127.126 -21.1259V-0.98027M-127.126 -21.1259H-106.98M-127.126 -0.98027V19.1654M-127.126 -0.98027H-106.98M-127.126 19.1654V39.3111M-127.126 19.1654H-106.98M-127.126 39.3111V59.4568M-127.126 39.3111H-106.98M-127.126 59.4568V79.6024M-127.126 59.4568H-106.98M-127.126 79.6024V99.7481M-127.126 79.6024H-106.98M-127.126 99.7481V119.894M-127.126 99.7481H-106.98M-127.126 119.894V140.039M-127.126 119.894H-106.98M-127.126 140.039V160.185M-127.126 140.039H-106.98M-127.126 160.185V180.331M-127.126 160.185H-106.98M-127.126 180.331V200.477M-127.126 180.331H-106.98M-127.126 200.477V220.622M-127.126 200.477H-106.98M-127.126 220.622V240.768M-127.126 220.622H-106.98M-127.126 240.768V260.914M-127.126 240.768H-106.98M-127.126 260.914H-106.98M-106.98 -142V-121.854M-106.98 -142H-86.8346M-106.98 -121.854V-101.709M-106.98 -121.854H-86.8346M-106.98 -101.709V-81.563M-106.98 -101.709H-86.8346M-106.98 -81.563V-61.4173M-106.98 -81.563H-86.8346M-106.98 -61.4173V-41.2716M-106.98 -61.4173H-86.8346M-106.98 -41.2716V-21.1259M-106.98 -41.2716H-86.8346M-106.98 -21.1259V-0.98027M-106.98 -21.1259H-86.8346M-106.98 -0.98027V19.1654M-106.98 -0.98027H-86.8346M-106.98 19.1654V39.3111M-106.98 19.1654H-86.8346M-106.98 39.3111V59.4568M-106.98 39.3111H-86.8346M-106.98 59.4568V79.6024M-106.98 59.4568H-86.8346M-106.98 79.6024V99.7481M-106.98 79.6024H-86.8346M-106.98 99.7481V119.894M-106.98 99.7481H-86.8346M-106.98 119.894V140.039M-106.98 119.894H-86.8346M-106.98 140.039V160.185M-106.98 140.039H-86.8346M-106.98 160.185V180.331M-106.98 160.185H-86.8346M-106.98 180.331V200.477M-106.98 180.331H-86.8346M-106.98 200.477V220.622M-106.98 200.477H-86.8346M-106.98 220.622V240.768M-106.98 220.622H-86.8346M-106.98 240.768V260.914M-106.98 240.768H-86.8346M-106.98 260.914H-86.8346M-86.8346 -142V-121.854M-86.8346 -142H-66.6889M-86.8346 -121.854V-101.709M-86.8346 -121.854H-66.6889M-86.8346 -101.709V-81.563M-86.8346 -101.709H-66.6889M-86.8346 -81.563V-61.4173M-86.8346 -81.563H-66.6889M-86.8346 -61.4173V-41.2716M-86.8346 -61.4173H-66.6889M-86.8346 -41.2716V-21.1259M-86.8346 -41.2716H-66.6889M-86.8346 -21.1259V-0.98027M-86.8346 -21.1259H-66.6889M-86.8346 -0.98027V19.1654M-86.8346 -0.98027H-66.6889M-86.8346 19.1654V39.3111M-86.8346 19.1654H-66.6889M-86.8346 39.3111V59.4568M-86.8346 39.3111H-66.6889M-86.8346 59.4568V79.6024M-86.8346 59.4568H-66.6889M-86.8346 79.6024V99.7481M-86.8346 79.6024H-66.6889M-86.8346 99.7481V119.894M-86.8346 99.7481H-66.6889M-86.8346 119.894V140.039M-86.8346 119.894H-66.6889M-86.8346 140.039V160.185M-86.8346 140.039H-66.6889M-86.8346 160.185V180.331M-86.8346 160.185H-66.6889M-86.8346 180.331V200.477M-86.8346 180.331H-66.6889M-86.8346 200.477V220.622M-86.8346 200.477H-66.6889M-86.8346 220.622V240.768M-86.8346 220.622H-66.6889M-86.8346 240.768V260.914M-86.8346 240.768H-66.6889M-86.8346 260.914H-66.6889V240.768M-66.6889 -142V-121.854M-66.6889 -142H-46.5432M-66.6889 -121.854V-101.709M-66.6889 -121.854H-46.5432M-66.6889 -101.709V-81.563M-66.6889 -101.709H-46.5432M-66.6889 -81.563V-61.4173M-66.6889 -81.563H-46.5432M-66.6889 -61.4173V-41.2716M-66.6889 -61.4173H-46.5432M-66.6889 -41.2716V-21.1259M-66.6889 -41.2716H-46.5432M-66.6889 -21.1259V-0.98027M-66.6889 -21.1259H-46.5432M-66.6889 -0.98027V19.1654M-66.6889 -0.98027H-46.5432M-66.6889 19.1654V39.3111M-66.6889 19.1654H-46.5432M-66.6889 39.3111V59.4568M-66.6889 39.3111H-46.5432M-66.6889 59.4568V79.6024M-66.6889 59.4568H-46.5432M-66.6889 79.6024V99.7481M-66.6889 79.6024H-46.5432M-66.6889 99.7481V119.894M-66.6889 119.894V140.039M-66.6889 140.039V160.185M-66.6889 160.185V180.331M-66.6889 180.331V200.477M-66.6889 200.477V220.622M-66.6889 220.622V240.768M-46.5432 -142V-121.854M-46.5432 -142H-26.3975M-46.5432 -121.854V-101.709M-46.5432 -121.854H-26.3975M-46.5432 -101.709V-81.563M-46.5432 -101.709H-26.3975M-46.5432 -81.563V-61.4173M-46.5432 -81.563H-26.3975M-46.5432 -61.4173V-41.2716M-46.5432 -61.4173H-26.3975M-46.5432 -41.2716V-21.1259M-46.5432 -41.2716H-26.3975M-46.5432 -21.1259V-0.98027M-46.5432 -21.1259H-26.3975M-46.5432 -0.98027V19.1654M-46.5432 -0.98027H-26.3975M-46.5432 19.1654V39.3111M-46.5432 19.1654H-26.3975M-46.5432 39.3111V59.4568M-46.5432 39.3111H-26.3975M-46.5432 59.4568V79.6024M-46.5432 59.4568H-26.3975M-46.5432 79.6024H-26.3975M-26.3975 -142V-121.854M-26.3975 -142H-6.25186M-26.3975 -121.854V-101.709M-26.3975 -121.854H-6.25186M-26.3975 -101.709V-81.563M-26.3975 -101.709H-6.25186M-26.3975 -81.563V-61.4173M-26.3975 -81.563H-6.25186M-26.3975 -61.4173V-41.2716M-26.3975 -61.4173H-6.25186M-26.3975 -41.2716V-21.1259M-26.3975 -41.2716H-6.25186M-26.3975 -21.1259V-0.98027M-26.3975 -21.1259H-6.25186M-26.3975 -0.98027V19.1654M-26.3975 -0.98027H-6.25186M-26.3975 19.1654V39.3111M-26.3975 19.1654H-6.25186M-26.3975 39.3111V59.4568M-26.3975 39.3111H-6.25186M-26.3975 59.4568V79.6024M-26.3975 59.4568H-6.25186M-26.3975 79.6024H-6.25186M-6.25186 -142V-121.854M-6.25186 -142H13.8938M-6.25186 -121.854V-101.709M-6.25186 -121.854H13.8938M-6.25186 -101.709V-81.563M-6.25186 -101.709H13.8938M-6.25186 -81.563V-61.4173M-6.25186 -81.563H13.8938M-6.25186 -61.4173V-41.2716M-6.25186 -61.4173H13.8938M-6.25186 -41.2716V-21.1259M-6.25186 -41.2716H13.8938M-6.25186 -21.1259V-0.98027M-6.25186 -21.1259H13.8938M-6.25186 -0.98027V19.1654M-6.25186 -0.98027H13.8938M-6.25186 19.1654V39.3111M-6.25186 19.1654H13.8938M-6.25186 39.3111V59.4568M-6.25186 39.3111H13.8938M-6.25186 59.4568V79.6024M-6.25186 59.4568H13.8938M-6.25186 79.6024H13.8938M13.8938 -142V-121.854M13.8938 -142H34.0395M13.8938 -121.854V-101.709M13.8938 -121.854H34.0395M13.8938 -101.709V-81.563M13.8938 -101.709H34.0395M13.8938 -81.563V-61.4173M13.8938 -81.563H34.0395M13.8938 -61.4173V-41.2716M13.8938 -61.4173H34.0395M13.8938 -41.2716V-21.1259M13.8938 -41.2716H34.0395M13.8938 -21.1259V-0.98027M13.8938 -21.1259H34.0395M13.8938 -0.98027V19.1654M13.8938 -0.98027H34.0395M13.8938 19.1654V39.3111M13.8938 19.1654H34.0395M13.8938 39.3111V59.4568M13.8938 39.3111H34.0395M13.8938 59.4568V79.6024M13.8938 59.4568H34.0395M13.8938 79.6024H34.0395M34.0395 -142V-121.854M34.0395 -142H54.1852M34.0395 -121.854V-101.709M34.0395 -121.854H54.1852M34.0395 -101.709V-81.563M34.0395 -101.709H54.1852M34.0395 -81.563V-61.4173M34.0395 -81.563H54.1852M34.0395 -61.4173V-41.2716M34.0395 -61.4173H54.1852M34.0395 -41.2716V-21.1259M34.0395 -41.2716H54.1852M34.0395 -21.1259V-0.98027M34.0395 -21.1259H54.1852M34.0395 -0.98027V19.1654M34.0395 -0.98027H54.1852M34.0395 19.1654V39.3111M34.0395 19.1654H54.1852M34.0395 39.3111V59.4568M34.0395 39.3111H54.1852M34.0395 59.4568V79.6024M34.0395 59.4568H54.1852M34.0395 79.6024H54.1852M54.1852 -142V-121.854M54.1852 -142H74.3309M54.1852 -121.854V-101.709M54.1852 -121.854H74.3309M54.1852 -101.709V-81.563M54.1852 -101.709H74.3309M54.1852 -81.563V-61.4173M54.1852 -81.563H74.3309M54.1852 -61.4173V-41.2716M54.1852 -61.4173H74.3309M54.1852 -41.2716V-21.1259M54.1852 -41.2716H74.3309M54.1852 -21.1259V-0.98027M54.1852 -21.1259H74.3309M54.1852 -0.98027V19.1654M54.1852 -0.98027H74.3309M54.1852 19.1654V39.3111M54.1852 19.1654H74.3309M54.1852 39.3111V59.4568M54.1852 39.3111H74.3309M54.1852 59.4568V79.6024M54.1852 59.4568H74.3309M54.1852 79.6024H74.3309M74.3309 -142V-121.854M74.3309 -142H94.4765M74.3309 -121.854V-101.709M74.3309 -121.854H94.4765M74.3309 -101.709V-81.563M74.3309 -101.709H94.4765M74.3309 -81.563V-61.4173M74.3309 -81.563H94.4765M74.3309 -61.4173V-41.2716M74.3309 -61.4173H94.4765M74.3309 -41.2716V-21.1259M74.3309 -41.2716H94.4765M74.3309 -21.1259V-0.98027M74.3309 -21.1259H94.4765M74.3309 -0.98027V19.1654M74.3309 -0.98027H94.4765M74.3309 19.1654V39.3111M74.3309 19.1654H94.4765M74.3309 39.3111V59.4568M74.3309 39.3111H94.4765M74.3309 59.4568V79.6024M74.3309 59.4568H94.4765M74.3309 79.6024H94.4765M94.4765 -142V-121.854M94.4765 -142H114.622M94.4765 -121.854V-101.709M94.4765 -121.854H114.622M94.4765 -101.709V-81.563M94.4765 -101.709H114.622M94.4765 -81.563V-61.4173M94.4765 -81.563H114.622M94.4765 -61.4173V-41.2716M94.4765 -61.4173H114.622M94.4765 -41.2716V-21.1259M94.4765 -41.2716H114.622M94.4765 -21.1259V-0.98027M94.4765 -21.1259H114.622M94.4765 -0.98027V19.1654M94.4765 -0.98027H114.622M94.4765 19.1654V39.3111M94.4765 39.3111V59.4568M94.4765 59.4568V79.6024M94.4765 79.6024H114.622H134.768H154.914H175.059H195.205H215.351H235.496H255.642H275.788H295.933M114.622 -142V-121.854M114.622 -142H134.768M114.622 -121.854V-101.709M114.622 -121.854H134.768M114.622 -101.709V-81.563M114.622 -101.709H134.768M114.622 -81.563V-61.4173M114.622 -81.563H134.768M114.622 -61.4173V-41.2716M114.622 -61.4173H134.768M114.622 -41.2716V-21.1259M114.622 -41.2716H134.768M114.622 -21.1259V-0.98027M114.622 -21.1259H134.768M114.622 -0.98027H134.768M134.768 -142V-121.854M134.768 -142H154.914M134.768 -121.854V-101.709M134.768 -121.854H154.914M134.768 -101.709V-81.563M134.768 -101.709H154.914M134.768 -81.563V-61.4173M134.768 -81.563H154.914M134.768 -61.4173V-41.2716M134.768 -61.4173H154.914M134.768 -41.2716V-21.1259M134.768 -41.2716H154.914M134.768 -21.1259V-0.98027M134.768 -21.1259H154.914M134.768 -0.98027H154.914M154.914 -142V-121.854M154.914 -142H175.059M154.914 -121.854V-101.709M154.914 -121.854H175.059M154.914 -101.709V-81.563M154.914 -101.709H175.059M154.914 -81.563V-61.4173M154.914 -81.563H175.059M154.914 -61.4173V-41.2716M154.914 -61.4173H175.059M154.914 -41.2716V-21.1259M154.914 -41.2716H175.059M154.914 -21.1259V-0.98027M154.914 -21.1259H175.059M154.914 -0.98027H175.059M175.059 -142V-121.854M175.059 -142H195.205M175.059 -121.854V-101.709M175.059 -121.854H195.205M175.059 -101.709V-81.563M175.059 -101.709H195.205M175.059 -81.563V-61.4173M175.059 -81.563H195.205M175.059 -61.4173V-41.2716M175.059 -61.4173H195.205M175.059 -41.2716V-21.1259M175.059 -41.2716H195.205M175.059 -21.1259V-0.98027M175.059 -21.1259H195.205M175.059 -0.98027H195.205M195.205 -142V-121.854M195.205 -142H215.351M195.205 -121.854V-101.709M195.205 -121.854H215.351M195.205 -101.709V-81.563M195.205 -101.709H215.351M195.205 -81.563V-61.4173M195.205 -81.563H215.351M195.205 -61.4173V-41.2716M195.205 -61.4173H215.351M195.205 -41.2716V-21.1259M195.205 -41.2716H215.351M195.205 -21.1259V-0.98027M195.205 -21.1259H215.351M195.205 -0.98027H215.351M215.351 -142V-121.854M215.351 -142H235.496M215.351 -121.854V-101.709M215.351 -121.854H235.496M215.351 -101.709V-81.563M215.351 -101.709H235.496M215.351 -81.563V-61.4173M215.351 -81.563H235.496M215.351 -61.4173V-41.2716M215.351 -61.4173H235.496M215.351 -41.2716V-21.1259M215.351 -41.2716H235.496M215.351 -21.1259V-0.98027M215.351 -21.1259H235.496M215.351 -0.98027H235.496M235.496 -142V-121.854M235.496 -142H255.642M235.496 -121.854V-101.709M235.496 -121.854H255.642M235.496 -101.709V-81.563M235.496 -101.709H255.642M235.496 -81.563V-61.4173M235.496 -81.563H255.642M235.496 -61.4173V-41.2716M235.496 -61.4173H255.642M235.496 -41.2716V-21.1259M235.496 -41.2716H255.642M235.496 -21.1259V-0.98027M235.496 -21.1259H255.642M235.496 -0.98027H255.642M255.642 -142V-121.854M255.642 -142H275.788M255.642 -121.854V-101.709M255.642 -121.854H275.788M255.642 -101.709V-81.563M255.642 -101.709H275.788M255.642 -81.563V-61.4173M255.642 -81.563H275.788M255.642 -61.4173V-41.2716M255.642 -61.4173H275.788M255.642 -41.2716V-21.1259M255.642 -41.2716H275.788M255.642 -21.1259V-0.98027M255.642 -21.1259H275.788M255.642 -0.98027H275.788M275.788 -142V-121.854M275.788 -142H295.933M275.788 -121.854V-101.709M275.788 -121.854H295.933M275.788 -101.709V-81.563M275.788 -101.709H295.933M275.788 -81.563V-61.4173M275.788 -81.563H295.933M275.788 -61.4173V-41.2716M275.788 -61.4173H295.933M275.788 -41.2716V-21.1259M275.788 -41.2716H295.933M275.788 -21.1259V-0.98027M275.788 -21.1259H295.933M275.788 -0.98027H295.933M295.933 -142V-121.854M295.933 -142H316.079M295.933 -121.854V-101.709M295.933 -121.854H316.079M295.933 -101.709V-81.563M295.933 -101.709H316.079M295.933 -81.563V-61.4173M295.933 -81.563H316.079M295.933 -61.4173V-41.2716M295.933 -61.4173H316.079M295.933 -41.2716V-21.1259M295.933 -41.2716H316.079M295.933 -21.1259V-0.98027M295.933 -21.1259H316.079M295.933 -0.98027V19.1654M295.933 -0.98027H316.079M295.933 19.1654V39.3111M295.933 19.1654H316.079M295.933 39.3111V59.4568M295.933 39.3111H316.079M295.933 59.4568V79.6024M295.933 59.4568H316.079M295.933 79.6024H316.079M316.079 -142V-121.854M316.079 -142H336.225M316.079 -121.854V-101.709M316.079 -121.854H336.225M316.079 -101.709V-81.563M316.079 -101.709H336.225M316.079 -81.563V-61.4173M316.079 -81.563H336.225M316.079 -61.4173V-41.2716M316.079 -61.4173H336.225M316.079 -41.2716V-21.1259M316.079 -41.2716H336.225M316.079 -21.1259V-0.98027M316.079 -21.1259H336.225M316.079 -0.98027V19.1654M316.079 -0.98027H336.225M316.079 19.1654V39.3111M316.079 19.1654H336.225M316.079 39.3111V59.4568M316.079 39.3111H336.225M316.079 59.4568V79.6024M316.079 59.4568H336.225M316.079 79.6024H336.225M336.225 -142V-121.854M336.225 -142H356.37M336.225 -121.854V-101.709M336.225 -121.854H356.37M336.225 -101.709V-81.563M336.225 -101.709H356.37M336.225 -81.563V-61.4173M336.225 -81.563H356.37M336.225 -61.4173V-41.2716M336.225 -61.4173H356.37M336.225 -41.2716V-21.1259M336.225 -41.2716H356.37M336.225 -21.1259V-0.98027M336.225 -21.1259H356.37M336.225 -0.98027V19.1654M336.225 -0.98027H356.37M336.225 19.1654V39.3111M336.225 19.1654H356.37M336.225 39.3111V59.4568M336.225 39.3111H356.37M336.225 59.4568V79.6024M336.225 59.4568H356.37M336.225 79.6024H356.37M356.37 -142V-121.854M356.37 -142H376.516M356.37 -121.854V-101.709M356.37 -121.854H376.516M356.37 -101.709V-81.563M356.37 -101.709H376.516M356.37 -81.563V-61.4173M356.37 -81.563H376.516M356.37 -61.4173V-41.2716M356.37 -61.4173H376.516M356.37 -41.2716V-21.1259M356.37 -41.2716H376.516M356.37 -21.1259V-0.98027M356.37 -21.1259H376.516M356.37 -0.98027V19.1654M356.37 -0.98027H376.516M356.37 19.1654V39.3111M356.37 19.1654H376.516M356.37 39.3111V59.4568M356.37 39.3111H376.516M356.37 59.4568V79.6024M356.37 59.4568H376.516M356.37 79.6024H376.516M376.516 -142V-121.854M376.516 -142H396.662M376.516 -121.854V-101.709M376.516 -121.854H396.662M376.516 -101.709V-81.563M376.516 -101.709H396.662M376.516 -81.563V-61.4173M376.516 -81.563H396.662M376.516 -61.4173V-41.2716M376.516 -61.4173H396.662M376.516 -41.2716V-21.1259M376.516 -41.2716H396.662M376.516 -21.1259V-0.98027M376.516 -21.1259H396.662M376.516 -0.98027V19.1654M376.516 -0.98027H396.662M376.516 19.1654V39.3111M376.516 19.1654H396.662M376.516 39.3111V59.4568M376.516 39.3111H396.662M376.516 59.4568V79.6024M376.516 59.4568H396.662M376.516 79.6024H396.662M396.662 -142V-121.854M396.662 -142H416.807M396.662 -121.854V-101.709M396.662 -121.854H416.807M396.662 -101.709V-81.563M396.662 -101.709H416.807M396.662 -81.563V-61.4173M396.662 -81.563H416.807M396.662 -61.4173V-41.2716M396.662 -61.4173H416.807M396.662 -41.2716V-21.1259M396.662 -41.2716H416.807M396.662 -21.1259V-0.98027M396.662 -21.1259H416.807M396.662 -0.98027V19.1654M396.662 -0.98027H416.807M396.662 19.1654V39.3111M396.662 19.1654H416.807M396.662 39.3111V59.4568M396.662 39.3111H416.807M396.662 59.4568V79.6024M396.662 59.4568H416.807M396.662 79.6024H416.807M416.807 -142V-121.854M416.807 -142H436.953M416.807 -121.854V-101.709M416.807 -121.854H436.953M416.807 -101.709V-81.563M416.807 -101.709H436.953M416.807 -81.563V-61.4173M416.807 -81.563H436.953M416.807 -61.4173V-41.2716M416.807 -61.4173H436.953M416.807 -41.2716V-21.1259M416.807 -41.2716H436.953M416.807 -21.1259V-0.98027M416.807 -21.1259H436.953M416.807 -0.98027V19.1654M416.807 -0.98027H436.953M416.807 19.1654V39.3111M416.807 19.1654H436.953M416.807 39.3111V59.4568M416.807 39.3111H436.953M416.807 59.4568V79.6024M416.807 59.4568H436.953M416.807 79.6024H436.953M436.953 -142V-121.854M436.953 -142H457.099M436.953 -121.854V-101.709M436.953 -121.854H457.099M436.953 -101.709V-81.563M436.953 -101.709H457.099M436.953 -81.563V-61.4173M436.953 -81.563H457.099M436.953 -61.4173V-41.2716M436.953 -61.4173H457.099M436.953 -41.2716V-21.1259M436.953 -41.2716H457.099M436.953 -21.1259V-0.98027M436.953 -21.1259H457.099M436.953 -0.98027V19.1654M436.953 -0.98027H457.099M436.953 19.1654V39.3111M436.953 19.1654H457.099M436.953 39.3111V59.4568M436.953 39.3111H457.099M436.953 59.4568V79.6024M436.953 59.4568H457.099M436.953 79.6024H457.099M457.099 -142V-121.854M457.099 -142H477.244M457.099 -121.854V-101.709M457.099 -121.854H477.244M457.099 -101.709V-81.563M457.099 -101.709H477.244M457.099 -81.563V-61.4173M457.099 -81.563H477.244M457.099 -61.4173V-41.2716M457.099 -61.4173H477.244M457.099 -41.2716V-21.1259M457.099 -41.2716H477.244M457.099 -21.1259V-0.98027M457.099 -21.1259H477.244M457.099 -0.98027V19.1654M457.099 -0.98027H477.244M457.099 19.1654V39.3111M457.099 19.1654H477.244M457.099 39.3111V59.4568M457.099 39.3111H477.244M457.099 59.4568V79.6024M457.099 59.4568H477.244M457.099 79.6024H477.244M477.244 -142V-121.854M477.244 -142H497.39M477.244 -121.854V-101.709M477.244 -121.854H497.39M477.244 -101.709V-81.563M477.244 -101.709H497.39M477.244 -81.563V-61.4173M477.244 -81.563H497.39M477.244 -61.4173V-41.2716M477.244 -61.4173H497.39M477.244 -41.2716V-21.1259M477.244 -41.2716H497.39M477.244 -21.1259V-0.98027M477.244 -21.1259H497.39M477.244 -0.98027V19.1654M477.244 -0.98027H497.39M477.244 19.1654V39.3111M477.244 19.1654H497.39M477.244 39.3111V59.4568M477.244 39.3111H497.39M477.244 59.4568V79.6024M477.244 59.4568H497.39M477.244 79.6024V99.7481M477.244 79.6024H497.39M477.244 99.7481V119.894M477.244 99.7481H497.39M477.244 119.894V140.039M477.244 119.894H497.39M477.244 140.039V160.185M477.244 140.039H497.39M477.244 160.185V180.331M477.244 160.185H497.39M477.244 180.331V200.477M477.244 180.331H497.39M477.244 200.477V220.622M477.244 200.477H497.39M477.244 220.622V240.768M477.244 220.622H497.39M477.244 240.768V260.914H497.39M477.244 240.768H497.39M497.39 -142V-121.854M497.39 -142H517.536M497.39 -121.854V-101.709M497.39 -121.854H517.536M497.39 -101.709V-81.563M497.39 -101.709H517.536M497.39 -81.563V-61.4173M497.39 -81.563H517.536M497.39 -61.4173V-41.2716M497.39 -61.4173H517.536M497.39 -41.2716V-21.1259M497.39 -41.2716H517.536M497.39 -21.1259V-0.98027M497.39 -21.1259H517.536M497.39 -0.98027V19.1654M497.39 -0.98027H517.536M497.39 19.1654V39.3111M497.39 19.1654H517.536M497.39 39.3111V59.4568M497.39 39.3111H517.536M497.39 59.4568V79.6024M497.39 59.4568H517.536M497.39 79.6024V99.7481M497.39 79.6024H517.536M497.39 99.7481V119.894M497.39 99.7481H517.536M497.39 119.894V140.039M497.39 119.894H517.536M497.39 140.039V160.185M497.39 140.039H517.536M497.39 160.185V180.331M497.39 160.185H517.536M497.39 180.331V200.477M497.39 180.331H517.536M497.39 200.477V220.622M497.39 200.477H517.536M497.39 220.622V240.768M497.39 220.622H517.536M497.39 240.768V260.914M497.39 240.768H517.536M497.39 260.914H517.536M517.536 -142V-121.854M517.536 -142H537.681M517.536 -121.854V-101.709M517.536 -121.854H537.681M517.536 -101.709V-81.563M517.536 -101.709H537.681M517.536 -81.563V-61.4173M517.536 -81.563H537.681M517.536 -61.4173V-41.2716M517.536 -61.4173H537.681M517.536 -41.2716V-21.1259M517.536 -41.2716H537.681M517.536 -21.1259V-0.98027M517.536 -21.1259H537.681M517.536 -0.98027V19.1654M517.536 -0.98027H537.681M517.536 19.1654V39.3111M517.536 19.1654H537.681M517.536 39.3111V59.4568M517.536 39.3111H537.681M517.536 59.4568V79.6024M517.536 59.4568H537.681M517.536 79.6024V99.7481M517.536 79.6024H537.681M517.536 99.7481V119.894M517.536 99.7481H537.681M517.536 119.894V140.039M517.536 119.894H537.681M517.536 140.039V160.185M517.536 140.039H537.681M517.536 160.185V180.331M517.536 160.185H537.681M517.536 180.331V200.477M517.536 180.331H537.681M517.536 200.477V220.622M517.536 200.477H537.681M517.536 220.622V240.768M517.536 220.622H537.681M517.536 240.768V260.914M517.536 240.768H537.681M517.536 260.914H537.681M537.681 -142V-121.854M537.681 -142H557.827M537.681 -121.854V-101.709M537.681 -121.854H557.827M537.681 -101.709V-81.563M537.681 -101.709H557.827M537.681 -81.563V-61.4173M537.681 -81.563H557.827M537.681 -61.4173V-41.2716M537.681 -61.4173H557.827M537.681 -41.2716V-21.1259M537.681 -41.2716H557.827M537.681 -21.1259V-0.98027M537.681 -21.1259H557.827M537.681 -0.98027V19.1654M537.681 -0.98027H557.827M537.681 19.1654V39.3111M537.681 19.1654H557.827M537.681 39.3111V59.4568M537.681 39.3111H557.827M537.681 59.4568V79.6024M537.681 59.4568H557.827M537.681 79.6024V99.7481M537.681 79.6024H557.827M537.681 99.7481V119.894M537.681 99.7481H557.827M537.681 119.894V140.039M537.681 119.894H557.827M537.681 140.039V160.185M537.681 140.039H557.827M537.681 160.185V180.331M537.681 160.185H557.827M537.681 180.331V200.477M537.681 180.331H557.827M537.681 200.477V220.622M537.681 200.477H557.827M537.681 220.622V240.768M537.681 220.622H557.827M537.681 240.768V260.914M537.681 240.768H557.827M537.681 260.914H557.827M557.827 -142V-121.854M557.827 -142H577.973M557.827 -121.854V-101.709M557.827 -121.854H577.973M557.827 -101.709V-81.563M557.827 -101.709H577.973M557.827 -81.563V-61.4173M557.827 -81.563H577.973M557.827 -61.4173V-41.2716M557.827 -61.4173H577.973M557.827 -41.2716V-21.1259M557.827 -41.2716H577.973M557.827 -21.1259V-0.98027M557.827 -21.1259H577.973M557.827 -0.98027V19.1654M557.827 -0.98027H577.973M557.827 19.1654V39.3111M557.827 19.1654H577.973M557.827 39.3111V59.4568M557.827 39.3111H577.973M557.827 59.4568V79.6024M557.827 59.4568H577.973M557.827 79.6024V99.7481M557.827 79.6024H577.973M557.827 99.7481V119.894M557.827 99.7481H577.973M557.827 119.894V140.039M557.827 119.894H577.973M557.827 140.039V160.185M557.827 140.039H577.973M557.827 160.185V180.331M557.827 160.185H577.973M557.827 180.331V200.477M557.827 180.331H577.973M557.827 200.477V220.622M557.827 200.477H577.973M557.827 220.622V240.768M557.827 220.622H577.973M557.827 240.768V260.914M557.827 240.768H577.973M557.827 260.914H577.973M577.973 -142V-121.854M577.973 -142H598.118M577.973 -121.854V-101.709M577.973 -121.854H598.118M577.973 -101.709V-81.563M577.973 -101.709H598.118M577.973 -81.563V-61.4173M577.973 -81.563H598.118M577.973 -61.4173V-41.2716M577.973 -61.4173H598.118M577.973 -41.2716V-21.1259M577.973 -41.2716H598.118M577.973 -21.1259V-0.98027M577.973 -21.1259H598.118M577.973 -0.98027V19.1654M577.973 -0.98027H598.118M577.973 19.1654V39.3111M577.973 19.1654H598.118M577.973 39.3111V59.4568M577.973 39.3111H598.118M577.973 59.4568V79.6024M577.973 59.4568H598.118M577.973 79.6024V99.7481M577.973 79.6024H598.118M577.973 99.7481V119.894M577.973 99.7481H598.118M577.973 119.894V140.039M577.973 119.894H598.118M577.973 140.039V160.185M577.973 140.039H598.118M577.973 160.185V180.331M577.973 160.185H598.118M577.973 180.331V200.477M577.973 180.331H598.118M577.973 200.477V220.622M577.973 200.477H598.118M577.973 220.622V240.768M577.973 220.622H598.118M577.973 240.768V260.914M577.973 240.768H598.118M577.973 260.914H598.118M598.118 -142V-121.854M598.118 -142H618.264M598.118 -121.854V-101.709M598.118 -121.854H618.264M598.118 -101.709V-81.563M598.118 -101.709H618.264M598.118 -81.563V-61.4173M598.118 -81.563H618.264M598.118 -61.4173V-41.2716M598.118 -61.4173H618.264M598.118 -41.2716V-21.1259M598.118 -41.2716H618.264M598.118 -21.1259V-0.98027M598.118 -21.1259H618.264M598.118 -0.98027V19.1654M598.118 -0.98027H618.264M598.118 19.1654V39.3111M598.118 19.1654H618.264M598.118 39.3111V59.4568M598.118 39.3111H618.264M598.118 59.4568V79.6024M598.118 59.4568H618.264M598.118 79.6024V99.7481M598.118 79.6024H618.264M598.118 99.7481V119.894M598.118 99.7481H618.264M598.118 119.894V140.039M598.118 119.894H618.264M598.118 140.039V160.185M598.118 140.039H618.264M598.118 160.185V180.331M598.118 160.185H618.264M598.118 180.331V200.477M598.118 180.331H618.264M598.118 200.477V220.622M598.118 200.477H618.264M598.118 220.622V240.768M598.118 220.622H618.264M598.118 240.768V260.914M598.118 240.768H618.264M598.118 260.914H618.264M618.264 -142V-121.854M618.264 -142H638.41V-121.854M618.264 -121.854V-101.709M618.264 -121.854H638.41M618.264 -101.709V-81.563M618.264 -101.709H638.41M618.264 -81.563V-61.4173M618.264 -81.563H638.41M618.264 -61.4173V-41.2716M618.264 -61.4173H638.41M618.264 -41.2716V-21.1259M618.264 -41.2716H638.41M618.264 -21.1259V-0.98027M618.264 -21.1259H638.41M618.264 -0.98027V19.1654M618.264 -0.98027H638.41M618.264 19.1654V39.3111M618.264 19.1654H638.41M618.264 39.3111V59.4568M618.264 39.3111H638.41M618.264 59.4568V79.6024M618.264 59.4568H638.41M618.264 79.6024V99.7481M618.264 79.6024H638.41M618.264 99.7481V119.894M618.264 99.7481H638.41M618.264 119.894V140.039M618.264 119.894H638.41M618.264 140.039V160.185M618.264 140.039H638.41M618.264 160.185V180.331M618.264 160.185H638.41M618.264 180.331V200.477M618.264 180.331H638.41M618.264 200.477V220.622M618.264 200.477H638.41M618.264 220.622V240.768M618.264 220.622H638.41M618.264 240.768V260.914M618.264 240.768H638.41M618.264 260.914H638.41V240.768M638.41 -121.854V-101.709M638.41 -101.709V-81.563M638.41 -81.563V-61.4173M638.41 -61.4173V-41.2716M638.41 -41.2716V-21.1259M638.41 -21.1259V-0.98027M638.41 -0.98027V19.1654M638.41 19.1654V39.3111M638.41 39.3111V59.4568M638.41 59.4568V79.6024M638.41 79.6024V99.7481M638.41 99.7481V119.894M638.41 119.894V140.039M638.41 140.039V160.185M638.41 160.185V180.331M638.41 180.331V200.477M638.41 200.477V220.622M638.41 220.622V240.768" stroke="url(#paint0_radial_2573_23997)" stroke-opacity="0.5" stroke-width="0.5"/>
</g>
<g style="" opacity="0.8">
<path d="M94.5476 33.6591V39.7028M94.5476 39.7028V45.7464M94.5476 39.7028H88.5039M94.5476 39.7028H100.591M295.77 33.6591V39.7028M295.77 39.7028V45.7464M295.77 39.7028H289.726M295.77 39.7028H301.813" stroke="url(#paint1_radial_2573_23997)" stroke-width="0.503642"/>
</g>
</g>
<defs>
<radialGradient id="paint0_radial_2573_23997" cx="0" cy="0" r="1" gradientUnits="userSpaceOnUse" gradientTransform="translate(195.205 59.4568) rotate(90) scale(201.457 443.205)">
<stop stop-color="#F2F2F2"/>
<stop offset="0.481798" stop-color="#F2F2F2" stop-opacity="0"/>
</radialGradient>
<radialGradient id="paint1_radial_2573_23997" cx="0" cy="0" r="1" gradientUnits="userSpaceOnUse" gradientTransform="translate(195.198 50.4568) rotate(90) scale(207.5 449.249)">
<stop stop-color="#F2F2F2"/>
<stop offset="0.40685" stop-color="#F2F2F2" stop-opacity="0"/>
</radialGradient>
<clipPath id="clip0_2573_23997">
<rect width="390" height="237" fill="white"/>
</clipPath>
</defs>
</svg>
