<svg width="418" height="261" viewBox="0 0 418 261" fill="none" xmlns="http://www.w3.org/2000/svg">
<g clip-path="url(#clip0_1630_34664)">
<g style="" opacity="0.7">
<path d="M-213.854 -97H-234V-76.8543M-213.854 -97V-76.8543M-213.854 -97H-193.709M-213.854 -76.8543H-234M-213.854 -76.8543V-56.7086M-213.854 -76.8543H-193.709M-234 -76.8543V-56.7086M-213.854 -56.7086H-234M-213.854 -56.7086V-36.563M-213.854 -56.7086H-193.709M-234 -56.7086V-36.563M-213.854 -36.563H-234M-213.854 -36.563V-16.4173M-213.854 -36.563H-193.709M-234 -36.563V-16.4173M-213.854 -16.4173H-234M-213.854 -16.4173V3.72838M-213.854 -16.4173H-193.709M-234 -16.4173V3.72838M-213.854 3.72838H-234M-213.854 3.72838V23.8741M-213.854 3.72838H-193.709M-234 3.72838V23.8741M-213.854 23.8741H-234M-213.854 23.8741V44.0197M-213.854 23.8741H-193.709M-234 23.8741V44.0197M-213.854 44.0197H-234M-213.854 44.0197V64.1654M-213.854 44.0197H-193.709M-234 44.0197V64.1654M-213.854 64.1654H-234M-213.854 64.1654V84.3111M-213.854 64.1654H-193.709M-234 64.1654V84.3111M-213.854 84.3111H-234M-213.854 84.3111V104.457M-213.854 84.3111H-193.709M-234 84.3111V104.457M-213.854 104.457H-234M-213.854 104.457V124.602M-213.854 104.457H-193.709M-234 104.457V124.602M-213.854 124.602H-234M-213.854 124.602V144.748M-213.854 124.602H-193.709M-234 124.602V144.748M-213.854 144.748H-234M-213.854 144.748V164.894M-213.854 144.748H-193.709M-234 144.748V164.894M-213.854 164.894H-234M-213.854 164.894V185.039M-213.854 164.894H-193.709M-234 164.894V185.039M-213.854 185.039H-234M-213.854 185.039V205.185M-213.854 185.039H-193.709M-234 185.039V205.185M-213.854 205.185H-234M-213.854 205.185V225.331M-213.854 205.185H-193.709M-234 205.185V225.331M-213.854 225.331H-234M-213.854 225.331V245.476M-213.854 225.331H-193.709M-234 225.331V245.476M-213.854 245.476H-234M-213.854 245.476V265.622M-213.854 245.476H-193.709M-234 245.476V265.622M-213.854 265.622H-234M-213.854 265.622V285.768M-213.854 265.622H-193.709M-234 265.622V285.768M-213.854 285.768H-234M-213.854 285.768V305.914M-213.854 285.768H-193.709M-234 285.768V305.914H-213.854M-213.854 305.914H-193.709M-193.709 -97V-76.8543M-193.709 -97H-173.563M-193.709 -76.8543V-56.7086M-193.709 -76.8543H-173.563M-193.709 -56.7086V-36.563M-193.709 -56.7086H-173.563M-193.709 -36.563V-16.4173M-193.709 -36.563H-173.563M-193.709 -16.4173V3.72838M-193.709 -16.4173H-173.563M-193.709 3.72838V23.8741M-193.709 3.72838H-173.563M-193.709 23.8741V44.0197M-193.709 23.8741H-173.563M-193.709 44.0197V64.1654M-193.709 44.0197H-173.563M-193.709 64.1654V84.3111M-193.709 64.1654H-173.563M-193.709 84.3111V104.457M-193.709 84.3111H-173.563M-193.709 104.457V124.602M-193.709 104.457H-173.563M-193.709 124.602V144.748M-193.709 124.602H-173.563M-193.709 144.748V164.894M-193.709 144.748H-173.563M-193.709 164.894V185.039M-193.709 164.894H-173.563M-193.709 185.039V205.185M-193.709 185.039H-173.563M-193.709 205.185V225.331M-193.709 205.185H-173.563M-193.709 225.331V245.476M-193.709 225.331H-173.563M-193.709 245.476V265.622M-193.709 245.476H-173.563M-193.709 265.622V285.768M-193.709 265.622H-173.563M-193.709 285.768V305.914M-193.709 285.768H-173.563M-193.709 305.914H-173.563M-173.563 -97V-76.8543M-173.563 -97H-153.417M-173.563 -76.8543V-56.7086M-173.563 -76.8543H-153.417M-173.563 -56.7086V-36.563M-173.563 -56.7086H-153.417M-173.563 -36.563V-16.4173M-173.563 -36.563H-153.417M-173.563 -16.4173V3.72838M-173.563 -16.4173H-153.417M-173.563 3.72838V23.8741M-173.563 3.72838H-153.417M-173.563 23.8741V44.0197M-173.563 23.8741H-153.417M-173.563 44.0197V64.1654M-173.563 44.0197H-153.417M-173.563 64.1654V84.3111M-173.563 64.1654H-153.417M-173.563 84.3111V104.457M-173.563 84.3111H-153.417M-173.563 104.457V124.602M-173.563 104.457H-153.417M-173.563 124.602V144.748M-173.563 124.602H-153.417M-173.563 144.748V164.894M-173.563 144.748H-153.417M-173.563 164.894V185.039M-173.563 164.894H-153.417M-173.563 185.039V205.185M-173.563 185.039H-153.417M-173.563 205.185V225.331M-173.563 205.185H-153.417M-173.563 225.331V245.476M-173.563 225.331H-153.417M-173.563 245.476V265.622M-173.563 245.476H-153.417M-173.563 265.622V285.768M-173.563 265.622H-153.417M-173.563 285.768V305.914M-173.563 285.768H-153.417M-173.563 305.914H-153.417M-153.417 -97V-76.8543M-153.417 -97H-133.272M-153.417 -76.8543V-56.7086M-153.417 -76.8543H-133.272M-153.417 -56.7086V-36.563M-153.417 -56.7086H-133.272M-153.417 -36.563V-16.4173M-153.417 -36.563H-133.272M-153.417 -16.4173V3.72838M-153.417 -16.4173H-133.272M-153.417 3.72838V23.8741M-153.417 3.72838H-133.272M-153.417 23.8741V44.0197M-153.417 23.8741H-133.272M-153.417 44.0197V64.1654M-153.417 44.0197H-133.272M-153.417 64.1654V84.3111M-153.417 64.1654H-133.272M-153.417 84.3111V104.457M-153.417 84.3111H-133.272M-153.417 104.457V124.602M-153.417 104.457H-133.272M-153.417 124.602V144.748M-153.417 124.602H-133.272M-153.417 144.748V164.894M-153.417 144.748H-133.272M-153.417 164.894V185.039M-153.417 164.894H-133.272M-153.417 185.039V205.185M-153.417 185.039H-133.272M-153.417 205.185V225.331M-153.417 205.185H-133.272M-153.417 225.331V245.476M-153.417 225.331H-133.272M-153.417 245.476V265.622M-153.417 245.476H-133.272M-153.417 265.622V285.768M-153.417 265.622H-133.272M-153.417 285.768V305.914M-153.417 285.768H-133.272M-153.417 305.914H-133.272M-133.272 -97V-76.8543M-133.272 -97H-113.126M-133.272 -76.8543V-56.7086M-133.272 -76.8543H-113.126M-133.272 -56.7086V-36.563M-133.272 -56.7086H-113.126M-133.272 -36.563V-16.4173M-133.272 -36.563H-113.126M-133.272 -16.4173V3.72838M-133.272 -16.4173H-113.126M-133.272 3.72838V23.8741M-133.272 3.72838H-113.126M-133.272 23.8741V44.0197M-133.272 23.8741H-113.126M-133.272 44.0197V64.1654M-133.272 44.0197H-113.126M-133.272 64.1654V84.3111M-133.272 64.1654H-113.126M-133.272 84.3111V104.457M-133.272 84.3111H-113.126M-133.272 104.457V124.602M-133.272 104.457H-113.126M-133.272 124.602V144.748M-133.272 124.602H-113.126M-133.272 144.748V164.894M-133.272 144.748H-113.126M-133.272 164.894V185.039M-133.272 164.894H-113.126M-133.272 185.039V205.185M-133.272 185.039H-113.126M-133.272 205.185V225.331M-133.272 205.185H-113.126M-133.272 225.331V245.476M-133.272 225.331H-113.126M-133.272 245.476V265.622M-133.272 245.476H-113.126M-133.272 265.622V285.768M-133.272 265.622H-113.126M-133.272 285.768V305.914M-133.272 285.768H-113.126M-133.272 305.914H-113.126M-113.126 -97V-76.8543M-113.126 -97H-92.9802M-113.126 -76.8543V-56.7086M-113.126 -76.8543H-92.9802M-113.126 -56.7086V-36.563M-113.126 -56.7086H-92.9802M-113.126 -36.563V-16.4173M-113.126 -36.563H-92.9802M-113.126 -16.4173V3.72838M-113.126 -16.4173H-92.9802M-113.126 3.72838V23.8741M-113.126 3.72838H-92.9802M-113.126 23.8741V44.0197M-113.126 23.8741H-92.9802M-113.126 44.0197V64.1654M-113.126 44.0197H-92.9802M-113.126 64.1654V84.3111M-113.126 64.1654H-92.9802M-113.126 84.3111V104.457M-113.126 84.3111H-92.9802M-113.126 104.457V124.602M-113.126 104.457H-92.9802M-113.126 124.602V144.748M-113.126 124.602H-92.9802M-113.126 144.748V164.894M-113.126 144.748H-92.9802M-113.126 164.894V185.039M-113.126 164.894H-92.9802M-113.126 185.039V205.185M-113.126 185.039H-92.9802M-113.126 205.185V225.331M-113.126 205.185H-92.9802M-113.126 225.331V245.476M-113.126 225.331H-92.9802M-113.126 245.476V265.622M-113.126 245.476H-92.9802M-113.126 265.622V285.768M-113.126 265.622H-92.9802M-113.126 285.768V305.914M-113.126 285.768H-92.9802M-113.126 305.914H-92.9802M-92.9802 -97V-76.8543M-92.9802 -97H-72.8346M-92.9802 -76.8543V-56.7086M-92.9802 -76.8543H-72.8346M-92.9802 -56.7086V-36.563M-92.9802 -56.7086H-72.8346M-92.9802 -36.563V-16.4173M-92.9802 -36.563H-72.8346M-92.9802 -16.4173V3.72838M-92.9802 -16.4173H-72.8346M-92.9802 3.72838V23.8741M-92.9802 3.72838H-72.8346M-92.9802 23.8741V44.0197M-92.9802 23.8741H-72.8346M-92.9802 44.0197V64.1654M-92.9802 44.0197H-72.8346M-92.9802 64.1654V84.3111M-92.9802 64.1654H-72.8346M-92.9802 84.3111V104.457M-92.9802 84.3111H-72.8346M-92.9802 104.457V124.602M-92.9802 104.457H-72.8346M-92.9802 124.602V144.748M-92.9802 124.602H-72.8346M-92.9802 144.748V164.894M-92.9802 144.748H-72.8346M-92.9802 164.894V185.039M-92.9802 164.894H-72.8346M-92.9802 185.039V205.185M-92.9802 185.039H-72.8346M-92.9802 205.185V225.331M-92.9802 205.185H-72.8346M-92.9802 225.331V245.476M-92.9802 225.331H-72.8346M-92.9802 245.476V265.622M-92.9802 245.476H-72.8346M-92.9802 265.622V285.768M-92.9802 265.622H-72.8346M-92.9802 285.768V305.914M-92.9802 285.768H-72.8346M-92.9802 305.914H-72.8346M-72.8346 -97V-76.8543M-72.8346 -97H-52.6889M-72.8346 -76.8543V-56.7086M-72.8346 -76.8543H-52.6889M-72.8346 -56.7086V-36.563M-72.8346 -56.7086H-52.6889M-72.8346 -36.563V-16.4173M-72.8346 -36.563H-52.6889M-72.8346 -16.4173V3.72838M-72.8346 -16.4173H-52.6889M-72.8346 3.72838V23.8741M-72.8346 3.72838H-52.6889M-72.8346 23.8741V44.0197M-72.8346 23.8741H-52.6889M-72.8346 44.0197V64.1654M-72.8346 44.0197H-52.6889M-72.8346 64.1654V84.3111M-72.8346 64.1654H-52.6889M-72.8346 84.3111V104.457M-72.8346 84.3111H-52.6889M-72.8346 104.457V124.602M-72.8346 104.457H-52.6889M-72.8346 124.602V144.748M-72.8346 124.602H-52.6889M-72.8346 144.748V164.894M-72.8346 144.748H-52.6889M-72.8346 164.894V185.039M-72.8346 164.894H-52.6889M-72.8346 185.039V205.185M-72.8346 185.039H-52.6889M-72.8346 205.185V225.331M-72.8346 205.185H-52.6889M-72.8346 225.331V245.476M-72.8346 225.331H-52.6889M-72.8346 245.476V265.622M-72.8346 245.476H-52.6889M-72.8346 265.622V285.768M-72.8346 265.622H-52.6889M-72.8346 285.768V305.914M-72.8346 285.768H-52.6889M-72.8346 305.914H-52.6889M-52.6889 -97V-76.8543M-52.6889 -97H-32.5432M-52.6889 -76.8543V-56.7086M-52.6889 -76.8543H-32.5432M-52.6889 -56.7086V-36.563M-52.6889 -56.7086H-32.5432M-52.6889 -36.563V-16.4173M-52.6889 -36.563H-32.5432M-52.6889 -16.4173V3.72838M-52.6889 -16.4173H-32.5432M-52.6889 3.72838V23.8741M-52.6889 3.72838H-32.5432M-52.6889 23.8741V44.0197M-52.6889 23.8741H-32.5432M-52.6889 44.0197V64.1654M-52.6889 44.0197H-32.5432M-52.6889 64.1654V84.3111M-52.6889 64.1654H-32.5432M-52.6889 84.3111V104.457M-52.6889 84.3111H-32.5432M-52.6889 104.457V124.602M-52.6889 104.457H-32.5432M-52.6889 124.602V144.748M-52.6889 124.602H-32.5432M-52.6889 144.748V164.894M-52.6889 144.748H-32.5432M-52.6889 164.894V185.039M-52.6889 164.894H-32.5432M-52.6889 185.039V205.185M-52.6889 185.039H-32.5432M-52.6889 205.185V225.331M-52.6889 205.185H-32.5432M-52.6889 225.331V245.476M-52.6889 225.331H-32.5432M-52.6889 245.476V265.622M-52.6889 245.476H-32.5432M-52.6889 265.622V285.768M-52.6889 265.622H-32.5432M-52.6889 285.768V305.914M-52.6889 285.768H-32.5432M-52.6889 305.914H-32.5432M-32.5432 -97V-76.8543M-32.5432 -97H-12.3975M-32.5432 -76.8543V-56.7086M-32.5432 -76.8543H-12.3975M-32.5432 -56.7086V-36.563M-32.5432 -56.7086H-12.3975M-32.5432 -36.563V-16.4173M-32.5432 -36.563H-12.3975M-32.5432 -16.4173V3.72838M-32.5432 -16.4173H-12.3975M-32.5432 3.72838V23.8741M-32.5432 3.72838H-12.3975M-32.5432 23.8741V44.0197M-32.5432 23.8741H-12.3975M-32.5432 44.0197V64.1654M-32.5432 44.0197H-12.3975M-32.5432 64.1654V84.3111M-32.5432 64.1654H-12.3975M-32.5432 84.3111V104.457M-32.5432 84.3111H-12.3975M-32.5432 104.457V124.602M-32.5432 104.457H-12.3975M-32.5432 124.602V144.748M-32.5432 124.602H-12.3975M-32.5432 144.748V164.894M-32.5432 144.748H-12.3975M-32.5432 164.894V185.039M-32.5432 164.894H-12.3975M-32.5432 185.039V205.185M-32.5432 185.039H-12.3975M-32.5432 205.185V225.331M-32.5432 205.185H-12.3975M-32.5432 225.331V245.476M-32.5432 225.331H-12.3975M-32.5432 245.476V265.622M-32.5432 245.476H-12.3975M-32.5432 265.622V285.768M-32.5432 265.622H-12.3975M-32.5432 285.768V305.914M-32.5432 285.768H-12.3975M-32.5432 305.914H-12.3975M-12.3975 -97V-76.8543M-12.3975 -97H7.74815M-12.3975 -76.8543V-56.7086M-12.3975 -76.8543H7.74815M-12.3975 -56.7086V-36.563M-12.3975 -56.7086H7.74815M-12.3975 -36.563V-16.4173M-12.3975 -36.563H7.74815M-12.3975 -16.4173V3.72838M-12.3975 -16.4173H7.74815M-12.3975 3.72838V23.8741M-12.3975 3.72838H7.74815M-12.3975 23.8741V44.0197M-12.3975 23.8741H7.74815M-12.3975 44.0197V64.1654M-12.3975 44.0197H7.74815M-12.3975 64.1654V84.3111M-12.3975 64.1654H7.74815M-12.3975 84.3111V104.457M-12.3975 84.3111H7.74815M-12.3975 104.457V124.602M-12.3975 104.457H7.74815M-12.3975 124.602V144.748M-12.3975 124.602H7.74815M-12.3975 144.748V164.894M-12.3975 144.748H7.74815M-12.3975 164.894V185.039M-12.3975 164.894H7.74815M-12.3975 185.039V205.185M-12.3975 185.039H7.74815M-12.3975 205.185V225.331M-12.3975 205.185H7.74815M-12.3975 225.331V245.476M-12.3975 225.331H7.74815M-12.3975 245.476V265.622M-12.3975 245.476H7.74815M-12.3975 265.622V285.768M-12.3975 265.622H7.74815M-12.3975 285.768V305.914M-12.3975 285.768H7.74815M-12.3975 305.914H7.74815M7.74815 -97V-76.8543M7.74815 -97H27.8938M7.74815 -76.8543V-56.7086M7.74815 -76.8543H27.8938M7.74815 -56.7086V-36.563M7.74815 -56.7086H27.8938M7.74815 -36.563V-16.4173M7.74815 -36.563H27.8938M7.74815 -16.4173V3.72838M7.74815 -16.4173H27.8938M7.74815 3.72838V23.8741M7.74815 3.72838H27.8938M7.74815 23.8741V44.0197M7.74815 23.8741H27.8938M7.74815 44.0197V64.1654M7.74815 44.0197H27.8938M7.74815 64.1654V84.3111M7.74815 64.1654H27.8938M7.74815 84.3111V104.457M7.74815 84.3111H27.8938M7.74815 104.457V124.602M7.74815 104.457H27.8938M7.74815 124.602V144.748M7.74815 124.602H27.8938M7.74815 144.748V164.894M7.74815 144.748H27.8938M7.74815 164.894V185.039M7.74815 164.894H27.8938M7.74815 185.039V205.185M7.74815 185.039H27.8938M7.74815 205.185V225.331M7.74815 205.185H27.8938M7.74815 225.331V245.476M7.74815 225.331H27.8938M7.74815 245.476V265.622M7.74815 245.476H27.8938M7.74815 265.622V285.768M7.74815 265.622H27.8938M7.74815 285.768V305.914M7.74815 285.768H27.8938M7.74815 305.914H27.8938M27.8938 -97V-76.8543M27.8938 -97H48.0395M27.8938 -76.8543V-56.7086M27.8938 -76.8543H48.0395M27.8938 -56.7086V-36.563M27.8938 -56.7086H48.0395M27.8938 -36.563V-16.4173M27.8938 -36.563H48.0395M27.8938 -16.4173V3.72838M27.8938 -16.4173H48.0395M27.8938 3.72838V23.8741M27.8938 3.72838H48.0395M27.8938 23.8741V44.0197M27.8938 23.8741H48.0395M27.8938 44.0197V64.1654M27.8938 44.0197H48.0395M27.8938 64.1654V84.3111M27.8938 64.1654H48.0395M27.8938 84.3111V104.457M27.8938 84.3111H48.0395M27.8938 104.457V124.602M27.8938 104.457H48.0395M27.8938 124.602V144.748M27.8938 124.602H48.0395M27.8938 144.748V164.894M27.8938 144.748H48.0395M27.8938 164.894V185.039M27.8938 164.894H48.0395M27.8938 185.039V205.185M27.8938 185.039H48.0395M27.8938 205.185V225.331M27.8938 205.185H48.0395M27.8938 225.331V245.476M27.8938 225.331H48.0395M27.8938 245.476V265.622M27.8938 245.476H48.0395M27.8938 265.622V285.768M27.8938 265.622H48.0395M27.8938 285.768V305.914M27.8938 285.768H48.0395M27.8938 305.914H48.0395M48.0395 -97V-76.8543M48.0395 -97H68.1852M48.0395 -76.8543V-56.7086M48.0395 -76.8543H68.1852M48.0395 -56.7086V-36.563M48.0395 -56.7086H68.1852M48.0395 -36.563V-16.4173M48.0395 -36.563H68.1852M48.0395 -16.4173V3.72838M48.0395 -16.4173H68.1852M48.0395 3.72838V23.8741M48.0395 3.72838H68.1852M48.0395 23.8741V44.0197M48.0395 23.8741H68.1852M48.0395 44.0197V64.1654M48.0395 44.0197H68.1852M48.0395 64.1654V84.3111M48.0395 64.1654H68.1852M48.0395 84.3111V104.457M48.0395 84.3111H68.1852M48.0395 104.457V124.602M48.0395 104.457H68.1852M48.0395 124.602V144.748M48.0395 124.602H68.1852M48.0395 144.748V164.894M48.0395 144.748H68.1852M48.0395 164.894V185.039M48.0395 164.894H68.1852M48.0395 185.039V205.185M48.0395 185.039H68.1852M48.0395 205.185V225.331M48.0395 205.185H68.1852M48.0395 225.331V245.476M48.0395 225.331H68.1852M48.0395 245.476V265.622M48.0395 245.476H68.1852M48.0395 265.622V285.768M48.0395 265.622H68.1852M48.0395 285.768V305.914M48.0395 285.768H68.1852M48.0395 305.914H68.1852M68.1852 -97V-76.8543M68.1852 -97H88.3309M68.1852 -76.8543V-56.7086M68.1852 -76.8543H88.3309M68.1852 -56.7086V-36.563M68.1852 -56.7086H88.3309M68.1852 -36.563V-16.4173M68.1852 -36.563H88.3309M68.1852 -16.4173V3.72838M68.1852 -16.4173H88.3309M68.1852 3.72838V23.8741M68.1852 3.72838H88.3309M68.1852 23.8741V44.0197M68.1852 23.8741H88.3309M68.1852 44.0197V64.1654M68.1852 44.0197H88.3309M68.1852 64.1654V84.3111M68.1852 64.1654H88.3309M68.1852 84.3111V104.457M68.1852 84.3111H88.3309M68.1852 104.457V124.602M68.1852 104.457H88.3309M68.1852 124.602V144.748M68.1852 124.602H88.3309M68.1852 144.748V164.894M68.1852 144.748H88.3309M68.1852 164.894V185.039M68.1852 164.894H88.3309M68.1852 185.039V205.185M68.1852 185.039H88.3309M68.1852 205.185V225.331M68.1852 205.185H88.3309M68.1852 225.331V245.476M68.1852 225.331H88.3309M68.1852 245.476V265.622M68.1852 245.476H88.3309M68.1852 265.622V285.768M68.1852 265.622H88.3309M68.1852 285.768V305.914M68.1852 285.768H88.3309M68.1852 305.914H88.3309M88.3309 -97V-76.8543M88.3309 -97H108.477M88.3309 -76.8543V-56.7086M88.3309 -76.8543H108.477M88.3309 -56.7086V-36.563M88.3309 -56.7086H108.477M88.3309 -36.563V-16.4173M88.3309 -36.563H108.477M88.3309 -16.4173V3.72838M88.3309 -16.4173H108.477M88.3309 3.72838V23.8741M88.3309 3.72838H108.477M88.3309 23.8741V44.0197M88.3309 23.8741H108.477M88.3309 44.0197V64.1654M88.3309 44.0197H108.477M88.3309 64.1654V84.3111M88.3309 64.1654H108.477M88.3309 84.3111V104.457M88.3309 84.3111H108.477M88.3309 104.457V124.602M88.3309 104.457H108.477M88.3309 124.602V144.748M88.3309 124.602H108.477M88.3309 144.748V164.894M88.3309 144.748H108.477M88.3309 164.894V185.039M88.3309 164.894H108.477M88.3309 185.039V205.185M88.3309 185.039H108.477M88.3309 205.185V225.331M88.3309 205.185H108.477M88.3309 225.331V245.476M88.3309 225.331H108.477M88.3309 245.476V265.622M88.3309 245.476H108.477M88.3309 265.622V285.768M88.3309 265.622H108.477M88.3309 285.768V305.914M88.3309 285.768H108.477M88.3309 305.914H108.477M108.477 -97V-76.8543M108.477 -97H128.622M108.477 -76.8543V-56.7086M108.477 -76.8543H128.622M108.477 -56.7086V-36.563M108.477 -56.7086H128.622M108.477 -36.563V-16.4173M108.477 -36.563H128.622M108.477 -16.4173V3.72838M108.477 -16.4173H128.622M108.477 3.72838V23.8741M108.477 3.72838H128.622M108.477 23.8741V44.0197M108.477 23.8741H128.622M108.477 44.0197V64.1654M108.477 44.0197H128.622M108.477 64.1654V84.3111M108.477 64.1654H128.622M108.477 84.3111V104.457M108.477 84.3111H128.622M108.477 104.457V124.602M108.477 104.457H128.622M108.477 124.602V144.748M108.477 124.602H128.622M108.477 144.748V164.894M108.477 144.748H128.622M108.477 164.894V185.039M108.477 164.894H128.622M108.477 185.039V205.185M108.477 185.039H128.622M108.477 205.185V225.331M108.477 205.185H128.622M108.477 225.331V245.476M108.477 225.331H128.622M108.477 245.476V265.622M108.477 245.476H128.622M108.477 265.622V285.768M108.477 265.622H128.622M108.477 285.768V305.914M108.477 285.768H128.622M108.477 305.914H128.622M128.622 -97V-76.8543M128.622 -97H148.768M128.622 -76.8543V-56.7086M128.622 -76.8543H148.768M128.622 -56.7086V-36.563M128.622 -56.7086H148.768M128.622 -36.563V-16.4173M128.622 -36.563H148.768M128.622 -16.4173V3.72838M128.622 -16.4173H148.768M128.622 3.72838V23.8741M128.622 3.72838H148.768M128.622 23.8741V44.0197M128.622 23.8741H148.768M128.622 44.0197V64.1654M128.622 44.0197H148.768M128.622 64.1654V84.3111M128.622 64.1654H148.768M128.622 84.3111V104.457M128.622 84.3111H148.768M128.622 104.457V124.602M128.622 104.457H148.768M128.622 124.602V144.748M128.622 124.602H148.768M128.622 144.748V164.894M128.622 144.748H148.768M128.622 164.894V185.039M128.622 164.894H148.768M128.622 185.039V205.185M128.622 185.039H148.768M128.622 205.185V225.331M128.622 205.185H148.768M128.622 225.331V245.476M128.622 225.331H148.768M128.622 245.476V265.622M128.622 245.476H148.768M128.622 265.622V285.768M128.622 265.622H148.768M128.622 285.768V305.914M128.622 285.768H148.768M128.622 305.914H148.768M148.768 -97V-76.8543M148.768 -97H168.914M148.768 -76.8543V-56.7086M148.768 -76.8543H168.914M148.768 -56.7086V-36.563M148.768 -56.7086H168.914M148.768 -36.563V-16.4173M148.768 -36.563H168.914M148.768 -16.4173V3.72838M148.768 -16.4173H168.914M148.768 3.72838V23.8741M148.768 3.72838H168.914M148.768 23.8741V44.0197M148.768 23.8741H168.914M148.768 44.0197V64.1654M148.768 44.0197H168.914M148.768 64.1654V84.3111M148.768 64.1654H168.914M148.768 84.3111V104.457M148.768 84.3111H168.914M148.768 104.457V124.602M148.768 104.457H168.914M148.768 124.602V144.748M148.768 124.602H168.914M148.768 144.748V164.894M148.768 144.748H168.914M148.768 164.894V185.039M148.768 164.894H168.914M148.768 185.039V205.185M148.768 185.039H168.914M148.768 205.185V225.331M148.768 205.185H168.914M148.768 225.331V245.476M148.768 225.331H168.914M148.768 245.476V265.622M148.768 245.476H168.914M148.768 265.622V285.768M148.768 265.622H168.914M148.768 285.768V305.914M148.768 285.768H168.914M148.768 305.914H168.914M168.914 -97V-76.8543M168.914 -97H189.059M168.914 -76.8543V-56.7086M168.914 -76.8543H189.059M168.914 -56.7086V-36.563M168.914 -56.7086H189.059M168.914 -36.563V-16.4173M168.914 -36.563H189.059M168.914 -16.4173V3.72838M168.914 -16.4173H189.059M168.914 3.72838V23.8741M168.914 3.72838H189.059M168.914 23.8741V44.0197M168.914 23.8741H189.059M168.914 44.0197V64.1654M168.914 44.0197H189.059M168.914 64.1654V84.3111M168.914 64.1654H189.059M168.914 84.3111V104.457M168.914 84.3111H189.059M168.914 104.457V124.602M168.914 104.457H189.059M168.914 124.602V144.748M168.914 124.602H189.059M168.914 144.748V164.894M168.914 144.748H189.059M168.914 164.894V185.039M168.914 164.894H189.059M168.914 185.039V205.185M168.914 185.039H189.059M168.914 205.185V225.331M168.914 205.185H189.059M168.914 225.331V245.476M168.914 225.331H189.059M168.914 245.476V265.622M168.914 245.476H189.059M168.914 265.622V285.768M168.914 265.622H189.059M168.914 285.768V305.914M168.914 285.768H189.059M168.914 305.914H189.059M189.059 -97V-76.8543M189.059 -97H209.205M189.059 -76.8543V-56.7086M189.059 -76.8543H209.205M189.059 -56.7086V-36.563M189.059 -56.7086H209.205M189.059 -36.563V-16.4173M189.059 -36.563H209.205M189.059 -16.4173V3.72838M189.059 -16.4173H209.205M189.059 3.72838V23.8741M189.059 3.72838H209.205M189.059 23.8741V44.0197M189.059 23.8741H209.205M189.059 44.0197V64.1654M189.059 44.0197H209.205M189.059 64.1654V84.3111M189.059 64.1654H209.205M189.059 84.3111V104.457M189.059 84.3111H209.205M189.059 104.457V124.602M189.059 104.457H209.205M189.059 124.602V144.748M189.059 124.602H209.205M189.059 144.748V164.894M189.059 144.748H209.205M189.059 164.894V185.039M189.059 164.894H209.205M189.059 185.039V205.185M189.059 185.039H209.205M189.059 205.185V225.331M189.059 205.185H209.205M189.059 225.331V245.476M189.059 225.331H209.205M189.059 245.476V265.622M189.059 245.476H209.205M189.059 265.622V285.768M189.059 265.622H209.205M189.059 285.768V305.914M189.059 285.768H209.205M189.059 305.914H209.205M209.205 -97V-76.8543M209.205 -97H229.351M209.205 -76.8543V-56.7086M209.205 -76.8543H229.351M209.205 -56.7086V-36.563M209.205 -56.7086H229.351M209.205 -36.563V-16.4173M209.205 -36.563H229.351M209.205 -16.4173V3.72838M209.205 -16.4173H229.351M209.205 3.72838V23.8741M209.205 3.72838H229.351M209.205 23.8741V44.0197M209.205 23.8741H229.351M209.205 44.0197V64.1654M209.205 44.0197H229.351M209.205 64.1654V84.3111M209.205 64.1654H229.351M209.205 84.3111V104.457M209.205 84.3111H229.351M209.205 104.457V124.602M209.205 104.457H229.351M209.205 124.602V144.748M209.205 124.602H229.351M209.205 144.748V164.894M209.205 144.748H229.351M209.205 164.894V185.039M209.205 164.894H229.351M209.205 185.039V205.185M209.205 185.039H229.351M209.205 205.185V225.331M209.205 205.185H229.351M209.205 225.331V245.476M209.205 225.331H229.351M209.205 245.476V265.622M209.205 245.476H229.351M209.205 265.622V285.768M209.205 265.622H229.351M209.205 285.768V305.914M209.205 285.768H229.351M209.205 305.914H229.351M229.351 -97V-76.8543M229.351 -97H249.496M229.351 -76.8543V-56.7086M229.351 -76.8543H249.496M229.351 -56.7086V-36.563M229.351 -56.7086H249.496M229.351 -36.563V-16.4173M229.351 -36.563H249.496M229.351 -16.4173V3.72838M229.351 -16.4173H249.496M229.351 3.72838V23.8741M229.351 3.72838H249.496M229.351 23.8741V44.0197M229.351 23.8741H249.496M229.351 44.0197V64.1654M229.351 44.0197H249.496M229.351 64.1654V84.3111M229.351 64.1654H249.496M229.351 84.3111V104.457M229.351 84.3111H249.496M229.351 104.457V124.602M229.351 104.457H249.496M229.351 124.602V144.748M229.351 124.602H249.496M229.351 144.748V164.894M229.351 144.748H249.496M229.351 164.894V185.039M229.351 164.894H249.496M229.351 185.039V205.185M229.351 185.039H249.496M229.351 205.185V225.331M229.351 205.185H249.496M229.351 225.331V245.476M229.351 225.331H249.496M229.351 245.476V265.622M229.351 245.476H249.496M229.351 265.622V285.768M229.351 265.622H249.496M229.351 285.768V305.914M229.351 285.768H249.496M229.351 305.914H249.496M249.496 -97V-76.8543M249.496 -97H269.642M249.496 -76.8543V-56.7086M249.496 -76.8543H269.642M249.496 -56.7086V-36.563M249.496 -56.7086H269.642M249.496 -36.563V-16.4173M249.496 -36.563H269.642M249.496 -16.4173V3.72838M249.496 -16.4173H269.642M249.496 3.72838V23.8741M249.496 3.72838H269.642M249.496 23.8741V44.0197M249.496 23.8741H269.642M249.496 44.0197V64.1654M249.496 44.0197H269.642M249.496 64.1654V84.3111M249.496 64.1654H269.642M249.496 84.3111V104.457M249.496 84.3111H269.642M249.496 104.457V124.602M249.496 104.457H269.642M249.496 124.602V144.748M249.496 124.602H269.642M249.496 144.748V164.894M249.496 144.748H269.642M249.496 164.894V185.039M249.496 164.894H269.642M249.496 185.039V205.185M249.496 185.039H269.642M249.496 205.185V225.331M249.496 205.185H269.642M249.496 225.331V245.476M249.496 225.331H269.642M249.496 245.476V265.622M249.496 245.476H269.642M249.496 265.622V285.768M249.496 265.622H269.642M249.496 285.768V305.914M249.496 285.768H269.642M249.496 305.914H269.642M269.642 -97V-76.8543M269.642 -97H289.788M269.642 -76.8543V-56.7086M269.642 -76.8543H289.788M269.642 -56.7086V-36.563M269.642 -56.7086H289.788M269.642 -36.563V-16.4173M269.642 -36.563H289.788M269.642 -16.4173V3.72838M269.642 -16.4173H289.788M269.642 3.72838V23.8741M269.642 3.72838H289.788M269.642 23.8741V44.0197M269.642 23.8741H289.788M269.642 44.0197V64.1654M269.642 44.0197H289.788M269.642 64.1654V84.3111M269.642 64.1654H289.788M269.642 84.3111V104.457M269.642 84.3111H289.788M269.642 104.457V124.602M269.642 104.457H289.788M269.642 124.602V144.748M269.642 124.602H289.788M269.642 144.748V164.894M269.642 144.748H289.788M269.642 164.894V185.039M269.642 164.894H289.788M269.642 185.039V205.185M269.642 185.039H289.788M269.642 205.185V225.331M269.642 205.185H289.788M269.642 225.331V245.476M269.642 225.331H289.788M269.642 245.476V265.622M269.642 245.476H289.788M269.642 265.622V285.768M269.642 265.622H289.788M269.642 285.768V305.914M269.642 285.768H289.788M269.642 305.914H289.788M289.788 -97V-76.8543M289.788 -97H309.933M289.788 -76.8543V-56.7086M289.788 -76.8543H309.933M289.788 -56.7086V-36.563M289.788 -56.7086H309.933M289.788 -36.563V-16.4173M289.788 -36.563H309.933M289.788 -16.4173V3.72838M289.788 -16.4173H309.933M289.788 3.72838V23.8741M289.788 3.72838H309.933M289.788 23.8741V44.0197M289.788 23.8741H309.933M289.788 44.0197V64.1654M289.788 44.0197H309.933M289.788 64.1654V84.3111M289.788 64.1654H309.933M289.788 84.3111V104.457M289.788 84.3111H309.933M289.788 104.457V124.602M289.788 104.457H309.933M289.788 124.602V144.748M289.788 124.602H309.933M289.788 144.748V164.894M289.788 144.748H309.933M289.788 164.894V185.039M289.788 164.894H309.933M289.788 185.039V205.185M289.788 185.039H309.933M289.788 205.185V225.331M289.788 205.185H309.933M289.788 225.331V245.476M289.788 225.331H309.933M289.788 245.476V265.622M289.788 245.476H309.933M289.788 265.622V285.768M289.788 265.622H309.933M289.788 285.768V305.914M289.788 285.768H309.933M289.788 305.914H309.933M309.933 -97V-76.8543M309.933 -97H330.079M309.933 -76.8543V-56.7086M309.933 -76.8543H330.079M309.933 -56.7086V-36.563M309.933 -56.7086H330.079M309.933 -36.563V-16.4173M309.933 -36.563H330.079M309.933 -16.4173V3.72838M309.933 -16.4173H330.079M309.933 3.72838V23.8741M309.933 3.72838H330.079M309.933 23.8741V44.0197M309.933 23.8741H330.079M309.933 44.0197V64.1654M309.933 44.0197H330.079M309.933 64.1654V84.3111M309.933 64.1654H330.079M309.933 84.3111V104.457M309.933 84.3111H330.079M309.933 104.457V124.602M309.933 104.457H330.079M309.933 124.602V144.748M309.933 124.602H330.079M309.933 144.748V164.894M309.933 144.748H330.079M309.933 164.894V185.039M309.933 164.894H330.079M309.933 185.039V205.185M309.933 185.039H330.079M309.933 205.185V225.331M309.933 205.185H330.079M309.933 225.331V245.476M309.933 225.331H330.079M309.933 245.476V265.622M309.933 245.476H330.079M309.933 265.622V285.768M309.933 265.622H330.079M309.933 285.768V305.914M309.933 285.768H330.079M309.933 305.914H330.079M330.079 -97V-76.8543M330.079 -97H350.225M330.079 -76.8543V-56.7086M330.079 -76.8543H350.225M330.079 -56.7086V-36.563M330.079 -56.7086H350.225M330.079 -36.563V-16.4173M330.079 -36.563H350.225M330.079 -16.4173V3.72838M330.079 -16.4173H350.225M330.079 3.72838V23.8741M330.079 3.72838H350.225M330.079 23.8741V44.0197M330.079 23.8741H350.225M330.079 44.0197V64.1654M330.079 44.0197H350.225M330.079 64.1654V84.3111M330.079 64.1654H350.225M330.079 84.3111V104.457M330.079 84.3111H350.225M330.079 104.457V124.602M330.079 104.457H350.225M330.079 124.602V144.748M330.079 124.602H350.225M330.079 144.748V164.894M330.079 144.748H350.225M330.079 164.894V185.039M330.079 164.894H350.225M330.079 185.039V205.185M330.079 185.039H350.225M330.079 205.185V225.331M330.079 205.185H350.225M330.079 225.331V245.476M330.079 225.331H350.225M330.079 245.476V265.622M330.079 245.476H350.225M330.079 265.622V285.768M330.079 265.622H350.225M330.079 285.768V305.914M330.079 285.768H350.225M330.079 305.914H350.225M350.225 -97V-76.8543M350.225 -97H370.37M350.225 -76.8543V-56.7086M350.225 -76.8543H370.37M350.225 -56.7086V-36.563M350.225 -56.7086H370.37M350.225 -36.563V-16.4173M350.225 -36.563H370.37M350.225 -16.4173V3.72838M350.225 -16.4173H370.37M350.225 3.72838V23.8741M350.225 3.72838H370.37M350.225 23.8741V44.0197M350.225 23.8741H370.37M350.225 44.0197V64.1654M350.225 44.0197H370.37M350.225 64.1654V84.3111M350.225 64.1654H370.37M350.225 84.3111V104.457M350.225 84.3111H370.37M350.225 104.457V124.602M350.225 104.457H370.37M350.225 124.602V144.748M350.225 124.602H370.37M350.225 144.748V164.894M350.225 144.748H370.37M350.225 164.894V185.039M350.225 164.894H370.37M350.225 185.039V205.185M350.225 185.039H370.37M350.225 205.185V225.331M350.225 205.185H370.37M350.225 225.331V245.476M350.225 225.331H370.37M350.225 245.476V265.622M350.225 245.476H370.37M350.225 265.622V285.768M350.225 265.622H370.37M350.225 285.768V305.914M350.225 285.768H370.37M350.225 305.914H370.37M370.37 -97V-76.8543M370.37 -97H390.516M370.37 -76.8543V-56.7086M370.37 -76.8543H390.516M370.37 -56.7086V-36.563M370.37 -56.7086H390.516M370.37 -36.563V-16.4173M370.37 -36.563H390.516M370.37 -16.4173V3.72838M370.37 -16.4173H390.516M370.37 3.72838V23.8741M370.37 3.72838H390.516M370.37 23.8741V44.0197M370.37 23.8741H390.516M370.37 44.0197V64.1654M370.37 44.0197H390.516M370.37 64.1654V84.3111M370.37 64.1654H390.516M370.37 84.3111V104.457M370.37 84.3111H390.516M370.37 104.457V124.602M370.37 104.457H390.516M370.37 124.602V144.748M370.37 124.602H390.516M370.37 144.748V164.894M370.37 144.748H390.516M370.37 164.894V185.039M370.37 164.894H390.516M370.37 185.039V205.185M370.37 185.039H390.516M370.37 205.185V225.331M370.37 205.185H390.516M370.37 225.331V245.476M370.37 225.331H390.516M370.37 245.476V265.622M370.37 245.476H390.516M370.37 265.622V285.768M370.37 265.622H390.516M370.37 285.768V305.914M370.37 285.768H390.516M370.37 305.914H390.516M390.516 -97V-76.8543M390.516 -97H410.662M390.516 -76.8543V-56.7086M390.516 -76.8543H410.662M390.516 -56.7086V-36.563M390.516 -56.7086H410.662M390.516 -36.563V-16.4173M390.516 -36.563H410.662M390.516 -16.4173V3.72838M390.516 -16.4173H410.662M390.516 3.72838V23.8741M390.516 3.72838H410.662M390.516 23.8741V44.0197M390.516 23.8741H410.662M390.516 44.0197V64.1654M390.516 44.0197H410.662M390.516 64.1654V84.3111M390.516 64.1654H410.662M390.516 84.3111V104.457M390.516 84.3111H410.662M390.516 104.457V124.602M390.516 104.457H410.662M390.516 124.602V144.748M390.516 124.602H410.662M390.516 144.748V164.894M390.516 144.748H410.662M390.516 164.894V185.039M390.516 164.894H410.662M390.516 185.039V205.185M390.516 185.039H410.662M390.516 205.185V225.331M390.516 205.185H410.662M390.516 225.331V245.476M390.516 225.331H410.662M390.516 245.476V265.622M390.516 245.476H410.662M390.516 265.622V285.768M390.516 265.622H410.662M390.516 285.768V305.914M390.516 285.768H410.662M390.516 305.914H410.662M410.662 -97V-76.8543M410.662 -97H430.807M410.662 -76.8543V-56.7086M410.662 -76.8543H430.807M410.662 -56.7086V-36.563M410.662 -56.7086H430.807M410.662 -36.563V-16.4173M410.662 -36.563H430.807M410.662 -16.4173V3.72838M410.662 -16.4173H430.807M410.662 3.72838V23.8741M410.662 3.72838H430.807M410.662 23.8741V44.0197M410.662 23.8741H430.807M410.662 44.0197V64.1654M410.662 44.0197H430.807M410.662 64.1654V84.3111M410.662 64.1654H430.807M410.662 84.3111V104.457M410.662 84.3111H430.807M410.662 104.457V124.602M410.662 104.457H430.807M410.662 124.602V144.748M410.662 124.602H430.807M410.662 144.748V164.894M410.662 144.748H430.807M410.662 164.894V185.039M410.662 164.894H430.807M410.662 185.039V205.185M410.662 185.039H430.807M410.662 205.185V225.331M410.662 205.185H430.807M410.662 225.331V245.476M410.662 225.331H430.807M410.662 245.476V265.622M410.662 245.476H430.807M410.662 265.622V285.768M410.662 265.622H430.807M410.662 285.768V305.914M410.662 285.768H430.807M410.662 305.914H430.807M430.807 -97V-76.8543M430.807 -97H450.953M430.807 -76.8543V-56.7086M430.807 -76.8543H450.953M430.807 -56.7086V-36.563M430.807 -56.7086H450.953M430.807 -36.563V-16.4173M430.807 -36.563H450.953M430.807 -16.4173V3.72838M430.807 -16.4173H450.953M430.807 3.72838V23.8741M430.807 3.72838H450.953M430.807 23.8741V44.0197M430.807 23.8741H450.953M430.807 44.0197V64.1654M430.807 44.0197H450.953M430.807 64.1654V84.3111M430.807 64.1654H450.953M430.807 84.3111V104.457M430.807 84.3111H450.953M430.807 104.457V124.602M430.807 104.457H450.953M430.807 124.602V144.748M430.807 124.602H450.953M430.807 144.748V164.894M430.807 144.748H450.953M430.807 164.894V185.039M430.807 164.894H450.953M430.807 185.039V205.185M430.807 185.039H450.953M430.807 205.185V225.331M430.807 205.185H450.953M430.807 225.331V245.476M430.807 225.331H450.953M430.807 245.476V265.622M430.807 245.476H450.953M430.807 265.622V285.768M430.807 265.622H450.953M430.807 285.768V305.914M430.807 285.768H450.953M430.807 305.914H450.953M450.953 -97V-76.8543M450.953 -97H471.099M450.953 -76.8543V-56.7086M450.953 -76.8543H471.099M450.953 -56.7086V-36.563M450.953 -56.7086H471.099M450.953 -36.563V-16.4173M450.953 -36.563H471.099M450.953 -16.4173V3.72838M450.953 -16.4173H471.099M450.953 3.72838V23.8741M450.953 3.72838H471.099M450.953 23.8741V44.0197M450.953 23.8741H471.099M450.953 44.0197V64.1654M450.953 44.0197H471.099M450.953 64.1654V84.3111M450.953 64.1654H471.099M450.953 84.3111V104.457M450.953 84.3111H471.099M450.953 104.457V124.602M450.953 104.457H471.099M450.953 124.602V144.748M450.953 124.602H471.099M450.953 144.748V164.894M450.953 144.748H471.099M450.953 164.894V185.039M450.953 164.894H471.099M450.953 185.039V205.185M450.953 185.039H471.099M450.953 205.185V225.331M450.953 205.185H471.099M450.953 225.331V245.476M450.953 225.331H471.099M450.953 245.476V265.622M450.953 245.476H471.099M450.953 265.622V285.768M450.953 265.622H471.099M450.953 285.768V305.914M450.953 285.768H471.099M450.953 305.914H471.099M471.099 -97V-76.8543M471.099 -97H491.244M471.099 -76.8543V-56.7086M471.099 -76.8543H491.244M471.099 -56.7086V-36.563M471.099 -56.7086H491.244M471.099 -36.563V-16.4173M471.099 -36.563H491.244M471.099 -16.4173V3.72838M471.099 -16.4173H491.244M471.099 3.72838V23.8741M471.099 3.72838H491.244M471.099 23.8741V44.0197M471.099 23.8741H491.244M471.099 44.0197V64.1654M471.099 44.0197H491.244M471.099 64.1654V84.3111M471.099 64.1654H491.244M471.099 84.3111V104.457M471.099 84.3111H491.244M471.099 104.457V124.602M471.099 104.457H491.244M471.099 124.602V144.748M471.099 124.602H491.244M471.099 144.748V164.894M471.099 144.748H491.244M471.099 164.894V185.039M471.099 164.894H491.244M471.099 185.039V205.185M471.099 185.039H491.244M471.099 205.185V225.331M471.099 205.185H491.244M471.099 225.331V245.476M471.099 225.331H491.244M471.099 245.476V265.622M471.099 245.476H491.244M471.099 265.622V285.768M471.099 265.622H491.244M471.099 285.768V305.914M471.099 285.768H491.244M471.099 305.914H491.244M491.244 -97V-76.8543M491.244 -97H511.39M491.244 -76.8543V-56.7086M491.244 -76.8543H511.39M491.244 -56.7086V-36.563M491.244 -56.7086H511.39M491.244 -36.563V-16.4173M491.244 -36.563H511.39M491.244 -16.4173V3.72838M491.244 -16.4173H511.39M491.244 3.72838V23.8741M491.244 3.72838H511.39M491.244 23.8741V44.0197M491.244 23.8741H511.39M491.244 44.0197V64.1654M491.244 44.0197H511.39M491.244 64.1654V84.3111M491.244 64.1654H511.39M491.244 84.3111V104.457M491.244 84.3111H511.39M491.244 104.457V124.602M491.244 104.457H511.39M491.244 124.602V144.748M491.244 124.602H511.39M491.244 144.748V164.894M491.244 144.748H511.39M491.244 164.894V185.039M491.244 164.894H511.39M491.244 185.039V205.185M491.244 185.039H511.39M491.244 205.185V225.331M491.244 205.185H511.39M491.244 225.331V245.476M491.244 225.331H511.39M491.244 245.476V265.622M491.244 245.476H511.39M491.244 265.622V285.768M491.244 265.622H511.39M491.244 285.768V305.914M491.244 285.768H511.39M491.244 305.914H511.39M511.39 -97V-76.8543M511.39 -97H531.536M511.39 -76.8543V-56.7086M511.39 -76.8543H531.536M511.39 -56.7086V-36.563M511.39 -56.7086H531.536M511.39 -36.563V-16.4173M511.39 -36.563H531.536M511.39 -16.4173V3.72838M511.39 -16.4173H531.536M511.39 3.72838V23.8741M511.39 3.72838H531.536M511.39 23.8741V44.0197M511.39 23.8741H531.536M511.39 44.0197V64.1654M511.39 44.0197H531.536M511.39 64.1654V84.3111M511.39 64.1654H531.536M511.39 84.3111V104.457M511.39 84.3111H531.536M511.39 104.457V124.602M511.39 104.457H531.536M511.39 124.602V144.748M511.39 124.602H531.536M511.39 144.748V164.894M511.39 144.748H531.536M511.39 164.894V185.039M511.39 164.894H531.536M511.39 185.039V205.185M511.39 185.039H531.536M511.39 205.185V225.331M511.39 205.185H531.536M511.39 225.331V245.476M511.39 225.331H531.536M511.39 245.476V265.622M511.39 245.476H531.536M511.39 265.622V285.768M511.39 265.622H531.536M511.39 285.768V305.914M511.39 285.768H531.536M511.39 305.914H531.536M531.536 -97V-76.8543M531.536 -97H551.682M531.536 -76.8543V-56.7086M531.536 -76.8543H551.682M531.536 -56.7086V-36.563M531.536 -56.7086H551.682M531.536 -36.563V-16.4173M531.536 -36.563H551.682M531.536 -16.4173V3.72838M531.536 -16.4173H551.682M531.536 3.72838V23.8741M531.536 3.72838H551.682M531.536 23.8741V44.0197M531.536 23.8741H551.682M531.536 44.0197V64.1654M531.536 44.0197H551.682M531.536 64.1654V84.3111M531.536 64.1654H551.682M531.536 84.3111V104.457M531.536 84.3111H551.682M531.536 104.457V124.602M531.536 104.457H551.682M531.536 124.602V144.748M531.536 124.602H551.682M531.536 144.748V164.894M531.536 144.748H551.682M531.536 164.894V185.039M531.536 164.894H551.682M531.536 185.039V205.185M531.536 185.039H551.682M531.536 205.185V225.331M531.536 205.185H551.682M531.536 225.331V245.476M531.536 225.331H551.682M531.536 245.476V265.622M531.536 245.476H551.682M531.536 265.622V285.768M531.536 265.622H551.682M531.536 285.768V305.914M531.536 285.768H551.682M531.536 305.914H551.682M551.682 -97V-76.8543M551.682 -97H571.827M551.682 -76.8543V-56.7086M551.682 -76.8543H571.827M551.682 -56.7086V-36.563M551.682 -56.7086H571.827M551.682 -36.563V-16.4173M551.682 -36.563H571.827M551.682 -16.4173V3.72838M551.682 -16.4173H571.827M551.682 3.72838V23.8741M551.682 3.72838H571.827M551.682 23.8741V44.0197M551.682 23.8741H571.827M551.682 44.0197V64.1654M551.682 44.0197H571.827M551.682 64.1654V84.3111M551.682 64.1654H571.827M551.682 84.3111V104.457M551.682 84.3111H571.827M551.682 104.457V124.602M551.682 104.457H571.827M551.682 124.602V144.748M551.682 124.602H571.827M551.682 144.748V164.894M551.682 144.748H571.827M551.682 164.894V185.039M551.682 164.894H571.827M551.682 185.039V205.185M551.682 185.039H571.827M551.682 205.185V225.331M551.682 205.185H571.827M551.682 225.331V245.476M551.682 225.331H571.827M551.682 245.476V265.622M551.682 245.476H571.827M551.682 265.622V285.768M551.682 265.622H571.827M551.682 285.768V305.914M551.682 285.768H571.827M551.682 305.914H571.827M571.827 -97V-76.8543M571.827 -97H591.973M571.827 -76.8543V-56.7086M571.827 -76.8543H591.973M571.827 -56.7086V-36.563M571.827 -56.7086H591.973M571.827 -36.563V-16.4173M571.827 -36.563H591.973M571.827 -16.4173V3.72838M571.827 -16.4173H591.973M571.827 3.72838V23.8741M571.827 3.72838H591.973M571.827 23.8741V44.0197M571.827 23.8741H591.973M571.827 44.0197V64.1654M571.827 44.0197H591.973M571.827 64.1654V84.3111M571.827 64.1654H591.973M571.827 84.3111V104.457M571.827 84.3111H591.973M571.827 104.457V124.602M571.827 104.457H591.973M571.827 124.602V144.748M571.827 124.602H591.973M571.827 144.748V164.894M571.827 144.748H591.973M571.827 164.894V185.039M571.827 164.894H591.973M571.827 185.039V205.185M571.827 185.039H591.973M571.827 205.185V225.331M571.827 205.185H591.973M571.827 225.331V245.476M571.827 225.331H591.973M571.827 245.476V265.622M571.827 245.476H591.973M571.827 265.622V285.768M571.827 265.622H591.973M571.827 285.768V305.914M571.827 285.768H591.973M571.827 305.914H591.973M591.973 -97V-76.8543M591.973 -97H612.119M591.973 -76.8543V-56.7086M591.973 -76.8543H612.119M591.973 -56.7086V-36.563M591.973 -56.7086H612.119M591.973 -36.563V-16.4173M591.973 -36.563H612.119M591.973 -16.4173V3.72838M591.973 -16.4173H612.119M591.973 3.72838V23.8741M591.973 3.72838H612.119M591.973 23.8741V44.0197M591.973 23.8741H612.119M591.973 44.0197V64.1654M591.973 44.0197H612.119M591.973 64.1654V84.3111M591.973 64.1654H612.119M591.973 84.3111V104.457M591.973 84.3111H612.119M591.973 104.457V124.602M591.973 104.457H612.119M591.973 124.602V144.748M591.973 124.602H612.119M591.973 144.748V164.894M591.973 144.748H612.119M591.973 164.894V185.039M591.973 164.894H612.119M591.973 185.039V205.185M591.973 185.039H612.119M591.973 205.185V225.331M591.973 205.185H612.119M591.973 225.331V245.476M591.973 225.331H612.119M591.973 245.476V265.622M591.973 245.476H612.119M591.973 265.622V285.768M591.973 265.622H612.119M591.973 285.768V305.914M591.973 285.768H612.119M591.973 305.914H612.119M612.119 -97V-76.8543M612.119 -97H632.264M612.119 -76.8543V-56.7086M612.119 -76.8543H632.264M612.119 -56.7086V-36.563M612.119 -56.7086H632.264M612.119 -36.563V-16.4173M612.119 -36.563H632.264M612.119 -16.4173V3.72838M612.119 -16.4173H632.264M612.119 3.72838V23.8741M612.119 3.72838H632.264M612.119 23.8741V44.0197M612.119 23.8741H632.264M612.119 44.0197V64.1654M612.119 44.0197H632.264M612.119 64.1654V84.3111M612.119 64.1654H632.264M612.119 84.3111V104.457M612.119 84.3111H632.264M612.119 104.457V124.602M612.119 104.457H632.264M612.119 124.602V144.748M612.119 124.602H632.264M612.119 144.748V164.894M612.119 144.748H632.264M612.119 164.894V185.039M612.119 164.894H632.264M612.119 185.039V205.185M612.119 185.039H632.264M612.119 205.185V225.331M612.119 205.185H632.264M612.119 225.331V245.476M612.119 225.331H632.264M612.119 245.476V265.622M612.119 245.476H632.264M612.119 265.622V285.768M612.119 265.622H632.264M612.119 285.768V305.914M612.119 285.768H632.264M612.119 305.914H632.264M632.264 -97V-76.8543M632.264 -97H652.41V-76.8543M632.264 -76.8543V-56.7086M632.264 -76.8543H652.41M632.264 -56.7086V-36.563M632.264 -56.7086H652.41M632.264 -36.563V-16.4173M632.264 -36.563H652.41M632.264 -16.4173V3.72838M632.264 -16.4173H652.41M632.264 3.72838V23.8741M632.264 3.72838H652.41M632.264 23.8741V44.0197M632.264 23.8741H652.41M632.264 44.0197V64.1654M632.264 44.0197H652.41M632.264 64.1654V84.3111M632.264 64.1654H652.41M632.264 84.3111V104.457M632.264 84.3111H652.41M632.264 104.457V124.602M632.264 104.457H652.41M632.264 124.602V144.748M632.264 124.602H652.41M632.264 144.748V164.894M632.264 144.748H652.41M632.264 164.894V185.039M632.264 164.894H652.41M632.264 185.039V205.185M632.264 185.039H652.41M632.264 205.185V225.331M632.264 205.185H652.41M632.264 225.331V245.476M632.264 225.331H652.41M632.264 245.476V265.622M632.264 245.476H652.41M632.264 265.622V285.768M632.264 265.622H652.41M632.264 285.768V305.914M632.264 285.768H652.41M632.264 305.914H652.41V285.768M652.41 -76.8543V-56.7086M652.41 -56.7086V-36.563M652.41 -36.563V-16.4173M652.41 -16.4173V3.72838M652.41 3.72838V23.8741M652.41 23.8741V44.0197M652.41 44.0197V64.1654M652.41 64.1654V84.3111M652.41 84.3111V104.457M652.41 104.457V124.602M652.41 124.602V144.748M652.41 144.748V164.894M652.41 164.894V185.039M652.41 185.039V205.185M652.41 205.185V225.331M652.41 225.331V245.476M652.41 245.476V265.622M652.41 265.622V285.768" stroke="url(#paint0_radial_1630_34664)" stroke-opacity="0.2" stroke-width="0.5"/>
</g>
<g style="" opacity="0.8">
<path d="M128.548 118.659V124.703M128.548 124.703V130.747M128.548 124.703H122.504M128.548 124.703H134.591M289.77 58.1221V64.1658M289.77 64.1658V70.2095M289.77 64.1658H283.726M289.77 64.1658H295.813M289.77 118.659V124.703M289.77 124.703V130.747M289.77 124.703H283.726M289.77 124.703H295.813M128.548 58.1221V64.1658M128.548 64.1658V70.2095M128.548 64.1658H122.504M128.548 64.1658H134.591" stroke="url(#paint1_radial_1630_34664)" stroke-opacity="0.5" stroke-width="0.503642"/>
</g>
</g>
<defs>
<radialGradient id="paint0_radial_1630_34664" cx="0" cy="0" r="1" gradientUnits="userSpaceOnUse" gradientTransform="translate(209.205 104.457) rotate(90) scale(201.457 443.205)">
<stop offset="0.149605" stop-color="#F2F2F2"/>
<stop offset="0.508874" stop-color="#F2F2F2" stop-opacity="0"/>
</radialGradient>
<radialGradient id="paint1_radial_1630_34664" cx="0" cy="0" r="1" gradientUnits="userSpaceOnUse" gradientTransform="translate(209.198 104.457) rotate(90) scale(207.5 449.249)">
<stop stop-color="#F2F2F2"/>
<stop offset="0.40685" stop-color="#F2F2F2" stop-opacity="0"/>
</radialGradient>
<clipPath id="clip0_1630_34664">
<rect width="418" height="261" fill="white"/>
</clipPath>
</defs>
</svg>
