<svg width="390" height="92" viewBox="0 0 390 92" fill="none" xmlns="http://www.w3.org/2000/svg">
<g clip-path="url(#clip0_2806_23411)">
<g style="" opacity="0.7">
<path d="M10.0697 -46.3691H-5.36719V-30.9322M10.0697 -46.3691V-30.9322M10.0697 -46.3691H25.5066M10.0697 -30.9322H-5.36719M10.0697 -30.9322V-15.4954M10.0697 -30.9322H25.5066M-5.36719 -30.9322V-15.4954M10.0697 -15.4954H-5.36719M10.0697 -15.4954V-0.0584679M10.0697 -15.4954H25.5066M-5.36719 -15.4954V-0.0584679M10.0697 -0.0584679H-5.36719M10.0697 -0.0584679V15.3784M10.0697 -0.0584679H25.5066M-5.36719 -0.0584679V15.3784M10.0697 15.3784H-5.36719M10.0697 15.3784V30.8153M10.0697 15.3784H25.5066M-5.36719 15.3784V30.8153M10.0697 30.8153H-5.36719M10.0697 30.8153V46.2522M10.0697 30.8153H25.5066M-5.36719 30.8153V46.2522M10.0697 46.2522H-5.36719M10.0697 46.2522V61.6891M10.0697 46.2522H25.5066M-5.36719 46.2522V61.6891M10.0697 61.6891H-5.36719M10.0697 61.6891V77.126M10.0697 61.6891H25.5066M-5.36719 61.6891V77.126M10.0697 77.126H-5.36719M10.0697 77.126V92.5629M10.0697 77.126H25.5066M-5.36719 77.126V92.5629M10.0697 92.5629H-5.36719M10.0697 92.5629V108M10.0697 92.5629H25.5066M-5.36719 92.5629V108M10.0697 108H-5.36719M10.0697 108V123.437M10.0697 108H25.5066M-5.36719 108V123.437M10.0697 123.437H-5.36719M10.0697 123.437V138.874M10.0697 123.437H25.5066M-5.36719 123.437V138.874M10.0697 138.874H-5.36719M10.0697 138.874V154.31M10.0697 138.874H25.5066M-5.36719 138.874V154.31M10.0697 154.31H-5.36719M10.0697 154.31V169.747M10.0697 154.31H25.5066M-5.36719 154.31V169.747M10.0697 169.747H-5.36719M10.0697 169.747V185.184M10.0697 169.747H25.5066M-5.36719 169.747V185.184M10.0697 185.184H-5.36719M10.0697 185.184V200.621M10.0697 185.184H25.5066M-5.36719 185.184V200.621M10.0697 200.621H-5.36719M10.0697 200.621V216.058M10.0697 200.621H25.5066M-5.36719 200.621V216.058M10.0697 216.058H-5.36719M10.0697 216.058V231.495M10.0697 216.058H25.5066M-5.36719 216.058V231.495M10.0697 231.495H-5.36719M10.0697 231.495V246.932M10.0697 231.495H25.5066M-5.36719 231.495V246.932M10.0697 246.932H-5.36719M10.0697 246.932V262.369M10.0697 246.932H25.5066M-5.36719 246.932V262.369H10.0697M10.0697 262.369H25.5066M25.5066 -46.3691V-30.9322M25.5066 -46.3691H40.9435M25.5066 -30.9322V-15.4954M25.5066 -30.9322H40.9435M25.5066 -15.4954V-0.0584679M25.5066 -15.4954H40.9435M25.5066 -0.0584679V15.3784M25.5066 -0.0584679H40.9435M25.5066 15.3784V30.8153M25.5066 15.3784H40.9435M25.5066 30.8153V46.2522M25.5066 30.8153H40.9435M25.5066 46.2522V61.6891M25.5066 46.2522H40.9435M25.5066 61.6891V77.126M25.5066 61.6891H40.9435M25.5066 77.126V92.5629M25.5066 77.126H40.9435M25.5066 92.5629V108M25.5066 92.5629H40.9435M25.5066 108V123.437M25.5066 108H40.9435M25.5066 123.437V138.874M25.5066 123.437H40.9435M25.5066 138.874V154.31M25.5066 138.874H40.9435M25.5066 154.31V169.747M25.5066 154.31H40.9435M25.5066 169.747V185.184M25.5066 169.747H40.9435M25.5066 185.184V200.621M25.5066 185.184H40.9435M25.5066 200.621V216.058M25.5066 200.621H40.9435M25.5066 216.058V231.495M25.5066 216.058H40.9435M25.5066 231.495V246.932M25.5066 231.495H40.9435M25.5066 246.932V262.369M25.5066 246.932H40.9435M25.5066 262.369H40.9435M40.9435 -46.3691V-30.9322M40.9435 -46.3691H56.3804M40.9435 -30.9322V-15.4954M40.9435 -30.9322H56.3804M40.9435 -15.4954V-0.0584679M40.9435 -15.4954H56.3804M40.9435 -0.0584679V15.3784M40.9435 -0.0584679H56.3804M40.9435 15.3784V30.8153M40.9435 15.3784H56.3804M40.9435 30.8153V46.2522M40.9435 30.8153H56.3804M40.9435 46.2522V61.6891M40.9435 46.2522H56.3804M40.9435 61.6891V77.126M40.9435 61.6891H56.3804M40.9435 77.126V92.5629M40.9435 77.126H56.3804M40.9435 92.5629V108M40.9435 92.5629H56.3804M40.9435 108V123.437M40.9435 108H56.3804M40.9435 123.437V138.874M40.9435 123.437H56.3804M40.9435 138.874V154.31M40.9435 138.874H56.3804M40.9435 154.31V169.747M40.9435 154.31H56.3804M40.9435 169.747V185.184M40.9435 169.747H56.3804M40.9435 185.184V200.621M40.9435 185.184H56.3804M40.9435 200.621V216.058M40.9435 200.621H56.3804M40.9435 216.058V231.495M40.9435 216.058H56.3804M40.9435 231.495V246.932M40.9435 231.495H56.3804M40.9435 246.932V262.369M40.9435 246.932H56.3804M40.9435 262.369H56.3804M56.3804 -46.3691V-30.9322M56.3804 -46.3691H71.8173M56.3804 -30.9322V-15.4954M56.3804 -30.9322H71.8173M56.3804 -15.4954V-0.0584679M56.3804 -15.4954H71.8173M56.3804 -0.0584679V15.3784M56.3804 -0.0584679H71.8173M56.3804 15.3784V30.8153M56.3804 15.3784H71.8173M56.3804 30.8153V46.2522M56.3804 30.8153H71.8173M56.3804 46.2522V61.6891M56.3804 46.2522H71.8173M56.3804 61.6891V77.126M56.3804 61.6891H71.8173M56.3804 77.126V92.5629M56.3804 77.126H71.8173M56.3804 92.5629V108M56.3804 92.5629H71.8173M56.3804 108V123.437M56.3804 108H71.8173M56.3804 123.437V138.874M56.3804 123.437H71.8173M56.3804 138.874V154.31M56.3804 138.874H71.8173M56.3804 154.31V169.747M56.3804 154.31H71.8173M56.3804 169.747V185.184M56.3804 169.747H71.8173M56.3804 185.184V200.621M56.3804 185.184H71.8173M56.3804 200.621V216.058M56.3804 200.621H71.8173M56.3804 216.058V231.495M56.3804 216.058H71.8173M56.3804 231.495V246.932M56.3804 231.495H71.8173M56.3804 246.932V262.369M56.3804 246.932H71.8173M56.3804 262.369H71.8173M71.8173 -46.3691V-30.9322M71.8173 -46.3691H87.2542M71.8173 -30.9322V-15.4954M71.8173 -30.9322H87.2542M71.8173 -15.4954V-0.0584679M71.8173 -15.4954H87.2542M71.8173 -0.0584679V15.3784M71.8173 -0.0584679H87.2542M71.8173 15.3784V30.8153M71.8173 15.3784H87.2542M71.8173 30.8153V46.2522M71.8173 30.8153H87.2542M71.8173 46.2522V61.6891M71.8173 46.2522H87.2542M71.8173 61.6891V77.126M71.8173 61.6891H87.2542M71.8173 77.126V92.5629M71.8173 77.126H87.2542M71.8173 92.5629V108M71.8173 92.5629H87.2542M71.8173 108V123.437M71.8173 108H87.2542M71.8173 123.437V138.874M71.8173 123.437H87.2542M71.8173 138.874V154.31M71.8173 138.874H87.2542M71.8173 154.31V169.747M71.8173 154.31H87.2542M71.8173 169.747V185.184M71.8173 169.747H87.2542M71.8173 185.184V200.621M71.8173 185.184H87.2542M71.8173 200.621V216.058M71.8173 200.621H87.2542M71.8173 216.058V231.495M71.8173 216.058H87.2542M71.8173 231.495V246.932M71.8173 231.495H87.2542M71.8173 246.932V262.369M71.8173 246.932H87.2542M71.8173 262.369H87.2542M87.2542 -46.3691V-30.9322M87.2542 -46.3691H102.691M87.2542 -30.9322V-15.4954M87.2542 -30.9322H102.691M87.2542 -15.4954V-0.0584679M87.2542 -15.4954H102.691M87.2542 -0.0584679V15.3784M87.2542 -0.0584679H102.691M87.2542 15.3784V30.8153M87.2542 15.3784H102.691M87.2542 30.8153V46.2522M87.2542 30.8153H102.691M87.2542 46.2522V61.6891M87.2542 46.2522H102.691M87.2542 61.6891V77.126M87.2542 61.6891H102.691M87.2542 77.126V92.5629M87.2542 77.126H102.691M87.2542 92.5629V108M87.2542 92.5629H102.691M87.2542 108V123.437M87.2542 108H102.691M87.2542 123.437V138.874M87.2542 123.437H102.691M87.2542 138.874V154.31M87.2542 138.874H102.691M87.2542 154.31V169.747M87.2542 154.31H102.691M87.2542 169.747V185.184M87.2542 169.747H102.691M87.2542 185.184V200.621M87.2542 185.184H102.691M87.2542 200.621V216.058M87.2542 200.621H102.691M87.2542 216.058V231.495M87.2542 216.058H102.691M87.2542 231.495V246.932M87.2542 231.495H102.691M87.2542 246.932V262.369M87.2542 246.932H102.691M87.2542 262.369H102.691M102.691 -46.3691V-30.9322M102.691 -46.3691H118.128M102.691 -30.9322V-15.4954M102.691 -30.9322H118.128M102.691 -15.4954V-0.0584679M102.691 -15.4954H118.128M102.691 -0.0584679V15.3784M102.691 -0.0584679H118.128M102.691 15.3784V30.8153M102.691 15.3784H118.128M102.691 30.8153V46.2522M102.691 30.8153H118.128M102.691 46.2522V61.6891M102.691 46.2522H118.128M102.691 61.6891V77.126M102.691 61.6891H118.128M102.691 77.126V92.5629M102.691 77.126H118.128M102.691 92.5629V108M102.691 92.5629H118.128M102.691 108V123.437M102.691 108H118.128M102.691 123.437V138.874M102.691 123.437H118.128M102.691 138.874V154.31M102.691 138.874H118.128M102.691 154.31V169.747M102.691 154.31H118.128M102.691 169.747V185.184M102.691 169.747H118.128M102.691 185.184V200.621M102.691 185.184H118.128M102.691 200.621V216.058M102.691 200.621H118.128M102.691 216.058V231.495M102.691 216.058H118.128M102.691 231.495V246.932M102.691 231.495H118.128M102.691 246.932V262.369M102.691 246.932H118.128M102.691 262.369H118.128M118.128 -46.3691V-30.9322M118.128 -46.3691H133.565M118.128 -30.9322V-15.4954M118.128 -30.9322H133.565M118.128 -15.4954V-0.0584679M118.128 -15.4954H133.565M118.128 -0.0584679V15.3784M118.128 -0.0584679H133.565M118.128 15.3784V30.8153M118.128 15.3784H133.565M118.128 30.8153V46.2522M118.128 30.8153H133.565M118.128 46.2522V61.6891M118.128 46.2522H133.565M118.128 61.6891V77.126M118.128 61.6891H133.565M118.128 77.126V92.5629M118.128 77.126H133.565M118.128 92.5629V108M118.128 92.5629H133.565M118.128 108V123.437M118.128 108H133.565M118.128 123.437V138.874M118.128 123.437H133.565M118.128 138.874V154.31M118.128 138.874H133.565M118.128 154.31V169.747M118.128 154.31H133.565M118.128 169.747V185.184M118.128 169.747H133.565M118.128 185.184V200.621M118.128 185.184H133.565M118.128 200.621V216.058M118.128 200.621H133.565M118.128 216.058V231.495M118.128 216.058H133.565M118.128 231.495V246.932M118.128 231.495H133.565M118.128 246.932V262.369M118.128 246.932H133.565M118.128 262.369H133.565M133.565 -46.3691V-30.9322M133.565 -46.3691H149.002M133.565 -30.9322V-15.4954M133.565 -30.9322H149.002M133.565 -15.4954V-0.0584679M133.565 -15.4954H149.002M133.565 -0.0584679V15.3784M133.565 -0.0584679H149.002M133.565 15.3784V30.8153M133.565 15.3784H149.002M133.565 30.8153V46.2522M133.565 30.8153H149.002M133.565 46.2522V61.6891M133.565 46.2522H149.002M133.565 61.6891V77.126M133.565 61.6891H149.002M133.565 77.126V92.5629M133.565 77.126H149.002M133.565 92.5629V108M133.565 92.5629H149.002M133.565 108V123.437M133.565 108H149.002M133.565 123.437V138.874M133.565 123.437H149.002M133.565 138.874V154.31M133.565 138.874H149.002M133.565 154.31V169.747M133.565 154.31H149.002M133.565 169.747V185.184M133.565 169.747H149.002M133.565 185.184V200.621M133.565 185.184H149.002M133.565 200.621V216.058M133.565 200.621H149.002M133.565 216.058V231.495M133.565 216.058H149.002M133.565 231.495V246.932M133.565 231.495H149.002M133.565 246.932V262.369M133.565 246.932H149.002M133.565 262.369H149.002M149.002 -46.3691V-30.9322M149.002 -46.3691H164.439M149.002 -30.9322V-15.4954M149.002 -30.9322H164.439M149.002 -15.4954V-0.0584679M149.002 -15.4954H164.439M149.002 -0.0584679V15.3784M149.002 -0.0584679H164.439M149.002 15.3784V30.8153M149.002 15.3784H164.439M149.002 30.8153V46.2522M149.002 30.8153H164.439M149.002 46.2522V61.6891M149.002 46.2522H164.439M149.002 61.6891V77.126M149.002 61.6891H164.439M149.002 77.126V92.5629M149.002 77.126H164.439M149.002 92.5629V108M149.002 92.5629H164.439M149.002 108V123.437M149.002 108H164.439M149.002 123.437V138.874M149.002 123.437H164.439M149.002 138.874V154.31M149.002 138.874H164.439M149.002 154.31V169.747M149.002 154.31H164.439M149.002 169.747V185.184M149.002 169.747H164.439M149.002 185.184V200.621M149.002 185.184H164.439M149.002 200.621V216.058M149.002 200.621H164.439M149.002 216.058V231.495M149.002 216.058H164.439M149.002 231.495V246.932M149.002 231.495H164.439M149.002 246.932V262.369M149.002 246.932H164.439M149.002 262.369H164.439M164.439 -46.3691V-30.9322M164.439 -46.3691H179.876M164.439 -30.9322V-15.4954M164.439 -30.9322H179.876M164.439 -15.4954V-0.0584679M164.439 -15.4954H179.876M164.439 -0.0584679V15.3784M164.439 -0.0584679H179.876M164.439 15.3784V30.8153M164.439 15.3784H179.876M164.439 30.8153V46.2522M164.439 30.8153H179.876M164.439 46.2522V61.6891M164.439 46.2522H179.876M164.439 61.6891V77.126M164.439 61.6891H179.876M164.439 77.126V92.5629M164.439 77.126H179.876M164.439 92.5629V108M164.439 92.5629H179.876M164.439 108V123.437M164.439 108H179.876M164.439 123.437V138.874M164.439 123.437H179.876M164.439 138.874V154.31M164.439 138.874H179.876M164.439 154.31V169.747M164.439 154.31H179.876M164.439 169.747V185.184M164.439 169.747H179.876M164.439 185.184V200.621M164.439 185.184H179.876M164.439 200.621V216.058M164.439 200.621H179.876M164.439 216.058V231.495M164.439 216.058H179.876M164.439 231.495V246.932M164.439 231.495H179.876M164.439 246.932V262.369M164.439 246.932H179.876M164.439 262.369H179.876M179.876 -46.3691V-30.9322M179.876 -46.3691H195.312M179.876 -30.9322V-15.4954M179.876 -30.9322H195.312M179.876 -15.4954V-0.0584679M179.876 -15.4954H195.312M179.876 -0.0584679V15.3784M179.876 -0.0584679H195.312M179.876 15.3784V30.8153M179.876 15.3784H195.312M179.876 30.8153V46.2522M179.876 30.8153H195.312M179.876 46.2522V61.6891M179.876 46.2522H195.312M179.876 61.6891V77.126M179.876 61.6891H195.312M179.876 77.126V92.5629M179.876 77.126H195.312M179.876 92.5629V108M179.876 92.5629H195.312M179.876 108V123.437M179.876 108H195.312M179.876 123.437V138.874M179.876 123.437H195.312M179.876 138.874V154.31M179.876 138.874H195.312M179.876 154.31V169.747M179.876 154.31H195.312M179.876 169.747V185.184M179.876 169.747H195.312M179.876 185.184V200.621M179.876 185.184H195.312M179.876 200.621V216.058M179.876 200.621H195.312M179.876 216.058V231.495M179.876 216.058H195.312M179.876 231.495V246.932M179.876 231.495H195.312M179.876 246.932V262.369M179.876 246.932H195.312M179.876 262.369H195.312M195.312 -46.3691V-30.9322M195.312 -46.3691H210.749M195.312 -30.9322V-15.4954M195.312 -30.9322H210.749M195.312 -15.4954V-0.0584679M195.312 -15.4954H210.749M195.312 -0.0584679V15.3784M195.312 -0.0584679H210.749M195.312 15.3784V30.8153M195.312 15.3784H210.749M195.312 30.8153V46.2522M195.312 30.8153H210.749M195.312 46.2522V61.6891M195.312 46.2522H210.749M195.312 61.6891V77.126M195.312 61.6891H210.749M195.312 77.126V92.5629M195.312 77.126H210.749M195.312 92.5629V108M195.312 92.5629H210.749M195.312 108V123.437M195.312 108H210.749M195.312 123.437V138.874M195.312 123.437H210.749M195.312 138.874V154.31M195.312 138.874H210.749M195.312 154.31V169.747M195.312 154.31H210.749M195.312 169.747V185.184M195.312 169.747H210.749M195.312 185.184V200.621M195.312 185.184H210.749M195.312 200.621V216.058M195.312 200.621H210.749M195.312 216.058V231.495M195.312 216.058H210.749M195.312 231.495V246.932M195.312 231.495H210.749M195.312 246.932V262.369M195.312 246.932H210.749M195.312 262.369H210.749M210.749 -46.3691V-30.9322M210.749 -46.3691H226.186M210.749 -30.9322V-15.4954M210.749 -30.9322H226.186M210.749 -15.4954V-0.0584679M210.749 -15.4954H226.186M210.749 -0.0584679V15.3784M210.749 -0.0584679H226.186M210.749 15.3784V30.8153M210.749 15.3784H226.186M210.749 30.8153V46.2522M210.749 30.8153H226.186M210.749 46.2522V61.6891M210.749 46.2522H226.186M210.749 61.6891V77.126M210.749 61.6891H226.186M210.749 77.126V92.5629M210.749 77.126H226.186M210.749 92.5629V108M210.749 92.5629H226.186M210.749 108V123.437M210.749 108H226.186M210.749 123.437V138.874M210.749 123.437H226.186M210.749 138.874V154.31M210.749 138.874H226.186M210.749 154.31V169.747M210.749 154.31H226.186M210.749 169.747V185.184M210.749 169.747H226.186M210.749 185.184V200.621M210.749 185.184H226.186M210.749 200.621V216.058M210.749 200.621H226.186M210.749 216.058V231.495M210.749 216.058H226.186M210.749 231.495V246.932M210.749 231.495H226.186M210.749 246.932V262.369M210.749 246.932H226.186M210.749 262.369H226.186M226.186 -46.3691V-30.9322M226.186 -46.3691H241.623M226.186 -30.9322V-15.4954M226.186 -30.9322H241.623M226.186 -15.4954V-0.0584679M226.186 -15.4954H241.623M226.186 -0.0584679V15.3784M226.186 -0.0584679H241.623M226.186 15.3784V30.8153M226.186 15.3784H241.623M226.186 30.8153V46.2522M226.186 30.8153H241.623M226.186 46.2522V61.6891M226.186 46.2522H241.623M226.186 61.6891V77.126M226.186 61.6891H241.623M226.186 77.126V92.5629M226.186 77.126H241.623M226.186 92.5629V108M226.186 92.5629H241.623M226.186 108V123.437M226.186 108H241.623M226.186 123.437V138.874M226.186 123.437H241.623M226.186 138.874V154.31M226.186 138.874H241.623M226.186 154.31V169.747M226.186 154.31H241.623M226.186 169.747V185.184M226.186 169.747H241.623M226.186 185.184V200.621M226.186 185.184H241.623M226.186 200.621V216.058M226.186 200.621H241.623M226.186 216.058V231.495M226.186 216.058H241.623M226.186 231.495V246.932M226.186 231.495H241.623M226.186 246.932V262.369M226.186 246.932H241.623M226.186 262.369H241.623M241.623 -46.3691V-30.9322M241.623 -46.3691H257.06M241.623 -30.9322V-15.4954M241.623 -30.9322H257.06M241.623 -15.4954V-0.0584679M241.623 -15.4954H257.06M241.623 -0.0584679V15.3784M241.623 -0.0584679H257.06M241.623 15.3784V30.8153M241.623 15.3784H257.06M241.623 30.8153V46.2522M241.623 30.8153H257.06M241.623 46.2522V61.6891M241.623 46.2522H257.06M241.623 61.6891V77.126M241.623 61.6891H257.06M241.623 77.126V92.5629M241.623 77.126H257.06M241.623 92.5629V108M241.623 92.5629H257.06M241.623 108V123.437M241.623 108H257.06M241.623 123.437V138.874M241.623 123.437H257.06M241.623 138.874V154.31M241.623 138.874H257.06M241.623 154.31V169.747M241.623 154.31H257.06M241.623 169.747V185.184M241.623 169.747H257.06M241.623 185.184V200.621M241.623 185.184H257.06M241.623 200.621V216.058M241.623 200.621H257.06M241.623 216.058V231.495M241.623 216.058H257.06M241.623 231.495V246.932M241.623 231.495H257.06M241.623 246.932V262.369M241.623 246.932H257.06M241.623 262.369H257.06M257.06 -46.3691V-30.9322M257.06 -46.3691H272.497M257.06 -30.9322V-15.4954M257.06 -30.9322H272.497M257.06 -15.4954V-0.0584679M257.06 -15.4954H272.497M257.06 -0.0584679V15.3784M257.06 -0.0584679H272.497M257.06 15.3784V30.8153M257.06 15.3784H272.497M257.06 30.8153V46.2522M257.06 30.8153H272.497M257.06 46.2522V61.6891M257.06 46.2522H272.497M257.06 61.6891V77.126M257.06 61.6891H272.497M257.06 77.126V92.5629M257.06 77.126H272.497M257.06 92.5629V108M257.06 92.5629H272.497M257.06 108V123.437M257.06 108H272.497M257.06 123.437V138.874M257.06 123.437H272.497M257.06 138.874V154.31M257.06 138.874H272.497M257.06 154.31V169.747M257.06 154.31H272.497M257.06 169.747V185.184M257.06 169.747H272.497M257.06 185.184V200.621M257.06 185.184H272.497M257.06 200.621V216.058M257.06 200.621H272.497M257.06 216.058V231.495M257.06 216.058H272.497M257.06 231.495V246.932M257.06 231.495H272.497M257.06 246.932V262.369M257.06 246.932H272.497M257.06 262.369H272.497M272.497 -46.3691V-30.9322M272.497 -46.3691H287.934M272.497 -30.9322V-15.4954M272.497 -30.9322H287.934M272.497 -15.4954V-0.0584679M272.497 -15.4954H287.934M272.497 -0.0584679V15.3784M272.497 -0.0584679H287.934M272.497 15.3784V30.8153M272.497 15.3784H287.934M272.497 30.8153V46.2522M272.497 30.8153H287.934M272.497 46.2522V61.6891M272.497 46.2522H287.934M272.497 61.6891V77.126M272.497 61.6891H287.934M272.497 77.126V92.5629M272.497 77.126H287.934M272.497 92.5629V108M272.497 92.5629H287.934M272.497 108V123.437M272.497 108H287.934M272.497 123.437V138.874M272.497 123.437H287.934M272.497 138.874V154.31M272.497 138.874H287.934M272.497 154.31V169.747M272.497 154.31H287.934M272.497 169.747V185.184M272.497 169.747H287.934M272.497 185.184V200.621M272.497 185.184H287.934M272.497 200.621V216.058M272.497 200.621H287.934M272.497 216.058V231.495M272.497 216.058H287.934M272.497 231.495V246.932M272.497 231.495H287.934M272.497 246.932V262.369M272.497 246.932H287.934M272.497 262.369H287.934M287.934 -46.3691V-30.9322M287.934 -46.3691H303.371M287.934 -30.9322V-15.4954M287.934 -30.9322H303.371M287.934 -15.4954V-0.0584679M287.934 -15.4954H303.371M287.934 -0.0584679V15.3784M287.934 -0.0584679H303.371M287.934 15.3784V30.8153M287.934 15.3784H303.371M287.934 30.8153V46.2522M287.934 30.8153H303.371M287.934 46.2522V61.6891M287.934 46.2522H303.371M287.934 61.6891V77.126M287.934 61.6891H303.371M287.934 77.126V92.5629M287.934 77.126H303.371M287.934 92.5629V108M287.934 92.5629H303.371M287.934 108V123.437M287.934 108H303.371M287.934 123.437V138.874M287.934 123.437H303.371M287.934 138.874V154.31M287.934 138.874H303.371M287.934 154.31V169.747M287.934 154.31H303.371M287.934 169.747V185.184M287.934 169.747H303.371M287.934 185.184V200.621M287.934 185.184H303.371M287.934 200.621V216.058M287.934 200.621H303.371M287.934 216.058V231.495M287.934 216.058H303.371M287.934 231.495V246.932M287.934 231.495H303.371M287.934 246.932V262.369M287.934 246.932H303.371M287.934 262.369H303.371M303.371 -46.3691V-30.9322M303.371 -46.3691H318.808M303.371 -30.9322V-15.4954M303.371 -30.9322H318.808M303.371 -15.4954V-0.0584679M303.371 -15.4954H318.808M303.371 -0.0584679V15.3784M303.371 -0.0584679H318.808M303.371 15.3784V30.8153M303.371 15.3784H318.808M303.371 30.8153V46.2522M303.371 30.8153H318.808M303.371 46.2522V61.6891M303.371 46.2522H318.808M303.371 61.6891V77.126M303.371 61.6891H318.808M303.371 77.126V92.5629M303.371 77.126H318.808M303.371 92.5629V108M303.371 92.5629H318.808M303.371 108V123.437M303.371 108H318.808M303.371 123.437V138.874M303.371 123.437H318.808M303.371 138.874V154.31M303.371 138.874H318.808M303.371 154.31V169.747M303.371 154.31H318.808M303.371 169.747V185.184M303.371 169.747H318.808M303.371 185.184V200.621M303.371 185.184H318.808M303.371 200.621V216.058M303.371 200.621H318.808M303.371 216.058V231.495M303.371 216.058H318.808M303.371 231.495V246.932M303.371 231.495H318.808M303.371 246.932V262.369M303.371 246.932H318.808M303.371 262.369H318.808M318.808 -46.3691V-30.9322M318.808 -46.3691H334.244M318.808 -30.9322V-15.4954M318.808 -30.9322H334.244M318.808 -15.4954V-0.0584679M318.808 -15.4954H334.244M318.808 -0.0584679V15.3784M318.808 -0.0584679H334.244M318.808 15.3784V30.8153M318.808 15.3784H334.244M318.808 30.8153V46.2522M318.808 30.8153H334.244M318.808 46.2522V61.6891M318.808 46.2522H334.244M318.808 61.6891V77.126M318.808 61.6891H334.244M318.808 77.126V92.5629M318.808 77.126H334.244M318.808 92.5629V108M318.808 92.5629H334.244M318.808 108V123.437M318.808 108H334.244M318.808 123.437V138.874M318.808 123.437H334.244M318.808 138.874V154.31M318.808 138.874H334.244M318.808 154.31V169.747M318.808 154.31H334.244M318.808 169.747V185.184M318.808 169.747H334.244M318.808 185.184V200.621M318.808 185.184H334.244M318.808 200.621V216.058M318.808 200.621H334.244M318.808 216.058V231.495M318.808 216.058H334.244M318.808 231.495V246.932M318.808 231.495H334.244M318.808 246.932V262.369M318.808 246.932H334.244M318.808 262.369H334.244M334.244 -46.3691V-30.9322M334.244 -46.3691H349.681M334.244 -30.9322V-15.4954M334.244 -30.9322H349.681M334.244 -15.4954V-0.0584679M334.244 -15.4954H349.681M334.244 -0.0584679V15.3784M334.244 -0.0584679H349.681M334.244 15.3784V30.8153M334.244 15.3784H349.681M334.244 30.8153V46.2522M334.244 30.8153H349.681M334.244 46.2522V61.6891M334.244 46.2522H349.681M334.244 61.6891V77.126M334.244 61.6891H349.681M334.244 77.126V92.5629M334.244 77.126H349.681M334.244 92.5629V108M334.244 92.5629H349.681M334.244 108V123.437M334.244 108H349.681M334.244 123.437V138.874M334.244 123.437H349.681M334.244 138.874V154.31M334.244 138.874H349.681M334.244 154.31V169.747M334.244 154.31H349.681M334.244 169.747V185.184M334.244 169.747H349.681M334.244 185.184V200.621M334.244 185.184H349.681M334.244 200.621V216.058M334.244 200.621H349.681M334.244 216.058V231.495M334.244 216.058H349.681M334.244 231.495V246.932M334.244 231.495H349.681M334.244 246.932V262.369M334.244 246.932H349.681M334.244 262.369H349.681M349.681 -46.3691V-30.9322M349.681 -46.3691H365.118M349.681 -30.9322V-15.4954M349.681 -30.9322H365.118M349.681 -15.4954V-0.0584679M349.681 -15.4954H365.118M349.681 -0.0584679V15.3784M349.681 -0.0584679H365.118M349.681 15.3784V30.8153M349.681 15.3784H365.118M349.681 30.8153V46.2522M349.681 30.8153H365.118M349.681 46.2522V61.6891M349.681 46.2522H365.118M349.681 61.6891V77.126M349.681 61.6891H365.118M349.681 77.126V92.5629M349.681 77.126H365.118M349.681 92.5629V108M349.681 92.5629H365.118M349.681 108V123.437M349.681 108H365.118M349.681 123.437V138.874M349.681 123.437H365.118M349.681 138.874V154.31M349.681 138.874H365.118M349.681 154.31V169.747M349.681 154.31H365.118M349.681 169.747V185.184M349.681 169.747H365.118M349.681 185.184V200.621M349.681 185.184H365.118M349.681 200.621V216.058M349.681 200.621H365.118M349.681 216.058V231.495M349.681 216.058H365.118M349.681 231.495V246.932M349.681 231.495H365.118M349.681 246.932V262.369M349.681 246.932H365.118M349.681 262.369H365.118M365.118 -46.3691V-30.9322M365.118 -46.3691H380.555M365.118 -30.9322V-15.4954M365.118 -30.9322H380.555M365.118 -15.4954V-0.0584679M365.118 -15.4954H380.555M365.118 -0.0584679V15.3784M365.118 -0.0584679H380.555M365.118 15.3784V30.8153M365.118 15.3784H380.555M365.118 30.8153V46.2522M365.118 30.8153H380.555M365.118 46.2522V61.6891M365.118 46.2522H380.555M365.118 61.6891V77.126M365.118 61.6891H380.555M365.118 77.126V92.5629M365.118 77.126H380.555M365.118 92.5629V108M365.118 92.5629H380.555M365.118 108V123.437M365.118 108H380.555M365.118 123.437V138.874M365.118 123.437H380.555M365.118 138.874V154.31M365.118 138.874H380.555M365.118 154.31V169.747M365.118 154.31H380.555M365.118 169.747V185.184M365.118 169.747H380.555M365.118 185.184V200.621M365.118 185.184H380.555M365.118 200.621V216.058M365.118 200.621H380.555M365.118 216.058V231.495M365.118 216.058H380.555M365.118 231.495V246.932M365.118 231.495H380.555M365.118 246.932V262.369M365.118 246.932H380.555M365.118 262.369H380.555M380.555 -46.3691V-30.9322M380.555 -46.3691H395.992M380.555 -30.9322V-15.4954M380.555 -30.9322H395.992M380.555 -15.4954V-0.0584679M380.555 -15.4954H395.992M380.555 -0.0584679V15.3784M380.555 -0.0584679H395.992M380.555 15.3784V30.8153M380.555 15.3784H395.992M380.555 30.8153V46.2522M380.555 30.8153H395.992M380.555 46.2522V61.6891M380.555 46.2522H395.992M380.555 61.6891V77.126M380.555 61.6891H395.992M380.555 77.126V92.5629M380.555 77.126H395.992M380.555 92.5629V108M380.555 92.5629H395.992M380.555 108V123.437M380.555 108H395.992M380.555 123.437V138.874M380.555 123.437H395.992M380.555 138.874V154.31M380.555 138.874H395.992M380.555 154.31V169.747M380.555 154.31H395.992M380.555 169.747V185.184M380.555 169.747H395.992M380.555 185.184V200.621M380.555 185.184H395.992M380.555 200.621V216.058M380.555 200.621H395.992M380.555 216.058V231.495M380.555 216.058H395.992M380.555 231.495V246.932M380.555 231.495H395.992M380.555 246.932V262.369M380.555 246.932H395.992M380.555 262.369H395.992M395.992 -46.3691V-30.9322M395.992 -46.3691H411.429M395.992 -30.9322V-15.4954M395.992 -30.9322H411.429M395.992 -15.4954V-0.0584679M395.992 -15.4954H411.429M395.992 -0.0584679V15.3784M395.992 -0.0584679H411.429M395.992 15.3784V30.8153M395.992 15.3784H411.429M395.992 30.8153V46.2522M395.992 30.8153H411.429M395.992 46.2522V61.6891M395.992 46.2522H411.429M395.992 61.6891V77.126M395.992 61.6891H411.429M395.992 77.126V92.5629M395.992 77.126H411.429M395.992 92.5629V108M395.992 92.5629H411.429M395.992 108V123.437M395.992 108H411.429M395.992 123.437V138.874M395.992 123.437H411.429M395.992 138.874V154.31M395.992 138.874H411.429M395.992 154.31V169.747M395.992 154.31H411.429M395.992 169.747V185.184M395.992 169.747H411.429M395.992 185.184V200.621M395.992 185.184H411.429M395.992 200.621V216.058M395.992 200.621H411.429M395.992 216.058V231.495M395.992 216.058H411.429M395.992 231.495V246.932M395.992 231.495H411.429M395.992 246.932V262.369M395.992 246.932H411.429M395.992 262.369H411.429M411.429 -46.3691V-30.9322M411.429 -46.3691H426.866M411.429 -30.9322V-15.4954M411.429 -30.9322H426.866M411.429 -15.4954V-0.0584679M411.429 -15.4954H426.866M411.429 -0.0584679V15.3784M411.429 -0.0584679H426.866M411.429 15.3784V30.8153M411.429 15.3784H426.866M411.429 30.8153V46.2522M411.429 30.8153H426.866M411.429 46.2522V61.6891M411.429 46.2522H426.866M411.429 61.6891V77.126M411.429 61.6891H426.866M411.429 77.126V92.5629M411.429 77.126H426.866M411.429 92.5629V108M411.429 92.5629H426.866M411.429 108V123.437M411.429 108H426.866M411.429 123.437V138.874M411.429 123.437H426.866M411.429 138.874V154.31M411.429 138.874H426.866M411.429 154.31V169.747M411.429 154.31H426.866M411.429 169.747V185.184M411.429 169.747H426.866M411.429 185.184V200.621M411.429 185.184H426.866M411.429 200.621V216.058M411.429 200.621H426.866M411.429 216.058V231.495M411.429 216.058H426.866M411.429 231.495V246.932M411.429 231.495H426.866M411.429 246.932V262.369M411.429 246.932H426.866M411.429 262.369H426.866M426.866 -46.3691V-30.9322M426.866 -46.3691H442.303M426.866 -30.9322V-15.4954M426.866 -30.9322H442.303M426.866 -15.4954V-0.0584679M426.866 -15.4954H442.303M426.866 -0.0584679V15.3784M426.866 -0.0584679H442.303M426.866 15.3784V30.8153M426.866 15.3784H442.303M426.866 30.8153V46.2522M426.866 30.8153H442.303M426.866 46.2522V61.6891M426.866 46.2522H442.303M426.866 61.6891V77.126M426.866 61.6891H442.303M426.866 77.126V92.5629M426.866 77.126H442.303M426.866 92.5629V108M426.866 92.5629H442.303M426.866 108V123.437M426.866 108H442.303M426.866 123.437V138.874M426.866 123.437H442.303M426.866 138.874V154.31M426.866 138.874H442.303M426.866 154.31V169.747M426.866 154.31H442.303M426.866 169.747V185.184M426.866 169.747H442.303M426.866 185.184V200.621M426.866 185.184H442.303M426.866 200.621V216.058M426.866 200.621H442.303M426.866 216.058V231.495M426.866 216.058H442.303M426.866 231.495V246.932M426.866 231.495H442.303M426.866 246.932V262.369M426.866 246.932H442.303M426.866 262.369H442.303M442.303 -46.3691V-30.9322M442.303 -46.3691H457.74M442.303 -30.9322V-15.4954M442.303 -30.9322H457.74M442.303 -15.4954V-0.0584679M442.303 -15.4954H457.74M442.303 -0.0584679V15.3784M442.303 -0.0584679H457.74M442.303 15.3784V30.8153M442.303 15.3784H457.74M442.303 30.8153V46.2522M442.303 30.8153H457.74M442.303 46.2522V61.6891M442.303 46.2522H457.74M442.303 61.6891V77.126M442.303 61.6891H457.74M442.303 77.126V92.5629M442.303 77.126H457.74M442.303 92.5629V108M442.303 92.5629H457.74M442.303 108V123.437M442.303 108H457.74M442.303 123.437V138.874M442.303 123.437H457.74M442.303 138.874V154.31M442.303 138.874H457.74M442.303 154.31V169.747M442.303 154.31H457.74M442.303 169.747V185.184M442.303 169.747H457.74M442.303 185.184V200.621M442.303 185.184H457.74M442.303 200.621V216.058M442.303 200.621H457.74M442.303 216.058V231.495M442.303 216.058H457.74M442.303 231.495V246.932M442.303 231.495H457.74M442.303 246.932V262.369M442.303 246.932H457.74M442.303 262.369H457.74M457.74 -46.3691V-30.9322M457.74 -46.3691H473.176M457.74 -30.9322V-15.4954M457.74 -30.9322H473.176M457.74 -15.4954V-0.0584679M457.74 -15.4954H473.176M457.74 -0.0584679V15.3784M457.74 -0.0584679H473.176M457.74 15.3784V30.8153M457.74 15.3784H473.176M457.74 30.8153V46.2522M457.74 30.8153H473.176M457.74 46.2522V61.6891M457.74 46.2522H473.176M457.74 61.6891V77.126M457.74 61.6891H473.176M457.74 77.126V92.5629M457.74 77.126H473.176M457.74 92.5629V108M457.74 92.5629H473.176M457.74 108V123.437M457.74 108H473.176M457.74 123.437V138.874M457.74 123.437H473.176M457.74 138.874V154.31M457.74 138.874H473.176M457.74 154.31V169.747M457.74 154.31H473.176M457.74 169.747V185.184M457.74 169.747H473.176M457.74 185.184V200.621M457.74 185.184H473.176M457.74 200.621V216.058M457.74 200.621H473.176M457.74 216.058V231.495M457.74 216.058H473.176M457.74 231.495V246.932M457.74 231.495H473.176M457.74 246.932V262.369M457.74 246.932H473.176M457.74 262.369H473.176M473.176 -46.3691V-30.9322M473.176 -46.3691H488.613M473.176 -30.9322V-15.4954M473.176 -30.9322H488.613M473.176 -15.4954V-0.0584679M473.176 -15.4954H488.613M473.176 -0.0584679V15.3784M473.176 -0.0584679H488.613M473.176 15.3784V30.8153M473.176 15.3784H488.613M473.176 30.8153V46.2522M473.176 30.8153H488.613M473.176 46.2522V61.6891M473.176 46.2522H488.613M473.176 61.6891V77.126M473.176 61.6891H488.613M473.176 77.126V92.5629M473.176 77.126H488.613M473.176 92.5629V108M473.176 92.5629H488.613M473.176 108V123.437M473.176 108H488.613M473.176 123.437V138.874M473.176 123.437H488.613M473.176 138.874V154.31M473.176 138.874H488.613M473.176 154.31V169.747M473.176 154.31H488.613M473.176 169.747V185.184M473.176 169.747H488.613M473.176 185.184V200.621M473.176 185.184H488.613M473.176 200.621V216.058M473.176 200.621H488.613M473.176 216.058V231.495M473.176 216.058H488.613M473.176 231.495V246.932M473.176 231.495H488.613M473.176 246.932V262.369M473.176 246.932H488.613M473.176 262.369H488.613M488.613 -46.3691V-30.9322M488.613 -46.3691H504.05M488.613 -30.9322V-15.4954M488.613 -30.9322H504.05M488.613 -15.4954V-0.0584679M488.613 -15.4954H504.05M488.613 -0.0584679V15.3784M488.613 -0.0584679H504.05M488.613 15.3784V30.8153M488.613 15.3784H504.05M488.613 30.8153V46.2522M488.613 30.8153H504.05M488.613 46.2522V61.6891M488.613 46.2522H504.05M488.613 61.6891V77.126M488.613 61.6891H504.05M488.613 77.126V92.5629M488.613 77.126H504.05M488.613 92.5629V108M488.613 92.5629H504.05M488.613 108V123.437M488.613 108H504.05M488.613 123.437V138.874M488.613 123.437H504.05M488.613 138.874V154.31M488.613 138.874H504.05M488.613 154.31V169.747M488.613 154.31H504.05M488.613 169.747V185.184M488.613 169.747H504.05M488.613 185.184V200.621M488.613 185.184H504.05M488.613 200.621V216.058M488.613 200.621H504.05M488.613 216.058V231.495M488.613 216.058H504.05M488.613 231.495V246.932M488.613 231.495H504.05M488.613 246.932V262.369M488.613 246.932H504.05M488.613 262.369H504.05M504.05 -46.3691V-30.9322M504.05 -46.3691H519.487M504.05 -30.9322V-15.4954M504.05 -30.9322H519.487M504.05 -15.4954V-0.0584679M504.05 -15.4954H519.487M504.05 -0.0584679V15.3784M504.05 -0.0584679H519.487M504.05 15.3784V30.8153M504.05 15.3784H519.487M504.05 30.8153V46.2522M504.05 30.8153H519.487M504.05 46.2522V61.6891M504.05 46.2522H519.487M504.05 61.6891V77.126M504.05 61.6891H519.487M504.05 77.126V92.5629M504.05 77.126H519.487M504.05 92.5629V108M504.05 92.5629H519.487M504.05 108V123.437M504.05 108H519.487M504.05 123.437V138.874M504.05 123.437H519.487M504.05 138.874V154.31M504.05 138.874H519.487M504.05 154.31V169.747M504.05 154.31H519.487M504.05 169.747V185.184M504.05 169.747H519.487M504.05 185.184V200.621M504.05 185.184H519.487M504.05 200.621V216.058M504.05 200.621H519.487M504.05 216.058V231.495M504.05 216.058H519.487M504.05 231.495V246.932M504.05 231.495H519.487M504.05 246.932V262.369M504.05 246.932H519.487M504.05 262.369H519.487M519.487 -46.3691V-30.9322M519.487 -46.3691H534.924M519.487 -30.9322V-15.4954M519.487 -30.9322H534.924M519.487 -15.4954V-0.0584679M519.487 -15.4954H534.924M519.487 -0.0584679V15.3784M519.487 -0.0584679H534.924M519.487 15.3784V30.8153M519.487 15.3784H534.924M519.487 30.8153V46.2522M519.487 30.8153H534.924M519.487 46.2522V61.6891M519.487 46.2522H534.924M519.487 61.6891V77.126M519.487 61.6891H534.924M519.487 77.126V92.5629M519.487 77.126H534.924M519.487 92.5629V108M519.487 92.5629H534.924M519.487 108V123.437M519.487 108H534.924M519.487 123.437V138.874M519.487 123.437H534.924M519.487 138.874V154.31M519.487 138.874H534.924M519.487 154.31V169.747M519.487 154.31H534.924M519.487 169.747V185.184M519.487 169.747H534.924M519.487 185.184V200.621M519.487 185.184H534.924M519.487 200.621V216.058M519.487 200.621H534.924M519.487 216.058V231.495M519.487 216.058H534.924M519.487 231.495V246.932M519.487 231.495H534.924M519.487 246.932V262.369M519.487 246.932H534.924M519.487 262.369H534.924M534.924 -46.3691V-30.9322M534.924 -46.3691H550.361M534.924 -30.9322V-15.4954M534.924 -30.9322H550.361M534.924 -15.4954V-0.0584679M534.924 -15.4954H550.361M534.924 -0.0584679V15.3784M534.924 -0.0584679H550.361M534.924 15.3784V30.8153M534.924 15.3784H550.361M534.924 30.8153V46.2522M534.924 30.8153H550.361M534.924 46.2522V61.6891M534.924 46.2522H550.361M534.924 61.6891V77.126M534.924 61.6891H550.361M534.924 77.126V92.5629M534.924 77.126H550.361M534.924 92.5629V108M534.924 92.5629H550.361M534.924 108V123.437M534.924 108H550.361M534.924 123.437V138.874M534.924 123.437H550.361M534.924 138.874V154.31M534.924 138.874H550.361M534.924 154.31V169.747M534.924 154.31H550.361M534.924 169.747V185.184M534.924 169.747H550.361M534.924 185.184V200.621M534.924 185.184H550.361M534.924 200.621V216.058M534.924 200.621H550.361M534.924 216.058V231.495M534.924 216.058H550.361M534.924 231.495V246.932M534.924 231.495H550.361M534.924 246.932V262.369M534.924 246.932H550.361M534.924 262.369H550.361M550.361 -46.3691V-30.9322M550.361 -46.3691H565.798M550.361 -30.9322V-15.4954M550.361 -30.9322H565.798M550.361 -15.4954V-0.0584679M550.361 -15.4954H565.798M550.361 -0.0584679V15.3784M550.361 -0.0584679H565.798M550.361 15.3784V30.8153M550.361 15.3784H565.798M550.361 30.8153V46.2522M550.361 30.8153H565.798M550.361 46.2522V61.6891M550.361 46.2522H565.798M550.361 61.6891V77.126M550.361 61.6891H565.798M550.361 77.126V92.5629M550.361 77.126H565.798M550.361 92.5629V108M550.361 92.5629H565.798M550.361 108V123.437M550.361 108H565.798M550.361 123.437V138.874M550.361 123.437H565.798M550.361 138.874V154.31M550.361 138.874H565.798M550.361 154.31V169.747M550.361 154.31H565.798M550.361 169.747V185.184M550.361 169.747H565.798M550.361 185.184V200.621M550.361 185.184H565.798M550.361 200.621V216.058M550.361 200.621H565.798M550.361 216.058V231.495M550.361 216.058H565.798M550.361 231.495V246.932M550.361 231.495H565.798M550.361 246.932V262.369M550.361 246.932H565.798M550.361 262.369H565.798M565.798 -46.3691V-30.9322M565.798 -46.3691H581.235M565.798 -30.9322V-15.4954M565.798 -30.9322H581.235M565.798 -15.4954V-0.0584679M565.798 -15.4954H581.235M565.798 -0.0584679V15.3784M565.798 -0.0584679H581.235M565.798 15.3784V30.8153M565.798 15.3784H581.235M565.798 30.8153V46.2522M565.798 30.8153H581.235M565.798 46.2522V61.6891M565.798 46.2522H581.235M565.798 61.6891V77.126M565.798 61.6891H581.235M565.798 77.126V92.5629M565.798 77.126H581.235M565.798 92.5629V108M565.798 92.5629H581.235M565.798 108V123.437M565.798 108H581.235M565.798 123.437V138.874M565.798 123.437H581.235M565.798 138.874V154.31M565.798 138.874H581.235M565.798 154.31V169.747M565.798 154.31H581.235M565.798 169.747V185.184M565.798 169.747H581.235M565.798 185.184V200.621M565.798 185.184H581.235M565.798 200.621V216.058M565.798 200.621H581.235M565.798 216.058V231.495M565.798 216.058H581.235M565.798 231.495V246.932M565.798 231.495H581.235M565.798 246.932V262.369M565.798 246.932H581.235M565.798 262.369H581.235M581.235 -46.3691V-30.9322M581.235 -46.3691H596.672M581.235 -30.9322V-15.4954M581.235 -30.9322H596.672M581.235 -15.4954V-0.0584679M581.235 -15.4954H596.672M581.235 -0.0584679V15.3784M581.235 -0.0584679H596.672M581.235 15.3784V30.8153M581.235 15.3784H596.672M581.235 30.8153V46.2522M581.235 30.8153H596.672M581.235 46.2522V61.6891M581.235 46.2522H596.672M581.235 61.6891V77.126M581.235 61.6891H596.672M581.235 77.126V92.5629M581.235 77.126H596.672M581.235 92.5629V108M581.235 92.5629H596.672M581.235 108V123.437M581.235 108H596.672M581.235 123.437V138.874M581.235 123.437H596.672M581.235 138.874V154.31M581.235 138.874H596.672M581.235 154.31V169.747M581.235 154.31H596.672M581.235 169.747V185.184M581.235 169.747H596.672M581.235 185.184V200.621M581.235 185.184H596.672M581.235 200.621V216.058M581.235 200.621H596.672M581.235 216.058V231.495M581.235 216.058H596.672M581.235 231.495V246.932M581.235 231.495H596.672M581.235 246.932V262.369M581.235 246.932H596.672M581.235 262.369H596.672M596.672 -46.3691V-30.9322M596.672 -46.3691H612.109M596.672 -30.9322V-15.4954M596.672 -30.9322H612.109M596.672 -15.4954V-0.0584679M596.672 -15.4954H612.109M596.672 -0.0584679V15.3784M596.672 -0.0584679H612.109M596.672 15.3784V30.8153M596.672 15.3784H612.109M596.672 30.8153V46.2522M596.672 30.8153H612.109M596.672 46.2522V61.6891M596.672 46.2522H612.109M596.672 61.6891V77.126M596.672 61.6891H612.109M596.672 77.126V92.5629M596.672 77.126H612.109M596.672 92.5629V108M596.672 92.5629H612.109M596.672 108V123.437M596.672 108H612.109M596.672 123.437V138.874M596.672 123.437H612.109M596.672 138.874V154.31M596.672 138.874H612.109M596.672 154.31V169.747M596.672 154.31H612.109M596.672 169.747V185.184M596.672 169.747H612.109M596.672 185.184V200.621M596.672 185.184H612.109M596.672 200.621V216.058M596.672 200.621H612.109M596.672 216.058V231.495M596.672 216.058H612.109M596.672 231.495V246.932M596.672 231.495H612.109M596.672 246.932V262.369M596.672 246.932H612.109M596.672 262.369H612.109M612.109 -46.3691V-30.9322M612.109 -46.3691H627.545M612.109 -30.9322V-15.4954M612.109 -30.9322H627.545M612.109 -15.4954V-0.0584679M612.109 -15.4954H627.545M612.109 -0.0584679V15.3784M612.109 -0.0584679H627.545M612.109 15.3784V30.8153M612.109 15.3784H627.545M612.109 30.8153V46.2522M612.109 30.8153H627.545M612.109 46.2522V61.6891M612.109 46.2522H627.545M612.109 61.6891V77.126M612.109 61.6891H627.545M612.109 77.126V92.5629M612.109 77.126H627.545M612.109 92.5629V108M612.109 92.5629H627.545M612.109 108V123.437M612.109 108H627.545M612.109 123.437V138.874M612.109 123.437H627.545M612.109 138.874V154.31M612.109 138.874H627.545M612.109 154.31V169.747M612.109 154.31H627.545M612.109 169.747V185.184M612.109 169.747H627.545M612.109 185.184V200.621M612.109 185.184H627.545M612.109 200.621V216.058M612.109 200.621H627.545M612.109 216.058V231.495M612.109 216.058H627.545M612.109 231.495V246.932M612.109 231.495H627.545M612.109 246.932V262.369M612.109 246.932H627.545M612.109 262.369H627.545M627.545 -46.3691V-30.9322M627.545 -46.3691H642.982M627.545 -30.9322V-15.4954M627.545 -30.9322H642.982M627.545 -15.4954V-0.0584679M627.545 -15.4954H642.982M627.545 -0.0584679V15.3784M627.545 -0.0584679H642.982M627.545 15.3784V30.8153M627.545 15.3784H642.982M627.545 30.8153V46.2522M627.545 30.8153H642.982M627.545 46.2522V61.6891M627.545 46.2522H642.982M627.545 61.6891V77.126M627.545 61.6891H642.982M627.545 77.126V92.5629M627.545 77.126H642.982M627.545 92.5629V108M627.545 92.5629H642.982M627.545 108V123.437M627.545 108H642.982M627.545 123.437V138.874M627.545 123.437H642.982M627.545 138.874V154.31M627.545 138.874H642.982M627.545 154.31V169.747M627.545 154.31H642.982M627.545 169.747V185.184M627.545 169.747H642.982M627.545 185.184V200.621M627.545 185.184H642.982M627.545 200.621V216.058M627.545 200.621H642.982M627.545 216.058V231.495M627.545 216.058H642.982M627.545 231.495V246.932M627.545 231.495H642.982M627.545 246.932V262.369M627.545 246.932H642.982M627.545 262.369H642.982M642.982 -46.3691V-30.9322M642.982 -46.3691H658.419M642.982 -30.9322V-15.4954M642.982 -30.9322H658.419M642.982 -15.4954V-0.0584679M642.982 -15.4954H658.419M642.982 -0.0584679V15.3784M642.982 -0.0584679H658.419M642.982 15.3784V30.8153M642.982 15.3784H658.419M642.982 30.8153V46.2522M642.982 30.8153H658.419M642.982 46.2522V61.6891M642.982 46.2522H658.419M642.982 61.6891V77.126M642.982 61.6891H658.419M642.982 77.126V92.5629M642.982 77.126H658.419M642.982 92.5629V108M642.982 92.5629H658.419M642.982 108V123.437M642.982 108H658.419M642.982 123.437V138.874M642.982 123.437H658.419M642.982 138.874V154.31M642.982 138.874H658.419M642.982 154.31V169.747M642.982 154.31H658.419M642.982 169.747V185.184M642.982 169.747H658.419M642.982 185.184V200.621M642.982 185.184H658.419M642.982 200.621V216.058M642.982 200.621H658.419M642.982 216.058V231.495M642.982 216.058H658.419M642.982 231.495V246.932M642.982 231.495H658.419M642.982 246.932V262.369M642.982 246.932H658.419M642.982 262.369H658.419M658.419 -46.3691V-30.9322M658.419 -46.3691H673.856V-30.9322M658.419 -30.9322V-15.4954M658.419 -30.9322H673.856M658.419 -15.4954V-0.0584679M658.419 -15.4954H673.856M658.419 -0.0584679V15.3784M658.419 -0.0584679H673.856M658.419 15.3784V30.8153M658.419 15.3784H673.856M658.419 30.8153V46.2522M658.419 30.8153H673.856M658.419 46.2522V61.6891M658.419 46.2522H673.856M658.419 61.6891V77.126M658.419 61.6891H673.856M658.419 77.126V92.5629M658.419 77.126H673.856M658.419 92.5629V108M658.419 92.5629H673.856M658.419 108V123.437M658.419 108H673.856M658.419 123.437V138.874M658.419 123.437H673.856M658.419 138.874V154.31M658.419 138.874H673.856M658.419 154.31V169.747M658.419 154.31H673.856M658.419 169.747V185.184M658.419 169.747H673.856M658.419 185.184V200.621M658.419 185.184H673.856M658.419 200.621V216.058M658.419 200.621H673.856M658.419 216.058V231.495M658.419 216.058H673.856M658.419 231.495V246.932M658.419 231.495H673.856M658.419 246.932V262.369M658.419 246.932H673.856M658.419 262.369H673.856V246.932M673.856 -30.9322V-15.4954M673.856 -15.4954V-0.0584679M673.856 -0.0584679V15.3784M673.856 15.3784V30.8153M673.856 30.8153V46.2522M673.856 46.2522V61.6891M673.856 61.6891V77.126M673.856 77.126V92.5629M673.856 92.5629V108M673.856 108V123.437M673.856 123.437V138.874M673.856 138.874V154.31M673.856 154.31V169.747M673.856 169.747V185.184M673.856 185.184V200.621M673.856 200.621V216.058M673.856 216.058V231.495M673.856 231.495V246.932" stroke="url(#paint0_radial_2806_23411)" stroke-opacity="0.5" stroke-width="0.192961"/>
</g>
<g style="mix-blend-mode:soft-light" opacity="0.8">
<path d="M56.3786 10.7475V15.3786M56.3786 15.3786V20.0097M56.3786 15.3786H51.7476M56.3786 15.3786H61.0097M56.3786 134.243V138.874M56.3786 138.874V143.505M56.3786 138.874H51.7476M56.3786 138.874H61.0097M56.3786 257.738V262.369M56.3786 262.369V267M56.3786 262.369H51.7476M56.3786 262.369H61.0097M179.874 134.243V138.874M179.874 138.874V143.505M179.874 138.874H175.243M179.874 138.874H184.505M179.874 257.738V262.369M179.874 262.369V267M179.874 262.369H175.243M179.874 262.369H184.505M303.369 26.3687V30.9998M303.369 30.9998V35.6308M303.369 30.9998H298.738M303.369 30.9998H308M303.369 134.243V138.874M303.369 138.874V143.505M303.369 138.874H298.738M303.369 138.874H308M303.369 257.738V262.369M303.369 262.369V267M303.369 262.369H298.738M303.369 262.369H308M426.864 10.7475V15.3786M426.864 15.3786V20.0097M426.864 15.3786H422.233M426.864 15.3786H431.495M426.864 134.243V138.874M426.864 138.874V143.505M426.864 138.874H422.233M426.864 138.874H431.495M426.864 257.738V262.369M426.864 262.369V267M426.864 262.369H422.233M426.864 262.369H431.495M550.359 10.7475V15.3786M550.359 15.3786V20.0097M550.359 15.3786H545.728M550.359 15.3786H554.99M550.359 134.243V138.874M550.359 138.874V143.505M550.359 138.874H545.728M550.359 138.874H554.99M550.359 257.738V262.369M550.359 262.369V267M550.359 262.369H545.728M550.359 262.369H554.99M673.854 10.7475V15.3786M673.854 15.3786V20.0097M673.854 15.3786H669.223M673.854 15.3786H678.485M673.854 134.243V138.874M673.854 138.874V143.505M673.854 138.874H669.223M673.854 138.874H678.485M673.854 257.738V262.369M673.854 262.369V267M673.854 262.369H669.223M673.854 262.369H678.485M56.3786 -51V-46.3689M56.3786 -46.3689V-41.7379M56.3786 -46.3689H51.7476M56.3786 -46.3689H61.0097M56.3786 72.4952V77.1262M56.3786 77.1262V81.7573M56.3786 77.1262H51.7476M56.3786 77.1262H61.0097M56.3786 195.99V200.621M56.3786 200.621V205.252M56.3786 200.621H51.7476M56.3786 200.621H61.0097M179.874 -51V-46.3689M179.874 -46.3689V-41.7379M179.874 -46.3689H175.243M179.874 -46.3689H184.505M179.874 195.99V200.621M179.874 200.621V205.252M179.874 200.621H175.243M179.874 200.621H184.505M303.369 195.99V200.621M303.369 200.621V205.252M303.369 200.621H298.738M303.369 200.621H308M426.864 -51V-46.3689M426.864 -46.3689V-41.7379M426.864 -46.3689H422.233M426.864 -46.3689H431.495M426.864 72.4952V77.1262M426.864 77.1262V81.7573M426.864 77.1262H422.233M426.864 77.1262H431.495M426.864 195.99V200.621M426.864 200.621V205.252M426.864 200.621H422.233M426.864 200.621H431.495M550.359 -51V-46.3689M550.359 -46.3689V-41.7379M550.359 -46.3689H545.728M550.359 -46.3689H554.99M550.359 72.4952V77.1262M550.359 77.1262V81.7573M550.359 77.1262H545.728M550.359 77.1262H554.99M550.359 195.99V200.621M550.359 200.621V205.252M550.359 200.621H545.728M550.359 200.621H554.99M673.854 -51V-46.3689M673.854 -46.3689V-41.7379M673.854 -46.3689H669.223M673.854 -46.3689H678.485M673.854 72.4952V77.1262M673.854 77.1262V81.7573M673.854 77.1262H669.223M673.854 77.1262H678.485M673.854 195.99V200.621M673.854 200.621V205.252M673.854 200.621H669.223M673.854 200.621H678.485M-5.36893 10.7475V15.3786M-5.36893 15.3786V20.0097M-5.36893 15.3786H-10M-5.36893 15.3786H-0.737864M-5.36893 134.243V138.874M-5.36893 138.874V143.505M-5.36893 138.874H-10M-5.36893 138.874H-0.737864M-5.36893 257.738V262.369M-5.36893 262.369V267M-5.36893 262.369H-10M-5.36893 262.369H-0.737864M118.126 134.243V138.874M118.126 138.874V143.505M118.126 138.874H113.495M118.126 138.874H122.757M118.126 257.738V262.369M118.126 262.369V267M118.126 262.369H113.495M118.126 262.369H122.757M241.621 134.243V138.874M241.621 138.874V143.505M241.621 138.874H236.99M241.621 138.874H246.252M241.621 257.738V262.369M241.621 262.369V267M241.621 262.369H236.99M241.621 262.369H246.252M365.117 26.3687V30.9998M365.117 30.9998V35.6308M365.117 30.9998H360.485M365.117 30.9998H369.748M365.117 134.243V138.874M365.117 138.874V143.505M365.117 138.874H360.485M365.117 138.874H369.748M365.117 257.738V262.369M365.117 262.369V267M365.117 262.369H360.485M365.117 262.369H369.748M488.612 10.7475V15.3786M488.612 15.3786V20.0097M488.612 15.3786H483.981M488.612 15.3786H493.243M488.612 134.243V138.874M488.612 138.874V143.505M488.612 138.874H483.981M488.612 138.874H493.243M488.612 257.738V262.369M488.612 262.369V267M488.612 262.369H483.981M488.612 262.369H493.243M612.107 10.7475V15.3786M612.107 15.3786V20.0097M612.107 15.3786H607.476M612.107 15.3786H616.738M612.107 134.243V138.874M612.107 138.874V143.505M612.107 138.874H607.476M612.107 138.874H616.738M612.107 257.738V262.369M612.107 262.369V267M612.107 262.369H607.476M612.107 262.369H616.738M-5.36893 -51V-46.3689M-5.36893 -46.3689V-41.7378M-5.36893 -46.3689H-10M-5.36893 -46.3689H-0.737864M-5.36893 72.4952V77.1262M-5.36893 77.1262V81.7573M-5.36893 77.1262H-10M-5.36893 77.1262H-0.737864M-5.36893 195.99V200.621M-5.36893 200.621V205.252M-5.36893 200.621H-10M-5.36893 200.621H-0.737864M118.126 -51V-46.3689M118.126 -46.3689V-41.7379M118.126 -46.3689H113.495M118.126 -46.3689H122.757M118.126 195.99V200.621M118.126 200.621V205.252M118.126 200.621H113.495M118.126 200.621H122.757M241.621 -51V-46.3689M241.621 -46.3689V-41.7379M241.621 -46.3689H236.99M241.621 -46.3689H246.252M241.621 195.99V200.621M241.621 200.621V205.252M241.621 200.621H236.99M241.621 200.621H246.252M148.869 10.7475V15.3786M148.869 15.3786V20.0097M148.869 15.3786H144.238M148.869 15.3786H153.5M365.117 195.99V200.621M365.117 200.621V205.252M365.117 200.621H360.485M365.117 200.621H369.748M488.612 -51V-46.3689M488.612 -46.3689V-41.7379M488.612 -46.3689H483.981M488.612 -46.3689H493.243M488.612 72.4952V77.1262M488.612 77.1262V81.7573M488.612 77.1262H483.981M488.612 77.1262H493.243M488.612 195.99V200.621M488.612 200.621V205.252M488.612 200.621H483.981M488.612 200.621H493.243M612.107 -51V-46.3689M612.107 -46.3689V-41.7379M612.107 -46.3689H607.476M612.107 -46.3689H616.738M612.107 72.4952V77.1262M612.107 77.1262V81.7573M612.107 77.1262H607.476M612.107 77.1262H616.738M612.107 195.99V200.621M612.107 200.621V205.252M612.107 200.621H607.476M612.107 200.621H616.738M303.329 72.7376V77.3687M303.329 77.3687V81.9998M303.329 77.3687H298.698M303.329 77.3687H307.961M365.117 72.7376V77.3687M365.117 77.3687V81.9998M365.117 77.3687H360.485M365.117 77.3687H369.748" stroke="url(#paint1_radial_2806_23411)" stroke-opacity="0.5" stroke-width="0.385922"/>
</g>
</g>
<defs>
<radialGradient id="paint0_radial_2806_23411" cx="0" cy="0" r="1" gradientUnits="userSpaceOnUse" gradientTransform="translate(334.244 108) rotate(90) scale(154.369 339.612)">
<stop stop-color="#F2F2F2"/>
<stop offset="0.549431" stop-color="#F2F2F2" stop-opacity="0"/>
</radialGradient>
<radialGradient id="paint1_radial_2806_23411" cx="0" cy="0" r="1" gradientUnits="userSpaceOnUse" gradientTransform="translate(334.243 108) rotate(90) scale(159 344.243)">
<stop stop-color="#F2F2F2"/>
<stop offset="0.657647" stop-color="#F2F2F2" stop-opacity="0"/>
</radialGradient>
<clipPath id="clip0_2806_23411">
<rect width="390" height="92" fill="white"/>
</clipPath>
</defs>
</svg>
