<svg width="390" height="64" viewBox="0 0 390 64" fill="none" xmlns="http://www.w3.org/2000/svg">
<g clip-path="url(#clip0_2536_25669)">
<path d="M0 0H390V64H0V0Z" fill="#01050D"/>
<g clip-path="url(#clip1_2536_25669)">
<g style="mix-blend-mode:soft-light" opacity="0.7">
<path d="M3.06971 -74.3691H-12.3672V-58.9322M3.06971 -74.3691V-58.9322M3.06971 -74.3691H18.5066M3.06971 -58.9322H-12.3672M3.06971 -58.9322V-43.4954M3.06971 -58.9322H18.5066M-12.3672 -58.9322V-43.4954M3.06971 -43.4954H-12.3672M3.06971 -43.4954V-28.0585M3.06971 -43.4954H18.5066M-12.3672 -43.4954V-28.0585M3.06971 -28.0585H-12.3672M3.06971 -28.0585V-12.6216M3.06971 -28.0585H18.5066M-12.3672 -28.0585V-12.6216M3.06971 -12.6216H-12.3672M3.06971 -12.6216V2.81532M3.06971 -12.6216H18.5066M-12.3672 -12.6216V2.81532M3.06971 2.81532H-12.3672M3.06971 2.81532V18.2522M3.06971 2.81532H18.5066M-12.3672 2.81532V18.2522M3.06971 18.2522H-12.3672M3.06971 18.2522V33.6891M3.06971 18.2522H18.5066M-12.3672 18.2522V33.6891M3.06971 33.6891H-12.3672M3.06971 33.6891V49.126M3.06971 33.6891H18.5066M-12.3672 33.6891V49.126M3.06971 49.126H-12.3672M3.06971 49.126V64.5629M3.06971 49.126H18.5066M-12.3672 49.126V64.5629M3.06971 64.5629H-12.3672M3.06971 64.5629V79.9998M3.06971 64.5629H18.5066M-12.3672 64.5629V79.9998M3.06971 79.9998H-12.3672M3.06971 79.9998V95.4367M3.06971 79.9998H18.5066M-12.3672 79.9998V95.4367M3.06971 95.4367H-12.3672M3.06971 95.4367V110.874M3.06971 95.4367H18.5066M-12.3672 95.4367V110.874M3.06971 110.874H-12.3672M3.06971 110.874V126.31M3.06971 110.874H18.5066M-12.3672 110.874V126.31M3.06971 126.31H-12.3672M3.06971 126.31V141.747M3.06971 126.31H18.5066M-12.3672 126.31V141.747M3.06971 141.747H-12.3672M3.06971 141.747V157.184M3.06971 141.747H18.5066M-12.3672 141.747V157.184M3.06971 157.184H-12.3672M3.06971 157.184V172.621M3.06971 157.184H18.5066M-12.3672 157.184V172.621M3.06971 172.621H-12.3672M3.06971 172.621V188.058M3.06971 172.621H18.5066M-12.3672 172.621V188.058M3.06971 188.058H-12.3672M3.06971 188.058V203.495M3.06971 188.058H18.5066M-12.3672 188.058V203.495M3.06971 203.495H-12.3672M3.06971 203.495V218.932M3.06971 203.495H18.5066M-12.3672 203.495V218.932M3.06971 218.932H-12.3672M3.06971 218.932V234.369M3.06971 218.932H18.5066M-12.3672 218.932V234.369H3.06971M3.06971 234.369H18.5066M18.5066 -74.3691V-58.9322M18.5066 -74.3691H33.9435M18.5066 -58.9322V-43.4954M18.5066 -58.9322H33.9435M18.5066 -43.4954V-28.0585M18.5066 -43.4954H33.9435M18.5066 -28.0585V-12.6216M18.5066 -28.0585H33.9435M18.5066 -12.6216V2.81532M18.5066 -12.6216H33.9435M18.5066 2.81532V18.2522M18.5066 2.81532H33.9435M18.5066 18.2522V33.6891M18.5066 18.2522H33.9435M18.5066 33.6891V49.126M18.5066 33.6891H33.9435M18.5066 49.126V64.5629M18.5066 49.126H33.9435M18.5066 64.5629V79.9998M18.5066 64.5629H33.9435M18.5066 79.9998V95.4367M18.5066 79.9998H33.9435M18.5066 95.4367V110.874M18.5066 95.4367H33.9435M18.5066 110.874V126.31M18.5066 110.874H33.9435M18.5066 126.31V141.747M18.5066 126.31H33.9435M18.5066 141.747V157.184M18.5066 141.747H33.9435M18.5066 157.184V172.621M18.5066 157.184H33.9435M18.5066 172.621V188.058M18.5066 172.621H33.9435M18.5066 188.058V203.495M18.5066 188.058H33.9435M18.5066 203.495V218.932M18.5066 203.495H33.9435M18.5066 218.932V234.369M18.5066 218.932H33.9435M18.5066 234.369H33.9435M33.9435 -74.3691V-58.9322M33.9435 -74.3691H49.3804M33.9435 -58.9322V-43.4954M33.9435 -58.9322H49.3804M33.9435 -43.4954V-28.0585M33.9435 -43.4954H49.3804M33.9435 -28.0585V-12.6216M33.9435 -28.0585H49.3804M33.9435 -12.6216V2.81532M33.9435 -12.6216H49.3804M33.9435 2.81532V18.2522M33.9435 2.81532H49.3804M33.9435 18.2522V33.6891M33.9435 18.2522H49.3804M33.9435 33.6891V49.126M33.9435 33.6891H49.3804M33.9435 49.126V64.5629M33.9435 49.126H49.3804M33.9435 64.5629V79.9998M33.9435 64.5629H49.3804M33.9435 79.9998V95.4367M33.9435 79.9998H49.3804M33.9435 95.4367V110.874M33.9435 95.4367H49.3804M33.9435 110.874V126.31M33.9435 110.874H49.3804M33.9435 126.31V141.747M33.9435 126.31H49.3804M33.9435 141.747V157.184M33.9435 141.747H49.3804M33.9435 157.184V172.621M33.9435 157.184H49.3804M33.9435 172.621V188.058M33.9435 172.621H49.3804M33.9435 188.058V203.495M33.9435 188.058H49.3804M33.9435 203.495V218.932M33.9435 203.495H49.3804M33.9435 218.932V234.369M33.9435 218.932H49.3804M33.9435 234.369H49.3804M49.3804 -74.3691V-58.9322M49.3804 -74.3691H64.8173M49.3804 -58.9322V-43.4954M49.3804 -58.9322H64.8173M49.3804 -43.4954V-28.0585M49.3804 -43.4954H64.8173M49.3804 -28.0585V-12.6216M49.3804 -28.0585H64.8173M49.3804 -12.6216V2.81532M49.3804 -12.6216H64.8173M49.3804 2.81532V18.2522M49.3804 2.81532H64.8173M49.3804 18.2522V33.6891M49.3804 18.2522H64.8173M49.3804 33.6891V49.126M49.3804 33.6891H64.8173M49.3804 49.126V64.5629M49.3804 49.126H64.8173M49.3804 64.5629V79.9998M49.3804 64.5629H64.8173M49.3804 79.9998V95.4367M49.3804 79.9998H64.8173M49.3804 95.4367V110.874M49.3804 95.4367H64.8173M49.3804 110.874V126.31M49.3804 110.874H64.8173M49.3804 126.31V141.747M49.3804 126.31H64.8173M49.3804 141.747V157.184M49.3804 141.747H64.8173M49.3804 157.184V172.621M49.3804 157.184H64.8173M49.3804 172.621V188.058M49.3804 172.621H64.8173M49.3804 188.058V203.495M49.3804 188.058H64.8173M49.3804 203.495V218.932M49.3804 203.495H64.8173M49.3804 218.932V234.369M49.3804 218.932H64.8173M49.3804 234.369H64.8173M64.8173 -74.3691V-58.9322M64.8173 -74.3691H80.2542M64.8173 -58.9322V-43.4954M64.8173 -58.9322H80.2542M64.8173 -43.4954V-28.0585M64.8173 -43.4954H80.2542M64.8173 -28.0585V-12.6216M64.8173 -28.0585H80.2542M64.8173 -12.6216V2.81532M64.8173 -12.6216H80.2542M64.8173 2.81532V18.2522M64.8173 2.81532H80.2542M64.8173 18.2522V33.6891M64.8173 18.2522H80.2542M64.8173 33.6891V49.126M64.8173 33.6891H80.2542M64.8173 49.126V64.5629M64.8173 49.126H80.2542M64.8173 64.5629V79.9998M64.8173 64.5629H80.2542M64.8173 79.9998V95.4367M64.8173 79.9998H80.2542M64.8173 95.4367V110.874M64.8173 95.4367H80.2542M64.8173 110.874V126.31M64.8173 110.874H80.2542M64.8173 126.31V141.747M64.8173 126.31H80.2542M64.8173 141.747V157.184M64.8173 141.747H80.2542M64.8173 157.184V172.621M64.8173 157.184H80.2542M64.8173 172.621V188.058M64.8173 172.621H80.2542M64.8173 188.058V203.495M64.8173 188.058H80.2542M64.8173 203.495V218.932M64.8173 203.495H80.2542M64.8173 218.932V234.369M64.8173 218.932H80.2542M64.8173 234.369H80.2542M80.2542 -74.3691V-58.9322M80.2542 -74.3691H95.6911M80.2542 -58.9322V-43.4954M80.2542 -58.9322H95.6911M80.2542 -43.4954V-28.0585M80.2542 -43.4954H95.6911M80.2542 -28.0585V-12.6216M80.2542 -28.0585H95.6911M80.2542 -12.6216V2.81532M80.2542 -12.6216H95.6911M80.2542 2.81532V18.2522M80.2542 2.81532H95.6911M80.2542 18.2522V33.6891M80.2542 18.2522H95.6911M80.2542 33.6891V49.126M80.2542 33.6891H95.6911M80.2542 49.126V64.5629M80.2542 49.126H95.6911M80.2542 64.5629V79.9998M80.2542 64.5629H95.6911M80.2542 79.9998V95.4367M80.2542 79.9998H95.6911M80.2542 95.4367V110.874M80.2542 95.4367H95.6911M80.2542 110.874V126.31M80.2542 110.874H95.6911M80.2542 126.31V141.747M80.2542 126.31H95.6911M80.2542 141.747V157.184M80.2542 141.747H95.6911M80.2542 157.184V172.621M80.2542 157.184H95.6911M80.2542 172.621V188.058M80.2542 172.621H95.6911M80.2542 188.058V203.495M80.2542 188.058H95.6911M80.2542 203.495V218.932M80.2542 203.495H95.6911M80.2542 218.932V234.369M80.2542 218.932H95.6911M80.2542 234.369H95.6911M95.6911 -74.3691V-58.9322M95.6911 -74.3691H111.128M95.6911 -58.9322V-43.4954M95.6911 -58.9322H111.128M95.6911 -43.4954V-28.0585M95.6911 -43.4954H111.128M95.6911 -28.0585V-12.6216M95.6911 -28.0585H111.128M95.6911 -12.6216V2.81532M95.6911 -12.6216H111.128M95.6911 2.81532V18.2522M95.6911 2.81532H111.128M95.6911 18.2522V33.6891M95.6911 18.2522H111.128M95.6911 33.6891V49.126M95.6911 33.6891H111.128M95.6911 49.126V64.5629M95.6911 49.126H111.128M95.6911 64.5629V79.9998M95.6911 64.5629H111.128M95.6911 79.9998V95.4367M95.6911 79.9998H111.128M95.6911 95.4367V110.874M95.6911 95.4367H111.128M95.6911 110.874V126.31M95.6911 110.874H111.128M95.6911 126.31V141.747M95.6911 126.31H111.128M95.6911 141.747V157.184M95.6911 141.747H111.128M95.6911 157.184V172.621M95.6911 157.184H111.128M95.6911 172.621V188.058M95.6911 172.621H111.128M95.6911 188.058V203.495M95.6911 188.058H111.128M95.6911 203.495V218.932M95.6911 203.495H111.128M95.6911 218.932V234.369M95.6911 218.932H111.128M95.6911 234.369H111.128M111.128 -74.3691V-58.9322M111.128 -74.3691H126.565M111.128 -58.9322V-43.4954M111.128 -58.9322H126.565M111.128 -43.4954V-28.0585M111.128 -43.4954H126.565M111.128 -28.0585V-12.6216M111.128 -28.0585H126.565M111.128 -12.6216V2.81532M111.128 -12.6216H126.565M111.128 2.81532V18.2522M111.128 2.81532H126.565M111.128 18.2522V33.6891M111.128 18.2522H126.565M111.128 33.6891V49.126M111.128 33.6891H126.565M111.128 49.126V64.5629M111.128 49.126H126.565M111.128 64.5629V79.9998M111.128 64.5629H126.565M111.128 79.9998V95.4367M111.128 79.9998H126.565M111.128 95.4367V110.874M111.128 95.4367H126.565M111.128 110.874V126.31M111.128 110.874H126.565M111.128 126.31V141.747M111.128 126.31H126.565M111.128 141.747V157.184M111.128 141.747H126.565M111.128 157.184V172.621M111.128 157.184H126.565M111.128 172.621V188.058M111.128 172.621H126.565M111.128 188.058V203.495M111.128 188.058H126.565M111.128 203.495V218.932M111.128 203.495H126.565M111.128 218.932V234.369M111.128 218.932H126.565M111.128 234.369H126.565M126.565 -74.3691V-58.9322M126.565 -74.3691H142.002M126.565 -58.9322V-43.4954M126.565 -58.9322H142.002M126.565 -43.4954V-28.0585M126.565 -43.4954H142.002M126.565 -28.0585V-12.6216M126.565 -28.0585H142.002M126.565 -12.6216V2.81532M126.565 -12.6216H142.002M126.565 2.81532V18.2522M126.565 2.81532H142.002M126.565 18.2522V33.6891M126.565 18.2522H142.002M126.565 33.6891V49.126M126.565 33.6891H142.002M126.565 49.126V64.5629M126.565 49.126H142.002M126.565 64.5629V79.9998M126.565 64.5629H142.002M126.565 79.9998V95.4367M126.565 79.9998H142.002M126.565 95.4367V110.874M126.565 95.4367H142.002M126.565 110.874V126.31M126.565 110.874H142.002M126.565 126.31V141.747M126.565 126.31H142.002M126.565 141.747V157.184M126.565 141.747H142.002M126.565 157.184V172.621M126.565 157.184H142.002M126.565 172.621V188.058M126.565 172.621H142.002M126.565 188.058V203.495M126.565 188.058H142.002M126.565 203.495V218.932M126.565 203.495H142.002M126.565 218.932V234.369M126.565 218.932H142.002M126.565 234.369H142.002M142.002 -74.3691V-58.9322M142.002 -74.3691H157.439M142.002 -58.9322V-43.4954M142.002 -58.9322H157.439M142.002 -43.4954V-28.0585M142.002 -43.4954H157.439M142.002 -28.0585V-12.6216M142.002 -28.0585H157.439M142.002 -12.6216V2.81532M142.002 -12.6216H157.439M142.002 2.81532V18.2522M142.002 2.81532H157.439M142.002 18.2522V33.6891M142.002 18.2522H157.439M142.002 33.6891V49.126M142.002 33.6891H157.439M142.002 49.126V64.5629M142.002 49.126H157.439M142.002 64.5629V79.9998M142.002 64.5629H157.439M142.002 79.9998V95.4367M142.002 79.9998H157.439M142.002 95.4367V110.874M142.002 95.4367H157.439M142.002 110.874V126.31M142.002 110.874H157.439M142.002 126.31V141.747M142.002 126.31H157.439M142.002 141.747V157.184M142.002 141.747H157.439M142.002 157.184V172.621M142.002 157.184H157.439M142.002 172.621V188.058M142.002 172.621H157.439M142.002 188.058V203.495M142.002 188.058H157.439M142.002 203.495V218.932M142.002 203.495H157.439M142.002 218.932V234.369M142.002 218.932H157.439M142.002 234.369H157.439M157.439 -74.3691V-58.9322M157.439 -74.3691H172.876M157.439 -58.9322V-43.4954M157.439 -58.9322H172.876M157.439 -43.4954V-28.0585M157.439 -43.4954H172.876M157.439 -28.0585V-12.6216M157.439 -28.0585H172.876M157.439 -12.6216V2.81532M157.439 -12.6216H172.876M157.439 2.81532V18.2522M157.439 2.81532H172.876M157.439 18.2522V33.6891M157.439 18.2522H172.876M157.439 33.6891V49.126M157.439 33.6891H172.876M157.439 49.126V64.5629M157.439 49.126H172.876M157.439 64.5629V79.9998M157.439 64.5629H172.876M157.439 79.9998V95.4367M157.439 79.9998H172.876M157.439 95.4367V110.874M157.439 95.4367H172.876M157.439 110.874V126.31M157.439 110.874H172.876M157.439 126.31V141.747M157.439 126.31H172.876M157.439 141.747V157.184M157.439 141.747H172.876M157.439 157.184V172.621M157.439 157.184H172.876M157.439 172.621V188.058M157.439 172.621H172.876M157.439 188.058V203.495M157.439 188.058H172.876M157.439 203.495V218.932M157.439 203.495H172.876M157.439 218.932V234.369M157.439 218.932H172.876M157.439 234.369H172.876M172.876 -74.3691V-58.9322M172.876 -74.3691H188.312M172.876 -58.9322V-43.4954M172.876 -58.9322H188.312M172.876 -43.4954V-28.0585M172.876 -43.4954H188.312M172.876 -28.0585V-12.6216M172.876 -28.0585H188.312M172.876 -12.6216V2.81532M172.876 -12.6216H188.312M172.876 2.81532V18.2522M172.876 2.81532H188.312M172.876 18.2522V33.6891M172.876 18.2522H188.312M172.876 33.6891V49.126M172.876 33.6891H188.312M172.876 49.126V64.5629M172.876 49.126H188.312M172.876 64.5629V79.9998M172.876 64.5629H188.312M172.876 79.9998V95.4367M172.876 79.9998H188.312M172.876 95.4367V110.874M172.876 95.4367H188.312M172.876 110.874V126.31M172.876 110.874H188.312M172.876 126.31V141.747M172.876 126.31H188.312M172.876 141.747V157.184M172.876 141.747H188.312M172.876 157.184V172.621M172.876 157.184H188.312M172.876 172.621V188.058M172.876 172.621H188.312M172.876 188.058V203.495M172.876 188.058H188.312M172.876 203.495V218.932M172.876 203.495H188.312M172.876 218.932V234.369M172.876 218.932H188.312M172.876 234.369H188.312M188.312 -74.3691V-58.9322M188.312 -74.3691H203.749M188.312 -58.9322V-43.4954M188.312 -58.9322H203.749M188.312 -43.4954V-28.0585M188.312 -43.4954H203.749M188.312 -28.0585V-12.6216M188.312 -28.0585H203.749M188.312 -12.6216V2.81532M188.312 -12.6216H203.749M188.312 2.81532V18.2522M188.312 2.81532H203.749M188.312 18.2522V33.6891M188.312 18.2522H203.749M188.312 33.6891V49.126M188.312 33.6891H203.749M188.312 49.126V64.5629M188.312 49.126H203.749M188.312 64.5629V79.9998M188.312 64.5629H203.749M188.312 79.9998V95.4367M188.312 79.9998H203.749M188.312 95.4367V110.874M188.312 95.4367H203.749M188.312 110.874V126.31M188.312 110.874H203.749M188.312 126.31V141.747M188.312 126.31H203.749M188.312 141.747V157.184M188.312 141.747H203.749M188.312 157.184V172.621M188.312 157.184H203.749M188.312 172.621V188.058M188.312 172.621H203.749M188.312 188.058V203.495M188.312 188.058H203.749M188.312 203.495V218.932M188.312 203.495H203.749M188.312 218.932V234.369M188.312 218.932H203.749M188.312 234.369H203.749M203.749 -74.3691V-58.9322M203.749 -74.3691H219.186M203.749 -58.9322V-43.4954M203.749 -58.9322H219.186M203.749 -43.4954V-28.0585M203.749 -43.4954H219.186M203.749 -28.0585V-12.6216M203.749 -28.0585H219.186M203.749 -12.6216V2.81532M203.749 -12.6216H219.186M203.749 2.81532V18.2522M203.749 2.81532H219.186M203.749 18.2522V33.6891M203.749 18.2522H219.186M203.749 33.6891V49.126M203.749 33.6891H219.186M203.749 49.126V64.5629M203.749 49.126H219.186M203.749 64.5629V79.9998M203.749 64.5629H219.186M203.749 79.9998V95.4367M203.749 79.9998H219.186M203.749 95.4367V110.874M203.749 95.4367H219.186M203.749 110.874V126.31M203.749 110.874H219.186M203.749 126.31V141.747M203.749 126.31H219.186M203.749 141.747V157.184M203.749 141.747H219.186M203.749 157.184V172.621M203.749 157.184H219.186M203.749 172.621V188.058M203.749 172.621H219.186M203.749 188.058V203.495M203.749 188.058H219.186M203.749 203.495V218.932M203.749 203.495H219.186M203.749 218.932V234.369M203.749 218.932H219.186M203.749 234.369H219.186M219.186 -74.3691V-58.9322M219.186 -74.3691H234.623M219.186 -58.9322V-43.4954M219.186 -58.9322H234.623M219.186 -43.4954V-28.0585M219.186 -43.4954H234.623M219.186 -28.0585V-12.6216M219.186 -28.0585H234.623M219.186 -12.6216V2.81532M219.186 -12.6216H234.623M219.186 2.81532V18.2522M219.186 2.81532H234.623M219.186 18.2522V33.6891M219.186 18.2522H234.623M219.186 33.6891V49.126M219.186 33.6891H234.623M219.186 49.126V64.5629M219.186 49.126H234.623M219.186 64.5629V79.9998M219.186 64.5629H234.623M219.186 79.9998V95.4367M219.186 79.9998H234.623M219.186 95.4367V110.874M219.186 95.4367H234.623M219.186 110.874V126.31M219.186 110.874H234.623M219.186 126.31V141.747M219.186 126.31H234.623M219.186 141.747V157.184M219.186 141.747H234.623M219.186 157.184V172.621M219.186 157.184H234.623M219.186 172.621V188.058M219.186 172.621H234.623M219.186 188.058V203.495M219.186 188.058H234.623M219.186 203.495V218.932M219.186 203.495H234.623M219.186 218.932V234.369M219.186 218.932H234.623M219.186 234.369H234.623M234.623 -74.3691V-58.9322M234.623 -74.3691H250.06M234.623 -58.9322V-43.4954M234.623 -58.9322H250.06M234.623 -43.4954V-28.0585M234.623 -43.4954H250.06M234.623 -28.0585V-12.6216M234.623 -28.0585H250.06M234.623 -12.6216V2.81532M234.623 -12.6216H250.06M234.623 2.81532V18.2522M234.623 2.81532H250.06M234.623 18.2522V33.6891M234.623 18.2522H250.06M234.623 33.6891V49.126M234.623 33.6891H250.06M234.623 49.126V64.5629M234.623 49.126H250.06M234.623 64.5629V79.9998M234.623 64.5629H250.06M234.623 79.9998V95.4367M234.623 79.9998H250.06M234.623 95.4367V110.874M234.623 95.4367H250.06M234.623 110.874V126.31M234.623 110.874H250.06M234.623 126.31V141.747M234.623 126.31H250.06M234.623 141.747V157.184M234.623 141.747H250.06M234.623 157.184V172.621M234.623 157.184H250.06M234.623 172.621V188.058M234.623 172.621H250.06M234.623 188.058V203.495M234.623 188.058H250.06M234.623 203.495V218.932M234.623 203.495H250.06M234.623 218.932V234.369M234.623 218.932H250.06M234.623 234.369H250.06M250.06 -74.3691V-58.9322M250.06 -74.3691H265.497M250.06 -58.9322V-43.4954M250.06 -58.9322H265.497M250.06 -43.4954V-28.0585M250.06 -43.4954H265.497M250.06 -28.0585V-12.6216M250.06 -28.0585H265.497M250.06 -12.6216V2.81532M250.06 -12.6216H265.497M250.06 2.81532V18.2522M250.06 2.81532H265.497M250.06 18.2522V33.6891M250.06 18.2522H265.497M250.06 33.6891V49.126M250.06 33.6891H265.497M250.06 49.126V64.5629M250.06 49.126H265.497M250.06 64.5629V79.9998M250.06 64.5629H265.497M250.06 79.9998V95.4367M250.06 79.9998H265.497M250.06 95.4367V110.874M250.06 95.4367H265.497M250.06 110.874V126.31M250.06 110.874H265.497M250.06 126.31V141.747M250.06 126.31H265.497M250.06 141.747V157.184M250.06 141.747H265.497M250.06 157.184V172.621M250.06 157.184H265.497M250.06 172.621V188.058M250.06 172.621H265.497M250.06 188.058V203.495M250.06 188.058H265.497M250.06 203.495V218.932M250.06 203.495H265.497M250.06 218.932V234.369M250.06 218.932H265.497M250.06 234.369H265.497M265.497 -74.3691V-58.9322M265.497 -74.3691H280.934M265.497 -58.9322V-43.4954M265.497 -58.9322H280.934M265.497 -43.4954V-28.0585M265.497 -43.4954H280.934M265.497 -28.0585V-12.6216M265.497 -28.0585H280.934M265.497 -12.6216V2.81532M265.497 -12.6216H280.934M265.497 2.81532V18.2522M265.497 2.81532H280.934M265.497 18.2522V33.6891M265.497 18.2522H280.934M265.497 33.6891V49.126M265.497 33.6891H280.934M265.497 49.126V64.5629M265.497 49.126H280.934M265.497 64.5629V79.9998M265.497 64.5629H280.934M265.497 79.9998V95.4367M265.497 79.9998H280.934M265.497 95.4367V110.874M265.497 95.4367H280.934M265.497 110.874V126.31M265.497 110.874H280.934M265.497 126.31V141.747M265.497 126.31H280.934M265.497 141.747V157.184M265.497 141.747H280.934M265.497 157.184V172.621M265.497 157.184H280.934M265.497 172.621V188.058M265.497 172.621H280.934M265.497 188.058V203.495M265.497 188.058H280.934M265.497 203.495V218.932M265.497 203.495H280.934M265.497 218.932V234.369M265.497 218.932H280.934M265.497 234.369H280.934M280.934 -74.3691V-58.9322M280.934 -74.3691H296.371M280.934 -58.9322V-43.4954M280.934 -58.9322H296.371M280.934 -43.4954V-28.0585M280.934 -43.4954H296.371M280.934 -28.0585V-12.6216M280.934 -28.0585H296.371M280.934 -12.6216V2.81532M280.934 -12.6216H296.371M280.934 2.81532V18.2522M280.934 2.81532H296.371M280.934 18.2522V33.6891M280.934 18.2522H296.371M280.934 33.6891V49.126M280.934 33.6891H296.371M280.934 49.126V64.5629M280.934 49.126H296.371M280.934 64.5629V79.9998M280.934 64.5629H296.371M280.934 79.9998V95.4367M280.934 79.9998H296.371M280.934 95.4367V110.874M280.934 95.4367H296.371M280.934 110.874V126.31M280.934 110.874H296.371M280.934 126.31V141.747M280.934 126.31H296.371M280.934 141.747V157.184M280.934 141.747H296.371M280.934 157.184V172.621M280.934 157.184H296.371M280.934 172.621V188.058M280.934 172.621H296.371M280.934 188.058V203.495M280.934 188.058H296.371M280.934 203.495V218.932M280.934 203.495H296.371M280.934 218.932V234.369M280.934 218.932H296.371M280.934 234.369H296.371M296.371 -74.3691V-58.9322M296.371 -74.3691H311.808M296.371 -58.9322V-43.4954M296.371 -58.9322H311.808M296.371 -43.4954V-28.0585M296.371 -43.4954H311.808M296.371 -28.0585V-12.6216M296.371 -28.0585H311.808M296.371 -12.6216V2.81532M296.371 -12.6216H311.808M296.371 2.81532V18.2522M296.371 2.81532H311.808M296.371 18.2522V33.6891M296.371 18.2522H311.808M296.371 33.6891V49.126M296.371 33.6891H311.808M296.371 49.126V64.5629M296.371 49.126H311.808M296.371 64.5629V79.9998M296.371 64.5629H311.808M296.371 79.9998V95.4367M296.371 79.9998H311.808M296.371 95.4367V110.874M296.371 95.4367H311.808M296.371 110.874V126.31M296.371 110.874H311.808M296.371 126.31V141.747M296.371 126.31H311.808M296.371 141.747V157.184M296.371 141.747H311.808M296.371 157.184V172.621M296.371 157.184H311.808M296.371 172.621V188.058M296.371 172.621H311.808M296.371 188.058V203.495M296.371 188.058H311.808M296.371 203.495V218.932M296.371 203.495H311.808M296.371 218.932V234.369M296.371 218.932H311.808M296.371 234.369H311.808M311.808 -74.3691V-58.9322M311.808 -74.3691H327.244M311.808 -58.9322V-43.4954M311.808 -58.9322H327.244M311.808 -43.4954V-28.0585M311.808 -43.4954H327.244M311.808 -28.0585V-12.6216M311.808 -28.0585H327.244M311.808 -12.6216V2.81532M311.808 -12.6216H327.244M311.808 2.81532V18.2522M311.808 2.81532H327.244M311.808 18.2522V33.6891M311.808 18.2522H327.244M311.808 33.6891V49.126M311.808 33.6891H327.244M311.808 49.126V64.5629M311.808 49.126H327.244M311.808 64.5629V79.9998M311.808 64.5629H327.244M311.808 79.9998V95.4367M311.808 79.9998H327.244M311.808 95.4367V110.874M311.808 95.4367H327.244M311.808 110.874V126.31M311.808 110.874H327.244M311.808 126.31V141.747M311.808 126.31H327.244M311.808 141.747V157.184M311.808 141.747H327.244M311.808 157.184V172.621M311.808 157.184H327.244M311.808 172.621V188.058M311.808 172.621H327.244M311.808 188.058V203.495M311.808 188.058H327.244M311.808 203.495V218.932M311.808 203.495H327.244M311.808 218.932V234.369M311.808 218.932H327.244M311.808 234.369H327.244M327.244 -74.3691V-58.9322M327.244 -74.3691H342.681M327.244 -58.9322V-43.4954M327.244 -58.9322H342.681M327.244 -43.4954V-28.0585M327.244 -43.4954H342.681M327.244 -28.0585V-12.6216M327.244 -28.0585H342.681M327.244 -12.6216V2.81532M327.244 -12.6216H342.681M327.244 2.81532V18.2522M327.244 2.81532H342.681M327.244 18.2522V33.6891M327.244 18.2522H342.681M327.244 33.6891V49.126M327.244 33.6891H342.681M327.244 49.126V64.5629M327.244 49.126H342.681M327.244 64.5629V79.9998M327.244 64.5629H342.681M327.244 79.9998V95.4367M327.244 79.9998H342.681M327.244 95.4367V110.874M327.244 95.4367H342.681M327.244 110.874V126.31M327.244 110.874H342.681M327.244 126.31V141.747M327.244 126.31H342.681M327.244 141.747V157.184M327.244 141.747H342.681M327.244 157.184V172.621M327.244 157.184H342.681M327.244 172.621V188.058M327.244 172.621H342.681M327.244 188.058V203.495M327.244 188.058H342.681M327.244 203.495V218.932M327.244 203.495H342.681M327.244 218.932V234.369M327.244 218.932H342.681M327.244 234.369H342.681M342.681 -74.3691V-58.9322M342.681 -74.3691H358.118M342.681 -58.9322V-43.4954M342.681 -58.9322H358.118M342.681 -43.4954V-28.0585M342.681 -43.4954H358.118M342.681 -28.0585V-12.6216M342.681 -28.0585H358.118M342.681 -12.6216V2.81532M342.681 -12.6216H358.118M342.681 2.81532V18.2522M342.681 2.81532H358.118M342.681 18.2522V33.6891M342.681 18.2522H358.118M342.681 33.6891V49.126M342.681 33.6891H358.118M342.681 49.126V64.5629M342.681 49.126H358.118M342.681 64.5629V79.9998M342.681 64.5629H358.118M342.681 79.9998V95.4367M342.681 79.9998H358.118M342.681 95.4367V110.874M342.681 95.4367H358.118M342.681 110.874V126.31M342.681 110.874H358.118M342.681 126.31V141.747M342.681 126.31H358.118M342.681 141.747V157.184M342.681 141.747H358.118M342.681 157.184V172.621M342.681 157.184H358.118M342.681 172.621V188.058M342.681 172.621H358.118M342.681 188.058V203.495M342.681 188.058H358.118M342.681 203.495V218.932M342.681 203.495H358.118M342.681 218.932V234.369M342.681 218.932H358.118M342.681 234.369H358.118M358.118 -74.3691V-58.9322M358.118 -74.3691H373.555M358.118 -58.9322V-43.4954M358.118 -58.9322H373.555M358.118 -43.4954V-28.0585M358.118 -43.4954H373.555M358.118 -28.0585V-12.6216M358.118 -28.0585H373.555M358.118 -12.6216V2.81532M358.118 -12.6216H373.555M358.118 2.81532V18.2522M358.118 2.81532H373.555M358.118 18.2522V33.6891M358.118 18.2522H373.555M358.118 33.6891V49.126M358.118 33.6891H373.555M358.118 49.126V64.5629M358.118 49.126H373.555M358.118 64.5629V79.9998M358.118 64.5629H373.555M358.118 79.9998V95.4367M358.118 79.9998H373.555M358.118 95.4367V110.874M358.118 95.4367H373.555M358.118 110.874V126.31M358.118 110.874H373.555M358.118 126.31V141.747M358.118 126.31H373.555M358.118 141.747V157.184M358.118 141.747H373.555M358.118 157.184V172.621M358.118 157.184H373.555M358.118 172.621V188.058M358.118 172.621H373.555M358.118 188.058V203.495M358.118 188.058H373.555M358.118 203.495V218.932M358.118 203.495H373.555M358.118 218.932V234.369M358.118 218.932H373.555M358.118 234.369H373.555M373.555 -74.3691V-58.9322M373.555 -74.3691H388.992M373.555 -58.9322V-43.4954M373.555 -58.9322H388.992M373.555 -43.4954V-28.0585M373.555 -43.4954H388.992M373.555 -28.0585V-12.6216M373.555 -28.0585H388.992M373.555 -12.6216V2.81532M373.555 -12.6216H388.992M373.555 2.81532V18.2522M373.555 2.81532H388.992M373.555 18.2522V33.6891M373.555 18.2522H388.992M373.555 33.6891V49.126M373.555 33.6891H388.992M373.555 49.126V64.5629M373.555 49.126H388.992M373.555 64.5629V79.9998M373.555 64.5629H388.992M373.555 79.9998V95.4367M373.555 79.9998H388.992M373.555 95.4367V110.874M373.555 95.4367H388.992M373.555 110.874V126.31M373.555 110.874H388.992M373.555 126.31V141.747M373.555 126.31H388.992M373.555 141.747V157.184M373.555 141.747H388.992M373.555 157.184V172.621M373.555 157.184H388.992M373.555 172.621V188.058M373.555 172.621H388.992M373.555 188.058V203.495M373.555 188.058H388.992M373.555 203.495V218.932M373.555 203.495H388.992M373.555 218.932V234.369M373.555 218.932H388.992M373.555 234.369H388.992M388.992 -74.3691V-58.9322M388.992 -74.3691H404.429M388.992 -58.9322V-43.4954M388.992 -58.9322H404.429M388.992 -43.4954V-28.0585M388.992 -43.4954H404.429M388.992 -28.0585V-12.6216M388.992 -28.0585H404.429M388.992 -12.6216V2.81532M388.992 -12.6216H404.429M388.992 2.81532V18.2522M388.992 2.81532H404.429M388.992 18.2522V33.6891M388.992 18.2522H404.429M388.992 33.6891V49.126M388.992 33.6891H404.429M388.992 49.126V64.5629M388.992 49.126H404.429M388.992 64.5629V79.9998M388.992 64.5629H404.429M388.992 79.9998V95.4367M388.992 79.9998H404.429M388.992 95.4367V110.874M388.992 95.4367H404.429M388.992 110.874V126.31M388.992 110.874H404.429M388.992 126.31V141.747M388.992 126.31H404.429M388.992 141.747V157.184M388.992 141.747H404.429M388.992 157.184V172.621M388.992 157.184H404.429M388.992 172.621V188.058M388.992 172.621H404.429M388.992 188.058V203.495M388.992 188.058H404.429M388.992 203.495V218.932M388.992 203.495H404.429M388.992 218.932V234.369M388.992 218.932H404.429M388.992 234.369H404.429M404.429 -74.3691V-58.9322M404.429 -74.3691H419.866M404.429 -58.9322V-43.4954M404.429 -58.9322H419.866M404.429 -43.4954V-28.0585M404.429 -43.4954H419.866M404.429 -28.0585V-12.6216M404.429 -28.0585H419.866M404.429 -12.6216V2.81532M404.429 -12.6216H419.866M404.429 2.81532V18.2522M404.429 2.81532H419.866M404.429 18.2522V33.6891M404.429 18.2522H419.866M404.429 33.6891V49.126M404.429 33.6891H419.866M404.429 49.126V64.5629M404.429 49.126H419.866M404.429 64.5629V79.9998M404.429 64.5629H419.866M404.429 79.9998V95.4367M404.429 79.9998H419.866M404.429 95.4367V110.874M404.429 95.4367H419.866M404.429 110.874V126.31M404.429 110.874H419.866M404.429 126.31V141.747M404.429 126.31H419.866M404.429 141.747V157.184M404.429 141.747H419.866M404.429 157.184V172.621M404.429 157.184H419.866M404.429 172.621V188.058M404.429 172.621H419.866M404.429 188.058V203.495M404.429 188.058H419.866M404.429 203.495V218.932M404.429 203.495H419.866M404.429 218.932V234.369M404.429 218.932H419.866M404.429 234.369H419.866M419.866 -74.3691V-58.9322M419.866 -74.3691H435.303M419.866 -58.9322V-43.4954M419.866 -58.9322H435.303M419.866 -43.4954V-28.0585M419.866 -43.4954H435.303M419.866 -28.0585V-12.6216M419.866 -28.0585H435.303M419.866 -12.6216V2.81532M419.866 -12.6216H435.303M419.866 2.81532V18.2522M419.866 2.81532H435.303M419.866 18.2522V33.6891M419.866 18.2522H435.303M419.866 33.6891V49.126M419.866 33.6891H435.303M419.866 49.126V64.5629M419.866 49.126H435.303M419.866 64.5629V79.9998M419.866 64.5629H435.303M419.866 79.9998V95.4367M419.866 79.9998H435.303M419.866 95.4367V110.874M419.866 95.4367H435.303M419.866 110.874V126.31M419.866 110.874H435.303M419.866 126.31V141.747M419.866 126.31H435.303M419.866 141.747V157.184M419.866 141.747H435.303M419.866 157.184V172.621M419.866 157.184H435.303M419.866 172.621V188.058M419.866 172.621H435.303M419.866 188.058V203.495M419.866 188.058H435.303M419.866 203.495V218.932M419.866 203.495H435.303M419.866 218.932V234.369M419.866 218.932H435.303M419.866 234.369H435.303M435.303 -74.3691V-58.9322M435.303 -74.3691H450.74M435.303 -58.9322V-43.4954M435.303 -58.9322H450.74M435.303 -43.4954V-28.0585M435.303 -43.4954H450.74M435.303 -28.0585V-12.6216M435.303 -28.0585H450.74M435.303 -12.6216V2.81532M435.303 -12.6216H450.74M435.303 2.81532V18.2522M435.303 2.81532H450.74M435.303 18.2522V33.6891M435.303 18.2522H450.74M435.303 33.6891V49.126M435.303 33.6891H450.74M435.303 49.126V64.5629M435.303 49.126H450.74M435.303 64.5629V79.9998M435.303 64.5629H450.74M435.303 79.9998V95.4367M435.303 79.9998H450.74M435.303 95.4367V110.874M435.303 95.4367H450.74M435.303 110.874V126.31M435.303 110.874H450.74M435.303 126.31V141.747M435.303 126.31H450.74M435.303 141.747V157.184M435.303 141.747H450.74M435.303 157.184V172.621M435.303 157.184H450.74M435.303 172.621V188.058M435.303 172.621H450.74M435.303 188.058V203.495M435.303 188.058H450.74M435.303 203.495V218.932M435.303 203.495H450.74M435.303 218.932V234.369M435.303 218.932H450.74M435.303 234.369H450.74M450.74 -74.3691V-58.9322M450.74 -74.3691H466.176M450.74 -58.9322V-43.4954M450.74 -58.9322H466.176M450.74 -43.4954V-28.0585M450.74 -43.4954H466.176M450.74 -28.0585V-12.6216M450.74 -28.0585H466.176M450.74 -12.6216V2.81532M450.74 -12.6216H466.176M450.74 2.81532V18.2522M450.74 2.81532H466.176M450.74 18.2522V33.6891M450.74 18.2522H466.176M450.74 33.6891V49.126M450.74 33.6891H466.176M450.74 49.126V64.5629M450.74 49.126H466.176M450.74 64.5629V79.9998M450.74 64.5629H466.176M450.74 79.9998V95.4367M450.74 79.9998H466.176M450.74 95.4367V110.874M450.74 95.4367H466.176M450.74 110.874V126.31M450.74 110.874H466.176M450.74 126.31V141.747M450.74 126.31H466.176M450.74 141.747V157.184M450.74 141.747H466.176M450.74 157.184V172.621M450.74 157.184H466.176M450.74 172.621V188.058M450.74 172.621H466.176M450.74 188.058V203.495M450.74 188.058H466.176M450.74 203.495V218.932M450.74 203.495H466.176M450.74 218.932V234.369M450.74 218.932H466.176M450.74 234.369H466.176M466.176 -74.3691V-58.9322M466.176 -74.3691H481.613M466.176 -58.9322V-43.4954M466.176 -58.9322H481.613M466.176 -43.4954V-28.0585M466.176 -43.4954H481.613M466.176 -28.0585V-12.6216M466.176 -28.0585H481.613M466.176 -12.6216V2.81532M466.176 -12.6216H481.613M466.176 2.81532V18.2522M466.176 2.81532H481.613M466.176 18.2522V33.6891M466.176 18.2522H481.613M466.176 33.6891V49.126M466.176 33.6891H481.613M466.176 49.126V64.5629M466.176 49.126H481.613M466.176 64.5629V79.9998M466.176 64.5629H481.613M466.176 79.9998V95.4367M466.176 79.9998H481.613M466.176 95.4367V110.874M466.176 95.4367H481.613M466.176 110.874V126.31M466.176 110.874H481.613M466.176 126.31V141.747M466.176 126.31H481.613M466.176 141.747V157.184M466.176 141.747H481.613M466.176 157.184V172.621M466.176 157.184H481.613M466.176 172.621V188.058M466.176 172.621H481.613M466.176 188.058V203.495M466.176 188.058H481.613M466.176 203.495V218.932M466.176 203.495H481.613M466.176 218.932V234.369M466.176 218.932H481.613M466.176 234.369H481.613M481.613 -74.3691V-58.9322M481.613 -74.3691H497.05M481.613 -58.9322V-43.4954M481.613 -58.9322H497.05M481.613 -43.4954V-28.0585M481.613 -43.4954H497.05M481.613 -28.0585V-12.6216M481.613 -28.0585H497.05M481.613 -12.6216V2.81532M481.613 -12.6216H497.05M481.613 2.81532V18.2522M481.613 2.81532H497.05M481.613 18.2522V33.6891M481.613 18.2522H497.05M481.613 33.6891V49.126M481.613 33.6891H497.05M481.613 49.126V64.5629M481.613 49.126H497.05M481.613 64.5629V79.9998M481.613 64.5629H497.05M481.613 79.9998V95.4367M481.613 79.9998H497.05M481.613 95.4367V110.874M481.613 95.4367H497.05M481.613 110.874V126.31M481.613 110.874H497.05M481.613 126.31V141.747M481.613 126.31H497.05M481.613 141.747V157.184M481.613 141.747H497.05M481.613 157.184V172.621M481.613 157.184H497.05M481.613 172.621V188.058M481.613 172.621H497.05M481.613 188.058V203.495M481.613 188.058H497.05M481.613 203.495V218.932M481.613 203.495H497.05M481.613 218.932V234.369M481.613 218.932H497.05M481.613 234.369H497.05M497.05 -74.3691V-58.9322M497.05 -74.3691H512.487M497.05 -58.9322V-43.4954M497.05 -58.9322H512.487M497.05 -43.4954V-28.0585M497.05 -43.4954H512.487M497.05 -28.0585V-12.6216M497.05 -28.0585H512.487M497.05 -12.6216V2.81532M497.05 -12.6216H512.487M497.05 2.81532V18.2522M497.05 2.81532H512.487M497.05 18.2522V33.6891M497.05 18.2522H512.487M497.05 33.6891V49.126M497.05 33.6891H512.487M497.05 49.126V64.5629M497.05 49.126H512.487M497.05 64.5629V79.9998M497.05 64.5629H512.487M497.05 79.9998V95.4367M497.05 79.9998H512.487M497.05 95.4367V110.874M497.05 95.4367H512.487M497.05 110.874V126.31M497.05 110.874H512.487M497.05 126.31V141.747M497.05 126.31H512.487M497.05 141.747V157.184M497.05 141.747H512.487M497.05 157.184V172.621M497.05 157.184H512.487M497.05 172.621V188.058M497.05 172.621H512.487M497.05 188.058V203.495M497.05 188.058H512.487M497.05 203.495V218.932M497.05 203.495H512.487M497.05 218.932V234.369M497.05 218.932H512.487M497.05 234.369H512.487M512.487 -74.3691V-58.9322M512.487 -74.3691H527.924M512.487 -58.9322V-43.4954M512.487 -58.9322H527.924M512.487 -43.4954V-28.0585M512.487 -43.4954H527.924M512.487 -28.0585V-12.6216M512.487 -28.0585H527.924M512.487 -12.6216V2.81532M512.487 -12.6216H527.924M512.487 2.81532V18.2522M512.487 2.81532H527.924M512.487 18.2522V33.6891M512.487 18.2522H527.924M512.487 33.6891V49.126M512.487 33.6891H527.924M512.487 49.126V64.5629M512.487 49.126H527.924M512.487 64.5629V79.9998M512.487 64.5629H527.924M512.487 79.9998V95.4367M512.487 79.9998H527.924M512.487 95.4367V110.874M512.487 95.4367H527.924M512.487 110.874V126.31M512.487 110.874H527.924M512.487 126.31V141.747M512.487 126.31H527.924M512.487 141.747V157.184M512.487 141.747H527.924M512.487 157.184V172.621M512.487 157.184H527.924M512.487 172.621V188.058M512.487 172.621H527.924M512.487 188.058V203.495M512.487 188.058H527.924M512.487 203.495V218.932M512.487 203.495H527.924M512.487 218.932V234.369M512.487 218.932H527.924M512.487 234.369H527.924M527.924 -74.3691V-58.9322M527.924 -74.3691H543.361M527.924 -58.9322V-43.4954M527.924 -58.9322H543.361M527.924 -43.4954V-28.0585M527.924 -43.4954H543.361M527.924 -28.0585V-12.6216M527.924 -28.0585H543.361M527.924 -12.6216V2.81532M527.924 -12.6216H543.361M527.924 2.81532V18.2522M527.924 2.81532H543.361M527.924 18.2522V33.6891M527.924 18.2522H543.361M527.924 33.6891V49.126M527.924 33.6891H543.361M527.924 49.126V64.5629M527.924 49.126H543.361M527.924 64.5629V79.9998M527.924 64.5629H543.361M527.924 79.9998V95.4367M527.924 79.9998H543.361M527.924 95.4367V110.874M527.924 95.4367H543.361M527.924 110.874V126.31M527.924 110.874H543.361M527.924 126.31V141.747M527.924 126.31H543.361M527.924 141.747V157.184M527.924 141.747H543.361M527.924 157.184V172.621M527.924 157.184H543.361M527.924 172.621V188.058M527.924 172.621H543.361M527.924 188.058V203.495M527.924 188.058H543.361M527.924 203.495V218.932M527.924 203.495H543.361M527.924 218.932V234.369M527.924 218.932H543.361M527.924 234.369H543.361M543.361 -74.3691V-58.9322M543.361 -74.3691H558.798M543.361 -58.9322V-43.4954M543.361 -58.9322H558.798M543.361 -43.4954V-28.0585M543.361 -43.4954H558.798M543.361 -28.0585V-12.6216M543.361 -28.0585H558.798M543.361 -12.6216V2.81532M543.361 -12.6216H558.798M543.361 2.81532V18.2522M543.361 2.81532H558.798M543.361 18.2522V33.6891M543.361 18.2522H558.798M543.361 33.6891V49.126M543.361 33.6891H558.798M543.361 49.126V64.5629M543.361 49.126H558.798M543.361 64.5629V79.9998M543.361 64.5629H558.798M543.361 79.9998V95.4367M543.361 79.9998H558.798M543.361 95.4367V110.874M543.361 95.4367H558.798M543.361 110.874V126.31M543.361 110.874H558.798M543.361 126.31V141.747M543.361 126.31H558.798M543.361 141.747V157.184M543.361 141.747H558.798M543.361 157.184V172.621M543.361 157.184H558.798M543.361 172.621V188.058M543.361 172.621H558.798M543.361 188.058V203.495M543.361 188.058H558.798M543.361 203.495V218.932M543.361 203.495H558.798M543.361 218.932V234.369M543.361 218.932H558.798M543.361 234.369H558.798M558.798 -74.3691V-58.9322M558.798 -74.3691H574.235M558.798 -58.9322V-43.4954M558.798 -58.9322H574.235M558.798 -43.4954V-28.0585M558.798 -43.4954H574.235M558.798 -28.0585V-12.6216M558.798 -28.0585H574.235M558.798 -12.6216V2.81532M558.798 -12.6216H574.235M558.798 2.81532V18.2522M558.798 2.81532H574.235M558.798 18.2522V33.6891M558.798 18.2522H574.235M558.798 33.6891V49.126M558.798 33.6891H574.235M558.798 49.126V64.5629M558.798 49.126H574.235M558.798 64.5629V79.9998M558.798 64.5629H574.235M558.798 79.9998V95.4367M558.798 79.9998H574.235M558.798 95.4367V110.874M558.798 95.4367H574.235M558.798 110.874V126.31M558.798 110.874H574.235M558.798 126.31V141.747M558.798 126.31H574.235M558.798 141.747V157.184M558.798 141.747H574.235M558.798 157.184V172.621M558.798 157.184H574.235M558.798 172.621V188.058M558.798 172.621H574.235M558.798 188.058V203.495M558.798 188.058H574.235M558.798 203.495V218.932M558.798 203.495H574.235M558.798 218.932V234.369M558.798 218.932H574.235M558.798 234.369H574.235M574.235 -74.3691V-58.9322M574.235 -74.3691H589.672M574.235 -58.9322V-43.4954M574.235 -58.9322H589.672M574.235 -43.4954V-28.0585M574.235 -43.4954H589.672M574.235 -28.0585V-12.6216M574.235 -28.0585H589.672M574.235 -12.6216V2.81532M574.235 -12.6216H589.672M574.235 2.81532V18.2522M574.235 2.81532H589.672M574.235 18.2522V33.6891M574.235 18.2522H589.672M574.235 33.6891V49.126M574.235 33.6891H589.672M574.235 49.126V64.5629M574.235 49.126H589.672M574.235 64.5629V79.9998M574.235 64.5629H589.672M574.235 79.9998V95.4367M574.235 79.9998H589.672M574.235 95.4367V110.874M574.235 95.4367H589.672M574.235 110.874V126.31M574.235 110.874H589.672M574.235 126.31V141.747M574.235 126.31H589.672M574.235 141.747V157.184M574.235 141.747H589.672M574.235 157.184V172.621M574.235 157.184H589.672M574.235 172.621V188.058M574.235 172.621H589.672M574.235 188.058V203.495M574.235 188.058H589.672M574.235 203.495V218.932M574.235 203.495H589.672M574.235 218.932V234.369M574.235 218.932H589.672M574.235 234.369H589.672M589.672 -74.3691V-58.9322M589.672 -74.3691H605.109M589.672 -58.9322V-43.4954M589.672 -58.9322H605.109M589.672 -43.4954V-28.0585M589.672 -43.4954H605.109M589.672 -28.0585V-12.6216M589.672 -28.0585H605.109M589.672 -12.6216V2.81532M589.672 -12.6216H605.109M589.672 2.81532V18.2522M589.672 2.81532H605.109M589.672 18.2522V33.6891M589.672 18.2522H605.109M589.672 33.6891V49.126M589.672 33.6891H605.109M589.672 49.126V64.5629M589.672 49.126H605.109M589.672 64.5629V79.9998M589.672 64.5629H605.109M589.672 79.9998V95.4367M589.672 79.9998H605.109M589.672 95.4367V110.874M589.672 95.4367H605.109M589.672 110.874V126.31M589.672 110.874H605.109M589.672 126.31V141.747M589.672 126.31H605.109M589.672 141.747V157.184M589.672 141.747H605.109M589.672 157.184V172.621M589.672 157.184H605.109M589.672 172.621V188.058M589.672 172.621H605.109M589.672 188.058V203.495M589.672 188.058H605.109M589.672 203.495V218.932M589.672 203.495H605.109M589.672 218.932V234.369M589.672 218.932H605.109M589.672 234.369H605.109M605.109 -74.3691V-58.9322M605.109 -74.3691H620.545M605.109 -58.9322V-43.4954M605.109 -58.9322H620.545M605.109 -43.4954V-28.0585M605.109 -43.4954H620.545M605.109 -28.0585V-12.6216M605.109 -28.0585H620.545M605.109 -12.6216V2.81532M605.109 -12.6216H620.545M605.109 2.81532V18.2522M605.109 2.81532H620.545M605.109 18.2522V33.6891M605.109 18.2522H620.545M605.109 33.6891V49.126M605.109 33.6891H620.545M605.109 49.126V64.5629M605.109 49.126H620.545M605.109 64.5629V79.9998M605.109 64.5629H620.545M605.109 79.9998V95.4367M605.109 79.9998H620.545M605.109 95.4367V110.874M605.109 95.4367H620.545M605.109 110.874V126.31M605.109 110.874H620.545M605.109 126.31V141.747M605.109 126.31H620.545M605.109 141.747V157.184M605.109 141.747H620.545M605.109 157.184V172.621M605.109 157.184H620.545M605.109 172.621V188.058M605.109 172.621H620.545M605.109 188.058V203.495M605.109 188.058H620.545M605.109 203.495V218.932M605.109 203.495H620.545M605.109 218.932V234.369M605.109 218.932H620.545M605.109 234.369H620.545M620.545 -74.3691V-58.9322M620.545 -74.3691H635.982M620.545 -58.9322V-43.4954M620.545 -58.9322H635.982M620.545 -43.4954V-28.0585M620.545 -43.4954H635.982M620.545 -28.0585V-12.6216M620.545 -28.0585H635.982M620.545 -12.6216V2.81532M620.545 -12.6216H635.982M620.545 2.81532V18.2522M620.545 2.81532H635.982M620.545 18.2522V33.6891M620.545 18.2522H635.982M620.545 33.6891V49.126M620.545 33.6891H635.982M620.545 49.126V64.5629M620.545 49.126H635.982M620.545 64.5629V79.9998M620.545 64.5629H635.982M620.545 79.9998V95.4367M620.545 79.9998H635.982M620.545 95.4367V110.874M620.545 95.4367H635.982M620.545 110.874V126.31M620.545 110.874H635.982M620.545 126.31V141.747M620.545 126.31H635.982M620.545 141.747V157.184M620.545 141.747H635.982M620.545 157.184V172.621M620.545 157.184H635.982M620.545 172.621V188.058M620.545 172.621H635.982M620.545 188.058V203.495M620.545 188.058H635.982M620.545 203.495V218.932M620.545 203.495H635.982M620.545 218.932V234.369M620.545 218.932H635.982M620.545 234.369H635.982M635.982 -74.3691V-58.9322M635.982 -74.3691H651.419M635.982 -58.9322V-43.4954M635.982 -58.9322H651.419M635.982 -43.4954V-28.0585M635.982 -43.4954H651.419M635.982 -28.0585V-12.6216M635.982 -28.0585H651.419M635.982 -12.6216V2.81532M635.982 -12.6216H651.419M635.982 2.81532V18.2522M635.982 2.81532H651.419M635.982 18.2522V33.6891M635.982 18.2522H651.419M635.982 33.6891V49.126M635.982 33.6891H651.419M635.982 49.126V64.5629M635.982 49.126H651.419M635.982 64.5629V79.9998M635.982 64.5629H651.419M635.982 79.9998V95.4367M635.982 79.9998H651.419M635.982 95.4367V110.874M635.982 95.4367H651.419M635.982 110.874V126.31M635.982 110.874H651.419M635.982 126.31V141.747M635.982 126.31H651.419M635.982 141.747V157.184M635.982 141.747H651.419M635.982 157.184V172.621M635.982 157.184H651.419M635.982 172.621V188.058M635.982 172.621H651.419M635.982 188.058V203.495M635.982 188.058H651.419M635.982 203.495V218.932M635.982 203.495H651.419M635.982 218.932V234.369M635.982 218.932H651.419M635.982 234.369H651.419M651.419 -74.3691V-58.9322M651.419 -74.3691H666.856V-58.9322M651.419 -58.9322V-43.4954M651.419 -58.9322H666.856M651.419 -43.4954V-28.0585M651.419 -43.4954H666.856M651.419 -28.0585V-12.6216M651.419 -28.0585H666.856M651.419 -12.6216V2.81532M651.419 -12.6216H666.856M651.419 2.81532V18.2522M651.419 2.81532H666.856M651.419 18.2522V33.6891M651.419 18.2522H666.856M651.419 33.6891V49.126M651.419 33.6891H666.856M651.419 49.126V64.5629M651.419 49.126H666.856M651.419 64.5629V79.9998M651.419 64.5629H666.856M651.419 79.9998V95.4367M651.419 79.9998H666.856M651.419 95.4367V110.874M651.419 95.4367H666.856M651.419 110.874V126.31M651.419 110.874H666.856M651.419 126.31V141.747M651.419 126.31H666.856M651.419 141.747V157.184M651.419 141.747H666.856M651.419 157.184V172.621M651.419 157.184H666.856M651.419 172.621V188.058M651.419 172.621H666.856M651.419 188.058V203.495M651.419 188.058H666.856M651.419 203.495V218.932M651.419 203.495H666.856M651.419 218.932V234.369M651.419 218.932H666.856M651.419 234.369H666.856V218.932M666.856 -58.9322V-43.4954M666.856 -43.4954V-28.0585M666.856 -28.0585V-12.6216M666.856 -12.6216V2.81532M666.856 2.81532V18.2522M666.856 18.2522V33.6891M666.856 33.6891V49.126M666.856 49.126V64.5629M666.856 64.5629V79.9998M666.856 79.9998V95.4367M666.856 95.4367V110.874M666.856 110.874V126.31M666.856 126.31V141.747M666.856 141.747V157.184M666.856 157.184V172.621M666.856 172.621V188.058M666.856 188.058V203.495M666.856 203.495V218.932" stroke="url(#paint0_radial_2536_25669)" stroke-opacity="0.5" stroke-width="0.192961"/>
</g>
<g style="mix-blend-mode:soft-light" opacity="0.8">
<path d="M49.3786 -17.2525V-12.6214M49.3786 -12.6214V-7.99033M49.3786 -12.6214H44.7476M49.3786 -12.6214H54.0097M49.3786 106.243V110.874M49.3786 110.874V115.505M49.3786 110.874H44.7476M49.3786 110.874H54.0097M49.3786 229.738V234.369M49.3786 234.369V239M49.3786 234.369H44.7476M49.3786 234.369H54.0097M172.874 106.243V110.874M172.874 110.874V115.505M172.874 110.874H168.243M172.874 110.874H177.505M172.874 229.738V234.369M172.874 234.369V239M172.874 234.369H168.243M172.874 234.369H177.505M296.369 106.243V110.874M296.369 110.874V115.505M296.369 110.874H291.738M296.369 110.874H301M296.369 229.738V234.369M296.369 234.369V239M296.369 234.369H291.738M296.369 234.369H301M419.864 -17.2525V-12.6214M419.864 -12.6214V-7.99033M419.864 -12.6214H415.233M419.864 -12.6214H424.495M419.864 106.243V110.874M419.864 110.874V115.505M419.864 110.874H415.233M419.864 110.874H424.495M419.864 229.738V234.369M419.864 234.369V239M419.864 234.369H415.233M419.864 234.369H424.495M543.359 -17.2525V-12.6214M543.359 -12.6214V-7.99033M543.359 -12.6214H538.728M543.359 -12.6214H547.99M543.359 106.243V110.874M543.359 110.874V115.505M543.359 110.874H538.728M543.359 110.874H547.99M543.359 229.738V234.369M543.359 234.369V239M543.359 234.369H538.728M543.359 234.369H547.99M666.854 -17.2525V-12.6214M666.854 -12.6214V-7.99033M666.854 -12.6214H662.223M666.854 -12.6214H671.485M666.854 106.243V110.874M666.854 110.874V115.505M666.854 110.874H662.223M666.854 110.874H671.485M666.854 229.738V234.369M666.854 234.369V239M666.854 234.369H662.223M666.854 234.369H671.485M49.3786 -79V-74.3689M49.3786 -74.3689V-69.7379M49.3786 -74.3689H44.7476M49.3786 -74.3689H54.0097M49.3786 44.4952V49.1262M49.3786 49.1262V53.7573M49.3786 49.1262H44.7476M49.3786 49.1262H54.0097M49.3786 167.99V172.621M49.3786 172.621V177.252M49.3786 172.621H44.7476M49.3786 172.621H54.0097M172.874 -79V-74.3689M172.874 -74.3689V-69.7379M172.874 -74.3689H168.243M172.874 -74.3689H177.505M172.874 167.99V172.621M172.874 172.621V177.252M172.874 172.621H168.243M172.874 172.621H177.505M296.369 167.99V172.621M296.369 172.621V177.252M296.369 172.621H291.738M296.369 172.621H301M419.864 -79V-74.3689M419.864 -74.3689V-69.7379M419.864 -74.3689H415.233M419.864 -74.3689H424.495M419.864 44.4952V49.1262M419.864 49.1262V53.7573M419.864 49.1262H415.233M419.864 49.1262H424.495M419.864 167.99V172.621M419.864 172.621V177.252M419.864 172.621H415.233M419.864 172.621H424.495M543.359 -79V-74.3689M543.359 -74.3689V-69.7379M543.359 -74.3689H538.728M543.359 -74.3689H547.99M543.359 44.4952V49.1262M543.359 49.1262V53.7573M543.359 49.1262H538.728M543.359 49.1262H547.99M543.359 167.99V172.621M543.359 172.621V177.252M543.359 172.621H538.728M543.359 172.621H547.99M666.854 -79V-74.3689M666.854 -74.3689V-69.7379M666.854 -74.3689H662.223M666.854 -74.3689H671.485M666.854 44.4952V49.1262M666.854 49.1262V53.7573M666.854 49.1262H662.223M666.854 49.1262H671.485M666.854 167.99V172.621M666.854 172.621V177.252M666.854 172.621H662.223M666.854 172.621H671.485M-12.3689 -17.2525V-12.6214M-12.3689 -12.6214V-7.99033M-12.3689 -12.6214H-17M-12.3689 -12.6214H-7.73786M-12.3689 106.243V110.874M-12.3689 110.874V115.505M-12.3689 110.874H-17M-12.3689 110.874H-7.73786M-12.3689 229.738V234.369M-12.3689 234.369V239M-12.3689 234.369H-17M-12.3689 234.369H-7.73786M111.126 106.243V110.874M111.126 110.874V115.505M111.126 110.874H106.495M111.126 110.874H115.757M111.126 229.738V234.369M111.126 234.369V239M111.126 234.369H106.495M111.126 234.369H115.757M234.621 106.243V110.874M234.621 110.874V115.505M234.621 110.874H229.99M234.621 110.874H239.252M234.621 229.738V234.369M234.621 234.369V239M234.621 234.369H229.99M234.621 234.369H239.252M358.117 106.243V110.874M358.117 110.874V115.505M358.117 110.874H353.485M358.117 110.874H362.748M358.117 229.738V234.369M358.117 234.369V239M358.117 234.369H353.485M358.117 234.369H362.748M481.612 -17.2525V-12.6214M481.612 -12.6214V-7.99033M481.612 -12.6214H476.981M481.612 -12.6214H486.243M481.612 106.243V110.874M481.612 110.874V115.505M481.612 110.874H476.981M481.612 110.874H486.243M481.612 229.738V234.369M481.612 234.369V239M481.612 234.369H476.981M481.612 234.369H486.243M605.107 -17.2525V-12.6214M605.107 -12.6214V-7.99033M605.107 -12.6214H600.476M605.107 -12.6214H609.738M605.107 106.243V110.874M605.107 110.874V115.505M605.107 110.874H600.476M605.107 110.874H609.738M605.107 229.738V234.369M605.107 234.369V239M605.107 234.369H600.476M605.107 234.369H609.738M-12.3689 -79V-74.3689M-12.3689 -74.3689V-69.7378M-12.3689 -74.3689H-17M-12.3689 -74.3689H-7.73786M-12.3689 44.4952V49.1262M-12.3689 49.1262V53.7573M-12.3689 49.1262H-17M-12.3689 49.1262H-7.73786M-12.3689 167.99V172.621M-12.3689 172.621V177.252M-12.3689 172.621H-17M-12.3689 172.621H-7.73786M111.126 -79V-74.3689M111.126 -74.3689V-69.7379M111.126 -74.3689H106.495M111.126 -74.3689H115.757M111.126 167.99V172.621M111.126 172.621V177.252M111.126 172.621H106.495M111.126 172.621H115.757M234.621 -79V-74.3689M234.621 -74.3689V-69.7379M234.621 -74.3689H229.99M234.621 -74.3689H239.252M234.621 167.99V172.621M234.621 172.621V177.252M234.621 172.621H229.99M234.621 172.621H239.252M141.869 -17.2525V-12.6214M141.869 -12.6214V-7.99035M141.869 -12.6214H137.238M141.869 -12.6214H146.5M358.117 167.99V172.621M358.117 172.621V177.252M358.117 172.621H353.485M358.117 172.621H362.748M481.612 -79V-74.3689M481.612 -74.3689V-69.7379M481.612 -74.3689H476.981M481.612 -74.3689H486.243M481.612 44.4952V49.1262M481.612 49.1262V53.7573M481.612 49.1262H476.981M481.612 49.1262H486.243M481.612 167.99V172.621M481.612 172.621V177.252M481.612 172.621H476.981M481.612 172.621H486.243M605.107 -79V-74.3689M605.107 -74.3689V-69.7379M605.107 -74.3689H600.476M605.107 -74.3689H609.738M605.107 44.4952V49.1262M605.107 49.1262V53.7573M605.107 49.1262H600.476M605.107 49.1262H609.738M605.107 167.99V172.621M605.107 172.621V177.252M605.107 172.621H600.476M605.107 172.621H609.738M296.329 44.7376V49.3687M296.329 49.3687V53.9998M296.329 49.3687H291.698M296.329 49.3687H300.961M358.117 44.7376V49.3687M358.117 49.3687V53.9998M358.117 49.3687H353.485M358.117 49.3687H362.748" stroke="url(#paint1_radial_2536_25669)" stroke-opacity="0.5" stroke-width="0.385922"/>
</g>
</g>
</g>
<defs>
<radialGradient id="paint0_radial_2536_25669" cx="0" cy="0" r="1" gradientUnits="userSpaceOnUse" gradientTransform="translate(327.244 79.9998) rotate(90) scale(154.369 339.612)">
<stop stop-color="#F2F2F2"/>
<stop offset="0.549431" stop-color="#F2F2F2" stop-opacity="0"/>
</radialGradient>
<radialGradient id="paint1_radial_2536_25669" cx="0" cy="0" r="1" gradientUnits="userSpaceOnUse" gradientTransform="translate(327.243 80) rotate(90) scale(159 344.243)">
<stop stop-color="#F2F2F2"/>
<stop offset="0.657647" stop-color="#F2F2F2" stop-opacity="0"/>
</radialGradient>
<clipPath id="clip0_2536_25669">
<path d="M0 0H390V64H0V0Z" fill="white"/>
</clipPath>
<clipPath id="clip1_2536_25669">
<rect width="390" height="64" fill="white"/>
</clipPath>
</defs>
</svg>
