<svg width="278" height="64" viewBox="0 0 278 64" fill="none" xmlns="http://www.w3.org/2000/svg">
<g clip-path="url(#clip0_1629_34026)">
<g style="" opacity="0.7">
<path d="M-108.93 -74.3691H-124.367V-58.9322M-108.93 -74.3691V-58.9322M-108.93 -74.3691H-93.4934M-108.93 -58.9322H-124.367M-108.93 -58.9322V-43.4954M-108.93 -58.9322H-93.4934M-124.367 -58.9322V-43.4954M-108.93 -43.4954H-124.367M-108.93 -43.4954V-28.0585M-108.93 -43.4954H-93.4934M-124.367 -43.4954V-28.0585M-108.93 -28.0585H-124.367M-108.93 -28.0585V-12.6216M-108.93 -28.0585H-93.4934M-124.367 -28.0585V-12.6216M-108.93 -12.6216H-124.367M-108.93 -12.6216V2.81532M-108.93 -12.6216H-93.4934M-124.367 -12.6216V2.81532M-108.93 2.81532H-124.367M-108.93 2.81532V18.2522M-108.93 2.81532H-93.4934M-124.367 2.81532V18.2522M-108.93 18.2522H-124.367M-108.93 18.2522V33.6891M-108.93 18.2522H-93.4934M-124.367 18.2522V33.6891M-108.93 33.6891H-124.367M-108.93 33.6891V49.126M-108.93 33.6891H-93.4934M-124.367 33.6891V49.126M-108.93 49.126H-124.367M-108.93 49.126V64.5629M-108.93 49.126H-93.4934M-124.367 49.126V64.5629M-108.93 64.5629H-124.367M-108.93 64.5629V79.9998M-108.93 64.5629H-93.4934M-124.367 64.5629V79.9998M-108.93 79.9998H-124.367M-108.93 79.9998V95.4367M-108.93 79.9998H-93.4934M-124.367 79.9998V95.4367M-108.93 95.4367H-124.367M-108.93 95.4367V110.874M-108.93 95.4367H-93.4934M-124.367 95.4367V110.874M-108.93 110.874H-124.367M-108.93 110.874V126.31M-108.93 110.874H-93.4934M-124.367 110.874V126.31M-108.93 126.31H-124.367M-108.93 126.31V141.747M-108.93 126.31H-93.4934M-124.367 126.31V141.747M-108.93 141.747H-124.367M-108.93 141.747V157.184M-108.93 141.747H-93.4934M-124.367 141.747V157.184M-108.93 157.184H-124.367M-108.93 157.184V172.621M-108.93 157.184H-93.4934M-124.367 157.184V172.621M-108.93 172.621H-124.367M-108.93 172.621V188.058M-108.93 172.621H-93.4934M-124.367 172.621V188.058M-108.93 188.058H-124.367M-108.93 188.058V203.495M-108.93 188.058H-93.4934M-124.367 188.058V203.495M-108.93 203.495H-124.367M-108.93 203.495V218.932M-108.93 203.495H-93.4934M-124.367 203.495V218.932M-108.93 218.932H-124.367M-108.93 218.932V234.369M-108.93 218.932H-93.4934M-124.367 218.932V234.369H-108.93M-108.93 234.369H-93.4934M-93.4934 -74.3691V-58.9322M-93.4934 -74.3691H-78.0565M-93.4934 -58.9322V-43.4954M-93.4934 -58.9322H-78.0565M-93.4934 -43.4954V-28.0585M-93.4934 -43.4954H-78.0565M-93.4934 -28.0585V-12.6216M-93.4934 -28.0585H-78.0565M-93.4934 -12.6216V2.81532M-93.4934 -12.6216H-78.0565M-93.4934 2.81532V18.2522M-93.4934 2.81532H-78.0565M-93.4934 18.2522V33.6891M-93.4934 18.2522H-78.0565M-93.4934 33.6891V49.126M-93.4934 33.6891H-78.0565M-93.4934 49.126V64.5629M-93.4934 49.126H-78.0565M-93.4934 64.5629V79.9998M-93.4934 64.5629H-78.0565M-93.4934 79.9998V95.4367M-93.4934 79.9998H-78.0565M-93.4934 95.4367V110.874M-93.4934 95.4367H-78.0565M-93.4934 110.874V126.31M-93.4934 110.874H-78.0565M-93.4934 126.31V141.747M-93.4934 126.31H-78.0565M-93.4934 141.747V157.184M-93.4934 141.747H-78.0565M-93.4934 157.184V172.621M-93.4934 157.184H-78.0565M-93.4934 172.621V188.058M-93.4934 172.621H-78.0565M-93.4934 188.058V203.495M-93.4934 188.058H-78.0565M-93.4934 203.495V218.932M-93.4934 203.495H-78.0565M-93.4934 218.932V234.369M-93.4934 218.932H-78.0565M-93.4934 234.369H-78.0565M-78.0565 -74.3691V-58.9322M-78.0565 -74.3691H-62.6196M-78.0565 -58.9322V-43.4954M-78.0565 -58.9322H-62.6196M-78.0565 -43.4954V-28.0585M-78.0565 -43.4954H-62.6196M-78.0565 -28.0585V-12.6216M-78.0565 -28.0585H-62.6196M-78.0565 -12.6216V2.81532M-78.0565 -12.6216H-62.6196M-78.0565 2.81532V18.2522M-78.0565 2.81532H-62.6196M-78.0565 18.2522V33.6891M-78.0565 18.2522H-62.6196M-78.0565 33.6891V49.126M-78.0565 33.6891H-62.6196M-78.0565 49.126V64.5629M-78.0565 49.126H-62.6196M-78.0565 64.5629V79.9998M-78.0565 64.5629H-62.6196M-78.0565 79.9998V95.4367M-78.0565 79.9998H-62.6196M-78.0565 95.4367V110.874M-78.0565 95.4367H-62.6196M-78.0565 110.874V126.31M-78.0565 110.874H-62.6196M-78.0565 126.31V141.747M-78.0565 126.31H-62.6196M-78.0565 141.747V157.184M-78.0565 141.747H-62.6196M-78.0565 157.184V172.621M-78.0565 157.184H-62.6196M-78.0565 172.621V188.058M-78.0565 172.621H-62.6196M-78.0565 188.058V203.495M-78.0565 188.058H-62.6196M-78.0565 203.495V218.932M-78.0565 203.495H-62.6196M-78.0565 218.932V234.369M-78.0565 218.932H-62.6196M-78.0565 234.369H-62.6196M-62.6196 -74.3691V-58.9322M-62.6196 -74.3691H-47.1827M-62.6196 -58.9322V-43.4954M-62.6196 -58.9322H-47.1827M-62.6196 -43.4954V-28.0585M-62.6196 -43.4954H-47.1827M-62.6196 -28.0585V-12.6216M-62.6196 -28.0585H-47.1827M-62.6196 -12.6216V2.81532M-62.6196 -12.6216H-47.1827M-62.6196 2.81532V18.2522M-62.6196 2.81532H-47.1827M-62.6196 18.2522V33.6891M-62.6196 18.2522H-47.1827M-62.6196 33.6891V49.126M-62.6196 33.6891H-47.1827M-62.6196 49.126V64.5629M-62.6196 49.126H-47.1827M-62.6196 64.5629V79.9998M-62.6196 64.5629H-47.1827M-62.6196 79.9998V95.4367M-62.6196 79.9998H-47.1827M-62.6196 95.4367V110.874M-62.6196 95.4367H-47.1827M-62.6196 110.874V126.31M-62.6196 110.874H-47.1827M-62.6196 126.31V141.747M-62.6196 126.31H-47.1827M-62.6196 141.747V157.184M-62.6196 141.747H-47.1827M-62.6196 157.184V172.621M-62.6196 157.184H-47.1827M-62.6196 172.621V188.058M-62.6196 172.621H-47.1827M-62.6196 188.058V203.495M-62.6196 188.058H-47.1827M-62.6196 203.495V218.932M-62.6196 203.495H-47.1827M-62.6196 218.932V234.369M-62.6196 218.932H-47.1827M-62.6196 234.369H-47.1827M-47.1827 -74.3691V-58.9322M-47.1827 -74.3691H-31.7458M-47.1827 -58.9322V-43.4954M-47.1827 -58.9322H-31.7458M-47.1827 -43.4954V-28.0585M-47.1827 -43.4954H-31.7458M-47.1827 -28.0585V-12.6216M-47.1827 -28.0585H-31.7458M-47.1827 -12.6216V2.81532M-47.1827 -12.6216H-31.7458M-47.1827 2.81532V18.2522M-47.1827 2.81532H-31.7458M-47.1827 18.2522V33.6891M-47.1827 18.2522H-31.7458M-47.1827 33.6891V49.126M-47.1827 33.6891H-31.7458M-47.1827 49.126V64.5629M-47.1827 49.126H-31.7458M-47.1827 64.5629V79.9998M-47.1827 64.5629H-31.7458M-47.1827 79.9998V95.4367M-47.1827 79.9998H-31.7458M-47.1827 95.4367V110.874M-47.1827 95.4367H-31.7458M-47.1827 110.874V126.31M-47.1827 110.874H-31.7458M-47.1827 126.31V141.747M-47.1827 126.31H-31.7458M-47.1827 141.747V157.184M-47.1827 141.747H-31.7458M-47.1827 157.184V172.621M-47.1827 157.184H-31.7458M-47.1827 172.621V188.058M-47.1827 172.621H-31.7458M-47.1827 188.058V203.495M-47.1827 188.058H-31.7458M-47.1827 203.495V218.932M-47.1827 203.495H-31.7458M-47.1827 218.932V234.369M-47.1827 218.932H-31.7458M-47.1827 234.369H-31.7458M-31.7458 -74.3691V-58.9322M-31.7458 -74.3691H-16.3089M-31.7458 -58.9322V-43.4954M-31.7458 -58.9322H-16.3089M-31.7458 -43.4954V-28.0585M-31.7458 -43.4954H-16.3089M-31.7458 -28.0585V-12.6216M-31.7458 -28.0585H-16.3089M-31.7458 -12.6216V2.81532M-31.7458 -12.6216H-16.3089M-31.7458 2.81532V18.2522M-31.7458 2.81532H-16.3089M-31.7458 18.2522V33.6891M-31.7458 18.2522H-16.3089M-31.7458 33.6891V49.126M-31.7458 33.6891H-16.3089M-31.7458 49.126V64.5629M-31.7458 49.126H-16.3089M-31.7458 64.5629V79.9998M-31.7458 64.5629H-16.3089M-31.7458 79.9998V95.4367M-31.7458 79.9998H-16.3089M-31.7458 95.4367V110.874M-31.7458 95.4367H-16.3089M-31.7458 110.874V126.31M-31.7458 110.874H-16.3089M-31.7458 126.31V141.747M-31.7458 126.31H-16.3089M-31.7458 141.747V157.184M-31.7458 141.747H-16.3089M-31.7458 157.184V172.621M-31.7458 157.184H-16.3089M-31.7458 172.621V188.058M-31.7458 172.621H-16.3089M-31.7458 188.058V203.495M-31.7458 188.058H-16.3089M-31.7458 203.495V218.932M-31.7458 203.495H-16.3089M-31.7458 218.932V234.369M-31.7458 218.932H-16.3089M-31.7458 234.369H-16.3089M-16.3089 -74.3691V-58.9322M-16.3089 -74.3691H-0.872047M-16.3089 -58.9322V-43.4954M-16.3089 -58.9322H-0.872047M-16.3089 -43.4954V-28.0585M-16.3089 -43.4954H-0.872047M-16.3089 -28.0585V-12.6216M-16.3089 -28.0585H-0.872047M-16.3089 -12.6216V2.81532M-16.3089 -12.6216H-0.872047M-16.3089 2.81532V18.2522M-16.3089 2.81532H-0.872047M-16.3089 18.2522V33.6891M-16.3089 18.2522H-0.872047M-16.3089 33.6891V49.126M-16.3089 33.6891H-0.872047M-16.3089 49.126V64.5629M-16.3089 49.126H-0.872047M-16.3089 64.5629V79.9998M-16.3089 64.5629H-0.872047M-16.3089 79.9998V95.4367M-16.3089 79.9998H-0.872047M-16.3089 95.4367V110.874M-16.3089 95.4367H-0.872047M-16.3089 110.874V126.31M-16.3089 110.874H-0.872047M-16.3089 126.31V141.747M-16.3089 126.31H-0.872047M-16.3089 141.747V157.184M-16.3089 141.747H-0.872047M-16.3089 157.184V172.621M-16.3089 157.184H-0.872047M-16.3089 172.621V188.058M-16.3089 172.621H-0.872047M-16.3089 188.058V203.495M-16.3089 188.058H-0.872047M-16.3089 203.495V218.932M-16.3089 203.495H-0.872047M-16.3089 218.932V234.369M-16.3089 218.932H-0.872047M-16.3089 234.369H-0.872047M-0.872047 -74.3691V-58.9322M-0.872047 -74.3691H14.5648M-0.872047 -58.9322V-43.4954M-0.872047 -58.9322H14.5648M-0.872047 -43.4954V-28.0585M-0.872047 -43.4954H14.5648M-0.872047 -28.0585V-12.6216M-0.872047 -28.0585H14.5648M-0.872047 -12.6216V2.81532M-0.872047 -12.6216H14.5648M-0.872047 2.81532V18.2522M-0.872047 2.81532H14.5648M-0.872047 18.2522V33.6891M-0.872047 18.2522H14.5648M-0.872047 33.6891V49.126M-0.872047 33.6891H14.5648M-0.872047 49.126V64.5629M-0.872047 49.126H14.5648M-0.872047 64.5629V79.9998M-0.872047 64.5629H14.5648M-0.872047 79.9998V95.4367M-0.872047 79.9998H14.5648M-0.872047 95.4367V110.874M-0.872047 95.4367H14.5648M-0.872047 110.874V126.31M-0.872047 110.874H14.5648M-0.872047 126.31V141.747M-0.872047 126.31H14.5648M-0.872047 141.747V157.184M-0.872047 141.747H14.5648M-0.872047 157.184V172.621M-0.872047 157.184H14.5648M-0.872047 172.621V188.058M-0.872047 172.621H14.5648M-0.872047 188.058V203.495M-0.872047 188.058H14.5648M-0.872047 203.495V218.932M-0.872047 203.495H14.5648M-0.872047 218.932V234.369M-0.872047 218.932H14.5648M-0.872047 234.369H14.5648M14.5648 -74.3691V-58.9322M14.5648 -74.3691H30.0017M14.5648 -58.9322V-43.4954M14.5648 -58.9322H30.0017M14.5648 -43.4954V-28.0585M14.5648 -43.4954H30.0017M14.5648 -28.0585V-12.6216M14.5648 -28.0585H30.0017M14.5648 -12.6216V2.81532M14.5648 -12.6216H30.0017M14.5648 2.81532V18.2522M14.5648 2.81532H30.0017M14.5648 18.2522V33.6891M14.5648 18.2522H30.0017M14.5648 33.6891V49.126M14.5648 33.6891H30.0017M14.5648 49.126V64.5629M14.5648 49.126H30.0017M14.5648 64.5629V79.9998M14.5648 64.5629H30.0017M14.5648 79.9998V95.4367M14.5648 79.9998H30.0017M14.5648 95.4367V110.874M14.5648 95.4367H30.0017M14.5648 110.874V126.31M14.5648 110.874H30.0017M14.5648 126.31V141.747M14.5648 126.31H30.0017M14.5648 141.747V157.184M14.5648 141.747H30.0017M14.5648 157.184V172.621M14.5648 157.184H30.0017M14.5648 172.621V188.058M14.5648 172.621H30.0017M14.5648 188.058V203.495M14.5648 188.058H30.0017M14.5648 203.495V218.932M14.5648 203.495H30.0017M14.5648 218.932V234.369M14.5648 218.932H30.0017M14.5648 234.369H30.0017M30.0017 -74.3691V-58.9322M30.0017 -74.3691H45.4386M30.0017 -58.9322V-43.4954M30.0017 -58.9322H45.4386M30.0017 -43.4954V-28.0585M30.0017 -43.4954H45.4386M30.0017 -28.0585V-12.6216M30.0017 -28.0585H45.4386M30.0017 -12.6216V2.81532M30.0017 -12.6216H45.4386M30.0017 2.81532V18.2522M30.0017 2.81532H45.4386M30.0017 18.2522V33.6891M30.0017 18.2522H45.4386M30.0017 33.6891V49.126M30.0017 33.6891H45.4386M30.0017 49.126V64.5629M30.0017 49.126H45.4386M30.0017 64.5629V79.9998M30.0017 64.5629H45.4386M30.0017 79.9998V95.4367M30.0017 79.9998H45.4386M30.0017 95.4367V110.874M30.0017 95.4367H45.4386M30.0017 110.874V126.31M30.0017 110.874H45.4386M30.0017 126.31V141.747M30.0017 126.31H45.4386M30.0017 141.747V157.184M30.0017 141.747H45.4386M30.0017 157.184V172.621M30.0017 157.184H45.4386M30.0017 172.621V188.058M30.0017 172.621H45.4386M30.0017 188.058V203.495M30.0017 188.058H45.4386M30.0017 203.495V218.932M30.0017 203.495H45.4386M30.0017 218.932V234.369M30.0017 218.932H45.4386M30.0017 234.369H45.4386M45.4386 -74.3691V-58.9322M45.4386 -74.3691H60.8755M45.4386 -58.9322V-43.4954M45.4386 -58.9322H60.8755M45.4386 -43.4954V-28.0585M45.4386 -43.4954H60.8755M45.4386 -28.0585V-12.6216M45.4386 -28.0585H60.8755M45.4386 -12.6216V2.81532M45.4386 -12.6216H60.8755M45.4386 2.81532V18.2522M45.4386 2.81532H60.8755M45.4386 18.2522V33.6891M45.4386 18.2522H60.8755M45.4386 33.6891V49.126M45.4386 33.6891H60.8755M45.4386 49.126V64.5629M45.4386 49.126H60.8755M45.4386 64.5629V79.9998M45.4386 64.5629H60.8755M45.4386 79.9998V95.4367M45.4386 79.9998H60.8755M45.4386 95.4367V110.874M45.4386 95.4367H60.8755M45.4386 110.874V126.31M45.4386 110.874H60.8755M45.4386 126.31V141.747M45.4386 126.31H60.8755M45.4386 141.747V157.184M45.4386 141.747H60.8755M45.4386 157.184V172.621M45.4386 157.184H60.8755M45.4386 172.621V188.058M45.4386 172.621H60.8755M45.4386 188.058V203.495M45.4386 188.058H60.8755M45.4386 203.495V218.932M45.4386 203.495H60.8755M45.4386 218.932V234.369M45.4386 218.932H60.8755M45.4386 234.369H60.8755M60.8755 -74.3691V-58.9322M60.8755 -74.3691H76.3124M60.8755 -58.9322V-43.4954M60.8755 -58.9322H76.3124M60.8755 -43.4954V-28.0585M60.8755 -43.4954H76.3124M60.8755 -28.0585V-12.6216M60.8755 -28.0585H76.3124M60.8755 -12.6216V2.81532M60.8755 -12.6216H76.3124M60.8755 2.81532V18.2522M60.8755 2.81532H76.3124M60.8755 18.2522V33.6891M60.8755 18.2522H76.3124M60.8755 33.6891V49.126M60.8755 33.6891H76.3124M60.8755 49.126V64.5629M60.8755 49.126H76.3124M60.8755 64.5629V79.9998M60.8755 64.5629H76.3124M60.8755 79.9998V95.4367M60.8755 79.9998H76.3124M60.8755 95.4367V110.874M60.8755 95.4367H76.3124M60.8755 110.874V126.31M60.8755 110.874H76.3124M60.8755 126.31V141.747M60.8755 126.31H76.3124M60.8755 141.747V157.184M60.8755 141.747H76.3124M60.8755 157.184V172.621M60.8755 157.184H76.3124M60.8755 172.621V188.058M60.8755 172.621H76.3124M60.8755 188.058V203.495M60.8755 188.058H76.3124M60.8755 203.495V218.932M60.8755 203.495H76.3124M60.8755 218.932V234.369M60.8755 218.932H76.3124M60.8755 234.369H76.3124M76.3124 -74.3691V-58.9322M76.3124 -74.3691H91.7493M76.3124 -58.9322V-43.4954M76.3124 -58.9322H91.7493M76.3124 -43.4954V-28.0585M76.3124 -43.4954H91.7493M76.3124 -28.0585V-12.6216M76.3124 -28.0585H91.7493M76.3124 -12.6216V2.81532M76.3124 -12.6216H91.7493M76.3124 2.81532V18.2522M76.3124 2.81532H91.7493M76.3124 18.2522V33.6891M76.3124 18.2522H91.7493M76.3124 33.6891V49.126M76.3124 33.6891H91.7493M76.3124 49.126V64.5629M76.3124 49.126H91.7493M76.3124 64.5629V79.9998M76.3124 64.5629H91.7493M76.3124 79.9998V95.4367M76.3124 79.9998H91.7493M76.3124 95.4367V110.874M76.3124 95.4367H91.7493M76.3124 110.874V126.31M76.3124 110.874H91.7493M76.3124 126.31V141.747M76.3124 126.31H91.7493M76.3124 141.747V157.184M76.3124 141.747H91.7493M76.3124 157.184V172.621M76.3124 157.184H91.7493M76.3124 172.621V188.058M76.3124 172.621H91.7493M76.3124 188.058V203.495M76.3124 188.058H91.7493M76.3124 203.495V218.932M76.3124 203.495H91.7493M76.3124 218.932V234.369M76.3124 218.932H91.7493M76.3124 234.369H91.7493M91.7493 -74.3691V-58.9322M91.7493 -74.3691H107.186M91.7493 -58.9322V-43.4954M91.7493 -58.9322H107.186M91.7493 -43.4954V-28.0585M91.7493 -43.4954H107.186M91.7493 -28.0585V-12.6216M91.7493 -28.0585H107.186M91.7493 -12.6216V2.81532M91.7493 -12.6216H107.186M91.7493 2.81532V18.2522M91.7493 2.81532H107.186M91.7493 18.2522V33.6891M91.7493 18.2522H107.186M91.7493 33.6891V49.126M91.7493 33.6891H107.186M91.7493 49.126V64.5629M91.7493 49.126H107.186M91.7493 64.5629V79.9998M91.7493 64.5629H107.186M91.7493 79.9998V95.4367M91.7493 79.9998H107.186M91.7493 95.4367V110.874M91.7493 95.4367H107.186M91.7493 110.874V126.31M91.7493 110.874H107.186M91.7493 126.31V141.747M91.7493 126.31H107.186M91.7493 141.747V157.184M91.7493 141.747H107.186M91.7493 157.184V172.621M91.7493 157.184H107.186M91.7493 172.621V188.058M91.7493 172.621H107.186M91.7493 188.058V203.495M91.7493 188.058H107.186M91.7493 203.495V218.932M91.7493 203.495H107.186M91.7493 218.932V234.369M91.7493 218.932H107.186M91.7493 234.369H107.186M107.186 -74.3691V-58.9322M107.186 -74.3691H122.623M107.186 -58.9322V-43.4954M107.186 -58.9322H122.623M107.186 -43.4954V-28.0585M107.186 -43.4954H122.623M107.186 -28.0585V-12.6216M107.186 -28.0585H122.623M107.186 -12.6216V2.81532M107.186 -12.6216H122.623M107.186 2.81532V18.2522M107.186 2.81532H122.623M107.186 18.2522V33.6891M107.186 18.2522H122.623M107.186 33.6891V49.126M107.186 33.6891H122.623M107.186 49.126V64.5629M107.186 49.126H122.623M107.186 64.5629V79.9998M107.186 64.5629H122.623M107.186 79.9998V95.4367M107.186 79.9998H122.623M107.186 95.4367V110.874M107.186 95.4367H122.623M107.186 110.874V126.31M107.186 110.874H122.623M107.186 126.31V141.747M107.186 126.31H122.623M107.186 141.747V157.184M107.186 141.747H122.623M107.186 157.184V172.621M107.186 157.184H122.623M107.186 172.621V188.058M107.186 172.621H122.623M107.186 188.058V203.495M107.186 188.058H122.623M107.186 203.495V218.932M107.186 203.495H122.623M107.186 218.932V234.369M107.186 218.932H122.623M107.186 234.369H122.623M122.623 -74.3691V-58.9322M122.623 -74.3691H138.06M122.623 -58.9322V-43.4954M122.623 -58.9322H138.06M122.623 -43.4954V-28.0585M122.623 -43.4954H138.06M122.623 -28.0585V-12.6216M122.623 -28.0585H138.06M122.623 -12.6216V2.81532M122.623 -12.6216H138.06M122.623 2.81532V18.2522M122.623 2.81532H138.06M122.623 18.2522V33.6891M122.623 18.2522H138.06M122.623 33.6891V49.126M122.623 33.6891H138.06M122.623 49.126V64.5629M122.623 49.126H138.06M122.623 64.5629V79.9998M122.623 64.5629H138.06M122.623 79.9998V95.4367M122.623 79.9998H138.06M122.623 95.4367V110.874M122.623 95.4367H138.06M122.623 110.874V126.31M122.623 110.874H138.06M122.623 126.31V141.747M122.623 126.31H138.06M122.623 141.747V157.184M122.623 141.747H138.06M122.623 157.184V172.621M122.623 157.184H138.06M122.623 172.621V188.058M122.623 172.621H138.06M122.623 188.058V203.495M122.623 188.058H138.06M122.623 203.495V218.932M122.623 203.495H138.06M122.623 218.932V234.369M122.623 218.932H138.06M122.623 234.369H138.06M138.06 -74.3691V-58.9322M138.06 -74.3691H153.497M138.06 -58.9322V-43.4954M138.06 -58.9322H153.497M138.06 -43.4954V-28.0585M138.06 -43.4954H153.497M138.06 -28.0585V-12.6216M138.06 -28.0585H153.497M138.06 -12.6216V2.81532M138.06 -12.6216H153.497M138.06 2.81532V18.2522M138.06 2.81532H153.497M138.06 18.2522V33.6891M138.06 18.2522H153.497M138.06 33.6891V49.126M138.06 33.6891H153.497M138.06 49.126V64.5629M138.06 49.126H153.497M138.06 64.5629V79.9998M138.06 64.5629H153.497M138.06 79.9998V95.4367M138.06 79.9998H153.497M138.06 95.4367V110.874M138.06 95.4367H153.497M138.06 110.874V126.31M138.06 110.874H153.497M138.06 126.31V141.747M138.06 126.31H153.497M138.06 141.747V157.184M138.06 141.747H153.497M138.06 157.184V172.621M138.06 157.184H153.497M138.06 172.621V188.058M138.06 172.621H153.497M138.06 188.058V203.495M138.06 188.058H153.497M138.06 203.495V218.932M138.06 203.495H153.497M138.06 218.932V234.369M138.06 218.932H153.497M138.06 234.369H153.497M153.497 -74.3691V-58.9322M153.497 -74.3691H168.934M153.497 -58.9322V-43.4954M153.497 -58.9322H168.934M153.497 -43.4954V-28.0585M153.497 -43.4954H168.934M153.497 -28.0585V-12.6216M153.497 -28.0585H168.934M153.497 -12.6216V2.81532M153.497 -12.6216H168.934M153.497 2.81532V18.2522M153.497 2.81532H168.934M153.497 18.2522V33.6891M153.497 18.2522H168.934M153.497 33.6891V49.126M153.497 33.6891H168.934M153.497 49.126V64.5629M153.497 49.126H168.934M153.497 64.5629V79.9998M153.497 64.5629H168.934M153.497 79.9998V95.4367M153.497 79.9998H168.934M153.497 95.4367V110.874M153.497 95.4367H168.934M153.497 110.874V126.31M153.497 110.874H168.934M153.497 126.31V141.747M153.497 126.31H168.934M153.497 141.747V157.184M153.497 141.747H168.934M153.497 157.184V172.621M153.497 157.184H168.934M153.497 172.621V188.058M153.497 172.621H168.934M153.497 188.058V203.495M153.497 188.058H168.934M153.497 203.495V218.932M153.497 203.495H168.934M153.497 218.932V234.369M153.497 218.932H168.934M153.497 234.369H168.934M168.934 -74.3691V-58.9322M168.934 -74.3691H184.371M168.934 -58.9322V-43.4954M168.934 -58.9322H184.371M168.934 -43.4954V-28.0585M168.934 -43.4954H184.371M168.934 -28.0585V-12.6216M168.934 -28.0585H184.371M168.934 -12.6216V2.81532M168.934 -12.6216H184.371M168.934 2.81532V18.2522M168.934 2.81532H184.371M168.934 18.2522V33.6891M168.934 18.2522H184.371M168.934 33.6891V49.126M168.934 33.6891H184.371M168.934 49.126V64.5629M168.934 49.126H184.371M168.934 64.5629V79.9998M168.934 64.5629H184.371M168.934 79.9998V95.4367M168.934 79.9998H184.371M168.934 95.4367V110.874M168.934 95.4367H184.371M168.934 110.874V126.31M168.934 110.874H184.371M168.934 126.31V141.747M168.934 126.31H184.371M168.934 141.747V157.184M168.934 141.747H184.371M168.934 157.184V172.621M168.934 157.184H184.371M168.934 172.621V188.058M168.934 172.621H184.371M168.934 188.058V203.495M168.934 188.058H184.371M168.934 203.495V218.932M168.934 203.495H184.371M168.934 218.932V234.369M168.934 218.932H184.371M168.934 234.369H184.371M184.371 -74.3691V-58.9322M184.371 -74.3691H199.808M184.371 -58.9322V-43.4954M184.371 -58.9322H199.808M184.371 -43.4954V-28.0585M184.371 -43.4954H199.808M184.371 -28.0585V-12.6216M184.371 -28.0585H199.808M184.371 -12.6216V2.81532M184.371 -12.6216H199.808M184.371 2.81532V18.2522M184.371 2.81532H199.808M184.371 18.2522V33.6891M184.371 18.2522H199.808M184.371 33.6891V49.126M184.371 33.6891H199.808M184.371 49.126V64.5629M184.371 49.126H199.808M184.371 64.5629V79.9998M184.371 64.5629H199.808M184.371 79.9998V95.4367M184.371 79.9998H199.808M184.371 95.4367V110.874M184.371 95.4367H199.808M184.371 110.874V126.31M184.371 110.874H199.808M184.371 126.31V141.747M184.371 126.31H199.808M184.371 141.747V157.184M184.371 141.747H199.808M184.371 157.184V172.621M184.371 157.184H199.808M184.371 172.621V188.058M184.371 172.621H199.808M184.371 188.058V203.495M184.371 188.058H199.808M184.371 203.495V218.932M184.371 203.495H199.808M184.371 218.932V234.369M184.371 218.932H199.808M184.371 234.369H199.808M199.808 -74.3691V-58.9322M199.808 -74.3691H215.244M199.808 -58.9322V-43.4954M199.808 -58.9322H215.244M199.808 -43.4954V-28.0585M199.808 -43.4954H215.244M199.808 -28.0585V-12.6216M199.808 -28.0585H215.244M199.808 -12.6216V2.81532M199.808 -12.6216H215.244M199.808 2.81532V18.2522M199.808 2.81532H215.244M199.808 18.2522V33.6891M199.808 18.2522H215.244M199.808 33.6891V49.126M199.808 33.6891H215.244M199.808 49.126V64.5629M199.808 49.126H215.244M199.808 64.5629V79.9998M199.808 64.5629H215.244M199.808 79.9998V95.4367M199.808 79.9998H215.244M199.808 95.4367V110.874M199.808 95.4367H215.244M199.808 110.874V126.31M199.808 110.874H215.244M199.808 126.31V141.747M199.808 126.31H215.244M199.808 141.747V157.184M199.808 141.747H215.244M199.808 157.184V172.621M199.808 157.184H215.244M199.808 172.621V188.058M199.808 172.621H215.244M199.808 188.058V203.495M199.808 188.058H215.244M199.808 203.495V218.932M199.808 203.495H215.244M199.808 218.932V234.369M199.808 218.932H215.244M199.808 234.369H215.244M215.244 -74.3691V-58.9322M215.244 -74.3691H230.681M215.244 -58.9322V-43.4954M215.244 -58.9322H230.681M215.244 -43.4954V-28.0585M215.244 -43.4954H230.681M215.244 -28.0585V-12.6216M215.244 -28.0585H230.681M215.244 -12.6216V2.81532M215.244 -12.6216H230.681M215.244 2.81532V18.2522M215.244 2.81532H230.681M215.244 18.2522V33.6891M215.244 18.2522H230.681M215.244 33.6891V49.126M215.244 33.6891H230.681M215.244 49.126V64.5629M215.244 49.126H230.681M215.244 64.5629V79.9998M215.244 64.5629H230.681M215.244 79.9998V95.4367M215.244 79.9998H230.681M215.244 95.4367V110.874M215.244 95.4367H230.681M215.244 110.874V126.31M215.244 110.874H230.681M215.244 126.31V141.747M215.244 126.31H230.681M215.244 141.747V157.184M215.244 141.747H230.681M215.244 157.184V172.621M215.244 157.184H230.681M215.244 172.621V188.058M215.244 172.621H230.681M215.244 188.058V203.495M215.244 188.058H230.681M215.244 203.495V218.932M215.244 203.495H230.681M215.244 218.932V234.369M215.244 218.932H230.681M215.244 234.369H230.681M230.681 -74.3691V-58.9322M230.681 -74.3691H246.118M230.681 -58.9322V-43.4954M230.681 -58.9322H246.118M230.681 -43.4954V-28.0585M230.681 -43.4954H246.118M230.681 -28.0585V-12.6216M230.681 -28.0585H246.118M230.681 -12.6216V2.81532M230.681 -12.6216H246.118M230.681 2.81532V18.2522M230.681 2.81532H246.118M230.681 18.2522V33.6891M230.681 18.2522H246.118M230.681 33.6891V49.126M230.681 33.6891H246.118M230.681 49.126V64.5629M230.681 49.126H246.118M230.681 64.5629V79.9998M230.681 64.5629H246.118M230.681 79.9998V95.4367M230.681 79.9998H246.118M230.681 95.4367V110.874M230.681 95.4367H246.118M230.681 110.874V126.31M230.681 110.874H246.118M230.681 126.31V141.747M230.681 126.31H246.118M230.681 141.747V157.184M230.681 141.747H246.118M230.681 157.184V172.621M230.681 157.184H246.118M230.681 172.621V188.058M230.681 172.621H246.118M230.681 188.058V203.495M230.681 188.058H246.118M230.681 203.495V218.932M230.681 203.495H246.118M230.681 218.932V234.369M230.681 218.932H246.118M230.681 234.369H246.118M246.118 -74.3691V-58.9322M246.118 -74.3691H261.555M246.118 -58.9322V-43.4954M246.118 -58.9322H261.555M246.118 -43.4954V-28.0585M246.118 -43.4954H261.555M246.118 -28.0585V-12.6216M246.118 -28.0585H261.555M246.118 -12.6216V2.81532M246.118 -12.6216H261.555M246.118 2.81532V18.2522M246.118 2.81532H261.555M246.118 18.2522V33.6891M246.118 18.2522H261.555M246.118 33.6891V49.126M246.118 33.6891H261.555M246.118 49.126V64.5629M246.118 49.126H261.555M246.118 64.5629V79.9998M246.118 64.5629H261.555M246.118 79.9998V95.4367M246.118 79.9998H261.555M246.118 95.4367V110.874M246.118 95.4367H261.555M246.118 110.874V126.31M246.118 110.874H261.555M246.118 126.31V141.747M246.118 126.31H261.555M246.118 141.747V157.184M246.118 141.747H261.555M246.118 157.184V172.621M246.118 157.184H261.555M246.118 172.621V188.058M246.118 172.621H261.555M246.118 188.058V203.495M246.118 188.058H261.555M246.118 203.495V218.932M246.118 203.495H261.555M246.118 218.932V234.369M246.118 218.932H261.555M246.118 234.369H261.555M261.555 -74.3691V-58.9322M261.555 -74.3691H276.992M261.555 -58.9322V-43.4954M261.555 -58.9322H276.992M261.555 -43.4954V-28.0585M261.555 -43.4954H276.992M261.555 -28.0585V-12.6216M261.555 -28.0585H276.992M261.555 -12.6216V2.81532M261.555 -12.6216H276.992M261.555 2.81532V18.2522M261.555 2.81532H276.992M261.555 18.2522V33.6891M261.555 18.2522H276.992M261.555 33.6891V49.126M261.555 33.6891H276.992M261.555 49.126V64.5629M261.555 49.126H276.992M261.555 64.5629V79.9998M261.555 64.5629H276.992M261.555 79.9998V95.4367M261.555 79.9998H276.992M261.555 95.4367V110.874M261.555 95.4367H276.992M261.555 110.874V126.31M261.555 110.874H276.992M261.555 126.31V141.747M261.555 126.31H276.992M261.555 141.747V157.184M261.555 141.747H276.992M261.555 157.184V172.621M261.555 157.184H276.992M261.555 172.621V188.058M261.555 172.621H276.992M261.555 188.058V203.495M261.555 188.058H276.992M261.555 203.495V218.932M261.555 203.495H276.992M261.555 218.932V234.369M261.555 218.932H276.992M261.555 234.369H276.992M276.992 -74.3691V-58.9322M276.992 -74.3691H292.429M276.992 -58.9322V-43.4954M276.992 -58.9322H292.429M276.992 -43.4954V-28.0585M276.992 -43.4954H292.429M276.992 -28.0585V-12.6216M276.992 -28.0585H292.429M276.992 -12.6216V2.81532M276.992 -12.6216H292.429M276.992 2.81532V18.2522M276.992 2.81532H292.429M276.992 18.2522V33.6891M276.992 18.2522H292.429M276.992 33.6891V49.126M276.992 33.6891H292.429M276.992 49.126V64.5629M276.992 49.126H292.429M276.992 64.5629V79.9998M276.992 64.5629H292.429M276.992 79.9998V95.4367M276.992 79.9998H292.429M276.992 95.4367V110.874M276.992 95.4367H292.429M276.992 110.874V126.31M276.992 110.874H292.429M276.992 126.31V141.747M276.992 126.31H292.429M276.992 141.747V157.184M276.992 141.747H292.429M276.992 157.184V172.621M276.992 157.184H292.429M276.992 172.621V188.058M276.992 172.621H292.429M276.992 188.058V203.495M276.992 188.058H292.429M276.992 203.495V218.932M276.992 203.495H292.429M276.992 218.932V234.369M276.992 218.932H292.429M276.992 234.369H292.429M292.429 -74.3691V-58.9322M292.429 -74.3691H307.866M292.429 -58.9322V-43.4954M292.429 -58.9322H307.866M292.429 -43.4954V-28.0585M292.429 -43.4954H307.866M292.429 -28.0585V-12.6216M292.429 -28.0585H307.866M292.429 -12.6216V2.81532M292.429 -12.6216H307.866M292.429 2.81532V18.2522M292.429 2.81532H307.866M292.429 18.2522V33.6891M292.429 18.2522H307.866M292.429 33.6891V49.126M292.429 33.6891H307.866M292.429 49.126V64.5629M292.429 49.126H307.866M292.429 64.5629V79.9998M292.429 64.5629H307.866M292.429 79.9998V95.4367M292.429 79.9998H307.866M292.429 95.4367V110.874M292.429 95.4367H307.866M292.429 110.874V126.31M292.429 110.874H307.866M292.429 126.31V141.747M292.429 126.31H307.866M292.429 141.747V157.184M292.429 141.747H307.866M292.429 157.184V172.621M292.429 157.184H307.866M292.429 172.621V188.058M292.429 172.621H307.866M292.429 188.058V203.495M292.429 188.058H307.866M292.429 203.495V218.932M292.429 203.495H307.866M292.429 218.932V234.369M292.429 218.932H307.866M292.429 234.369H307.866M307.866 -74.3691V-58.9322M307.866 -74.3691H323.303M307.866 -58.9322V-43.4954M307.866 -58.9322H323.303M307.866 -43.4954V-28.0585M307.866 -43.4954H323.303M307.866 -28.0585V-12.6216M307.866 -28.0585H323.303M307.866 -12.6216V2.81532M307.866 -12.6216H323.303M307.866 2.81532V18.2522M307.866 2.81532H323.303M307.866 18.2522V33.6891M307.866 18.2522H323.303M307.866 33.6891V49.126M307.866 33.6891H323.303M307.866 49.126V64.5629M307.866 49.126H323.303M307.866 64.5629V79.9998M307.866 64.5629H323.303M307.866 79.9998V95.4367M307.866 79.9998H323.303M307.866 95.4367V110.874M307.866 95.4367H323.303M307.866 110.874V126.31M307.866 110.874H323.303M307.866 126.31V141.747M307.866 126.31H323.303M307.866 141.747V157.184M307.866 141.747H323.303M307.866 157.184V172.621M307.866 157.184H323.303M307.866 172.621V188.058M307.866 172.621H323.303M307.866 188.058V203.495M307.866 188.058H323.303M307.866 203.495V218.932M307.866 203.495H323.303M307.866 218.932V234.369M307.866 218.932H323.303M307.866 234.369H323.303M323.303 -74.3691V-58.9322M323.303 -74.3691H338.74M323.303 -58.9322V-43.4954M323.303 -58.9322H338.74M323.303 -43.4954V-28.0585M323.303 -43.4954H338.74M323.303 -28.0585V-12.6216M323.303 -28.0585H338.74M323.303 -12.6216V2.81532M323.303 -12.6216H338.74M323.303 2.81532V18.2522M323.303 2.81532H338.74M323.303 18.2522V33.6891M323.303 18.2522H338.74M323.303 33.6891V49.126M323.303 33.6891H338.74M323.303 49.126V64.5629M323.303 49.126H338.74M323.303 64.5629V79.9998M323.303 64.5629H338.74M323.303 79.9998V95.4367M323.303 79.9998H338.74M323.303 95.4367V110.874M323.303 95.4367H338.74M323.303 110.874V126.31M323.303 110.874H338.74M323.303 126.31V141.747M323.303 126.31H338.74M323.303 141.747V157.184M323.303 141.747H338.74M323.303 157.184V172.621M323.303 157.184H338.74M323.303 172.621V188.058M323.303 172.621H338.74M323.303 188.058V203.495M323.303 188.058H338.74M323.303 203.495V218.932M323.303 203.495H338.74M323.303 218.932V234.369M323.303 218.932H338.74M323.303 234.369H338.74M338.74 -74.3691V-58.9322M338.74 -74.3691H354.176M338.74 -58.9322V-43.4954M338.74 -58.9322H354.176M338.74 -43.4954V-28.0585M338.74 -43.4954H354.176M338.74 -28.0585V-12.6216M338.74 -28.0585H354.176M338.74 -12.6216V2.81532M338.74 -12.6216H354.176M338.74 2.81532V18.2522M338.74 2.81532H354.176M338.74 18.2522V33.6891M338.74 18.2522H354.176M338.74 33.6891V49.126M338.74 33.6891H354.176M338.74 49.126V64.5629M338.74 49.126H354.176M338.74 64.5629V79.9998M338.74 64.5629H354.176M338.74 79.9998V95.4367M338.74 79.9998H354.176M338.74 95.4367V110.874M338.74 95.4367H354.176M338.74 110.874V126.31M338.74 110.874H354.176M338.74 126.31V141.747M338.74 126.31H354.176M338.74 141.747V157.184M338.74 141.747H354.176M338.74 157.184V172.621M338.74 157.184H354.176M338.74 172.621V188.058M338.74 172.621H354.176M338.74 188.058V203.495M338.74 188.058H354.176M338.74 203.495V218.932M338.74 203.495H354.176M338.74 218.932V234.369M338.74 218.932H354.176M338.74 234.369H354.176M354.176 -74.3691V-58.9322M354.176 -74.3691H369.613M354.176 -58.9322V-43.4954M354.176 -58.9322H369.613M354.176 -43.4954V-28.0585M354.176 -43.4954H369.613M354.176 -28.0585V-12.6216M354.176 -28.0585H369.613M354.176 -12.6216V2.81532M354.176 -12.6216H369.613M354.176 2.81532V18.2522M354.176 2.81532H369.613M354.176 18.2522V33.6891M354.176 18.2522H369.613M354.176 33.6891V49.126M354.176 33.6891H369.613M354.176 49.126V64.5629M354.176 49.126H369.613M354.176 64.5629V79.9998M354.176 64.5629H369.613M354.176 79.9998V95.4367M354.176 79.9998H369.613M354.176 95.4367V110.874M354.176 95.4367H369.613M354.176 110.874V126.31M354.176 110.874H369.613M354.176 126.31V141.747M354.176 126.31H369.613M354.176 141.747V157.184M354.176 141.747H369.613M354.176 157.184V172.621M354.176 157.184H369.613M354.176 172.621V188.058M354.176 172.621H369.613M354.176 188.058V203.495M354.176 188.058H369.613M354.176 203.495V218.932M354.176 203.495H369.613M354.176 218.932V234.369M354.176 218.932H369.613M354.176 234.369H369.613M369.613 -74.3691V-58.9322M369.613 -74.3691H385.05M369.613 -58.9322V-43.4954M369.613 -58.9322H385.05M369.613 -43.4954V-28.0585M369.613 -43.4954H385.05M369.613 -28.0585V-12.6216M369.613 -28.0585H385.05M369.613 -12.6216V2.81532M369.613 -12.6216H385.05M369.613 2.81532V18.2522M369.613 2.81532H385.05M369.613 18.2522V33.6891M369.613 18.2522H385.05M369.613 33.6891V49.126M369.613 33.6891H385.05M369.613 49.126V64.5629M369.613 49.126H385.05M369.613 64.5629V79.9998M369.613 64.5629H385.05M369.613 79.9998V95.4367M369.613 79.9998H385.05M369.613 95.4367V110.874M369.613 95.4367H385.05M369.613 110.874V126.31M369.613 110.874H385.05M369.613 126.31V141.747M369.613 126.31H385.05M369.613 141.747V157.184M369.613 141.747H385.05M369.613 157.184V172.621M369.613 157.184H385.05M369.613 172.621V188.058M369.613 172.621H385.05M369.613 188.058V203.495M369.613 188.058H385.05M369.613 203.495V218.932M369.613 203.495H385.05M369.613 218.932V234.369M369.613 218.932H385.05M369.613 234.369H385.05M385.05 -74.3691V-58.9322M385.05 -74.3691H400.487M385.05 -58.9322V-43.4954M385.05 -58.9322H400.487M385.05 -43.4954V-28.0585M385.05 -43.4954H400.487M385.05 -28.0585V-12.6216M385.05 -28.0585H400.487M385.05 -12.6216V2.81532M385.05 -12.6216H400.487M385.05 2.81532V18.2522M385.05 2.81532H400.487M385.05 18.2522V33.6891M385.05 18.2522H400.487M385.05 33.6891V49.126M385.05 33.6891H400.487M385.05 49.126V64.5629M385.05 49.126H400.487M385.05 64.5629V79.9998M385.05 64.5629H400.487M385.05 79.9998V95.4367M385.05 79.9998H400.487M385.05 95.4367V110.874M385.05 95.4367H400.487M385.05 110.874V126.31M385.05 110.874H400.487M385.05 126.31V141.747M385.05 126.31H400.487M385.05 141.747V157.184M385.05 141.747H400.487M385.05 157.184V172.621M385.05 157.184H400.487M385.05 172.621V188.058M385.05 172.621H400.487M385.05 188.058V203.495M385.05 188.058H400.487M385.05 203.495V218.932M385.05 203.495H400.487M385.05 218.932V234.369M385.05 218.932H400.487M385.05 234.369H400.487M400.487 -74.3691V-58.9322M400.487 -74.3691H415.924M400.487 -58.9322V-43.4954M400.487 -58.9322H415.924M400.487 -43.4954V-28.0585M400.487 -43.4954H415.924M400.487 -28.0585V-12.6216M400.487 -28.0585H415.924M400.487 -12.6216V2.81532M400.487 -12.6216H415.924M400.487 2.81532V18.2522M400.487 2.81532H415.924M400.487 18.2522V33.6891M400.487 18.2522H415.924M400.487 33.6891V49.126M400.487 33.6891H415.924M400.487 49.126V64.5629M400.487 49.126H415.924M400.487 64.5629V79.9998M400.487 64.5629H415.924M400.487 79.9998V95.4367M400.487 79.9998H415.924M400.487 95.4367V110.874M400.487 95.4367H415.924M400.487 110.874V126.31M400.487 110.874H415.924M400.487 126.31V141.747M400.487 126.31H415.924M400.487 141.747V157.184M400.487 141.747H415.924M400.487 157.184V172.621M400.487 157.184H415.924M400.487 172.621V188.058M400.487 172.621H415.924M400.487 188.058V203.495M400.487 188.058H415.924M400.487 203.495V218.932M400.487 203.495H415.924M400.487 218.932V234.369M400.487 218.932H415.924M400.487 234.369H415.924M415.924 -74.3691V-58.9322M415.924 -74.3691H431.361M415.924 -58.9322V-43.4954M415.924 -58.9322H431.361M415.924 -43.4954V-28.0585M415.924 -43.4954H431.361M415.924 -28.0585V-12.6216M415.924 -28.0585H431.361M415.924 -12.6216V2.81532M415.924 -12.6216H431.361M415.924 2.81532V18.2522M415.924 2.81532H431.361M415.924 18.2522V33.6891M415.924 18.2522H431.361M415.924 33.6891V49.126M415.924 33.6891H431.361M415.924 49.126V64.5629M415.924 49.126H431.361M415.924 64.5629V79.9998M415.924 64.5629H431.361M415.924 79.9998V95.4367M415.924 79.9998H431.361M415.924 95.4367V110.874M415.924 95.4367H431.361M415.924 110.874V126.31M415.924 110.874H431.361M415.924 126.31V141.747M415.924 126.31H431.361M415.924 141.747V157.184M415.924 141.747H431.361M415.924 157.184V172.621M415.924 157.184H431.361M415.924 172.621V188.058M415.924 172.621H431.361M415.924 188.058V203.495M415.924 188.058H431.361M415.924 203.495V218.932M415.924 203.495H431.361M415.924 218.932V234.369M415.924 218.932H431.361M415.924 234.369H431.361M431.361 -74.3691V-58.9322M431.361 -74.3691H446.798M431.361 -58.9322V-43.4954M431.361 -58.9322H446.798M431.361 -43.4954V-28.0585M431.361 -43.4954H446.798M431.361 -28.0585V-12.6216M431.361 -28.0585H446.798M431.361 -12.6216V2.81532M431.361 -12.6216H446.798M431.361 2.81532V18.2522M431.361 2.81532H446.798M431.361 18.2522V33.6891M431.361 18.2522H446.798M431.361 33.6891V49.126M431.361 33.6891H446.798M431.361 49.126V64.5629M431.361 49.126H446.798M431.361 64.5629V79.9998M431.361 64.5629H446.798M431.361 79.9998V95.4367M431.361 79.9998H446.798M431.361 95.4367V110.874M431.361 95.4367H446.798M431.361 110.874V126.31M431.361 110.874H446.798M431.361 126.31V141.747M431.361 126.31H446.798M431.361 141.747V157.184M431.361 141.747H446.798M431.361 157.184V172.621M431.361 157.184H446.798M431.361 172.621V188.058M431.361 172.621H446.798M431.361 188.058V203.495M431.361 188.058H446.798M431.361 203.495V218.932M431.361 203.495H446.798M431.361 218.932V234.369M431.361 218.932H446.798M431.361 234.369H446.798M446.798 -74.3691V-58.9322M446.798 -74.3691H462.235M446.798 -58.9322V-43.4954M446.798 -58.9322H462.235M446.798 -43.4954V-28.0585M446.798 -43.4954H462.235M446.798 -28.0585V-12.6216M446.798 -28.0585H462.235M446.798 -12.6216V2.81532M446.798 -12.6216H462.235M446.798 2.81532V18.2522M446.798 2.81532H462.235M446.798 18.2522V33.6891M446.798 18.2522H462.235M446.798 33.6891V49.126M446.798 33.6891H462.235M446.798 49.126V64.5629M446.798 49.126H462.235M446.798 64.5629V79.9998M446.798 64.5629H462.235M446.798 79.9998V95.4367M446.798 79.9998H462.235M446.798 95.4367V110.874M446.798 95.4367H462.235M446.798 110.874V126.31M446.798 110.874H462.235M446.798 126.31V141.747M446.798 126.31H462.235M446.798 141.747V157.184M446.798 141.747H462.235M446.798 157.184V172.621M446.798 157.184H462.235M446.798 172.621V188.058M446.798 172.621H462.235M446.798 188.058V203.495M446.798 188.058H462.235M446.798 203.495V218.932M446.798 203.495H462.235M446.798 218.932V234.369M446.798 218.932H462.235M446.798 234.369H462.235M462.235 -74.3691V-58.9322M462.235 -74.3691H477.672M462.235 -58.9322V-43.4954M462.235 -58.9322H477.672M462.235 -43.4954V-28.0585M462.235 -43.4954H477.672M462.235 -28.0585V-12.6216M462.235 -28.0585H477.672M462.235 -12.6216V2.81532M462.235 -12.6216H477.672M462.235 2.81532V18.2522M462.235 2.81532H477.672M462.235 18.2522V33.6891M462.235 18.2522H477.672M462.235 33.6891V49.126M462.235 33.6891H477.672M462.235 49.126V64.5629M462.235 49.126H477.672M462.235 64.5629V79.9998M462.235 64.5629H477.672M462.235 79.9998V95.4367M462.235 79.9998H477.672M462.235 95.4367V110.874M462.235 95.4367H477.672M462.235 110.874V126.31M462.235 110.874H477.672M462.235 126.31V141.747M462.235 126.31H477.672M462.235 141.747V157.184M462.235 141.747H477.672M462.235 157.184V172.621M462.235 157.184H477.672M462.235 172.621V188.058M462.235 172.621H477.672M462.235 188.058V203.495M462.235 188.058H477.672M462.235 203.495V218.932M462.235 203.495H477.672M462.235 218.932V234.369M462.235 218.932H477.672M462.235 234.369H477.672M477.672 -74.3691V-58.9322M477.672 -74.3691H493.109M477.672 -58.9322V-43.4954M477.672 -58.9322H493.109M477.672 -43.4954V-28.0585M477.672 -43.4954H493.109M477.672 -28.0585V-12.6216M477.672 -28.0585H493.109M477.672 -12.6216V2.81532M477.672 -12.6216H493.109M477.672 2.81532V18.2522M477.672 2.81532H493.109M477.672 18.2522V33.6891M477.672 18.2522H493.109M477.672 33.6891V49.126M477.672 33.6891H493.109M477.672 49.126V64.5629M477.672 49.126H493.109M477.672 64.5629V79.9998M477.672 64.5629H493.109M477.672 79.9998V95.4367M477.672 79.9998H493.109M477.672 95.4367V110.874M477.672 95.4367H493.109M477.672 110.874V126.31M477.672 110.874H493.109M477.672 126.31V141.747M477.672 126.31H493.109M477.672 141.747V157.184M477.672 141.747H493.109M477.672 157.184V172.621M477.672 157.184H493.109M477.672 172.621V188.058M477.672 172.621H493.109M477.672 188.058V203.495M477.672 188.058H493.109M477.672 203.495V218.932M477.672 203.495H493.109M477.672 218.932V234.369M477.672 218.932H493.109M477.672 234.369H493.109M493.109 -74.3691V-58.9322M493.109 -74.3691H508.545M493.109 -58.9322V-43.4954M493.109 -58.9322H508.545M493.109 -43.4954V-28.0585M493.109 -43.4954H508.545M493.109 -28.0585V-12.6216M493.109 -28.0585H508.545M493.109 -12.6216V2.81532M493.109 -12.6216H508.545M493.109 2.81532V18.2522M493.109 2.81532H508.545M493.109 18.2522V33.6891M493.109 18.2522H508.545M493.109 33.6891V49.126M493.109 33.6891H508.545M493.109 49.126V64.5629M493.109 49.126H508.545M493.109 64.5629V79.9998M493.109 64.5629H508.545M493.109 79.9998V95.4367M493.109 79.9998H508.545M493.109 95.4367V110.874M493.109 95.4367H508.545M493.109 110.874V126.31M493.109 110.874H508.545M493.109 126.31V141.747M493.109 126.31H508.545M493.109 141.747V157.184M493.109 141.747H508.545M493.109 157.184V172.621M493.109 157.184H508.545M493.109 172.621V188.058M493.109 172.621H508.545M493.109 188.058V203.495M493.109 188.058H508.545M493.109 203.495V218.932M493.109 203.495H508.545M493.109 218.932V234.369M493.109 218.932H508.545M493.109 234.369H508.545M508.545 -74.3691V-58.9322M508.545 -74.3691H523.982M508.545 -58.9322V-43.4954M508.545 -58.9322H523.982M508.545 -43.4954V-28.0585M508.545 -43.4954H523.982M508.545 -28.0585V-12.6216M508.545 -28.0585H523.982M508.545 -12.6216V2.81532M508.545 -12.6216H523.982M508.545 2.81532V18.2522M508.545 2.81532H523.982M508.545 18.2522V33.6891M508.545 18.2522H523.982M508.545 33.6891V49.126M508.545 33.6891H523.982M508.545 49.126V64.5629M508.545 49.126H523.982M508.545 64.5629V79.9998M508.545 64.5629H523.982M508.545 79.9998V95.4367M508.545 79.9998H523.982M508.545 95.4367V110.874M508.545 95.4367H523.982M508.545 110.874V126.31M508.545 110.874H523.982M508.545 126.31V141.747M508.545 126.31H523.982M508.545 141.747V157.184M508.545 141.747H523.982M508.545 157.184V172.621M508.545 157.184H523.982M508.545 172.621V188.058M508.545 172.621H523.982M508.545 188.058V203.495M508.545 188.058H523.982M508.545 203.495V218.932M508.545 203.495H523.982M508.545 218.932V234.369M508.545 218.932H523.982M508.545 234.369H523.982M523.982 -74.3691V-58.9322M523.982 -74.3691H539.419M523.982 -58.9322V-43.4954M523.982 -58.9322H539.419M523.982 -43.4954V-28.0585M523.982 -43.4954H539.419M523.982 -28.0585V-12.6216M523.982 -28.0585H539.419M523.982 -12.6216V2.81532M523.982 -12.6216H539.419M523.982 2.81532V18.2522M523.982 2.81532H539.419M523.982 18.2522V33.6891M523.982 18.2522H539.419M523.982 33.6891V49.126M523.982 33.6891H539.419M523.982 49.126V64.5629M523.982 49.126H539.419M523.982 64.5629V79.9998M523.982 64.5629H539.419M523.982 79.9998V95.4367M523.982 79.9998H539.419M523.982 95.4367V110.874M523.982 95.4367H539.419M523.982 110.874V126.31M523.982 110.874H539.419M523.982 126.31V141.747M523.982 126.31H539.419M523.982 141.747V157.184M523.982 141.747H539.419M523.982 157.184V172.621M523.982 157.184H539.419M523.982 172.621V188.058M523.982 172.621H539.419M523.982 188.058V203.495M523.982 188.058H539.419M523.982 203.495V218.932M523.982 203.495H539.419M523.982 218.932V234.369M523.982 218.932H539.419M523.982 234.369H539.419M539.419 -74.3691V-58.9322M539.419 -74.3691H554.856V-58.9322M539.419 -58.9322V-43.4954M539.419 -58.9322H554.856M539.419 -43.4954V-28.0585M539.419 -43.4954H554.856M539.419 -28.0585V-12.6216M539.419 -28.0585H554.856M539.419 -12.6216V2.81532M539.419 -12.6216H554.856M539.419 2.81532V18.2522M539.419 2.81532H554.856M539.419 18.2522V33.6891M539.419 18.2522H554.856M539.419 33.6891V49.126M539.419 33.6891H554.856M539.419 49.126V64.5629M539.419 49.126H554.856M539.419 64.5629V79.9998M539.419 64.5629H554.856M539.419 79.9998V95.4367M539.419 79.9998H554.856M539.419 95.4367V110.874M539.419 95.4367H554.856M539.419 110.874V126.31M539.419 110.874H554.856M539.419 126.31V141.747M539.419 126.31H554.856M539.419 141.747V157.184M539.419 141.747H554.856M539.419 157.184V172.621M539.419 157.184H554.856M539.419 172.621V188.058M539.419 172.621H554.856M539.419 188.058V203.495M539.419 188.058H554.856M539.419 203.495V218.932M539.419 203.495H554.856M539.419 218.932V234.369M539.419 218.932H554.856M539.419 234.369H554.856V218.932M554.856 -58.9322V-43.4954M554.856 -43.4954V-28.0585M554.856 -28.0585V-12.6216M554.856 -12.6216V2.81532M554.856 2.81532V18.2522M554.856 18.2522V33.6891M554.856 33.6891V49.126M554.856 49.126V64.5629M554.856 64.5629V79.9998M554.856 79.9998V95.4367M554.856 95.4367V110.874M554.856 110.874V126.31M554.856 126.31V141.747M554.856 141.747V157.184M554.856 157.184V172.621M554.856 172.621V188.058M554.856 188.058V203.495M554.856 203.495V218.932" stroke="url(#paint0_radial_1629_34026)" stroke-opacity="0.5" stroke-width="0.192961"/>
</g>
<g style="" opacity="0.8">
<path d="M-62.6214 -17.2525V-12.6214M-62.6214 -12.6214V-7.99033M-62.6214 -12.6214H-67.2524M-62.6214 -12.6214H-57.9903M-62.6214 106.243V110.874M-62.6214 110.874V115.505M-62.6214 110.874H-67.2524M-62.6214 110.874H-57.9903M-62.6214 229.738V234.369M-62.6214 234.369V239M-62.6214 234.369H-67.2524M-62.6214 234.369H-57.9903M60.8738 106.243V110.874M60.8738 110.874V115.505M60.8738 110.874H56.2427M60.8738 110.874H65.5049M60.8738 229.738V234.369M60.8738 234.369V239M60.8738 234.369H56.2427M60.8738 234.369H65.5049M184.369 106.243V110.874M184.369 110.874V115.505M184.369 110.874H179.738M184.369 110.874H189M184.369 229.738V234.369M184.369 234.369V239M184.369 234.369H179.738M184.369 234.369H189M307.864 -17.2525V-12.6214M307.864 -12.6214V-7.99033M307.864 -12.6214H303.233M307.864 -12.6214H312.495M307.864 106.243V110.874M307.864 110.874V115.505M307.864 110.874H303.233M307.864 110.874H312.495M307.864 229.738V234.369M307.864 234.369V239M307.864 234.369H303.233M307.864 234.369H312.495M431.359 -17.2525V-12.6214M431.359 -12.6214V-7.99033M431.359 -12.6214H426.728M431.359 -12.6214H435.99M431.359 106.243V110.874M431.359 110.874V115.505M431.359 110.874H426.728M431.359 110.874H435.99M431.359 229.738V234.369M431.359 234.369V239M431.359 234.369H426.728M431.359 234.369H435.99M554.854 -17.2525V-12.6214M554.854 -12.6214V-7.99033M554.854 -12.6214H550.223M554.854 -12.6214H559.485M554.854 106.243V110.874M554.854 110.874V115.505M554.854 110.874H550.223M554.854 110.874H559.485M554.854 229.738V234.369M554.854 234.369V239M554.854 234.369H550.223M554.854 234.369H559.485M-62.6214 -79V-74.3689M-62.6214 -74.3689V-69.7379M-62.6214 -74.3689H-67.2524M-62.6214 -74.3689H-57.9903M-62.6214 44.4952V49.1262M-62.6214 49.1262V53.7573M-62.6214 49.1262H-67.2524M-62.6214 49.1262H-57.9903M-62.6214 167.99V172.621M-62.6214 172.621V177.252M-62.6214 172.621H-67.2524M-62.6214 172.621H-57.9903M60.8738 -79V-74.3689M60.8738 -74.3689V-69.7379M60.8738 -74.3689H56.2427M60.8738 -74.3689H65.5049M60.8738 167.99V172.621M60.8738 172.621V177.252M60.8738 172.621H56.2427M60.8738 172.621H65.5049M184.369 167.99V172.621M184.369 172.621V177.252M184.369 172.621H179.738M184.369 172.621H189M307.864 -79V-74.3689M307.864 -74.3689V-69.7379M307.864 -74.3689H303.233M307.864 -74.3689H312.495M307.864 44.4952V49.1262M307.864 49.1262V53.7573M307.864 49.1262H303.233M307.864 49.1262H312.495M307.864 167.99V172.621M307.864 172.621V177.252M307.864 172.621H303.233M307.864 172.621H312.495M431.359 -79V-74.3689M431.359 -74.3689V-69.7379M431.359 -74.3689H426.728M431.359 -74.3689H435.99M431.359 44.4952V49.1262M431.359 49.1262V53.7573M431.359 49.1262H426.728M431.359 49.1262H435.99M431.359 167.99V172.621M431.359 172.621V177.252M431.359 172.621H426.728M431.359 172.621H435.99M554.854 -79V-74.3689M554.854 -74.3689V-69.7379M554.854 -74.3689H550.223M554.854 -74.3689H559.485M554.854 44.4952V49.1262M554.854 49.1262V53.7573M554.854 49.1262H550.223M554.854 49.1262H559.485M554.854 167.99V172.621M554.854 172.621V177.252M554.854 172.621H550.223M554.854 172.621H559.485M-124.369 -17.2525V-12.6214M-124.369 -12.6214V-7.99033M-124.369 -12.6214H-129M-124.369 -12.6214H-119.738M-124.369 106.243V110.874M-124.369 110.874V115.505M-124.369 110.874H-129M-124.369 110.874H-119.738M-124.369 229.738V234.369M-124.369 234.369V239M-124.369 234.369H-129M-124.369 234.369H-119.738M-0.873779 106.243V110.874M-0.873779 110.874V115.505M-0.873779 110.874H-5.50484M-0.873779 110.874H3.75729M-0.873779 229.738V234.369M-0.873779 234.369V239M-0.873779 234.369H-5.50484M-0.873779 234.369H3.75729M122.621 106.243V110.874M122.621 110.874V115.505M122.621 110.874H117.99M122.621 110.874H127.252M122.621 229.738V234.369M122.621 234.369V239M122.621 234.369H117.99M122.621 234.369H127.252M246.117 106.243V110.874M246.117 110.874V115.505M246.117 110.874H241.485M246.117 110.874H250.748M246.117 229.738V234.369M246.117 234.369V239M246.117 234.369H241.485M246.117 234.369H250.748M369.612 -17.2525V-12.6214M369.612 -12.6214V-7.99033M369.612 -12.6214H364.981M369.612 -12.6214H374.243M369.612 106.243V110.874M369.612 110.874V115.505M369.612 110.874H364.981M369.612 110.874H374.243M369.612 229.738V234.369M369.612 234.369V239M369.612 234.369H364.981M369.612 234.369H374.243M493.107 -17.2525V-12.6214M493.107 -12.6214V-7.99033M493.107 -12.6214H488.476M493.107 -12.6214H497.738M493.107 106.243V110.874M493.107 110.874V115.505M493.107 110.874H488.476M493.107 110.874H497.738M493.107 229.738V234.369M493.107 234.369V239M493.107 234.369H488.476M493.107 234.369H497.738M-124.369 -79V-74.3689M-124.369 -74.3689V-69.7378M-124.369 -74.3689H-129M-124.369 -74.3689H-119.738M-124.369 44.4952V49.1262M-124.369 49.1262V53.7573M-124.369 49.1262H-129M-124.369 49.1262H-119.738M-124.369 167.99V172.621M-124.369 172.621V177.252M-124.369 172.621H-129M-124.369 172.621H-119.738M-0.873779 -79V-74.3689M-0.873779 -74.3689V-69.7379M-0.873779 -74.3689H-5.50484M-0.873779 -74.3689H3.75729M-0.873779 167.99V172.621M-0.873779 172.621V177.252M-0.873779 172.621H-5.50484M-0.873779 172.621H3.75729M122.621 -79V-74.3689M122.621 -74.3689V-69.7379M122.621 -74.3689H117.99M122.621 -74.3689H127.252M122.621 167.99V172.621M122.621 172.621V177.252M122.621 172.621H117.99M122.621 172.621H127.252M29.8689 -17.2525V-12.6214M29.8689 -12.6214V-7.99035M29.8689 -12.6214H25.2379M29.8689 -12.6214H34.5M246.117 167.99V172.621M246.117 172.621V177.252M246.117 172.621H241.485M246.117 172.621H250.748M369.612 -79V-74.3689M369.612 -74.3689V-69.7379M369.612 -74.3689H364.981M369.612 -74.3689H374.243M369.612 44.4952V49.1262M369.612 49.1262V53.7573M369.612 49.1262H364.981M369.612 49.1262H374.243M369.612 167.99V172.621M369.612 172.621V177.252M369.612 172.621H364.981M369.612 172.621H374.243M493.107 -79V-74.3689M493.107 -74.3689V-69.7379M493.107 -74.3689H488.476M493.107 -74.3689H497.738M493.107 44.4952V49.1262M493.107 49.1262V53.7573M493.107 49.1262H488.476M493.107 49.1262H497.738M493.107 167.99V172.621M493.107 172.621V177.252M493.107 172.621H488.476M493.107 172.621H497.738M184.329 44.7376V49.3687M184.329 49.3687V53.9998M184.329 49.3687H179.698M184.329 49.3687H188.961M246.117 44.7376V49.3687M246.117 49.3687V53.9998M246.117 49.3687H241.485M246.117 49.3687H250.748" stroke="url(#paint1_radial_1629_34026)" stroke-opacity="0.5" stroke-width="0.385922"/>
</g>
</g>
<defs>
<radialGradient id="paint0_radial_1629_34026" cx="0" cy="0" r="1" gradientUnits="userSpaceOnUse" gradientTransform="translate(215.244 79.9998) rotate(90) scale(154.369 339.612)">
<stop stop-color="#F2F2F2"/>
<stop offset="0.549431" stop-color="#F2F2F2" stop-opacity="0"/>
</radialGradient>
<radialGradient id="paint1_radial_1629_34026" cx="0" cy="0" r="1" gradientUnits="userSpaceOnUse" gradientTransform="translate(215.243 80) rotate(90) scale(159 344.243)">
<stop stop-color="#F2F2F2"/>
<stop offset="0.657647" stop-color="#F2F2F2" stop-opacity="0"/>
</radialGradient>
<clipPath id="clip0_1629_34026">
<rect width="278" height="64" fill="white"/>
</clipPath>
</defs>
</svg>
