<svg width="16" height="17" viewBox="0 0 16 17" fill="none" xmlns="http://www.w3.org/2000/svg">
<g clip-path="url(#clip0_3998_30042)">
<path fill-rule="evenodd" clip-rule="evenodd" d="M7.70078 6.5C7.9217 6.5 8.10078 6.67909 8.10078 6.9V8.81926L9.52266 9.76718C9.70647 9.88972 9.75614 10.1381 9.6336 10.3219C9.51106 10.5057 9.26271 10.5554 9.0789 10.4328L7.4789 9.36615C7.36762 9.29197 7.30078 9.16707 7.30078 9.03333V6.9C7.30078 6.67909 7.47987 6.5 7.70078 6.5Z" fill="#F2F2F2"/>
<path fill-rule="evenodd" clip-rule="evenodd" d="M2.26562 8.49896C2.26562 5.33253 4.83253 2.76562 7.99896 2.76562C11.1654 2.76562 13.7323 5.33253 13.7323 8.49896C13.7323 11.6654 11.1654 14.2323 7.99896 14.2323C4.83253 14.2323 2.26562 11.6654 2.26562 8.49896ZM7.99896 3.56563C5.27435 3.56563 3.06563 5.77435 3.06563 8.49896C3.06563 11.2236 5.27435 13.4323 7.99896 13.4323C10.7236 13.4323 12.9323 11.2236 12.9323 8.49896C12.9323 5.77435 10.7236 3.56563 7.99896 3.56563Z" fill="#F2F2F2"/>
</g>
<defs>
<clipPath id="clip0_3998_30042">
<rect width="12.8" height="12.8" fill="white" transform="translate(1.60156 2.10156)"/>
</clipPath>
</defs>
</svg>
