<svg width="75" height="75" viewBox="0 0 75 75" fill="none" xmlns="http://www.w3.org/2000/svg">
<rect x="0.25" y="0.25" width="74.5" height="74.5" rx="7.75" fill="url(#paint0_linear_3998_29728)" fill-opacity="0.1"/>
<rect x="0.25" y="0.25" width="74.5" height="74.5" rx="7.75" stroke="url(#paint1_linear_3998_29728)" stroke-width="0.5"/>
<path d="M19.176 34.496V32.24H20.736C22.728 32.24 23.352 31.688 23.352 29.6H25.656V47H22.92V34.496H19.176ZM31.0431 38.456C31.0431 42.632 32.6271 44.912 35.4831 44.912C38.3631 44.912 39.9951 42.584 39.9951 38.456C39.9951 34.256 38.3871 31.928 35.5071 31.928C32.6511 31.928 31.0431 34.256 31.0431 38.456ZM28.2111 38.432C28.2111 32.984 31.0191 29.528 35.5071 29.528C40.0191 29.528 42.8271 32.96 42.8271 38.432C42.8271 43.904 40.0191 47.312 35.5071 47.312C31.0191 47.312 28.2111 43.904 28.2111 38.432ZM44.5554 47V29.36H47.2194V39.56L53.4354 34.016H56.9394L51.1794 39.176L57.1554 47H53.9154L49.2834 40.808L47.2194 42.68V47H44.5554Z" fill="url(#paint2_linear_3998_29728)"/>
<path d="M47 0H75V17H55C50.5817 17 47 13.4183 47 9V0Z" fill="url(#paint3_linear_3998_29728)"/>
<g clip-path="url(#clip0_3998_29728)">
<path d="M57.5844 9.85627L59.7968 8.61496L59.834 8.50715L59.7968 8.44718H59.689L59.3192 8.4244L58.0551 8.39024L56.9588 8.34468L55.8967 8.28774L55.6294 8.2308L55.3789 7.90054L55.4047 7.7358L55.6294 7.58471L55.9514 7.6128L56.6627 7.66139L57.7302 7.73504L58.5046 7.78059L59.6518 7.89978H59.834L59.8598 7.82614L59.7975 7.78059L59.7489 7.73504L58.6443 6.98645L57.4485 6.19535L56.8222 5.73983L56.4836 5.50903L56.3127 5.29265L56.2391 4.82042L56.5466 4.48181L56.9596 4.5099L57.0651 4.53799L57.4834 4.8599L58.377 5.55154L59.5439 6.41097L59.7148 6.55294L59.7831 6.50435L59.7914 6.47019L59.7148 6.34188L59.0801 5.19471L58.4028 4.0278L58.1014 3.54419L58.0217 3.25417C57.9936 3.13497 57.9731 3.03476 57.9731 2.91252L58.3231 2.43726L58.5167 2.375L58.9836 2.43726L59.1803 2.60808L59.4703 3.27163L59.9403 4.31631L60.6691 5.73679L60.8824 6.15815L60.9963 6.54839L61.0388 6.66758H61.1125V6.59926L61.1725 5.79905L61.2833 4.81663L61.3911 3.55254L61.4283 3.19647L61.6044 2.76979L61.9544 2.53899L62.2278 2.66957L62.4525 2.99148L62.4214 3.1995L62.2877 4.06804L62.0258 5.42855L61.855 6.3396H61.9544L62.0683 6.22572L62.5292 5.6138L63.3036 4.6458L63.6452 4.26164L64.0438 3.83724L64.2996 3.63529H64.7833L65.1393 4.16446L64.9799 4.71109L64.4819 5.34276L64.0688 5.878L63.4767 6.67518L63.1069 7.31291L63.1411 7.36378L63.2292 7.35543L64.5669 7.07073L65.2897 6.94014L66.1521 6.79209L66.5424 6.9743L66.5849 7.15955L66.4315 7.5384L65.5091 7.76616L64.4272 7.98254L62.8161 8.36366L62.7964 8.37809L62.8192 8.40618L63.545 8.47451L63.8555 8.49121H64.6155L66.0306 8.59674L66.4004 8.84121L66.6221 9.14034L66.5849 9.3681L66.0155 9.65812L65.2471 9.47591L63.4539 9.04923L62.8389 8.89587H62.7539V8.94674L63.2664 9.44782L64.2055 10.2959L65.3815 11.3891L65.4415 11.6594L65.2904 11.8727L65.131 11.85L64.0977 11.0725L63.6991 10.7225L62.7964 9.96256H62.7364V10.0423L62.9445 10.3467L64.043 11.998L64.1 12.5044L64.0203 12.6692L63.7355 12.7686L63.4228 12.7117L62.7797 11.809L62.1162 10.7924L61.5809 9.88133L61.5156 9.91853L61.1998 13.3206L61.0517 13.4944L60.7101 13.625L60.4254 13.4086L60.2743 13.0586L60.4254 12.367L60.6076 11.4643L60.7556 10.7468L60.8893 9.85551L60.969 9.55942L60.9637 9.53968L60.8984 9.54803L60.2265 10.4705L59.2046 11.8515L58.396 12.717L58.2024 12.7937L57.8668 12.6198L57.898 12.3093L58.0855 12.0329L59.2046 10.6094L59.8795 9.72721L60.3153 9.21778L60.3123 9.14413H60.2865L57.3141 11.074L56.785 11.1424L56.5572 10.929L56.5853 10.579L56.6931 10.4652L57.5867 9.8502L57.5837 9.85324L57.5844 9.85627Z" fill="#F2F2F2"/>
</g>
<defs>
<linearGradient id="paint0_linear_3998_29728" x1="-9.18367" y1="75" x2="77.0506" y2="87.5077" gradientUnits="userSpaceOnUse">
<stop stop-color="#FF20A2"/>
<stop offset="1" stop-color="#FF5B20"/>
</linearGradient>
<linearGradient id="paint1_linear_3998_29728" x1="-9.18367" y1="75" x2="77.0506" y2="87.5077" gradientUnits="userSpaceOnUse">
<stop stop-color="#FF20A2"/>
<stop offset="1" stop-color="#FF5B20"/>
</linearGradient>
<linearGradient id="paint2_linear_3998_29728" x1="13.2245" y1="54" x2="57.6223" y2="61.8483" gradientUnits="userSpaceOnUse">
<stop stop-color="#FF20A2"/>
<stop offset="1" stop-color="#FF5B20"/>
</linearGradient>
<linearGradient id="paint3_linear_3998_29728" x1="45.6452" y1="3" x2="69.1252" y2="16.0289" gradientUnits="userSpaceOnUse">
<stop stop-color="#FE405C"/>
<stop offset="1" stop-color="#FE5235"/>
</linearGradient>
<clipPath id="clip0_3998_29728">
<rect width="12" height="12" fill="white" transform="translate(55 2)"/>
</clipPath>
</defs>
</svg>
