<svg width="168" height="32" viewBox="0 0 168 32" fill="none" xmlns="http://www.w3.org/2000/svg">
<g clip-path="url(#clip0_650_6428)">
<rect width="32" height="32" rx="6.4" fill="#195AF4"/>
<path d="M19.6565 18.8276L24.3 15.8672V12.2187L14.1873 18.9945L24.3 25.6295V22.0766L19.6578 19.1657L19.3898 18.9976L19.6565 18.8276Z" fill="#F2F2F2" stroke="#195AF4" stroke-width="0.4"/>
<path d="M12.3435 12.9836L7.7 10.0232V6.37475L17.8127 13.1505L7.7 19.7855V16.2326L12.3422 13.3217L12.6102 13.1536L12.3435 12.9836Z" fill="#F2F2F2" stroke="#195AF4" stroke-width="0.4"/>
</g>
<path d="M49.1411 22.7327H54.1075C56.5395 22.7327 57.8963 21.7599 57.8963 19.9423C57.8963 18.1247 56.5651 17.0751 54.1075 17.0751H49.1411V22.7327ZM49.1411 14.7455H53.3139C55.8995 14.7455 57.3075 13.7727 57.3075 12.0831C57.3075 10.2911 56.0019 9.44634 53.3139 9.44634H49.1411V14.7455ZM46.2227 25.2415V6.93754H53.5443C58.1779 6.93754 60.3795 8.44794 60.3795 11.8527C60.3795 13.9775 59.0227 15.4623 56.6931 15.7695C59.2275 16.1279 60.9427 17.6383 60.9427 20.1983C60.9427 23.5519 58.6643 25.2415 54.3379 25.2415H46.2227Z" fill="#F2F2F2"/>
<path d="M63.1055 25.2415V6.42554H65.9471V25.2415H63.1055Z" fill="#F2F2F2"/>
<path d="M71.1775 18.3039C71.1775 21.1967 72.6879 23.1167 75.2223 23.1167C77.7567 23.1167 79.2415 21.1967 79.2415 18.3039C79.2415 15.4367 77.7567 13.5167 75.2223 13.5167C72.6879 13.5167 71.1775 15.4367 71.1775 18.3039ZM68.2591 18.3039C68.2591 14.0031 71.0239 11.0591 75.2223 11.0591C79.4207 11.0591 82.1855 14.0031 82.1855 18.3039C82.1855 22.6303 79.4207 25.5743 75.2223 25.5743C71.0239 25.5743 68.2591 22.6303 68.2591 18.3039Z" fill="#F2F2F2"/>
<path d="M84.0961 18.3039C84.0961 13.9775 86.8353 11.0591 91.0337 11.0591C94.5921 11.0591 97.1009 13.1583 97.7153 16.3839H94.7201C94.2593 14.6175 92.9793 13.5167 91.0593 13.5167C88.4993 13.5167 87.0145 15.4111 87.0145 18.3039C87.0145 21.1967 88.4993 23.1167 91.0593 23.1167C93.0817 23.1167 94.3873 21.8879 94.7713 19.9679H97.7665C97.2289 23.3727 94.6689 25.5743 91.0337 25.5743C86.8353 25.5743 84.0961 22.6303 84.0961 18.3039Z" fill="#F2F2F2"/>
<path d="M99.9421 25.2415V6.42554H102.784V17.3055L109.414 11.3919H113.152L107.008 16.8959L113.382 25.2415H109.926L104.985 18.6367L102.784 20.6335V25.2415H99.9421Z" fill="#F2F2F2"/>
<path d="M114.933 25.2415V6.93754H127.272V9.49754H117.851V15.0527H126.837V17.5615H117.851V25.2415H114.933Z" fill="#F2F2F2"/>
<path d="M129.592 25.2415V11.3919H132.434V25.2415H129.592ZM129.515 9.62554V6.57914H132.536V9.62554H129.515Z" fill="#F2F2F2"/>
<path d="M135.228 25.2415V11.3919H137.865L137.967 14.2335C138.505 12.2623 139.734 11.3919 141.577 11.3919H143.113V14.3615H141.449C139.196 14.3615 138.121 15.5647 138.121 17.7919V25.2415H135.228Z" fill="#F2F2F2"/>
<path d="M144.047 20.6591H146.965C147.093 22.2719 148.245 23.2703 150.524 23.2703C152.188 23.2703 153.519 22.7071 153.519 21.4015C153.519 19.9679 151.957 19.7119 149.756 19.3791C147.298 18.9695 144.38 18.4063 144.38 15.3599C144.38 12.7999 146.479 11.0591 150.063 11.0591C153.852 11.0591 155.925 13.0559 156.207 15.7951H153.314C153.135 14.2847 151.906 13.3631 150.012 13.3631C148.245 13.3631 147.324 14.1567 147.324 15.1295C147.324 16.5119 148.988 16.8191 150.933 17.1263C153.596 17.5871 156.463 18.1247 156.463 21.2479C156.463 24.1663 153.929 25.5743 150.524 25.5743C146.479 25.5743 144.201 23.5775 144.047 20.6591Z" fill="#F2F2F2"/>
<path d="M159.489 20.4543V13.8495H157.288V11.3919H159.489V7.88474H162.382V11.3919H167.272V13.8495H162.382V20.4287C162.382 22.3487 163.176 23.0143 165.147 23.0143C165.71 23.0143 166.504 22.9631 167.272 22.7839V25.2671C166.171 25.4463 165.224 25.5487 164.404 25.5487C161.076 25.5487 159.489 23.9615 159.489 20.4543Z" fill="#F2F2F2"/>
<defs>
<clipPath id="clip0_650_6428">
<rect width="32" height="32" fill="white"/>
</clipPath>
</defs>
</svg>
