<svg width="16" height="16" viewBox="0 0 16 16" fill="none" xmlns="http://www.w3.org/2000/svg">
<g clip-path="url(#clip0_807_9236)">
<path fill-rule="evenodd" clip-rule="evenodd" d="M7.625 5.5C7.90114 5.5 8.125 5.72386 8.125 6V8.39907L9.90235 9.58397C10.1321 9.73715 10.1942 10.0476 10.041 10.2774C9.88785 10.5071 9.57741 10.5692 9.34765 10.416L7.34765 9.08269C7.20855 8.98996 7.125 8.83384 7.125 8.66667V6C7.125 5.72386 7.34886 5.5 7.625 5.5Z" fill="#F2F2F2"/>
<path fill-rule="evenodd" clip-rule="evenodd" d="M0.832031 8.00016C0.832031 4.04212 4.04066 0.833496 7.9987 0.833496C11.9567 0.833496 15.1654 4.04212 15.1654 8.00016C15.1654 11.9582 11.9567 15.1668 7.9987 15.1668C4.04066 15.1668 0.832031 11.9582 0.832031 8.00016ZM7.9987 1.8335C4.59294 1.8335 1.83203 4.59441 1.83203 8.00016C1.83203 11.4059 4.59294 14.1668 7.9987 14.1668C11.4045 14.1668 14.1654 11.4059 14.1654 8.00016C14.1654 4.59441 11.4045 1.8335 7.9987 1.8335Z" fill="#F2F2F2"/>
</g>
<defs>
<clipPath id="clip0_807_9236">
<rect width="16" height="16" fill="white"/>
</clipPath>
</defs>
</svg>
