<svg width="14" height="14" viewBox="0 0 14 14" fill="none" xmlns="http://www.w3.org/2000/svg">
<path d="M9.44547 1.1665H4.55714C2.4338 1.1665 1.16797 2.43234 1.16797 4.55567V9.43817C1.16797 11.5673 2.4338 12.8332 4.55714 12.8332H9.43964C11.563 12.8332 12.8288 11.5673 12.8288 9.44401V4.55567C12.8346 2.43234 11.5688 1.1665 9.44547 1.1665ZM5.91047 8.45817C6.07964 8.62734 6.07964 8.90734 5.91047 9.0765C5.82297 9.164 5.71214 9.20484 5.6013 9.20484C5.49047 9.20484 5.37964 9.164 5.29214 9.0765L3.83964 7.624C3.49547 7.27984 3.49547 6.72567 3.83964 6.3815L5.29214 4.929C5.4613 4.75984 5.7413 4.75984 5.91047 4.929C6.07964 5.09817 6.07964 5.37817 5.91047 5.54734L4.45797 6.99984L5.91047 8.45817ZM10.163 7.61817L8.71047 9.07067C8.62297 9.15817 8.51214 9.19901 8.4013 9.19901C8.29047 9.19901 8.17964 9.15817 8.09213 9.07067C7.92297 8.9015 7.92297 8.6215 8.09213 8.45234L9.54464 6.99984L8.09213 5.5415C7.92297 5.37234 7.92297 5.09234 8.09213 4.92317C8.2613 4.754 8.5413 4.754 8.71047 4.92317L10.163 6.37567C10.5071 6.71984 10.5071 7.27984 10.163 7.61817Z" fill="#F2F2F2"/>
</svg>
