<svg width="14" height="14" viewBox="0 0 14 14" fill="none" xmlns="http://www.w3.org/2000/svg">
<path d="M9.21583 1.28896C8.97667 1.04979 8.5625 1.21313 8.5625 1.54563V3.58146C8.5625 4.43313 9.28583 5.13896 10.1667 5.13896C10.7208 5.14479 11.4908 5.14479 12.15 5.14479C12.4825 5.14479 12.6575 4.75396 12.4242 4.52063C11.5842 3.67479 10.0792 2.15229 9.21583 1.28896Z" fill="#F2F2F2"/>
<path d="M11.957 5.944H10.2712C8.8887 5.944 7.76286 4.81817 7.76286 3.43567V1.74984C7.76286 1.429 7.50036 1.1665 7.17953 1.1665H4.7062C2.90953 1.1665 1.45703 2.33317 1.45703 4.41567V9.584C1.45703 11.6665 2.90953 12.8332 4.7062 12.8332H9.2912C11.0879 12.8332 12.5404 11.6665 12.5404 9.584V6.52734C12.5404 6.2065 12.2779 5.944 11.957 5.944ZM6.70703 10.354H4.3737C4.13453 10.354 3.9362 10.1557 3.9362 9.9165C3.9362 9.67734 4.13453 9.479 4.3737 9.479H6.70703C6.9462 9.479 7.14453 9.67734 7.14453 9.9165C7.14453 10.1557 6.9462 10.354 6.70703 10.354ZM7.8737 8.02067H4.3737C4.13453 8.02067 3.9362 7.82234 3.9362 7.58317C3.9362 7.344 4.13453 7.14567 4.3737 7.14567H7.8737C8.11286 7.14567 8.3112 7.344 8.3112 7.58317C8.3112 7.82234 8.11286 8.02067 7.8737 8.02067Z" fill="#F2F2F2"/>
</svg>
