<svg width="33" height="20" viewBox="0 0 33 20" fill="none" xmlns="http://www.w3.org/2000/svg">
<circle cx="2" cy="10" r="2" fill="#FE20A2"/>
<path d="M9.956 9.524H12.14C13.292 9.524 13.88 9.104 13.88 8.084C13.88 7.052 13.292 6.62 12.14 6.62H9.956V9.524ZM8.588 14V5.42H12.224C14.264 5.42 15.296 6.392 15.296 8.084C15.296 9.776 14.264 10.724 12.224 10.724H9.956V14H8.588ZM16.2169 14V5.42H19.9729C22.0129 5.42 23.0449 6.356 23.0449 8.012C23.0449 9.272 22.4329 10.112 21.2209 10.436L23.2969 14H21.7009L19.8409 10.58H17.5849V14H16.2169ZM17.5849 9.404H19.8889C21.0409 9.404 21.6289 8.996 21.6289 8.024C21.6289 7.04 21.0409 6.62 19.8889 6.62H17.5849V9.404ZM25.0684 9.716C25.0684 11.72 26.1724 12.956 27.8524 12.956C29.5324 12.956 30.6484 11.732 30.6484 9.716C30.6484 7.688 29.5324 6.464 27.8524 6.464C26.1844 6.464 25.0684 7.688 25.0684 9.716ZM23.6404 9.716C23.6404 6.98 25.3204 5.264 27.8524 5.264C30.3964 5.264 32.0644 6.968 32.0644 9.716C32.0644 12.464 30.3964 14.156 27.8524 14.156C25.3204 14.156 23.6404 12.452 23.6404 9.716Z" fill="url(#paint0_linear_748_5957)"/>
<defs>
<linearGradient id="paint0_linear_748_5957" x1="4.93878" y1="20" x2="33.3542" y2="25.1518" gradientUnits="userSpaceOnUse">
<stop stop-color="#FF20A2"/>
<stop offset="1" stop-color="#FF5B20"/>
</linearGradient>
</defs>
</svg>
