<svg width="59" height="20" viewBox="0 0 59 20" fill="none" xmlns="http://www.w3.org/2000/svg">
<circle cx="2" cy="10" r="2" fill="#FE20A2"/>
<path d="M8.18 11.012H9.596C9.728 12.248 10.532 12.968 11.864 12.968C12.992 12.968 13.688 12.464 13.688 11.648C13.688 10.688 12.812 10.472 11.444 10.196C9.812 9.872 8.372 9.464 8.372 7.772C8.372 6.26 9.56 5.264 11.492 5.264C13.64 5.264 14.84 6.548 14.96 8.228H13.544C13.436 7.22 12.716 6.452 11.48 6.452C10.484 6.452 9.8 6.98 9.8 7.736C9.8 8.624 10.772 8.852 11.984 9.092C13.76 9.428 15.116 9.884 15.116 11.576C15.116 13.196 13.784 14.156 11.852 14.156C9.608 14.156 8.264 12.86 8.18 11.012ZM17.8666 14V6.62H15.0946V5.42H22.0066V6.62H19.2346V14H17.8666ZM23.4706 10.604H26.3266L24.8986 6.656L23.4706 10.604ZM20.7706 14L23.9866 5.42H25.8106L29.0146 14H27.5266L26.7226 11.78H23.0626L22.2586 14H20.7706ZM29.4825 14V5.42H33.2385C35.2785 5.42 36.3105 6.356 36.3105 8.012C36.3105 9.272 35.6985 10.112 34.4865 10.436L36.5625 14H34.9665L33.1065 10.58H30.8505V14H29.4825ZM30.8505 9.404H33.1545C34.3065 9.404 34.8945 8.996 34.8945 8.024C34.8945 7.04 34.3065 6.62 33.1545 6.62H30.8505V9.404ZM39.6752 14V6.62H36.9032V5.42H43.8152V6.62H41.0432V14H39.6752ZM44.6114 14V5.42H50.5154V6.62H45.9794V9.104H50.3114V10.28H45.9794V12.8H50.5754V14H44.6114ZM51.5724 14V5.42H55.3284C57.3684 5.42 58.4004 6.356 58.4004 8.012C58.4004 9.272 57.7884 10.112 56.5764 10.436L58.6524 14H57.0564L55.1964 10.58H52.9404V14H51.5724ZM52.9404 9.404H55.2444C56.3964 9.404 56.9844 8.996 56.9844 8.024C56.9844 7.04 56.3964 6.62 55.2444 6.62H52.9404V9.404Z" fill="url(#paint0_linear_748_9131)"/>
<defs>
<linearGradient id="paint0_linear_748_9131" x1="1.7551" y1="20" x2="54.4232" y2="39.4799" gradientUnits="userSpaceOnUse">
<stop stop-color="#FF20A2"/>
<stop offset="1" stop-color="#FF5B20"/>
</linearGradient>
</defs>
</svg>
