<svg width="2" height="40" viewBox="0 0 2 40" fill="none" xmlns="http://www.w3.org/2000/svg">
<mask id="mask0_4442_35584" style="mask-type:alpha" maskUnits="userSpaceOnUse" x="0" y="0" width="2" height="40">
<rect width="2" height="40" fill="#33CF8E"/>
</mask>
<g mask="url(#mask0_4442_35584)">
<rect y="-1" width="2" height="240" fill="#33CF8E"/>
<line x1="-191.633" y1="-82.6523" x2="14.3666" y2="274.15" stroke="#0F1217"/>
<line x1="-188.169" y1="-84.6523" x2="17.8314" y2="272.15" stroke="#0F1217"/>
<line x1="-184.704" y1="-86.6523" x2="21.2963" y2="270.15" stroke="#0F1217"/>
<line x1="-181.243" y1="-88.6523" x2="24.7572" y2="268.15" stroke="#0F1217"/>
<line x1="-177.778" y1="-90.6523" x2="28.2221" y2="266.15" stroke="#0F1217"/>
<line x1="-174.313" y1="-92.6523" x2="31.6869" y2="264.15" stroke="#0F1217"/>
<line x1="-170.848" y1="-94.6523" x2="35.1518" y2="262.15" stroke="#0F1217"/>
<line x1="-167.383" y1="-96.6523" x2="38.6166" y2="260.15" stroke="#0F1217"/>
<line x1="-163.922" y1="-98.6523" x2="42.0775" y2="258.15" stroke="#0F1217"/>
<line x1="-160.458" y1="-100.652" x2="45.5424" y2="256.15" stroke="#0F1217"/>
<line x1="-156.993" y1="-102.652" x2="49.0072" y2="254.15" stroke="#0F1217"/>
<line x1="-153.528" y1="-104.652" x2="52.4721" y2="252.15" stroke="#0F1217"/>
<line x1="-150.063" y1="-106.652" x2="55.9369" y2="250.15" stroke="#0F1217"/>
<line x1="-146.598" y1="-108.652" x2="59.4018" y2="248.15" stroke="#0F1217"/>
<line x1="-143.137" y1="-110.652" x2="62.8627" y2="246.15" stroke="#0F1217"/>
<line x1="-139.672" y1="-112.652" x2="66.3275" y2="244.15" stroke="#0F1217"/>
<line x1="-136.208" y1="-114.652" x2="69.7924" y2="242.15" stroke="#0F1217"/>
<line x1="-132.743" y1="-116.652" x2="73.2572" y2="240.15" stroke="#0F1217"/>
<line x1="-129.278" y1="-118.652" x2="76.7221" y2="238.15" stroke="#0F1217"/>
<line x1="-125.817" y1="-120.652" x2="80.183" y2="236.15" stroke="#0F1217"/>
<line x1="-122.352" y1="-122.652" x2="83.6479" y2="234.15" stroke="#0F1217"/>
<line x1="-118.887" y1="-124.652" x2="87.1127" y2="232.15" stroke="#0F1217"/>
<line x1="-115.422" y1="-126.652" x2="90.5775" y2="230.15" stroke="#0F1217"/>
<line x1="-111.958" y1="-128.652" x2="94.0424" y2="228.15" stroke="#0F1217"/>
<line x1="-108.497" y1="-130.652" x2="97.5033" y2="226.15" stroke="#0F1217"/>
<line x1="-105.032" y1="-132.652" x2="100.968" y2="224.15" stroke="#0F1217"/>
<line x1="-101.567" y1="-134.652" x2="104.433" y2="222.15" stroke="#0F1217"/>
<line x1="-98.1021" y1="-136.652" x2="107.898" y2="220.15" stroke="#0F1217"/>
<line x1="-94.6373" y1="-138.652" x2="111.363" y2="218.15" stroke="#0F1217"/>
<line x1="-91.1764" y1="-140.652" x2="114.824" y2="216.15" stroke="#0F1217"/>
<line x1="-87.7115" y1="-142.652" x2="118.288" y2="214.15" stroke="#0F1217"/>
<line x1="-84.2467" y1="-144.652" x2="121.753" y2="212.15" stroke="#0F1217"/>
<line x1="-80.7818" y1="-146.652" x2="125.218" y2="210.15" stroke="#0F1217"/>
<line x1="-77.317" y1="-148.652" x2="128.683" y2="208.15" stroke="#0F1217"/>
<line x1="-73.8521" y1="-150.652" x2="132.148" y2="206.15" stroke="#0F1217"/>
<line x1="-70.3912" y1="-152.652" x2="135.609" y2="204.15" stroke="#0F1217"/>
<line x1="-66.9264" y1="-154.652" x2="139.074" y2="202.15" stroke="#0F1217"/>
<line x1="-63.4615" y1="-156.652" x2="142.538" y2="200.15" stroke="#0F1217"/>
<line x1="-59.9967" y1="-158.652" x2="146.003" y2="198.15" stroke="#0F1217"/>
<line x1="-56.5318" y1="-160.652" x2="149.468" y2="196.15" stroke="#0F1217"/>
<line x1="-53.0709" y1="-162.652" x2="152.929" y2="194.15" stroke="#0F1217"/>
<line x1="-49.606" y1="-164.652" x2="156.394" y2="192.15" stroke="#0F1217"/>
<line x1="-46.1412" y1="-166.652" x2="159.859" y2="190.15" stroke="#0F1217"/>
<line x1="-42.6764" y1="-168.652" x2="163.324" y2="188.15" stroke="#0F1217"/>
<line x1="-39.2115" y1="-170.652" x2="166.788" y2="186.15" stroke="#0F1217"/>
<line x1="-35.7506" y1="-172.652" x2="170.249" y2="184.15" stroke="#0F1217"/>
<line x1="-32.2857" y1="-174.652" x2="173.714" y2="182.15" stroke="#0F1217"/>
<line x1="-28.8209" y1="-176.652" x2="177.179" y2="180.15" stroke="#0F1217"/>
<line x1="-25.356" y1="-178.652" x2="180.644" y2="178.15" stroke="#0F1217"/>
<line x1="-21.8912" y1="-180.652" x2="184.109" y2="176.15" stroke="#0F1217"/>
<line x1="-18.4303" y1="-182.652" x2="187.57" y2="174.15" stroke="#0F1217"/>
<line x1="-14.9654" y1="-184.652" x2="191.035" y2="172.15" stroke="#0F1217"/>
<line x1="-11.5006" y1="-186.652" x2="194.499" y2="170.15" stroke="#0F1217"/>
</g>
</svg>
