<svg width="1260" height="925" viewBox="0 0 1260 925" fill="none" xmlns="http://www.w3.org/2000/svg">
<g clip-path="url(#clip0_1022_12808)">
<g clip-path="url(#clip1_1022_12808)">
<mask id="mask0_1022_12808" style="mask-type:alpha" maskUnits="userSpaceOnUse" x="-353" y="-330" width="1842" height="1599">
<path d="M1187.5 -12.5C1580.93 6 1372.26 244.716 1372.26 461.999C1372.26 679.283 1697.67 947 1261 947C1169.33 947 710.77 1315.67 450.858 1263.1C94.73 1191.07 -352.477 587.609 -352.477 461.999C-352.477 336.39 -199.198 -252.078 156.93 -324.109C416.842 -376.679 1095.83 -12.5 1187.5 -12.5Z" fill="url(#paint0_linear_1022_12808)"/>
</mask>
<g mask="url(#mask0_1022_12808)">
<g filter="url(#filter0_f_1022_12808)">
<path d="M1382.76 462C1382.76 728.276 1166.9 944.136 900.627 944.136C634.35 944.136 418.49 728.276 418.49 462C418.49 195.723 634.35 -20.1367 900.627 -20.1367C1166.9 -20.1367 1382.76 195.723 1382.76 462ZM844.845 462C844.845 492.807 869.819 517.781 900.627 517.781C931.434 517.781 956.408 492.807 956.408 462C956.408 431.192 931.434 406.218 900.627 406.218C869.819 406.218 844.845 431.192 844.845 462Z" fill="url(#paint1_radial_1022_12808)"/>
</g>
</g>
</g>
</g>
<defs>
<filter id="filter0_f_1022_12808" x="18.4902" y="-420.137" width="1764.27" height="1764.27" filterUnits="userSpaceOnUse" color-interpolation-filters="sRGB">
<feFlood flood-opacity="0" result="BackgroundImageFix"/>
<feBlend mode="normal" in="SourceGraphic" in2="BackgroundImageFix" result="shape"/>
<feGaussianBlur stdDeviation="200" result="effect1_foregroundBlur_1022_12808"/>
</filter>
<linearGradient id="paint0_linear_1022_12808" x1="585.398" y1="461.999" x2="1372.25" y2="461.999" gradientUnits="userSpaceOnUse">
<stop stop-color="#2388FF"/>
<stop offset="1" stop-color="#2388FF" stop-opacity="0"/>
</linearGradient>
<radialGradient id="paint1_radial_1022_12808" cx="0" cy="0" r="1" gradientUnits="userSpaceOnUse" gradientTransform="translate(640.547 874.173) rotate(-47.765) scale(1010.68 1333.61)">
<stop offset="0.056982"/>
<stop offset="0.718699" stop-color="#195AF4"/>
<stop offset="0.970352" stop-color="#195AF4"/>
</radialGradient>
<clipPath id="clip0_1022_12808">
<rect width="1260" height="925" fill="white"/>
</clipPath>
<clipPath id="clip1_1022_12808">
<path d="M-131 -10C-131 -32.0914 -113.091 -50 -91 -50H1269C1291.09 -50 1309 -32.0914 1309 -10V934C1309 956.091 1291.09 974 1269 974H-91C-113.091 974 -131 956.091 -131 934V-10Z" fill="white"/>
</clipPath>
</defs>
</svg>
