<svg width="1260" height="925" viewBox="0 0 1260 925" fill="none" xmlns="http://www.w3.org/2000/svg">
<g clip-path="url(#clip0_594_7219)">
<path opacity="0.7" d="M0.764936 110.485H-34.1865V145.437M0.764936 110.485V145.437M0.764936 110.485H35.7164M0.764936 145.437H-34.1865M0.764936 145.437V180.388M0.764936 145.437H35.7164M-34.1865 145.437V180.388M0.764936 180.388H-34.1865M0.764936 180.388V215.339M0.764936 180.388H35.7164M-34.1865 180.388V215.339M0.764936 215.339H-34.1865M0.764936 215.339V250.291M0.764936 215.339H35.7164M-34.1865 215.339V250.291M0.764936 250.291H-34.1865M0.764936 250.291V285.242M0.764936 250.291H35.7164M-34.1865 250.291V285.242M0.764936 285.242H-34.1865M0.764936 285.242V320.194M0.764936 285.242H35.7164M-34.1865 285.242V320.194M0.764936 320.194H-34.1865M0.764936 320.194V355.145M0.764936 320.194H35.7164M-34.1865 320.194V355.145M0.764936 355.145H-34.1865M0.764936 355.145V390.097M0.764936 355.145H35.7164M-34.1865 355.145V390.097M0.764936 390.097H-34.1865M0.764936 390.097V425.048M0.764936 390.097H35.7164M-34.1865 390.097V425.048M0.764936 425.048H-34.1865M0.764936 425.048V460M0.764936 425.048H35.7164M-34.1865 425.048V460M0.764936 460H-34.1865M0.764936 460V494.951M0.764936 460H35.7164M-34.1865 460V494.951M0.764936 494.951H-34.1865M0.764936 494.951V529.903M0.764936 494.951H35.7164M-34.1865 494.951V529.903M0.764936 529.903H-34.1865M0.764936 529.903V564.854M0.764936 529.903H35.7164M-34.1865 529.903V564.854M0.764936 564.854H-34.1865M0.764936 564.854V599.805M0.764936 564.854H35.7164M-34.1865 564.854V599.805M0.764936 599.805H-34.1865M0.764936 599.805V634.757M0.764936 599.805H35.7164M-34.1865 599.805V634.757M0.764936 634.757H-34.1865M0.764936 634.757V669.708M0.764936 634.757H35.7164M-34.1865 634.757V669.708M0.764936 669.708H-34.1865M0.764936 669.708V704.66M0.764936 669.708H35.7164M-34.1865 669.708V704.66M0.764936 704.66H-34.1865M0.764936 704.66V739.611M0.764936 704.66H35.7164M-34.1865 704.66V739.611M0.764936 739.611H-34.1865M0.764936 739.611V774.563M0.764936 739.611H35.7164M-34.1865 739.611V774.563M0.764936 774.563H-34.1865M0.764936 774.563V809.514M0.764936 774.563H35.7164M-34.1865 774.563V809.514H0.764936M0.764936 809.514H35.7164M35.7164 110.485V145.437M35.7164 110.485H70.6678M35.7164 145.437V180.388M35.7164 145.437H70.6678M35.7164 180.388V215.339M35.7164 180.388H70.6678M35.7164 215.339V250.291M35.7164 215.339H70.6678M35.7164 250.291V285.242M35.7164 250.291H70.6678M35.7164 285.242V320.194M35.7164 285.242H70.6678M35.7164 320.194V355.145M35.7164 320.194H70.6678M35.7164 355.145V390.097M35.7164 355.145H70.6678M35.7164 390.097V425.048M35.7164 390.097H70.6678M35.7164 425.048V460M35.7164 425.048H70.6678M35.7164 460V494.951M35.7164 460H70.6678M35.7164 494.951V529.903M35.7164 494.951H70.6678M35.7164 529.903V564.854M35.7164 529.903H70.6678M35.7164 564.854V599.805M35.7164 564.854H70.6678M35.7164 599.805V634.757M35.7164 599.805H70.6678M35.7164 634.757V669.708M35.7164 634.757H70.6678M35.7164 669.708V704.66M35.7164 669.708H70.6678M35.7164 704.66V739.611M35.7164 704.66H70.6678M35.7164 739.611V774.563M35.7164 739.611H70.6678M35.7164 774.563V809.514M35.7164 774.563H70.6678M35.7164 809.514H70.6678M70.6678 110.485V145.437M70.6678 110.485H105.619M70.6678 145.437V180.388M70.6678 145.437H105.619M70.6678 180.388V215.339M70.6678 180.388H105.619M70.6678 215.339V250.291M70.6678 215.339H105.619M70.6678 250.291V285.242M70.6678 250.291H105.619M70.6678 285.242V320.194M70.6678 285.242H105.619M70.6678 320.194V355.145M70.6678 320.194H105.619M70.6678 355.145V390.097M70.6678 355.145H105.619M70.6678 390.097V425.048M70.6678 390.097H105.619M70.6678 425.048V460M70.6678 425.048H105.619M70.6678 460V494.951M70.6678 460H105.619M70.6678 494.951V529.903M70.6678 494.951H105.619M70.6678 529.903V564.854M70.6678 529.903H105.619M70.6678 564.854V599.805M70.6678 564.854H105.619M70.6678 599.805V634.757M70.6678 599.805H105.619M70.6678 634.757V669.708M70.6678 634.757H105.619M70.6678 669.708V704.66M70.6678 669.708H105.619M70.6678 704.66V739.611M70.6678 704.66H105.619M70.6678 739.611V774.563M70.6678 739.611H105.619M70.6678 774.563V809.514M70.6678 774.563H105.619M70.6678 809.514H105.619M105.619 110.485V145.437M105.619 110.485H140.571M105.619 145.437V180.388M105.619 145.437H140.571M105.619 180.388V215.339M105.619 180.388H140.571M105.619 215.339V250.291M105.619 215.339H140.571M105.619 250.291V285.242M105.619 250.291H140.571M105.619 285.242V320.194M105.619 285.242H140.571M105.619 320.194V355.145M105.619 320.194H140.571M105.619 355.145V390.097M105.619 355.145H140.571M105.619 390.097V425.048M105.619 390.097H140.571M105.619 425.048V460M105.619 425.048H140.571M105.619 460V494.951M105.619 460H140.571M105.619 494.951V529.903M105.619 494.951H140.571M105.619 529.903V564.854M105.619 529.903H140.571M105.619 564.854V599.805M105.619 564.854H140.571M105.619 599.805V634.757M105.619 599.805H140.571M105.619 634.757V669.708M105.619 634.757H140.571M105.619 669.708V704.66M105.619 669.708H140.571M105.619 704.66V739.611M105.619 704.66H140.571M105.619 739.611V774.563M105.619 739.611H140.571M105.619 774.563V809.514M105.619 774.563H140.571M105.619 809.514H140.571M140.571 110.485V145.437M140.571 110.485H175.522M140.571 145.437V180.388M140.571 145.437H175.522M140.571 180.388V215.339M140.571 180.388H175.522M140.571 215.339V250.291M140.571 215.339H175.522M140.571 250.291V285.242M140.571 250.291H175.522M140.571 285.242V320.194M140.571 285.242H175.522M140.571 320.194V355.145M140.571 320.194H175.522M140.571 355.145V390.097M140.571 355.145H175.522M140.571 390.097V425.048M140.571 390.097H175.522M140.571 425.048V460M140.571 425.048H175.522M140.571 460V494.951M140.571 460H175.522M140.571 494.951V529.903M140.571 494.951H175.522M140.571 529.903V564.854M140.571 529.903H175.522M140.571 564.854V599.805M140.571 564.854H175.522M140.571 599.805V634.757M140.571 599.805H175.522M140.571 634.757V669.708M140.571 634.757H175.522M140.571 669.708V704.66M140.571 669.708H175.522M140.571 704.66V739.611M140.571 704.66H175.522M140.571 739.611V774.563M140.571 739.611H175.522M140.571 774.563V809.514M140.571 774.563H175.522M140.571 809.514H175.522M175.522 110.485V145.437M175.522 110.485H210.474M175.522 145.437V180.388M175.522 145.437H210.474M175.522 180.388V215.339M175.522 180.388H210.474M175.522 215.339V250.291M175.522 215.339H210.474M175.522 250.291V285.242M175.522 250.291H210.474M175.522 285.242V320.194M175.522 285.242H210.474M175.522 320.194V355.145M175.522 320.194H210.474M175.522 355.145V390.097M175.522 355.145H210.474M175.522 390.097V425.048M175.522 390.097H210.474M175.522 425.048V460M175.522 425.048H210.474M175.522 460V494.951M175.522 460H210.474M175.522 494.951V529.903M175.522 494.951H210.474M175.522 529.903V564.854M175.522 529.903H210.474M175.522 564.854V599.805M175.522 564.854H210.474M175.522 599.805V634.757M175.522 599.805H210.474M175.522 634.757V669.708M175.522 634.757H210.474M175.522 669.708V704.66M175.522 669.708H210.474M175.522 704.66V739.611M175.522 704.66H210.474M175.522 739.611V774.563M175.522 739.611H210.474M175.522 774.563V809.514M175.522 774.563H210.474M175.522 809.514H210.474M210.474 110.485V145.437M210.474 110.485H245.425M210.474 145.437V180.388M210.474 145.437H245.425M210.474 180.388V215.339M210.474 180.388H245.425M210.474 215.339V250.291M210.474 215.339H245.425M210.474 250.291V285.242M210.474 250.291H245.425M210.474 285.242V320.194M210.474 285.242H245.425M210.474 320.194V355.145M210.474 320.194H245.425M210.474 355.145V390.097M210.474 355.145H245.425M210.474 390.097V425.048M210.474 390.097H245.425M210.474 425.048V460M210.474 425.048H245.425M210.474 460V494.951M210.474 460H245.425M210.474 494.951V529.903M210.474 494.951H245.425M210.474 529.903V564.854M210.474 529.903H245.425M210.474 564.854V599.805M210.474 564.854H245.425M210.474 599.805V634.757M210.474 599.805H245.425M210.474 634.757V669.708M210.474 634.757H245.425M210.474 669.708V704.66M210.474 669.708H245.425M210.474 704.66V739.611M210.474 704.66H245.425M210.474 739.611V774.563M210.474 739.611H245.425M210.474 774.563V809.514M210.474 774.563H245.425M210.474 809.514H245.425M245.425 110.485V145.437M245.425 110.485H280.377M245.425 145.437V180.388M245.425 145.437H280.377M245.425 180.388V215.339M245.425 180.388H280.377M245.425 215.339V250.291M245.425 215.339H280.377M245.425 250.291V285.242M245.425 250.291H280.377M245.425 285.242V320.194M245.425 285.242H280.377M245.425 320.194V355.145M245.425 320.194H280.377M245.425 355.145V390.097M245.425 355.145H280.377M245.425 390.097V425.048M245.425 390.097H280.377M245.425 425.048V460M245.425 425.048H280.377M245.425 460V494.951M245.425 460H280.377M245.425 494.951V529.903M245.425 494.951H280.377M245.425 529.903V564.854M245.425 529.903H280.377M245.425 564.854V599.805M245.425 564.854H280.377M245.425 599.805V634.757M245.425 599.805H280.377M245.425 634.757V669.708M245.425 634.757H280.377M245.425 669.708V704.66M245.425 669.708H280.377M245.425 704.66V739.611M245.425 704.66H280.377M245.425 739.611V774.563M245.425 739.611H280.377M245.425 774.563V809.514M245.425 774.563H280.377M245.425 809.514H280.377M280.377 110.485V145.437M280.377 110.485H315.328M280.377 145.437V180.388M280.377 145.437H315.328M280.377 180.388V215.339M280.377 180.388H315.328M280.377 215.339V250.291M280.377 215.339H315.328M280.377 250.291V285.242M280.377 250.291H315.328M280.377 285.242V320.194M280.377 285.242H315.328M280.377 320.194V355.145M280.377 320.194H315.328M280.377 355.145V390.097M280.377 355.145H315.328M280.377 390.097V425.048M280.377 390.097H315.328M280.377 425.048V460M280.377 425.048H315.328M280.377 460V494.951M280.377 460H315.328M280.377 494.951V529.903M280.377 494.951H315.328M280.377 529.903V564.854M280.377 529.903H315.328M280.377 564.854V599.805M280.377 564.854H315.328M280.377 599.805V634.757M280.377 599.805H315.328M280.377 634.757V669.708M280.377 634.757H315.328M280.377 669.708V704.66M280.377 669.708H315.328M280.377 704.66V739.611M280.377 704.66H315.328M280.377 739.611V774.563M280.377 739.611H315.328M280.377 774.563V809.514M280.377 774.563H315.328M280.377 809.514H315.328M315.328 110.485V145.437M315.328 110.485H350.28M315.328 145.437V180.388M315.328 145.437H350.28M315.328 180.388V215.339M315.328 180.388H350.28M315.328 215.339V250.291M315.328 215.339H350.28M315.328 250.291V285.242M315.328 250.291H350.28M315.328 285.242V320.194M315.328 285.242H350.28M315.328 320.194V355.145M315.328 320.194H350.28M315.328 355.145V390.097M315.328 355.145H350.28M315.328 390.097V425.048M315.328 390.097H350.28M315.328 425.048V460M315.328 425.048H350.28M315.328 460V494.951M315.328 460H350.28M315.328 494.951V529.903M315.328 494.951H350.28M315.328 529.903V564.854M315.328 529.903H350.28M315.328 564.854V599.805M315.328 564.854H350.28M315.328 599.805V634.757M315.328 599.805H350.28M315.328 634.757V669.708M315.328 634.757H350.28M315.328 669.708V704.66M315.328 669.708H350.28M315.328 704.66V739.611M315.328 704.66H350.28M315.328 739.611V774.563M315.328 739.611H350.28M315.328 774.563V809.514M315.328 774.563H350.28M315.328 809.514H350.28M350.28 110.485V145.437M350.28 110.485H385.231M350.28 145.437V180.388M350.28 145.437H385.231M350.28 180.388V215.339M350.28 180.388H385.231M350.28 215.339V250.291M350.28 215.339H385.231M350.28 250.291V285.242M350.28 250.291H385.231M350.28 285.242V320.194M350.28 285.242H385.231M350.28 320.194V355.145M350.28 320.194H385.231M350.28 355.145V390.097M350.28 355.145H385.231M350.28 390.097V425.048M350.28 390.097H385.231M350.28 425.048V460M350.28 425.048H385.231M350.28 460V494.951M350.28 460H385.231M350.28 494.951V529.903M350.28 494.951H385.231M350.28 529.903V564.854M350.28 529.903H385.231M350.28 564.854V599.805M350.28 564.854H385.231M350.28 599.805V634.757M350.28 599.805H385.231M350.28 634.757V669.708M350.28 634.757H385.231M350.28 669.708V704.66M350.28 669.708H385.231M350.28 704.66V739.611M350.28 704.66H385.231M350.28 739.611V774.563M350.28 739.611H385.231M350.28 774.563V809.514M350.28 774.563H385.231M350.28 809.514H385.231M385.231 110.485V145.437M385.231 110.485H420.182M385.231 145.437V180.388M385.231 145.437H420.182M385.231 180.388V215.339M385.231 180.388H420.182M385.231 215.339V250.291M385.231 215.339H420.182M385.231 250.291V285.242M385.231 250.291H420.182M385.231 285.242V320.194M385.231 285.242H420.182M385.231 320.194V355.145M385.231 320.194H420.182M385.231 355.145V390.097M385.231 355.145H420.182M385.231 390.097V425.048M385.231 390.097H420.182M385.231 425.048V460M385.231 425.048H420.182M385.231 460V494.951M385.231 460H420.182M385.231 494.951V529.903M385.231 494.951H420.182M385.231 529.903V564.854M385.231 529.903H420.182M385.231 564.854V599.805M385.231 564.854H420.182M385.231 599.805V634.757M385.231 599.805H420.182M385.231 634.757V669.708M385.231 634.757H420.182M385.231 669.708V704.66M385.231 669.708H420.182M385.231 704.66V739.611M385.231 704.66H420.182M385.231 739.611V774.563M385.231 739.611H420.182M385.231 774.563V809.514M385.231 774.563H420.182M385.231 809.514H420.182M420.182 110.485V145.437M420.182 110.485H455.134M420.182 145.437V180.388M420.182 145.437H455.134M420.182 180.388V215.339M420.182 180.388H455.134M420.182 215.339V250.291M420.182 215.339H455.134M420.182 250.291V285.242M420.182 250.291H455.134M420.182 285.242V320.194M420.182 285.242H455.134M420.182 320.194V355.145M420.182 320.194H455.134M420.182 355.145V390.097M420.182 355.145H455.134M420.182 390.097V425.048M420.182 390.097H455.134M420.182 425.048V460M420.182 425.048H455.134M420.182 460V494.951M420.182 460H455.134M420.182 494.951V529.903M420.182 494.951H455.134M420.182 529.903V564.854M420.182 529.903H455.134M420.182 564.854V599.805M420.182 564.854H455.134M420.182 599.805V634.757M420.182 599.805H455.134M420.182 634.757V669.708M420.182 634.757H455.134M420.182 669.708V704.66M420.182 669.708H455.134M420.182 704.66V739.611M420.182 704.66H455.134M420.182 739.611V774.563M420.182 739.611H455.134M420.182 774.563V809.514M420.182 774.563H455.134M420.182 809.514H455.134M455.134 110.485V145.437M455.134 110.485H490.085M455.134 145.437V180.388M455.134 145.437H490.085M455.134 180.388V215.339M455.134 180.388H490.085M455.134 215.339V250.291M455.134 215.339H490.085M455.134 250.291V285.242M455.134 250.291H490.085M455.134 285.242V320.194M455.134 285.242H490.085M455.134 320.194V355.145M455.134 320.194H490.085M455.134 355.145V390.097M455.134 355.145H490.085M455.134 390.097V425.048M455.134 390.097H490.085M455.134 425.048V460M455.134 425.048H490.085M455.134 460V494.951M455.134 460H490.085M455.134 494.951V529.903M455.134 494.951H490.085M455.134 529.903V564.854M455.134 529.903H490.085M455.134 564.854V599.805M455.134 564.854H490.085M455.134 599.805V634.757M455.134 599.805H490.085M455.134 634.757V669.708M455.134 634.757H490.085M455.134 669.708V704.66M455.134 669.708H490.085M455.134 704.66V739.611M455.134 704.66H490.085M455.134 739.611V774.563M455.134 739.611H490.085M455.134 774.563V809.514M455.134 774.563H490.085M455.134 809.514H490.085M490.085 110.485V145.437M490.085 110.485H525.037M490.085 145.437V180.388M490.085 145.437H525.037M490.085 180.388V215.339M490.085 180.388H525.037M490.085 215.339V250.291M490.085 215.339H525.037M490.085 250.291V285.242M490.085 250.291H525.037M490.085 285.242V320.194M490.085 285.242H525.037M490.085 320.194V355.145M490.085 320.194H525.037M490.085 355.145V390.097M490.085 355.145H525.037M490.085 390.097V425.048M490.085 390.097H525.037M490.085 425.048V460M490.085 425.048H525.037M490.085 460V494.951M490.085 460H525.037M490.085 494.951V529.903M490.085 494.951H525.037M490.085 529.903V564.854M490.085 529.903H525.037M490.085 564.854V599.805M490.085 564.854H525.037M490.085 599.805V634.757M490.085 599.805H525.037M490.085 634.757V669.708M490.085 634.757H525.037M490.085 669.708V704.66M490.085 669.708H525.037M490.085 704.66V739.611M490.085 704.66H525.037M490.085 739.611V774.563M490.085 739.611H525.037M490.085 774.563V809.514M490.085 774.563H525.037M490.085 809.514H525.037M525.037 110.485V145.437M525.037 110.485H559.988M525.037 145.437V180.388M525.037 145.437H559.988M525.037 180.388V215.339M525.037 180.388H559.988M525.037 215.339V250.291M525.037 215.339H559.988M525.037 250.291V285.242M525.037 250.291H559.988M525.037 285.242V320.194M525.037 285.242H559.988M525.037 320.194V355.145M525.037 320.194H559.988M525.037 355.145V390.097M525.037 355.145H559.988M525.037 390.097V425.048M525.037 390.097H559.988M525.037 425.048V460M525.037 425.048H559.988M525.037 460V494.951M525.037 460H559.988M525.037 494.951V529.903M525.037 494.951H559.988M525.037 529.903V564.854M525.037 529.903H559.988M525.037 564.854V599.805M525.037 564.854H559.988M525.037 599.805V634.757M525.037 599.805H559.988M525.037 634.757V669.708M525.037 634.757H559.988M525.037 669.708V704.66M525.037 669.708H559.988M525.037 704.66V739.611M525.037 704.66H559.988M525.037 739.611V774.563M525.037 739.611H559.988M525.037 774.563V809.514M525.037 774.563H559.988M525.037 809.514H559.988M559.988 110.485V145.437M559.988 110.485H594.94M559.988 145.437V180.388M559.988 145.437H594.94M559.988 180.388V215.339M559.988 180.388H594.94M559.988 215.339V250.291M559.988 215.339H594.94M559.988 250.291V285.242M559.988 250.291H594.94M559.988 285.242V320.194M559.988 285.242H594.94M559.988 320.194V355.145M559.988 320.194H594.94M559.988 355.145V390.097M559.988 355.145H594.94M559.988 390.097V425.048M559.988 390.097H594.94M559.988 425.048V460M559.988 425.048H594.94M559.988 460V494.951M559.988 460H594.94M559.988 494.951V529.903M559.988 494.951H594.94M559.988 529.903V564.854M559.988 529.903H594.94M559.988 564.854V599.805M559.988 564.854H594.94M559.988 599.805V634.757M559.988 599.805H594.94M559.988 634.757V669.708M559.988 634.757H594.94M559.988 669.708V704.66M559.988 669.708H594.94M559.988 704.66V739.611M559.988 704.66H594.94M559.988 739.611V774.563M559.988 739.611H594.94M559.988 774.563V809.514M559.988 774.563H594.94M559.988 809.514H594.94M594.94 110.485V145.437M594.94 110.485H629.891M594.94 145.437V180.388M594.94 145.437H629.891M594.94 180.388V215.339M594.94 180.388H629.891M594.94 215.339V250.291M594.94 215.339H629.891M594.94 250.291V285.242M594.94 250.291H629.891M594.94 285.242V320.194M594.94 285.242H629.891M594.94 320.194V355.145M594.94 320.194H629.891M594.94 355.145V390.097M594.94 355.145H629.891M594.94 390.097V425.048M594.94 390.097H629.891M594.94 425.048V460M594.94 425.048H629.891M594.94 460V494.951M594.94 460H629.891M594.94 494.951V529.903M594.94 494.951H629.891M594.94 529.903V564.854M594.94 529.903H629.891M594.94 564.854V599.805M594.94 564.854H629.891M594.94 599.805V634.757M594.94 599.805H629.891M594.94 634.757V669.708M594.94 634.757H629.891M594.94 669.708V704.66M594.94 669.708H629.891M594.94 704.66V739.611M594.94 704.66H629.891M594.94 739.611V774.563M594.94 739.611H629.891M594.94 774.563V809.514M594.94 774.563H629.891M594.94 809.514H629.891M629.891 110.485V145.437M629.891 110.485H664.843M629.891 145.437V180.388M629.891 145.437H664.843M629.891 180.388V215.339M629.891 180.388H664.843M629.891 215.339V250.291M629.891 215.339H664.843M629.891 250.291V285.242M629.891 250.291H664.843M629.891 285.242V320.194M629.891 285.242H664.843M629.891 320.194V355.145M629.891 320.194H664.843M629.891 355.145V390.097M629.891 355.145H664.843M629.891 390.097V425.048M629.891 390.097H664.843M629.891 425.048V460M629.891 425.048H664.843M629.891 460V494.951M629.891 460H664.843M629.891 494.951V529.903M629.891 494.951H664.843M629.891 529.903V564.854M629.891 529.903H664.843M629.891 564.854V599.805M629.891 564.854H664.843M629.891 599.805V634.757M629.891 599.805H664.843M629.891 634.757V669.708M629.891 634.757H664.843M629.891 669.708V704.66M629.891 669.708H664.843M629.891 704.66V739.611M629.891 704.66H664.843M629.891 739.611V774.563M629.891 739.611H664.843M629.891 774.563V809.514M629.891 774.563H664.843M629.891 809.514H664.843M664.843 110.485V145.437M664.843 110.485H699.794M664.843 145.437V180.388M664.843 145.437H699.794M664.843 180.388V215.339M664.843 180.388H699.794M664.843 215.339V250.291M664.843 215.339H699.794M664.843 250.291V285.242M664.843 250.291H699.794M664.843 285.242V320.194M664.843 285.242H699.794M664.843 320.194V355.145M664.843 320.194H699.794M664.843 355.145V390.097M664.843 355.145H699.794M664.843 390.097V425.048M664.843 390.097H699.794M664.843 425.048V460M664.843 425.048H699.794M664.843 460V494.951M664.843 460H699.794M664.843 494.951V529.903M664.843 494.951H699.794M664.843 529.903V564.854M664.843 529.903H699.794M664.843 564.854V599.805M664.843 564.854H699.794M664.843 599.805V634.757M664.843 599.805H699.794M664.843 634.757V669.708M664.843 634.757H699.794M664.843 669.708V704.66M664.843 669.708H699.794M664.843 704.66V739.611M664.843 704.66H699.794M664.843 739.611V774.563M664.843 739.611H699.794M664.843 774.563V809.514M664.843 774.563H699.794M664.843 809.514H699.794M699.794 110.485V145.437M699.794 110.485H734.746M699.794 145.437V180.388M699.794 145.437H734.746M699.794 180.388V215.339M699.794 180.388H734.746M699.794 215.339V250.291M699.794 215.339H734.746M699.794 250.291V285.242M699.794 250.291H734.746M699.794 285.242V320.194M699.794 285.242H734.746M699.794 320.194V355.145M699.794 320.194H734.746M699.794 355.145V390.097M699.794 355.145H734.746M699.794 390.097V425.048M699.794 390.097H734.746M699.794 425.048V460M699.794 425.048H734.746M699.794 460V494.951M699.794 460H734.746M699.794 494.951V529.903M699.794 494.951H734.746M699.794 529.903V564.854M699.794 529.903H734.746M699.794 564.854V599.805M699.794 564.854H734.746M699.794 599.805V634.757M699.794 599.805H734.746M699.794 634.757V669.708M699.794 634.757H734.746M699.794 669.708V704.66M699.794 669.708H734.746M699.794 704.66V739.611M699.794 704.66H734.746M699.794 739.611V774.563M699.794 739.611H734.746M699.794 774.563V809.514M699.794 774.563H734.746M699.794 809.514H734.746M734.746 110.485V145.437M734.746 110.485H769.697M734.746 145.437V180.388M734.746 145.437H769.697M734.746 180.388V215.339M734.746 180.388H769.697M734.746 215.339V250.291M734.746 215.339H769.697M734.746 250.291V285.242M734.746 250.291H769.697M734.746 285.242V320.194M734.746 285.242H769.697M734.746 320.194V355.145M734.746 320.194H769.697M734.746 355.145V390.097M734.746 355.145H769.697M734.746 390.097V425.048M734.746 390.097H769.697M734.746 425.048V460M734.746 425.048H769.697M734.746 460V494.951M734.746 460H769.697M734.746 494.951V529.903M734.746 494.951H769.697M734.746 529.903V564.854M734.746 529.903H769.697M734.746 564.854V599.805M734.746 564.854H769.697M734.746 599.805V634.757M734.746 599.805H769.697M734.746 634.757V669.708M734.746 634.757H769.697M734.746 669.708V704.66M734.746 669.708H769.697M734.746 704.66V739.611M734.746 704.66H769.697M734.746 739.611V774.563M734.746 739.611H769.697M734.746 774.563V809.514M734.746 774.563H769.697M734.746 809.514H769.697M769.697 110.485V145.437M769.697 110.485H804.648M769.697 145.437V180.388M769.697 145.437H804.648M769.697 180.388V215.339M769.697 180.388H804.648M769.697 215.339V250.291M769.697 215.339H804.648M769.697 250.291V285.242M769.697 250.291H804.648M769.697 285.242V320.194M769.697 285.242H804.648M769.697 320.194V355.145M769.697 320.194H804.648M769.697 355.145V390.097M769.697 355.145H804.648M769.697 390.097V425.048M769.697 390.097H804.648M769.697 425.048V460M769.697 425.048H804.648M769.697 460V494.951M769.697 460H804.648M769.697 494.951V529.903M769.697 494.951H804.648M769.697 529.903V564.854M769.697 529.903H804.648M769.697 564.854V599.805M769.697 564.854H804.648M769.697 599.805V634.757M769.697 599.805H804.648M769.697 634.757V669.708M769.697 634.757H804.648M769.697 669.708V704.66M769.697 669.708H804.648M769.697 704.66V739.611M769.697 704.66H804.648M769.697 739.611V774.563M769.697 739.611H804.648M769.697 774.563V809.514M769.697 774.563H804.648M769.697 809.514H804.648M804.648 110.485V145.437M804.648 110.485H839.6M804.648 145.437V180.388M804.648 145.437H839.6M804.648 180.388V215.339M804.648 180.388H839.6M804.648 215.339V250.291M804.648 215.339H839.6M804.648 250.291V285.242M804.648 250.291H839.6M804.648 285.242V320.194M804.648 285.242H839.6M804.648 320.194V355.145M804.648 320.194H839.6M804.648 355.145V390.097M804.648 355.145H839.6M804.648 390.097V425.048M804.648 390.097H839.6M804.648 425.048V460M804.648 425.048H839.6M804.648 460V494.951M804.648 460H839.6M804.648 494.951V529.903M804.648 494.951H839.6M804.648 529.903V564.854M804.648 529.903H839.6M804.648 564.854V599.805M804.648 564.854H839.6M804.648 599.805V634.757M804.648 599.805H839.6M804.648 634.757V669.708M804.648 634.757H839.6M804.648 669.708V704.66M804.648 669.708H839.6M804.648 704.66V739.611M804.648 704.66H839.6M804.648 739.611V774.563M804.648 739.611H839.6M804.648 774.563V809.514M804.648 774.563H839.6M804.648 809.514H839.6M839.6 110.485V145.437M839.6 110.485H874.551M839.6 145.437V180.388M839.6 145.437H874.551M839.6 180.388V215.339M839.6 180.388H874.551M839.6 215.339V250.291M839.6 215.339H874.551M839.6 250.291V285.242M839.6 250.291H874.551M839.6 285.242V320.194M839.6 285.242H874.551M839.6 320.194V355.145M839.6 320.194H874.551M839.6 355.145V390.097M839.6 355.145H874.551M839.6 390.097V425.048M839.6 390.097H874.551M839.6 425.048V460M839.6 425.048H874.551M839.6 460V494.951M839.6 460H874.551M839.6 494.951V529.903M839.6 494.951H874.551M839.6 529.903V564.854M839.6 529.903H874.551M839.6 564.854V599.805M839.6 564.854H874.551M839.6 599.805V634.757M839.6 599.805H874.551M839.6 634.757V669.708M839.6 634.757H874.551M839.6 669.708V704.66M839.6 669.708H874.551M839.6 704.66V739.611M839.6 704.66H874.551M839.6 739.611V774.563M839.6 739.611H874.551M839.6 774.563V809.514M839.6 774.563H874.551M839.6 809.514H874.551M874.551 110.485V145.437M874.551 110.485H909.503M874.551 145.437V180.388M874.551 145.437H909.503M874.551 180.388V215.339M874.551 180.388H909.503M874.551 215.339V250.291M874.551 215.339H909.503M874.551 250.291V285.242M874.551 250.291H909.503M874.551 285.242V320.194M874.551 285.242H909.503M874.551 320.194V355.145M874.551 320.194H909.503M874.551 355.145V390.097M874.551 355.145H909.503M874.551 390.097V425.048M874.551 390.097H909.503M874.551 425.048V460M874.551 425.048H909.503M874.551 460V494.951M874.551 460H909.503M874.551 494.951V529.903M874.551 494.951H909.503M874.551 529.903V564.854M874.551 529.903H909.503M874.551 564.854V599.805M874.551 564.854H909.503M874.551 599.805V634.757M874.551 599.805H909.503M874.551 634.757V669.708M874.551 634.757H909.503M874.551 669.708V704.66M874.551 669.708H909.503M874.551 704.66V739.611M874.551 704.66H909.503M874.551 739.611V774.563M874.551 739.611H909.503M874.551 774.563V809.514M874.551 774.563H909.503M874.551 809.514H909.503M909.503 110.485V145.437M909.503 110.485H944.454M909.503 145.437V180.388M909.503 145.437H944.454M909.503 180.388V215.339M909.503 180.388H944.454M909.503 215.339V250.291M909.503 215.339H944.454M909.503 250.291V285.242M909.503 250.291H944.454M909.503 285.242V320.194M909.503 285.242H944.454M909.503 320.194V355.145M909.503 320.194H944.454M909.503 355.145V390.097M909.503 355.145H944.454M909.503 390.097V425.048M909.503 390.097H944.454M909.503 425.048V460M909.503 425.048H944.454M909.503 460V494.951M909.503 460H944.454M909.503 494.951V529.903M909.503 494.951H944.454M909.503 529.903V564.854M909.503 529.903H944.454M909.503 564.854V599.805M909.503 564.854H944.454M909.503 599.805V634.757M909.503 599.805H944.454M909.503 634.757V669.708M909.503 634.757H944.454M909.503 669.708V704.66M909.503 669.708H944.454M909.503 704.66V739.611M909.503 704.66H944.454M909.503 739.611V774.563M909.503 739.611H944.454M909.503 774.563V809.514M909.503 774.563H944.454M909.503 809.514H944.454M944.454 110.485V145.437M944.454 110.485H979.406M944.454 145.437V180.388M944.454 145.437H979.406M944.454 180.388V215.339M944.454 180.388H979.406M944.454 215.339V250.291M944.454 215.339H979.406M944.454 250.291V285.242M944.454 250.291H979.406M944.454 285.242V320.194M944.454 285.242H979.406M944.454 320.194V355.145M944.454 320.194H979.406M944.454 355.145V390.097M944.454 355.145H979.406M944.454 390.097V425.048M944.454 390.097H979.406M944.454 425.048V460M944.454 425.048H979.406M944.454 460V494.951M944.454 460H979.406M944.454 494.951V529.903M944.454 494.951H979.406M944.454 529.903V564.854M944.454 529.903H979.406M944.454 564.854V599.805M944.454 564.854H979.406M944.454 599.805V634.757M944.454 599.805H979.406M944.454 634.757V669.708M944.454 634.757H979.406M944.454 669.708V704.66M944.454 669.708H979.406M944.454 704.66V739.611M944.454 704.66H979.406M944.454 739.611V774.563M944.454 739.611H979.406M944.454 774.563V809.514M944.454 774.563H979.406M944.454 809.514H979.406M979.406 110.485V145.437M979.406 110.485H1014.36M979.406 145.437V180.388M979.406 145.437H1014.36M979.406 180.388V215.339M979.406 180.388H1014.36M979.406 215.339V250.291M979.406 215.339H1014.36M979.406 250.291V285.242M979.406 250.291H1014.36M979.406 285.242V320.194M979.406 285.242H1014.36M979.406 320.194V355.145M979.406 320.194H1014.36M979.406 355.145V390.097M979.406 355.145H1014.36M979.406 390.097V425.048M979.406 390.097H1014.36M979.406 425.048V460M979.406 425.048H1014.36M979.406 460V494.951M979.406 460H1014.36M979.406 494.951V529.903M979.406 494.951H1014.36M979.406 529.903V564.854M979.406 529.903H1014.36M979.406 564.854V599.805M979.406 564.854H1014.36M979.406 599.805V634.757M979.406 599.805H1014.36M979.406 634.757V669.708M979.406 634.757H1014.36M979.406 669.708V704.66M979.406 669.708H1014.36M979.406 704.66V739.611M979.406 704.66H1014.36M979.406 739.611V774.563M979.406 739.611H1014.36M979.406 774.563V809.514M979.406 774.563H1014.36M979.406 809.514H1014.36M1014.36 110.485V145.437M1014.36 110.485H1049.31M1014.36 145.437V180.388M1014.36 145.437H1049.31M1014.36 180.388V215.339M1014.36 180.388H1049.31M1014.36 215.339V250.291M1014.36 215.339H1049.31M1014.36 250.291V285.242M1014.36 250.291H1049.31M1014.36 285.242V320.194M1014.36 285.242H1049.31M1014.36 320.194V355.145M1014.36 320.194H1049.31M1014.36 355.145V390.097M1014.36 355.145H1049.31M1014.36 390.097V425.048M1014.36 390.097H1049.31M1014.36 425.048V460M1014.36 425.048H1049.31M1014.36 460V494.951M1014.36 460H1049.31M1014.36 494.951V529.903M1014.36 494.951H1049.31M1014.36 529.903V564.854M1014.36 529.903H1049.31M1014.36 564.854V599.805M1014.36 564.854H1049.31M1014.36 599.805V634.757M1014.36 599.805H1049.31M1014.36 634.757V669.708M1014.36 634.757H1049.31M1014.36 669.708V704.66M1014.36 669.708H1049.31M1014.36 704.66V739.611M1014.36 704.66H1049.31M1014.36 739.611V774.563M1014.36 739.611H1049.31M1014.36 774.563V809.514M1014.36 774.563H1049.31M1014.36 809.514H1049.31M1049.31 110.485V145.437M1049.31 110.485H1084.26M1049.31 145.437V180.388M1049.31 145.437H1084.26M1049.31 180.388V215.339M1049.31 180.388H1084.26M1049.31 215.339V250.291M1049.31 215.339H1084.26M1049.31 250.291V285.242M1049.31 250.291H1084.26M1049.31 285.242V320.194M1049.31 285.242H1084.26M1049.31 320.194V355.145M1049.31 320.194H1084.26M1049.31 355.145V390.097M1049.31 355.145H1084.26M1049.31 390.097V425.048M1049.31 390.097H1084.26M1049.31 425.048V460M1049.31 425.048H1084.26M1049.31 460V494.951M1049.31 460H1084.26M1049.31 494.951V529.903M1049.31 494.951H1084.26M1049.31 529.903V564.854M1049.31 529.903H1084.26M1049.31 564.854V599.805M1049.31 564.854H1084.26M1049.31 599.805V634.757M1049.31 599.805H1084.26M1049.31 634.757V669.708M1049.31 634.757H1084.26M1049.31 669.708V704.66M1049.31 669.708H1084.26M1049.31 704.66V739.611M1049.31 704.66H1084.26M1049.31 739.611V774.563M1049.31 739.611H1084.26M1049.31 774.563V809.514M1049.31 774.563H1084.26M1049.31 809.514H1084.26M1084.26 110.485V145.437M1084.26 110.485H1119.21M1084.26 145.437V180.388M1084.26 145.437H1119.21M1084.26 180.388V215.339M1084.26 180.388H1119.21M1084.26 215.339V250.291M1084.26 215.339H1119.21M1084.26 250.291V285.242M1084.26 250.291H1119.21M1084.26 285.242V320.194M1084.26 285.242H1119.21M1084.26 320.194V355.145M1084.26 320.194H1119.21M1084.26 355.145V390.097M1084.26 355.145H1119.21M1084.26 390.097V425.048M1084.26 390.097H1119.21M1084.26 425.048V460M1084.26 425.048H1119.21M1084.26 460V494.951M1084.26 460H1119.21M1084.26 494.951V529.903M1084.26 494.951H1119.21M1084.26 529.903V564.854M1084.26 529.903H1119.21M1084.26 564.854V599.805M1084.26 564.854H1119.21M1084.26 599.805V634.757M1084.26 599.805H1119.21M1084.26 634.757V669.708M1084.26 634.757H1119.21M1084.26 669.708V704.66M1084.26 669.708H1119.21M1084.26 704.66V739.611M1084.26 704.66H1119.21M1084.26 739.611V774.563M1084.26 739.611H1119.21M1084.26 774.563V809.514M1084.26 774.563H1119.21M1084.26 809.514H1119.21M1119.21 110.485V145.437M1119.21 110.485H1154.16M1119.21 145.437V180.388M1119.21 145.437H1154.16M1119.21 180.388V215.339M1119.21 180.388H1154.16M1119.21 215.339V250.291M1119.21 215.339H1154.16M1119.21 250.291V285.242M1119.21 250.291H1154.16M1119.21 285.242V320.194M1119.21 285.242H1154.16M1119.21 320.194V355.145M1119.21 320.194H1154.16M1119.21 355.145V390.097M1119.21 355.145H1154.16M1119.21 390.097V425.048M1119.21 390.097H1154.16M1119.21 425.048V460M1119.21 425.048H1154.16M1119.21 460V494.951M1119.21 460H1154.16M1119.21 494.951V529.903M1119.21 494.951H1154.16M1119.21 529.903V564.854M1119.21 529.903H1154.16M1119.21 564.854V599.805M1119.21 564.854H1154.16M1119.21 599.805V634.757M1119.21 599.805H1154.16M1119.21 634.757V669.708M1119.21 634.757H1154.16M1119.21 669.708V704.66M1119.21 669.708H1154.16M1119.21 704.66V739.611M1119.21 704.66H1154.16M1119.21 739.611V774.563M1119.21 739.611H1154.16M1119.21 774.563V809.514M1119.21 774.563H1154.16M1119.21 809.514H1154.16M1154.16 110.485V145.437M1154.16 110.485H1189.11M1154.16 145.437V180.388M1154.16 145.437H1189.11M1154.16 180.388V215.339M1154.16 180.388H1189.11M1154.16 215.339V250.291M1154.16 215.339H1189.11M1154.16 250.291V285.242M1154.16 250.291H1189.11M1154.16 285.242V320.194M1154.16 285.242H1189.11M1154.16 320.194V355.145M1154.16 320.194H1189.11M1154.16 355.145V390.097M1154.16 355.145H1189.11M1154.16 390.097V425.048M1154.16 390.097H1189.11M1154.16 425.048V460M1154.16 425.048H1189.11M1154.16 460V494.951M1154.16 460H1189.11M1154.16 494.951V529.903M1154.16 494.951H1189.11M1154.16 529.903V564.854M1154.16 529.903H1189.11M1154.16 564.854V599.805M1154.16 564.854H1189.11M1154.16 599.805V634.757M1154.16 599.805H1189.11M1154.16 634.757V669.708M1154.16 634.757H1189.11M1154.16 669.708V704.66M1154.16 669.708H1189.11M1154.16 704.66V739.611M1154.16 704.66H1189.11M1154.16 739.611V774.563M1154.16 739.611H1189.11M1154.16 774.563V809.514M1154.16 774.563H1189.11M1154.16 809.514H1189.11M1189.11 110.485V145.437M1189.11 110.485H1224.07M1189.11 145.437V180.388M1189.11 145.437H1224.07M1189.11 180.388V215.339M1189.11 180.388H1224.07M1189.11 215.339V250.291M1189.11 215.339H1224.07M1189.11 250.291V285.242M1189.11 250.291H1224.07M1189.11 285.242V320.194M1189.11 285.242H1224.07M1189.11 320.194V355.145M1189.11 320.194H1224.07M1189.11 355.145V390.097M1189.11 355.145H1224.07M1189.11 390.097V425.048M1189.11 390.097H1224.07M1189.11 425.048V460M1189.11 425.048H1224.07M1189.11 460V494.951M1189.11 460H1224.07M1189.11 494.951V529.903M1189.11 494.951H1224.07M1189.11 529.903V564.854M1189.11 529.903H1224.07M1189.11 564.854V599.805M1189.11 564.854H1224.07M1189.11 599.805V634.757M1189.11 599.805H1224.07M1189.11 634.757V669.708M1189.11 634.757H1224.07M1189.11 669.708V704.66M1189.11 669.708H1224.07M1189.11 704.66V739.611M1189.11 704.66H1224.07M1189.11 739.611V774.563M1189.11 739.611H1224.07M1189.11 774.563V809.514M1189.11 774.563H1224.07M1189.11 809.514H1224.07M1224.07 110.485V145.437M1224.07 110.485H1259.02M1224.07 145.437V180.388M1224.07 145.437H1259.02M1224.07 180.388V215.339M1224.07 180.388H1259.02M1224.07 215.339V250.291M1224.07 215.339H1259.02M1224.07 250.291V285.242M1224.07 250.291H1259.02M1224.07 285.242V320.194M1224.07 285.242H1259.02M1224.07 320.194V355.145M1224.07 320.194H1259.02M1224.07 355.145V390.097M1224.07 355.145H1259.02M1224.07 390.097V425.048M1224.07 390.097H1259.02M1224.07 425.048V460M1224.07 425.048H1259.02M1224.07 460V494.951M1224.07 460H1259.02M1224.07 494.951V529.903M1224.07 494.951H1259.02M1224.07 529.903V564.854M1224.07 529.903H1259.02M1224.07 564.854V599.805M1224.07 564.854H1259.02M1224.07 599.805V634.757M1224.07 599.805H1259.02M1224.07 634.757V669.708M1224.07 634.757H1259.02M1224.07 669.708V704.66M1224.07 669.708H1259.02M1224.07 704.66V739.611M1224.07 704.66H1259.02M1224.07 739.611V774.563M1224.07 739.611H1259.02M1224.07 774.563V809.514M1224.07 774.563H1259.02M1224.07 809.514H1259.02M1259.02 110.485V145.437M1259.02 110.485H1293.97M1259.02 145.437V180.388M1259.02 145.437H1293.97M1259.02 180.388V215.339M1259.02 180.388H1293.97M1259.02 215.339V250.291M1259.02 215.339H1293.97M1259.02 250.291V285.242M1259.02 250.291H1293.97M1259.02 285.242V320.194M1259.02 285.242H1293.97M1259.02 320.194V355.145M1259.02 320.194H1293.97M1259.02 355.145V390.097M1259.02 355.145H1293.97M1259.02 390.097V425.048M1259.02 390.097H1293.97M1259.02 425.048V460M1259.02 425.048H1293.97M1259.02 460V494.951M1259.02 460H1293.97M1259.02 494.951V529.903M1259.02 494.951H1293.97M1259.02 529.903V564.854M1259.02 529.903H1293.97M1259.02 564.854V599.805M1259.02 564.854H1293.97M1259.02 599.805V634.757M1259.02 599.805H1293.97M1259.02 634.757V669.708M1259.02 634.757H1293.97M1259.02 669.708V704.66M1259.02 669.708H1293.97M1259.02 704.66V739.611M1259.02 704.66H1293.97M1259.02 739.611V774.563M1259.02 739.611H1293.97M1259.02 774.563V809.514M1259.02 774.563H1293.97M1259.02 809.514H1293.97M1293.97 110.485V145.437M1293.97 110.485H1328.92M1293.97 145.437V180.388M1293.97 145.437H1328.92M1293.97 180.388V215.339M1293.97 180.388H1328.92M1293.97 215.339V250.291M1293.97 215.339H1328.92M1293.97 250.291V285.242M1293.97 250.291H1328.92M1293.97 285.242V320.194M1293.97 285.242H1328.92M1293.97 320.194V355.145M1293.97 320.194H1328.92M1293.97 355.145V390.097M1293.97 355.145H1328.92M1293.97 390.097V425.048M1293.97 390.097H1328.92M1293.97 425.048V460M1293.97 425.048H1328.92M1293.97 460V494.951M1293.97 460H1328.92M1293.97 494.951V529.903M1293.97 494.951H1328.92M1293.97 529.903V564.854M1293.97 529.903H1328.92M1293.97 564.854V599.805M1293.97 564.854H1328.92M1293.97 599.805V634.757M1293.97 599.805H1328.92M1293.97 634.757V669.708M1293.97 634.757H1328.92M1293.97 669.708V704.66M1293.97 669.708H1328.92M1293.97 704.66V739.611M1293.97 704.66H1328.92M1293.97 739.611V774.563M1293.97 739.611H1328.92M1293.97 774.563V809.514M1293.97 774.563H1328.92M1293.97 809.514H1328.92M1328.92 110.485V145.437M1328.92 110.485H1363.87M1328.92 145.437V180.388M1328.92 145.437H1363.87M1328.92 180.388V215.339M1328.92 180.388H1363.87M1328.92 215.339V250.291M1328.92 215.339H1363.87M1328.92 250.291V285.242M1328.92 250.291H1363.87M1328.92 285.242V320.194M1328.92 285.242H1363.87M1328.92 320.194V355.145M1328.92 320.194H1363.87M1328.92 355.145V390.097M1328.92 355.145H1363.87M1328.92 390.097V425.048M1328.92 390.097H1363.87M1328.92 425.048V460M1328.92 425.048H1363.87M1328.92 460V494.951M1328.92 460H1363.87M1328.92 494.951V529.903M1328.92 494.951H1363.87M1328.92 529.903V564.854M1328.92 529.903H1363.87M1328.92 564.854V599.805M1328.92 564.854H1363.87M1328.92 599.805V634.757M1328.92 599.805H1363.87M1328.92 634.757V669.708M1328.92 634.757H1363.87M1328.92 669.708V704.66M1328.92 669.708H1363.87M1328.92 704.66V739.611M1328.92 704.66H1363.87M1328.92 739.611V774.563M1328.92 739.611H1363.87M1328.92 774.563V809.514M1328.92 774.563H1363.87M1328.92 809.514H1363.87M1363.87 110.485V145.437M1363.87 110.485H1398.82M1363.87 145.437V180.388M1363.87 145.437H1398.82M1363.87 180.388V215.339M1363.87 180.388H1398.82M1363.87 215.339V250.291M1363.87 215.339H1398.82M1363.87 250.291V285.242M1363.87 250.291H1398.82M1363.87 285.242V320.194M1363.87 285.242H1398.82M1363.87 320.194V355.145M1363.87 320.194H1398.82M1363.87 355.145V390.097M1363.87 355.145H1398.82M1363.87 390.097V425.048M1363.87 390.097H1398.82M1363.87 425.048V460M1363.87 425.048H1398.82M1363.87 460V494.951M1363.87 460H1398.82M1363.87 494.951V529.903M1363.87 494.951H1398.82M1363.87 529.903V564.854M1363.87 529.903H1398.82M1363.87 564.854V599.805M1363.87 564.854H1398.82M1363.87 599.805V634.757M1363.87 599.805H1398.82M1363.87 634.757V669.708M1363.87 634.757H1398.82M1363.87 669.708V704.66M1363.87 669.708H1398.82M1363.87 704.66V739.611M1363.87 704.66H1398.82M1363.87 739.611V774.563M1363.87 739.611H1398.82M1363.87 774.563V809.514M1363.87 774.563H1398.82M1363.87 809.514H1398.82M1398.82 110.485V145.437M1398.82 110.485H1433.77M1398.82 145.437V180.388M1398.82 145.437H1433.77M1398.82 180.388V215.339M1398.82 180.388H1433.77M1398.82 215.339V250.291M1398.82 215.339H1433.77M1398.82 250.291V285.242M1398.82 250.291H1433.77M1398.82 285.242V320.194M1398.82 285.242H1433.77M1398.82 320.194V355.145M1398.82 320.194H1433.77M1398.82 355.145V390.097M1398.82 355.145H1433.77M1398.82 390.097V425.048M1398.82 390.097H1433.77M1398.82 425.048V460M1398.82 425.048H1433.77M1398.82 460V494.951M1398.82 460H1433.77M1398.82 494.951V529.903M1398.82 494.951H1433.77M1398.82 529.903V564.854M1398.82 529.903H1433.77M1398.82 564.854V599.805M1398.82 564.854H1433.77M1398.82 599.805V634.757M1398.82 599.805H1433.77M1398.82 634.757V669.708M1398.82 634.757H1433.77M1398.82 669.708V704.66M1398.82 669.708H1433.77M1398.82 704.66V739.611M1398.82 704.66H1433.77M1398.82 739.611V774.563M1398.82 739.611H1433.77M1398.82 774.563V809.514M1398.82 774.563H1433.77M1398.82 809.514H1433.77M1433.77 110.485V145.437M1433.77 110.485H1468.73M1433.77 145.437V180.388M1433.77 145.437H1468.73M1433.77 180.388V215.339M1433.77 180.388H1468.73M1433.77 215.339V250.291M1433.77 215.339H1468.73M1433.77 250.291V285.242M1433.77 250.291H1468.73M1433.77 285.242V320.194M1433.77 285.242H1468.73M1433.77 320.194V355.145M1433.77 320.194H1468.73M1433.77 355.145V390.097M1433.77 355.145H1468.73M1433.77 390.097V425.048M1433.77 390.097H1468.73M1433.77 425.048V460M1433.77 425.048H1468.73M1433.77 460V494.951M1433.77 460H1468.73M1433.77 494.951V529.903M1433.77 494.951H1468.73M1433.77 529.903V564.854M1433.77 529.903H1468.73M1433.77 564.854V599.805M1433.77 564.854H1468.73M1433.77 599.805V634.757M1433.77 599.805H1468.73M1433.77 634.757V669.708M1433.77 634.757H1468.73M1433.77 669.708V704.66M1433.77 669.708H1468.73M1433.77 704.66V739.611M1433.77 704.66H1468.73M1433.77 739.611V774.563M1433.77 739.611H1468.73M1433.77 774.563V809.514M1433.77 774.563H1468.73M1433.77 809.514H1468.73M1468.73 110.485V145.437M1468.73 110.485H1503.68V145.437M1468.73 145.437V180.388M1468.73 145.437H1503.68M1468.73 180.388V215.339M1468.73 180.388H1503.68M1468.73 215.339V250.291M1468.73 215.339H1503.68M1468.73 250.291V285.242M1468.73 250.291H1503.68M1468.73 285.242V320.194M1468.73 285.242H1503.68M1468.73 320.194V355.145M1468.73 320.194H1503.68M1468.73 355.145V390.097M1468.73 355.145H1503.68M1468.73 390.097V425.048M1468.73 390.097H1503.68M1468.73 425.048V460M1468.73 425.048H1503.68M1468.73 460V494.951M1468.73 460H1503.68M1468.73 494.951V529.903M1468.73 494.951H1503.68M1468.73 529.903V564.854M1468.73 529.903H1503.68M1468.73 564.854V599.805M1468.73 564.854H1503.68M1468.73 599.805V634.757M1468.73 599.805H1503.68M1468.73 634.757V669.708M1468.73 634.757H1503.68M1468.73 669.708V704.66M1468.73 669.708H1503.68M1468.73 704.66V739.611M1468.73 704.66H1503.68M1468.73 739.611V774.563M1468.73 739.611H1503.68M1468.73 774.563V809.514M1468.73 774.563H1503.68M1468.73 809.514H1503.68V774.563M1503.68 145.437V180.388M1503.68 180.388V215.339M1503.68 215.339V250.291M1503.68 250.291V285.242M1503.68 285.242V320.194M1503.68 320.194V355.145M1503.68 355.145V390.097M1503.68 390.097V425.048M1503.68 425.048V460M1503.68 460V494.951M1503.68 494.951V529.903M1503.68 529.903V564.854M1503.68 564.854V599.805M1503.68 599.805V634.757M1503.68 634.757V669.708M1503.68 669.708V704.66M1503.68 704.66V739.611M1503.68 739.611V774.563" stroke="url(#paint0_radial_594_7219)" stroke-opacity="0.3"/>
<g style="mix-blend-mode:soft-light">
<path d="M105.619 239.806V250.291M105.619 250.291V260.777M105.619 250.291H95.134M105.619 250.291H116.105M105.619 519.417V529.903M105.619 529.903V540.388M105.619 529.903H95.134M105.619 529.903H116.105M105.619 799.029V809.514M105.619 809.514V820M105.619 809.514H95.134M105.619 809.514H116.105M385.231 519.417V529.903M385.231 529.903V540.388M385.231 529.903H374.746M385.231 529.903H395.717M664.843 204.986V215.471M664.843 215.471V225.957M664.843 215.471H654.357M664.843 215.471H675.328M664.843 519.417V529.903M664.843 529.903V540.388M664.843 529.903H654.357M664.843 529.903H675.328M664.843 799.029V809.514M664.843 809.514V820M664.843 809.514H654.357M664.843 809.514H675.328M944.454 239.806V250.291M944.454 250.291V260.777M944.454 250.291H933.969M944.454 250.291H954.94M944.454 519.417V529.903M944.454 529.903V540.388M944.454 529.903H933.969M944.454 529.903H954.94M944.454 799.029V809.514M944.454 809.514V820M944.454 809.514H933.969M944.454 809.514H954.94M1224.07 239.806V250.291M1224.07 250.291V260.777M1224.07 250.291H1213.58M1224.07 250.291H1234.55M1224.07 519.417V529.903M1224.07 529.903V540.388M1224.07 529.903H1213.58M1224.07 529.903H1234.55M1224.07 799.029V809.514M1224.07 809.514V820M1224.07 809.514H1213.58M1224.07 809.514H1234.55M1503.68 239.806V250.291M1503.68 250.291V260.777M1503.68 250.291H1493.19M1503.68 250.291H1514.16M1503.68 519.417V529.903M1503.68 529.903V540.388M1503.68 529.903H1493.19M1503.68 529.903H1514.16M1503.68 799.029V809.514M1503.68 809.514V820M1503.68 809.514H1493.19M1503.68 809.514H1514.16M105.619 100V110.485M105.619 110.485V120.971M105.619 110.485H95.134M105.619 110.485H116.105M105.619 379.612V390.097M105.619 390.097V400.583M105.619 390.097H95.134M105.619 390.097H116.105M105.619 659.223V669.709M105.619 669.709V680.194M105.619 669.709H95.134M105.619 669.709H116.105M385.231 100V110.485M385.231 110.485V120.971M385.231 110.485H374.746M385.231 110.485H395.717M385.231 659.223V669.709M385.231 669.709V680.194M385.231 669.709H374.746M385.231 669.709H395.717M664.843 100V110.485M664.843 110.485V120.971M664.843 110.485H654.357M664.843 110.485H675.328M664.817 379.662V390.147M664.817 390.147V400.633M664.817 390.147H654.331M664.817 390.147H675.302M944.454 100V110.485M944.454 110.485V120.971M944.454 110.485H933.969M944.454 110.485H954.94M944.454 379.612V390.097M944.454 390.097V400.583M944.454 390.097H933.969M944.454 390.097H954.94M944.454 659.223V669.709M944.454 669.709V680.194M944.454 669.709H933.969M944.454 669.709H954.94M1224.07 100V110.485M1224.07 110.485V120.971M1224.07 110.485H1213.58M1224.07 110.485H1234.55M1224.07 379.612V390.097M1224.07 390.097V400.583M1224.07 390.097H1213.58M1224.07 390.097H1234.55M1224.07 659.223V669.709M1224.07 669.709V680.194M1224.07 669.709H1213.58M1224.07 669.709H1234.55M1503.68 100V110.485M1503.68 110.485V120.971M1503.68 110.485H1493.19M1503.68 110.485H1514.16M1503.68 379.612V390.097M1503.68 390.097V400.583M1503.68 390.097H1493.19M1503.68 390.097H1514.16M1503.68 659.223V669.709M1503.68 669.709V680.194M1503.68 669.709H1493.19M1503.68 669.709H1514.16M-34.1864 239.806V250.291M-34.1864 250.291V260.777M-34.1864 250.291H-44.6719M-34.1864 250.291H-23.701M-34.1864 519.417V529.903M-34.1864 529.903V540.388M-34.1864 529.903H-44.6719M-34.1864 529.903H-23.701M-34.1864 799.029V809.514M-34.1864 809.514V820M-34.1864 809.514H-44.6719M-34.1864 809.514H-23.701M245.425 519.417V529.903M245.425 529.903V540.388M245.425 529.903H234.94M245.425 529.903H255.911M245.425 799.029V809.514M245.425 809.514V820M245.425 809.514H234.94M245.425 809.514H255.911M804.649 239.806V250.291M804.649 250.291V260.777M804.649 250.291H794.163M804.649 250.291H815.134M804.649 519.417V529.903M804.649 529.903V540.388M804.649 529.903H794.163M804.649 529.903H815.134M804.649 799.029V809.514M804.649 809.514V820M804.649 809.514H794.163M804.649 809.514H815.134M1084.26 239.806V250.291M1084.26 250.291V260.777M1084.26 250.291H1073.77M1084.26 250.291H1094.75M1084.26 519.417V529.903M1084.26 529.903V540.388M1084.26 529.903H1073.77M1084.26 529.903H1094.75M1084.26 799.029V809.514M1084.26 809.514V820M1084.26 809.514H1073.77M1084.26 809.514H1094.75M1363.87 239.806V250.291M1363.87 250.291V260.777M1363.87 250.291H1353.39M1363.87 250.291H1374.36M1363.87 519.417V529.903M1363.87 529.903V540.388M1363.87 529.903H1353.39M1363.87 529.903H1374.36M1363.87 799.029V809.514M1363.87 809.514V820M1363.87 809.514H1353.39M1363.87 809.514H1374.36M-34.1864 100V110.485M-34.1864 110.485V120.971M-34.1864 110.485H-44.6719M-34.1864 110.485H-23.701M-34.1864 379.612V390.097M-34.1864 390.097V400.583M-34.1864 390.097H-44.6719M-34.1864 390.097H-23.701M-34.1864 659.223V669.709M-34.1864 669.709V680.194M-34.1864 669.709H-44.6719M-34.1864 669.709H-23.701M245.425 100V110.485M245.425 110.485V120.971M245.425 110.485H234.94M245.425 110.485H255.911M245.425 659.223V669.709M245.425 669.709V680.194M245.425 669.709H234.94M245.425 669.709H255.911M525.037 100V110.485M525.037 110.485V120.971M525.037 110.485H514.551M525.037 110.485H535.522M420.037 379.612V390.097M420.037 390.097V400.583M420.037 390.097H409.551M420.037 390.097H430.522M804.649 100V110.485M804.649 110.485V120.971M804.649 110.485H794.163M804.649 110.485H815.134M315.031 239.806V250.291M315.031 250.291V260.777M315.031 250.291H304.546M315.031 250.291H325.517M804.649 659.223V669.709M804.649 669.709V680.194M804.649 669.709H794.163M804.649 669.709H815.134M1084.26 100V110.485M1084.26 110.485V120.971M1084.26 110.485H1073.77M1084.26 110.485H1094.75M1084.26 379.612V390.097M1084.26 390.097V400.583M1084.26 390.097H1073.77M1084.26 390.097H1094.75M1084.26 659.223V669.709M1084.26 669.709V680.194M1084.26 669.709H1073.77M1084.26 669.709H1094.75M1363.87 100V110.485M1363.87 110.485V120.971M1363.87 110.485H1353.39M1363.87 110.485H1374.36M1363.87 379.612V390.097M1363.87 390.097V400.583M1363.87 390.097H1353.39M1363.87 390.097H1374.36M1363.87 659.223V669.709M1363.87 669.709V680.194M1363.87 669.709H1353.39M1363.87 669.709H1374.36M804.649 379.612V390.097M804.649 390.097V400.583M804.649 390.097H794.163M804.649 390.097H815.134M455.5 623.529V634.015M455.5 634.015V644.5M455.5 634.015H445.015M455.5 634.015H465.985" stroke="url(#paint1_radial_594_7219)" stroke-opacity="0.5" stroke-width="0.873787"/>
</g>
<g clip-path="url(#clip1_594_7219)">
<mask id="mask0_594_7219" style="mask-type:alpha" maskUnits="userSpaceOnUse" x="-353" y="-329" width="1842" height="1598">
<path d="M1187.5 -11.9999C1580.93 6.50012 1372.26 245.216 1372.26 462.5C1372.26 679.783 1697.67 947.5 1261 947.5C1169.33 947.5 710.77 1316.17 450.858 1263.6C94.73 1191.57 -352.477 588.109 -352.477 462.5C-352.477 336.89 -199.198 -251.578 156.93 -323.609C416.842 -376.179 1095.83 -11.9999 1187.5 -11.9999Z" fill="url(#paint2_linear_594_7219)"/>
</mask>
<g mask="url(#mask0_594_7219)">
<g filter="url(#filter0_f_594_7219)">
<path d="M1382.76 462.5C1382.76 728.776 1166.9 944.636 900.627 944.636C634.35 944.636 418.49 728.776 418.49 462.5C418.49 196.223 634.35 -19.6367 900.627 -19.6367C1166.9 -19.6367 1382.76 196.223 1382.76 462.5ZM844.845 462.5C844.845 493.307 869.819 518.281 900.627 518.281C931.434 518.281 956.408 493.307 956.408 462.5C956.408 431.692 931.434 406.718 900.627 406.718C869.819 406.718 844.845 431.692 844.845 462.5Z" fill="url(#paint3_radial_594_7219)"/>
</g>
</g>
<g opacity="0.6" filter="url(#filter1_f_594_7219)">
<circle cx="955.165" cy="462.498" r="393.427" transform="rotate(-90 955.165 462.498)" fill="#195AF4"/>
</g>
<ellipse cx="978.5" cy="462.5" rx="388" ry="393.5" transform="rotate(-90 978.5 462.5)" fill="url(#paint4_linear_594_7219)"/>
<g opacity="0.6" filter="url(#filter2_f_594_7219)">
<path d="M1302.96 239.445C1232.01 136.526 1113.3 69.0695 978.833 69.0695C761.549 69.0695 585.406 245.213 585.406 462.496C585.406 679.78 761.549 855.923 978.833 855.923C1113.3 855.923 1232.01 788.462 1302.97 685.539C1234.11 779.822 1122.73 841.074 997.04 841.074C787.956 841.074 618.461 671.579 618.461 462.496C618.461 253.413 787.956 83.9172 997.04 83.9172C1122.73 83.9172 1234.11 145.166 1302.96 239.445Z" fill="#195AF4"/>
</g>
<g filter="url(#filter3_f_594_7219)">
<circle cx="1075.4" cy="462.5" r="456.264" transform="rotate(-90 1075.4 462.5)" fill="#01050D"/>
</g>
</g>
</g>
<defs>
<filter id="filter0_f_594_7219" x="18.4902" y="-419.637" width="1764.27" height="1764.27" filterUnits="userSpaceOnUse" color-interpolation-filters="sRGB">
<feFlood flood-opacity="0" result="BackgroundImageFix"/>
<feBlend mode="normal" in="SourceGraphic" in2="BackgroundImageFix" result="shape"/>
<feGaussianBlur stdDeviation="200" result="effect1_foregroundBlur_594_7219"/>
</filter>
<filter id="filter1_f_594_7219" x="461.738" y="-30.9285" width="986.854" height="986.853" filterUnits="userSpaceOnUse" color-interpolation-filters="sRGB">
<feFlood flood-opacity="0" result="BackgroundImageFix"/>
<feBlend mode="normal" in="SourceGraphic" in2="BackgroundImageFix" result="shape"/>
<feGaussianBlur stdDeviation="50" result="effect1_foregroundBlur_594_7219"/>
</filter>
<filter id="filter2_f_594_7219" x="561.16" y="44.8238" width="766.056" height="835.345" filterUnits="userSpaceOnUse" color-interpolation-filters="sRGB">
<feFlood flood-opacity="0" result="BackgroundImageFix"/>
<feBlend mode="normal" in="SourceGraphic" in2="BackgroundImageFix" result="shape"/>
<feGaussianBlur stdDeviation="12.1229" result="effect1_foregroundBlur_594_7219"/>
</filter>
<filter id="filter3_f_594_7219" x="559.133" y="-53.7645" width="1032.53" height="1032.53" filterUnits="userSpaceOnUse" color-interpolation-filters="sRGB">
<feFlood flood-opacity="0" result="BackgroundImageFix"/>
<feBlend mode="normal" in="SourceGraphic" in2="BackgroundImageFix" result="shape"/>
<feGaussianBlur stdDeviation="30" result="effect1_foregroundBlur_594_7219"/>
</filter>
<radialGradient id="paint0_radial_594_7219" cx="0" cy="0" r="1" gradientUnits="userSpaceOnUse" gradientTransform="translate(734.746 460) rotate(89.9636) scale(400 758.537)">
<stop stop-color="#F2F2F2"/>
<stop offset="0.60957" stop-color="#F2F2F2" stop-opacity="0"/>
</radialGradient>
<radialGradient id="paint1_radial_594_7219" cx="0" cy="0" r="1" gradientUnits="userSpaceOnUse" gradientTransform="translate(734.746 460) rotate(90) scale(360 779.417)">
<stop stop-color="#F2F2F2"/>
<stop offset="0.6982" stop-color="#F2F2F2" stop-opacity="0"/>
</radialGradient>
<linearGradient id="paint2_linear_594_7219" x1="585.398" y1="462.499" x2="1372.25" y2="462.499" gradientUnits="userSpaceOnUse">
<stop stop-color="#2388FF"/>
<stop offset="1" stop-color="#2388FF" stop-opacity="0"/>
</linearGradient>
<radialGradient id="paint3_radial_594_7219" cx="0" cy="0" r="1" gradientUnits="userSpaceOnUse" gradientTransform="translate(640.547 874.673) rotate(-47.765) scale(1010.68 1333.61)">
<stop offset="0.056982"/>
<stop offset="0.718699" stop-color="#195AF4"/>
<stop offset="0.970352" stop-color="#195AF4"/>
</radialGradient>
<linearGradient id="paint4_linear_594_7219" x1="978.5" y1="69" x2="978.5" y2="856" gradientUnits="userSpaceOnUse">
<stop stop-color="#195AF4"/>
<stop offset="1" stop-color="#195AF4" stop-opacity="0"/>
</linearGradient>
<clipPath id="clip0_594_7219">
<rect width="1260" height="925" fill="white" transform="translate(0 0.5)"/>
</clipPath>
<clipPath id="clip1_594_7219">
<path d="M-131 -9.5C-131 -31.5914 -113.091 -49.5 -91 -49.5H1269C1291.09 -49.5 1309 -31.5914 1309 -9.5V934.5C1309 956.591 1291.09 974.5 1269 974.5H-91C-113.091 974.5 -131 956.591 -131 934.5V-9.5Z" fill="white"/>
</clipPath>
</defs>
</svg>
