<svg width="1260" height="925" viewBox="0 0 1260 925" fill="none" xmlns="http://www.w3.org/2000/svg">
<g clip-path="url(#clip0_1022_12822)">
<path opacity="0.7" d="M0.764936 109.985H-34.1865V144.937M0.764936 109.985V144.937M0.764936 109.985H35.7164M0.764936 144.937H-34.1865M0.764936 144.937V179.888M0.764936 144.937H35.7164M-34.1865 144.937V179.888M0.764936 179.888H-34.1865M0.764936 179.888V214.839M0.764936 179.888H35.7164M-34.1865 179.888V214.839M0.764936 214.839H-34.1865M0.764936 214.839V249.791M0.764936 214.839H35.7164M-34.1865 214.839V249.791M0.764936 249.791H-34.1865M0.764936 249.791V284.742M0.764936 249.791H35.7164M-34.1865 249.791V284.742M0.764936 284.742H-34.1865M0.764936 284.742V319.694M0.764936 284.742H35.7164M-34.1865 284.742V319.694M0.764936 319.694H-34.1865M0.764936 319.694V354.645M0.764936 319.694H35.7164M-34.1865 319.694V354.645M0.764936 354.645H-34.1865M0.764936 354.645V389.597M0.764936 354.645H35.7164M-34.1865 354.645V389.597M0.764936 389.597H-34.1865M0.764936 389.597V424.548M0.764936 389.597H35.7164M-34.1865 389.597V424.548M0.764936 424.548H-34.1865M0.764936 424.548V459.5M0.764936 424.548H35.7164M-34.1865 424.548V459.5M0.764936 459.5H-34.1865M0.764936 459.5V494.451M0.764936 459.5H35.7164M-34.1865 459.5V494.451M0.764936 494.451H-34.1865M0.764936 494.451V529.403M0.764936 494.451H35.7164M-34.1865 494.451V529.403M0.764936 529.403H-34.1865M0.764936 529.403V564.354M0.764936 529.403H35.7164M-34.1865 529.403V564.354M0.764936 564.354H-34.1865M0.764936 564.354V599.305M0.764936 564.354H35.7164M-34.1865 564.354V599.305M0.764936 599.305H-34.1865M0.764936 599.305V634.257M0.764936 599.305H35.7164M-34.1865 599.305V634.257M0.764936 634.257H-34.1865M0.764936 634.257V669.208M0.764936 634.257H35.7164M-34.1865 634.257V669.208M0.764936 669.208H-34.1865M0.764936 669.208V704.16M0.764936 669.208H35.7164M-34.1865 669.208V704.16M0.764936 704.16H-34.1865M0.764936 704.16V739.111M0.764936 704.16H35.7164M-34.1865 704.16V739.111M0.764936 739.111H-34.1865M0.764936 739.111V774.063M0.764936 739.111H35.7164M-34.1865 739.111V774.063M0.764936 774.063H-34.1865M0.764936 774.063V809.014M0.764936 774.063H35.7164M-34.1865 774.063V809.014H0.764936M0.764936 809.014H35.7164M35.7164 109.985V144.937M35.7164 109.985H70.6678M35.7164 144.937V179.888M35.7164 144.937H70.6678M35.7164 179.888V214.839M35.7164 179.888H70.6678M35.7164 214.839V249.791M35.7164 214.839H70.6678M35.7164 249.791V284.742M35.7164 249.791H70.6678M35.7164 284.742V319.694M35.7164 284.742H70.6678M35.7164 319.694V354.645M35.7164 319.694H70.6678M35.7164 354.645V389.597M35.7164 354.645H70.6678M35.7164 389.597V424.548M35.7164 389.597H70.6678M35.7164 424.548V459.5M35.7164 424.548H70.6678M35.7164 459.5V494.451M35.7164 459.5H70.6678M35.7164 494.451V529.403M35.7164 494.451H70.6678M35.7164 529.403V564.354M35.7164 529.403H70.6678M35.7164 564.354V599.305M35.7164 564.354H70.6678M35.7164 599.305V634.257M35.7164 599.305H70.6678M35.7164 634.257V669.208M35.7164 634.257H70.6678M35.7164 669.208V704.16M35.7164 669.208H70.6678M35.7164 704.16V739.111M35.7164 704.16H70.6678M35.7164 739.111V774.063M35.7164 739.111H70.6678M35.7164 774.063V809.014M35.7164 774.063H70.6678M35.7164 809.014H70.6678M70.6678 109.985V144.937M70.6678 109.985H105.619M70.6678 144.937V179.888M70.6678 144.937H105.619M70.6678 179.888V214.839M70.6678 179.888H105.619M70.6678 214.839V249.791M70.6678 214.839H105.619M70.6678 249.791V284.742M70.6678 249.791H105.619M70.6678 284.742V319.694M70.6678 284.742H105.619M70.6678 319.694V354.645M70.6678 319.694H105.619M70.6678 354.645V389.597M70.6678 354.645H105.619M70.6678 389.597V424.548M70.6678 389.597H105.619M70.6678 424.548V459.5M70.6678 424.548H105.619M70.6678 459.5V494.451M70.6678 459.5H105.619M70.6678 494.451V529.403M70.6678 494.451H105.619M70.6678 529.403V564.354M70.6678 529.403H105.619M70.6678 564.354V599.305M70.6678 564.354H105.619M70.6678 599.305V634.257M70.6678 599.305H105.619M70.6678 634.257V669.208M70.6678 634.257H105.619M70.6678 669.208V704.16M70.6678 669.208H105.619M70.6678 704.16V739.111M70.6678 704.16H105.619M70.6678 739.111V774.063M70.6678 739.111H105.619M70.6678 774.063V809.014M70.6678 774.063H105.619M70.6678 809.014H105.619M105.619 109.985V144.937M105.619 109.985H140.571M105.619 144.937V179.888M105.619 144.937H140.571M105.619 179.888V214.839M105.619 179.888H140.571M105.619 214.839V249.791M105.619 214.839H140.571M105.619 249.791V284.742M105.619 249.791H140.571M105.619 284.742V319.694M105.619 284.742H140.571M105.619 319.694V354.645M105.619 319.694H140.571M105.619 354.645V389.597M105.619 354.645H140.571M105.619 389.597V424.548M105.619 389.597H140.571M105.619 424.548V459.5M105.619 424.548H140.571M105.619 459.5V494.451M105.619 459.5H140.571M105.619 494.451V529.403M105.619 494.451H140.571M105.619 529.403V564.354M105.619 529.403H140.571M105.619 564.354V599.305M105.619 564.354H140.571M105.619 599.305V634.257M105.619 599.305H140.571M105.619 634.257V669.208M105.619 634.257H140.571M105.619 669.208V704.16M105.619 669.208H140.571M105.619 704.16V739.111M105.619 704.16H140.571M105.619 739.111V774.063M105.619 739.111H140.571M105.619 774.063V809.014M105.619 774.063H140.571M105.619 809.014H140.571M140.571 109.985V144.937M140.571 109.985H175.522M140.571 144.937V179.888M140.571 144.937H175.522M140.571 179.888V214.839M140.571 179.888H175.522M140.571 214.839V249.791M140.571 214.839H175.522M140.571 249.791V284.742M140.571 249.791H175.522M140.571 284.742V319.694M140.571 284.742H175.522M140.571 319.694V354.645M140.571 319.694H175.522M140.571 354.645V389.597M140.571 354.645H175.522M140.571 389.597V424.548M140.571 389.597H175.522M140.571 424.548V459.5M140.571 424.548H175.522M140.571 459.5V494.451M140.571 459.5H175.522M140.571 494.451V529.403M140.571 494.451H175.522M140.571 529.403V564.354M140.571 529.403H175.522M140.571 564.354V599.305M140.571 564.354H175.522M140.571 599.305V634.257M140.571 599.305H175.522M140.571 634.257V669.208M140.571 634.257H175.522M140.571 669.208V704.16M140.571 669.208H175.522M140.571 704.16V739.111M140.571 704.16H175.522M140.571 739.111V774.063M140.571 739.111H175.522M140.571 774.063V809.014M140.571 774.063H175.522M140.571 809.014H175.522M175.522 109.985V144.937M175.522 109.985H210.474M175.522 144.937V179.888M175.522 144.937H210.474M175.522 179.888V214.839M175.522 179.888H210.474M175.522 214.839V249.791M175.522 214.839H210.474M175.522 249.791V284.742M175.522 249.791H210.474M175.522 284.742V319.694M175.522 284.742H210.474M175.522 319.694V354.645M175.522 319.694H210.474M175.522 354.645V389.597M175.522 354.645H210.474M175.522 389.597V424.548M175.522 389.597H210.474M175.522 424.548V459.5M175.522 424.548H210.474M175.522 459.5V494.451M175.522 459.5H210.474M175.522 494.451V529.403M175.522 494.451H210.474M175.522 529.403V564.354M175.522 529.403H210.474M175.522 564.354V599.305M175.522 564.354H210.474M175.522 599.305V634.257M175.522 599.305H210.474M175.522 634.257V669.208M175.522 634.257H210.474M175.522 669.208V704.16M175.522 669.208H210.474M175.522 704.16V739.111M175.522 704.16H210.474M175.522 739.111V774.063M175.522 739.111H210.474M175.522 774.063V809.014M175.522 774.063H210.474M175.522 809.014H210.474M210.474 109.985V144.937M210.474 109.985H245.425M210.474 144.937V179.888M210.474 144.937H245.425M210.474 179.888V214.839M210.474 179.888H245.425M210.474 214.839V249.791M210.474 214.839H245.425M210.474 249.791V284.742M210.474 249.791H245.425M210.474 284.742V319.694M210.474 284.742H245.425M210.474 319.694V354.645M210.474 319.694H245.425M210.474 354.645V389.597M210.474 354.645H245.425M210.474 389.597V424.548M210.474 389.597H245.425M210.474 424.548V459.5M210.474 424.548H245.425M210.474 459.5V494.451M210.474 459.5H245.425M210.474 494.451V529.403M210.474 494.451H245.425M210.474 529.403V564.354M210.474 529.403H245.425M210.474 564.354V599.305M210.474 564.354H245.425M210.474 599.305V634.257M210.474 599.305H245.425M210.474 634.257V669.208M210.474 634.257H245.425M210.474 669.208V704.16M210.474 669.208H245.425M210.474 704.16V739.111M210.474 704.16H245.425M210.474 739.111V774.063M210.474 739.111H245.425M210.474 774.063V809.014M210.474 774.063H245.425M210.474 809.014H245.425M245.425 109.985V144.937M245.425 109.985H280.377M245.425 144.937V179.888M245.425 144.937H280.377M245.425 179.888V214.839M245.425 179.888H280.377M245.425 214.839V249.791M245.425 214.839H280.377M245.425 249.791V284.742M245.425 249.791H280.377M245.425 284.742V319.694M245.425 284.742H280.377M245.425 319.694V354.645M245.425 319.694H280.377M245.425 354.645V389.597M245.425 354.645H280.377M245.425 389.597V424.548M245.425 389.597H280.377M245.425 424.548V459.5M245.425 424.548H280.377M245.425 459.5V494.451M245.425 459.5H280.377M245.425 494.451V529.403M245.425 494.451H280.377M245.425 529.403V564.354M245.425 529.403H280.377M245.425 564.354V599.305M245.425 564.354H280.377M245.425 599.305V634.257M245.425 599.305H280.377M245.425 634.257V669.208M245.425 634.257H280.377M245.425 669.208V704.16M245.425 669.208H280.377M245.425 704.16V739.111M245.425 704.16H280.377M245.425 739.111V774.063M245.425 739.111H280.377M245.425 774.063V809.014M245.425 774.063H280.377M245.425 809.014H280.377M280.377 109.985V144.937M280.377 109.985H315.328M280.377 144.937V179.888M280.377 144.937H315.328M280.377 179.888V214.839M280.377 179.888H315.328M280.377 214.839V249.791M280.377 214.839H315.328M280.377 249.791V284.742M280.377 249.791H315.328M280.377 284.742V319.694M280.377 284.742H315.328M280.377 319.694V354.645M280.377 319.694H315.328M280.377 354.645V389.597M280.377 354.645H315.328M280.377 389.597V424.548M280.377 389.597H315.328M280.377 424.548V459.5M280.377 424.548H315.328M280.377 459.5V494.451M280.377 459.5H315.328M280.377 494.451V529.403M280.377 494.451H315.328M280.377 529.403V564.354M280.377 529.403H315.328M280.377 564.354V599.305M280.377 564.354H315.328M280.377 599.305V634.257M280.377 599.305H315.328M280.377 634.257V669.208M280.377 634.257H315.328M280.377 669.208V704.16M280.377 669.208H315.328M280.377 704.16V739.111M280.377 704.16H315.328M280.377 739.111V774.063M280.377 739.111H315.328M280.377 774.063V809.014M280.377 774.063H315.328M280.377 809.014H315.328M315.328 109.985V144.937M315.328 109.985H350.28M315.328 144.937V179.888M315.328 144.937H350.28M315.328 179.888V214.839M315.328 179.888H350.28M315.328 214.839V249.791M315.328 214.839H350.28M315.328 249.791V284.742M315.328 249.791H350.28M315.328 284.742V319.694M315.328 284.742H350.28M315.328 319.694V354.645M315.328 319.694H350.28M315.328 354.645V389.597M315.328 354.645H350.28M315.328 389.597V424.548M315.328 389.597H350.28M315.328 424.548V459.5M315.328 424.548H350.28M315.328 459.5V494.451M315.328 459.5H350.28M315.328 494.451V529.403M315.328 494.451H350.28M315.328 529.403V564.354M315.328 529.403H350.28M315.328 564.354V599.305M315.328 564.354H350.28M315.328 599.305V634.257M315.328 599.305H350.28M315.328 634.257V669.208M315.328 634.257H350.28M315.328 669.208V704.16M315.328 669.208H350.28M315.328 704.16V739.111M315.328 704.16H350.28M315.328 739.111V774.063M315.328 739.111H350.28M315.328 774.063V809.014M315.328 774.063H350.28M315.328 809.014H350.28M350.28 109.985V144.937M350.28 109.985H385.231M350.28 144.937V179.888M350.28 144.937H385.231M350.28 179.888V214.839M350.28 179.888H385.231M350.28 214.839V249.791M350.28 214.839H385.231M350.28 249.791V284.742M350.28 249.791H385.231M350.28 284.742V319.694M350.28 284.742H385.231M350.28 319.694V354.645M350.28 319.694H385.231M350.28 354.645V389.597M350.28 354.645H385.231M350.28 389.597V424.548M350.28 389.597H385.231M350.28 424.548V459.5M350.28 424.548H385.231M350.28 459.5V494.451M350.28 459.5H385.231M350.28 494.451V529.403M350.28 494.451H385.231M350.28 529.403V564.354M350.28 529.403H385.231M350.28 564.354V599.305M350.28 564.354H385.231M350.28 599.305V634.257M350.28 599.305H385.231M350.28 634.257V669.208M350.28 634.257H385.231M350.28 669.208V704.16M350.28 669.208H385.231M350.28 704.16V739.111M350.28 704.16H385.231M350.28 739.111V774.063M350.28 739.111H385.231M350.28 774.063V809.014M350.28 774.063H385.231M350.28 809.014H385.231M385.231 109.985V144.937M385.231 109.985H420.182M385.231 144.937V179.888M385.231 144.937H420.182M385.231 179.888V214.839M385.231 179.888H420.182M385.231 214.839V249.791M385.231 214.839H420.182M385.231 249.791V284.742M385.231 249.791H420.182M385.231 284.742V319.694M385.231 284.742H420.182M385.231 319.694V354.645M385.231 319.694H420.182M385.231 354.645V389.597M385.231 354.645H420.182M385.231 389.597V424.548M385.231 389.597H420.182M385.231 424.548V459.5M385.231 424.548H420.182M385.231 459.5V494.451M385.231 459.5H420.182M385.231 494.451V529.403M385.231 494.451H420.182M385.231 529.403V564.354M385.231 529.403H420.182M385.231 564.354V599.305M385.231 564.354H420.182M385.231 599.305V634.257M385.231 599.305H420.182M385.231 634.257V669.208M385.231 634.257H420.182M385.231 669.208V704.16M385.231 669.208H420.182M385.231 704.16V739.111M385.231 704.16H420.182M385.231 739.111V774.063M385.231 739.111H420.182M385.231 774.063V809.014M385.231 774.063H420.182M385.231 809.014H420.182M420.182 109.985V144.937M420.182 109.985H455.134M420.182 144.937V179.888M420.182 144.937H455.134M420.182 179.888V214.839M420.182 179.888H455.134M420.182 214.839V249.791M420.182 214.839H455.134M420.182 249.791V284.742M420.182 249.791H455.134M420.182 284.742V319.694M420.182 284.742H455.134M420.182 319.694V354.645M420.182 319.694H455.134M420.182 354.645V389.597M420.182 354.645H455.134M420.182 389.597V424.548M420.182 389.597H455.134M420.182 424.548V459.5M420.182 424.548H455.134M420.182 459.5V494.451M420.182 459.5H455.134M420.182 494.451V529.403M420.182 494.451H455.134M420.182 529.403V564.354M420.182 529.403H455.134M420.182 564.354V599.305M420.182 564.354H455.134M420.182 599.305V634.257M420.182 599.305H455.134M420.182 634.257V669.208M420.182 634.257H455.134M420.182 669.208V704.16M420.182 669.208H455.134M420.182 704.16V739.111M420.182 704.16H455.134M420.182 739.111V774.063M420.182 739.111H455.134M420.182 774.063V809.014M420.182 774.063H455.134M420.182 809.014H455.134M455.134 109.985V144.937M455.134 109.985H490.085M455.134 144.937V179.888M455.134 144.937H490.085M455.134 179.888V214.839M455.134 179.888H490.085M455.134 214.839V249.791M455.134 214.839H490.085M455.134 249.791V284.742M455.134 249.791H490.085M455.134 284.742V319.694M455.134 284.742H490.085M455.134 319.694V354.645M455.134 319.694H490.085M455.134 354.645V389.597M455.134 354.645H490.085M455.134 389.597V424.548M455.134 389.597H490.085M455.134 424.548V459.5M455.134 424.548H490.085M455.134 459.5V494.451M455.134 459.5H490.085M455.134 494.451V529.403M455.134 494.451H490.085M455.134 529.403V564.354M455.134 529.403H490.085M455.134 564.354V599.305M455.134 564.354H490.085M455.134 599.305V634.257M455.134 599.305H490.085M455.134 634.257V669.208M455.134 634.257H490.085M455.134 669.208V704.16M455.134 669.208H490.085M455.134 704.16V739.111M455.134 704.16H490.085M455.134 739.111V774.063M455.134 739.111H490.085M455.134 774.063V809.014M455.134 774.063H490.085M455.134 809.014H490.085M490.085 109.985V144.937M490.085 109.985H525.037M490.085 144.937V179.888M490.085 144.937H525.037M490.085 179.888V214.839M490.085 179.888H525.037M490.085 214.839V249.791M490.085 214.839H525.037M490.085 249.791V284.742M490.085 249.791H525.037M490.085 284.742V319.694M490.085 284.742H525.037M490.085 319.694V354.645M490.085 319.694H525.037M490.085 354.645V389.597M490.085 354.645H525.037M490.085 389.597V424.548M490.085 389.597H525.037M490.085 424.548V459.5M490.085 424.548H525.037M490.085 459.5V494.451M490.085 459.5H525.037M490.085 494.451V529.403M490.085 494.451H525.037M490.085 529.403V564.354M490.085 529.403H525.037M490.085 564.354V599.305M490.085 564.354H525.037M490.085 599.305V634.257M490.085 599.305H525.037M490.085 634.257V669.208M490.085 634.257H525.037M490.085 669.208V704.16M490.085 669.208H525.037M490.085 704.16V739.111M490.085 704.16H525.037M490.085 739.111V774.063M490.085 739.111H525.037M490.085 774.063V809.014M490.085 774.063H525.037M490.085 809.014H525.037M525.037 109.985V144.937M525.037 109.985H559.988M525.037 144.937V179.888M525.037 144.937H559.988M525.037 179.888V214.839M525.037 179.888H559.988M525.037 214.839V249.791M525.037 214.839H559.988M525.037 249.791V284.742M525.037 249.791H559.988M525.037 284.742V319.694M525.037 284.742H559.988M525.037 319.694V354.645M525.037 319.694H559.988M525.037 354.645V389.597M525.037 354.645H559.988M525.037 389.597V424.548M525.037 389.597H559.988M525.037 424.548V459.5M525.037 424.548H559.988M525.037 459.5V494.451M525.037 459.5H559.988M525.037 494.451V529.403M525.037 494.451H559.988M525.037 529.403V564.354M525.037 529.403H559.988M525.037 564.354V599.305M525.037 564.354H559.988M525.037 599.305V634.257M525.037 599.305H559.988M525.037 634.257V669.208M525.037 634.257H559.988M525.037 669.208V704.16M525.037 669.208H559.988M525.037 704.16V739.111M525.037 704.16H559.988M525.037 739.111V774.063M525.037 739.111H559.988M525.037 774.063V809.014M525.037 774.063H559.988M525.037 809.014H559.988M559.988 109.985V144.937M559.988 109.985H594.94M559.988 144.937V179.888M559.988 144.937H594.94M559.988 179.888V214.839M559.988 179.888H594.94M559.988 214.839V249.791M559.988 214.839H594.94M559.988 249.791V284.742M559.988 249.791H594.94M559.988 284.742V319.694M559.988 284.742H594.94M559.988 319.694V354.645M559.988 319.694H594.94M559.988 354.645V389.597M559.988 354.645H594.94M559.988 389.597V424.548M559.988 389.597H594.94M559.988 424.548V459.5M559.988 424.548H594.94M559.988 459.5V494.451M559.988 459.5H594.94M559.988 494.451V529.403M559.988 494.451H594.94M559.988 529.403V564.354M559.988 529.403H594.94M559.988 564.354V599.305M559.988 564.354H594.94M559.988 599.305V634.257M559.988 599.305H594.94M559.988 634.257V669.208M559.988 634.257H594.94M559.988 669.208V704.16M559.988 669.208H594.94M559.988 704.16V739.111M559.988 704.16H594.94M559.988 739.111V774.063M559.988 739.111H594.94M559.988 774.063V809.014M559.988 774.063H594.94M559.988 809.014H594.94M594.94 109.985V144.937M594.94 109.985H629.891M594.94 144.937V179.888M594.94 144.937H629.891M594.94 179.888V214.839M594.94 179.888H629.891M594.94 214.839V249.791M594.94 214.839H629.891M594.94 249.791V284.742M594.94 249.791H629.891M594.94 284.742V319.694M594.94 284.742H629.891M594.94 319.694V354.645M594.94 319.694H629.891M594.94 354.645V389.597M594.94 354.645H629.891M594.94 389.597V424.548M594.94 389.597H629.891M594.94 424.548V459.5M594.94 424.548H629.891M594.94 459.5V494.451M594.94 459.5H629.891M594.94 494.451V529.403M594.94 494.451H629.891M594.94 529.403V564.354M594.94 529.403H629.891M594.94 564.354V599.305M594.94 564.354H629.891M594.94 599.305V634.257M594.94 599.305H629.891M594.94 634.257V669.208M594.94 634.257H629.891M594.94 669.208V704.16M594.94 669.208H629.891M594.94 704.16V739.111M594.94 704.16H629.891M594.94 739.111V774.063M594.94 739.111H629.891M594.94 774.063V809.014M594.94 774.063H629.891M594.94 809.014H629.891M629.891 109.985V144.937M629.891 109.985H664.843M629.891 144.937V179.888M629.891 144.937H664.843M629.891 179.888V214.839M629.891 179.888H664.843M629.891 214.839V249.791M629.891 214.839H664.843M629.891 249.791V284.742M629.891 249.791H664.843M629.891 284.742V319.694M629.891 284.742H664.843M629.891 319.694V354.645M629.891 319.694H664.843M629.891 354.645V389.597M629.891 354.645H664.843M629.891 389.597V424.548M629.891 389.597H664.843M629.891 424.548V459.5M629.891 424.548H664.843M629.891 459.5V494.451M629.891 459.5H664.843M629.891 494.451V529.403M629.891 494.451H664.843M629.891 529.403V564.354M629.891 529.403H664.843M629.891 564.354V599.305M629.891 564.354H664.843M629.891 599.305V634.257M629.891 599.305H664.843M629.891 634.257V669.208M629.891 634.257H664.843M629.891 669.208V704.16M629.891 669.208H664.843M629.891 704.16V739.111M629.891 704.16H664.843M629.891 739.111V774.063M629.891 739.111H664.843M629.891 774.063V809.014M629.891 774.063H664.843M629.891 809.014H664.843M664.843 109.985V144.937M664.843 109.985H699.794M664.843 144.937V179.888M664.843 144.937H699.794M664.843 179.888V214.839M664.843 179.888H699.794M664.843 214.839V249.791M664.843 214.839H699.794M664.843 249.791V284.742M664.843 249.791H699.794M664.843 284.742V319.694M664.843 284.742H699.794M664.843 319.694V354.645M664.843 319.694H699.794M664.843 354.645V389.597M664.843 354.645H699.794M664.843 389.597V424.548M664.843 389.597H699.794M664.843 424.548V459.5M664.843 424.548H699.794M664.843 459.5V494.451M664.843 459.5H699.794M664.843 494.451V529.403M664.843 494.451H699.794M664.843 529.403V564.354M664.843 529.403H699.794M664.843 564.354V599.305M664.843 564.354H699.794M664.843 599.305V634.257M664.843 599.305H699.794M664.843 634.257V669.208M664.843 634.257H699.794M664.843 669.208V704.16M664.843 669.208H699.794M664.843 704.16V739.111M664.843 704.16H699.794M664.843 739.111V774.063M664.843 739.111H699.794M664.843 774.063V809.014M664.843 774.063H699.794M664.843 809.014H699.794M699.794 109.985V144.937M699.794 109.985H734.746M699.794 144.937V179.888M699.794 144.937H734.746M699.794 179.888V214.839M699.794 179.888H734.746M699.794 214.839V249.791M699.794 214.839H734.746M699.794 249.791V284.742M699.794 249.791H734.746M699.794 284.742V319.694M699.794 284.742H734.746M699.794 319.694V354.645M699.794 319.694H734.746M699.794 354.645V389.597M699.794 354.645H734.746M699.794 389.597V424.548M699.794 389.597H734.746M699.794 424.548V459.5M699.794 424.548H734.746M699.794 459.5V494.451M699.794 459.5H734.746M699.794 494.451V529.403M699.794 494.451H734.746M699.794 529.403V564.354M699.794 529.403H734.746M699.794 564.354V599.305M699.794 564.354H734.746M699.794 599.305V634.257M699.794 599.305H734.746M699.794 634.257V669.208M699.794 634.257H734.746M699.794 669.208V704.16M699.794 669.208H734.746M699.794 704.16V739.111M699.794 704.16H734.746M699.794 739.111V774.063M699.794 739.111H734.746M699.794 774.063V809.014M699.794 774.063H734.746M699.794 809.014H734.746M734.746 109.985V144.937M734.746 109.985H769.697M734.746 144.937V179.888M734.746 144.937H769.697M734.746 179.888V214.839M734.746 179.888H769.697M734.746 214.839V249.791M734.746 214.839H769.697M734.746 249.791V284.742M734.746 249.791H769.697M734.746 284.742V319.694M734.746 284.742H769.697M734.746 319.694V354.645M734.746 319.694H769.697M734.746 354.645V389.597M734.746 354.645H769.697M734.746 389.597V424.548M734.746 389.597H769.697M734.746 424.548V459.5M734.746 424.548H769.697M734.746 459.5V494.451M734.746 459.5H769.697M734.746 494.451V529.403M734.746 494.451H769.697M734.746 529.403V564.354M734.746 529.403H769.697M734.746 564.354V599.305M734.746 564.354H769.697M734.746 599.305V634.257M734.746 599.305H769.697M734.746 634.257V669.208M734.746 634.257H769.697M734.746 669.208V704.16M734.746 669.208H769.697M734.746 704.16V739.111M734.746 704.16H769.697M734.746 739.111V774.063M734.746 739.111H769.697M734.746 774.063V809.014M734.746 774.063H769.697M734.746 809.014H769.697M769.697 109.985V144.937M769.697 109.985H804.648M769.697 144.937V179.888M769.697 144.937H804.648M769.697 179.888V214.839M769.697 179.888H804.648M769.697 214.839V249.791M769.697 214.839H804.648M769.697 249.791V284.742M769.697 249.791H804.648M769.697 284.742V319.694M769.697 284.742H804.648M769.697 319.694V354.645M769.697 319.694H804.648M769.697 354.645V389.597M769.697 354.645H804.648M769.697 389.597V424.548M769.697 389.597H804.648M769.697 424.548V459.5M769.697 424.548H804.648M769.697 459.5V494.451M769.697 459.5H804.648M769.697 494.451V529.403M769.697 494.451H804.648M769.697 529.403V564.354M769.697 529.403H804.648M769.697 564.354V599.305M769.697 564.354H804.648M769.697 599.305V634.257M769.697 599.305H804.648M769.697 634.257V669.208M769.697 634.257H804.648M769.697 669.208V704.16M769.697 669.208H804.648M769.697 704.16V739.111M769.697 704.16H804.648M769.697 739.111V774.063M769.697 739.111H804.648M769.697 774.063V809.014M769.697 774.063H804.648M769.697 809.014H804.648M804.648 109.985V144.937M804.648 109.985H839.6M804.648 144.937V179.888M804.648 144.937H839.6M804.648 179.888V214.839M804.648 179.888H839.6M804.648 214.839V249.791M804.648 214.839H839.6M804.648 249.791V284.742M804.648 249.791H839.6M804.648 284.742V319.694M804.648 284.742H839.6M804.648 319.694V354.645M804.648 319.694H839.6M804.648 354.645V389.597M804.648 354.645H839.6M804.648 389.597V424.548M804.648 389.597H839.6M804.648 424.548V459.5M804.648 424.548H839.6M804.648 459.5V494.451M804.648 459.5H839.6M804.648 494.451V529.403M804.648 494.451H839.6M804.648 529.403V564.354M804.648 529.403H839.6M804.648 564.354V599.305M804.648 564.354H839.6M804.648 599.305V634.257M804.648 599.305H839.6M804.648 634.257V669.208M804.648 634.257H839.6M804.648 669.208V704.16M804.648 669.208H839.6M804.648 704.16V739.111M804.648 704.16H839.6M804.648 739.111V774.063M804.648 739.111H839.6M804.648 774.063V809.014M804.648 774.063H839.6M804.648 809.014H839.6M839.6 109.985V144.937M839.6 109.985H874.551M839.6 144.937V179.888M839.6 144.937H874.551M839.6 179.888V214.839M839.6 179.888H874.551M839.6 214.839V249.791M839.6 214.839H874.551M839.6 249.791V284.742M839.6 249.791H874.551M839.6 284.742V319.694M839.6 284.742H874.551M839.6 319.694V354.645M839.6 319.694H874.551M839.6 354.645V389.597M839.6 354.645H874.551M839.6 389.597V424.548M839.6 389.597H874.551M839.6 424.548V459.5M839.6 424.548H874.551M839.6 459.5V494.451M839.6 459.5H874.551M839.6 494.451V529.403M839.6 494.451H874.551M839.6 529.403V564.354M839.6 529.403H874.551M839.6 564.354V599.305M839.6 564.354H874.551M839.6 599.305V634.257M839.6 599.305H874.551M839.6 634.257V669.208M839.6 634.257H874.551M839.6 669.208V704.16M839.6 669.208H874.551M839.6 704.16V739.111M839.6 704.16H874.551M839.6 739.111V774.063M839.6 739.111H874.551M839.6 774.063V809.014M839.6 774.063H874.551M839.6 809.014H874.551M874.551 109.985V144.937M874.551 109.985H909.503M874.551 144.937V179.888M874.551 144.937H909.503M874.551 179.888V214.839M874.551 179.888H909.503M874.551 214.839V249.791M874.551 214.839H909.503M874.551 249.791V284.742M874.551 249.791H909.503M874.551 284.742V319.694M874.551 284.742H909.503M874.551 319.694V354.645M874.551 319.694H909.503M874.551 354.645V389.597M874.551 354.645H909.503M874.551 389.597V424.548M874.551 389.597H909.503M874.551 424.548V459.5M874.551 424.548H909.503M874.551 459.5V494.451M874.551 459.5H909.503M874.551 494.451V529.403M874.551 494.451H909.503M874.551 529.403V564.354M874.551 529.403H909.503M874.551 564.354V599.305M874.551 564.354H909.503M874.551 599.305V634.257M874.551 599.305H909.503M874.551 634.257V669.208M874.551 634.257H909.503M874.551 669.208V704.16M874.551 669.208H909.503M874.551 704.16V739.111M874.551 704.16H909.503M874.551 739.111V774.063M874.551 739.111H909.503M874.551 774.063V809.014M874.551 774.063H909.503M874.551 809.014H909.503M909.503 109.985V144.937M909.503 109.985H944.454M909.503 144.937V179.888M909.503 144.937H944.454M909.503 179.888V214.839M909.503 179.888H944.454M909.503 214.839V249.791M909.503 214.839H944.454M909.503 249.791V284.742M909.503 249.791H944.454M909.503 284.742V319.694M909.503 284.742H944.454M909.503 319.694V354.645M909.503 319.694H944.454M909.503 354.645V389.597M909.503 354.645H944.454M909.503 389.597V424.548M909.503 389.597H944.454M909.503 424.548V459.5M909.503 424.548H944.454M909.503 459.5V494.451M909.503 459.5H944.454M909.503 494.451V529.403M909.503 494.451H944.454M909.503 529.403V564.354M909.503 529.403H944.454M909.503 564.354V599.305M909.503 564.354H944.454M909.503 599.305V634.257M909.503 599.305H944.454M909.503 634.257V669.208M909.503 634.257H944.454M909.503 669.208V704.16M909.503 669.208H944.454M909.503 704.16V739.111M909.503 704.16H944.454M909.503 739.111V774.063M909.503 739.111H944.454M909.503 774.063V809.014M909.503 774.063H944.454M909.503 809.014H944.454M944.454 109.985V144.937M944.454 109.985H979.406M944.454 144.937V179.888M944.454 144.937H979.406M944.454 179.888V214.839M944.454 179.888H979.406M944.454 214.839V249.791M944.454 214.839H979.406M944.454 249.791V284.742M944.454 249.791H979.406M944.454 284.742V319.694M944.454 284.742H979.406M944.454 319.694V354.645M944.454 319.694H979.406M944.454 354.645V389.597M944.454 354.645H979.406M944.454 389.597V424.548M944.454 389.597H979.406M944.454 424.548V459.5M944.454 424.548H979.406M944.454 459.5V494.451M944.454 459.5H979.406M944.454 494.451V529.403M944.454 494.451H979.406M944.454 529.403V564.354M944.454 529.403H979.406M944.454 564.354V599.305M944.454 564.354H979.406M944.454 599.305V634.257M944.454 599.305H979.406M944.454 634.257V669.208M944.454 634.257H979.406M944.454 669.208V704.16M944.454 669.208H979.406M944.454 704.16V739.111M944.454 704.16H979.406M944.454 739.111V774.063M944.454 739.111H979.406M944.454 774.063V809.014M944.454 774.063H979.406M944.454 809.014H979.406M979.406 109.985V144.937M979.406 109.985H1014.36M979.406 144.937V179.888M979.406 144.937H1014.36M979.406 179.888V214.839M979.406 179.888H1014.36M979.406 214.839V249.791M979.406 214.839H1014.36M979.406 249.791V284.742M979.406 249.791H1014.36M979.406 284.742V319.694M979.406 284.742H1014.36M979.406 319.694V354.645M979.406 319.694H1014.36M979.406 354.645V389.597M979.406 354.645H1014.36M979.406 389.597V424.548M979.406 389.597H1014.36M979.406 424.548V459.5M979.406 424.548H1014.36M979.406 459.5V494.451M979.406 459.5H1014.36M979.406 494.451V529.403M979.406 494.451H1014.36M979.406 529.403V564.354M979.406 529.403H1014.36M979.406 564.354V599.305M979.406 564.354H1014.36M979.406 599.305V634.257M979.406 599.305H1014.36M979.406 634.257V669.208M979.406 634.257H1014.36M979.406 669.208V704.16M979.406 669.208H1014.36M979.406 704.16V739.111M979.406 704.16H1014.36M979.406 739.111V774.063M979.406 739.111H1014.36M979.406 774.063V809.014M979.406 774.063H1014.36M979.406 809.014H1014.36M1014.36 109.985V144.937M1014.36 109.985H1049.31M1014.36 144.937V179.888M1014.36 144.937H1049.31M1014.36 179.888V214.839M1014.36 179.888H1049.31M1014.36 214.839V249.791M1014.36 214.839H1049.31M1014.36 249.791V284.742M1014.36 249.791H1049.31M1014.36 284.742V319.694M1014.36 284.742H1049.31M1014.36 319.694V354.645M1014.36 319.694H1049.31M1014.36 354.645V389.597M1014.36 354.645H1049.31M1014.36 389.597V424.548M1014.36 389.597H1049.31M1014.36 424.548V459.5M1014.36 424.548H1049.31M1014.36 459.5V494.451M1014.36 459.5H1049.31M1014.36 494.451V529.403M1014.36 494.451H1049.31M1014.36 529.403V564.354M1014.36 529.403H1049.31M1014.36 564.354V599.305M1014.36 564.354H1049.31M1014.36 599.305V634.257M1014.36 599.305H1049.31M1014.36 634.257V669.208M1014.36 634.257H1049.31M1014.36 669.208V704.16M1014.36 669.208H1049.31M1014.36 704.16V739.111M1014.36 704.16H1049.31M1014.36 739.111V774.063M1014.36 739.111H1049.31M1014.36 774.063V809.014M1014.36 774.063H1049.31M1014.36 809.014H1049.31M1049.31 109.985V144.937M1049.31 109.985H1084.26M1049.31 144.937V179.888M1049.31 144.937H1084.26M1049.31 179.888V214.839M1049.31 179.888H1084.26M1049.31 214.839V249.791M1049.31 214.839H1084.26M1049.31 249.791V284.742M1049.31 249.791H1084.26M1049.31 284.742V319.694M1049.31 284.742H1084.26M1049.31 319.694V354.645M1049.31 319.694H1084.26M1049.31 354.645V389.597M1049.31 354.645H1084.26M1049.31 389.597V424.548M1049.31 389.597H1084.26M1049.31 424.548V459.5M1049.31 424.548H1084.26M1049.31 459.5V494.451M1049.31 459.5H1084.26M1049.31 494.451V529.403M1049.31 494.451H1084.26M1049.31 529.403V564.354M1049.31 529.403H1084.26M1049.31 564.354V599.305M1049.31 564.354H1084.26M1049.31 599.305V634.257M1049.31 599.305H1084.26M1049.31 634.257V669.208M1049.31 634.257H1084.26M1049.31 669.208V704.16M1049.31 669.208H1084.26M1049.31 704.16V739.111M1049.31 704.16H1084.26M1049.31 739.111V774.063M1049.31 739.111H1084.26M1049.31 774.063V809.014M1049.31 774.063H1084.26M1049.31 809.014H1084.26M1084.26 109.985V144.937M1084.26 109.985H1119.21M1084.26 144.937V179.888M1084.26 144.937H1119.21M1084.26 179.888V214.839M1084.26 179.888H1119.21M1084.26 214.839V249.791M1084.26 214.839H1119.21M1084.26 249.791V284.742M1084.26 249.791H1119.21M1084.26 284.742V319.694M1084.26 284.742H1119.21M1084.26 319.694V354.645M1084.26 319.694H1119.21M1084.26 354.645V389.597M1084.26 354.645H1119.21M1084.26 389.597V424.548M1084.26 389.597H1119.21M1084.26 424.548V459.5M1084.26 424.548H1119.21M1084.26 459.5V494.451M1084.26 459.5H1119.21M1084.26 494.451V529.403M1084.26 494.451H1119.21M1084.26 529.403V564.354M1084.26 529.403H1119.21M1084.26 564.354V599.305M1084.26 564.354H1119.21M1084.26 599.305V634.257M1084.26 599.305H1119.21M1084.26 634.257V669.208M1084.26 634.257H1119.21M1084.26 669.208V704.16M1084.26 669.208H1119.21M1084.26 704.16V739.111M1084.26 704.16H1119.21M1084.26 739.111V774.063M1084.26 739.111H1119.21M1084.26 774.063V809.014M1084.26 774.063H1119.21M1084.26 809.014H1119.21M1119.21 109.985V144.937M1119.21 109.985H1154.16M1119.21 144.937V179.888M1119.21 144.937H1154.16M1119.21 179.888V214.839M1119.21 179.888H1154.16M1119.21 214.839V249.791M1119.21 214.839H1154.16M1119.21 249.791V284.742M1119.21 249.791H1154.16M1119.21 284.742V319.694M1119.21 284.742H1154.16M1119.21 319.694V354.645M1119.21 319.694H1154.16M1119.21 354.645V389.597M1119.21 354.645H1154.16M1119.21 389.597V424.548M1119.21 389.597H1154.16M1119.21 424.548V459.5M1119.21 424.548H1154.16M1119.21 459.5V494.451M1119.21 459.5H1154.16M1119.21 494.451V529.403M1119.21 494.451H1154.16M1119.21 529.403V564.354M1119.21 529.403H1154.16M1119.21 564.354V599.305M1119.21 564.354H1154.16M1119.21 599.305V634.257M1119.21 599.305H1154.16M1119.21 634.257V669.208M1119.21 634.257H1154.16M1119.21 669.208V704.16M1119.21 669.208H1154.16M1119.21 704.16V739.111M1119.21 704.16H1154.16M1119.21 739.111V774.063M1119.21 739.111H1154.16M1119.21 774.063V809.014M1119.21 774.063H1154.16M1119.21 809.014H1154.16M1154.16 109.985V144.937M1154.16 109.985H1189.11M1154.16 144.937V179.888M1154.16 144.937H1189.11M1154.16 179.888V214.839M1154.16 179.888H1189.11M1154.16 214.839V249.791M1154.16 214.839H1189.11M1154.16 249.791V284.742M1154.16 249.791H1189.11M1154.16 284.742V319.694M1154.16 284.742H1189.11M1154.16 319.694V354.645M1154.16 319.694H1189.11M1154.16 354.645V389.597M1154.16 354.645H1189.11M1154.16 389.597V424.548M1154.16 389.597H1189.11M1154.16 424.548V459.5M1154.16 424.548H1189.11M1154.16 459.5V494.451M1154.16 459.5H1189.11M1154.16 494.451V529.403M1154.16 494.451H1189.11M1154.16 529.403V564.354M1154.16 529.403H1189.11M1154.16 564.354V599.305M1154.16 564.354H1189.11M1154.16 599.305V634.257M1154.16 599.305H1189.11M1154.16 634.257V669.208M1154.16 634.257H1189.11M1154.16 669.208V704.16M1154.16 669.208H1189.11M1154.16 704.16V739.111M1154.16 704.16H1189.11M1154.16 739.111V774.063M1154.16 739.111H1189.11M1154.16 774.063V809.014M1154.16 774.063H1189.11M1154.16 809.014H1189.11M1189.11 109.985V144.937M1189.11 109.985H1224.07M1189.11 144.937V179.888M1189.11 144.937H1224.07M1189.11 179.888V214.839M1189.11 179.888H1224.07M1189.11 214.839V249.791M1189.11 214.839H1224.07M1189.11 249.791V284.742M1189.11 249.791H1224.07M1189.11 284.742V319.694M1189.11 284.742H1224.07M1189.11 319.694V354.645M1189.11 319.694H1224.07M1189.11 354.645V389.597M1189.11 354.645H1224.07M1189.11 389.597V424.548M1189.11 389.597H1224.07M1189.11 424.548V459.5M1189.11 424.548H1224.07M1189.11 459.5V494.451M1189.11 459.5H1224.07M1189.11 494.451V529.403M1189.11 494.451H1224.07M1189.11 529.403V564.354M1189.11 529.403H1224.07M1189.11 564.354V599.305M1189.11 564.354H1224.07M1189.11 599.305V634.257M1189.11 599.305H1224.07M1189.11 634.257V669.208M1189.11 634.257H1224.07M1189.11 669.208V704.16M1189.11 669.208H1224.07M1189.11 704.16V739.111M1189.11 704.16H1224.07M1189.11 739.111V774.063M1189.11 739.111H1224.07M1189.11 774.063V809.014M1189.11 774.063H1224.07M1189.11 809.014H1224.07M1224.07 109.985V144.937M1224.07 109.985H1259.02M1224.07 144.937V179.888M1224.07 144.937H1259.02M1224.07 179.888V214.839M1224.07 179.888H1259.02M1224.07 214.839V249.791M1224.07 214.839H1259.02M1224.07 249.791V284.742M1224.07 249.791H1259.02M1224.07 284.742V319.694M1224.07 284.742H1259.02M1224.07 319.694V354.645M1224.07 319.694H1259.02M1224.07 354.645V389.597M1224.07 354.645H1259.02M1224.07 389.597V424.548M1224.07 389.597H1259.02M1224.07 424.548V459.5M1224.07 424.548H1259.02M1224.07 459.5V494.451M1224.07 459.5H1259.02M1224.07 494.451V529.403M1224.07 494.451H1259.02M1224.07 529.403V564.354M1224.07 529.403H1259.02M1224.07 564.354V599.305M1224.07 564.354H1259.02M1224.07 599.305V634.257M1224.07 599.305H1259.02M1224.07 634.257V669.208M1224.07 634.257H1259.02M1224.07 669.208V704.16M1224.07 669.208H1259.02M1224.07 704.16V739.111M1224.07 704.16H1259.02M1224.07 739.111V774.063M1224.07 739.111H1259.02M1224.07 774.063V809.014M1224.07 774.063H1259.02M1224.07 809.014H1259.02M1259.02 109.985V144.937M1259.02 109.985H1293.97M1259.02 144.937V179.888M1259.02 144.937H1293.97M1259.02 179.888V214.839M1259.02 179.888H1293.97M1259.02 214.839V249.791M1259.02 214.839H1293.97M1259.02 249.791V284.742M1259.02 249.791H1293.97M1259.02 284.742V319.694M1259.02 284.742H1293.97M1259.02 319.694V354.645M1259.02 319.694H1293.97M1259.02 354.645V389.597M1259.02 354.645H1293.97M1259.02 389.597V424.548M1259.02 389.597H1293.97M1259.02 424.548V459.5M1259.02 424.548H1293.97M1259.02 459.5V494.451M1259.02 459.5H1293.97M1259.02 494.451V529.403M1259.02 494.451H1293.97M1259.02 529.403V564.354M1259.02 529.403H1293.97M1259.02 564.354V599.305M1259.02 564.354H1293.97M1259.02 599.305V634.257M1259.02 599.305H1293.97M1259.02 634.257V669.208M1259.02 634.257H1293.97M1259.02 669.208V704.16M1259.02 669.208H1293.97M1259.02 704.16V739.111M1259.02 704.16H1293.97M1259.02 739.111V774.063M1259.02 739.111H1293.97M1259.02 774.063V809.014M1259.02 774.063H1293.97M1259.02 809.014H1293.97M1293.97 109.985V144.937M1293.97 109.985H1328.92M1293.97 144.937V179.888M1293.97 144.937H1328.92M1293.97 179.888V214.839M1293.97 179.888H1328.92M1293.97 214.839V249.791M1293.97 214.839H1328.92M1293.97 249.791V284.742M1293.97 249.791H1328.92M1293.97 284.742V319.694M1293.97 284.742H1328.92M1293.97 319.694V354.645M1293.97 319.694H1328.92M1293.97 354.645V389.597M1293.97 354.645H1328.92M1293.97 389.597V424.548M1293.97 389.597H1328.92M1293.97 424.548V459.5M1293.97 424.548H1328.92M1293.97 459.5V494.451M1293.97 459.5H1328.92M1293.97 494.451V529.403M1293.97 494.451H1328.92M1293.97 529.403V564.354M1293.97 529.403H1328.92M1293.97 564.354V599.305M1293.97 564.354H1328.92M1293.97 599.305V634.257M1293.97 599.305H1328.92M1293.97 634.257V669.208M1293.97 634.257H1328.92M1293.97 669.208V704.16M1293.97 669.208H1328.92M1293.97 704.16V739.111M1293.97 704.16H1328.92M1293.97 739.111V774.063M1293.97 739.111H1328.92M1293.97 774.063V809.014M1293.97 774.063H1328.92M1293.97 809.014H1328.92M1328.92 109.985V144.937M1328.92 109.985H1363.87M1328.92 144.937V179.888M1328.92 144.937H1363.87M1328.92 179.888V214.839M1328.92 179.888H1363.87M1328.92 214.839V249.791M1328.92 214.839H1363.87M1328.92 249.791V284.742M1328.92 249.791H1363.87M1328.92 284.742V319.694M1328.92 284.742H1363.87M1328.92 319.694V354.645M1328.92 319.694H1363.87M1328.92 354.645V389.597M1328.92 354.645H1363.87M1328.92 389.597V424.548M1328.92 389.597H1363.87M1328.92 424.548V459.5M1328.92 424.548H1363.87M1328.92 459.5V494.451M1328.92 459.5H1363.87M1328.92 494.451V529.403M1328.92 494.451H1363.87M1328.92 529.403V564.354M1328.92 529.403H1363.87M1328.92 564.354V599.305M1328.92 564.354H1363.87M1328.92 599.305V634.257M1328.92 599.305H1363.87M1328.92 634.257V669.208M1328.92 634.257H1363.87M1328.92 669.208V704.16M1328.92 669.208H1363.87M1328.92 704.16V739.111M1328.92 704.16H1363.87M1328.92 739.111V774.063M1328.92 739.111H1363.87M1328.92 774.063V809.014M1328.92 774.063H1363.87M1328.92 809.014H1363.87M1363.87 109.985V144.937M1363.87 109.985H1398.82M1363.87 144.937V179.888M1363.87 144.937H1398.82M1363.87 179.888V214.839M1363.87 179.888H1398.82M1363.87 214.839V249.791M1363.87 214.839H1398.82M1363.87 249.791V284.742M1363.87 249.791H1398.82M1363.87 284.742V319.694M1363.87 284.742H1398.82M1363.87 319.694V354.645M1363.87 319.694H1398.82M1363.87 354.645V389.597M1363.87 354.645H1398.82M1363.87 389.597V424.548M1363.87 389.597H1398.82M1363.87 424.548V459.5M1363.87 424.548H1398.82M1363.87 459.5V494.451M1363.87 459.5H1398.82M1363.87 494.451V529.403M1363.87 494.451H1398.82M1363.87 529.403V564.354M1363.87 529.403H1398.82M1363.87 564.354V599.305M1363.87 564.354H1398.82M1363.87 599.305V634.257M1363.87 599.305H1398.82M1363.87 634.257V669.208M1363.87 634.257H1398.82M1363.87 669.208V704.16M1363.87 669.208H1398.82M1363.87 704.16V739.111M1363.87 704.16H1398.82M1363.87 739.111V774.063M1363.87 739.111H1398.82M1363.87 774.063V809.014M1363.87 774.063H1398.82M1363.87 809.014H1398.82M1398.82 109.985V144.937M1398.82 109.985H1433.77M1398.82 144.937V179.888M1398.82 144.937H1433.77M1398.82 179.888V214.839M1398.82 179.888H1433.77M1398.82 214.839V249.791M1398.82 214.839H1433.77M1398.82 249.791V284.742M1398.82 249.791H1433.77M1398.82 284.742V319.694M1398.82 284.742H1433.77M1398.82 319.694V354.645M1398.82 319.694H1433.77M1398.82 354.645V389.597M1398.82 354.645H1433.77M1398.82 389.597V424.548M1398.82 389.597H1433.77M1398.82 424.548V459.5M1398.82 424.548H1433.77M1398.82 459.5V494.451M1398.82 459.5H1433.77M1398.82 494.451V529.403M1398.82 494.451H1433.77M1398.82 529.403V564.354M1398.82 529.403H1433.77M1398.82 564.354V599.305M1398.82 564.354H1433.77M1398.82 599.305V634.257M1398.82 599.305H1433.77M1398.82 634.257V669.208M1398.82 634.257H1433.77M1398.82 669.208V704.16M1398.82 669.208H1433.77M1398.82 704.16V739.111M1398.82 704.16H1433.77M1398.82 739.111V774.063M1398.82 739.111H1433.77M1398.82 774.063V809.014M1398.82 774.063H1433.77M1398.82 809.014H1433.77M1433.77 109.985V144.937M1433.77 109.985H1468.73M1433.77 144.937V179.888M1433.77 144.937H1468.73M1433.77 179.888V214.839M1433.77 179.888H1468.73M1433.77 214.839V249.791M1433.77 214.839H1468.73M1433.77 249.791V284.742M1433.77 249.791H1468.73M1433.77 284.742V319.694M1433.77 284.742H1468.73M1433.77 319.694V354.645M1433.77 319.694H1468.73M1433.77 354.645V389.597M1433.77 354.645H1468.73M1433.77 389.597V424.548M1433.77 389.597H1468.73M1433.77 424.548V459.5M1433.77 424.548H1468.73M1433.77 459.5V494.451M1433.77 459.5H1468.73M1433.77 494.451V529.403M1433.77 494.451H1468.73M1433.77 529.403V564.354M1433.77 529.403H1468.73M1433.77 564.354V599.305M1433.77 564.354H1468.73M1433.77 599.305V634.257M1433.77 599.305H1468.73M1433.77 634.257V669.208M1433.77 634.257H1468.73M1433.77 669.208V704.16M1433.77 669.208H1468.73M1433.77 704.16V739.111M1433.77 704.16H1468.73M1433.77 739.111V774.063M1433.77 739.111H1468.73M1433.77 774.063V809.014M1433.77 774.063H1468.73M1433.77 809.014H1468.73M1468.73 109.985V144.937M1468.73 109.985H1503.68V144.937M1468.73 144.937V179.888M1468.73 144.937H1503.68M1468.73 179.888V214.839M1468.73 179.888H1503.68M1468.73 214.839V249.791M1468.73 214.839H1503.68M1468.73 249.791V284.742M1468.73 249.791H1503.68M1468.73 284.742V319.694M1468.73 284.742H1503.68M1468.73 319.694V354.645M1468.73 319.694H1503.68M1468.73 354.645V389.597M1468.73 354.645H1503.68M1468.73 389.597V424.548M1468.73 389.597H1503.68M1468.73 424.548V459.5M1468.73 424.548H1503.68M1468.73 459.5V494.451M1468.73 459.5H1503.68M1468.73 494.451V529.403M1468.73 494.451H1503.68M1468.73 529.403V564.354M1468.73 529.403H1503.68M1468.73 564.354V599.305M1468.73 564.354H1503.68M1468.73 599.305V634.257M1468.73 599.305H1503.68M1468.73 634.257V669.208M1468.73 634.257H1503.68M1468.73 669.208V704.16M1468.73 669.208H1503.68M1468.73 704.16V739.111M1468.73 704.16H1503.68M1468.73 739.111V774.063M1468.73 739.111H1503.68M1468.73 774.063V809.014M1468.73 774.063H1503.68M1468.73 809.014H1503.68V774.063M1503.68 144.937V179.888M1503.68 179.888V214.839M1503.68 214.839V249.791M1503.68 249.791V284.742M1503.68 284.742V319.694M1503.68 319.694V354.645M1503.68 354.645V389.597M1503.68 389.597V424.548M1503.68 424.548V459.5M1503.68 459.5V494.451M1503.68 494.451V529.403M1503.68 529.403V564.354M1503.68 564.354V599.305M1503.68 599.305V634.257M1503.68 634.257V669.208M1503.68 669.208V704.16M1503.68 704.16V739.111M1503.68 739.111V774.063" stroke="url(#paint0_radial_1022_12822)" stroke-opacity="0.3"/>
<g style="">
<path d="M105.619 239.306V249.791M105.619 249.791V260.277M105.619 249.791H95.134M105.619 249.791H116.105M105.619 518.917V529.403M105.619 529.403V539.888M105.619 529.403H95.134M105.619 529.403H116.105M105.619 798.529V809.014M105.619 809.014V819.5M105.619 809.014H95.134M105.619 809.014H116.105M385.231 518.917V529.403M385.231 529.403V539.888M385.231 529.403H374.746M385.231 529.403H395.717M664.843 204.486V214.971M664.843 214.971V225.457M664.843 214.971H654.357M664.843 214.971H675.328M664.843 518.917V529.403M664.843 529.403V539.888M664.843 529.403H654.357M664.843 529.403H675.328M664.843 798.529V809.014M664.843 809.014V819.5M664.843 809.014H654.357M664.843 809.014H675.328M944.454 239.306V249.791M944.454 249.791V260.277M944.454 249.791H933.969M944.454 249.791H954.94M944.454 518.917V529.403M944.454 529.403V539.888M944.454 529.403H933.969M944.454 529.403H954.94M944.454 798.529V809.014M944.454 809.014V819.5M944.454 809.014H933.969M944.454 809.014H954.94M1224.07 239.306V249.791M1224.07 249.791V260.277M1224.07 249.791H1213.58M1224.07 249.791H1234.55M1224.07 518.917V529.403M1224.07 529.403V539.888M1224.07 529.403H1213.58M1224.07 529.403H1234.55M1224.07 798.529V809.014M1224.07 809.014V819.5M1224.07 809.014H1213.58M1224.07 809.014H1234.55M1503.68 239.306V249.791M1503.68 249.791V260.277M1503.68 249.791H1493.19M1503.68 249.791H1514.16M1503.68 518.917V529.403M1503.68 529.403V539.888M1503.68 529.403H1493.19M1503.68 529.403H1514.16M1503.68 798.529V809.014M1503.68 809.014V819.5M1503.68 809.014H1493.19M1503.68 809.014H1514.16M105.619 99.5V109.985M105.619 109.985V120.471M105.619 109.985H95.134M105.619 109.985H116.105M105.619 379.112V389.597M105.619 389.597V400.083M105.619 389.597H95.134M105.619 389.597H116.105M105.619 658.723V669.209M105.619 669.209V679.694M105.619 669.209H95.134M105.619 669.209H116.105M385.231 99.5V109.985M385.231 109.985V120.471M385.231 109.985H374.746M385.231 109.985H395.717M385.231 658.723V669.209M385.231 669.209V679.694M385.231 669.209H374.746M385.231 669.209H395.717M664.843 99.5V109.985M664.843 109.985V120.471M664.843 109.985H654.357M664.843 109.985H675.328M664.817 379.162V389.647M664.817 389.647V400.133M664.817 389.647H654.331M664.817 389.647H675.302M944.454 99.5V109.985M944.454 109.985V120.471M944.454 109.985H933.969M944.454 109.985H954.94M944.454 379.112V389.597M944.454 389.597V400.083M944.454 389.597H933.969M944.454 389.597H954.94M944.454 658.723V669.209M944.454 669.209V679.694M944.454 669.209H933.969M944.454 669.209H954.94M1224.07 99.5V109.985M1224.07 109.985V120.471M1224.07 109.985H1213.58M1224.07 109.985H1234.55M1224.07 379.112V389.597M1224.07 389.597V400.083M1224.07 389.597H1213.58M1224.07 389.597H1234.55M1224.07 658.723V669.209M1224.07 669.209V679.694M1224.07 669.209H1213.58M1224.07 669.209H1234.55M1503.68 99.5V109.985M1503.68 109.985V120.471M1503.68 109.985H1493.19M1503.68 109.985H1514.16M1503.68 379.112V389.597M1503.68 389.597V400.083M1503.68 389.597H1493.19M1503.68 389.597H1514.16M1503.68 658.723V669.209M1503.68 669.209V679.694M1503.68 669.209H1493.19M1503.68 669.209H1514.16M-34.1864 239.306V249.791M-34.1864 249.791V260.277M-34.1864 249.791H-44.6719M-34.1864 249.791H-23.701M-34.1864 518.917V529.403M-34.1864 529.403V539.888M-34.1864 529.403H-44.6719M-34.1864 529.403H-23.701M-34.1864 798.529V809.014M-34.1864 809.014V819.5M-34.1864 809.014H-44.6719M-34.1864 809.014H-23.701M245.425 518.917V529.403M245.425 529.403V539.888M245.425 529.403H234.94M245.425 529.403H255.911M245.425 798.529V809.014M245.425 809.014V819.5M245.425 809.014H234.94M245.425 809.014H255.911M804.649 239.306V249.791M804.649 249.791V260.277M804.649 249.791H794.163M804.649 249.791H815.134M804.649 518.917V529.403M804.649 529.403V539.888M804.649 529.403H794.163M804.649 529.403H815.134M804.649 798.529V809.014M804.649 809.014V819.5M804.649 809.014H794.163M804.649 809.014H815.134M1084.26 239.306V249.791M1084.26 249.791V260.277M1084.26 249.791H1073.77M1084.26 249.791H1094.75M1084.26 518.917V529.403M1084.26 529.403V539.888M1084.26 529.403H1073.77M1084.26 529.403H1094.75M1084.26 798.529V809.014M1084.26 809.014V819.5M1084.26 809.014H1073.77M1084.26 809.014H1094.75M1363.87 239.306V249.791M1363.87 249.791V260.277M1363.87 249.791H1353.39M1363.87 249.791H1374.36M1363.87 518.917V529.403M1363.87 529.403V539.888M1363.87 529.403H1353.39M1363.87 529.403H1374.36M1363.87 798.529V809.014M1363.87 809.014V819.5M1363.87 809.014H1353.39M1363.87 809.014H1374.36M-34.1864 99.5001V109.985M-34.1864 109.985V120.471M-34.1864 109.985H-44.6719M-34.1864 109.985H-23.701M-34.1864 379.112V389.597M-34.1864 389.597V400.083M-34.1864 389.597H-44.6719M-34.1864 389.597H-23.701M-34.1864 658.723V669.209M-34.1864 669.209V679.694M-34.1864 669.209H-44.6719M-34.1864 669.209H-23.701M245.425 99.5V109.985M245.425 109.985V120.471M245.425 109.985H234.94M245.425 109.985H255.911M245.425 658.723V669.209M245.425 669.209V679.694M245.425 669.209H234.94M245.425 669.209H255.911M525.037 99.5V109.985M525.037 109.985V120.471M525.037 109.985H514.551M525.037 109.985H535.522M420.037 379.112V389.597M420.037 389.597V400.083M420.037 389.597H409.551M420.037 389.597H430.522M804.649 99.5V109.985M804.649 109.985V120.471M804.649 109.985H794.163M804.649 109.985H815.134M315.031 239.306V249.791M315.031 249.791V260.277M315.031 249.791H304.546M315.031 249.791H325.517M804.649 658.723V669.209M804.649 669.209V679.694M804.649 669.209H794.163M804.649 669.209H815.134M1084.26 99.5V109.985M1084.26 109.985V120.471M1084.26 109.985H1073.77M1084.26 109.985H1094.75M1084.26 379.112V389.597M1084.26 389.597V400.083M1084.26 389.597H1073.77M1084.26 389.597H1094.75M1084.26 658.723V669.209M1084.26 669.209V679.694M1084.26 669.209H1073.77M1084.26 669.209H1094.75M1363.87 99.5V109.985M1363.87 109.985V120.471M1363.87 109.985H1353.39M1363.87 109.985H1374.36M1363.87 379.112V389.597M1363.87 389.597V400.083M1363.87 389.597H1353.39M1363.87 389.597H1374.36M1363.87 658.723V669.209M1363.87 669.209V679.694M1363.87 669.209H1353.39M1363.87 669.209H1374.36M804.649 379.112V389.597M804.649 389.597V400.083M804.649 389.597H794.163M804.649 389.597H815.134M455.5 623.029V633.515M455.5 633.515V644M455.5 633.515H445.015M455.5 633.515H465.985" stroke="url(#paint1_radial_1022_12822)" stroke-opacity="0.5" stroke-width="0.873787"/>
</g>
</g>
<defs>
<radialGradient id="paint0_radial_1022_12822" cx="0" cy="0" r="1" gradientUnits="userSpaceOnUse" gradientTransform="translate(734.746 459.5) rotate(89.9636) scale(400 758.537)">
<stop stop-color="#F2F2F2"/>
<stop offset="0.60957" stop-color="#F2F2F2" stop-opacity="0"/>
</radialGradient>
<radialGradient id="paint1_radial_1022_12822" cx="0" cy="0" r="1" gradientUnits="userSpaceOnUse" gradientTransform="translate(734.746 459.5) rotate(90) scale(360 779.417)">
<stop stop-color="#F2F2F2"/>
<stop offset="0.6982" stop-color="#F2F2F2" stop-opacity="0"/>
</radialGradient>
<clipPath id="clip0_1022_12822">
<rect width="1260" height="925" fill="white"/>
</clipPath>
</defs>
</svg>
