<svg width="16" height="16" viewBox="0 0 16 16" fill="none" xmlns="http://www.w3.org/2000/svg">
<path d="M10.6667 1.33334H5.33333C3 1.33334 2 2.66668 2 4.66668V7.64668C2 7.88001 2.22667 8.04001 2.44 7.96001C3.17333 7.67334 4.00667 7.58001 4.86667 7.75334C6.6 8.10001 7.98 9.52668 8.26667 11.2667C8.44 12.3267 8.22667 13.3333 7.74 14.1667C7.60667 14.3867 7.76667 14.6667 8.02667 14.6667H10.6667C13 14.6667 14 13.3333 14 11.3333V4.66668C14 2.66668 13 1.33334 10.6667 1.33334ZM12.3333 6.16668H11C9.98667 6.16668 9.16667 5.34668 9.16667 4.33334V3.00001C9.16667 2.72668 9.39333 2.50001 9.66667 2.50001C9.94 2.50001 10.1667 2.72668 10.1667 3.00001V4.33334C10.1667 4.79334 10.54 5.16668 11 5.16668H12.3333C12.6067 5.16668 12.8333 5.39334 12.8333 5.66668C12.8333 5.94001 12.6067 6.16668 12.3333 6.16668Z" fill="#F2F2F2"/>
<path d="M4.0013 8.66666C2.1613 8.66666 0.667969 10.16 0.667969 12C0.667969 13.84 2.1613 15.3333 4.0013 15.3333C5.8413 15.3333 7.33463 13.84 7.33463 12C7.33463 10.16 5.8413 8.66666 4.0013 8.66666ZM3.4413 12.8467C3.60797 13.0133 3.60797 13.2867 3.4413 13.46C3.35464 13.5467 3.24797 13.5867 3.13464 13.5867C3.0213 13.5867 2.91464 13.5467 2.82797 13.46L1.67464 12.3067C1.50797 12.14 1.50797 11.8667 1.67464 11.6933L2.82797 10.54C2.99464 10.3733 3.26797 10.3733 3.4413 10.54C3.60797 10.7067 3.60797 10.98 3.4413 11.1533L2.59464 12L3.4413 12.8467ZM6.3213 12.3067L5.16797 13.46C5.0813 13.5467 4.97464 13.5867 4.8613 13.5867C4.74797 13.5867 4.6413 13.5467 4.55464 13.46C4.38797 13.2933 4.38797 13.02 4.55464 12.8467L5.40797 12L4.5613 11.1533C4.39464 10.9867 4.39464 10.7133 4.5613 10.54C4.72797 10.3733 5.0013 10.3733 5.17464 10.54L6.32797 11.6933C6.48797 11.8667 6.48797 12.1333 6.3213 12.3067Z" fill="#F2F2F2"/>
</svg>
