<svg width="16" height="16" viewBox="0 0 16 16" fill="none" xmlns="http://www.w3.org/2000/svg">
<path d="M9.56911 1.33334H6.43578C5.74245 1.33334 5.17578 1.89334 5.17578 2.58668V3.21334C5.17578 3.90668 5.73578 4.46668 6.42911 4.46668H9.56911C10.2624 4.46668 10.8224 3.90668 10.8224 3.21334V2.58668C10.8291 1.89334 10.2624 1.33334 9.56911 1.33334Z" fill="#F2F2F2"/>
<path d="M11.4914 3.21332C11.4914 4.27332 10.6247 5.13999 9.56474 5.13999H6.43141C5.37141 5.13999 4.50474 4.27332 4.50474 3.21332C4.50474 2.83999 4.10474 2.60665 3.77141 2.77999C2.83141 3.27999 2.19141 4.27332 2.19141 5.41332V11.6867C2.19141 13.3267 3.53141 14.6667 5.17141 14.6667H10.8247C12.4647 14.6667 13.8047 13.3267 13.8047 11.6867V5.41332C13.8047 4.27332 13.1647 3.27999 12.2247 2.77999C11.8914 2.60665 11.4914 2.83999 11.4914 3.21332ZM8.25141 11.3H5.33141C5.05807 11.3 4.83141 11.0733 4.83141 10.8C4.83141 10.5267 5.05807 10.3 5.33141 10.3H8.25141C8.52474 10.3 8.75141 10.5267 8.75141 10.8C8.75141 11.0733 8.52474 11.3 8.25141 11.3ZM9.99807 8.63332H5.33141C5.05807 8.63332 4.83141 8.40665 4.83141 8.13332C4.83141 7.85999 5.05807 7.63332 5.33141 7.63332H9.99807C10.2714 7.63332 10.4981 7.85999 10.4981 8.13332C10.4981 8.40665 10.2714 8.63332 9.99807 8.63332Z" fill="#F2F2F2"/>
</svg>
