<svg width="16" height="16" viewBox="0 0 16 16" fill="none" xmlns="http://www.w3.org/2000/svg">
<path d="M5.33203 8.13333H9.9987" stroke="#9AA6B5" stroke-miterlimit="10" stroke-linecap="round" stroke-linejoin="round"/>
<path d="M5.33203 10.8H8.25203" stroke="#9AA6B5" stroke-miterlimit="10" stroke-linecap="round" stroke-linejoin="round"/>
<path d="M6.66536 4.00001H9.33203C10.6654 4.00001 10.6654 3.33334 10.6654 2.66668C10.6654 1.33334 9.9987 1.33334 9.33203 1.33334H6.66536C5.9987 1.33334 5.33203 1.33334 5.33203 2.66668C5.33203 4.00001 5.9987 4.00001 6.66536 4.00001Z" stroke="#9AA6B5" stroke-miterlimit="10" stroke-linecap="round" stroke-linejoin="round"/>
<path d="M10.6667 2.67999C12.8867 2.79999 14 3.61999 14 6.66666V10.6667C14 13.3333 13.3333 14.6667 10 14.6667H6C2.66667 14.6667 2 13.3333 2 10.6667V6.66666C2 3.62666 3.11333 2.79999 5.33333 2.67999" stroke="#9AA6B5" stroke-miterlimit="10" stroke-linecap="round" stroke-linejoin="round"/>
</svg>
