<svg width="16" height="16" viewBox="0 0 16 16" fill="none" xmlns="http://www.w3.org/2000/svg">
<path d="M7.5 12.1667H6C5.26667 12.1667 4.66667 12.7667 4.66667 13.5V13.6667H4C3.72667 13.6667 3.5 13.8933 3.5 14.1667C3.5 14.44 3.72667 14.6667 4 14.6667H12C12.2733 14.6667 12.5 14.44 12.5 14.1667C12.5 13.8933 12.2733 13.6667 12 13.6667H11.3333V13.5C11.3333 12.7667 10.7333 12.1667 10 12.1667H8.5V10.64C8.33333 10.66 8.16667 10.6667 8 10.6667C7.83333 10.6667 7.66667 10.66 7.5 10.64V12.1667Z" fill="#F2F2F2"/>
<path d="M12.3195 7.76001C12.7595 7.59334 13.1462 7.32001 13.4529 7.01334C14.0729 6.32668 14.4795 5.50668 14.4795 4.54668C14.4795 3.58668 13.7262 2.83334 12.7662 2.83334H12.3929C11.9595 1.94668 11.0529 1.33334 9.99953 1.33334H5.99953C4.9462 1.33334 4.03953 1.94668 3.6062 2.83334H3.23286C2.27286 2.83334 1.51953 3.58668 1.51953 4.54668C1.51953 5.50668 1.9262 6.32668 2.5462 7.01334C2.85286 7.32001 3.23953 7.59334 3.67953 7.76001C4.37286 9.46668 6.03953 10.6667 7.99953 10.6667C9.95953 10.6667 11.6262 9.46668 12.3195 7.76001ZM9.89287 5.63334L9.47953 6.14001C9.41287 6.21334 9.3662 6.36001 9.37287 6.46001L9.41286 7.11334C9.43953 7.51334 9.15286 7.72001 8.77953 7.57334L8.17286 7.33334C8.07953 7.30001 7.91953 7.30001 7.8262 7.33334L7.21953 7.57334C6.8462 7.72001 6.55953 7.51334 6.5862 7.11334L6.6262 6.46001C6.63286 6.36001 6.5862 6.21334 6.51953 6.14001L6.1062 5.63334C5.8462 5.32668 5.95953 4.98668 6.3462 4.88668L6.97953 4.72668C7.07953 4.70001 7.19953 4.60668 7.25286 4.52001L7.6062 3.97334C7.8262 3.63334 8.17286 3.63334 8.39287 3.97334L8.7462 4.52001C8.79953 4.60668 8.91953 4.70001 9.01953 4.72668L9.65286 4.88668C10.0395 4.98668 10.1529 5.32668 9.89287 5.63334Z" fill="#F2F2F2"/>
</svg>
