<svg width="16" height="16" viewBox="0 0 16 16" fill="none" xmlns="http://www.w3.org/2000/svg">
<path d="M8.09766 11V12.4" stroke="#9AA6B5" stroke-linecap="round" stroke-linejoin="round"/>
<path d="M4.76562 14.6667H11.4323V14C11.4323 13.2667 10.8323 12.6667 10.099 12.6667H6.09896C5.36562 12.6667 4.76562 13.2667 4.76562 14V14.6667V14.6667Z" stroke="#9AA6B5" stroke-miterlimit="10"/>
<path d="M4.09766 14.6667H12.0977" stroke="#9AA6B5" stroke-linecap="round" stroke-linejoin="round"/>
<path d="M7.9987 10.6667C5.4187 10.6667 3.33203 8.58001 3.33203 6.00001V4.00001C3.33203 2.52668 4.52536 1.33334 5.9987 1.33334H9.9987C11.472 1.33334 12.6654 2.52668 12.6654 4.00001V6.00001C12.6654 8.58001 10.5787 10.6667 7.9987 10.6667Z" stroke="#9AA6B5" stroke-linecap="round" stroke-linejoin="round"/>
<path d="M3.64604 7.76666C3.14604 7.60666 2.70604 7.31333 2.35938 6.96666C1.75938 6.29999 1.35938 5.49999 1.35938 4.56666C1.35938 3.63333 2.09271 2.89999 3.02604 2.89999H3.45938C3.32604 3.20666 3.25937 3.54666 3.25937 3.89999V5.89999C3.25937 6.56666 3.39937 7.19333 3.64604 7.76666Z" stroke="#9AA6B5" stroke-linecap="round" stroke-linejoin="round"/>
<path d="M12.3555 7.76666C12.8555 7.60666 13.2955 7.31333 13.6421 6.96666C14.2421 6.29999 14.6421 5.49999 14.6421 4.56666C14.6421 3.63333 13.9088 2.89999 12.9755 2.89999H12.5421C12.6755 3.20666 12.7421 3.54666 12.7421 3.89999V5.89999C12.7421 6.56666 12.6021 7.19333 12.3555 7.76666Z" stroke="#9AA6B5" stroke-linecap="round" stroke-linejoin="round"/>
</svg>
