<svg width="16" height="16" viewBox="0 0 16 16" fill="none" xmlns="http://www.w3.org/2000/svg">
<path d="M5.9987 1.33334C4.25203 1.33334 2.83203 2.75334 2.83203 4.50001C2.83203 6.21334 4.17203 7.60001 5.9187 7.66001C5.97203 7.65334 6.02536 7.65334 6.06536 7.66001C6.0787 7.66001 6.08536 7.66001 6.0987 7.66001C6.10536 7.66001 6.10536 7.66001 6.11203 7.66001C7.8187 7.60001 9.1587 6.21334 9.16536 4.50001C9.16536 2.75334 7.74536 1.33334 5.9987 1.33334Z" fill="#F2F2F2"/>
<path d="M9.38859 9.43333C7.52859 8.19333 4.49526 8.19333 2.62193 9.43333C1.77526 9.99999 1.30859 10.7667 1.30859 11.5867C1.30859 12.4067 1.77526 13.1667 2.61526 13.7267C3.54859 14.3533 4.77526 14.6667 6.00193 14.6667C7.22859 14.6667 8.45526 14.3533 9.38859 13.7267C10.2286 13.16 10.6953 12.4 10.6953 11.5733C10.6886 10.7533 10.2286 9.99333 9.38859 9.43333Z" fill="#F2F2F2"/>
<path d="M13.3263 4.89332C13.4329 6.18665 12.5129 7.31998 11.2396 7.47332C11.2329 7.47332 11.2329 7.47332 11.2263 7.47332H11.2062C11.1662 7.47332 11.1262 7.47332 11.0929 7.48665C10.4462 7.51998 9.85292 7.31332 9.40625 6.93332C10.0929 6.31998 10.4863 5.39998 10.4062 4.39998C10.3596 3.85998 10.1729 3.36665 9.89292 2.94665C10.1463 2.81999 10.4396 2.73999 10.7396 2.71332C12.0463 2.59999 13.2129 3.57332 13.3263 4.89332Z" fill="#F2F2F2"/>
<path d="M14.6576 11.06C14.6042 11.7067 14.1909 12.2667 13.4976 12.6467C12.8309 13.0134 11.9909 13.1867 11.1576 13.1667C11.6376 12.7334 11.9176 12.1934 11.9709 11.62C12.0376 10.7934 11.6442 10 10.8576 9.3667C10.4109 9.01336 9.89089 8.73336 9.32422 8.5267C10.7976 8.10003 12.6509 8.3867 13.7909 9.3067C14.4042 9.80003 14.7176 10.42 14.6576 11.06Z" fill="#F2F2F2"/>
</svg>
