<svg width="16" height="16" viewBox="0 0 16 16" fill="none" xmlns="http://www.w3.org/2000/svg">
<path d="M6.10573 7.24668C6.03906 7.24001 5.95906 7.24001 5.88573 7.24668C4.29906 7.19334 3.03906 5.89334 3.03906 4.29334C3.03906 2.66001 4.35906 1.33334 5.99906 1.33334C7.6324 1.33334 8.95906 2.66001 8.95906 4.29334C8.9524 5.89334 7.6924 7.19334 6.10573 7.24668Z" stroke="#9AA6B5" stroke-linecap="round" stroke-linejoin="round"/>
<path d="M10.9421 2.66666C12.2355 2.66666 13.2755 3.71332 13.2755 4.99999C13.2755 6.25999 12.2755 7.28666 11.0288 7.33332C10.9755 7.32666 10.9155 7.32666 10.8555 7.33332" stroke="#9AA6B5" stroke-linecap="round" stroke-linejoin="round"/>
<path d="M2.7725 9.70666C1.15917 10.7867 1.15917 12.5467 2.7725 13.62C4.60583 14.8467 7.6125 14.8467 9.44583 13.62C11.0592 12.54 11.0592 10.78 9.44583 9.70666C7.61917 8.48666 4.6125 8.48666 2.7725 9.70666Z" stroke="#9AA6B5" stroke-linecap="round" stroke-linejoin="round"/>
<path d="M12.2266 13.3333C12.7066 13.2333 13.1599 13.04 13.5332 12.7533C14.5732 11.9733 14.5732 10.6867 13.5332 9.90668C13.1666 9.62668 12.7199 9.44001 12.2466 9.33334" stroke="#9AA6B5" stroke-linecap="round" stroke-linejoin="round"/>
</svg>
