<svg width="16" height="16" viewBox="0 0 16 16" fill="none" xmlns="http://www.w3.org/2000/svg">
<path d="M7.95818 1.47338L6.35151 5.21338H4.74484C4.47818 5.21338 4.21818 5.23338 3.96484 5.28672L4.63151 3.68672L4.65818 3.62672L4.69818 3.52005C4.71818 3.47338 4.73151 3.43338 4.75151 3.40005C5.52484 1.60672 6.39151 1.04672 7.95818 1.47338Z" fill="#F2F2F2"/>
<path d="M12.4887 5.39336L12.4754 5.38669C12.0754 5.27336 11.6687 5.21336 11.2554 5.21336H7.08203L8.58203 1.72669L8.60203 1.68002C8.69536 1.71336 8.79536 1.76002 8.89536 1.79336L10.3687 2.41336C11.1887 2.75336 11.762 3.10669 12.1154 3.53336C12.1754 3.61336 12.2287 3.68669 12.282 3.77336C12.342 3.86669 12.3887 3.96002 12.4154 4.06002C12.442 4.12002 12.462 4.17336 12.4754 4.23336C12.5754 4.57336 12.582 4.96002 12.4887 5.39336Z" fill="#F2F2F2"/>
<path d="M12.1922 6.34671C11.8922 6.26005 11.5789 6.21338 11.2522 6.21338H4.74552C4.29219 6.21338 3.86552 6.30005 3.46552 6.47338C2.30552 6.97338 1.49219 8.12671 1.49219 9.46671V10.7667C1.49219 10.9267 1.50552 11.08 1.52552 11.24C1.67219 13.36 2.80552 14.4934 4.92552 14.6334C5.07885 14.6534 5.23219 14.6667 5.39885 14.6667H10.5989C13.0655 14.6667 14.3655 13.4934 14.4922 11.16C14.4989 11.0334 14.5055 10.9 14.5055 10.7667V9.46671C14.5055 7.99338 13.5255 6.75338 12.1922 6.34671ZM9.66552 11.1667H6.33219C6.05885 11.1667 5.83219 10.94 5.83219 10.6667C5.83219 10.3934 6.05885 10.1667 6.33219 10.1667H9.66552C9.93885 10.1667 10.1655 10.3934 10.1655 10.6667C10.1655 10.94 9.93885 11.1667 9.66552 11.1667Z" fill="#F2F2F2"/>
</svg>
