<svg width="16" height="16" viewBox="0 0 16 16" fill="none" xmlns="http://www.w3.org/2000/svg">
<path d="M10 4.79999V11.1933C10 13.3333 8.66667 14.6667 6.53333 14.6667H4.80667C2.67333 14.6667 1.34 13.3333 1.34 11.2V4.79999C1.33333 2.66666 2.66667 1.33333 4.8 1.33333H6.53333C8.66667 1.33333 10 2.66666 10 4.79999Z" fill="#01050D"/>
<path d="M12.6393 5.05978L14.8726 7.29312C15.2612 7.68171 15.2612 8.31829 14.8726 8.70689L12.6393 10.9402C12.2507 11.3288 11.6141 11.3288 11.2255 10.9402C10.8369 10.5516 10.8369 9.91504 11.2255 9.52645L11.752 9H5.8324C5.28292 9 4.8324 8.54948 4.8324 8C4.8324 7.45053 5.28292 7 5.8324 7H11.752L11.2255 6.47356C11.0268 6.27485 10.9324 6.01879 10.9324 5.76667C10.9324 5.52893 11.0177 5.259 11.2283 5.05686C11.6221 4.65928 12.2503 4.6708 12.6393 5.05978Z" fill="#01050D" stroke="#F2F2F2"/>
</svg>
