<svg width="67" height="26" viewBox="0 0 67 26" fill="none" xmlns="http://www.w3.org/2000/svg">
<g clip-path="url(#clip0_0_1)">
<circle cx="12" cy="13" r="12" fill="#FFDD2D"/>
<path fill-rule="evenodd" clip-rule="evenodd" d="M6.1875 7.75V11.7348C6.73757 11.1237 7.72767 10.7081 8.85225 10.7081H10.0868V15.3408C10.0868 16.5754 9.7568 17.651 9.25566 18.25H14.7384C14.2373 17.651 13.9346 16.5754 13.9346 15.3408V10.7081H15.1355C16.2723 10.7081 17.2704 11.1237 17.8082 11.7348V7.75H6.1875Z" fill="#0F1217"/>
</g>
<rect x="0.5" y="1.5" width="23" height="23" rx="11.5" stroke="#0F1217"/>
<g clip-path="url(#clip1_0_1)">
<circle cx="33" cy="13" r="12" fill="#50AF95"/>
<path fill-rule="evenodd" clip-rule="evenodd" d="M34.1936 13.4051C34.127 13.4101 33.7828 13.4307 33.015 13.4307C32.4043 13.4307 31.9707 13.4123 31.8186 13.4051C29.4585 13.3013 27.6969 12.8905 27.6969 12.3986C27.6969 11.9067 29.4585 11.4964 31.8186 11.3909V12.996C31.9729 13.0071 32.4148 13.0332 33.0255 13.0332C33.7584 13.0332 34.1254 13.0026 34.1914 12.9965V11.392C36.5465 11.497 38.3042 11.9078 38.3042 12.3986C38.3042 12.8894 36.5471 13.3002 34.1914 13.4046L34.1936 13.4051ZM34.192 11.2261V9.78981H37.4787V7.59961H28.5302V9.78981H31.8164V11.2255C29.1454 11.3482 27.1367 11.8773 27.1367 12.5113C27.1367 13.1453 29.1454 13.6739 31.8164 13.7971V18.3996H34.1914V13.7955C36.8563 13.6728 38.8617 13.1442 38.8617 12.5108C38.8617 11.8773 36.858 11.3488 34.1914 11.2255L34.192 11.2261Z" fill="#0F1217"/>
</g>
<rect x="21.5" y="1.5" width="23" height="23" rx="11.5" stroke="#0F1217"/>
<g clip-path="url(#clip2_0_1)">
<circle cx="54" cy="13" r="12.375" fill="#F2F2F2" stroke="#0F1217" stroke-width="0.75"/>
<rect x="48.5" y="9.89551" width="1.44141" height="7.68442" fill="#0F1217"/>
<rect x="51.5781" y="9.38574" width="1.44141" height="7.68442" fill="#0F1217"/>
<rect x="54.6523" y="8.87695" width="1.44141" height="7.68442" fill="#0F1217"/>
<rect x="57.7305" y="8.36719" width="1.44141" height="7.68442" fill="#0F1217"/>
</g>
<rect x="41.5" y="0.5" width="25" height="25" rx="12.5" stroke="#0F1217"/>
<defs>
<clipPath id="clip0_0_1">
<rect y="1" width="24" height="24" rx="12" fill="white"/>
</clipPath>
<clipPath id="clip1_0_1">
<rect x="21" y="1" width="24" height="24" rx="12" fill="white"/>
</clipPath>
<clipPath id="clip2_0_1">
<rect x="42" y="1" width="24" height="24" rx="12" fill="white"/>
</clipPath>
</defs>
</svg>
