<svg width="20" height="20" viewBox="0 0 20 20" fill="none" xmlns="http://www.w3.org/2000/svg">
<path d="M14.2508 1.66699H10.7508C8.18155 1.66699 6.9766 2.57873 6.72557 4.78284C6.67305 5.24395 7.05494 5.62533 7.51903 5.62533H9.25078C12.7508 5.62533 14.3758 7.25033 14.3758 10.7503V12.4821C14.3758 12.9462 14.7572 13.3281 15.2183 13.2755C17.4224 13.0245 18.3341 11.8196 18.3341 9.25033V5.75033C18.3341 2.83366 17.1674 1.66699 14.2508 1.66699Z" fill="#195AF4"/>
<path d="M9.2513 6.66699H5.7513C2.83464 6.66699 1.66797 7.83366 1.66797 10.7503V14.2503C1.66797 17.167 2.83464 18.3337 5.7513 18.3337H9.2513C12.168 18.3337 13.3346 17.167 13.3346 14.2503V10.7503C13.3346 7.83366 12.168 6.66699 9.2513 6.66699ZM10.243 11.3753L7.1513 14.467C7.03464 14.5837 6.88463 14.642 6.7263 14.642C6.56797 14.642 6.41797 14.5837 6.3013 14.467L4.7513 12.917C4.51797 12.6837 4.51797 12.3087 4.7513 12.0753C4.98464 11.842 5.35964 11.842 5.59297 12.0753L6.71797 13.2003L9.39297 10.5253C9.6263 10.292 10.0013 10.292 10.2346 10.5253C10.468 10.7587 10.4763 11.142 10.243 11.3753Z" fill="#195AF4"/>
<path d="M7.15703 14.4712L10.2487 11.3795C10.482 11.1462 10.4737 10.7628 10.2404 10.5295C10.007 10.2962 9.63203 10.2962 9.3987 10.5295L6.7237 13.2045L5.5987 12.0795C5.36536 11.8462 4.99036 11.8462 4.75703 12.0795C4.5237 12.3128 4.5237 12.6878 4.75703 12.9212L6.30703 14.4712C6.4237 14.5878 6.5737 14.6462 6.73203 14.6462C6.89036 14.6462 7.04036 14.5878 7.15703 14.4712Z" fill="#F2F2F2"/>
</svg>
