<svg width="152" height="44" viewBox="0 0 152 44" fill="none" xmlns="http://www.w3.org/2000/svg">
<rect x="0.5" y="0.5" width="151" height="43" rx="21.5" stroke="url(#paint0_linear_933_20356)" stroke-opacity="0.8"/>
<g clip-path="url(#clip0_933_20356)">
<rect x="24" y="12" width="20" height="20" rx="4" fill="#195AF4"/>
<path d="M36.2853 23.7671L39.1875 21.9169V19.6366L32.8671 23.8714L39.1875 28.0183V25.7977L36.2861 23.9784L36.1186 23.8734L36.2853 23.7671Z" fill="#F2F2F2" stroke="#195AF4" stroke-width="0.25"/>
<path d="M31.7147 20.1147L28.8125 18.2645V15.9842L35.1329 20.219L28.8125 24.3659V22.1454L31.7139 20.326L31.8814 20.221L31.7147 20.1147Z" fill="#F2F2F2" stroke="#195AF4" stroke-width="0.25"/>
</g>
<path d="M54.9138 26.2076H58.0178C59.5378 26.2076 60.3858 25.5996 60.3858 24.4636C60.3858 23.3276 59.5538 22.6716 58.0178 22.6716H54.9138V26.2076ZM54.9138 21.2156H57.5218C59.1378 21.2156 60.0178 20.6076 60.0178 19.5516C60.0178 18.4316 59.2018 17.9036 57.5218 17.9036H54.9138V21.2156ZM53.0898 27.7756V16.3356H57.6658C60.5618 16.3356 61.9378 17.2796 61.9378 19.4076C61.9378 20.7356 61.0898 21.6636 59.6338 21.8556C61.2178 22.0796 62.2898 23.0236 62.2898 24.6236C62.2898 26.7196 60.8658 27.7756 58.1618 27.7756H53.0898Z" fill="#F2F2F2"/>
<path d="M63.6416 27.7756V16.0156H65.4176V27.7756H63.6416Z" fill="#F2F2F2"/>
<path d="M68.6866 23.4396C68.6866 25.2476 69.6306 26.4476 71.2146 26.4476C72.7986 26.4476 73.7266 25.2476 73.7266 23.4396C73.7266 21.6476 72.7986 20.4476 71.2146 20.4476C69.6306 20.4476 68.6866 21.6476 68.6866 23.4396ZM66.8626 23.4396C66.8626 20.7516 68.5906 18.9116 71.2146 18.9116C73.8386 18.9116 75.5666 20.7516 75.5666 23.4396C75.5666 26.1436 73.8386 27.9836 71.2146 27.9836C68.5906 27.9836 66.8626 26.1436 66.8626 23.4396Z" fill="#F2F2F2"/>
<path d="M76.7607 23.4396C76.7607 20.7356 78.4727 18.9116 81.0967 18.9116C83.3207 18.9116 84.8887 20.2236 85.2727 22.2396H83.4007C83.1127 21.1356 82.3127 20.4476 81.1127 20.4476C79.5127 20.4476 78.5847 21.6316 78.5847 23.4396C78.5847 25.2476 79.5127 26.4476 81.1127 26.4476C82.3767 26.4476 83.1927 25.6796 83.4327 24.4796H85.3047C84.9687 26.6076 83.3687 27.9836 81.0967 27.9836C78.4727 27.9836 76.7607 26.1436 76.7607 23.4396Z" fill="#F2F2F2"/>
<path d="M86.6645 27.7756V16.0156H88.4405V22.8156L92.5845 19.1196H94.9205L91.0805 22.5596L95.0645 27.7756H92.9045L89.8165 23.6476L88.4405 24.8956V27.7756H86.6645Z" fill="#F2F2F2"/>
<path d="M96.0336 27.7756V16.3356H103.746V17.9356H97.8576V21.4076H103.474V22.9756H97.8576V27.7756H96.0336Z" fill="#F2F2F2"/>
<path d="M105.196 27.7756V19.1196H106.972V27.7756H105.196ZM105.148 18.0156V16.1116H107.036V18.0156H105.148Z" fill="#F2F2F2"/>
<path d="M108.718 27.7756V19.1196H110.366L110.43 20.8956C110.766 19.6636 111.534 19.1196 112.686 19.1196H113.646V20.9756H112.606C111.198 20.9756 110.526 21.7276 110.526 23.1196V27.7756H108.718Z" fill="#F2F2F2"/>
<path d="M114.23 24.9116H116.054C116.134 25.9196 116.854 26.5436 118.278 26.5436C119.318 26.5436 120.15 26.1916 120.15 25.3756C120.15 24.4796 119.174 24.3196 117.798 24.1116C116.262 23.8556 114.438 23.5036 114.438 21.5996C114.438 19.9996 115.75 18.9116 117.99 18.9116C120.358 18.9116 121.654 20.1596 121.83 21.8716H120.022C119.91 20.9276 119.142 20.3516 117.958 20.3516C116.854 20.3516 116.278 20.8476 116.278 21.4556C116.278 22.3196 117.318 22.5116 118.534 22.7036C120.198 22.9916 121.99 23.3276 121.99 25.2796C121.99 27.1036 120.406 27.9836 118.278 27.9836C115.75 27.9836 114.326 26.7356 114.23 24.9116Z" fill="#F2F2F2"/>
<path d="M123.881 24.7836V20.6556H122.505V19.1196H123.881V16.9276H125.689V19.1196H128.745V20.6556H125.689V24.7676C125.689 25.9676 126.185 26.3836 127.417 26.3836C127.769 26.3836 128.265 26.3516 128.745 26.2396V27.7916C128.057 27.9036 127.465 27.9676 126.953 27.9676C124.873 27.9676 123.881 26.9756 123.881 24.7836Z" fill="#F2F2F2"/>
<defs>
<linearGradient id="paint0_linear_933_20356" x1="-14.5" y1="44" x2="159.5" y2="5.5" gradientUnits="userSpaceOnUse">
<stop stop-color="#195AF4"/>
<stop offset="0.491762" stop-color="#19F4DE"/>
<stop offset="1" stop-color="#F49119"/>
</linearGradient>
<clipPath id="clip0_933_20356">
<rect width="20" height="20" fill="white" transform="translate(24 12)"/>
</clipPath>
</defs>
</svg>
