<svg width="38" height="38" viewBox="0 0 38 38" fill="none" xmlns="http://www.w3.org/2000/svg">
<circle cx="19" cy="19" r="19" fill="#01050D"/>
<path d="M22.332 25.1673H15.6654C13.232 25.1673 11.832 23.7673 11.832 21.334V16.6673C11.832 14.234 13.232 12.834 15.6654 12.834H22.332C24.7654 12.834 26.1654 14.234 26.1654 16.6673V21.334C26.1654 23.7673 24.7654 25.1673 22.332 25.1673ZM15.6654 13.834C13.7587 13.834 12.832 14.7607 12.832 16.6673V21.334C12.832 23.2407 13.7587 24.1673 15.6654 24.1673H22.332C24.2387 24.1673 25.1654 23.2407 25.1654 21.334V16.6673C25.1654 14.7607 24.2387 13.834 22.332 13.834H15.6654Z" fill="#F2F2F2"/>
<path d="M18.9992 19.58C18.4392 19.58 17.8725 19.4066 17.4392 19.0533L15.3525 17.3866C15.1392 17.2133 15.0992 16.9 15.2725 16.6866C15.4459 16.4733 15.7592 16.4333 15.9725 16.6066L18.0592 18.2733C18.5659 18.68 19.4259 18.68 19.9325 18.2733L22.0192 16.6066C22.2325 16.4333 22.5525 16.4666 22.7192 16.6866C22.8925 16.9 22.8592 17.22 22.6392 17.3866L20.5525 19.0533C20.1259 19.4066 19.5592 19.58 18.9992 19.58Z" fill="#F2F2F2"/>
</svg>
