<svg width="28" height="86" viewBox="0 0 28 86" fill="none" xmlns="http://www.w3.org/2000/svg">
<line x1="14.5" y1="14" x2="14.5" y2="86" stroke="#9AA6B5"/>
<circle cx="14" cy="14" r="14" fill="#0F1217"/>
<circle cx="14" cy="14" r="11.5" fill="#0F1217" stroke="#9AA6B5"/>
<g clip-path="url(#clip0_1311_20505)">
<path d="M13.9999 16.7304C14.4594 16.7304 14.8319 16.3579 14.8319 15.8984C14.8319 15.4389 14.4594 15.0664 13.9999 15.0664C13.5405 15.0664 13.168 15.4389 13.168 15.8984C13.168 16.3579 13.5405 16.7304 13.9999 16.7304Z" fill="#9AA6B5"/>
<path d="M17.2041 12.738V12.0999C17.2041 10.7218 16.8723 8.89453 13.9987 8.89453C11.1251 8.89453 10.7933 10.7218 10.7933 12.0999V12.738C9.36411 12.9166 8.89453 13.6414 8.89453 15.4228V16.3721C8.89453 18.4648 9.53255 19.1029 11.6253 19.1029H16.3721C18.4648 19.1029 19.1029 18.4648 19.1029 16.3721V15.4228C19.1029 13.6414 18.6333 12.9166 17.2041 12.738ZM13.9987 17.4389C13.1463 17.4389 12.4572 16.7447 12.4572 15.8974C12.4572 15.0451 13.1514 14.356 13.9987 14.356C14.846 14.356 15.5402 15.0502 15.5402 15.8974C15.5402 16.7498 14.8511 17.4389 13.9987 17.4389ZM11.6253 12.692C11.5844 12.692 11.5487 12.692 11.5079 12.692V12.0999C11.5079 10.6044 11.9315 9.60911 13.9987 9.60911C16.0659 9.60911 16.4895 10.6044 16.4895 12.0999V12.6971C16.4487 12.6971 16.413 12.6971 16.3721 12.6971H11.6253V12.692Z" fill="#9AA6B5"/>
</g>
<defs>
<clipPath id="clip0_1311_20505">
<rect width="14" height="14" fill="white" transform="translate(7 7)"/>
</clipPath>
</defs>
</svg>
