<svg width="36" height="36" viewBox="0 0 36 36" fill="none" xmlns="http://www.w3.org/2000/svg">
<rect width="36" height="36" rx="18" fill="#01050D"/>
<path d="M23 12.4473C23 12.4407 23 12.434 22.9867 12.4273C22.84 12.2407 22.6467 12.1407 22.42 12.1407C22.0667 12.1407 21.64 12.374 21.18 12.8673C20.6333 13.454 19.7933 13.4073 19.3133 12.7673L18.64 11.874C18.3733 11.514 18.02 11.334 17.6667 11.334C17.3133 11.334 16.96 11.514 16.6933 11.874L16.0133 12.774C15.54 13.4073 14.7067 13.454 14.16 12.874L14.1533 12.8673C13.4 12.0607 12.7267 11.9407 12.3467 12.4273C12.3333 12.434 12.3333 12.4407 12.3333 12.4473C12.0933 12.9607 12 13.6807 12 14.694V21.3073C12 22.3207 12.0933 23.0407 12.3333 23.554C12.3333 23.5606 12.34 23.574 12.3467 23.5807C12.7333 24.0607 13.4 23.9407 14.1533 23.134L14.16 23.1273C14.7067 22.5473 15.54 22.594 16.0133 23.2273L16.6933 24.1273C16.96 24.4873 17.3133 24.6673 17.6667 24.6673C18.02 24.6673 18.3733 24.4873 18.64 24.1273L19.3133 23.234C19.7933 22.594 20.6333 22.5473 21.18 23.134C21.64 23.6273 22.0667 23.8607 22.42 23.8607C22.6467 23.8607 22.84 23.7673 22.9867 23.5807C22.9933 23.574 23 23.5606 23 23.554C23.24 23.0407 23.3333 22.3207 23.3333 21.3073V14.694C23.3333 13.6807 23.24 12.9607 23 12.4473ZM19.3333 19.6673H15.3333C15.06 19.6673 14.8333 19.4407 14.8333 19.1673C14.8333 18.894 15.06 18.6673 15.3333 18.6673H19.3333C19.6067 18.6673 19.8333 18.894 19.8333 19.1673C19.8333 19.4407 19.6067 19.6673 19.3333 19.6673ZM20.6667 17.334H15.3333C15.06 17.334 14.8333 17.1073 14.8333 16.834C14.8333 16.5607 15.06 16.334 15.3333 16.334H20.6667C20.94 16.334 21.1667 16.5607 21.1667 16.834C21.1667 17.1073 20.94 17.334 20.6667 17.334Z" fill="#F2F2F2"/>
</svg>
