<svg width="41" height="41" viewBox="0 0 41 41" fill="none" xmlns="http://www.w3.org/2000/svg">
<g clip-path="url(#clip0_1664_25220)">
<circle cx="20.5" cy="20.5" r="20.5" fill="#01050D"/>
<path d="M24.3726 13.7168H18.7559V16.2335C18.7559 16.5585 18.4892 16.8168 18.1726 16.8168C17.8559 16.8168 17.5892 16.5585 17.5892 16.2335V13.7168H16.6226C13.3309 13.7168 12.2476 14.7001 12.1726 17.7751C12.1642 17.9251 12.2309 18.0835 12.3392 18.1918C12.4476 18.3085 12.5892 18.3668 12.7559 18.3668C13.9226 18.3668 14.8809 19.3335 14.8809 20.5001C14.8809 21.6668 13.9226 22.6335 12.7559 22.6335C12.5976 22.6335 12.4476 22.6918 12.3392 22.8085C12.2309 22.9168 12.1642 23.0751 12.1726 23.2251C12.2476 26.3001 13.3309 27.2835 16.6226 27.2835H17.5892V24.7668C17.5892 24.4418 17.8559 24.1835 18.1726 24.1835C18.4892 24.1835 18.7559 24.4418 18.7559 24.7668V27.2835H24.3726C27.7892 27.2835 28.8309 26.2418 28.8309 22.8251V18.1751C28.8309 14.7585 27.7892 13.7168 24.3726 13.7168ZM25.8892 20.4168L25.1142 21.1668C25.0809 21.1918 25.0726 21.2418 25.0809 21.2835L25.2642 22.3418C25.2976 22.5335 25.2226 22.7335 25.0559 22.8501C24.8976 22.9668 24.6892 22.9835 24.5142 22.8918L23.5559 22.3918C23.5226 22.3751 23.4726 22.3751 23.4392 22.3918L22.4809 22.8918C22.4059 22.9335 22.3226 22.9501 22.2392 22.9501C22.1309 22.9501 22.0309 22.9168 21.9392 22.8501C21.7809 22.7335 21.6976 22.5418 21.7309 22.3418L21.9142 21.2835C21.9226 21.2418 21.9059 21.2001 21.8809 21.1668L21.1059 20.4168C20.9642 20.2835 20.9142 20.0751 20.9726 19.8918C21.0309 19.7001 21.1892 19.5668 21.3892 19.5418L22.4559 19.3835C22.4976 19.3751 22.5309 19.3501 22.5559 19.3168L23.0309 18.3501C23.1226 18.1751 23.2976 18.0668 23.4976 18.0668C23.6976 18.0668 23.8726 18.1751 23.9559 18.3501L24.4309 19.3168C24.4476 19.3585 24.4809 19.3835 24.5226 19.3835L25.5892 19.5418C25.7892 19.5668 25.9476 19.7085 26.0059 19.8918C26.0809 20.0751 26.0309 20.2751 25.8892 20.4168Z" fill="#F2F2F2"/>
</g>
<defs>
<clipPath id="clip0_1664_25220">
<rect width="41" height="41" rx="20.5" fill="white"/>
</clipPath>
</defs>
</svg>
