<svg width="36" height="36" viewBox="0 0 36 36" fill="none" xmlns="http://www.w3.org/2000/svg">
<rect width="36" height="36" rx="18" fill="#01050D"/>
<path d="M23.4016 15.939C22.947 15.4369 22.2617 15.1451 21.3117 15.0433V14.5276C21.3117 13.5981 20.9182 12.7024 20.2261 12.0782C19.5272 11.4403 18.618 11.1418 17.6748 11.23C16.0532 11.3861 14.6893 12.9535 14.6893 14.6498V15.0433C13.7394 15.1451 13.0541 15.4369 12.5995 15.939C11.9413 16.6718 11.9617 17.6488 12.0363 18.3274L12.5113 22.1068C12.6538 23.4299 13.1898 24.7869 16.1074 24.7869H19.8936C22.8113 24.7869 23.3473 23.4299 23.4898 22.1135L23.9648 18.3206C24.0394 17.6488 24.053 16.6718 23.4016 15.939ZM17.7698 12.1732C18.4484 12.1121 19.093 12.3224 19.5951 12.777C20.0904 13.2249 20.3686 13.8627 20.3686 14.5276V15.0026H15.6325V14.6498C15.6325 13.442 16.6299 12.2817 17.7698 12.1732ZM15.5714 18.782H15.5646C15.1914 18.782 14.8861 18.4766 14.8861 18.1035C14.8861 17.7303 15.1914 17.4249 15.5646 17.4249C15.9446 17.4249 16.2499 17.7303 16.2499 18.1035C16.2499 18.4766 15.9446 18.782 15.5714 18.782ZM20.3211 18.782H20.3143C19.9411 18.782 19.6358 18.4766 19.6358 18.1035C19.6358 17.7303 19.9411 17.4249 20.3143 17.4249C20.6943 17.4249 20.9996 17.7303 20.9996 18.1035C20.9996 18.4766 20.6943 18.782 20.3211 18.782Z" fill="#F2F2F2"/>
</svg>
