<svg width="20" height="20" viewBox="0 0 20 20" fill="none" xmlns="http://www.w3.org/2000/svg">
<path d="M14.4404 11.666H16.6654C17.582 11.666 18.332 12.416 18.332 13.3327V17.4993C18.332 17.9577 17.957 18.3327 17.4987 18.3327H14.4404C13.982 18.3327 13.607 17.9577 13.607 17.4993V12.4993C13.607 12.041 13.982 11.666 14.4404 11.666Z" fill="#F2F2F2"/>
<path d="M8.88958 8.33398H11.1146C12.0313 8.33398 12.7812 9.08398 12.7812 10.0007V17.5007C12.7812 17.959 12.4063 18.334 11.9479 18.334H8.05625C7.59792 18.334 7.22292 17.959 7.22292 17.5007V10.0007C7.22292 9.08398 7.96458 8.33398 8.88958 8.33398Z" fill="#F2F2F2"/>
<path d="M3.3362 14.166H5.5612C6.01953 14.166 6.39453 14.541 6.39453 14.9993V17.4993C6.39453 17.9577 6.01953 18.3327 5.5612 18.3327H2.50286C2.04453 18.3327 1.66953 17.9577 1.66953 17.4993V15.8327C1.66953 14.916 2.41953 14.166 3.3362 14.166Z" fill="#F2F2F2"/>
<path d="M7.49212 4.04271C7.23379 3.78437 7.13379 3.47604 7.21712 3.20937C7.30046 2.94271 7.55879 2.75104 7.92546 2.69271L8.72546 2.55938C8.75879 2.55938 8.83379 2.50104 8.85046 2.46771L9.29212 1.58438C9.62546 0.909375 10.3838 0.909375 10.7171 1.58438L11.1588 2.46771C11.1671 2.50104 11.2421 2.55938 11.2755 2.55938L12.0755 2.69271C12.4421 2.75104 12.6921 2.94271 12.7838 3.20937C12.8671 3.47604 12.7671 3.78437 12.5088 4.04271L11.8921 4.66771C11.8588 4.69271 11.8338 4.79271 11.8421 4.82604L12.0171 5.59271C12.1505 6.16771 11.9338 6.42604 11.7921 6.52604C11.6505 6.62604 11.3421 6.75938 10.8338 6.45938L10.0838 6.01771C10.0505 5.99271 9.94212 5.99271 9.90879 6.01771L9.16712 6.45938C8.93379 6.60104 8.74212 6.64271 8.59212 6.64271C8.41712 6.64271 8.29212 6.57604 8.21712 6.52604C8.07546 6.42604 7.85879 6.16771 7.99212 5.59271L8.16712 4.82604C8.17546 4.78438 8.15046 4.69271 8.11712 4.66771L7.49212 4.04271Z" fill="#F2F2F2"/>
</svg>
