<svg width="41" height="41" viewBox="0 0 41 41" fill="none" xmlns="http://www.w3.org/2000/svg">
<g clip-path="url(#clip0_1664_25193)">
<circle cx="20.5" cy="20.5" r="20.5" fill="#01050D"/>
<path fill-rule="evenodd" clip-rule="evenodd" d="M13.2117 19.5381C17.7467 17.5686 20.7657 16.2599 22.2817 15.625C26.5965 13.8239 27.5035 13.513 28.0866 13.5C28.2162 13.5 28.5012 13.5259 28.6956 13.6814C28.8511 13.811 28.8899 13.9794 28.9159 14.109C28.9418 14.2386 28.9677 14.5107 28.9418 14.718C28.7085 17.1799 27.6979 23.1532 27.1796 25.9001C26.9593 27.0663 26.5317 27.455 26.1171 27.4938C25.2101 27.5716 24.5233 26.8978 23.6552 26.3277C22.2817 25.4336 21.5173 24.8765 20.1827 23.9954C18.6408 22.9847 19.6385 22.4276 20.5196 21.5205C20.7528 21.2873 24.7307 17.6593 24.8084 17.3354C24.8214 17.2965 24.8214 17.141 24.7307 17.0632C24.64 16.9855 24.5104 17.0114 24.4067 17.0373C24.2642 17.0632 22.0874 18.5145 17.8504 21.378C17.2284 21.8056 16.6712 22.0129 16.1659 22C15.6088 21.987 14.5463 21.689 13.7429 21.4298C12.7711 21.1189 11.9937 20.9504 12.0585 20.4062C12.0973 20.1212 12.4861 19.8361 13.2117 19.5381Z" fill="#F2F2F2"/>
</g>
<defs>
<clipPath id="clip0_1664_25193">
<rect width="41" height="41" rx="20.5" fill="white"/>
</clipPath>
</defs>
</svg>
