<svg width="38" height="38" viewBox="0 0 38 38" fill="none" xmlns="http://www.w3.org/2000/svg">
<circle cx="19" cy="19" r="19" fill="#01050D"/>
<path fill-rule="evenodd" clip-rule="evenodd" d="M13.1678 18.2309C16.7958 16.6553 19.211 15.6083 20.4238 15.1004C23.8756 13.6595 24.6013 13.4108 25.0677 13.4004C25.1714 13.4004 25.3994 13.4211 25.5549 13.5455C25.6793 13.6492 25.7104 13.7839 25.7311 13.8876C25.7519 13.9912 25.7726 14.2089 25.7519 14.3748C25.5653 16.3443 24.7567 21.1229 24.3421 23.3205C24.1659 24.2534 23.8238 24.5644 23.4921 24.5955C22.7665 24.6577 22.2171 24.1186 21.5226 23.6625C20.4238 22.9473 19.8122 22.5016 18.7446 21.7967C17.511 20.9882 18.3092 20.5424 19.0141 19.8168C19.2007 19.6302 22.383 16.7278 22.4452 16.4687C22.4555 16.4376 22.4555 16.3132 22.383 16.251C22.3104 16.1888 22.2068 16.2095 22.1238 16.2303C22.0098 16.251 20.2683 17.412 16.8787 19.7028C16.3812 20.0449 15.9354 20.2107 15.5312 20.2004C15.0854 20.19 14.2354 19.9516 13.5928 19.7443C12.8153 19.4955 12.1934 19.3607 12.2452 18.9254C12.2763 18.6973 12.5873 18.4693 13.1678 18.2309Z" fill="#F2F2F2"/>
</svg>
