<svg width="20" height="20" viewBox="0 0 20 20" fill="none" xmlns="http://www.w3.org/2000/svg">
<g clip-path="url(#clip0_1911_19174)">
<circle cx="10" cy="10" r="10" fill="#0F1217"/>
<path d="M10.0007 13.5659C10.6009 13.5659 11.0874 13.0794 11.0874 12.4792C11.0874 11.8791 10.6009 11.3926 10.0007 11.3926C9.40058 11.3926 8.91406 11.8791 8.91406 12.4792C8.91406 13.0794 9.40058 13.5659 10.0007 13.5659Z" fill="#9AA6B5" fill-opacity="0.5"/>
<path d="M14.1854 8.35398V7.52065C14.1854 5.72065 13.752 3.33398 9.9987 3.33398C6.24536 3.33398 5.81203 5.72065 5.81203 7.52065V8.35398C3.94536 8.58732 3.33203 9.53398 3.33203 11.8607V13.1006C3.33203 15.834 4.16536 16.6673 6.8987 16.6673H13.0987C15.832 16.6673 16.6654 15.834 16.6654 13.1006V11.8607C16.6654 9.53398 16.052 8.58732 14.1854 8.35398ZM9.9987 14.494C8.88536 14.494 7.98536 13.5873 7.98536 12.4807C7.98536 11.3673 8.89203 10.4673 9.9987 10.4673C11.1054 10.4673 12.012 11.374 12.012 12.4807C12.012 13.594 11.112 14.494 9.9987 14.494ZM6.8987 8.29398C6.84536 8.29398 6.7987 8.29398 6.74536 8.29398V7.52065C6.74536 5.56732 7.2987 4.26732 9.9987 4.26732C12.6987 4.26732 13.252 5.56732 13.252 7.52065V8.30065C13.1987 8.30065 13.152 8.30065 13.0987 8.30065H6.8987V8.29398Z" fill="#9AA6B5" fill-opacity="0.5"/>
</g>
<defs>
<clipPath id="clip0_1911_19174">
<rect width="20" height="20" fill="white"/>
</clipPath>
</defs>
</svg>
