<svg width="128" height="32" viewBox="0 0 128 32" fill="none" xmlns="http://www.w3.org/2000/svg">
<rect x="0.25" y="0.25" width="127.5" height="31.5" rx="15.75" stroke="url(#paint0_linear_3204_22791)" stroke-opacity="0.5" stroke-width="0.5"/>
<path d="M16.36 16.716C16.36 13.992 17.956 12.276 20.356 12.276C22.396 12.276 23.848 13.464 24.244 15.456H23.14C22.792 14.052 21.772 13.236 20.344 13.236C18.604 13.236 17.44 14.568 17.44 16.716C17.44 18.852 18.604 20.184 20.356 20.184C21.844 20.184 22.888 19.272 23.188 17.748H24.292C23.968 19.872 22.492 21.144 20.356 21.144C17.956 21.144 16.36 19.44 16.36 16.716ZM26.0644 17.76C26.0644 19.224 26.8444 20.208 28.1524 20.208C29.4604 20.208 30.2284 19.224 30.2284 17.76C30.2284 16.308 29.4604 15.324 28.1524 15.324C26.8444 15.324 26.0644 16.308 26.0644 17.76ZM25.0084 17.76C25.0084 15.756 26.2564 14.388 28.1524 14.388C30.0484 14.388 31.2844 15.756 31.2844 17.76C31.2844 19.764 30.0484 21.144 28.1524 21.144C26.2564 21.144 25.0084 19.764 25.0084 17.76ZM32.2085 21V14.532H33.1445L33.1805 15.696C33.5165 14.868 34.2845 14.388 35.3045 14.388C36.7445 14.388 37.6325 15.324 37.6325 16.836V21H36.6005V17.22C36.6005 15.972 36.0965 15.324 35.0765 15.324C33.9725 15.324 33.2405 16.08 33.2405 17.22V21H32.2085ZM38.3047 18.888H39.3607C39.4327 19.692 40.0327 20.208 41.2327 20.208C42.1087 20.208 42.8287 19.932 42.8287 19.224C42.8287 18.48 42.0487 18.348 40.9807 18.18C39.7927 17.988 38.4727 17.736 38.4727 16.356C38.4727 15.18 39.4327 14.388 40.9927 14.388C42.6967 14.388 43.6447 15.336 43.7767 16.536H42.7207C42.6247 15.78 41.9767 15.324 40.9807 15.324C40.0327 15.324 39.5287 15.732 39.5287 16.26C39.5287 16.968 40.3687 17.112 41.3167 17.28C42.6127 17.508 43.8847 17.748 43.8847 19.176C43.8847 20.52 42.7087 21.144 41.2327 21.144C39.4207 21.144 38.3647 20.196 38.3047 18.888ZM44.4616 17.76C44.4616 15.756 45.6856 14.388 47.5576 14.388C49.3816 14.388 50.5936 15.684 50.5936 17.604V18.12H45.5296C45.6496 19.38 46.3936 20.208 47.5936 20.208C48.5056 20.208 49.1296 19.74 49.4056 18.96H50.4976C50.1256 20.292 49.0456 21.144 47.5696 21.144C45.6856 21.144 44.4616 19.764 44.4616 17.76ZM45.5536 17.256H49.5136C49.3936 16.08 48.7096 15.324 47.5696 15.324C46.4296 15.324 45.7096 16.08 45.5536 17.256ZM51.521 21V14.532H52.457L52.493 15.696C52.829 14.868 53.597 14.388 54.617 14.388C56.057 14.388 56.945 15.324 56.945 16.836V21H55.913V17.22C55.913 15.972 55.409 15.324 54.389 15.324C53.285 15.324 52.553 16.08 52.553 17.22V21H51.521ZM58.3473 18.864V15.468H57.2673V14.532H58.3473V12.864H59.3793V14.532H61.8033V15.468H59.3793V18.9C59.3793 19.836 59.7273 20.196 60.7473 20.196C61.0113 20.196 61.4073 20.172 61.8033 20.088V21.024C61.3113 21.108 60.9033 21.144 60.5553 21.144C59.0553 21.144 58.3473 20.412 58.3473 18.864ZM64.9996 21V12.42H68.6716C70.6156 12.42 71.6236 13.344 71.6236 14.928C71.6236 16.2 70.9636 17.04 69.7036 17.316L71.8756 21H70.6636L68.6356 17.424H66.0316V21H64.9996ZM66.0316 16.464H68.5996C69.8956 16.464 70.5436 16.02 70.5436 14.928C70.5436 13.836 69.8836 13.38 68.5996 13.38H66.0316V16.464ZM72.1061 17.76C72.1061 15.756 73.3301 14.388 75.2021 14.388C77.0261 14.388 78.2381 15.684 78.2381 17.604V18.12H73.1741C73.2941 19.38 74.0381 20.208 75.2381 20.208C76.1501 20.208 76.7741 19.74 77.0501 18.96H78.1421C77.7701 20.292 76.6901 21.144 75.2141 21.144C73.3301 21.144 72.1061 19.764 72.1061 17.76ZM73.1981 17.256H77.1581C77.0381 16.08 76.3541 15.324 75.2141 15.324C74.0741 15.324 73.3541 16.08 73.1981 17.256ZM84.0016 17.784C84.0016 16.26 83.2336 15.324 81.9616 15.324C80.7136 15.324 80.0176 16.212 80.0176 17.772C80.0176 19.332 80.7136 20.208 81.9616 20.208C83.2336 20.208 84.0016 19.296 84.0016 17.784ZM85.0096 14.532V23.196H83.9776V19.968C83.5816 20.724 82.7536 21.144 81.8056 21.144C80.1016 21.144 78.9616 19.776 78.9616 17.76C78.9616 15.744 80.1016 14.388 81.8056 14.388C82.7536 14.388 83.6536 14.808 84.0376 15.636L84.0736 14.532H85.0096ZM86.0665 18.696V14.532H87.0985V18.312C87.0985 19.56 87.6025 20.208 88.6225 20.208C89.7265 20.208 90.4585 19.452 90.4585 18.312V14.532H91.4905V21H90.5545L90.5185 19.836C90.1825 20.664 89.4145 21.144 88.3945 21.144C86.9545 21.144 86.0665 20.208 86.0665 18.696ZM92.643 21V14.532H93.651V21H92.643ZM92.595 13.584V12.264H93.699V13.584H92.595ZM94.8101 21V14.532H95.7461L95.7821 15.84C96.0341 14.94 96.6221 14.532 97.4981 14.532H98.2301V15.612H97.4381C96.3821 15.612 95.8421 16.26 95.8421 17.328V21H94.8101ZM98.3913 17.76C98.3913 15.756 99.6152 14.388 101.487 14.388C103.311 14.388 104.523 15.684 104.523 17.604V18.12H99.4593C99.5793 19.38 100.323 20.208 101.523 20.208C102.435 20.208 103.059 19.74 103.335 18.96H104.427C104.055 20.292 102.975 21.144 101.499 21.144C99.6152 21.144 98.3913 19.764 98.3913 17.76ZM99.4833 17.256H103.443C103.323 16.08 102.639 15.324 101.499 15.324C100.359 15.324 99.6393 16.08 99.4833 17.256ZM110.287 17.748C110.287 16.236 109.519 15.324 108.247 15.324C106.999 15.324 106.303 16.2 106.303 17.76C106.303 19.32 106.999 20.208 108.247 20.208C109.519 20.208 110.287 19.272 110.287 17.748ZM111.295 21H110.359L110.323 19.896C109.939 20.724 109.039 21.144 108.091 21.144C106.387 21.144 105.247 19.788 105.247 17.772C105.247 15.756 106.387 14.388 108.091 14.388C109.039 14.388 109.867 14.808 110.263 15.564V12.18H111.295V21Z" fill="url(#paint1_linear_3204_22791)"/>
<defs>
<linearGradient id="paint0_linear_3204_22791" x1="10.1947" y1="46.7692" x2="135.52" y2="-13.5974" gradientUnits="userSpaceOnUse">
<stop stop-color="#F46919"/>
<stop offset="1" stop-color="#F419AB"/>
</linearGradient>
<linearGradient id="paint1_linear_3204_22791" x1="23.646" y1="30.9231" x2="96.2964" y2="-25.0677" gradientUnits="userSpaceOnUse">
<stop stop-color="#F46919"/>
<stop offset="1" stop-color="#F419AB"/>
</linearGradient>
</defs>
</svg>
