<svg width="468" height="333" viewBox="0 0 468 333" fill="none" xmlns="http://www.w3.org/2000/svg">
<g clip-path="url(#clip0_940_10943)">
<path d="M-1422.21 -267H-1501.05V-188.158M-1422.21 -267V-188.158M-1422.21 -267H-1343.37M-1422.21 -188.158H-1501.05M-1422.21 -188.158V-109.316M-1422.21 -188.158H-1343.37M-1501.05 -188.158V-109.316M-1422.21 -109.316H-1501.05M-1422.21 -109.316V-30.4737M-1422.21 -109.316H-1343.37M-1501.05 -109.316V-30.4737M-1422.21 -30.4737H-1501.05M-1422.21 -30.4737V48.3684M-1422.21 -30.4737H-1343.37M-1501.05 -30.4737V48.3684M-1422.21 48.3684H-1501.05M-1422.21 48.3684V127.211M-1422.21 48.3684H-1343.37M-1501.05 48.3684V127.211M-1422.21 127.211H-1501.05M-1422.21 127.211V206.053M-1422.21 127.211H-1343.37M-1501.05 127.211V206.053M-1422.21 206.053H-1501.05M-1422.21 206.053V284.895M-1422.21 206.053H-1343.37M-1501.05 206.053V284.895M-1422.21 284.895H-1501.05M-1422.21 284.895V363.737M-1422.21 284.895H-1343.37M-1501.05 284.895V363.737M-1422.21 363.737H-1501.05M-1422.21 363.737V442.579M-1422.21 363.737H-1343.37M-1501.05 363.737V442.579M-1422.21 442.579H-1501.05M-1422.21 442.579V521.421M-1422.21 442.579H-1343.37M-1501.05 442.579V521.421M-1422.21 521.421H-1501.05M-1422.21 521.421V600.263M-1422.21 521.421H-1343.37M-1501.05 521.421V600.263M-1422.21 600.263H-1501.05M-1422.21 600.263V679.105M-1422.21 600.263H-1343.37M-1501.05 600.263V679.105M-1422.21 679.105H-1501.05M-1422.21 679.105V757.947M-1422.21 679.105H-1343.37M-1501.05 679.105V757.947M-1422.21 757.947H-1501.05M-1422.21 757.947V836.789M-1422.21 757.947H-1343.37M-1501.05 757.947V836.789M-1422.21 836.789H-1501.05M-1422.21 836.789V915.632M-1422.21 836.789H-1343.37M-1501.05 836.789V915.632M-1422.21 915.632H-1501.05M-1422.21 915.632V994.474M-1422.21 915.632H-1343.37M-1501.05 915.632V994.474M-1422.21 994.474H-1501.05M-1422.21 994.474V1073.32M-1422.21 994.474H-1343.37M-1501.05 994.474V1073.32M-1422.21 1073.32H-1501.05M-1422.21 1073.32V1152.16M-1422.21 1073.32H-1343.37M-1501.05 1073.32V1152.16M-1422.21 1152.16H-1501.05M-1422.21 1152.16V1231M-1422.21 1152.16H-1343.37M-1501.05 1152.16V1231H-1422.21M-1422.21 1231H-1343.37M-1343.37 -267V-188.158M-1343.37 -267H-1264.53M-1343.37 -188.158V-109.316M-1343.37 -188.158H-1264.53M-1343.37 -109.316V-30.4737M-1343.37 -109.316H-1264.53M-1343.37 -30.4737V48.3684M-1343.37 -30.4737H-1264.53M-1343.37 48.3684V127.211M-1343.37 48.3684H-1264.53M-1343.37 127.211V206.053M-1343.37 127.211H-1264.53M-1343.37 206.053V284.895M-1343.37 206.053H-1264.53M-1343.37 284.895V363.737M-1343.37 284.895H-1264.53M-1343.37 363.737V442.579M-1343.37 363.737H-1264.53M-1343.37 442.579V521.421M-1343.37 442.579H-1264.53M-1343.37 521.421V600.263M-1343.37 521.421H-1264.53M-1343.37 600.263V679.105M-1343.37 600.263H-1264.53M-1343.37 679.105V757.947M-1343.37 679.105H-1264.53M-1343.37 757.947V836.789M-1343.37 757.947H-1264.53M-1343.37 836.789V915.632M-1343.37 836.789H-1264.53M-1343.37 915.632V994.474M-1343.37 915.632H-1264.53M-1343.37 994.474V1073.32M-1343.37 994.474H-1264.53M-1343.37 1073.32V1152.16M-1343.37 1073.32H-1264.53M-1343.37 1152.16V1231M-1343.37 1152.16H-1264.53M-1343.37 1231H-1264.53M-1264.53 -267V-188.158M-1264.53 -267H-1185.68M-1264.53 -188.158V-109.316M-1264.53 -188.158H-1185.68M-1264.53 -109.316V-30.4737M-1264.53 -109.316H-1185.68M-1264.53 -30.4737V48.3684M-1264.53 -30.4737H-1185.68M-1264.53 48.3684V127.211M-1264.53 48.3684H-1185.68M-1264.53 127.211V206.053M-1264.53 127.211H-1185.68M-1264.53 206.053V284.895M-1264.53 206.053H-1185.68M-1264.53 284.895V363.737M-1264.53 284.895H-1185.68M-1264.53 363.737V442.579M-1264.53 363.737H-1185.68M-1264.53 442.579V521.421M-1264.53 442.579H-1185.68M-1264.53 521.421V600.263M-1264.53 521.421H-1185.68M-1264.53 600.263V679.105M-1264.53 600.263H-1185.68M-1264.53 679.105V757.947M-1264.53 679.105H-1185.68M-1264.53 757.947V836.789M-1264.53 757.947H-1185.68M-1264.53 836.789V915.632M-1264.53 836.789H-1185.68M-1264.53 915.632V994.474M-1264.53 915.632H-1185.68M-1264.53 994.474V1073.32M-1264.53 994.474H-1185.68M-1264.53 1073.32V1152.16M-1264.53 1073.32H-1185.68M-1264.53 1152.16V1231M-1264.53 1152.16H-1185.68M-1264.53 1231H-1185.68M-1185.68 -267V-188.158M-1185.68 -267H-1106.84M-1185.68 -188.158V-109.316M-1185.68 -188.158H-1106.84M-1185.68 -109.316V-30.4737M-1185.68 -109.316H-1106.84M-1185.68 -30.4737V48.3684M-1185.68 -30.4737H-1106.84M-1185.68 48.3684V127.211M-1185.68 48.3684H-1106.84M-1185.68 127.211V206.053M-1185.68 127.211H-1106.84M-1185.68 206.053V284.895M-1185.68 206.053H-1106.84M-1185.68 284.895V363.737M-1185.68 284.895H-1106.84M-1185.68 363.737V442.579M-1185.68 363.737H-1106.84M-1185.68 442.579V521.421M-1185.68 442.579H-1106.84M-1185.68 521.421V600.263M-1185.68 521.421H-1106.84M-1185.68 600.263V679.105M-1185.68 600.263H-1106.84M-1185.68 679.105V757.947M-1185.68 679.105H-1106.84M-1185.68 757.947V836.789M-1185.68 757.947H-1106.84M-1185.68 836.789V915.632M-1185.68 836.789H-1106.84M-1185.68 915.632V994.474M-1185.68 915.632H-1106.84M-1185.68 994.474V1073.32M-1185.68 994.474H-1106.84M-1185.68 1073.32V1152.16M-1185.68 1073.32H-1106.84M-1185.68 1152.16V1231M-1185.68 1152.16H-1106.84M-1185.68 1231H-1106.84M-1106.84 -267V-188.158M-1106.84 -267H-1028M-1106.84 -188.158V-109.316M-1106.84 -188.158H-1028M-1106.84 -109.316V-30.4737M-1106.84 -109.316H-1028M-1106.84 -30.4737V48.3684M-1106.84 -30.4737H-1028M-1106.84 48.3684V127.211M-1106.84 48.3684H-1028M-1106.84 127.211V206.053M-1106.84 127.211H-1028M-1106.84 206.053V284.895M-1106.84 206.053H-1028M-1106.84 284.895V363.737M-1106.84 284.895H-1028M-1106.84 363.737V442.579M-1106.84 363.737H-1028M-1106.84 442.579V521.421M-1106.84 442.579H-1028M-1106.84 521.421V600.263M-1106.84 521.421H-1028M-1106.84 600.263V679.105M-1106.84 600.263H-1028M-1106.84 679.105V757.947M-1106.84 679.105H-1028M-1106.84 757.947V836.789M-1106.84 757.947H-1028M-1106.84 836.789V915.632M-1106.84 836.789H-1028M-1106.84 915.632V994.474M-1106.84 915.632H-1028M-1106.84 994.474V1073.32M-1106.84 994.474H-1028M-1106.84 1073.32V1152.16M-1106.84 1073.32H-1028M-1106.84 1152.16V1231M-1106.84 1152.16H-1028M-1106.84 1231H-1028M-1028 -267V-188.158M-1028 -267H-949.158M-1028 -188.158V-109.316M-1028 -188.158H-949.158M-1028 -109.316V-30.4737M-1028 -109.316H-949.158M-1028 -30.4737V48.3684M-1028 -30.4737H-949.158M-1028 48.3684V127.211M-1028 48.3684H-949.158M-1028 127.211V206.053M-1028 127.211H-949.158M-1028 206.053V284.895M-1028 206.053H-949.158M-1028 284.895V363.737M-1028 284.895H-949.158M-1028 363.737V442.579M-1028 363.737H-949.158M-1028 442.579V521.421M-1028 442.579H-949.158M-1028 521.421V600.263M-1028 521.421H-949.158M-1028 600.263V679.105M-1028 600.263H-949.158M-1028 679.105V757.947M-1028 679.105H-949.158M-1028 757.947V836.789M-1028 757.947H-949.158M-1028 836.789V915.632M-1028 836.789H-949.158M-1028 915.632V994.474M-1028 915.632H-949.158M-1028 994.474V1073.32M-1028 994.474H-949.158M-1028 1073.32V1152.16M-1028 1073.32H-949.158M-1028 1152.16V1231M-1028 1152.16H-949.158M-1028 1231H-949.158M-949.158 -267V-188.158M-949.158 -267H-870.316M-949.158 -188.158V-109.316M-949.158 -188.158H-870.316M-949.158 -109.316V-30.4737M-949.158 -109.316H-870.316M-949.158 -30.4737V48.3684M-949.158 -30.4737H-870.316M-949.158 48.3684V127.211M-949.158 48.3684H-870.316M-949.158 127.211V206.053M-949.158 127.211H-870.316M-949.158 206.053V284.895M-949.158 206.053H-870.316M-949.158 284.895V363.737M-949.158 284.895H-870.316M-949.158 363.737V442.579M-949.158 363.737H-870.316M-949.158 442.579V521.421M-949.158 442.579H-870.316M-949.158 521.421V600.263M-949.158 521.421H-870.316M-949.158 600.263V679.105M-949.158 600.263H-870.316M-949.158 679.105V757.947M-949.158 679.105H-870.316M-949.158 757.947V836.789M-949.158 757.947H-870.316M-949.158 836.789V915.632M-949.158 836.789H-870.316M-949.158 915.632V994.474M-949.158 915.632H-870.316M-949.158 994.474V1073.32M-949.158 994.474H-870.316M-949.158 1073.32V1152.16M-949.158 1073.32H-870.316M-949.158 1152.16V1231M-949.158 1152.16H-870.316M-949.158 1231H-870.316M-870.316 -267V-188.158M-870.316 -267H-791.474M-870.316 -188.158V-109.316M-870.316 -188.158H-791.474M-870.316 -109.316V-30.4737M-870.316 -109.316H-791.474M-870.316 -30.4737V48.3684M-870.316 -30.4737H-791.474M-870.316 48.3684V127.211M-870.316 48.3684H-791.474M-870.316 127.211V206.053M-870.316 127.211H-791.474M-870.316 206.053V284.895M-870.316 206.053H-791.474M-870.316 284.895V363.737M-870.316 284.895H-791.474M-870.316 363.737V442.579M-870.316 363.737H-791.474M-870.316 442.579V521.421M-870.316 442.579H-791.474M-870.316 521.421V600.263M-870.316 521.421H-791.474M-870.316 600.263V679.105M-870.316 600.263H-791.474M-870.316 679.105V757.947M-870.316 679.105H-791.474M-870.316 757.947V836.789M-870.316 757.947H-791.474M-870.316 836.789V915.632M-870.316 836.789H-791.474M-870.316 915.632V994.474M-870.316 915.632H-791.474M-870.316 994.474V1073.32M-870.316 994.474H-791.474M-870.316 1073.32V1152.16M-870.316 1073.32H-791.474M-870.316 1152.16V1231M-870.316 1152.16H-791.474M-870.316 1231H-791.474M-791.474 -267V-188.158M-791.474 -267H-712.632M-791.474 -188.158V-109.316M-791.474 -188.158H-712.632M-791.474 -109.316V-30.4737M-791.474 -109.316H-712.632M-791.474 -30.4737V48.3684M-791.474 -30.4737H-712.632M-791.474 48.3684V127.211M-791.474 48.3684H-712.632M-791.474 127.211V206.053M-791.474 127.211H-712.632M-791.474 206.053V284.895M-791.474 206.053H-712.632M-791.474 284.895V363.737M-791.474 284.895H-712.632M-791.474 363.737V442.579M-791.474 363.737H-712.632M-791.474 442.579V521.421M-791.474 442.579H-712.632M-791.474 521.421V600.263M-791.474 521.421H-712.632M-791.474 600.263V679.105M-791.474 600.263H-712.632M-791.474 679.105V757.947M-791.474 679.105H-712.632M-791.474 757.947V836.789M-791.474 757.947H-712.632M-791.474 836.789V915.632M-791.474 836.789H-712.632M-791.474 915.632V994.474M-791.474 915.632H-712.632M-791.474 994.474V1073.32M-791.474 994.474H-712.632M-791.474 1073.32V1152.16M-791.474 1073.32H-712.632M-791.474 1152.16V1231M-791.474 1152.16H-712.632M-791.474 1231H-712.632M-712.632 -267V-188.158M-712.632 -267H-633.79M-712.632 -188.158V-109.316M-712.632 -188.158H-633.79M-712.632 -109.316V-30.4737M-712.632 -109.316H-633.79M-712.632 -30.4737V48.3684M-712.632 -30.4737H-633.79M-712.632 48.3684V127.211M-712.632 48.3684H-633.79M-712.632 127.211V206.053M-712.632 127.211H-633.79M-712.632 206.053V284.895M-712.632 206.053H-633.79M-712.632 284.895V363.737M-712.632 284.895H-633.79M-712.632 363.737V442.579M-712.632 363.737H-633.79M-712.632 442.579V521.421M-712.632 442.579H-633.79M-712.632 521.421V600.263M-712.632 521.421H-633.79M-712.632 600.263V679.105M-712.632 600.263H-633.79M-712.632 679.105V757.947M-712.632 679.105H-633.79M-712.632 757.947V836.789M-712.632 757.947H-633.79M-712.632 836.789V915.632M-712.632 836.789H-633.79M-712.632 915.632V994.474M-712.632 915.632H-633.79M-712.632 994.474V1073.32M-712.632 994.474H-633.79M-712.632 1073.32V1152.16M-712.632 1073.32H-633.79M-712.632 1152.16V1231M-712.632 1152.16H-633.79M-712.632 1231H-633.79M-633.79 -267V-188.158M-633.79 -267H-554.947M-633.79 -188.158V-109.316M-633.79 -188.158H-554.947M-633.79 -109.316V-30.4737M-633.79 -109.316H-554.947M-633.79 -30.4737V48.3684M-633.79 -30.4737H-554.947M-633.79 48.3684V127.211M-633.79 48.3684H-554.947M-633.79 127.211V206.053M-633.79 127.211H-554.947M-633.79 206.053V284.895M-633.79 206.053H-554.947M-633.79 284.895V363.737M-633.79 284.895H-554.947M-633.79 363.737V442.579M-633.79 363.737H-554.947M-633.79 442.579V521.421M-633.79 442.579H-554.947M-633.79 521.421V600.263M-633.79 521.421H-554.947M-633.79 600.263V679.105M-633.79 600.263H-554.947M-633.79 679.105V757.947M-633.79 679.105H-554.947M-633.79 757.947V836.789M-633.79 757.947H-554.947M-633.79 836.789V915.632M-633.79 836.789H-554.947M-633.79 915.632V994.474M-633.79 915.632H-554.947M-633.79 994.474V1073.32M-633.79 994.474H-554.947M-633.79 1073.32V1152.16M-633.79 1073.32H-554.947M-633.79 1152.16V1231M-633.79 1152.16H-554.947M-633.79 1231H-554.947M-554.947 -267V-188.158M-554.947 -267H-476.105M-554.947 -188.158V-109.316M-554.947 -188.158H-476.105M-554.947 -109.316V-30.4737M-554.947 -109.316H-476.105M-554.947 -30.4737V48.3684M-554.947 -30.4737H-476.105M-554.947 48.3684V127.211M-554.947 48.3684H-476.105M-554.947 127.211V206.053M-554.947 127.211H-476.105M-554.947 206.053V284.895M-554.947 206.053H-476.105M-554.947 284.895V363.737M-554.947 284.895H-476.105M-554.947 363.737V442.579M-554.947 363.737H-476.105M-554.947 442.579V521.421M-554.947 442.579H-476.105M-554.947 521.421V600.263M-554.947 521.421H-476.105M-554.947 600.263V679.105M-554.947 600.263H-476.105M-554.947 679.105V757.947M-554.947 679.105H-476.105M-554.947 757.947V836.789M-554.947 757.947H-476.105M-554.947 836.789V915.632M-554.947 836.789H-476.105M-554.947 915.632V994.474M-554.947 915.632H-476.105M-554.947 994.474V1073.32M-554.947 994.474H-476.105M-554.947 1073.32V1152.16M-554.947 1073.32H-476.105M-554.947 1152.16V1231M-554.947 1152.16H-476.105M-554.947 1231H-476.105M-476.105 -267V-188.158M-476.105 -267H-397.263M-476.105 -188.158V-109.316M-476.105 -188.158H-397.263M-476.105 -109.316V-30.4737M-476.105 -109.316H-397.263M-476.105 -30.4737V48.3684M-476.105 -30.4737H-397.263M-476.105 48.3684V127.211M-476.105 48.3684H-397.263M-476.105 127.211V206.053M-476.105 127.211H-397.263M-476.105 206.053V284.895M-476.105 206.053H-397.263M-476.105 284.895V363.737M-476.105 284.895H-397.263M-476.105 363.737V442.579M-476.105 363.737H-397.263M-476.105 442.579V521.421M-476.105 442.579H-397.263M-476.105 521.421V600.263M-476.105 521.421H-397.263M-476.105 600.263V679.105M-476.105 600.263H-397.263M-476.105 679.105V757.947M-476.105 679.105H-397.263M-476.105 757.947V836.789M-476.105 757.947H-397.263M-476.105 836.789V915.632M-476.105 836.789H-397.263M-476.105 915.632V994.474M-476.105 915.632H-397.263M-476.105 994.474V1073.32M-476.105 994.474H-397.263M-476.105 1073.32V1152.16M-476.105 1073.32H-397.263M-476.105 1152.16V1231M-476.105 1152.16H-397.263M-476.105 1231H-397.263M-397.263 -267V-188.158M-397.263 -267H-318.421M-397.263 -188.158V-109.316M-397.263 -188.158H-318.421M-397.263 -109.316V-30.4737M-397.263 -109.316H-318.421M-397.263 -30.4737V48.3684M-397.263 -30.4737H-318.421M-397.263 48.3684V127.211M-397.263 48.3684H-318.421M-397.263 127.211V206.053M-397.263 127.211H-318.421M-397.263 206.053V284.895M-397.263 206.053H-318.421M-397.263 284.895V363.737M-397.263 284.895H-318.421M-397.263 363.737V442.579M-397.263 363.737H-318.421M-397.263 442.579V521.421M-397.263 442.579H-318.421M-397.263 521.421V600.263M-397.263 521.421H-318.421M-397.263 600.263V679.105M-397.263 600.263H-318.421M-397.263 679.105V757.947M-397.263 679.105H-318.421M-397.263 757.947V836.789M-397.263 757.947H-318.421M-397.263 836.789V915.632M-397.263 836.789H-318.421M-397.263 915.632V994.474M-397.263 915.632H-318.421M-397.263 994.474V1073.32M-397.263 994.474H-318.421M-397.263 1073.32V1152.16M-397.263 1073.32H-318.421M-397.263 1152.16V1231M-397.263 1152.16H-318.421M-397.263 1231H-318.421M-318.421 -267V-188.158M-318.421 -267H-239.579M-318.421 -188.158V-109.316M-318.421 -188.158H-239.579M-318.421 -109.316V-30.4737M-318.421 -109.316H-239.579M-318.421 -30.4737V48.3684M-318.421 -30.4737H-239.579M-318.421 48.3684V127.211M-318.421 48.3684H-239.579M-318.421 127.211V206.053M-318.421 127.211H-239.579M-318.421 206.053V284.895M-318.421 206.053H-239.579M-318.421 284.895V363.737M-318.421 284.895H-239.579M-318.421 363.737V442.579M-318.421 363.737H-239.579M-318.421 442.579V521.421M-318.421 442.579H-239.579M-318.421 521.421V600.263M-318.421 521.421H-239.579M-318.421 600.263V679.105M-318.421 600.263H-239.579M-318.421 679.105V757.947M-318.421 679.105H-239.579M-318.421 757.947V836.789M-318.421 757.947H-239.579M-318.421 836.789V915.632M-318.421 836.789H-239.579M-318.421 915.632V994.474M-318.421 915.632H-239.579M-318.421 994.474V1073.32M-318.421 994.474H-239.579M-318.421 1073.32V1152.16M-318.421 1073.32H-239.579M-318.421 1152.16V1231M-318.421 1152.16H-239.579M-318.421 1231H-239.579M-239.579 -267V-188.158M-239.579 -267H-160.737M-239.579 -188.158V-109.316M-239.579 -188.158H-160.737M-239.579 -109.316V-30.4737M-239.579 -109.316H-160.737M-239.579 -30.4737V48.3684M-239.579 -30.4737H-160.737M-239.579 48.3684V127.211M-239.579 48.3684H-160.737M-239.579 127.211V206.053M-239.579 127.211H-160.737M-239.579 206.053V284.895M-239.579 206.053H-160.737M-239.579 284.895V363.737M-239.579 284.895H-160.737M-239.579 363.737V442.579M-239.579 363.737H-160.737M-239.579 442.579V521.421M-239.579 442.579H-160.737M-239.579 521.421V600.263M-239.579 521.421H-160.737M-239.579 600.263V679.105M-239.579 600.263H-160.737M-239.579 679.105V757.947M-239.579 679.105H-160.737M-239.579 757.947V836.789M-239.579 757.947H-160.737M-239.579 836.789V915.632M-239.579 836.789H-160.737M-239.579 915.632V994.474M-239.579 915.632H-160.737M-239.579 994.474V1073.32M-239.579 994.474H-160.737M-239.579 1073.32V1152.16M-239.579 1073.32H-160.737M-239.579 1152.16V1231M-239.579 1152.16H-160.737M-239.579 1231H-160.737M-160.737 -267V-188.158M-160.737 -267H-81.8948M-160.737 -188.158V-109.316M-160.737 -188.158H-81.8948M-160.737 -109.316V-30.4737M-160.737 -109.316H-81.8948M-160.737 -30.4737V48.3684M-160.737 -30.4737H-81.8948M-160.737 48.3684V127.211M-160.737 48.3684H-81.8948M-160.737 127.211V206.053M-160.737 127.211H-81.8948M-160.737 206.053V284.895M-160.737 206.053H-81.8948M-160.737 284.895V363.737M-160.737 284.895H-81.8948M-160.737 363.737V442.579M-160.737 363.737H-81.8948M-160.737 442.579V521.421M-160.737 442.579H-81.8948M-160.737 521.421V600.263M-160.737 521.421H-81.8948M-160.737 600.263V679.105M-160.737 600.263H-81.8948M-160.737 679.105V757.947M-160.737 679.105H-81.8948M-160.737 757.947V836.789M-160.737 757.947H-81.8948M-160.737 836.789V915.632M-160.737 836.789H-81.8948M-160.737 915.632V994.474M-160.737 915.632H-81.8948M-160.737 994.474V1073.32M-160.737 994.474H-81.8948M-160.737 1073.32V1152.16M-160.737 1073.32H-81.8948M-160.737 1152.16V1231M-160.737 1152.16H-81.8948M-160.737 1231H-81.8948M-81.8948 -267V-188.158M-81.8948 -267H-3.05273M-81.8948 -188.158V-109.316M-81.8948 -188.158H-3.05273M-81.8948 -109.316V-30.4737M-81.8948 -109.316H-3.05273M-81.8948 -30.4737V48.3684M-81.8948 -30.4737H-3.05273M-81.8948 48.3684V127.211M-81.8948 48.3684H-3.05273M-81.8948 127.211V206.053M-81.8948 127.211H-3.05273M-81.8948 206.053V284.895M-81.8948 206.053H-3.05273M-81.8948 284.895V363.737M-81.8948 284.895H-3.05273M-81.8948 363.737V442.579M-81.8948 363.737H-3.05273M-81.8948 442.579V521.421M-81.8948 442.579H-3.05273M-81.8948 521.421V600.263M-81.8948 521.421H-3.05273M-81.8948 600.263V679.105M-81.8948 600.263H-3.05273M-81.8948 679.105V757.947M-81.8948 679.105H-3.05273M-81.8948 757.947V836.789M-81.8948 757.947H-3.05273M-81.8948 836.789V915.632M-81.8948 836.789H-3.05273M-81.8948 915.632V994.474M-81.8948 915.632H-3.05273M-81.8948 994.474V1073.32M-81.8948 994.474H-3.05273M-81.8948 1073.32V1152.16M-81.8948 1073.32H-3.05273M-81.8948 1152.16V1231M-81.8948 1152.16H-3.05273M-81.8948 1231H-3.05273M-3.05273 -267V-188.158M-3.05273 -267H75.7894M-3.05273 -188.158V-109.316M-3.05273 -188.158H75.7894M-3.05273 -109.316V-30.4737M-3.05273 -109.316H75.7894M-3.05273 -30.4737V48.3684M-3.05273 -30.4737H75.7894M-3.05273 48.3684V127.211M-3.05273 48.3684H75.7894M-3.05273 127.211V206.053M-3.05273 127.211H75.7894M-3.05273 206.053V284.895M-3.05273 206.053H75.7894M-3.05273 284.895V363.737M-3.05273 284.895H75.7894M-3.05273 363.737V442.579M-3.05273 363.737H75.7894M-3.05273 442.579V521.421M-3.05273 442.579H75.7894M-3.05273 521.421V600.263M-3.05273 521.421H75.7894M-3.05273 600.263V679.105M-3.05273 600.263H75.7894M-3.05273 679.105V757.947M-3.05273 679.105H75.7894M-3.05273 757.947V836.789M-3.05273 757.947H75.7894M-3.05273 836.789V915.632M-3.05273 836.789H75.7894M-3.05273 915.632V994.474M-3.05273 915.632H75.7894M-3.05273 994.474V1073.32M-3.05273 994.474H75.7894M-3.05273 1073.32V1152.16M-3.05273 1073.32H75.7894M-3.05273 1152.16V1231M-3.05273 1152.16H75.7894M-3.05273 1231H75.7894M75.7894 -267V-188.158M75.7894 -267H154.631M75.7894 -188.158V-109.316M75.7894 -188.158H154.631M75.7894 -109.316V-30.4737M75.7894 -109.316H154.631M75.7894 -30.4737V48.3684M75.7894 -30.4737H154.631M75.7894 48.3684V127.211M75.7894 48.3684H154.631M75.7894 127.211V206.053M75.7894 127.211H154.631M75.7894 206.053V284.895M75.7894 206.053H154.631M75.7894 284.895V363.737M75.7894 284.895H154.631M75.7894 363.737V442.579M75.7894 363.737H154.631M75.7894 442.579V521.421M75.7894 442.579H154.631M75.7894 521.421V600.263M75.7894 521.421H154.631M75.7894 600.263V679.105M75.7894 600.263H154.631M75.7894 679.105V757.947M75.7894 679.105H154.631M75.7894 757.947V836.789M75.7894 757.947H154.631M75.7894 836.789V915.632M75.7894 836.789H154.631M75.7894 915.632V994.474M75.7894 915.632H154.631M75.7894 994.474V1073.32M75.7894 994.474H154.631M75.7894 1073.32V1152.16M75.7894 1073.32H154.631M75.7894 1152.16V1231M75.7894 1152.16H154.631M75.7894 1231H154.631M154.631 -267V-188.158M154.631 -267H233.474M154.631 -188.158V-109.316M154.631 -188.158H233.474M154.631 -109.316V-30.4737M154.631 -109.316H233.474M154.631 -30.4737V48.3684M154.631 -30.4737H233.474M154.631 48.3684H233.474M154.631 127.211V206.053M154.631 127.211H233.474M154.631 206.053V284.895M154.631 206.053H233.474M154.631 284.895V363.737M154.631 284.895H233.474M154.631 363.737V442.579M154.631 363.737H233.474M154.631 442.579V521.421M154.631 442.579H233.474M154.631 521.421V600.263M154.631 521.421H233.474M154.631 600.263V679.105M154.631 600.263H233.474M154.631 679.105V757.947M154.631 679.105H233.474M154.631 757.947V836.789M154.631 757.947H233.474M154.631 836.789V915.632M154.631 836.789H233.474M154.631 915.632V994.474M154.631 915.632H233.474M154.631 994.474V1073.32M154.631 994.474H233.474M154.631 1073.32V1152.16M154.631 1073.32H233.474M154.631 1152.16V1231M154.631 1152.16H233.474M154.631 1231H233.474M233.474 -267V-188.158M233.474 -267H312.316M233.474 -188.158V-109.316M233.474 -188.158H312.316M233.474 -109.316V-30.4737M233.474 -109.316H312.316M233.474 -30.4737V48.3684M233.474 -30.4737H312.316M233.474 48.3684H312.316M233.474 127.211V206.053M233.474 127.211H312.316M233.474 206.053V284.895M233.474 206.053H312.316M233.474 284.895V363.737M233.474 284.895H312.316M233.474 363.737V442.579M233.474 363.737H312.316M233.474 442.579V521.421M233.474 442.579H312.316M233.474 521.421V600.263M233.474 521.421H312.316M233.474 600.263V679.105M233.474 600.263H312.316M233.474 679.105V757.947M233.474 679.105H312.316M233.474 757.947V836.789M233.474 757.947H312.316M233.474 836.789V915.632M233.474 836.789H312.316M233.474 915.632V994.474M233.474 915.632H312.316M233.474 994.474V1073.32M233.474 994.474H312.316M233.474 1073.32V1152.16M233.474 1073.32H312.316M233.474 1152.16V1231M233.474 1152.16H312.316M233.474 1231H312.316M312.316 -267V-188.158M312.316 -267H391.158M312.316 -188.158V-109.316M312.316 -188.158H391.158M312.316 -109.316V-30.4737M312.316 -109.316H391.158M312.316 -30.4737V48.3684M312.316 -30.4737H391.158M312.316 48.3684H391.158M312.316 127.211V206.053M312.316 127.211H391.158M312.316 206.053V284.895M312.316 206.053H391.158M312.316 284.895V363.737M312.316 284.895H391.158M312.316 363.737V442.579M312.316 363.737H391.158M312.316 442.579V521.421M312.316 442.579H391.158M312.316 521.421V600.263M312.316 521.421H391.158M312.316 600.263V679.105M312.316 600.263H391.158M312.316 679.105V757.947M312.316 679.105H391.158M312.316 757.947V836.789M312.316 757.947H391.158M312.316 836.789V915.632M312.316 836.789H391.158M312.316 915.632V994.474M312.316 915.632H391.158M312.316 994.474V1073.32M312.316 994.474H391.158M312.316 1073.32V1152.16M312.316 1073.32H391.158M312.316 1152.16V1231M312.316 1152.16H391.158M312.316 1231H391.158M391.158 -267V-188.158M391.158 -267H470M391.158 -188.158V-109.316M391.158 -188.158H470M391.158 -109.316V-30.4737M391.158 -109.316H470M391.158 -30.4737V48.3684M391.158 -30.4737H470M391.158 48.3684V127.211M391.158 48.3684H470M391.158 127.211V206.053M391.158 127.211H470M391.158 206.053V284.895M391.158 206.053H470M391.158 284.895V363.737M391.158 284.895H470M391.158 363.737V442.579M391.158 363.737H470M391.158 442.579V521.421M391.158 442.579H470M391.158 521.421V600.263M391.158 521.421H470M391.158 600.263V679.105M391.158 600.263H470M391.158 679.105V757.947M391.158 679.105H470M391.158 757.947V836.789M391.158 757.947H470M391.158 836.789V915.632M391.158 836.789H470M391.158 915.632V994.474M391.158 915.632H470M391.158 994.474V1073.32M391.158 994.474H470M391.158 1073.32V1152.16M391.158 1073.32H470M391.158 1152.16V1231M391.158 1152.16H470M391.158 1231H470M470 -267V-188.158M470 -267H548.842M470 -188.158V-109.316M470 -188.158H548.842M470 -109.316V-30.4737M470 -109.316H548.842M470 -30.4737V48.3684M470 -30.4737H548.842M470 48.3684V127.211M470 48.3684H548.842M470 127.211V206.053M470 127.211H548.842M470 206.053V284.895M470 206.053H548.842M470 284.895V363.737M470 284.895H548.842M470 363.737V442.579M470 363.737H548.842M470 442.579V521.421M470 442.579H548.842M470 521.421V600.263M470 521.421H548.842M470 600.263V679.105M470 600.263H548.842M470 679.105V757.947M470 679.105H548.842M470 757.947V836.789M470 757.947H548.842M470 836.789V915.632M470 836.789H548.842M470 915.632V994.474M470 915.632H548.842M470 994.474V1073.32M470 994.474H548.842M470 1073.32V1152.16M470 1073.32H548.842M470 1152.16V1231M470 1152.16H548.842M470 1231H548.842M548.842 -267V-188.158M548.842 -267H627.684M548.842 -188.158V-109.316M548.842 -188.158H627.684M548.842 -109.316V-30.4737M548.842 -109.316H627.684M548.842 -30.4737V48.3684M548.842 -30.4737H627.684M548.842 48.3684V127.211M548.842 48.3684H627.684M548.842 127.211V206.053M548.842 127.211H627.684M548.842 206.053V284.895M548.842 206.053H627.684M548.842 284.895V363.737M548.842 284.895H627.684M548.842 363.737V442.579M548.842 363.737H627.684M548.842 442.579V521.421M548.842 442.579H627.684M548.842 521.421V600.263M548.842 521.421H627.684M548.842 600.263V679.105M548.842 600.263H627.684M548.842 679.105V757.947M548.842 679.105H627.684M548.842 757.947V836.789M548.842 757.947H627.684M548.842 836.789V915.632M548.842 836.789H627.684M548.842 915.632V994.474M548.842 915.632H627.684M548.842 994.474V1073.32M548.842 994.474H627.684M548.842 1073.32V1152.16M548.842 1073.32H627.684M548.842 1152.16V1231M548.842 1152.16H627.684M548.842 1231H627.684M627.684 -267V-188.158M627.684 -267H706.526M627.684 -188.158V-109.316M627.684 -188.158H706.526M627.684 -109.316V-30.4737M627.684 -109.316H706.526M627.684 -30.4737V48.3684M627.684 -30.4737H706.526M627.684 48.3684V127.211M627.684 48.3684H706.526M627.684 127.211V206.053M627.684 127.211H706.526M627.684 206.053V284.895M627.684 206.053H706.526M627.684 284.895V363.737M627.684 284.895H706.526M627.684 363.737V442.579M627.684 363.737H706.526M627.684 442.579V521.421M627.684 442.579H706.526M627.684 521.421V600.263M627.684 521.421H706.526M627.684 600.263V679.105M627.684 600.263H706.526M627.684 679.105V757.947M627.684 679.105H706.526M627.684 757.947V836.789M627.684 757.947H706.526M627.684 836.789V915.632M627.684 836.789H706.526M627.684 915.632V994.474M627.684 915.632H706.526M627.684 994.474V1073.32M627.684 994.474H706.526M627.684 1073.32V1152.16M627.684 1073.32H706.526M627.684 1152.16V1231M627.684 1152.16H706.526M627.684 1231H706.526M706.526 -267V-188.158M706.526 -267H785.368M706.526 -188.158V-109.316M706.526 -188.158H785.368M706.526 -109.316V-30.4737M706.526 -109.316H785.368M706.526 -30.4737V48.3684M706.526 -30.4737H785.368M706.526 48.3684V127.211M706.526 48.3684H785.368M706.526 127.211V206.053M706.526 127.211H785.368M706.526 206.053V284.895M706.526 206.053H785.368M706.526 284.895V363.737M706.526 284.895H785.368M706.526 363.737V442.579M706.526 363.737H785.368M706.526 442.579V521.421M706.526 442.579H785.368M706.526 521.421V600.263M706.526 521.421H785.368M706.526 600.263V679.105M706.526 600.263H785.368M706.526 679.105V757.947M706.526 679.105H785.368M706.526 757.947V836.789M706.526 757.947H785.368M706.526 836.789V915.632M706.526 836.789H785.368M706.526 915.632V994.474M706.526 915.632H785.368M706.526 994.474V1073.32M706.526 994.474H785.368M706.526 1073.32V1152.16M706.526 1073.32H785.368M706.526 1152.16V1231M706.526 1152.16H785.368M706.526 1231H785.368M785.368 -267V-188.158M785.368 -267H864.21M785.368 -188.158V-109.316M785.368 -188.158H864.21M785.368 -109.316V-30.4737M785.368 -109.316H864.21M785.368 -30.4737V48.3684M785.368 -30.4737H864.21M785.368 48.3684V127.211M785.368 48.3684H864.21M785.368 127.211V206.053M785.368 127.211H864.21M785.368 206.053V284.895M785.368 206.053H864.21M785.368 284.895V363.737M785.368 284.895H864.21M785.368 363.737V442.579M785.368 363.737H864.21M785.368 442.579V521.421M785.368 442.579H864.21M785.368 521.421V600.263M785.368 521.421H864.21M785.368 600.263V679.105M785.368 600.263H864.21M785.368 679.105V757.947M785.368 679.105H864.21M785.368 757.947V836.789M785.368 757.947H864.21M785.368 836.789V915.632M785.368 836.789H864.21M785.368 915.632V994.474M785.368 915.632H864.21M785.368 994.474V1073.32M785.368 994.474H864.21M785.368 1073.32V1152.16M785.368 1073.32H864.21M785.368 1152.16V1231M785.368 1152.16H864.21M785.368 1231H864.21M864.21 -267V-188.158M864.21 -267H943.052M864.21 -188.158V-109.316M864.21 -188.158H943.052M864.21 -109.316V-30.4737M864.21 -109.316H943.052M864.21 -30.4737V48.3684M864.21 -30.4737H943.052M864.21 48.3684V127.211M864.21 48.3684H943.052M864.21 127.211V206.053M864.21 127.211H943.052M864.21 206.053V284.895M864.21 206.053H943.052M864.21 284.895V363.737M864.21 284.895H943.052M864.21 363.737V442.579M864.21 363.737H943.052M864.21 442.579V521.421M864.21 442.579H943.052M864.21 521.421V600.263M864.21 521.421H943.052M864.21 600.263V679.105M864.21 600.263H943.052M864.21 679.105V757.947M864.21 679.105H943.052M864.21 757.947V836.789M864.21 757.947H943.052M864.21 836.789V915.632M864.21 836.789H943.052M864.21 915.632V994.474M864.21 915.632H943.052M864.21 994.474V1073.32M864.21 994.474H943.052M864.21 1073.32V1152.16M864.21 1073.32H943.052M864.21 1152.16V1231M864.21 1152.16H943.052M864.21 1231H943.052M943.052 -267V-188.158M943.052 -267H1021.89M943.052 -188.158V-109.316M943.052 -188.158H1021.89M943.052 -109.316V-30.4737M943.052 -109.316H1021.89M943.052 -30.4737V48.3684M943.052 -30.4737H1021.89M943.052 48.3684V127.211M943.052 48.3684H1021.89M943.052 127.211V206.053M943.052 127.211H1021.89M943.052 206.053V284.895M943.052 206.053H1021.89M943.052 284.895V363.737M943.052 284.895H1021.89M943.052 363.737V442.579M943.052 363.737H1021.89M943.052 442.579V521.421M943.052 442.579H1021.89M943.052 521.421V600.263M943.052 521.421H1021.89M943.052 600.263V679.105M943.052 600.263H1021.89M943.052 679.105V757.947M943.052 679.105H1021.89M943.052 757.947V836.789M943.052 757.947H1021.89M943.052 836.789V915.632M943.052 836.789H1021.89M943.052 915.632V994.474M943.052 915.632H1021.89M943.052 994.474V1073.32M943.052 994.474H1021.89M943.052 1073.32V1152.16M943.052 1073.32H1021.89M943.052 1152.16V1231M943.052 1152.16H1021.89M943.052 1231H1021.89M1021.89 -267V-188.158M1021.89 -267H1100.74M1021.89 -188.158V-109.316M1021.89 -188.158H1100.74M1021.89 -109.316V-30.4737M1021.89 -109.316H1100.74M1021.89 -30.4737V48.3684M1021.89 -30.4737H1100.74M1021.89 48.3684V127.211M1021.89 48.3684H1100.74M1021.89 127.211V206.053M1021.89 127.211H1100.74M1021.89 206.053V284.895M1021.89 206.053H1100.74M1021.89 284.895V363.737M1021.89 284.895H1100.74M1021.89 363.737V442.579M1021.89 363.737H1100.74M1021.89 442.579V521.421M1021.89 442.579H1100.74M1021.89 521.421V600.263M1021.89 521.421H1100.74M1021.89 600.263V679.105M1021.89 600.263H1100.74M1021.89 679.105V757.947M1021.89 679.105H1100.74M1021.89 757.947V836.789M1021.89 757.947H1100.74M1021.89 836.789V915.632M1021.89 836.789H1100.74M1021.89 915.632V994.474M1021.89 915.632H1100.74M1021.89 994.474V1073.32M1021.89 994.474H1100.74M1021.89 1073.32V1152.16M1021.89 1073.32H1100.74M1021.89 1152.16V1231M1021.89 1152.16H1100.74M1021.89 1231H1100.74M1100.74 -267V-188.158M1100.74 -267H1179.58M1100.74 -188.158V-109.316M1100.74 -188.158H1179.58M1100.74 -109.316V-30.4737M1100.74 -109.316H1179.58M1100.74 -30.4737V48.3684M1100.74 -30.4737H1179.58M1100.74 48.3684V127.211M1100.74 48.3684H1179.58M1100.74 127.211V206.053M1100.74 127.211H1179.58M1100.74 206.053V284.895M1100.74 206.053H1179.58M1100.74 284.895V363.737M1100.74 284.895H1179.58M1100.74 363.737V442.579M1100.74 363.737H1179.58M1100.74 442.579V521.421M1100.74 442.579H1179.58M1100.74 521.421V600.263M1100.74 521.421H1179.58M1100.74 600.263V679.105M1100.74 600.263H1179.58M1100.74 679.105V757.947M1100.74 679.105H1179.58M1100.74 757.947V836.789M1100.74 757.947H1179.58M1100.74 836.789V915.632M1100.74 836.789H1179.58M1100.74 915.632V994.474M1100.74 915.632H1179.58M1100.74 994.474V1073.32M1100.74 994.474H1179.58M1100.74 1073.32V1152.16M1100.74 1073.32H1179.58M1100.74 1152.16V1231M1100.74 1152.16H1179.58M1100.74 1231H1179.58M1179.58 -267V-188.158M1179.58 -267H1258.42M1179.58 -188.158V-109.316M1179.58 -188.158H1258.42M1179.58 -109.316V-30.4737M1179.58 -109.316H1258.42M1179.58 -30.4737V48.3684M1179.58 -30.4737H1258.42M1179.58 48.3684V127.211M1179.58 48.3684H1258.42M1179.58 127.211V206.053M1179.58 127.211H1258.42M1179.58 206.053V284.895M1179.58 206.053H1258.42M1179.58 284.895V363.737M1179.58 284.895H1258.42M1179.58 363.737V442.579M1179.58 363.737H1258.42M1179.58 442.579V521.421M1179.58 442.579H1258.42M1179.58 521.421V600.263M1179.58 521.421H1258.42M1179.58 600.263V679.105M1179.58 600.263H1258.42M1179.58 679.105V757.947M1179.58 679.105H1258.42M1179.58 757.947V836.789M1179.58 757.947H1258.42M1179.58 836.789V915.632M1179.58 836.789H1258.42M1179.58 915.632V994.474M1179.58 915.632H1258.42M1179.58 994.474V1073.32M1179.58 994.474H1258.42M1179.58 1073.32V1152.16M1179.58 1073.32H1258.42M1179.58 1152.16V1231M1179.58 1152.16H1258.42M1179.58 1231H1258.42M1258.42 -267V-188.158M1258.42 -267H1337.26M1258.42 -188.158V-109.316M1258.42 -188.158H1337.26M1258.42 -109.316V-30.4737M1258.42 -109.316H1337.26M1258.42 -30.4737V48.3684M1258.42 -30.4737H1337.26M1258.42 48.3684V127.211M1258.42 48.3684H1337.26M1258.42 127.211V206.053M1258.42 127.211H1337.26M1258.42 206.053V284.895M1258.42 206.053H1337.26M1258.42 284.895V363.737M1258.42 284.895H1337.26M1258.42 363.737V442.579M1258.42 363.737H1337.26M1258.42 442.579V521.421M1258.42 442.579H1337.26M1258.42 521.421V600.263M1258.42 521.421H1337.26M1258.42 600.263V679.105M1258.42 600.263H1337.26M1258.42 679.105V757.947M1258.42 679.105H1337.26M1258.42 757.947V836.789M1258.42 757.947H1337.26M1258.42 836.789V915.632M1258.42 836.789H1337.26M1258.42 915.632V994.474M1258.42 915.632H1337.26M1258.42 994.474V1073.32M1258.42 994.474H1337.26M1258.42 1073.32V1152.16M1258.42 1073.32H1337.26M1258.42 1152.16V1231M1258.42 1152.16H1337.26M1258.42 1231H1337.26M1337.26 -267V-188.158M1337.26 -267H1416.11M1337.26 -188.158V-109.316M1337.26 -188.158H1416.11M1337.26 -109.316V-30.4737M1337.26 -109.316H1416.11M1337.26 -30.4737V48.3684M1337.26 -30.4737H1416.11M1337.26 48.3684V127.211M1337.26 48.3684H1416.11M1337.26 127.211V206.053M1337.26 127.211H1416.11M1337.26 206.053V284.895M1337.26 206.053H1416.11M1337.26 284.895V363.737M1337.26 284.895H1416.11M1337.26 363.737V442.579M1337.26 363.737H1416.11M1337.26 442.579V521.421M1337.26 442.579H1416.11M1337.26 521.421V600.263M1337.26 521.421H1416.11M1337.26 600.263V679.105M1337.26 600.263H1416.11M1337.26 679.105V757.947M1337.26 679.105H1416.11M1337.26 757.947V836.789M1337.26 757.947H1416.11M1337.26 836.789V915.632M1337.26 836.789H1416.11M1337.26 915.632V994.474M1337.26 915.632H1416.11M1337.26 994.474V1073.32M1337.26 994.474H1416.11M1337.26 1073.32V1152.16M1337.26 1073.32H1416.11M1337.26 1152.16V1231M1337.26 1152.16H1416.11M1337.26 1231H1416.11M1416.11 -267V-188.158M1416.11 -267H1494.95M1416.11 -188.158V-109.316M1416.11 -188.158H1494.95M1416.11 -109.316V-30.4737M1416.11 -109.316H1494.95M1416.11 -30.4737V48.3684M1416.11 -30.4737H1494.95M1416.11 48.3684V127.211M1416.11 48.3684H1494.95M1416.11 127.211V206.053M1416.11 127.211H1494.95M1416.11 206.053V284.895M1416.11 206.053H1494.95M1416.11 284.895V363.737M1416.11 284.895H1494.95M1416.11 363.737V442.579M1416.11 363.737H1494.95M1416.11 442.579V521.421M1416.11 442.579H1494.95M1416.11 521.421V600.263M1416.11 521.421H1494.95M1416.11 600.263V679.105M1416.11 600.263H1494.95M1416.11 679.105V757.947M1416.11 679.105H1494.95M1416.11 757.947V836.789M1416.11 757.947H1494.95M1416.11 836.789V915.632M1416.11 836.789H1494.95M1416.11 915.632V994.474M1416.11 915.632H1494.95M1416.11 994.474V1073.32M1416.11 994.474H1494.95M1416.11 1073.32V1152.16M1416.11 1073.32H1494.95M1416.11 1152.16V1231M1416.11 1152.16H1494.95M1416.11 1231H1494.95M1494.95 -267V-188.158M1494.95 -267H1573.79M1494.95 -188.158V-109.316M1494.95 -188.158H1573.79M1494.95 -109.316V-30.4737M1494.95 -109.316H1573.79M1494.95 -30.4737V48.3684M1494.95 -30.4737H1573.79M1494.95 48.3684V127.211M1494.95 48.3684H1573.79M1494.95 127.211V206.053M1494.95 127.211H1573.79M1494.95 206.053V284.895M1494.95 206.053H1573.79M1494.95 284.895V363.737M1494.95 284.895H1573.79M1494.95 363.737V442.579M1494.95 363.737H1573.79M1494.95 442.579V521.421M1494.95 442.579H1573.79M1494.95 521.421V600.263M1494.95 521.421H1573.79M1494.95 600.263V679.105M1494.95 600.263H1573.79M1494.95 679.105V757.947M1494.95 679.105H1573.79M1494.95 757.947V836.789M1494.95 757.947H1573.79M1494.95 836.789V915.632M1494.95 836.789H1573.79M1494.95 915.632V994.474M1494.95 915.632H1573.79M1494.95 994.474V1073.32M1494.95 994.474H1573.79M1494.95 1073.32V1152.16M1494.95 1073.32H1573.79M1494.95 1152.16V1231M1494.95 1152.16H1573.79M1494.95 1231H1573.79M1573.79 -267V-188.158M1573.79 -267H1652.63M1573.79 -188.158V-109.316M1573.79 -188.158H1652.63M1573.79 -109.316V-30.4737M1573.79 -109.316H1652.63M1573.79 -30.4737V48.3684M1573.79 -30.4737H1652.63M1573.79 48.3684V127.211M1573.79 48.3684H1652.63M1573.79 127.211V206.053M1573.79 127.211H1652.63M1573.79 206.053V284.895M1573.79 206.053H1652.63M1573.79 284.895V363.737M1573.79 284.895H1652.63M1573.79 363.737V442.579M1573.79 363.737H1652.63M1573.79 442.579V521.421M1573.79 442.579H1652.63M1573.79 521.421V600.263M1573.79 521.421H1652.63M1573.79 600.263V679.105M1573.79 600.263H1652.63M1573.79 679.105V757.947M1573.79 679.105H1652.63M1573.79 757.947V836.789M1573.79 757.947H1652.63M1573.79 836.789V915.632M1573.79 836.789H1652.63M1573.79 915.632V994.474M1573.79 915.632H1652.63M1573.79 994.474V1073.32M1573.79 994.474H1652.63M1573.79 1073.32V1152.16M1573.79 1073.32H1652.63M1573.79 1152.16V1231M1573.79 1152.16H1652.63M1573.79 1231H1652.63M1652.63 -267V-188.158M1652.63 -267H1731.47M1652.63 -188.158V-109.316M1652.63 -188.158H1731.47M1652.63 -109.316V-30.4737M1652.63 -109.316H1731.47M1652.63 -30.4737V48.3684M1652.63 -30.4737H1731.47M1652.63 48.3684V127.211M1652.63 48.3684H1731.47M1652.63 127.211V206.053M1652.63 127.211H1731.47M1652.63 206.053V284.895M1652.63 206.053H1731.47M1652.63 284.895V363.737M1652.63 284.895H1731.47M1652.63 363.737V442.579M1652.63 363.737H1731.47M1652.63 442.579V521.421M1652.63 442.579H1731.47M1652.63 521.421V600.263M1652.63 521.421H1731.47M1652.63 600.263V679.105M1652.63 600.263H1731.47M1652.63 679.105V757.947M1652.63 679.105H1731.47M1652.63 757.947V836.789M1652.63 757.947H1731.47M1652.63 836.789V915.632M1652.63 836.789H1731.47M1652.63 915.632V994.474M1652.63 915.632H1731.47M1652.63 994.474V1073.32M1652.63 994.474H1731.47M1652.63 1073.32V1152.16M1652.63 1073.32H1731.47M1652.63 1152.16V1231M1652.63 1152.16H1731.47M1652.63 1231H1731.47M1731.47 -267V-188.158M1731.47 -267H1810.32M1731.47 -188.158V-109.316M1731.47 -188.158H1810.32M1731.47 -109.316V-30.4737M1731.47 -109.316H1810.32M1731.47 -30.4737V48.3684M1731.47 -30.4737H1810.32M1731.47 48.3684V127.211M1731.47 48.3684H1810.32M1731.47 127.211V206.053M1731.47 127.211H1810.32M1731.47 206.053V284.895M1731.47 206.053H1810.32M1731.47 284.895V363.737M1731.47 284.895H1810.32M1731.47 363.737V442.579M1731.47 363.737H1810.32M1731.47 442.579V521.421M1731.47 442.579H1810.32M1731.47 521.421V600.263M1731.47 521.421H1810.32M1731.47 600.263V679.105M1731.47 600.263H1810.32M1731.47 679.105V757.947M1731.47 679.105H1810.32M1731.47 757.947V836.789M1731.47 757.947H1810.32M1731.47 836.789V915.632M1731.47 836.789H1810.32M1731.47 915.632V994.474M1731.47 915.632H1810.32M1731.47 994.474V1073.32M1731.47 994.474H1810.32M1731.47 1073.32V1152.16M1731.47 1073.32H1810.32M1731.47 1152.16V1231M1731.47 1152.16H1810.32M1731.47 1231H1810.32M1810.32 -267V-188.158M1810.32 -267H1889.16M1810.32 -188.158V-109.316M1810.32 -188.158H1889.16M1810.32 -109.316V-30.4737M1810.32 -109.316H1889.16M1810.32 -30.4737V48.3684M1810.32 -30.4737H1889.16M1810.32 48.3684V127.211M1810.32 48.3684H1889.16M1810.32 127.211V206.053M1810.32 127.211H1889.16M1810.32 206.053V284.895M1810.32 206.053H1889.16M1810.32 284.895V363.737M1810.32 284.895H1889.16M1810.32 363.737V442.579M1810.32 363.737H1889.16M1810.32 442.579V521.421M1810.32 442.579H1889.16M1810.32 521.421V600.263M1810.32 521.421H1889.16M1810.32 600.263V679.105M1810.32 600.263H1889.16M1810.32 679.105V757.947M1810.32 679.105H1889.16M1810.32 757.947V836.789M1810.32 757.947H1889.16M1810.32 836.789V915.632M1810.32 836.789H1889.16M1810.32 915.632V994.474M1810.32 915.632H1889.16M1810.32 994.474V1073.32M1810.32 994.474H1889.16M1810.32 1073.32V1152.16M1810.32 1073.32H1889.16M1810.32 1152.16V1231M1810.32 1152.16H1889.16M1810.32 1231H1889.16M1889.16 -267V-188.158M1889.16 -267H1968V-188.158M1889.16 -188.158V-109.316M1889.16 -188.158H1968M1889.16 -109.316V-30.4737M1889.16 -109.316H1968M1889.16 -30.4737V48.3684M1889.16 -30.4737H1968M1889.16 48.3684V127.211M1889.16 48.3684H1968M1889.16 127.211V206.053M1889.16 127.211H1968M1889.16 206.053V284.895M1889.16 206.053H1968M1889.16 284.895V363.737M1889.16 284.895H1968M1889.16 363.737V442.579M1889.16 363.737H1968M1889.16 442.579V521.421M1889.16 442.579H1968M1889.16 521.421V600.263M1889.16 521.421H1968M1889.16 600.263V679.105M1889.16 600.263H1968M1889.16 679.105V757.947M1889.16 679.105H1968M1889.16 757.947V836.789M1889.16 757.947H1968M1889.16 836.789V915.632M1889.16 836.789H1968M1889.16 915.632V994.474M1889.16 915.632H1968M1889.16 994.474V1073.32M1889.16 994.474H1968M1889.16 1073.32V1152.16M1889.16 1073.32H1968M1889.16 1152.16V1231M1889.16 1152.16H1968M1889.16 1231H1968V1152.16M1968 -188.158V-109.316M1968 -109.316V-30.4737M1968 -30.4737V48.3684M1968 48.3684V127.211M1968 127.211V206.053M1968 206.053V284.895M1968 284.895V363.737M1968 363.737V442.579M1968 442.579V521.421M1968 521.421V600.263M1968 600.263V679.105M1968 679.105V757.947M1968 757.947V836.789M1968 836.789V915.632M1968 915.632V994.474M1968 994.474V1073.32M1968 1073.32V1152.16" stroke="url(#paint0_linear_940_10943)" stroke-width="1.12971"/>
</g>
<defs>
<linearGradient id="paint0_linear_940_10943" x1="233.474" y1="1231" x2="233.474" y2="-267" gradientUnits="userSpaceOnUse">
<stop offset="0.574644" stop-color="#282D33" stop-opacity="0"/>
<stop offset="1" stop-color="#282D33"/>
</linearGradient>
<clipPath id="clip0_940_10943">
<rect width="468" height="333" fill="white" transform="matrix(-1 0 0 1 468 0)"/>
</clipPath>
</defs>
</svg>
