<svg width="152" height="45" viewBox="0 0 152 45" fill="none" xmlns="http://www.w3.org/2000/svg">
<rect x="0.5" y="1" width="151" height="43" rx="21.5" stroke="url(#paint0_linear_471_1906)" stroke-opacity="0.8"/>
<g clip-path="url(#clip0_471_1906)">
<rect x="24" y="12.5" width="20" height="20" rx="4" fill="#195AF4"/>
<path d="M36.2853 24.2672L39.1875 22.417V20.1367L32.8671 24.3716L39.1875 28.5184V26.2979L36.2861 24.4785L36.1186 24.3735L36.2853 24.2672Z" fill="#F2F2F2" stroke="#195AF4" stroke-width="0.25"/>
<path d="M31.7147 20.6148L28.8125 18.7646V16.4843L35.1329 20.7191L28.8125 24.866V22.6454L31.7139 20.8261L31.8814 20.721L31.7147 20.6148Z" fill="#F2F2F2" stroke="#195AF4" stroke-width="0.25"/>
</g>
<path d="M54.9158 26.7079H58.0198C59.5398 26.7079 60.3878 26.0999 60.3878 24.9639C60.3878 23.8279 59.5558 23.1719 58.0198 23.1719H54.9158V26.7079ZM54.9158 21.7159H57.5238C59.1398 21.7159 60.0198 21.1079 60.0198 20.0519C60.0198 18.9319 59.2038 18.4039 57.5238 18.4039H54.9158V21.7159ZM53.0918 28.2759V16.8359H57.6678C60.5638 16.8359 61.9398 17.7799 61.9398 19.9079C61.9398 21.2359 61.0918 22.1639 59.6358 22.3559C61.2198 22.5799 62.2918 23.5239 62.2918 25.1239C62.2918 27.2199 60.8678 28.2759 58.1638 28.2759H53.0918Z" fill="#F2F2F2"/>
<path d="M63.6435 28.2759V16.5159H65.4195V28.2759H63.6435Z" fill="#F2F2F2"/>
<path d="M68.6885 23.9399C68.6885 25.7479 69.6325 26.9479 71.2165 26.9479C72.8005 26.9479 73.7285 25.7479 73.7285 23.9399C73.7285 22.1479 72.8005 20.9479 71.2165 20.9479C69.6325 20.9479 68.6885 22.1479 68.6885 23.9399ZM66.8645 23.9399C66.8645 21.2519 68.5925 19.4119 71.2165 19.4119C73.8405 19.4119 75.5686 21.2519 75.5686 23.9399C75.5686 26.6439 73.8405 28.4839 71.2165 28.4839C68.5925 28.4839 66.8645 26.6439 66.8645 23.9399Z" fill="#F2F2F2"/>
<path d="M76.7627 23.9399C76.7627 21.2359 78.4747 19.4119 81.0987 19.4119C83.3227 19.4119 84.8907 20.7239 85.2747 22.7399H83.4027C83.1147 21.6359 82.3147 20.9479 81.1147 20.9479C79.5147 20.9479 78.5867 22.1319 78.5867 23.9399C78.5867 25.7479 79.5147 26.9479 81.1147 26.9479C82.3787 26.9479 83.1947 26.1799 83.4347 24.9799H85.3067C84.9707 27.1079 83.3707 28.4839 81.0987 28.4839C78.4747 28.4839 76.7627 26.6439 76.7627 23.9399Z" fill="#F2F2F2"/>
<path d="M86.6664 28.2759V16.5159H88.4424V23.3159L92.5864 19.6199H94.9224L91.0824 23.0599L95.0664 28.2759H92.9064L89.8184 24.1479L88.4424 25.3959V28.2759H86.6664Z" fill="#F2F2F2"/>
<path d="M96.0355 28.2759V16.8359H103.748V18.4359H97.8596V21.9079H103.476V23.4759H97.8596V28.2759H96.0355Z" fill="#F2F2F2"/>
<path d="M105.198 28.2759V19.6199H106.974V28.2759H105.198ZM105.15 18.5159V16.6119H107.038V18.5159H105.15Z" fill="#F2F2F2"/>
<path d="M108.72 28.2759V19.6199H110.368L110.432 21.3959C110.768 20.1639 111.536 19.6199 112.688 19.6199H113.648V21.4759H112.608C111.2 21.4759 110.528 22.2279 110.528 23.6199V28.2759H108.72Z" fill="#F2F2F2"/>
<path d="M114.232 25.4119H116.056C116.136 26.4199 116.856 27.0439 118.28 27.0439C119.32 27.0439 120.152 26.6919 120.152 25.8759C120.152 24.9799 119.176 24.8199 117.8 24.6119C116.264 24.3559 114.44 24.0039 114.44 22.0999C114.44 20.4999 115.752 19.4119 117.992 19.4119C120.36 19.4119 121.656 20.6599 121.832 22.3719H120.024C119.912 21.4279 119.144 20.8519 117.96 20.8519C116.856 20.8519 116.28 21.3479 116.28 21.9559C116.28 22.8199 117.32 23.0119 118.536 23.2039C120.2 23.4919 121.992 23.8279 121.992 25.7799C121.992 27.6039 120.408 28.4839 118.28 28.4839C115.752 28.4839 114.328 27.2359 114.232 25.4119Z" fill="#F2F2F2"/>
<path d="M123.883 25.2839V21.1559H122.507V19.6199H123.883V17.4279H125.691V19.6199H128.747V21.1559H125.691V25.2679C125.691 26.4679 126.187 26.8839 127.419 26.8839C127.771 26.8839 128.267 26.8519 128.747 26.7399V28.2919C128.059 28.4039 127.467 28.4679 126.955 28.4679C124.875 28.4679 123.883 27.4759 123.883 25.2839Z" fill="#F2F2F2"/>
<defs>
<linearGradient id="paint0_linear_471_1906" x1="-14.5" y1="44.5" x2="159.5" y2="6" gradientUnits="userSpaceOnUse">
<stop stop-color="#195AF4"/>
<stop offset="0.491762" stop-color="#19F4DE"/>
<stop offset="1" stop-color="#F49119"/>
</linearGradient>
<clipPath id="clip0_471_1906">
<rect width="20" height="20" fill="white" transform="translate(24 12.5)"/>
</clipPath>
</defs>
</svg>
