<svg width="20" height="20" viewBox="0 0 20 20" fill="none" xmlns="http://www.w3.org/2000/svg">
<path d="M10.001 13.901C10.6575 13.901 11.1896 13.3689 11.1896 12.7125C11.1896 12.0561 10.6575 11.5239 10.001 11.5239C9.34463 11.5239 8.8125 12.0561 8.8125 12.7125C8.8125 13.3689 9.34463 13.901 10.001 13.901Z" fill="#F2F2F2"/>
<path d="M14.574 8.19912V7.28766C14.574 5.31891 14.1 2.7085 9.99479 2.7085C5.88958 2.7085 5.41562 5.31891 5.41562 7.28766V8.19912C3.37396 8.45433 2.70312 9.48975 2.70312 12.0345V13.3908C2.70312 16.3804 3.61458 17.2918 6.60417 17.2918H13.3854C16.375 17.2918 17.2865 16.3804 17.2865 13.3908V12.0345C17.2865 9.48975 16.6156 8.45433 14.574 8.19912ZM9.99479 14.9147C8.77708 14.9147 7.79271 13.9231 7.79271 12.7127C7.79271 11.495 8.78437 10.5106 9.99479 10.5106C11.2052 10.5106 12.1969 11.5022 12.1969 12.7127C12.1969 13.9304 11.2125 14.9147 9.99479 14.9147ZM6.60417 8.1335C6.54583 8.1335 6.49479 8.1335 6.43646 8.1335V7.28766C6.43646 5.1512 7.04167 3.72933 9.99479 3.72933C12.9479 3.72933 13.5531 5.1512 13.5531 7.28766V8.14079C13.4948 8.14079 13.4437 8.14079 13.3854 8.14079H6.60417V8.1335Z" fill="#F2F2F2"/>
</svg>
