<svg width="15" height="14" viewBox="0 0 15 14" fill="none" xmlns="http://www.w3.org/2000/svg">
<path fill-rule="evenodd" clip-rule="evenodd" d="M7.4974 1.60547C4.51736 1.60547 2.10156 4.02127 2.10156 7.0013C2.10156 9.98134 4.51736 12.3971 7.4974 12.3971C10.4774 12.3971 12.8932 9.98134 12.8932 7.0013C12.8932 4.02127 10.4774 1.60547 7.4974 1.60547ZM1.22656 7.0013C1.22656 3.53802 4.03411 0.730469 7.4974 0.730469C10.9607 0.730469 13.7682 3.53802 13.7682 7.0013C13.7682 10.4646 10.9607 13.2721 7.4974 13.2721C4.03411 13.2721 1.22656 10.4646 1.22656 7.0013ZM7.4974 5.98047C7.73902 5.98047 7.9349 6.17634 7.9349 6.41797V9.33464C7.9349 9.57626 7.73902 9.77214 7.4974 9.77214C7.25577 9.77214 7.0599 9.57626 7.0599 9.33464V6.41797C7.0599 6.17634 7.25577 5.98047 7.4974 5.98047ZM7.4974 5.2513C7.81956 5.2513 8.08073 4.99014 8.08073 4.66797C8.08073 4.3458 7.81956 4.08464 7.4974 4.08464C7.17523 4.08464 6.91406 4.3458 6.91406 4.66797C6.91406 4.99014 7.17523 5.2513 7.4974 5.2513Z" fill="#9AA6B5"/>
</svg>
