<svg width="41" height="41" viewBox="0 0 41 41" fill="none" xmlns="http://www.w3.org/2000/svg">
<g clip-path="url(#clip0_1405_19233)">
<circle cx="20.5" cy="20.5" r="20.5" fill="#26C5A8"/>
<path fill-rule="evenodd" clip-rule="evenodd" d="M22.5373 21.1917C22.4235 21.2002 21.8354 21.2353 20.5237 21.2353C19.4805 21.2353 18.7397 21.204 18.4799 21.1917C14.448 21.0143 11.4386 20.3125 11.4386 19.4722C11.4386 18.6318 14.448 17.9309 18.4799 17.7507V20.4927C18.7435 20.5116 19.4985 20.5562 20.5418 20.5562C21.7937 20.5562 22.4206 20.5041 22.5335 20.4936V17.7526C26.5568 17.9319 29.5595 18.6337 29.5595 19.4722C29.5595 20.3106 26.5577 21.0124 22.5335 21.1907L22.5373 21.1917ZM22.5371 17.4696V15.016H28.1519V11.2744H12.865V15.016H18.4788V17.4687C13.9158 17.6783 10.4844 18.5821 10.4844 19.6653C10.4844 20.7484 13.9158 21.6513 18.4788 21.8618V29.7244H22.5362V21.859C27.0887 21.6494 30.5145 20.7465 30.5145 19.6643C30.5145 18.5821 27.0916 17.6792 22.5362 17.4687L22.5371 17.4696Z" fill="#0F1217"/>
</g>
<defs>
<clipPath id="clip0_1405_19233">
<rect width="41" height="41" rx="20.5" fill="white"/>
</clipPath>
</defs>
</svg>
