<svg width="63" height="24" viewBox="0 0 63 24" fill="none" xmlns="http://www.w3.org/2000/svg">
<rect x="0.25" y="0.25" width="62.5" height="23.5" rx="11.75" stroke="url(#paint0_linear_4333_32846)" stroke-opacity="0.5" stroke-width="0.5"/>
<path d="M14.304 12.592H17.472L15.888 8.32L14.304 12.592ZM11.892 16L15.204 7.42H16.572L19.884 16H18.744L17.832 13.552H13.944L13.032 16H11.892ZM20.4413 16V7.42H21.4733V16H20.4413ZM24.7936 11.716C24.7936 8.992 26.3896 7.276 28.7896 7.276C30.8296 7.276 32.2816 8.464 32.6776 10.456H31.5736C31.2256 9.052 30.2056 8.236 28.7776 8.236C27.0376 8.236 25.8736 9.568 25.8736 11.716C25.8736 13.852 27.0376 15.184 28.7896 15.184C30.2776 15.184 31.3216 14.272 31.6216 12.748H32.7256C32.4016 14.872 30.9256 16.144 28.7896 16.144C26.3896 16.144 24.7936 14.44 24.7936 11.716ZM33.634 16V7.18H34.666V10.552C35.026 9.808 35.77 9.388 36.73 9.388C38.17 9.388 39.058 10.324 39.058 11.836V16H38.026V12.22C38.026 10.972 37.522 10.324 36.502 10.324C35.398 10.324 34.666 11.08 34.666 12.22V16H33.634ZM40.9665 14.26C40.9665 14.932 41.5185 15.244 42.3225 15.244C43.6425 15.244 44.5065 14.416 44.5065 13.336V12.868L42.2025 13.276C41.2665 13.444 40.9665 13.756 40.9665 14.26ZM39.8865 14.308C39.8865 13.288 40.5585 12.688 42.0585 12.424L44.5065 12.004V11.944C44.5065 10.888 43.8825 10.324 42.8025 10.324C41.7465 10.324 41.1585 10.864 41.0145 11.764H39.9585C40.0905 10.372 41.1105 9.388 42.8265 9.388C44.5545 9.388 45.5625 10.384 45.5625 12.028V16H44.6265L44.5905 14.968C44.2065 15.64 43.2225 16.144 42.0825 16.144C40.7865 16.144 39.8865 15.496 39.8865 14.308ZM46.9294 13.864V10.468H45.8494V9.532H46.9294V7.864H47.9614V9.532H50.3854V10.468H47.9614V13.9C47.9614 14.836 48.3094 15.196 49.3294 15.196C49.5934 15.196 49.9894 15.172 50.3854 15.088V16.024C49.8934 16.108 49.4854 16.144 49.1374 16.144C47.6374 16.144 46.9294 15.412 46.9294 13.864Z" fill="url(#paint1_linear_4333_32846)"/>
<defs>
<linearGradient id="paint0_linear_4333_32846" x1="5.0177" y1="35.0769" x2="74.109" y2="13.237" gradientUnits="userSpaceOnUse">
<stop stop-color="#F46919"/>
<stop offset="1" stop-color="#F419AB"/>
</linearGradient>
<linearGradient id="paint1_linear_4333_32846" x1="15.1062" y1="25.9231" x2="57.9508" y2="12.5088" gradientUnits="userSpaceOnUse">
<stop stop-color="#F46919"/>
<stop offset="1" stop-color="#F419AB"/>
</linearGradient>
</defs>
</svg>
