<svg width="115" height="32" viewBox="0 0 115 32" fill="none" xmlns="http://www.w3.org/2000/svg">
<rect x="0.4" y="0.4" width="113.486" height="31.2" rx="15.6" stroke="url(#paint0_linear_4282_43750)" stroke-opacity="0.8" stroke-width="0.8"/>
<g clip-path="url(#clip0_4282_43750)">
<rect x="16" y="8" width="16" height="16" rx="3.2" fill="#195AF4"/>
<path d="M23.0908 17.4922L28.1465 20.8105V19.0332L25.8252 17.5791L25.6914 17.4951L25.8242 17.4102L28.1465 15.9287V14.1045L23.0908 17.4922Z" fill="#F2F2F2" stroke="#195AF4" stroke-width="0.2"/>
<path d="M24.9014 14.5742L19.8457 17.8926V16.1152L22.167 14.6611L22.3008 14.5771L22.168 14.4922L19.8457 13.0107V11.1865L24.9014 14.5742Z" fill="#F2F2F2" stroke="#195AF4" stroke-width="0.2"/>
</g>
<path d="M40.7326 19.3645H43.2158C44.4318 19.3645 45.1102 18.8781 45.1102 17.9693C45.1102 17.0605 44.4446 16.5357 43.2158 16.5357H40.7326V19.3645ZM40.7326 15.3709H42.819C44.1118 15.3709 44.8158 14.8845 44.8158 14.0397C44.8158 13.1437 44.163 12.7213 42.819 12.7213H40.7326V15.3709ZM39.2734 20.6189V11.4669H42.9342C45.251 11.4669 46.3518 12.2221 46.3518 13.9245C46.3518 14.9869 45.6734 15.7293 44.5086 15.8829C45.7758 16.0621 46.6334 16.8173 46.6334 18.0973C46.6334 19.7741 45.4942 20.6189 43.331 20.6189H39.2734Z" fill="#F2F2F2"/>
<path d="M47.7148 20.6189V11.2109H49.1356V20.6189H47.7148Z" fill="#F2F2F2"/>
<path d="M51.7508 17.1501C51.7508 18.5965 52.506 19.5565 53.7732 19.5565C55.0404 19.5565 55.7828 18.5965 55.7828 17.1501C55.7828 15.7165 55.0404 14.7565 53.7732 14.7565C52.506 14.7565 51.7508 15.7165 51.7508 17.1501ZM50.2916 17.1501C50.2916 14.9997 51.674 13.5277 53.7732 13.5277C55.8724 13.5277 57.2548 14.9997 57.2548 17.1501C57.2548 19.3133 55.8724 20.7853 53.7732 20.7853C51.674 20.7853 50.2916 19.3133 50.2916 17.1501Z" fill="#F2F2F2"/>
<path d="M58.2101 17.1501C58.2101 14.9869 59.5797 13.5277 61.6789 13.5277C63.4581 13.5277 64.7125 14.5773 65.0197 16.1901H63.5221C63.2917 15.3069 62.6517 14.7565 61.6917 14.7565C60.4117 14.7565 59.6693 15.7037 59.6693 17.1501C59.6693 18.5965 60.4117 19.5565 61.6917 19.5565C62.7029 19.5565 63.3557 18.9421 63.5477 17.9821H65.0453C64.7765 19.6845 63.4965 20.7853 61.6789 20.7853C59.5797 20.7853 58.2101 19.3133 58.2101 17.1501Z" fill="#F2F2F2"/>
<path d="M66.1331 20.6189V11.2109H67.5539V16.6509L70.8691 13.6941H72.7379L69.6659 16.4461L72.8531 20.6189H71.1251L68.6547 17.3165L67.5539 18.3149V20.6189H66.1331Z" fill="#F2F2F2"/>
<path d="M73.6284 20.6189V11.4669H79.798V12.7469H75.0876V15.5245H79.5804V16.7789H75.0876V20.6189H73.6284Z" fill="#F2F2F2"/>
<path d="M80.9582 20.6189V13.6941H82.379V20.6189H80.9582ZM80.9198 12.8109V11.2877H82.4302V12.8109H80.9198Z" fill="#F2F2F2"/>
<path d="M83.7761 20.6189V13.6941H85.0945L85.1457 15.1149C85.4145 14.1293 86.0289 13.6941 86.9505 13.6941H87.7185V15.1789H86.8865C85.7601 15.1789 85.2225 15.7805 85.2225 16.8941V20.6189H83.7761Z" fill="#F2F2F2"/>
<path d="M88.1856 18.3277H89.6448C89.7088 19.1341 90.2848 19.6333 91.424 19.6333C92.256 19.6333 92.9216 19.3517 92.9216 18.6989C92.9216 17.9821 92.1408 17.8541 91.04 17.6877C89.8112 17.4829 88.352 17.2013 88.352 15.6781C88.352 14.3981 89.4016 13.5277 91.1936 13.5277C93.088 13.5277 94.1248 14.5261 94.2656 15.8957H92.8192C92.7296 15.1405 92.1152 14.6797 91.168 14.6797C90.2848 14.6797 89.824 15.0765 89.824 15.5629C89.824 16.2541 90.656 16.4077 91.6288 16.5613C92.96 16.7917 94.3936 17.0605 94.3936 18.6221C94.3936 20.0813 93.1264 20.7853 91.424 20.7853C89.4016 20.7853 88.2624 19.7869 88.1856 18.3277Z" fill="#F2F2F2"/>
<path d="M95.9067 18.2253V14.9229H94.8059V13.6941H95.9067V11.9405H97.3531V13.6941H99.7979V14.9229H97.3531V18.2125C97.3531 19.1725 97.7499 19.5053 98.7355 19.5053C99.0171 19.5053 99.4139 19.4797 99.7979 19.3901V20.6317C99.2475 20.7213 98.7739 20.7725 98.3643 20.7725C96.7003 20.7725 95.9067 19.9789 95.9067 18.2253Z" fill="#F2F2F2"/>
<defs>
<linearGradient id="paint0_linear_4282_43750" x1="-10.9023" y1="32" x2="119.506" y2="2.16902" gradientUnits="userSpaceOnUse">
<stop stop-color="#195AF4"/>
<stop offset="0.491762" stop-color="#19F4DE"/>
<stop offset="1" stop-color="#F49119"/>
</linearGradient>
<clipPath id="clip0_4282_43750">
<rect width="16" height="16" fill="white" transform="translate(16 8)"/>
</clipPath>
</defs>
</svg>
