<svg width="16" height="16" viewBox="0 0 16 16" fill="none" xmlns="http://www.w3.org/2000/svg">
<path d="M10.959 2.56641C12.727 2.56656 14.165 4.00692 14.165 5.79297C14.165 6.43953 14.0756 7.0423 13.916 7.60645L13.8428 7.8457L13.8418 7.84863C13.3509 9.40201 12.3431 10.6605 11.2471 11.6025C10.286 12.4285 9.27912 12.9924 8.54688 13.2891L8.25098 13.3994L8.24609 13.4014C8.20296 13.4166 8.11312 13.4326 7.99902 13.4326C7.94191 13.4326 7.89068 13.4288 7.84863 13.4229L7.75195 13.4014L7.74609 13.3994L7.4502 13.2891C6.71795 12.9923 5.71096 12.4284 4.75 11.6025C3.72247 10.7194 2.77311 9.55825 2.25391 8.13672L2.15527 7.84863L2.1543 7.8457L2.08203 7.60645C1.92241 7.04226 1.83203 6.4396 1.83203 5.79297C1.83209 4.00682 3.27091 2.56641 5.03906 2.56641C6.08068 2.56652 7.0153 3.07284 7.59863 3.85254L7.99902 4.3877L8.39941 3.85254C8.98283 3.07286 9.91732 2.56641 10.959 2.56641Z" stroke="url(#paint0_linear_4375_42058)" stroke-opacity="0.5"/>
<defs>
<linearGradient id="paint0_linear_4375_42058" x1="-0.300622" y1="13.9331" x2="14.9475" y2="16.4181" gradientUnits="userSpaceOnUse">
<stop stop-color="#FF20A2"/>
<stop offset="1" stop-color="#FF5B20"/>
</linearGradient>
</defs>
</svg>
