<svg width="200" height="112" viewBox="0 0 200 112" fill="none" xmlns="http://www.w3.org/2000/svg">
<mask id="mask0_4333_33356" style="mask-type:alpha" maskUnits="userSpaceOnUse" x="16" y="70" width="169" height="4">
<path d="M16 72C16 70.8954 16.8954 70 18 70H185V74H18C16.8954 74 16 73.1046 16 72Z" fill="#D9D9D9"/>
</mask>
<g mask="url(#mask0_4333_33356)">
<path d="M470.05 39.1821C469.917 39.2749 469.74 39.2749 469.607 39.1821L258.034 -108.544C257.813 -108.698 257.813 -109.024 258.034 -109.178C258.167 -109.27 258.343 -109.27 258.476 -109.178L470.05 38.5483C470.27 38.7021 470.27 39.0283 470.05 39.1821Z" fill="#FF974C" fill-opacity="0.5"/>
<path d="M465.672 41.5121C465.54 41.6049 465.363 41.6049 465.23 41.5121L253.656 -106.214C253.436 -106.368 253.436 -106.694 253.656 -106.847C253.789 -106.94 253.966 -106.94 254.099 -106.848L465.672 40.8783C465.893 41.0322 465.893 41.3583 465.672 41.5121Z" fill="#FF974C" fill-opacity="0.5"/>
<path d="M461.3 43.8414C461.167 43.9342 460.991 43.9342 460.858 43.8414L249.284 -103.884C249.064 -104.038 249.064 -104.364 249.284 -104.518C249.417 -104.611 249.594 -104.611 249.727 -104.518L461.3 43.2076C461.521 43.3614 461.521 43.6876 461.3 43.8414Z" fill="#FF974C" fill-opacity="0.5"/>
<path d="M456.932 46.1714C456.799 46.2642 456.622 46.2642 456.489 46.1714L244.916 -101.554C244.695 -101.708 244.695 -102.034 244.916 -102.188C245.049 -102.281 245.225 -102.281 245.358 -102.188L456.932 45.5376C457.152 45.6914 457.152 46.0176 456.932 46.1714Z" fill="#FF974C" fill-opacity="0.5"/>
<path d="M451.22 47.5668C451.087 47.6596 450.911 47.6596 450.778 47.5668L240.543 -99.2244C240.323 -99.3782 240.323 -99.7043 240.543 -99.8582C240.676 -99.951 240.853 -99.951 240.986 -99.8582L451.22 46.933C451.441 47.0868 451.441 47.413 451.22 47.5668Z" fill="#FF974C" fill-opacity="0.5"/>
<path d="M435.93 42.5882L236.161 -96.8951C235.941 -97.0489 235.941 -97.3751 236.161 -97.5289C236.294 -97.6217 236.471 -97.6217 236.604 -97.5289L447.293 49.5791L435.93 42.5882Z" fill="#FF974C" fill-opacity="0.5"/>
<path d="M431.783 44.7661C431.65 44.8589 431.473 44.8589 431.34 44.7661L231.793 -94.5627C231.573 -94.7165 231.573 -95.0427 231.793 -95.1965C231.926 -95.2893 232.103 -95.2893 232.236 -95.1965L431.783 44.1323C432.003 44.2862 432.003 44.6123 431.783 44.7661Z" fill="#FF974C" fill-opacity="0.5"/>
<path d="M427.41 47.0954C427.277 47.1882 427.101 47.1882 426.968 47.0954L227.421 -92.2335C227.2 -92.3873 227.2 -92.7134 227.421 -92.8673C227.553 -92.9601 227.73 -92.9601 227.863 -92.8673L427.41 46.4616C427.631 46.6154 427.631 46.9416 427.41 47.0954Z" fill="#FF974C" fill-opacity="0.5"/>
<path d="M423.033 49.4246C422.9 49.5174 422.724 49.5174 422.591 49.4246L223.043 -89.9042C222.823 -90.058 222.823 -90.3842 223.043 -90.538C223.176 -90.6308 223.353 -90.6308 223.486 -90.538L423.033 48.7908C423.253 48.9447 423.253 49.2708 423.033 49.4246Z" fill="#FF974C" fill-opacity="0.5"/>
<path d="M418.66 51.7547C418.528 51.8475 418.351 51.8475 418.218 51.7547L218.671 -87.5742C218.45 -87.728 218.45 -88.0542 218.671 -88.208C218.804 -88.3008 218.98 -88.3008 219.113 -88.208L418.66 51.1209C418.881 51.2747 418.881 51.6008 418.66 51.7547Z" fill="#FF974C" fill-opacity="0.5"/>
<path d="M420.273 58.7936C420.14 58.8864 419.963 58.8864 419.83 58.7936L220.283 -80.5352C220.063 -80.6891 220.063 -81.0152 220.283 -81.169C220.416 -81.2619 220.593 -81.2619 220.726 -81.1691L420.273 58.1598C420.493 58.3136 420.493 58.6398 420.273 58.7936Z" fill="#FF974C" fill-opacity="0.5"/>
<path d="M415.896 61.1228C415.763 61.2157 415.586 61.2157 415.453 61.1228L215.906 -78.206C215.686 -78.3598 215.686 -78.686 215.906 -78.8398C216.039 -78.9326 216.216 -78.9326 216.348 -78.8398L415.896 60.4891C416.116 60.6429 416.116 60.969 415.896 61.1228Z" fill="#FF974C" fill-opacity="0.5"/>
<path d="M411.523 63.4529C411.39 63.5457 411.213 63.5457 411.081 63.4529L211.533 -75.876C211.313 -76.0298 211.313 -76.3559 211.533 -76.5098C211.666 -76.6026 211.843 -76.6026 211.976 -76.5098L411.523 62.8191C411.743 62.9729 411.743 63.2991 411.523 63.4529Z" fill="#FF974C" fill-opacity="0.5"/>
<path d="M407.155 65.7845C407.022 65.8773 406.845 65.8773 406.712 65.7845L207.165 -73.5443C206.945 -73.6982 206.945 -74.0243 207.165 -74.1781C207.298 -74.271 207.475 -74.271 207.608 -74.1781L407.155 65.1507C407.375 65.3045 407.375 65.6307 407.155 65.7845Z" fill="#FF974C" fill-opacity="0.5"/>
<path d="M402.782 68.1137C402.649 68.2065 402.473 68.2065 402.34 68.1137L202.792 -71.2151C202.572 -71.3689 202.572 -71.6951 202.792 -71.8489C202.925 -71.9417 203.102 -71.9417 203.235 -71.8489L402.782 67.4799C403.003 67.6338 403.003 67.9599 402.782 68.1137Z" fill="#FF974C" fill-opacity="0.5"/>
<path d="M398.401 70.443C398.268 70.5358 398.091 70.5358 397.958 70.443L198.411 -68.8858C198.19 -69.0397 198.19 -69.3658 198.411 -69.5196C198.544 -69.6125 198.72 -69.6125 198.853 -69.5196L398.401 69.8092C398.621 69.963 398.621 70.2892 398.401 70.443Z" fill="#FF974C" fill-opacity="0.5"/>
<path d="M373.765 91.4615C373.632 91.5543 373.455 91.5543 373.322 91.4615L145.618 -67.5268C145.398 -67.6806 145.398 -68.0067 145.618 -68.1606C145.751 -68.2534 145.928 -68.2534 146.061 -68.1606L373.765 90.8277C373.985 90.9816 373.985 91.3077 373.765 91.4615Z" fill="#FF974C" fill-opacity="0.5"/>
<path d="M394.032 72.7739C393.899 72.8667 393.722 72.8667 393.589 72.7739L194.042 -66.5549C193.822 -66.7088 193.822 -67.0349 194.042 -67.1887C194.175 -67.2815 194.352 -67.2815 194.485 -67.1887L394.032 72.1401C394.252 72.2939 394.252 72.6201 394.032 72.7739Z" fill="#FF974C" fill-opacity="0.5"/>
<path d="M400.915 82.9617C400.782 83.0546 400.605 83.0546 400.472 82.9617L189.67 -64.2258C189.45 -64.3796 189.45 -64.7057 189.67 -64.8596C189.803 -64.9524 189.98 -64.9524 190.112 -64.8596L400.915 82.328C401.135 82.4818 401.135 82.8079 400.915 82.9617Z" fill="#FF974C" fill-opacity="0.5"/>
<path d="M398.702 86.803C398.569 86.8958 398.393 86.8958 398.26 86.803L185.293 -61.8957C185.072 -62.0496 185.072 -62.3757 185.293 -62.5295C185.426 -62.6223 185.602 -62.6223 185.735 -62.5295L398.702 86.1692C398.922 86.323 398.922 86.6492 398.702 86.803Z" fill="#FF974C" fill-opacity="0.5"/>
<path d="M392.175 87.6284C392.042 87.7212 391.865 87.7212 391.732 87.6284L180.92 -59.5657C180.7 -59.7195 180.7 -60.0457 180.92 -60.1995C181.053 -60.2923 181.23 -60.2923 181.363 -60.1995L392.175 86.9946C392.395 87.1484 392.395 87.4746 392.175 87.6284Z" fill="#FF974C" fill-opacity="0.5"/>
<path d="M382.514 86.803C382.381 86.8958 382.204 86.8958 382.071 86.803L173.453 -58.8591C173.233 -59.0129 173.233 -59.3391 173.453 -59.4929C173.586 -59.5857 173.763 -59.5857 173.896 -59.4929L382.514 86.1692C382.734 86.323 382.734 86.6492 382.514 86.803Z" fill="#FF974C" fill-opacity="0.5"/>
<path d="M378.137 89.1323C378.004 89.2251 377.827 89.2251 377.694 89.1323L169.406 -56.2996C169.186 -56.4534 169.186 -56.7796 169.406 -56.9334C169.539 -57.0262 169.716 -57.0262 169.849 -56.9334L378.137 88.4985C378.357 88.6523 378.357 88.9784 378.137 89.1323Z" fill="#FF974C" fill-opacity="0.5"/>
<path d="M369.396 93.7924C369.263 93.8852 369.086 93.8852 368.953 93.7924L169.406 -45.5365C169.186 -45.6903 169.186 -46.0165 169.406 -46.1703C169.539 -46.2631 169.716 -46.2631 169.849 -46.1703L369.396 93.1586C369.616 93.3124 369.616 93.6385 369.396 93.7924Z" fill="#FF974C" fill-opacity="0.5"/>
<path d="M365.023 96.1216C364.89 96.2144 364.714 96.2144 364.581 96.1216L165.033 -43.2073C164.813 -43.3611 164.813 -43.6872 165.033 -43.8411C165.166 -43.9339 165.343 -43.9339 165.476 -43.8411L365.023 95.4878C365.243 95.6416 365.243 95.9678 365.023 96.1216Z" fill="#FF974C" fill-opacity="0.5"/>
<path d="M360.641 98.4508C360.509 98.5436 360.332 98.5436 360.199 98.4508L160.652 -40.878C160.431 -41.0318 160.431 -41.358 160.652 -41.5118C160.785 -41.6046 160.961 -41.6046 161.094 -41.5118L360.641 97.817C360.862 97.9709 360.862 98.297 360.641 98.4508Z" fill="#FF974C" fill-opacity="0.5"/>
<path d="M356.273 100.783C356.14 100.876 355.964 100.876 355.831 100.783L156.284 -38.5456C156.063 -38.6994 156.063 -39.0256 156.284 -39.1794C156.416 -39.2722 156.593 -39.2722 156.726 -39.1794L356.273 100.149C356.494 100.303 356.494 100.629 356.273 100.783Z" fill="#FF974C" fill-opacity="0.5"/>
<path d="M351.901 103.112C351.768 103.205 351.591 103.205 351.458 103.112L151.911 -36.2164C151.691 -36.3702 151.691 -36.6963 151.911 -36.8502C152.044 -36.943 152.22 -36.943 152.353 -36.8502L351.901 102.479C352.121 102.633 352.121 102.959 351.901 103.112Z" fill="#FF974C" fill-opacity="0.5"/>
<path d="M347.523 105.443C347.391 105.535 347.214 105.535 347.081 105.443L147.534 -33.8863C147.313 -34.0402 147.313 -34.3663 147.534 -34.5201C147.667 -34.6129 147.843 -34.6129 147.976 -34.5201L347.523 104.809C347.744 104.963 347.744 105.289 347.523 105.443Z" fill="#FF974C" fill-opacity="0.5"/>
<path d="M343.151 107.772C343.018 107.865 342.841 107.865 342.708 107.772L143.161 -31.5571C142.941 -31.7109 142.941 -32.0371 143.161 -32.1909C143.294 -32.2837 143.471 -32.2837 143.604 -32.1909L343.151 107.138C343.371 107.292 343.371 107.618 343.151 107.772Z" fill="#FF974C" fill-opacity="0.5"/>
<path d="M344.759 114.812C344.626 114.905 344.449 114.905 344.316 114.812L144.769 -24.5165C144.549 -24.6703 144.549 -24.9965 144.769 -25.1503C144.902 -25.2431 145.079 -25.2431 145.212 -25.1503L344.759 114.179C344.979 114.332 344.979 114.659 344.759 114.812Z" fill="#FF974C" fill-opacity="0.5"/>
<path d="M340.382 117.142C340.249 117.234 340.072 117.234 339.939 117.142L140.392 -22.1873C140.172 -22.3411 140.172 -22.6672 140.392 -22.8211C140.525 -22.9139 140.702 -22.9139 140.835 -22.8211L340.382 116.508C340.602 116.662 340.602 116.988 340.382 117.142Z" fill="#FF974C" fill-opacity="0.5"/>
<path d="M336.01 119.471C335.877 119.564 335.7 119.564 335.567 119.471L136.02 -19.858C135.8 -20.0118 135.8 -20.338 136.02 -20.4918C136.153 -20.5846 136.33 -20.5846 136.462 -20.4918L336.01 118.837C336.23 118.991 336.23 119.317 336.01 119.471Z" fill="#FF974C" fill-opacity="0.5"/>
<path d="M331.641 121.802C331.508 121.894 331.331 121.894 331.198 121.802L131.651 -17.5272C131.431 -17.681 131.431 -18.0071 131.651 -18.161C131.784 -18.2538 131.961 -18.2538 132.094 -18.161L331.641 121.168C331.861 121.322 331.861 121.648 331.641 121.802Z" fill="#FF974C" fill-opacity="0.5"/>
<path d="M327.268 124.131C327.135 124.224 326.959 124.224 326.826 124.131L127.279 -15.1979C127.058 -15.3518 127.058 -15.6779 127.279 -15.8317C127.411 -15.9245 127.588 -15.9245 127.721 -15.8317L327.268 123.497C327.489 123.651 327.489 123.977 327.268 124.131Z" fill="#FF974C" fill-opacity="0.5"/>
<path d="M322.887 126.46C322.754 126.553 322.577 126.553 322.444 126.46L122.897 -12.8687C122.676 -13.0225 122.676 -13.3487 122.897 -13.5025C123.03 -13.5953 123.206 -13.5953 123.339 -13.5025L322.887 125.826C323.107 125.98 323.107 126.306 322.887 126.46Z" fill="#FF974C" fill-opacity="0.5"/>
<path d="M318.518 128.793C318.386 128.885 318.209 128.885 318.076 128.793L118.529 -10.5363C118.308 -10.6901 118.308 -11.0162 118.529 -11.1701C118.662 -11.2629 118.838 -11.2629 118.971 -11.1701L318.518 128.159C318.739 128.313 318.739 128.639 318.518 128.793Z" fill="#FF974C" fill-opacity="0.5"/>
<path d="M314.146 131.122C314.013 131.215 313.836 131.215 313.703 131.122L114.156 -8.20703C113.936 -8.36086 113.936 -8.687 114.156 -8.84083C114.289 -8.93363 114.466 -8.93363 114.599 -8.84083L314.146 130.488C314.366 130.642 314.366 130.968 314.146 131.122Z" fill="#FF974C" fill-opacity="0.5"/>
<path d="M309.769 133.452C309.636 133.545 309.459 133.545 309.326 133.452L109.779 -5.87699C109.559 -6.03082 109.559 -6.35696 109.779 -6.5108C109.912 -6.6036 110.088 -6.6036 110.221 -6.5108L309.769 132.818C309.989 132.972 309.989 133.298 309.769 133.452Z" fill="#FF974C" fill-opacity="0.5"/>
<path d="M305.396 135.781C305.263 135.874 305.086 135.874 304.953 135.781L105.406 -3.54774C105.186 -3.70158 105.186 -4.02772 105.406 -4.18155C105.539 -4.27435 105.716 -4.27435 105.849 -4.18155L305.396 135.147C305.616 135.301 305.616 135.627 305.396 135.781Z" fill="#FF974C" fill-opacity="0.5"/>
<path d="M307.004 142.819C306.871 142.912 306.694 142.912 306.562 142.819L107.014 3.49041C106.794 3.33658 106.794 3.01044 107.014 2.85661C107.147 2.7638 107.324 2.7638 107.457 2.85661L307.004 142.185C307.224 142.339 307.224 142.665 307.004 142.819Z" fill="#FF974C" fill-opacity="0.5"/>
<path d="M302.627 145.149C302.494 145.241 302.317 145.241 302.184 145.149L102.637 5.81966C102.417 5.66583 102.417 5.33969 102.637 5.18586C102.77 5.09306 102.947 5.09306 103.08 5.18586L302.627 144.515C302.847 144.669 302.847 144.995 302.627 145.149Z" fill="#FF974C" fill-opacity="0.5"/>
<path d="M298.255 147.478C298.122 147.571 297.945 147.571 297.812 147.478L98.265 8.14893C98.0447 7.9951 98.0447 7.66896 98.265 7.51514C98.3979 7.42233 98.5747 7.42233 98.7076 7.51514L298.255 146.844C298.475 146.998 298.475 147.324 298.255 147.478Z" fill="#FF974C" fill-opacity="0.5"/>
<path d="M293.886 149.809C293.753 149.901 293.576 149.901 293.444 149.809L93.8963 10.4797C93.676 10.3259 93.676 9.99976 93.8963 9.84593C94.0292 9.75313 94.2059 9.75313 94.3388 9.84593L293.886 149.175C294.106 149.329 294.106 149.655 293.886 149.809Z" fill="#FF974C" fill-opacity="0.5"/>
<path d="M289.513 152.138C289.381 152.231 289.204 152.231 289.071 152.138L89.5236 12.809C89.3033 12.6552 89.3033 12.329 89.5236 12.1752C89.6566 12.0824 89.8333 12.0824 89.9662 12.1752L289.513 151.504C289.734 151.658 289.734 151.984 289.513 152.138Z" fill="#FF974C" fill-opacity="0.5"/>
<path d="M285.132 154.467C284.999 154.56 284.822 154.56 284.689 154.467L85.142 15.1382C84.9216 14.9844 84.9216 14.6583 85.142 14.5044C85.2749 14.4116 85.4516 14.4116 85.5845 14.5044L285.132 153.833C285.352 153.987 285.352 154.313 285.132 154.467Z" fill="#FF974C" fill-opacity="0.5"/>
<path d="M280.764 156.799C280.631 156.892 280.454 156.892 280.321 156.799L80.7738 17.4706C80.5535 17.3168 80.5535 16.9907 80.7738 16.8368C80.9067 16.744 81.0834 16.744 81.2163 16.8368L280.764 156.166C280.984 156.32 280.984 156.646 280.764 156.799Z" fill="#FF974C" fill-opacity="0.5"/>
<path d="M251.768 180.147C251.635 180.24 251.458 180.24 251.325 180.147L19.6011 18.3517C19.3807 18.1979 19.3808 17.8717 19.6011 17.7179C19.734 17.6251 19.9107 17.6251 20.0436 17.7179L251.768 179.513C251.988 179.667 251.988 179.993 251.768 180.147Z" fill="#FF974C" fill-opacity="0.5"/>
<path d="M276.391 159.129C276.258 159.222 276.081 159.222 275.948 159.129L76.4011 19.7999C76.1808 19.6461 76.1808 19.3199 76.4011 19.1661C76.5341 19.0733 76.7108 19.0733 76.8437 19.1661L276.391 158.495C276.611 158.649 276.611 158.975 276.391 159.129Z" fill="#FF974C" fill-opacity="0.5"/>
<path d="M272.014 161.459C271.881 161.552 271.704 161.552 271.571 161.459L72.024 22.1299C71.8037 21.9761 71.8037 21.6499 72.024 21.4961C72.1569 21.4033 72.3336 21.4033 72.4665 21.4961L272.014 160.825C272.234 160.979 272.234 161.305 272.014 161.459Z" fill="#FF974C" fill-opacity="0.5"/>
<path d="M267.641 163.788C267.508 163.881 267.331 163.881 267.199 163.788L67.6513 24.4592C67.431 24.3053 67.431 23.9792 67.6513 23.8253C67.7843 23.7325 67.961 23.7325 68.0939 23.8253L267.641 163.154C267.861 163.308 267.861 163.634 267.641 163.788Z" fill="#FF974C" fill-opacity="0.5"/>
<path d="M256.121 226.797C255.988 226.889 255.812 226.889 255.679 226.797L-26.2814 29.925C-26.5017 29.7712 -26.5017 29.4451 -26.2814 29.2912C-26.1485 29.1984 -25.9718 29.1984 -25.8389 29.2912L256.121 226.163C256.342 226.317 256.342 226.643 256.121 226.797Z" fill="#FF974C" fill-opacity="0.5"/>
<path d="M262.513 198.421C262.38 198.513 262.203 198.513 262.07 198.421L20.7501 29.925C20.5298 29.7712 20.5298 29.4451 20.7501 29.2912C20.8831 29.1984 21.0598 29.1984 21.1927 29.2912L262.513 197.787C262.733 197.941 262.733 198.267 262.513 198.421Z" fill="#FF974C" fill-opacity="0.5"/>
<path d="M256.14 177.818C256.007 177.911 255.831 177.911 255.698 177.818L44.6202 30.4384C44.3999 30.2845 44.3999 29.9584 44.6202 29.8046C44.7531 29.7117 44.9298 29.7117 45.0627 29.8046L256.14 177.184C256.361 177.338 256.361 177.664 256.14 177.818Z" fill="#FF974C" fill-opacity="0.5"/>
<path d="M257.629 189.629C257.496 189.721 257.32 189.721 257.187 189.629L30.0857 31.061C29.8654 30.9072 29.8654 30.581 30.0857 30.4272C30.2186 30.3344 30.3953 30.3344 30.5282 30.4272L257.629 188.995C257.85 189.149 257.85 189.475 257.629 189.629Z" fill="#FF974C" fill-opacity="0.5"/>
<path d="M263.014 209.538C262.881 209.631 262.704 209.631 262.571 209.538L7.58265 31.499C7.36233 31.3452 7.36233 31.019 7.58265 30.8652C7.71556 30.7724 7.89227 30.7724 8.02518 30.8652L263.014 208.905C263.234 209.059 263.234 209.385 263.014 209.538Z" fill="#FF974C" fill-opacity="0.5"/>
<path d="M269.263 170.828C269.13 170.921 268.953 170.921 268.82 170.828L58.7384 24.1435C58.5181 23.9897 58.5181 23.6635 58.7384 23.5097C58.8714 23.4169 59.0481 23.4169 59.181 23.5097L269.263 170.194C269.483 170.348 269.483 170.674 269.263 170.828Z" fill="#FF974C" fill-opacity="0.5"/>
<path d="M253.514 197.52C253.381 197.613 253.205 197.613 253.072 197.52L18.3912 33.6603C18.1709 33.5065 18.1709 33.1803 18.3912 33.0265C18.5241 32.9337 18.7008 32.9337 18.8337 33.0265L253.514 196.886C253.735 197.04 253.735 197.366 253.514 197.52Z" fill="#FF974C" fill-opacity="0.5"/>
<path d="M264.881 173.158C264.748 173.251 264.572 173.251 264.439 173.158L54.3568 26.4736C54.1364 26.3197 54.1364 25.9936 54.3568 25.8398C54.4897 25.7469 54.6664 25.7469 54.7993 25.8398L264.881 172.524C265.101 172.678 265.101 173.004 264.881 173.158Z" fill="#FF974C" fill-opacity="0.5"/>
<path d="M255.868 221.238C255.735 221.33 255.558 221.33 255.425 221.238L-9.646 36.1583C-9.86632 36.0045 -9.86632 35.6783 -9.646 35.5245C-9.51308 35.4317 -9.33638 35.4317 -9.20346 35.5245L255.868 220.604C256.088 220.758 256.088 221.084 255.868 221.238Z" fill="#FF974C" fill-opacity="0.5"/>
<path d="M260.508 175.487C260.376 175.58 260.199 175.58 260.066 175.487L45.973 26.0022C45.7527 25.8483 45.7527 25.5222 45.973 25.3683C46.1059 25.2755 46.2826 25.2755 46.4155 25.3683L260.508 174.853C260.729 175.007 260.729 175.333 260.508 175.487Z" fill="#FF974C" fill-opacity="0.5"/>
<path d="M253.306 214.064C253.174 214.157 252.997 214.157 252.864 214.064L-1.25918 36.6287C-1.4795 36.4749 -1.4795 36.1487 -1.25918 35.9949C-1.12626 35.9021 -0.949562 35.9021 -0.81665 35.9949L253.306 213.43C253.527 213.584 253.527 213.91 253.306 214.064Z" fill="#FF974C" fill-opacity="0.5"/>
<path d="M257.606 210.892C257.473 210.985 257.297 210.985 257.164 210.892L7.58265 36.6287C7.36233 36.4749 7.36233 36.1487 7.58265 35.9949C7.71556 35.9021 7.89227 35.9021 8.02519 35.9949L257.606 210.259C257.827 210.412 257.827 210.739 257.606 210.892Z" fill="#FF974C" fill-opacity="0.5"/>
<path d="M249.44 227.512C249.307 227.605 249.13 227.605 248.997 227.512L-23.7363 37.0832C-23.9566 36.9294 -23.9566 36.6032 -23.7363 36.4494C-23.6034 36.3566 -23.4267 36.3566 -23.2938 36.4494L249.44 226.879C249.66 227.033 249.66 227.359 249.44 227.512Z" fill="#FF974C" fill-opacity="0.5"/>
<path d="M247.38 231.457C247.247 231.549 247.07 231.549 246.937 231.457L14.0185 68.827C13.7982 68.6731 13.7982 68.347 14.0185 68.1931C14.1514 68.1003 14.3282 68.1003 14.4611 68.1931L247.38 230.823C247.6 230.977 247.6 231.303 247.38 231.457Z" fill="#FF974C" fill-opacity="0.5"/>
<path d="M236.317 234.503C236.184 234.596 236.008 234.596 235.875 234.503L5.26869 73.4886C5.04837 73.3347 5.04837 73.0086 5.26869 72.8548C5.40161 72.762 5.57832 72.762 5.71123 72.8548L236.317 233.87C236.538 234.023 236.538 234.35 236.317 234.503Z" fill="#FF974C" fill-opacity="0.5"/>
<path d="M262.011 257.826C261.878 257.919 261.701 257.919 261.569 257.826L0.89603 75.8179C0.675713 75.664 0.675716 75.3379 0.896034 75.1841C1.02895 75.0912 1.20565 75.0912 1.33857 75.1841L262.011 257.192C262.231 257.346 262.231 257.672 262.011 257.826Z" fill="#FF974C" fill-opacity="0.5"/>
<path d="M225.255 237.548C225.122 237.641 224.945 237.641 224.812 237.548L-3.48115 78.1479C-3.70147 77.994 -3.70146 77.6679 -3.48114 77.5141C-3.34822 77.4213 -3.17152 77.4213 -3.0386 77.5141L225.255 236.914C225.475 237.068 225.475 237.394 225.255 237.548Z" fill="#FF974C" fill-opacity="0.5"/>
<path d="M225.508 243.107C225.375 243.2 225.198 243.2 225.065 243.107L-7.85379 80.4771C-8.0741 80.3233 -8.0741 79.9971 -7.85378 79.8433C-7.72087 79.7505 -7.54416 79.7505 -7.41124 79.8433L225.508 242.473C225.728 242.627 225.728 242.953 225.508 243.107Z" fill="#FF974C" fill-opacity="0.5"/>
<path d="M227.116 250.147C226.983 250.24 226.806 250.24 226.673 250.147L-6.24568 87.5172C-6.466 87.3634 -6.466 87.0373 -6.24568 86.8834C-6.11276 86.7906 -5.93605 86.7906 -5.80314 86.8834L227.116 249.513C227.336 249.667 227.336 249.993 227.116 250.147Z" fill="#FF974C" fill-opacity="0.5"/>
<path d="M247.624 237.016C247.491 237.108 247.314 237.108 247.181 237.016L33.0692 87.5172C32.8489 87.3634 32.8489 87.0373 33.0692 86.8834C33.2021 86.7906 33.3788 86.7906 33.5117 86.8834L247.624 236.382C247.844 236.536 247.844 236.862 247.624 237.016Z" fill="#FF974C" fill-opacity="0.5"/>
<path d="M204.236 239.557C204.103 239.65 203.926 239.65 203.793 239.557L-10.6229 89.8465C-10.8432 89.6927 -10.8432 89.3665 -10.6229 89.2127C-10.4899 89.1199 -10.3132 89.1199 -10.1803 89.2127L204.236 238.923C204.456 239.077 204.456 239.403 204.236 239.557Z" fill="#FF974C" fill-opacity="0.5"/>
<path d="M180.626 233.836C180.493 233.928 180.316 233.928 180.183 233.836L-19.3642 94.5067C-19.5845 94.3529 -19.5845 94.0268 -19.3642 93.8729C-19.2313 93.7801 -19.0546 93.7801 -18.9216 93.8729L180.626 233.202C180.846 233.356 180.846 233.682 180.626 233.836Z" fill="#FF974C" fill-opacity="0.5"/>
<path d="M176.253 236.165C176.121 236.257 175.944 236.257 175.811 236.165L-23.7363 96.8358C-23.9566 96.682 -23.9566 96.3558 -23.7363 96.202C-23.6034 96.1092 -23.4267 96.1092 -23.2938 96.202L176.253 235.531C176.474 235.685 176.474 236.011 176.253 236.165Z" fill="#FF974C" fill-opacity="0.5"/>
<path d="M171.872 238.494C171.739 238.587 171.562 238.587 171.429 238.494L-28.118 99.1651C-28.3383 99.0112 -28.3383 98.6851 -28.118 98.5312C-27.9851 98.4384 -27.8084 98.4384 -27.6755 98.5312L171.872 237.86C172.092 238.014 172.092 238.34 171.872 238.494Z" fill="#FF974C" fill-opacity="0.5"/>
<path d="M167.504 240.826C167.371 240.919 167.194 240.919 167.061 240.826L-32.4863 101.497C-32.7066 101.343 -32.7066 101.017 -32.4863 100.863C-32.3534 100.771 -32.1767 100.771 -32.0437 100.863L167.504 240.192C167.724 240.346 167.724 240.672 167.504 240.826Z" fill="#FF974C" fill-opacity="0.5"/>
<path d="M163.131 243.156C162.998 243.248 162.821 243.248 162.688 243.156L-36.8588 103.827C-37.0791 103.673 -37.0791 103.347 -36.8588 103.193C-36.7259 103.1 -36.5492 103.1 -36.4163 103.193L163.131 242.522C163.351 242.676 163.351 243.002 163.131 243.156Z" fill="#FF974C" fill-opacity="0.5"/>
<path d="M204.409 244.808C204.276 244.901 204.099 244.901 203.966 244.808L4.41926 105.479C4.19894 105.326 4.19894 104.999 4.41926 104.846C4.55217 104.753 4.72888 104.753 4.8618 104.846L204.409 244.175C204.629 244.328 204.629 244.655 204.409 244.808Z" fill="#FF974C" fill-opacity="0.5"/>
<path d="M158.754 245.486C158.621 245.578 158.444 245.578 158.311 245.486L-41.236 106.157C-41.4563 106.003 -41.4563 105.677 -41.236 105.523C-41.1031 105.43 -40.9264 105.43 -40.7934 105.523L158.754 244.852C158.974 245.006 158.974 245.332 158.754 245.486Z" fill="#FF974C" fill-opacity="0.5"/>
<path d="M154.381 247.815C154.248 247.908 154.072 247.908 153.939 247.815L-45.6086 108.486C-45.8289 108.332 -45.8289 108.006 -45.6086 107.852C-45.4757 107.759 -45.299 107.759 -45.1661 107.852L154.381 247.181C154.601 247.335 154.601 247.661 154.381 247.815Z" fill="#FF974C" fill-opacity="0.5"/>
<rect x="16" y="70" width="129.853" height="4" rx="2" fill="#D9D9D9"/>
<rect x="16" y="70" width="129.853" height="4" rx="2" fill="url(#paint0_linear_4333_33356)"/>
<path fill-rule="evenodd" clip-rule="evenodd" d="M149.995 66.6894C149.995 63.8495 149.017 61.6606 147.503 60.1854C146 58.7203 144.009 58 142.036 58C140.064 58 138.073 58.7203 136.57 60.1854C135.055 61.6606 134.078 63.8495 134.078 66.6894C134.078 70.3716 136.069 73.4604 137.946 75.5647L137.99 75.6142C138.608 76.3067 139.148 76.9125 139.747 77.3277C140.403 77.7829 141.108 78 142.037 78C142.965 78 143.67 77.7829 144.326 77.3276C144.925 76.9124 145.465 76.3066 146.083 75.614L146.127 75.5646C148.004 73.4603 149.995 70.3715 149.995 66.6894ZM144.76 66.5446C144.76 68.163 143.54 69.475 142.037 69.475C140.533 69.475 139.314 68.163 139.314 66.5446C139.314 64.9262 140.533 63.6143 142.037 63.6143C143.54 63.6143 144.76 64.9262 144.76 66.5446Z" fill="#0F1217"/>
</g>
<path fill-rule="evenodd" clip-rule="evenodd" d="M145.002 67.2137C145.002 65.5097 144.388 64.1964 143.436 63.3112C142.492 62.4322 141.241 62 140.001 62C138.761 62 137.51 62.4322 136.566 63.3112C135.614 64.1964 135 65.5097 135 67.2137C135 69.423 136.251 71.2763 137.431 72.5388L137.458 72.5685C137.847 72.984 138.186 73.3475 138.562 73.5966C138.975 73.8698 139.418 74 140.001 74C140.585 74 141.028 73.8697 141.44 73.5966C141.816 73.3474 142.156 72.9839 142.544 72.5684L142.572 72.5387C143.751 71.2762 145.002 69.4229 145.002 67.2137ZM141.712 67.1268C141.712 68.0978 140.946 68.885 140.001 68.885C139.056 68.885 138.29 68.0978 138.29 67.1268C138.29 66.1557 139.056 65.3686 140.001 65.3686C140.946 65.3686 141.712 66.1557 141.712 67.1268Z" fill="#F2F2F2"/>
<path opacity="0.5" d="M30.3156 28.9977C30.3156 32.5323 27.4502 35.3977 23.9156 35.3977C20.381 35.3977 17.5156 32.5323 17.5156 28.9977C17.5156 25.463 20.381 22.5977 23.9156 22.5977C27.4502 22.5977 30.3156 25.463 30.3156 28.9977ZM18.7956 28.9977C18.7956 31.8254 21.0879 34.1177 23.9156 34.1177C26.7433 34.1177 29.0356 31.8254 29.0356 28.9977C29.0356 26.17 26.7433 23.8777 23.9156 23.8777C21.0879 23.8777 18.7956 26.17 18.7956 28.9977Z" fill="#195AF4"/>
<path d="M23.9156 23.2377C23.9156 22.8842 24.2029 22.5943 24.5546 22.6296C25.469 22.7214 26.3555 23.0093 27.1526 23.4766C28.1343 24.0522 28.9447 24.879 29.5005 25.872C30.0562 26.8651 30.3372 27.9883 30.3143 29.126C30.2915 30.2637 29.9658 31.3748 29.3706 32.3447C28.7755 33.3146 27.9326 34.1083 26.9286 34.6441C25.9246 35.1798 24.796 35.4381 23.659 35.3925C22.5219 35.3469 21.4176 34.9989 20.4598 34.3845C19.6821 33.8855 19.0239 33.2256 18.5279 32.4519C18.3371 32.1544 18.4654 31.767 18.7805 31.6069C19.0956 31.4468 19.4777 31.5753 19.6758 31.868C20.0637 32.4409 20.565 32.9311 21.151 33.3071C21.9172 33.7987 22.8007 34.077 23.7103 34.1135C24.6199 34.15 25.5228 33.9434 26.326 33.5148C27.1292 33.0862 27.8035 32.4512 28.2796 31.6753C28.7557 30.8994 29.0163 30.0105 29.0346 29.1003C29.0529 28.1902 28.8281 27.2916 28.3835 26.4972C27.9389 25.7028 27.2905 25.0413 26.5052 24.5808C25.9046 24.2287 25.2404 24.0039 24.554 23.9176C24.2033 23.8735 23.9156 23.5911 23.9156 23.2377Z" fill="#195AF4"/>
<path d="M47.8506 27.6172V28.8804H42.9438V27.6172H47.8506ZM43.3374 23.7578V33H41.7441V23.7578H43.3374ZM49.0757 23.7578V33H47.4888V23.7578H49.0757ZM50.5293 29.6421V29.4961C50.5293 29.001 50.6012 28.5418 50.7451 28.1187C50.889 27.6912 51.0964 27.321 51.3672 27.0078C51.6423 26.6904 51.9766 26.445 52.3701 26.2715C52.7679 26.0938 53.2165 26.0049 53.7158 26.0049C54.2194 26.0049 54.668 26.0938 55.0615 26.2715C55.4593 26.445 55.7957 26.6904 56.0708 27.0078C56.3459 27.321 56.5553 27.6912 56.6992 28.1187C56.8431 28.5418 56.915 29.001 56.915 29.4961V29.6421C56.915 30.1372 56.8431 30.5964 56.6992 31.0195C56.5553 31.4427 56.3459 31.813 56.0708 32.1304C55.7957 32.4435 55.4614 32.689 55.0679 32.8667C54.6743 33.0402 54.2279 33.127 53.7285 33.127C53.2249 33.127 52.7743 33.0402 52.3765 32.8667C51.9829 32.689 51.6486 32.4435 51.3735 32.1304C51.0985 31.813 50.889 31.4427 50.7451 31.0195C50.6012 30.5964 50.5293 30.1372 50.5293 29.6421ZM52.0591 29.4961V29.6421C52.0591 29.951 52.0908 30.243 52.1543 30.5181C52.2178 30.7931 52.3172 31.0343 52.4526 31.2417C52.5881 31.4491 52.7616 31.612 52.9731 31.7305C53.1847 31.849 53.4365 31.9082 53.7285 31.9082C54.012 31.9082 54.2575 31.849 54.4648 31.7305C54.6764 31.612 54.8499 31.4491 54.9854 31.2417C55.1208 31.0343 55.2202 30.7931 55.2837 30.5181C55.3514 30.243 55.3853 29.951 55.3853 29.6421V29.4961C55.3853 29.1914 55.3514 28.9036 55.2837 28.6328C55.2202 28.3577 55.1187 28.1144 54.979 27.9028C54.8436 27.6912 54.6701 27.5262 54.4585 27.4077C54.2511 27.285 54.0036 27.2236 53.7158 27.2236C53.4281 27.2236 53.1784 27.285 52.9668 27.4077C52.7594 27.5262 52.5881 27.6912 52.4526 27.9028C52.3172 28.1144 52.2178 28.3577 52.1543 28.6328C52.0908 28.9036 52.0591 29.1914 52.0591 29.4961ZM61.5361 30.061H59.3398L59.3271 28.9819H61.1299C61.4261 28.9819 61.6694 28.9523 61.8599 28.8931C62.0545 28.8338 62.1984 28.745 62.2915 28.6265C62.3846 28.5037 62.4312 28.3556 62.4312 28.1821C62.4312 28.0382 62.4036 27.9134 62.3486 27.8076C62.2936 27.6976 62.209 27.6087 62.0947 27.541C61.9847 27.4691 61.8451 27.4183 61.6758 27.3887C61.5107 27.3548 61.3182 27.3379 61.0981 27.3379H59.8477V33H58.3179V26.1318H61.0981C61.5382 26.1318 61.9339 26.1699 62.2852 26.2461C62.6406 26.3223 62.9432 26.4386 63.1929 26.5952C63.4425 26.7518 63.633 26.9507 63.7642 27.1919C63.8996 27.4289 63.9673 27.7082 63.9673 28.0298C63.9673 28.2414 63.9207 28.4403 63.8276 28.6265C63.7388 28.8127 63.6055 28.9777 63.4277 29.1216C63.25 29.2655 63.0321 29.384 62.7739 29.4771C62.5158 29.5659 62.2196 29.6209 61.8853 29.6421L61.5361 30.061ZM61.5361 33H58.8955L59.5049 31.7939H61.5361C61.807 31.7939 62.0312 31.7601 62.209 31.6924C62.3867 31.6247 62.5179 31.5273 62.6025 31.4004C62.6914 31.2692 62.7358 31.1147 62.7358 30.937C62.7358 30.755 62.6935 30.5985 62.6089 30.4673C62.5243 30.3361 62.3931 30.2367 62.2153 30.1689C62.0418 30.097 61.8154 30.061 61.5361 30.061H59.7905L59.8032 28.9819H61.8789L62.3169 29.4009C62.7528 29.4305 63.1146 29.5236 63.4023 29.6802C63.6901 29.8368 63.9059 30.0335 64.0498 30.2705C64.1937 30.5075 64.2656 30.7656 64.2656 31.0449C64.2656 31.3665 64.2043 31.6501 64.0815 31.8955C63.9631 32.141 63.7853 32.3462 63.5483 32.5112C63.3156 32.672 63.0299 32.7948 62.6914 32.8794C62.3529 32.9598 61.9678 33 61.5361 33ZM66.7222 28.3154H68.7471C69.3395 28.3154 69.8431 28.4149 70.2578 28.6138C70.6725 28.8127 70.9878 29.0898 71.2036 29.4453C71.4237 29.7965 71.5337 30.1986 71.5337 30.6514C71.5337 30.9857 71.4723 31.2967 71.3496 31.5845C71.2269 31.868 71.0449 32.1156 70.8037 32.3271C70.5667 32.5387 70.2747 32.7038 69.9277 32.8223C69.585 32.9408 69.1914 33 68.7471 33H65.7065V26.1318H67.2427V31.7876H68.7471C69.0518 31.7876 69.2951 31.7347 69.4771 31.6289C69.659 31.5231 69.7902 31.3856 69.8706 31.2163C69.9552 31.047 69.9976 30.8672 69.9976 30.6768C69.9976 30.4821 69.9552 30.298 69.8706 30.1245C69.7902 29.951 69.659 29.8092 69.4771 29.6992C69.2951 29.5892 69.0518 29.5342 68.7471 29.5342H66.7222V28.3154ZM74.2378 26.1318V33H72.708V26.1318H74.2378ZM79.0747 33.127C78.5669 33.127 78.1077 33.0444 77.6973 32.8794C77.291 32.7101 76.944 32.4753 76.6562 32.1748C76.3727 31.8743 76.1548 31.521 76.0024 31.1147C75.8501 30.7085 75.7739 30.2705 75.7739 29.8008V29.5469C75.7739 29.0094 75.8522 28.5228 76.0088 28.0869C76.1654 27.651 76.3833 27.2786 76.6626 26.9697C76.9419 26.6566 77.272 26.4175 77.6528 26.2524C78.0337 26.0874 78.4463 26.0049 78.8906 26.0049C79.3815 26.0049 79.811 26.0874 80.1792 26.2524C80.5474 26.4175 80.8521 26.6502 81.0933 26.9507C81.3387 27.2469 81.5207 27.6003 81.6392 28.0107C81.7619 28.4212 81.8232 28.874 81.8232 29.3691V30.0229H76.5166V28.9248H80.3125V28.8042C80.304 28.5291 80.249 28.271 80.1475 28.0298C80.0501 27.7886 79.8999 27.5939 79.6968 27.4458C79.4937 27.2977 79.2228 27.2236 78.8843 27.2236C78.6304 27.2236 78.404 27.2786 78.2051 27.3887C78.0104 27.4945 77.8475 27.6489 77.7163 27.8521C77.5851 28.0552 77.4836 28.3006 77.4116 28.5884C77.3439 28.8719 77.3101 29.1914 77.3101 29.5469V29.8008C77.3101 30.1012 77.3503 30.3805 77.4307 30.6387C77.5153 30.8926 77.638 31.1147 77.7988 31.3052C77.9596 31.4956 78.1543 31.6458 78.3828 31.7559C78.6113 31.8617 78.8716 31.9146 79.1636 31.9146C79.5317 31.9146 79.8597 31.8405 80.1475 31.6924C80.4352 31.5443 80.6849 31.3348 80.8965 31.064L81.7026 31.8447C81.5545 32.0605 81.362 32.2679 81.125 32.4668C80.888 32.6615 80.5981 32.8201 80.2554 32.9429C79.9168 33.0656 79.5233 33.127 79.0747 33.127ZM88.2471 32.251L90.1133 26.1318H91.751L88.9961 34.0474C88.9326 34.2166 88.8501 34.4007 88.7485 34.5996C88.647 34.7985 88.5137 34.9868 88.3486 35.1646C88.1878 35.3465 87.9868 35.4925 87.7456 35.6025C87.5044 35.7168 87.2124 35.7739 86.8696 35.7739C86.7342 35.7739 86.603 35.7612 86.4761 35.7358C86.3534 35.7147 86.237 35.6914 86.127 35.666L86.1206 34.498C86.1629 34.5023 86.2137 34.5065 86.2729 34.5107C86.3364 34.515 86.3872 34.5171 86.4253 34.5171C86.6792 34.5171 86.8908 34.4854 87.0601 34.4219C87.2293 34.3626 87.3669 34.2653 87.4727 34.1299C87.5827 33.9945 87.6758 33.8125 87.752 33.584L88.2471 32.251ZM87.1934 26.1318L88.8247 31.2734L89.0977 32.8857L88.0376 33.1587L85.543 26.1318H87.1934ZM94.1631 27.4521V35.6406H92.6333V26.1318H94.0425L94.1631 27.4521ZM98.6382 29.5024V29.6357C98.6382 30.1351 98.5789 30.5985 98.4604 31.0259C98.3462 31.4491 98.1748 31.8193 97.9463 32.1367C97.722 32.4499 97.4448 32.6932 97.1147 32.8667C96.7847 33.0402 96.4038 33.127 95.9722 33.127C95.5448 33.127 95.1702 33.0487 94.8486 32.8921C94.5312 32.7313 94.2625 32.5049 94.0425 32.2129C93.8224 31.9209 93.6447 31.5781 93.5093 31.1846C93.3781 30.7868 93.285 30.3509 93.23 29.877V29.3628C93.285 28.8592 93.3781 28.4022 93.5093 27.9917C93.6447 27.5812 93.8224 27.2279 94.0425 26.9316C94.2625 26.6354 94.5312 26.4069 94.8486 26.2461C95.166 26.0853 95.5363 26.0049 95.9595 26.0049C96.3911 26.0049 96.7741 26.0895 97.1084 26.2588C97.4427 26.4238 97.7241 26.6608 97.9526 26.9697C98.1812 27.2744 98.3525 27.6426 98.4668 28.0742C98.5811 28.5016 98.6382 28.9777 98.6382 29.5024ZM97.1084 29.6357V29.5024C97.1084 29.1851 97.0788 28.891 97.0195 28.6201C96.9603 28.3451 96.8672 28.1038 96.7402 27.8965C96.6133 27.6891 96.4504 27.5283 96.2515 27.4141C96.0568 27.2956 95.8219 27.2363 95.5469 27.2363C95.276 27.2363 95.0433 27.2829 94.8486 27.376C94.654 27.4648 94.491 27.5897 94.3599 27.7505C94.2287 27.9113 94.1271 28.0996 94.0552 28.3154C93.9832 28.527 93.9325 28.7576 93.9028 29.0073V30.2388C93.9536 30.5435 94.0404 30.8228 94.1631 31.0767C94.2858 31.3306 94.4593 31.5337 94.6836 31.686C94.9121 31.8341 95.2041 31.9082 95.5596 31.9082C95.8346 31.9082 96.0695 31.849 96.2642 31.7305C96.4588 31.612 96.6175 31.4491 96.7402 31.2417C96.8672 31.0301 96.9603 30.7868 97.0195 30.5117C97.0788 30.2367 97.1084 29.9447 97.1084 29.6357ZM99.6475 29.6421V29.4961C99.6475 29.001 99.7194 28.5418 99.8633 28.1187C100.007 27.6912 100.215 27.321 100.485 27.0078C100.76 26.6904 101.095 26.445 101.488 26.2715C101.886 26.0938 102.335 26.0049 102.834 26.0049C103.338 26.0049 103.786 26.0938 104.18 26.2715C104.577 26.445 104.914 26.6904 105.189 27.0078C105.464 27.321 105.674 27.6912 105.817 28.1187C105.961 28.5418 106.033 29.001 106.033 29.4961V29.6421C106.033 30.1372 105.961 30.5964 105.817 31.0195C105.674 31.4427 105.464 31.813 105.189 32.1304C104.914 32.4435 104.58 32.689 104.186 32.8667C103.792 33.0402 103.346 33.127 102.847 33.127C102.343 33.127 101.892 33.0402 101.495 32.8667C101.101 32.689 100.767 32.4435 100.492 32.1304C100.217 31.813 100.007 31.4427 99.8633 31.0195C99.7194 30.5964 99.6475 30.1372 99.6475 29.6421ZM101.177 29.4961V29.6421C101.177 29.951 101.209 30.243 101.272 30.5181C101.336 30.7931 101.435 31.0343 101.571 31.2417C101.706 31.4491 101.88 31.612 102.091 31.7305C102.303 31.849 102.555 31.9082 102.847 31.9082C103.13 31.9082 103.376 31.849 103.583 31.7305C103.795 31.612 103.968 31.4491 104.104 31.2417C104.239 31.0343 104.338 30.7931 104.402 30.5181C104.47 30.243 104.503 29.951 104.503 29.6421V29.4961C104.503 29.1914 104.47 28.9036 104.402 28.6328C104.338 28.3577 104.237 28.1144 104.097 27.9028C103.962 27.6912 103.788 27.5262 103.577 27.4077C103.369 27.285 103.122 27.2236 102.834 27.2236C102.546 27.2236 102.297 27.285 102.085 27.4077C101.878 27.5262 101.706 27.6912 101.571 27.9028C101.435 28.1144 101.336 28.3577 101.272 28.6328C101.209 28.9036 101.177 29.1914 101.177 29.4961ZM108.966 26.1318V33H107.436V26.1318H108.966ZM113.447 26.1318L110.356 30.2642H108.61L108.407 28.8804H109.683L111.537 26.1318H113.447ZM111.657 33L109.588 30.0039L110.794 29.1343L113.669 33H111.657ZM116.082 30.7656L118.779 26.1318H120.309V33H118.779V28.3599L116.082 33H114.552V26.1318H116.082V30.7656Z" fill="#F2F2F2"/>
<path d="M185.383 25L185.383 74" stroke="#E57A2E" stroke-width="0.768002"/>
<circle cx="184.752" cy="28.752" r="10.752" fill="#0F1217"/>
<circle cx="184.755" cy="28.7512" r="9.68154" fill="#0F1217" stroke="#E56D17" stroke-width="0.931035"/>
<path d="M181.398 28.9588L183.493 31.0533L188.101 26.4453" stroke="#E56D17" stroke-width="1.58118" stroke-linecap="round" stroke-linejoin="round"/>
<defs>
<linearGradient id="paint0_linear_4333_33356" x1="16" y1="72" x2="145.853" y2="72" gradientUnits="userSpaceOnUse">
<stop stop-color="#FFF93E"/>
<stop offset="1" stop-color="#FF974C"/>
</linearGradient>
</defs>
</svg>
