<svg width="75" height="75" viewBox="0 0 75 75" fill="none" xmlns="http://www.w3.org/2000/svg">
<rect x="0.25" y="0.25" width="74.5" height="74.5" rx="7.75" fill="url(#paint0_linear_4375_42026)" fill-opacity="0.1"/>
<rect x="0.25" y="0.25" width="74.5" height="74.5" rx="7.75" stroke="url(#paint1_linear_4375_42026)" stroke-width="0.5"/>
<path d="M43.9213 26.1367C41.508 26.1367 39.348 27.3101 38.0013 29.1101C36.6546 27.3101 34.4946 26.1367 32.0813 26.1367C27.988 26.1367 24.668 29.4701 24.668 33.5901C24.668 35.1767 24.9213 36.6434 25.3613 38.0034C27.468 44.6701 33.9613 48.6567 37.1746 49.7501C37.628 49.9101 38.3746 49.9101 38.828 49.7501C42.0413 48.6567 48.5346 44.6701 50.6413 38.0034C51.0813 36.6434 51.3346 35.1767 51.3346 33.5901C51.3346 29.4701 48.0146 26.1367 43.9213 26.1367Z" fill="white"/>
<path d="M43.9213 26.1367C41.508 26.1367 39.348 27.3101 38.0013 29.1101C36.6546 27.3101 34.4946 26.1367 32.0813 26.1367C27.988 26.1367 24.668 29.4701 24.668 33.5901C24.668 35.1767 24.9213 36.6434 25.3613 38.0034C27.468 44.6701 33.9613 48.6567 37.1746 49.7501C37.628 49.9101 38.3746 49.9101 38.828 49.7501C42.0413 48.6567 48.5346 44.6701 50.6413 38.0034C51.0813 36.6434 51.3346 35.1767 51.3346 33.5901C51.3346 29.4701 48.0146 26.1367 43.9213 26.1367Z" fill="url(#paint2_linear_4375_42026)"/>
<path d="M47 0H75V17H55C50.5817 17 47 13.4183 47 9V0Z" fill="url(#paint3_linear_4375_42026)"/>
<path d="M60.3447 10.4922L65.4004 13.8105V12.0332L63.0791 10.5791L62.9453 10.4951L63.0781 10.4102L65.4004 8.92871V7.10449L60.3447 10.4922Z" fill="#F2F2F2" stroke="#FE4F3B" stroke-width="0.2"/>
<path d="M62.1553 7.57422L57.0996 10.8926V9.11523L59.4209 7.66113L59.5547 7.57715L59.4219 7.49219L57.0996 6.01074V4.18652L62.1553 7.57422Z" fill="#F2F2F2" stroke="#FE4F3B" stroke-width="0.2"/>
<defs>
<linearGradient id="paint0_linear_4375_42026" x1="-9.18367" y1="75" x2="77.0506" y2="87.5077" gradientUnits="userSpaceOnUse">
<stop stop-color="#FF20A2"/>
<stop offset="1" stop-color="#FF5B20"/>
</linearGradient>
<linearGradient id="paint1_linear_4375_42026" x1="-9.18367" y1="75" x2="77.0506" y2="87.5077" gradientUnits="userSpaceOnUse">
<stop stop-color="#FF20A2"/>
<stop offset="1" stop-color="#FF5B20"/>
</linearGradient>
<linearGradient id="paint2_linear_4375_42026" x1="21.4027" y1="49.8701" x2="51.8988" y2="54.84" gradientUnits="userSpaceOnUse">
<stop stop-color="#FF20A2"/>
<stop offset="1" stop-color="#FF5B20"/>
</linearGradient>
<linearGradient id="paint3_linear_4375_42026" x1="45.6452" y1="3" x2="69.1252" y2="16.0289" gradientUnits="userSpaceOnUse">
<stop stop-color="#FE405C"/>
<stop offset="1" stop-color="#FE5235"/>
</linearGradient>
</defs>
</svg>
