<svg width="16" height="16" viewBox="0 0 16 16" fill="none" xmlns="http://www.w3.org/2000/svg">
<path d="M10.9587 2.06641C9.75203 2.06641 8.67203 2.65307 7.9987 3.55307C7.32536 2.65307 6.24536 2.06641 5.0387 2.06641C2.99203 2.06641 1.33203 3.73307 1.33203 5.79307C1.33203 6.58641 1.4587 7.31974 1.6787 7.99974C2.73203 11.3331 5.9787 13.3264 7.58536 13.8731C7.81203 13.9531 8.18536 13.9531 8.41203 13.8731C10.0187 13.3264 13.2654 11.3331 14.3187 7.99974C14.5387 7.31974 14.6654 6.58641 14.6654 5.79307C14.6654 3.73307 13.0054 2.06641 10.9587 2.06641Z" fill="white"/>
<path d="M10.9587 2.06641C9.75203 2.06641 8.67203 2.65307 7.9987 3.55307C7.32536 2.65307 6.24536 2.06641 5.0387 2.06641C2.99203 2.06641 1.33203 3.73307 1.33203 5.79307C1.33203 6.58641 1.4587 7.31974 1.6787 7.99974C2.73203 11.3331 5.9787 13.3264 7.58536 13.8731C7.81203 13.9531 8.18536 13.9531 8.41203 13.8731C10.0187 13.3264 13.2654 11.3331 14.3187 7.99974C14.5387 7.31974 14.6654 6.58641 14.6654 5.79307C14.6654 3.73307 13.0054 2.06641 10.9587 2.06641Z" fill="url(#paint0_linear_4375_41714)"/>
<defs>
<linearGradient id="paint0_linear_4375_41714" x1="-0.300622" y1="13.9331" x2="14.9475" y2="16.4181" gradientUnits="userSpaceOnUse">
<stop stop-color="#FF20A2"/>
<stop offset="1" stop-color="#FF5B20"/>
</linearGradient>
</defs>
</svg>
