<svg width="24" height="24" viewBox="0 0 24 24" fill="none" xmlns="http://www.w3.org/2000/svg">
<rect width="24" height="24" rx="12" fill="#01050D"/>
<path d="M11.554 6.43773C11.8918 6.32154 12.2638 6.34157 12.5902 6.49632L12.6839 6.5471C12.8939 6.67698 13.0518 6.88261 13.1937 7.11155C13.3589 7.37834 13.5409 7.74262 13.7679 8.19652L13.9476 8.55589L14.1107 8.87034C14.1479 8.936 14.1726 8.971 14.2005 9.00023L14.2952 9.08128C14.3291 9.1049 14.3655 9.12529 14.4036 9.14183L14.4661 9.16331C14.5388 9.18254 14.6534 9.19757 14.9075 9.22581L15.0706 9.24339C15.6151 9.30389 16.0495 9.35252 16.3773 9.41917C16.6967 9.48414 16.9951 9.57964 17.2034 9.79222L17.307 9.91234C17.5004 10.1616 17.603 10.4699 17.596 10.7854L17.5833 10.9436C17.5425 11.2384 17.3599 11.4932 17.1419 11.7356C17.0302 11.8597 16.8946 11.996 16.7366 12.1477L16.1966 12.6535L16.0247 12.8137C15.8007 13.0217 15.7015 13.1183 15.6478 13.1887L15.6058 13.2541C15.5726 13.3188 15.5505 13.3885 15.5413 13.4602L15.5364 13.5325C15.5355 13.6264 15.5675 13.7339 15.7044 14.1243C15.9096 14.7089 16.0725 15.1709 16.1644 15.5295C16.2416 15.831 16.2892 16.128 16.223 16.3938L16.1868 16.5061C16.0451 16.867 15.7588 17.1487 15.4017 17.2864L15.2445 17.3362C14.9401 17.4132 14.6133 17.3239 14.2855 17.1946C14.1153 17.1275 13.9221 17.0397 13.7034 16.9348L12.9671 16.5705L12.5491 16.3616C12.3385 16.2562 12.2421 16.211 12.1761 16.1887L12.1165 16.1731C12.0784 16.1659 12.0399 16.1623 12.0013 16.1623L11.8861 16.1731C11.8122 16.1869 11.735 16.2208 11.4534 16.3616L11.0355 16.5705C10.4897 16.8434 10.0575 17.0603 9.71711 17.1946C9.4302 17.3077 9.14429 17.3903 8.87336 17.3576L8.75813 17.3362C8.38218 17.2409 8.06656 16.9926 7.88508 16.6555L7.81574 16.5061C7.70067 16.2129 7.74992 15.8743 7.8382 15.5295C7.93005 15.1709 8.09302 14.7089 8.29816 14.1243C8.40096 13.8313 8.44437 13.6977 8.4593 13.6096L8.46613 13.5325C8.46535 13.4599 8.45138 13.3882 8.42609 13.3205L8.3968 13.2541C8.35384 13.1705 8.27692 13.0914 7.97785 12.8137L7.80598 12.6535C7.40466 12.2809 7.08429 11.9842 6.86066 11.7356C6.6699 11.5234 6.50683 11.3016 6.44172 11.052L6.41926 10.9436C6.36086 10.5218 6.50112 10.0963 6.79914 9.79222L6.88215 9.718C7.08304 9.55642 7.34595 9.47599 7.62531 9.41917C7.95307 9.35252 8.38743 9.30389 8.93195 9.24339L9.09504 9.22581C9.43427 9.18812 9.5249 9.17394 9.59895 9.14183L9.70734 9.08128C9.74144 9.05753 9.77322 9.03042 9.80207 9.00023L9.84406 8.94945C9.88727 8.88796 9.94034 8.78521 10.055 8.55589L10.2347 8.19652L10.5452 7.58421C10.6396 7.4032 10.7263 7.24492 10.8089 7.11155C10.9711 6.84982 11.1544 6.61868 11.4124 6.49632L11.554 6.43773Z" fill="#FEF360"/>
</svg>
