<svg width="482" height="256" viewBox="0 0 482 256" fill="none" xmlns="http://www.w3.org/2000/svg">
<rect width="482" height="256" rx="5" fill=""/>
<g clip-path="url(#clip0_1211_16970)">
<g style="" opacity="0.7">
<path d="M-181.807 -75.9565H-201.953V-55.8109M-181.807 -75.9565V-55.8109M-181.807 -75.9565H-161.662M-181.807 -55.8109H-201.953M-181.807 -55.8109V-35.6652M-181.807 -55.8109H-161.662M-201.953 -55.8109V-35.6652M-181.807 -35.6652H-201.953M-181.807 -35.6652V-15.5195M-181.807 -35.6652H-161.662M-201.953 -35.6652V-15.5195M-181.807 -15.5195H-201.953M-181.807 -15.5195V4.62616M-181.807 -15.5195H-161.662M-201.953 -15.5195V4.62616M-181.807 4.62616H-201.953M-181.807 4.62616V24.7718M-181.807 4.62616H-161.662M-201.953 4.62616V24.7718M-181.807 24.7718H-201.953M-181.807 24.7718V44.9175M-181.807 24.7718H-161.662M-201.953 24.7718V44.9175M-181.807 44.9175H-201.953M-181.807 44.9175V65.0632M-181.807 44.9175H-161.662M-201.953 44.9175V65.0632M-181.807 65.0632H-201.953M-181.807 65.0632V85.2089M-181.807 65.0632H-161.662M-201.953 65.0632V85.2089M-181.807 85.2089H-201.953M-181.807 85.2089V105.355M-181.807 85.2089H-161.662M-201.953 85.2089V105.355M-181.807 105.355H-201.953M-181.807 105.355V125.5M-181.807 105.355H-161.662M-201.953 105.355V125.5M-181.807 125.5H-201.953M-181.807 125.5V145.646M-181.807 125.5H-161.662M-201.953 125.5V145.646M-181.807 145.646H-201.953M-181.807 145.646V165.792M-181.807 145.646H-161.662M-201.953 145.646V165.792M-181.807 165.792H-201.953M-181.807 165.792V185.937M-181.807 165.792H-161.662M-201.953 165.792V185.937M-181.807 185.937H-201.953M-181.807 185.937V206.083M-181.807 185.937H-161.662M-201.953 185.937V206.083M-181.807 206.083H-201.953M-181.807 206.083V226.229M-181.807 206.083H-161.662M-201.953 206.083V226.229M-181.807 226.229H-201.953M-181.807 226.229V246.374M-181.807 226.229H-161.662M-201.953 226.229V246.374M-181.807 246.374H-201.953M-181.807 246.374V266.52M-181.807 246.374H-161.662M-201.953 246.374V266.52M-181.807 266.52H-201.953M-181.807 266.52V286.666M-181.807 266.52H-161.662M-201.953 266.52V286.666M-181.807 286.666H-201.953M-181.807 286.666V306.811M-181.807 286.666H-161.662M-201.953 286.666V306.811M-181.807 306.811H-201.953M-181.807 306.811V326.957M-181.807 306.811H-161.662M-201.953 306.811V326.957H-181.807M-181.807 326.957H-161.662M-161.662 -75.9565V-55.8109M-161.662 -75.9565H-141.516M-161.662 -55.8109V-35.6652M-161.662 -55.8109H-141.516M-161.662 -35.6652V-15.5195M-161.662 -35.6652H-141.516M-161.662 -15.5195V4.62616M-161.662 -15.5195H-141.516M-161.662 4.62616V24.7718M-161.662 4.62616H-141.516M-161.662 24.7718V44.9175M-161.662 24.7718H-141.516M-161.662 44.9175V65.0632M-161.662 44.9175H-141.516M-161.662 65.0632V85.2089M-161.662 65.0632H-141.516M-161.662 85.2089V105.355M-161.662 85.2089H-141.516M-161.662 105.355V125.5M-161.662 105.355H-141.516M-161.662 125.5V145.646M-161.662 125.5H-141.516M-161.662 145.646V165.792M-161.662 145.646H-141.516M-161.662 165.792V185.937M-161.662 165.792H-141.516M-161.662 185.937V206.083M-161.662 185.937H-141.516M-161.662 206.083V226.229M-161.662 206.083H-141.516M-161.662 226.229V246.374M-161.662 226.229H-141.516M-161.662 246.374V266.52M-161.662 246.374H-141.516M-161.662 266.52V286.666M-161.662 266.52H-141.516M-161.662 286.666V306.811M-161.662 286.666H-141.516M-161.662 306.811V326.957M-161.662 306.811H-141.516M-161.662 326.957H-141.516M-141.516 -75.9565V-55.8109M-141.516 -75.9565H-121.37M-141.516 -55.8109V-35.6652M-141.516 -55.8109H-121.37M-141.516 -35.6652V-15.5195M-141.516 -35.6652H-121.37M-141.516 -15.5195V4.62616M-141.516 -15.5195H-121.37M-141.516 4.62616V24.7718M-141.516 4.62616H-121.37M-141.516 24.7718V44.9175M-141.516 24.7718H-121.37M-141.516 44.9175V65.0632M-141.516 44.9175H-121.37M-141.516 65.0632V85.2089M-141.516 65.0632H-121.37M-141.516 85.2089V105.355M-141.516 85.2089H-121.37M-141.516 105.355V125.5M-141.516 105.355H-121.37M-141.516 125.5V145.646M-141.516 125.5H-121.37M-141.516 145.646V165.792M-141.516 145.646H-121.37M-141.516 165.792V185.937M-141.516 165.792H-121.37M-141.516 185.937V206.083M-141.516 185.937H-121.37M-141.516 206.083V226.229M-141.516 206.083H-121.37M-141.516 226.229V246.374M-141.516 226.229H-121.37M-141.516 246.374V266.52M-141.516 246.374H-121.37M-141.516 266.52V286.666M-141.516 266.52H-121.37M-141.516 286.666V306.811M-141.516 286.666H-121.37M-141.516 306.811V326.957M-141.516 306.811H-121.37M-141.516 326.957H-121.37M-121.37 -75.9565V-55.8109M-121.37 -75.9565H-101.225M-121.37 -55.8109V-35.6652M-121.37 -55.8109H-101.225M-121.37 -35.6652V-15.5195M-121.37 -35.6652H-101.225M-121.37 -15.5195V4.62616M-121.37 -15.5195H-101.225M-121.37 4.62616V24.7718M-121.37 4.62616H-101.225M-121.37 24.7718V44.9175M-121.37 24.7718H-101.225M-121.37 44.9175V65.0632M-121.37 44.9175H-101.225M-121.37 65.0632V85.2089M-121.37 65.0632H-101.225M-121.37 85.2089V105.355M-121.37 85.2089H-101.225M-121.37 105.355V125.5M-121.37 105.355H-101.225M-121.37 125.5V145.646M-121.37 125.5H-101.225M-121.37 145.646V165.792M-121.37 145.646H-101.225M-121.37 165.792V185.937M-121.37 165.792H-101.225M-121.37 185.937V206.083M-121.37 185.937H-101.225M-121.37 206.083V226.229M-121.37 206.083H-101.225M-121.37 226.229V246.374M-121.37 226.229H-101.225M-121.37 246.374V266.52M-121.37 246.374H-101.225M-121.37 266.52V286.666M-121.37 266.52H-101.225M-121.37 286.666V306.811M-121.37 286.666H-101.225M-121.37 306.811V326.957M-121.37 306.811H-101.225M-121.37 326.957H-101.225M-101.225 -75.9565V-55.8109M-101.225 -75.9565H-81.0791M-101.225 -55.8109V-35.6652M-101.225 -55.8109H-81.0791M-101.225 -35.6652V-15.5195M-101.225 -35.6652H-81.0791M-101.225 -15.5195V4.62616M-101.225 -15.5195H-81.0791M-101.225 4.62616V24.7718M-101.225 4.62616H-81.0791M-101.225 24.7718V44.9175M-101.225 24.7718H-81.0791M-101.225 44.9175V65.0632M-101.225 44.9175H-81.0791M-101.225 65.0632V85.2089M-101.225 65.0632H-81.0791M-101.225 85.2089V105.355M-101.225 85.2089H-81.0791M-101.225 105.355V125.5M-101.225 105.355H-81.0791M-101.225 125.5V145.646M-101.225 125.5H-81.0791M-101.225 145.646V165.792M-101.225 145.646H-81.0791M-101.225 165.792V185.937M-101.225 165.792H-81.0791M-101.225 185.937V206.083M-101.225 185.937H-81.0791M-101.225 206.083V226.229M-101.225 206.083H-81.0791M-101.225 226.229V246.374M-101.225 226.229H-81.0791M-101.225 246.374V266.52M-101.225 246.374H-81.0791M-101.225 266.52V286.666M-101.225 266.52H-81.0791M-101.225 286.666V306.811M-101.225 286.666H-81.0791M-101.225 306.811V326.957M-101.225 306.811H-81.0791M-101.225 326.957H-81.0791M-81.0791 -75.9565V-55.8109M-81.0791 -75.9565H-60.9334M-81.0791 -55.8109V-35.6652M-81.0791 -55.8109H-60.9334M-81.0791 -35.6652V-15.5195M-81.0791 -35.6652H-60.9334M-81.0791 -15.5195V4.62616M-81.0791 -15.5195H-60.9334M-81.0791 4.62616V24.7718M-81.0791 4.62616H-60.9334M-81.0791 24.7718V44.9175M-81.0791 24.7718H-60.9334M-81.0791 44.9175V65.0632M-81.0791 44.9175H-60.9334M-81.0791 65.0632V85.2089M-81.0791 65.0632H-60.9334M-81.0791 85.2089V105.355M-81.0791 85.2089H-60.9334M-81.0791 105.355V125.5M-81.0791 105.355H-60.9334M-81.0791 125.5V145.646M-81.0791 125.5H-60.9334M-81.0791 145.646V165.792M-81.0791 145.646H-60.9334M-81.0791 165.792V185.937M-81.0791 165.792H-60.9334M-81.0791 185.937V206.083M-81.0791 185.937H-60.9334M-81.0791 206.083V226.229M-81.0791 206.083H-60.9334M-81.0791 226.229V246.374M-81.0791 226.229H-60.9334M-81.0791 246.374V266.52M-81.0791 246.374H-60.9334M-81.0791 266.52V286.666M-81.0791 266.52H-60.9334M-81.0791 286.666V306.811M-81.0791 286.666H-60.9334M-81.0791 306.811V326.957M-81.0791 306.811H-60.9334M-81.0791 326.957H-60.9334M-60.9334 -75.9565V-55.8109M-60.9334 -75.9565H-40.7877M-60.9334 -55.8109V-35.6652M-60.9334 -55.8109H-40.7877M-60.9334 -35.6652V-15.5195M-60.9334 -35.6652H-40.7877M-60.9334 -15.5195V4.62616M-60.9334 -15.5195H-40.7877M-60.9334 4.62616V24.7718M-60.9334 4.62616H-40.7877M-60.9334 24.7718V44.9175M-60.9334 24.7718H-40.7877M-60.9334 44.9175V65.0632M-60.9334 44.9175H-40.7877M-60.9334 65.0632V85.2089M-60.9334 65.0632H-40.7877M-60.9334 85.2089V105.355M-60.9334 85.2089H-40.7877M-60.9334 105.355V125.5M-60.9334 105.355H-40.7877M-60.9334 125.5V145.646M-60.9334 125.5H-40.7877M-60.9334 145.646V165.792M-60.9334 145.646H-40.7877M-60.9334 165.792V185.937M-60.9334 165.792H-40.7877M-60.9334 185.937V206.083M-60.9334 185.937H-40.7877M-60.9334 206.083V226.229M-60.9334 206.083H-40.7877M-60.9334 226.229V246.374M-60.9334 226.229H-40.7877M-60.9334 246.374V266.52M-60.9334 246.374H-40.7877M-60.9334 266.52V286.666M-60.9334 266.52H-40.7877M-60.9334 286.666V306.811M-60.9334 286.666H-40.7877M-60.9334 306.811V326.957M-60.9334 306.811H-40.7877M-60.9334 326.957H-40.7877M-40.7877 -75.9565V-55.8109M-40.7877 -75.9565H-20.642M-40.7877 -55.8109V-35.6652M-40.7877 -55.8109H-20.642M-40.7877 -35.6652V-15.5195M-40.7877 -35.6652H-20.642M-40.7877 -15.5195V4.62616M-40.7877 -15.5195H-20.642M-40.7877 4.62616V24.7718M-40.7877 4.62616H-20.642M-40.7877 24.7718V44.9175M-40.7877 24.7718H-20.642M-40.7877 44.9175V65.0632M-40.7877 44.9175H-20.642M-40.7877 65.0632V85.2089M-40.7877 65.0632H-20.642M-40.7877 85.2089V105.355M-40.7877 85.2089H-20.642M-40.7877 105.355V125.5M-40.7877 105.355H-20.642M-40.7877 125.5V145.646M-40.7877 125.5H-20.642M-40.7877 145.646V165.792M-40.7877 145.646H-20.642M-40.7877 165.792V185.937M-40.7877 165.792H-20.642M-40.7877 185.937V206.083M-40.7877 185.937H-20.642M-40.7877 206.083V226.229M-40.7877 206.083H-20.642M-40.7877 226.229V246.374M-40.7877 226.229H-20.642M-40.7877 246.374V266.52M-40.7877 246.374H-20.642M-40.7877 266.52V286.666M-40.7877 266.52H-20.642M-40.7877 286.666V306.811M-40.7877 286.666H-20.642M-40.7877 306.811V326.957M-40.7877 306.811H-20.642M-40.7877 326.957H-20.642M-20.642 -75.9565V-55.8109M-20.642 -75.9565H-0.496328M-20.642 -55.8109V-35.6652M-20.642 -55.8109H-0.496328M-20.642 -35.6652V-15.5195M-20.642 -35.6652H-0.496328M-20.642 -15.5195V4.62616M-20.642 -15.5195H-0.496328M-20.642 4.62616V24.7718M-20.642 4.62616H-0.496328M-20.642 24.7718V44.9175M-20.642 24.7718H-0.496328M-20.642 44.9175V65.0632M-20.642 44.9175H-0.496328M-20.642 65.0632V85.2089M-20.642 65.0632H-0.496328M-20.642 85.2089V105.355M-20.642 85.2089H-0.496328M-20.642 105.355V125.5M-20.642 105.355H-0.496328M-20.642 125.5V145.646M-20.642 125.5H-0.496328M-20.642 145.646V165.792M-20.642 145.646H-0.496328M-20.642 165.792V185.937M-20.642 165.792H-0.496328M-20.642 185.937V206.083M-20.642 185.937H-0.496328M-20.642 206.083V226.229M-20.642 206.083H-0.496328M-20.642 226.229V246.374M-20.642 226.229H-0.496328M-20.642 246.374V266.52M-20.642 246.374H-0.496328M-20.642 266.52V286.666M-20.642 266.52H-0.496328M-20.642 286.666V306.811M-20.642 286.666H-0.496328M-20.642 306.811V326.957M-20.642 306.811H-0.496328M-20.642 326.957H-0.496328M-0.496328 -75.9565V-55.8109M-0.496328 -75.9565H19.6493M-0.496328 -55.8109V-35.6652M-0.496328 -55.8109H19.6493M-0.496328 -35.6652V-15.5195M-0.496328 -35.6652H19.6493M-0.496328 -15.5195V4.62616M-0.496328 -15.5195H19.6493M-0.496328 4.62616V24.7718M-0.496328 4.62616H19.6493M-0.496328 24.7718V44.9175M-0.496328 24.7718H19.6493M-0.496328 44.9175V65.0632M-0.496328 44.9175H19.6493M-0.496328 65.0632V85.2089M-0.496328 65.0632H19.6493M-0.496328 85.2089V105.355M-0.496328 85.2089H19.6493M-0.496328 105.355V125.5M-0.496328 105.355H19.6493M-0.496328 125.5V145.646M-0.496328 125.5H19.6493M-0.496328 145.646V165.792M-0.496328 145.646H19.6493M-0.496328 165.792V185.937M-0.496328 165.792H19.6493M-0.496328 185.937V206.083M-0.496328 185.937H19.6493M-0.496328 206.083V226.229M-0.496328 206.083H19.6493M-0.496328 226.229V246.374M-0.496328 226.229H19.6493M-0.496328 246.374V266.52M-0.496328 246.374H19.6493M-0.496328 266.52V286.666M-0.496328 266.52H19.6493M-0.496328 286.666V306.811M-0.496328 286.666H19.6493M-0.496328 306.811V326.957M-0.496328 306.811H19.6493M-0.496328 326.957H19.6493M19.6493 -75.9565V-55.8109M19.6493 -75.9565H39.795M19.6493 -55.8109V-35.6652M19.6493 -55.8109H39.795M19.6493 -35.6652V-15.5195M19.6493 -35.6652H39.795M19.6493 -15.5195V4.62616M19.6493 -15.5195H39.795M19.6493 4.62616V24.7718M19.6493 4.62616H39.795M19.6493 24.7718V44.9175M19.6493 24.7718H39.795M19.6493 44.9175V65.0632M19.6493 44.9175H39.795M19.6493 65.0632V85.2089M19.6493 65.0632H39.795M19.6493 85.2089V105.355M19.6493 85.2089H39.795M19.6493 105.355V125.5M19.6493 105.355H39.795M19.6493 125.5V145.646M19.6493 125.5H39.795M19.6493 145.646V165.792M19.6493 145.646H39.795M19.6493 165.792V185.937M19.6493 165.792H39.795M19.6493 185.937V206.083M19.6493 185.937H39.795M19.6493 206.083V226.229M19.6493 206.083H39.795M19.6493 226.229V246.374M19.6493 226.229H39.795M19.6493 246.374V266.52M19.6493 246.374H39.795M19.6493 266.52V286.666M19.6493 266.52H39.795M19.6493 286.666V306.811M19.6493 286.666H39.795M19.6493 306.811V326.957M19.6493 306.811H39.795M19.6493 326.957H39.795M39.795 -75.9565V-55.8109M39.795 -75.9565H59.9407M39.795 -55.8109V-35.6652M39.795 -55.8109H59.9407M39.795 -35.6652V-15.5195M39.795 -35.6652H59.9407M39.795 -15.5195V4.62616M39.795 -15.5195H59.9407M39.795 4.62616V24.7718M39.795 4.62616H59.9407M39.795 24.7718V44.9175M39.795 24.7718H59.9407M39.795 44.9175V65.0632M39.795 44.9175H59.9407M39.795 65.0632V85.2089M39.795 65.0632H59.9407M39.795 85.2089V105.355M39.795 85.2089H59.9407M39.795 105.355V125.5M39.795 105.355H59.9407M39.795 125.5V145.646M39.795 125.5H59.9407M39.795 145.646V165.792M39.795 145.646H59.9407M39.795 165.792V185.937M39.795 165.792H59.9407M39.795 185.937V206.083M39.795 185.937H59.9407M39.795 206.083V226.229M39.795 206.083H59.9407M39.795 226.229V246.374M39.795 226.229H59.9407M39.795 246.374V266.52M39.795 246.374H59.9407M39.795 266.52V286.666M39.795 266.52H59.9407M39.795 286.666V306.811M39.795 286.666H59.9407M39.795 306.811V326.957M39.795 306.811H59.9407M39.795 326.957H59.9407M59.9407 -75.9565V-55.8109M59.9407 -75.9565H80.0864M59.9407 -55.8109V-35.6652M59.9407 -55.8109H80.0864M59.9407 -35.6652V-15.5195M59.9407 -35.6652H80.0864M59.9407 -15.5195V4.62616M59.9407 -15.5195H80.0864M59.9407 4.62616V24.7718M59.9407 4.62616H80.0864M59.9407 24.7718V44.9175M59.9407 24.7718H80.0864M59.9407 44.9175V65.0632M59.9407 44.9175H80.0864M59.9407 65.0632V85.2089M59.9407 65.0632H80.0864M59.9407 85.2089V105.355M59.9407 85.2089H80.0864M59.9407 105.355V125.5M59.9407 105.355H80.0864M59.9407 125.5V145.646M59.9407 125.5H80.0864M59.9407 145.646V165.792M59.9407 145.646H80.0864M59.9407 165.792V185.937M59.9407 165.792H80.0864M59.9407 185.937V206.083M59.9407 185.937H80.0864M59.9407 206.083V226.229M59.9407 206.083H80.0864M59.9407 226.229V246.374M59.9407 226.229H80.0864M59.9407 246.374V266.52M59.9407 246.374H80.0864M59.9407 266.52V286.666M59.9407 266.52H80.0864M59.9407 286.666V306.811M59.9407 286.666H80.0864M59.9407 306.811V326.957M59.9407 306.811H80.0864M59.9407 326.957H80.0864M80.0864 -75.9565V-55.8109M80.0864 -75.9565H100.232M80.0864 -55.8109V-35.6652M80.0864 -55.8109H100.232M80.0864 -35.6652V-15.5195M80.0864 -35.6652H100.232M80.0864 -15.5195V4.62616M80.0864 -15.5195H100.232M80.0864 4.62616V24.7718M80.0864 4.62616H100.232M80.0864 24.7718V44.9175M80.0864 24.7718H100.232M80.0864 44.9175V65.0632M80.0864 44.9175H100.232M80.0864 65.0632V85.2089M80.0864 65.0632H100.232M80.0864 85.2089V105.355M80.0864 85.2089H100.232M80.0864 105.355V125.5M80.0864 105.355H100.232M80.0864 125.5V145.646M80.0864 125.5H100.232M80.0864 145.646V165.792M80.0864 145.646H100.232M80.0864 165.792V185.937M80.0864 165.792H100.232M80.0864 185.937V206.083M80.0864 185.937H100.232M80.0864 206.083V226.229M80.0864 206.083H100.232M80.0864 226.229V246.374M80.0864 226.229H100.232M80.0864 246.374V266.52M80.0864 246.374H100.232M80.0864 266.52V286.666M80.0864 266.52H100.232M80.0864 286.666V306.811M80.0864 286.666H100.232M80.0864 306.811V326.957M80.0864 306.811H100.232M80.0864 326.957H100.232M100.232 -75.9565V-55.8109M100.232 -75.9565H120.378M100.232 -55.8109V-35.6652M100.232 -55.8109H120.378M100.232 -35.6652V-15.5195M100.232 -35.6652H120.378M100.232 -15.5195V4.62616M100.232 -15.5195H120.378M100.232 4.62616V24.7718M100.232 4.62616H120.378M100.232 24.7718V44.9175M100.232 24.7718H120.378M100.232 44.9175V65.0632M100.232 44.9175H120.378M100.232 65.0632V85.2089M100.232 65.0632H120.378M100.232 85.2089V105.355M100.232 85.2089H120.378M100.232 105.355V125.5M100.232 105.355H120.378M100.232 125.5V145.646M100.232 125.5H120.378M100.232 145.646V165.792M100.232 145.646H120.378M100.232 165.792V185.937M100.232 165.792H120.378M100.232 185.937V206.083M100.232 185.937H120.378M100.232 206.083V226.229M100.232 206.083H120.378M100.232 226.229V246.374M100.232 226.229H120.378M100.232 246.374V266.52M100.232 246.374H120.378M100.232 266.52V286.666M100.232 266.52H120.378M100.232 286.666V306.811M100.232 286.666H120.378M100.232 306.811V326.957M100.232 306.811H120.378M100.232 326.957H120.378M120.378 -75.9565V-55.8109M120.378 -75.9565H140.523M120.378 -55.8109V-35.6652M120.378 -55.8109H140.523M120.378 -35.6652V-15.5195M120.378 -35.6652H140.523M120.378 -15.5195V4.62616M120.378 -15.5195H140.523M120.378 4.62616V24.7718M120.378 4.62616H140.523M120.378 24.7718V44.9175M120.378 24.7718H140.523M120.378 44.9175V65.0632M120.378 44.9175H140.523M120.378 65.0632V85.2089M120.378 65.0632H140.523M120.378 85.2089V105.355M120.378 85.2089H140.523M120.378 105.355V125.5M120.378 105.355H140.523M120.378 125.5V145.646M120.378 125.5H140.523M120.378 145.646V165.792M120.378 145.646H140.523M120.378 165.792V185.937M120.378 165.792H140.523M120.378 185.937V206.083M120.378 185.937H140.523M120.378 206.083V226.229M120.378 206.083H140.523M120.378 226.229V246.374M120.378 226.229H140.523M120.378 246.374V266.52M120.378 246.374H140.523M120.378 266.52V286.666M120.378 266.52H140.523M120.378 286.666V306.811M120.378 286.666H140.523M120.378 306.811V326.957M120.378 306.811H140.523M120.378 326.957H140.523M140.523 -75.9565V-55.8109M140.523 -75.9565H160.669M140.523 -55.8109V-35.6652M140.523 -55.8109H160.669M140.523 -35.6652V-15.5195M140.523 -35.6652H160.669M140.523 -15.5195V4.62616M140.523 -15.5195H160.669M140.523 4.62616V24.7718M140.523 4.62616H160.669M140.523 24.7718V44.9175M140.523 24.7718H160.669M140.523 44.9175V65.0632M140.523 44.9175H160.669M140.523 65.0632V85.2089M140.523 65.0632H160.669M140.523 85.2089V105.355M140.523 85.2089H160.669M140.523 105.355V125.5M140.523 105.355H160.669M140.523 125.5V145.646M140.523 125.5H160.669M140.523 145.646V165.792M140.523 145.646H160.669M140.523 165.792V185.937M140.523 165.792H160.669M140.523 185.937V206.083M140.523 185.937H160.669M140.523 206.083V226.229M140.523 206.083H160.669M140.523 226.229V246.374M140.523 226.229H160.669M140.523 246.374V266.52M140.523 246.374H160.669M140.523 266.52V286.666M140.523 266.52H160.669M140.523 286.666V306.811M140.523 286.666H160.669M140.523 306.811V326.957M140.523 306.811H160.669M140.523 326.957H160.669M160.669 -75.9565V-55.8109M160.669 -75.9565H180.815M160.669 -55.8109V-35.6652M160.669 -55.8109H180.815M160.669 -35.6652V-15.5195M160.669 -35.6652H180.815M160.669 -15.5195V4.62616M160.669 -15.5195H180.815M160.669 4.62616V24.7718M160.669 4.62616H180.815M160.669 24.7718V44.9175M160.669 24.7718H180.815M160.669 44.9175V65.0632M160.669 44.9175H180.815M160.669 65.0632V85.2089M160.669 65.0632H180.815M160.669 85.2089V105.355M160.669 85.2089H180.815M160.669 105.355V125.5M160.669 105.355H180.815M160.669 125.5V145.646M160.669 125.5H180.815M160.669 145.646V165.792M160.669 145.646H180.815M160.669 165.792V185.937M160.669 165.792H180.815M160.669 185.937V206.083M160.669 185.937H180.815M160.669 206.083V226.229M160.669 206.083H180.815M160.669 226.229V246.374M160.669 226.229H180.815M160.669 246.374V266.52M160.669 246.374H180.815M160.669 266.52V286.666M160.669 266.52H180.815M160.669 286.666V306.811M160.669 286.666H180.815M160.669 306.811V326.957M160.669 306.811H180.815M160.669 326.957H180.815M180.815 -75.9565V-55.8109M180.815 -75.9565H200.96M180.815 -55.8109V-35.6652M180.815 -55.8109H200.96M180.815 -35.6652V-15.5195M180.815 -35.6652H200.96M180.815 -15.5195V4.62616M180.815 -15.5195H200.96M180.815 4.62616V24.7718M180.815 4.62616H200.96M180.815 24.7718V44.9175M180.815 24.7718H200.96M180.815 44.9175V65.0632M180.815 44.9175H200.96M180.815 65.0632V85.2089M180.815 65.0632H200.96M180.815 85.2089V105.355M180.815 85.2089H200.96M180.815 105.355V125.5M180.815 105.355H200.96M180.815 125.5V145.646M180.815 125.5H200.96M180.815 145.646V165.792M180.815 145.646H200.96M180.815 165.792V185.937M180.815 165.792H200.96M180.815 185.937V206.083M180.815 185.937H200.96M180.815 206.083V226.229M180.815 206.083H200.96M180.815 226.229V246.374M180.815 226.229H200.96M180.815 246.374V266.52M180.815 246.374H200.96M180.815 266.52V286.666M180.815 266.52H200.96M180.815 286.666V306.811M180.815 286.666H200.96M180.815 306.811V326.957M180.815 306.811H200.96M180.815 326.957H200.96M200.96 -75.9565V-55.8109M200.96 -75.9565H221.106M200.96 -55.8109V-35.6652M200.96 -55.8109H221.106M200.96 -35.6652V-15.5195M200.96 -35.6652H221.106M200.96 -15.5195V4.62616M200.96 -15.5195H221.106M200.96 4.62616V24.7718M200.96 4.62616H221.106M200.96 24.7718V44.9175M200.96 24.7718H221.106M200.96 44.9175V65.0632M200.96 44.9175H221.106M200.96 65.0632V85.2089M200.96 65.0632H221.106M200.96 85.2089V105.355M200.96 85.2089H221.106M200.96 105.355V125.5M200.96 105.355H221.106M200.96 125.5V145.646M200.96 125.5H221.106M200.96 145.646V165.792M200.96 145.646H221.106M200.96 165.792V185.937M200.96 165.792H221.106M200.96 185.937V206.083M200.96 185.937H221.106M200.96 206.083V226.229M200.96 206.083H221.106M200.96 226.229V246.374M200.96 226.229H221.106M200.96 246.374V266.52M200.96 246.374H221.106M200.96 266.52V286.666M200.96 266.52H221.106M200.96 286.666V306.811M200.96 286.666H221.106M200.96 306.811V326.957M200.96 306.811H221.106M200.96 326.957H221.106M221.106 -75.9565V-55.8109M221.106 -75.9565H241.252M221.106 -55.8109V-35.6652M221.106 -55.8109H241.252M221.106 -35.6652V-15.5195M221.106 -35.6652H241.252M221.106 -15.5195V4.62616M221.106 -15.5195H241.252M221.106 4.62616V24.7718M221.106 4.62616H241.252M221.106 24.7718V44.9175M221.106 24.7718H241.252M221.106 44.9175V65.0632M221.106 44.9175H241.252M221.106 65.0632V85.2089M221.106 65.0632H241.252M221.106 85.2089V105.355M221.106 85.2089H241.252M221.106 105.355V125.5M221.106 105.355H241.252M221.106 125.5V145.646M221.106 125.5H241.252M221.106 145.646V165.792M221.106 145.646H241.252M221.106 165.792V185.937M221.106 165.792H241.252M221.106 185.937V206.083M221.106 185.937H241.252M221.106 206.083V226.229M221.106 206.083H241.252M221.106 226.229V246.374M221.106 226.229H241.252M221.106 246.374V266.52M221.106 246.374H241.252M221.106 266.52V286.666M221.106 266.52H241.252M221.106 286.666V306.811M221.106 286.666H241.252M221.106 306.811V326.957M221.106 306.811H241.252M221.106 326.957H241.252M241.252 -75.9565V-55.8109M241.252 -75.9565H261.397M241.252 -55.8109V-35.6652M241.252 -55.8109H261.397M241.252 -35.6652V-15.5195M241.252 -35.6652H261.397M241.252 -15.5195V4.62616M241.252 -15.5195H261.397M241.252 4.62616V24.7718M241.252 4.62616H261.397M241.252 24.7718V44.9175M241.252 24.7718H261.397M241.252 44.9175V65.0632M241.252 44.9175H261.397M241.252 65.0632V85.2089M241.252 65.0632H261.397M241.252 85.2089V105.355M241.252 85.2089H261.397M241.252 105.355V125.5M241.252 105.355H261.397M241.252 125.5V145.646M241.252 125.5H261.397M241.252 145.646V165.792M241.252 145.646H261.397M241.252 165.792V185.937M241.252 165.792H261.397M241.252 185.937V206.083M241.252 185.937H261.397M241.252 206.083V226.229M241.252 206.083H261.397M241.252 226.229V246.374M241.252 226.229H261.397M241.252 246.374V266.52M241.252 246.374H261.397M241.252 266.52V286.666M241.252 266.52H261.397M241.252 286.666V306.811M241.252 286.666H261.397M241.252 306.811V326.957M241.252 306.811H261.397M241.252 326.957H261.397M261.397 -75.9565V-55.8109M261.397 -75.9565H281.543M261.397 -55.8109V-35.6652M261.397 -55.8109H281.543M261.397 -35.6652V-15.5195M261.397 -35.6652H281.543M261.397 -15.5195V4.62616M261.397 -15.5195H281.543M261.397 4.62616V24.7718M261.397 4.62616H281.543M261.397 24.7718V44.9175M261.397 24.7718H281.543M261.397 44.9175V65.0632M261.397 44.9175H281.543M261.397 65.0632V85.2089M261.397 65.0632H281.543M261.397 85.2089V105.355M261.397 85.2089H281.543M261.397 105.355V125.5M261.397 105.355H281.543M261.397 125.5V145.646M261.397 125.5H281.543M261.397 145.646V165.792M261.397 145.646H281.543M261.397 165.792V185.937M261.397 165.792H281.543M261.397 185.937V206.083M261.397 185.937H281.543M261.397 206.083V226.229M261.397 206.083H281.543M261.397 226.229V246.374M261.397 226.229H281.543M261.397 246.374V266.52M261.397 246.374H281.543M261.397 266.52V286.666M261.397 266.52H281.543M261.397 286.666V306.811M261.397 286.666H281.543M261.397 306.811V326.957M261.397 306.811H281.543M261.397 326.957H281.543M281.543 -75.9565V-55.8109M281.543 -75.9565H301.689M281.543 -55.8109V-35.6652M281.543 -55.8109H301.689M281.543 -35.6652V-15.5195M281.543 -35.6652H301.689M281.543 -15.5195V4.62616M281.543 -15.5195H301.689M281.543 4.62616V24.7718M281.543 4.62616H301.689M281.543 24.7718V44.9175M281.543 24.7718H301.689M281.543 44.9175V65.0632M281.543 44.9175H301.689M281.543 65.0632V85.2089M281.543 65.0632H301.689M281.543 85.2089V105.355M281.543 85.2089H301.689M281.543 105.355V125.5M281.543 105.355H301.689M281.543 125.5V145.646M281.543 125.5H301.689M281.543 145.646V165.792M281.543 145.646H301.689M281.543 165.792V185.937M281.543 165.792H301.689M281.543 185.937V206.083M281.543 185.937H301.689M281.543 206.083V226.229M281.543 206.083H301.689M281.543 226.229V246.374M281.543 226.229H301.689M281.543 246.374V266.52M281.543 246.374H301.689M281.543 266.52V286.666M281.543 266.52H301.689M281.543 286.666V306.811M281.543 286.666H301.689M281.543 306.811V326.957M281.543 306.811H301.689M281.543 326.957H301.689M301.689 -75.9565V-55.8109M301.689 -75.9565H321.835M301.689 -55.8109V-35.6652M301.689 -55.8109H321.835M301.689 -35.6652V-15.5195M301.689 -35.6652H321.835M301.689 -15.5195V4.62616M301.689 -15.5195H321.835M301.689 4.62616V24.7718M301.689 4.62616H321.835M301.689 24.7718V44.9175M301.689 24.7718H321.835M301.689 44.9175V65.0632M301.689 44.9175H321.835M301.689 65.0632V85.2089M301.689 65.0632H321.835M301.689 85.2089V105.355M301.689 85.2089H321.835M301.689 105.355V125.5M301.689 105.355H321.835M301.689 125.5V145.646M301.689 125.5H321.835M301.689 145.646V165.792M301.689 145.646H321.835M301.689 165.792V185.937M301.689 165.792H321.835M301.689 185.937V206.083M301.689 185.937H321.835M301.689 206.083V226.229M301.689 206.083H321.835M301.689 226.229V246.374M301.689 226.229H321.835M301.689 246.374V266.52M301.689 246.374H321.835M301.689 266.52V286.666M301.689 266.52H321.835M301.689 286.666V306.811M301.689 286.666H321.835M301.689 306.811V326.957M301.689 306.811H321.835M301.689 326.957H321.835M321.835 -75.9565V-55.8109M321.835 -75.9565H341.98M321.835 -55.8109V-35.6652M321.835 -55.8109H341.98M321.835 -35.6652V-15.5195M321.835 -35.6652H341.98M321.835 -15.5195V4.62616M321.835 -15.5195H341.98M321.835 4.62616V24.7718M321.835 4.62616H341.98M321.835 24.7718V44.9175M321.835 24.7718H341.98M321.835 44.9175V65.0632M321.835 44.9175H341.98M321.835 65.0632V85.2089M321.835 65.0632H341.98M321.835 85.2089V105.355M321.835 85.2089H341.98M321.835 105.355V125.5M321.835 105.355H341.98M321.835 125.5V145.646M321.835 125.5H341.98M321.835 145.646V165.792M321.835 145.646H341.98M321.835 165.792V185.937M321.835 165.792H341.98M321.835 185.937V206.083M321.835 185.937H341.98M321.835 206.083V226.229M321.835 206.083H341.98M321.835 226.229V246.374M321.835 226.229H341.98M321.835 246.374V266.52M321.835 246.374H341.98M321.835 266.52V286.666M321.835 266.52H341.98M321.835 286.666V306.811M321.835 286.666H341.98M321.835 306.811V326.957M321.835 306.811H341.98M321.835 326.957H341.98M341.98 -75.9565V-55.8109M341.98 -75.9565H362.126M341.98 -55.8109V-35.6652M341.98 -55.8109H362.126M341.98 -35.6652V-15.5195M341.98 -35.6652H362.126M341.98 -15.5195V4.62616M341.98 -15.5195H362.126M341.98 4.62616V24.7718M341.98 4.62616H362.126M341.98 24.7718V44.9175M341.98 24.7718H362.126M341.98 44.9175V65.0632M341.98 44.9175H362.126M341.98 65.0632V85.2089M341.98 65.0632H362.126M341.98 85.2089V105.355M341.98 85.2089H362.126M341.98 105.355V125.5M341.98 105.355H362.126M341.98 125.5V145.646M341.98 125.5H362.126M341.98 145.646V165.792M341.98 145.646H362.126M341.98 165.792V185.937M341.98 165.792H362.126M341.98 185.937V206.083M341.98 185.937H362.126M341.98 206.083V226.229M341.98 206.083H362.126M341.98 226.229V246.374M341.98 226.229H362.126M341.98 246.374V266.52M341.98 246.374H362.126M341.98 266.52V286.666M341.98 266.52H362.126M341.98 286.666V306.811M341.98 286.666H362.126M341.98 306.811V326.957M341.98 306.811H362.126M341.98 326.957H362.126M362.126 -75.9565V-55.8109M362.126 -75.9565H382.272M362.126 -55.8109V-35.6652M362.126 -55.8109H382.272M362.126 -35.6652V-15.5195M362.126 -35.6652H382.272M362.126 -15.5195V4.62616M362.126 -15.5195H382.272M362.126 4.62616V24.7718M362.126 4.62616H382.272M362.126 24.7718V44.9175M362.126 24.7718H382.272M362.126 44.9175V65.0632M362.126 44.9175H382.272M362.126 65.0632V85.2089M362.126 65.0632H382.272M362.126 85.2089V105.355M362.126 85.2089H382.272M362.126 105.355V125.5M362.126 105.355H382.272M362.126 125.5V145.646M362.126 125.5H382.272M362.126 145.646V165.792M362.126 145.646H382.272M362.126 165.792V185.937M362.126 165.792H382.272M362.126 185.937V206.083M362.126 185.937H382.272M362.126 206.083V226.229M362.126 206.083H382.272M362.126 226.229V246.374M362.126 226.229H382.272M362.126 246.374V266.52M362.126 246.374H382.272M362.126 266.52V286.666M362.126 266.52H382.272M362.126 286.666V306.811M362.126 286.666H382.272M362.126 306.811V326.957M362.126 306.811H382.272M362.126 326.957H382.272M382.272 -75.9565V-55.8109M382.272 -75.9565H402.417M382.272 -55.8109V-35.6652M382.272 -55.8109H402.417M382.272 -35.6652V-15.5195M382.272 -35.6652H402.417M382.272 -15.5195V4.62616M382.272 -15.5195H402.417M382.272 4.62616V24.7718M382.272 4.62616H402.417M382.272 24.7718V44.9175M382.272 24.7718H402.417M382.272 44.9175V65.0632M382.272 44.9175H402.417M382.272 65.0632V85.2089M382.272 65.0632H402.417M382.272 85.2089V105.355M382.272 85.2089H402.417M382.272 105.355V125.5M382.272 105.355H402.417M382.272 125.5V145.646M382.272 125.5H402.417M382.272 145.646V165.792M382.272 145.646H402.417M382.272 165.792V185.937M382.272 165.792H402.417M382.272 185.937V206.083M382.272 185.937H402.417M382.272 206.083V226.229M382.272 206.083H402.417M382.272 226.229V246.374M382.272 226.229H402.417M382.272 246.374V266.52M382.272 246.374H402.417M382.272 266.52V286.666M382.272 266.52H402.417M382.272 286.666V306.811M382.272 286.666H402.417M382.272 306.811V326.957M382.272 306.811H402.417M382.272 326.957H402.417M402.417 -75.9565V-55.8109M402.417 -75.9565H422.563M402.417 -55.8109V-35.6652M402.417 -55.8109H422.563M402.417 -35.6652V-15.5195M402.417 -35.6652H422.563M402.417 -15.5195V4.62616M402.417 -15.5195H422.563M402.417 4.62616V24.7718M402.417 4.62616H422.563M402.417 24.7718V44.9175M402.417 24.7718H422.563M402.417 44.9175V65.0632M402.417 44.9175H422.563M402.417 65.0632V85.2089M402.417 65.0632H422.563M402.417 85.2089V105.355M402.417 85.2089H422.563M402.417 105.355V125.5M402.417 105.355H422.563M402.417 125.5V145.646M402.417 125.5H422.563M402.417 145.646V165.792M402.417 145.646H422.563M402.417 165.792V185.937M402.417 165.792H422.563M402.417 185.937V206.083M402.417 185.937H422.563M402.417 206.083V226.229M402.417 206.083H422.563M402.417 226.229V246.374M402.417 226.229H422.563M402.417 246.374V266.52M402.417 246.374H422.563M402.417 266.52V286.666M402.417 266.52H422.563M402.417 286.666V306.811M402.417 286.666H422.563M402.417 306.811V326.957M402.417 306.811H422.563M402.417 326.957H422.563M422.563 -75.9565V-55.8109M422.563 -75.9565H442.709M422.563 -55.8109V-35.6652M422.563 -55.8109H442.709M422.563 -35.6652V-15.5195M422.563 -35.6652H442.709M422.563 -15.5195V4.62616M422.563 -15.5195H442.709M422.563 4.62616V24.7718M422.563 4.62616H442.709M422.563 24.7718V44.9175M422.563 24.7718H442.709M422.563 44.9175V65.0632M422.563 44.9175H442.709M422.563 65.0632V85.2089M422.563 65.0632H442.709M422.563 85.2089V105.355M422.563 85.2089H442.709M422.563 105.355V125.5M422.563 105.355H442.709M422.563 125.5V145.646M422.563 125.5H442.709M422.563 145.646V165.792M422.563 145.646H442.709M422.563 165.792V185.937M422.563 165.792H442.709M422.563 185.937V206.083M422.563 185.937H442.709M422.563 206.083V226.229M422.563 206.083H442.709M422.563 226.229V246.374M422.563 226.229H442.709M422.563 246.374V266.52M422.563 246.374H442.709M422.563 266.52V286.666M422.563 266.52H442.709M422.563 286.666V306.811M422.563 286.666H442.709M422.563 306.811V326.957M422.563 306.811H442.709M422.563 326.957H442.709M442.709 -75.9565V-55.8109M442.709 -75.9565H462.854M442.709 -55.8109V-35.6652M442.709 -55.8109H462.854M442.709 -35.6652V-15.5195M442.709 -35.6652H462.854M442.709 -15.5195V4.62616M442.709 -15.5195H462.854M442.709 4.62616V24.7718M442.709 4.62616H462.854M442.709 24.7718V44.9175M442.709 24.7718H462.854M442.709 44.9175V65.0632M442.709 44.9175H462.854M442.709 65.0632V85.2089M442.709 65.0632H462.854M442.709 85.2089V105.355M442.709 85.2089H462.854M442.709 105.355V125.5M442.709 105.355H462.854M442.709 125.5V145.646M442.709 125.5H462.854M442.709 145.646V165.792M442.709 145.646H462.854M442.709 165.792V185.937M442.709 165.792H462.854M442.709 185.937V206.083M442.709 185.937H462.854M442.709 206.083V226.229M442.709 206.083H462.854M442.709 226.229V246.374M442.709 226.229H462.854M442.709 246.374V266.52M442.709 246.374H462.854M442.709 266.52V286.666M442.709 266.52H462.854M442.709 286.666V306.811M442.709 286.666H462.854M442.709 306.811V326.957M442.709 306.811H462.854M442.709 326.957H462.854M462.854 -75.9565V-55.8109M462.854 -75.9565H483M462.854 -55.8109V-35.6652M462.854 -55.8109H483M462.854 -35.6652V-15.5195M462.854 -35.6652H483M462.854 -15.5195V4.62616M462.854 -15.5195H483M462.854 4.62616V24.7718M462.854 4.62616H483M462.854 24.7718V44.9175M462.854 24.7718H483M462.854 44.9175V65.0632M462.854 44.9175H483M462.854 65.0632V85.2089M462.854 65.0632H483M462.854 85.2089V105.355M462.854 85.2089H483M462.854 105.355V125.5M462.854 105.355H483M462.854 125.5V145.646M462.854 125.5H483M462.854 145.646V165.792M462.854 145.646H483M462.854 165.792V185.937M462.854 165.792H483M462.854 185.937V206.083M462.854 185.937H483M462.854 206.083V226.229M462.854 206.083H483M462.854 226.229V246.374M462.854 226.229H483M462.854 246.374V266.52M462.854 246.374H483M462.854 266.52V286.666M462.854 266.52H483M462.854 286.666V306.811M462.854 286.666H483M462.854 306.811V326.957M462.854 306.811H483M462.854 326.957H483M483 -75.9565V-55.8109M483 -75.9565H503.146M483 -55.8109V-35.6652M483 -55.8109H503.146M483 -35.6652V-15.5195M483 -35.6652H503.146M483 -15.5195V4.62616M483 -15.5195H503.146M483 4.62616V24.7718M483 4.62616H503.146M483 24.7718V44.9175M483 24.7718H503.146M483 44.9175V65.0632M483 44.9175H503.146M483 65.0632V85.2089M483 65.0632H503.146M483 85.2089V105.355M483 85.2089H503.146M483 105.355V125.5M483 105.355H503.146M483 125.5V145.646M483 125.5H503.146M483 145.646V165.792M483 145.646H503.146M483 165.792V185.937M483 165.792H503.146M483 185.937V206.083M483 185.937H503.146M483 206.083V226.229M483 206.083H503.146M483 226.229V246.374M483 226.229H503.146M483 246.374V266.52M483 246.374H503.146M483 266.52V286.666M483 266.52H503.146M483 286.666V306.811M483 286.666H503.146M483 306.811V326.957M483 306.811H503.146M483 326.957H503.146M503.146 -75.9565V-55.8109M503.146 -75.9565H523.291M503.146 -55.8109V-35.6652M503.146 -55.8109H523.291M503.146 -35.6652V-15.5195M503.146 -35.6652H523.291M503.146 -15.5195V4.62616M503.146 -15.5195H523.291M503.146 4.62616V24.7718M503.146 4.62616H523.291M503.146 24.7718V44.9175M503.146 24.7718H523.291M503.146 44.9175V65.0632M503.146 44.9175H523.291M503.146 65.0632V85.2089M503.146 65.0632H523.291M503.146 85.2089V105.355M503.146 85.2089H523.291M503.146 105.355V125.5M503.146 105.355H523.291M503.146 125.5V145.646M503.146 125.5H523.291M503.146 145.646V165.792M503.146 145.646H523.291M503.146 165.792V185.937M503.146 165.792H523.291M503.146 185.937V206.083M503.146 185.937H523.291M503.146 206.083V226.229M503.146 206.083H523.291M503.146 226.229V246.374M503.146 226.229H523.291M503.146 246.374V266.52M503.146 246.374H523.291M503.146 266.52V286.666M503.146 266.52H523.291M503.146 286.666V306.811M503.146 286.666H523.291M503.146 306.811V326.957M503.146 306.811H523.291M503.146 326.957H523.291M523.291 -75.9565V-55.8109M523.291 -75.9565H543.437M523.291 -55.8109V-35.6652M523.291 -55.8109H543.437M523.291 -35.6652V-15.5195M523.291 -35.6652H543.437M523.291 -15.5195V4.62616M523.291 -15.5195H543.437M523.291 4.62616V24.7718M523.291 4.62616H543.437M523.291 24.7718V44.9175M523.291 24.7718H543.437M523.291 44.9175V65.0632M523.291 44.9175H543.437M523.291 65.0632V85.2089M523.291 65.0632H543.437M523.291 85.2089V105.355M523.291 85.2089H543.437M523.291 105.355V125.5M523.291 105.355H543.437M523.291 125.5V145.646M523.291 125.5H543.437M523.291 145.646V165.792M523.291 145.646H543.437M523.291 165.792V185.937M523.291 165.792H543.437M523.291 185.937V206.083M523.291 185.937H543.437M523.291 206.083V226.229M523.291 206.083H543.437M523.291 226.229V246.374M523.291 226.229H543.437M523.291 246.374V266.52M523.291 246.374H543.437M523.291 266.52V286.666M523.291 266.52H543.437M523.291 286.666V306.811M523.291 286.666H543.437M523.291 306.811V326.957M523.291 306.811H543.437M523.291 326.957H543.437M543.437 -75.9565V-55.8109M543.437 -75.9565H563.583M543.437 -55.8109V-35.6652M543.437 -55.8109H563.583M543.437 -35.6652V-15.5195M543.437 -35.6652H563.583M543.437 -15.5195V4.62616M543.437 -15.5195H563.583M543.437 4.62616V24.7718M543.437 4.62616H563.583M543.437 24.7718V44.9175M543.437 24.7718H563.583M543.437 44.9175V65.0632M543.437 44.9175H563.583M543.437 65.0632V85.2089M543.437 65.0632H563.583M543.437 85.2089V105.355M543.437 85.2089H563.583M543.437 105.355V125.5M543.437 105.355H563.583M543.437 125.5V145.646M543.437 125.5H563.583M543.437 145.646V165.792M543.437 145.646H563.583M543.437 165.792V185.937M543.437 165.792H563.583M543.437 185.937V206.083M543.437 185.937H563.583M543.437 206.083V226.229M543.437 206.083H563.583M543.437 226.229V246.374M543.437 226.229H563.583M543.437 246.374V266.52M543.437 246.374H563.583M543.437 266.52V286.666M543.437 266.52H563.583M543.437 286.666V306.811M543.437 286.666H563.583M543.437 306.811V326.957M543.437 306.811H563.583M543.437 326.957H563.583M563.583 -75.9565V-55.8109M563.583 -75.9565H583.728M563.583 -55.8109V-35.6652M563.583 -55.8109H583.728M563.583 -35.6652V-15.5195M563.583 -35.6652H583.728M563.583 -15.5195V4.62616M563.583 -15.5195H583.728M563.583 4.62616V24.7718M563.583 4.62616H583.728M563.583 24.7718V44.9175M563.583 24.7718H583.728M563.583 44.9175V65.0632M563.583 44.9175H583.728M563.583 65.0632V85.2089M563.583 65.0632H583.728M563.583 85.2089V105.355M563.583 85.2089H583.728M563.583 105.355V125.5M563.583 105.355H583.728M563.583 125.5V145.646M563.583 125.5H583.728M563.583 145.646V165.792M563.583 145.646H583.728M563.583 165.792V185.937M563.583 165.792H583.728M563.583 185.937V206.083M563.583 185.937H583.728M563.583 206.083V226.229M563.583 206.083H583.728M563.583 226.229V246.374M563.583 226.229H583.728M563.583 246.374V266.52M563.583 246.374H583.728M563.583 266.52V286.666M563.583 266.52H583.728M563.583 286.666V306.811M563.583 286.666H583.728M563.583 306.811V326.957M563.583 306.811H583.728M563.583 326.957H583.728M583.728 -75.9565V-55.8109M583.728 -75.9565H603.874M583.728 -55.8109V-35.6652M583.728 -55.8109H603.874M583.728 -35.6652V-15.5195M583.728 -35.6652H603.874M583.728 -15.5195V4.62616M583.728 -15.5195H603.874M583.728 4.62616V24.7718M583.728 4.62616H603.874M583.728 24.7718V44.9175M583.728 24.7718H603.874M583.728 44.9175V65.0632M583.728 44.9175H603.874M583.728 65.0632V85.2089M583.728 65.0632H603.874M583.728 85.2089V105.355M583.728 85.2089H603.874M583.728 105.355V125.5M583.728 105.355H603.874M583.728 125.5V145.646M583.728 125.5H603.874M583.728 145.646V165.792M583.728 145.646H603.874M583.728 165.792V185.937M583.728 165.792H603.874M583.728 185.937V206.083M583.728 185.937H603.874M583.728 206.083V226.229M583.728 206.083H603.874M583.728 226.229V246.374M583.728 226.229H603.874M583.728 246.374V266.52M583.728 246.374H603.874M583.728 266.52V286.666M583.728 266.52H603.874M583.728 286.666V306.811M583.728 286.666H603.874M583.728 306.811V326.957M583.728 306.811H603.874M583.728 326.957H603.874M603.874 -75.9565V-55.8109M603.874 -75.9565H624.02M603.874 -55.8109V-35.6652M603.874 -55.8109H624.02M603.874 -35.6652V-15.5195M603.874 -35.6652H624.02M603.874 -15.5195V4.62616M603.874 -15.5195H624.02M603.874 4.62616V24.7718M603.874 4.62616H624.02M603.874 24.7718V44.9175M603.874 24.7718H624.02M603.874 44.9175V65.0632M603.874 44.9175H624.02M603.874 65.0632V85.2089M603.874 65.0632H624.02M603.874 85.2089V105.355M603.874 85.2089H624.02M603.874 105.355V125.5M603.874 105.355H624.02M603.874 125.5V145.646M603.874 125.5H624.02M603.874 145.646V165.792M603.874 145.646H624.02M603.874 165.792V185.937M603.874 165.792H624.02M603.874 185.937V206.083M603.874 185.937H624.02M603.874 206.083V226.229M603.874 206.083H624.02M603.874 226.229V246.374M603.874 226.229H624.02M603.874 246.374V266.52M603.874 246.374H624.02M603.874 266.52V286.666M603.874 266.52H624.02M603.874 286.666V306.811M603.874 286.666H624.02M603.874 306.811V326.957M603.874 306.811H624.02M603.874 326.957H624.02M624.02 -75.9565V-55.8109M624.02 -75.9565H644.165M624.02 -55.8109V-35.6652M624.02 -55.8109H644.165M624.02 -35.6652V-15.5195M624.02 -35.6652H644.165M624.02 -15.5195V4.62616M624.02 -15.5195H644.165M624.02 4.62616V24.7718M624.02 4.62616H644.165M624.02 24.7718V44.9175M624.02 24.7718H644.165M624.02 44.9175V65.0632M624.02 44.9175H644.165M624.02 65.0632V85.2089M624.02 65.0632H644.165M624.02 85.2089V105.355M624.02 85.2089H644.165M624.02 105.355V125.5M624.02 105.355H644.165M624.02 125.5V145.646M624.02 125.5H644.165M624.02 145.646V165.792M624.02 145.646H644.165M624.02 165.792V185.937M624.02 165.792H644.165M624.02 185.937V206.083M624.02 185.937H644.165M624.02 206.083V226.229M624.02 206.083H644.165M624.02 226.229V246.374M624.02 226.229H644.165M624.02 246.374V266.52M624.02 246.374H644.165M624.02 266.52V286.666M624.02 266.52H644.165M624.02 286.666V306.811M624.02 286.666H644.165M624.02 306.811V326.957M624.02 306.811H644.165M624.02 326.957H644.165M644.165 -75.9565V-55.8109M644.165 -75.9565H664.311M644.165 -55.8109V-35.6652M644.165 -55.8109H664.311M644.165 -35.6652V-15.5195M644.165 -35.6652H664.311M644.165 -15.5195V4.62616M644.165 -15.5195H664.311M644.165 4.62616V24.7718M644.165 4.62616H664.311M644.165 24.7718V44.9175M644.165 24.7718H664.311M644.165 44.9175V65.0632M644.165 44.9175H664.311M644.165 65.0632V85.2089M644.165 65.0632H664.311M644.165 85.2089V105.355M644.165 85.2089H664.311M644.165 105.355V125.5M644.165 105.355H664.311M644.165 125.5V145.646M644.165 125.5H664.311M644.165 145.646V165.792M644.165 145.646H664.311M644.165 165.792V185.937M644.165 165.792H664.311M644.165 185.937V206.083M644.165 185.937H664.311M644.165 206.083V226.229M644.165 206.083H664.311M644.165 226.229V246.374M644.165 226.229H664.311M644.165 246.374V266.52M644.165 246.374H664.311M644.165 266.52V286.666M644.165 266.52H664.311M644.165 286.666V306.811M644.165 286.666H664.311M644.165 306.811V326.957M644.165 306.811H664.311M644.165 326.957H664.311M664.311 -75.9565V-55.8109M664.311 -75.9565H684.457V-55.8109M664.311 -55.8109V-35.6652M664.311 -55.8109H684.457M664.311 -35.6652V-15.5195M664.311 -35.6652H684.457M664.311 -15.5195V4.62616M664.311 -15.5195H684.457M664.311 4.62616V24.7718M664.311 4.62616H684.457M664.311 24.7718V44.9175M664.311 24.7718H684.457M664.311 44.9175V65.0632M664.311 44.9175H684.457M664.311 65.0632V85.2089M664.311 65.0632H684.457M664.311 85.2089V105.355M664.311 85.2089H684.457M664.311 105.355V125.5M664.311 105.355H684.457M664.311 125.5V145.646M664.311 125.5H684.457M664.311 145.646V165.792M664.311 145.646H684.457M664.311 165.792V185.937M664.311 165.792H684.457M664.311 185.937V206.083M664.311 185.937H684.457M664.311 206.083V226.229M664.311 206.083H684.457M664.311 226.229V246.374M664.311 226.229H684.457M664.311 246.374V266.52M664.311 246.374H684.457M664.311 266.52V286.666M664.311 266.52H684.457M664.311 286.666V306.811M664.311 286.666H684.457M664.311 306.811V326.957M664.311 306.811H684.457M664.311 326.957H684.457V306.811M684.457 -55.8109V-35.6652M684.457 -35.6652V-15.5195M684.457 -15.5195V4.62616M684.457 4.62616V24.7718M684.457 24.7718V44.9175M684.457 44.9175V65.0632M684.457 65.0632V85.2089M684.457 85.2089V105.355M684.457 105.355V125.5M684.457 125.5V145.646M684.457 145.646V165.792M684.457 165.792V185.937M684.457 185.937V206.083M684.457 206.083V226.229M684.457 226.229V246.374M684.457 246.374V266.52M684.457 266.52V286.666M684.457 286.666V306.811" stroke="url(#paint0_radial_1211_16970)" stroke-opacity="0.2" stroke-width="0.5"/>
</g>
<g style="" opacity="0.8">
<path d="M-121.374 -1.41734V4.62636M-121.374 4.62636V10.6701M-121.374 4.62636H-127.417M-121.374 4.62636H-115.33M-121.374 159.748V165.792M-121.374 165.792V171.835M-121.374 165.792H-127.417M-121.374 165.792H-115.33M-121.374 320.913V326.957M-121.374 326.957V333.001M-121.374 326.957H-127.417M-121.374 326.957H-115.33M39.7918 159.748V165.792M39.7918 165.792V171.835M39.7918 165.792H33.7482M39.7918 165.792H45.8356M39.7918 320.913V326.957M39.7918 326.957V333.001M39.7918 326.957H33.7482M39.7918 326.957H45.8356M200.957 -21.4873V-15.4436M200.957 -15.4436V-9.39985M200.957 -15.4436H194.914M200.957 -15.4436H207.001M200.957 159.748V165.792M200.957 165.792V171.835M200.957 165.792H194.914M200.957 165.792H207.001M200.957 320.913V326.957M200.957 326.957V333.001M200.957 326.957H194.914M200.957 326.957H207.001M362.123 -1.41734V4.62636M362.123 4.62636V10.6701M362.123 4.62636H356.079M362.123 4.62636H368.166M362.123 320.913V326.957M362.123 326.957V333.001M362.123 326.957H356.079M362.123 326.957H368.166M523.288 -1.41734V4.62636M523.288 4.62636V10.6701M523.288 4.62636H517.244M523.288 4.62636H529.332M523.288 159.748V165.792M523.288 165.792V171.835M523.288 165.792H517.244M523.288 165.792H529.332M523.288 320.913V326.957M523.288 326.957V333.001M523.288 326.957H517.244M523.288 326.957H529.332M684.453 -1.41734V4.62636M684.453 4.62636V10.6701M684.453 4.62636H678.41M684.453 4.62636H690.497M684.453 159.748V165.792M684.453 165.792V171.835M684.453 165.792H678.41M684.453 165.792H690.497M684.453 320.913V326.957M684.453 326.957V333.001M684.453 326.957H678.41M684.453 326.957H690.497M-121.374 -82V-75.9563M-121.374 -75.9563V-69.9126M-121.374 -75.9563H-127.417M-121.374 -75.9563H-115.33M-121.374 79.1654V85.2091M-121.374 85.2091V91.2528M-121.374 85.2091H-127.417M-121.374 85.2091H-115.33M-121.374 240.331V246.374M-121.374 246.374V252.418M-121.374 246.374H-127.417M-121.374 246.374H-115.33M39.7918 -82V-75.9563M39.7918 -75.9563V-69.9126M39.7918 -75.9563H33.7482M39.7918 -75.9563H45.8356M39.7918 240.331V246.374M39.7918 246.374V252.418M39.7918 246.374H33.7482M39.7918 246.374H45.8356M200.957 -82V-75.9563M200.957 -75.9563V-69.9126M200.957 -75.9563H194.914M200.957 -75.9563H207.001M200.958 18.6298V24.6735M200.958 24.6735V30.7172M200.958 24.6735H194.914M200.958 24.6735H207.002M200.957 240.331V246.374M200.957 246.374V252.418M200.957 246.374H194.914M200.957 246.374H207.001M362.123 -82V-75.9563M362.123 -75.9563V-69.9126M362.123 -75.9563H356.079M362.123 -75.9563H368.166M362.123 79.1654V85.2091M362.123 85.2091V91.2528M362.123 85.2091H356.079M362.123 85.2091H368.166M362.123 240.331V246.374M362.123 246.374V252.418M362.123 246.374H356.079M362.123 246.374H368.166M523.288 -82V-75.9563M523.288 -75.9563V-69.9126M523.288 -75.9563H517.244M523.288 -75.9563H529.332M523.288 79.1654V85.2091M523.288 85.2091V91.2528M523.288 85.2091H517.244M523.288 85.2091H529.332M523.288 240.331V246.374M523.288 246.374V252.418M523.288 246.374H517.244M523.288 246.374H529.332M684.453 -82V-75.9563M684.453 -75.9563V-69.9126M684.453 -75.9563H678.41M684.453 -75.9563H690.497M684.453 79.1654V85.2091M684.453 85.2091V91.2528M684.453 85.2091H678.41M684.453 85.2091H690.497M684.453 240.331V246.374M684.453 246.374V252.418M684.453 246.374H678.41M684.453 246.374H690.497M-201.956 -1.41734V4.62636M-201.956 4.62636V10.6701M-201.956 4.62636H-208M-201.956 4.62636H-195.913M-201.956 159.748V165.792M-201.956 165.792V171.835M-201.956 165.792H-208M-201.956 165.792H-195.913M-201.956 320.913V326.957M-201.956 326.957V333.001M-201.956 326.957H-208M-201.956 326.957H-195.913M-40.7909 159.748V165.792M-40.7909 165.792V171.835M-40.7909 165.792H-46.8346M-40.7909 165.792H-34.7472M-40.7909 320.913V326.957M-40.7909 326.957V333.001M-40.7909 326.957H-46.8346M-40.7909 326.957H-34.7472M120.375 3.8028V9.8465M120.375 9.8465V15.8902M120.375 9.8465H114.331M120.375 9.8465H126.418M120.375 159.748V165.792M120.375 165.792V171.835M120.375 165.792H114.331M120.375 165.792H126.418M120.375 320.913V326.957M120.375 326.957V333.001M120.375 326.957H114.331M120.375 326.957H126.418M281.54 -1.41734V4.62636M281.54 4.62636V10.6701M281.54 4.62636H275.496M281.54 4.62636H287.584M281.54 159.748V165.792M281.54 165.792V171.835M281.54 165.792H275.496M281.54 165.792H287.584M281.54 320.913V326.957M281.54 326.957V333.001M281.54 326.957H275.496M281.54 326.957H287.584M442.705 -1.41734V4.62636M442.705 4.62636V10.6701M442.705 4.62636H436.662M442.705 4.62636H448.749M442.705 180.748V186.792M442.705 186.792V192.835M442.705 186.792H436.662M442.705 186.792H448.749M442.705 320.913V326.957M442.705 326.957V333.001M442.705 326.957H436.662M442.705 326.957H448.749M603.871 -1.41734V4.62636M603.871 4.62636V10.6701M603.871 4.62636H597.827M603.871 4.62636H609.914M603.871 159.748V165.792M603.871 165.792V171.835M603.871 165.792H597.827M603.871 165.792H609.914M603.871 320.913V326.957M603.871 326.957V333.001M603.871 326.957H597.827M603.871 326.957H609.914M-201.956 -82V-75.9563M-201.956 -75.9563V-69.9126M-201.956 -75.9563H-208M-201.956 -75.9563H-195.913M-201.956 79.1654V85.2091M-201.956 85.2091V91.2528M-201.956 85.2091H-208M-201.956 85.2091H-195.913M-201.956 240.331V246.374M-201.956 246.374V252.418M-201.956 246.374H-208M-201.956 246.374H-195.913M-40.7909 -82V-75.9563M-40.7909 -75.9563V-69.9126M-40.7909 -75.9563H-46.8346M-40.7909 -75.9563H-34.7472M-40.7909 240.331V246.374M-40.7909 246.374V252.418M-40.7909 246.374H-46.8346M-40.7909 246.374H-34.7472M120.375 -82V-75.9563M120.375 -75.9563V-69.9126M120.375 -75.9563H114.331M120.375 -75.9563H126.418M80.3745 79.1654V85.2091M80.3745 85.2091V91.2528M80.3745 85.2091H74.3308M80.3745 85.2091H86.4182M120.375 240.331V246.374M120.375 246.374V252.418M120.375 246.374H114.331M120.375 246.374H126.418M281.54 -82V-75.9563M281.54 -75.9563V-69.9126M281.54 -75.9563H275.496M281.54 -75.9563H287.584M-0.670575 -1.41734V4.62636M-0.670575 4.62636V10.67M-0.670575 4.62636H-6.71429M-0.670575 4.62636H5.37313M281.54 240.331V246.374M281.54 246.374V252.418M281.54 246.374H275.496M281.54 246.374H287.584M442.705 -82V-75.9563M442.705 -75.9563V-69.9126M442.705 -75.9563H436.662M442.705 -75.9563H448.749M442.705 79.1654V85.2091M442.705 85.2091V91.2528M442.705 85.2091H436.662M442.705 85.2091H448.749M442.705 240.331V246.374M442.705 246.374V252.418M442.705 246.374H436.662M442.705 246.374H448.749M603.871 -82V-75.9563M603.871 -75.9563V-69.9126M603.871 -75.9563H597.827M603.871 -75.9563H609.914M603.871 79.1654V85.2091M603.871 85.2091V91.2528M603.871 85.2091H597.827M603.871 85.2091H609.914M603.871 240.331V246.374M603.871 246.374V252.418M603.871 246.374H597.827M603.871 246.374H609.914M281.54 79.1654V85.2091M281.54 85.2091V91.2528M281.54 85.2091H275.496M281.54 85.2091H287.584" stroke="url(#paint1_radial_1211_16970)" stroke-opacity="0.5" stroke-width="0.503642"/>
</g>
</g>
<defs>
<radialGradient id="paint0_radial_1211_16970" cx="0" cy="0" r="1" gradientUnits="userSpaceOnUse" gradientTransform="translate(241.252 125.5) rotate(90) scale(201.457 443.205)">
<stop offset="0.149605" stop-color="#F2F2F2"/>
<stop offset="0.508874" stop-color="#F2F2F2" stop-opacity="0"/>
</radialGradient>
<radialGradient id="paint1_radial_1211_16970" cx="0" cy="0" r="1" gradientUnits="userSpaceOnUse" gradientTransform="translate(241.249 125.5) rotate(90) scale(207.5 449.249)">
<stop stop-color="#F2F2F2"/>
<stop offset="0.40685" stop-color="#F2F2F2" stop-opacity="0"/>
</radialGradient>
<clipPath id="clip0_1211_16970">
<rect width="418" height="192" fill="white" transform="translate(32 32)"/>
</clipPath>
</defs>
</svg>
