<svg
              width="20"
              height="20"
              viewBox="0 0 20 20"
              fill="none"
              xmlns="http://www.w3.org/2000/svg"
            >
              <circle cx="10" cy="10" r="10" fill="#01050D" />
              <path
                d="M10 11.5C11.864 11.5 13.375 10.0449 13.375 8.25C13.375 6.45507 11.864 5 10 5C8.13604 5 6.625 6.45507 6.625 8.25C6.625 10.0449 8.13604 11.5 10 11.5Z"
                fill="url(#paint0_linear_0_1)"
              />
              <path
                d="M11.895 11.805C12.06 11.72 12.25 11.845 12.25 12.03V14.455C12.25 14.905 11.935 15.125 11.545 14.94L10.205 14.305C10.09 14.255 9.91 14.255 9.795 14.305L8.455 14.94C8.065 15.12 7.75 14.9 7.75 14.45L7.76 12.03C7.76 11.845 7.955 11.725 8.115 11.805C8.68 12.09 9.32 12.25 10 12.25C10.68 12.25 11.325 12.09 11.895 11.805Z"
                fill="url(#paint1_linear_0_1)"
              />
              <defs>
                <linearGradient
                  id="paint0_linear_0_1"
                  x1="6.625"
                  y1="10.0028"
                  x2="22"
                  y2="9.99993"
                  gradientUnits="userSpaceOnUse"
                >
                  <stop stop-color="#FFF93E" />
                  <stop offset="1" stop-color="#FF974C" />
                </linearGradient>
                <linearGradient
                  id="paint1_linear_0_1"
                  x1="6.625"
                  y1="10.0028"
                  x2="22"
                  y2="9.99993"
                  gradientUnits="userSpaceOnUse"
                >
                  <stop stop-color="#FFF93E" />
                  <stop offset="1" stop-color="#FF974C" />
                </linearGradient>
              </defs>
            </svg>