<svg width="13" height="14" viewBox="0 0 13 14" fill="none" xmlns="http://www.w3.org/2000/svg">
<path d="M3.84317 5.0777C3.56227 4.68368 1.82632 2.24864 0.245271 0.310369C0.106039 0.139676 -0.0042798 0 0.000127603 0C0.0207587 0 4.67974 5.16878 5.01498 5.56361L5.10756 5.67263L5.09948 5.84215C5.08884 6.06581 5.01952 6.21439 4.85386 6.36858C4.6629 6.54633 4.43059 6.64167 4.06574 6.69198C3.84195 6.72291 3.76055 6.757 3.67012 6.85761C3.58341 6.95408 3.55026 7.07428 3.52633 7.3791C3.48926 7.85093 3.43447 8.05038 3.21338 8.51846C2.99978 8.97064 2.95643 9.14155 2.99379 9.38373C3.03935 9.67892 3.20427 9.89354 3.59039 10.1602C3.88507 10.3637 4.01878 10.4949 4.09222 10.6528C4.13734 10.7498 4.14321 10.7851 4.14233 10.9537C4.14101 11.2114 4.09999 11.3152 3.92529 11.5034C3.64301 11.8073 3.1411 12.0552 2.52298 12.1962C2.26469 12.2551 2.25329 12.255 2.25329 12.1947C2.25329 12.1189 2.15732 11.9251 1.99063 11.6644C1.79749 11.3622 1.72194 11.2111 1.64955 10.9823C1.56688 10.721 1.54353 10.5444 1.55552 10.271C1.56686 10.0125 1.59485 9.89783 1.69661 9.6931C1.77741 9.5305 1.8298 9.45659 2.15 9.0532C2.69702 8.36417 2.8944 7.9615 2.9646 7.39156C3.02721 6.88313 3.11395 6.63745 3.30799 6.41877C3.42438 6.28763 3.45013 6.23754 3.45013 6.14223C3.45013 6.09538 3.07505 5.36302 2.52671 4.37198C1.65343 2.79372 1.653 2.7929 1.67847 2.8172C1.68949 2.8277 2.09334 3.45512 2.57591 4.21147C3.20661 5.19993 3.66978 5.8794 3.73747 5.94424C3.83323 6.036 3.96475 6.09278 4.08149 6.09278C4.1847 6.09278 4.28813 6.0738 4.3884 6.01624C4.5127 5.94486 4.45088 5.86713 4.24256 5.60525L4.24251 5.60519C4.14868 5.48723 4.02513 5.3319 3.87547 5.12296L3.84321 5.07775L3.84317 5.0777Z" fill="#F2F2F2"/>
<path d="M4.63746 3.14919C4.56708 3.16011 4.57339 3.16286 4.72296 3.1863C5.26776 3.27166 5.69336 3.48981 6.1265 3.90578C6.31712 4.08885 6.50875 4.31617 6.81877 4.72704C7.51683 5.65208 7.81301 5.90981 8.40069 6.10332C8.74606 6.21708 9.09434 6.27018 9.70978 6.30294C10.3912 6.33921 10.6485 6.39456 10.8918 6.55719C11.0268 6.64741 11.1322 6.7593 11.2372 6.92361L11.2981 7.01909L11.2854 6.91405C11.2364 6.51116 10.9515 5.94513 10.5889 5.53007L10.5228 5.45441L10.4894 5.60647C10.4053 5.98926 10.224 6.26437 10.0555 6.2646C9.97319 6.26472 9.89004 6.21162 9.86024 6.13989C9.82292 6.04998 9.82602 6.01669 9.88154 5.91164C9.98367 5.7186 10.0089 5.46014 9.95848 5.12296C9.94398 5.0255 9.92242 4.93416 9.91075 4.91997C9.87402 4.87545 9.57995 4.7022 9.39342 4.61516C8.7154 4.29879 7.90479 4.196 7.10796 4.32534L6.9188 4.35606L6.7866 4.20737C6.28893 3.64767 5.82269 3.33252 5.31032 3.20951C5.09084 3.15679 4.77235 3.12823 4.63746 3.14919Z" fill="#F2F2F2"/>
<path d="M10.1763 3.48091C10.102 3.64675 10.065 3.82835 10.0495 4.10367C10.0396 4.28126 10.0296 4.34167 10.0091 4.34959C9.97846 4.36142 9.93686 4.34872 9.68459 4.2507C9.515 4.18481 9.09361 4.06058 9.08135 4.07288C9.07818 4.07613 9.16634 4.11958 9.27724 4.16947C9.38821 4.21936 9.56861 4.31367 9.678 4.37907C10.1101 4.63722 10.1838 4.78791 10.1844 5.41475C10.1846 5.72672 10.1808 5.76817 10.1424 5.86244C10.091 5.98871 10.1 6.01258 10.1568 5.90072C10.2617 5.69389 10.3052 5.48704 10.3114 5.16477C10.3155 4.95799 10.3216 4.91426 10.3505 4.88515C10.3819 4.85356 10.3895 4.8531 10.4405 4.87959C10.5164 4.91909 10.8603 5.19541 11.0099 5.33709L11.1322 5.45294L11.0099 5.29083C10.9426 5.20167 10.7571 4.994 10.5976 4.82934C10.2576 4.47829 10.2307 4.4314 10.1835 4.10642C10.1462 3.85029 10.1551 3.63015 10.2091 3.4692C10.229 3.40999 10.2418 3.36153 10.2375 3.36153C10.2333 3.36153 10.2057 3.41526 10.1763 3.48091Z" fill="#F2F2F2"/>
<path d="M5.01348 5.176C4.70985 4.75377 4.52198 4.10639 4.56265 3.62244L4.57523 3.47267L4.64435 3.48542C4.77413 3.50933 4.99792 3.59346 5.10271 3.65775C5.39027 3.83416 5.51477 4.06641 5.64142 4.66279C5.67852 4.83748 5.7272 5.03516 5.74959 5.10208C5.78565 5.20981 5.9219 5.46142 6.03267 5.62485C6.11247 5.74253 6.05946 5.79831 5.88309 5.78223C5.61372 5.75766 5.24886 5.50331 5.01348 5.176Z" fill="#F2F2F2"/>
<path d="M7.76251 6.39532C7.76251 7.2405 8.2623 7.74141 9.68129 8.31848C10.6262 8.70282 11.0127 8.90154 11.3004 9.15124C11.5534 9.37087 11.7041 9.66402 11.7186 9.96515C11.7213 10.0213 11.7318 10.0626 11.7425 10.0591C11.7809 10.0465 11.926 9.71868 11.9735 9.53677C12.0337 9.30645 12.0555 8.8695 12.0184 8.63648C11.8906 7.83451 11.3547 7.24577 10.4887 6.95566C10.2162 6.86434 9.92077 6.8019 9.39592 6.72449C8.50388 6.59308 8.18166 6.49351 7.89391 6.2604C7.832 6.21023 7.77714 6.16918 7.77193 6.16918C7.76679 6.16918 7.76251 6.27095 7.76251 6.39532Z" fill="#F2F2F2"/>
<path d="M8.68507 8.55822C8.66734 8.45134 8.63648 8.31492 8.61657 8.25498L8.58037 8.14599L8.64762 8.22221C8.74072 8.32777 8.81424 8.46274 8.87655 8.64262C8.92416 8.77983 8.9295 8.82064 8.9291 9.0437C8.92877 9.26261 8.92284 9.3085 8.87892 9.43206C8.80963 9.62683 8.72365 9.76497 8.57945 9.91326C8.32025 10.1797 7.98695 10.3273 7.50608 10.3885C7.42248 10.3991 7.17885 10.417 6.96462 10.4282C6.42485 10.4566 6.06959 10.5152 5.75035 10.6284C5.70446 10.6447 5.66348 10.6546 5.65932 10.6503C5.6464 10.6374 5.86375 10.5065 6.04327 10.4192C6.29641 10.296 6.5484 10.2288 7.11298 10.1338C7.39188 10.0869 7.67989 10.03 7.75301 10.0073C8.44368 9.79345 8.79875 9.24144 8.68507 8.55822Z" fill="#F2F2F2"/>
<path d="M9.20702 8.55189C9.10376 8.92047 9.14702 9.31569 9.33559 9.72508C9.43021 9.9306 9.52456 10.0857 9.90936 10.6686C10.2404 11.17 10.4043 11.4666 10.4847 11.7097C10.616 12.1067 10.5962 12.4634 10.4225 12.8302C10.3815 12.9169 10.354 12.9876 10.3613 12.9875C10.3687 12.9873 10.4366 12.9533 10.5122 12.9119C11.0285 12.6289 11.3905 12.144 11.5462 11.5266C11.5956 11.3309 11.615 10.863 11.5818 10.6685C11.5233 10.3253 11.4015 10.0438 11.2049 9.79668C10.9803 9.51441 10.65 9.26742 10.0707 8.94843C9.60652 8.69279 9.43225 8.5933 9.34542 8.53422C9.3017 8.50455 9.25726 8.48022 9.24658 8.48022C9.23583 8.48022 9.2181 8.51246 9.20702 8.55189Z" fill="#F2F2F2"/>
<path d="M4.00578 11.9338C4.53236 11.4847 5.18754 11.1657 5.78434 11.0678C6.04155 11.0255 6.47001 11.0423 6.7082 11.1039C7.08996 11.2026 7.43144 11.4236 7.60907 11.6869C7.78268 11.9443 7.85712 12.1686 7.93466 12.6676C7.96526 12.8645 7.99849 13.0622 8.00858 13.107C8.0668 13.3656 8.18007 13.5723 8.32052 13.6761C8.54351 13.841 8.92752 13.8512 9.30526 13.7024C9.36942 13.6772 9.42507 13.6597 9.42896 13.6636C9.44267 13.6774 9.25245 13.806 9.11827 13.8737C8.93767 13.9648 8.79413 14 8.60332 14C8.25735 14 7.97014 13.8222 7.7304 13.4598C7.68325 13.3884 7.57723 13.1748 7.49481 12.9849C7.24175 12.4019 7.1168 12.2243 6.82299 12.0299C6.56726 11.8608 6.23749 11.8305 5.9894 11.9534C5.66352 12.1148 5.57259 12.5354 5.806 12.802C5.89876 12.9079 6.07175 12.9993 6.2132 13.0171C6.47784 13.0503 6.70523 12.847 6.70523 12.5771C6.70523 12.4019 6.63857 12.3019 6.47071 12.2253C6.24146 12.1209 5.99502 12.243 5.9962 12.4605C5.99671 12.5533 6.0367 12.6116 6.12876 12.6537C6.18782 12.6806 6.18919 12.6828 6.14104 12.6727C5.93067 12.6286 5.88139 12.3725 6.05053 12.2024C6.25359 11.9983 6.67352 12.0883 6.81765 12.367C6.87825 12.4841 6.8853 12.7172 6.83249 12.8579C6.71426 13.173 6.36963 13.3386 6.02 13.2485C5.78196 13.1871 5.68504 13.1206 5.39805 12.8221C4.89935 12.3032 4.70575 12.2026 3.98679 12.0893L3.84901 12.0675L4.00578 11.9338Z" fill="#F2F2F2"/>
<path d="M5.3378 6.78093C5.16652 6.83407 5.00003 7.01744 4.94849 7.20971C4.91705 7.32701 4.93489 7.53273 4.98198 7.59629C5.05807 7.69888 5.13164 7.72592 5.33087 7.72453C5.72093 7.72176 6.06001 7.55277 6.09943 7.34158C6.13174 7.16837 5.98282 6.92843 5.77769 6.82306C5.67184 6.76873 5.44672 6.74717 5.3378 6.78093Z" fill="#F2F2F2"/>
</svg>
