<svg width="153" height="44" viewBox="0 0 153 44" fill="none" xmlns="http://www.w3.org/2000/svg">
<rect x="0.75" y="0.5" width="151" height="43" rx="21.5" stroke="url(#paint0_linear_423_4687)" stroke-opacity="0.8"/>
<g clip-path="url(#clip0_423_4687)">
<rect x="24.25" y="12" width="20" height="20" rx="4" fill="#195AF4"/>
<path d="M36.5353 23.7672L39.4375 21.917V19.6367L33.1171 23.8715L39.4375 28.0184V25.7979L36.5361 23.9785L36.3686 23.8735L36.5353 23.7672Z" fill="#F2F2F2" stroke="#195AF4" stroke-width="0.25"/>
<path d="M31.9647 20.1147L29.0625 18.2645V15.9842L35.3829 20.219L29.0625 24.3659V22.1454L31.9639 20.326L32.1314 20.221L31.9647 20.1147Z" fill="#F2F2F2" stroke="#195AF4" stroke-width="0.25"/>
</g>
<path d="M55.1648 26.208H58.2688C59.7888 26.208 60.6368 25.6 60.6368 24.464C60.6368 23.328 59.8048 22.672 58.2688 22.672H55.1648V26.208ZM55.1648 21.216H57.7728C59.3888 21.216 60.2688 20.608 60.2688 19.552C60.2688 18.432 59.4528 17.904 57.7728 17.904H55.1648V21.216ZM53.3408 27.776V16.336H57.9168C60.8128 16.336 62.1888 17.28 62.1888 19.408C62.1888 20.736 61.3408 21.664 59.8848 21.856C61.4688 22.08 62.5408 23.024 62.5408 24.624C62.5408 26.72 61.1168 27.776 58.4128 27.776H53.3408Z" fill="#F2F2F2"/>
<path d="M63.8926 27.776V16.016H65.6686V27.776H63.8926Z" fill="#F2F2F2"/>
<path d="M68.9376 23.44C68.9376 25.248 69.8816 26.448 71.4656 26.448C73.0496 26.448 73.9776 25.248 73.9776 23.44C73.9776 21.648 73.0496 20.448 71.4656 20.448C69.8816 20.448 68.9376 21.648 68.9376 23.44ZM67.1136 23.44C67.1136 20.752 68.8416 18.912 71.4656 18.912C74.0896 18.912 75.8176 20.752 75.8176 23.44C75.8176 26.144 74.0896 27.984 71.4656 27.984C68.8416 27.984 67.1136 26.144 67.1136 23.44Z" fill="#F2F2F2"/>
<path d="M77.0117 23.44C77.0117 20.736 78.7237 18.912 81.3477 18.912C83.5717 18.912 85.1397 20.224 85.5237 22.24H83.6517C83.3637 21.136 82.5637 20.448 81.3637 20.448C79.7637 20.448 78.8357 21.632 78.8357 23.44C78.8357 25.248 79.7637 26.448 81.3637 26.448C82.6277 26.448 83.4437 25.68 83.6837 24.48H85.5557C85.2197 26.608 83.6197 27.984 81.3477 27.984C78.7237 27.984 77.0117 26.144 77.0117 23.44Z" fill="#F2F2F2"/>
<path d="M86.9154 27.776V16.016H88.6914V22.816L92.8354 19.12H95.1714L91.3314 22.56L95.3154 27.776H93.1554L90.0674 23.648L88.6914 24.896V27.776H86.9154Z" fill="#F2F2F2"/>
<path d="M96.2846 27.776V16.336H103.997V17.936H98.1086V21.408H103.725V22.976H98.1086V27.776H96.2846Z" fill="#F2F2F2"/>
<path d="M105.447 27.776V19.12H107.223V27.776H105.447ZM105.399 18.016V16.112H107.287V18.016H105.399Z" fill="#F2F2F2"/>
<path d="M108.969 27.776V19.12H110.617L110.681 20.896C111.017 19.664 111.785 19.12 112.937 19.12H113.897V20.976H112.857C111.449 20.976 110.777 21.728 110.777 23.12V27.776H108.969Z" fill="#F2F2F2"/>
<path d="M114.481 24.912H116.305C116.385 25.92 117.105 26.544 118.529 26.544C119.569 26.544 120.401 26.192 120.401 25.376C120.401 24.48 119.425 24.32 118.049 24.112C116.513 23.856 114.689 23.504 114.689 21.6C114.689 20 116.001 18.912 118.241 18.912C120.609 18.912 121.905 20.16 122.081 21.872H120.273C120.161 20.928 119.393 20.352 118.209 20.352C117.105 20.352 116.529 20.848 116.529 21.456C116.529 22.32 117.569 22.512 118.785 22.704C120.449 22.992 122.241 23.328 122.241 25.28C122.241 27.104 120.657 27.984 118.529 27.984C116.001 27.984 114.577 26.736 114.481 24.912Z" fill="#F2F2F2"/>
<path d="M124.132 24.784V20.656H122.756V19.12H124.132V16.928H125.94V19.12H128.996V20.656H125.94V24.768C125.94 25.968 126.436 26.384 127.668 26.384C128.02 26.384 128.516 26.352 128.996 26.24V27.792C128.308 27.904 127.716 27.968 127.204 27.968C125.124 27.968 124.132 26.976 124.132 24.784Z" fill="#F2F2F2"/>
<defs>
<linearGradient id="paint0_linear_423_4687" x1="-14.25" y1="44" x2="159.75" y2="5.5" gradientUnits="userSpaceOnUse">
<stop stop-color="#195AF4"/>
<stop offset="0.491762" stop-color="#19F4DE"/>
<stop offset="1" stop-color="#F49119"/>
</linearGradient>
<clipPath id="clip0_423_4687">
<rect width="20" height="20" fill="white" transform="translate(24.25 12)"/>
</clipPath>
</defs>
</svg>
