<svg width="478" height="142" viewBox="0 0 478 142" fill="none" xmlns="http://www.w3.org/2000/svg">
<g clip-path="url(#clip0_4497_32677)">
<rect width="478" height="142" fill="#01050D"/>
<g clip-path="url(#clip1_4497_32677)">
<g style="mix-blend-mode:soft-light" opacity="0.7">
<path d="M91.0697 -27.3672H75.6328V-11.9303M91.0697 -27.3672V-11.9303M91.0697 -27.3672H106.507M91.0697 -11.9303H75.6328M91.0697 -11.9303V3.5066M91.0697 -11.9303H106.507M75.6328 -11.9303V3.5066M91.0697 3.5066H75.6328M91.0697 3.5066V18.9435M91.0697 3.5066H106.507M75.6328 3.5066V18.9435M91.0697 18.9435H75.6328M91.0697 18.9435V34.3804M91.0697 18.9435H106.507M75.6328 18.9435V34.3804M91.0697 34.3804H75.6328M91.0697 34.3804V49.8173M91.0697 34.3804H106.507M75.6328 34.3804V49.8173M91.0697 49.8173H75.6328M91.0697 49.8173V65.2542M91.0697 49.8173H106.507M75.6328 49.8173V65.2542M91.0697 65.2542H75.6328M91.0697 65.2542V80.6911M91.0697 65.2542H106.507M75.6328 65.2542V80.6911M91.0697 80.6911H75.6328M91.0697 80.6911V96.1279M91.0697 80.6911H106.507M75.6328 80.6911V96.1279M91.0697 96.1279H75.6328M91.0697 96.1279V111.565M91.0697 96.1279H106.507M75.6328 96.1279V111.565M91.0697 111.565H75.6328M91.0697 111.565V127.002M91.0697 111.565H106.507M75.6328 111.565V127.002M91.0697 127.002H75.6328M91.0697 127.002V142.439M91.0697 127.002H106.507M75.6328 127.002V142.439M91.0697 142.439H75.6328M91.0697 142.439V157.876M91.0697 142.439H106.507M75.6328 142.439V157.876M91.0697 157.876H75.6328M91.0697 157.876V173.312M91.0697 157.876H106.507M75.6328 157.876V173.312M91.0697 173.312H75.6328M91.0697 173.312V188.749M91.0697 173.312H106.507M75.6328 173.312V188.749M91.0697 188.749H75.6328M91.0697 188.749V204.186M91.0697 188.749H106.507M75.6328 188.749V204.186M91.0697 204.186H75.6328M91.0697 204.186V219.623M91.0697 204.186H106.507M75.6328 204.186V219.623M91.0697 219.623H75.6328M91.0697 219.623V235.06M91.0697 219.623H106.507M75.6328 219.623V235.06M91.0697 235.06H75.6328M91.0697 235.06V250.497M91.0697 235.06H106.507M75.6328 235.06V250.497M91.0697 250.497H75.6328M91.0697 250.497V265.934M91.0697 250.497H106.507M75.6328 250.497V265.934M91.0697 265.934H75.6328M91.0697 265.934V281.371M91.0697 265.934H106.507M75.6328 265.934V281.371H91.0697M91.0697 281.371H106.507M106.507 -27.3672V-11.9303M106.507 -27.3672H121.943M106.507 -11.9303V3.5066M106.507 -11.9303H121.943M106.507 3.5066V18.9435M106.507 3.5066H121.943M106.507 18.9435V34.3804M106.507 18.9435H121.943M106.507 34.3804V49.8173M106.507 34.3804H121.943M106.507 49.8173V65.2542M106.507 49.8173H121.943M106.507 65.2542V80.6911M106.507 65.2542H121.943M106.507 80.6911V96.1279M106.507 80.6911H121.943M106.507 96.1279V111.565M106.507 96.1279H121.943M106.507 111.565V127.002M106.507 111.565H121.943M106.507 127.002V142.439M106.507 127.002H121.943M106.507 142.439V157.876M106.507 142.439H121.943M106.507 157.876V173.312M106.507 157.876H121.943M106.507 173.312V188.749M106.507 173.312H121.943M106.507 188.749V204.186M106.507 188.749H121.943M106.507 204.186V219.623M106.507 204.186H121.943M106.507 219.623V235.06M106.507 219.623H121.943M106.507 235.06V250.497M106.507 235.06H121.943M106.507 250.497V265.934M106.507 250.497H121.943M106.507 265.934V281.371M106.507 265.934H121.943M106.507 281.371H121.943M121.943 -27.3672V-11.9303M121.943 -27.3672H137.38M121.943 -11.9303V3.5066M121.943 -11.9303H137.38M121.943 3.5066V18.9435M121.943 3.5066H137.38M121.943 18.9435V34.3804M121.943 18.9435H137.38M121.943 34.3804V49.8173M121.943 34.3804H137.38M121.943 49.8173V65.2542M121.943 49.8173H137.38M121.943 65.2542V80.6911M121.943 65.2542H137.38M121.943 80.6911V96.1279M121.943 80.6911H137.38M121.943 96.1279V111.565M121.943 96.1279H137.38M121.943 111.565V127.002M121.943 111.565H137.38M121.943 127.002V142.439M121.943 127.002H137.38M121.943 142.439V157.876M121.943 142.439H137.38M121.943 157.876V173.312M121.943 157.876H137.38M121.943 173.312V188.749M121.943 173.312H137.38M121.943 188.749V204.186M121.943 188.749H137.38M121.943 204.186V219.623M121.943 204.186H137.38M121.943 219.623V235.06M121.943 219.623H137.38M121.943 235.06V250.497M121.943 235.06H137.38M121.943 250.497V265.934M121.943 250.497H137.38M121.943 265.934V281.371M121.943 265.934H137.38M121.943 281.371H137.38M137.38 -27.3672V-11.9303M137.38 -27.3672H152.817M137.38 -11.9303V3.5066M137.38 -11.9303H152.817M137.38 3.5066V18.9435M137.38 3.5066H152.817M137.38 18.9435V34.3804M137.38 18.9435H152.817M137.38 34.3804V49.8173M137.38 34.3804H152.817M137.38 49.8173V65.2542M137.38 49.8173H152.817M137.38 65.2542V80.6911M137.38 65.2542H152.817M137.38 80.6911V96.1279M137.38 80.6911H152.817M137.38 96.1279V111.565M137.38 96.1279H152.817M137.38 111.565V127.002M137.38 111.565H152.817M137.38 127.002V142.439M137.38 127.002H152.817M137.38 142.439V157.876M137.38 142.439H152.817M137.38 157.876V173.312M137.38 157.876H152.817M137.38 173.312V188.749M137.38 173.312H152.817M137.38 188.749V204.186M137.38 188.749H152.817M137.38 204.186V219.623M137.38 204.186H152.817M137.38 219.623V235.06M137.38 219.623H152.817M137.38 235.06V250.497M137.38 235.06H152.817M137.38 250.497V265.934M137.38 250.497H152.817M137.38 265.934V281.371M137.38 265.934H152.817M137.38 281.371H152.817M152.817 -27.3672V-11.9303M152.817 -27.3672H168.254M152.817 -11.9303V3.5066M152.817 -11.9303H168.254M152.817 3.5066V18.9435M152.817 3.5066H168.254M152.817 18.9435V34.3804M152.817 18.9435H168.254M152.817 34.3804V49.8173M152.817 34.3804H168.254M152.817 49.8173V65.2542M152.817 49.8173H168.254M152.817 65.2542V80.6911M152.817 65.2542H168.254M152.817 80.6911V96.1279M152.817 80.6911H168.254M152.817 96.1279V111.565M152.817 96.1279H168.254M152.817 111.565V127.002M152.817 111.565H168.254M152.817 127.002V142.439M152.817 127.002H168.254M152.817 142.439V157.876M152.817 142.439H168.254M152.817 157.876V173.312M152.817 157.876H168.254M152.817 173.312V188.749M152.817 173.312H168.254M152.817 188.749V204.186M152.817 188.749H168.254M152.817 204.186V219.623M152.817 204.186H168.254M152.817 219.623V235.06M152.817 219.623H168.254M152.817 235.06V250.497M152.817 235.06H168.254M152.817 250.497V265.934M152.817 250.497H168.254M152.817 265.934V281.371M152.817 265.934H168.254M152.817 281.371H168.254M168.254 -27.3672V-11.9303M168.254 -27.3672H183.691M168.254 -11.9303V3.5066M168.254 -11.9303H183.691M168.254 3.5066V18.9435M168.254 3.5066H183.691M168.254 18.9435V34.3804M168.254 18.9435H183.691M168.254 34.3804V49.8173M168.254 34.3804H183.691M168.254 49.8173V65.2542M168.254 49.8173H183.691M168.254 65.2542V80.6911M168.254 65.2542H183.691M168.254 80.6911V96.1279M168.254 80.6911H183.691M168.254 96.1279V111.565M168.254 96.1279H183.691M168.254 111.565V127.002M168.254 111.565H183.691M168.254 127.002V142.439M168.254 127.002H183.691M168.254 142.439V157.876M168.254 142.439H183.691M168.254 157.876V173.312M168.254 157.876H183.691M168.254 173.312V188.749M168.254 173.312H183.691M168.254 188.749V204.186M168.254 188.749H183.691M168.254 204.186V219.623M168.254 204.186H183.691M168.254 219.623V235.06M168.254 219.623H183.691M168.254 235.06V250.497M168.254 235.06H183.691M168.254 250.497V265.934M168.254 250.497H183.691M168.254 265.934V281.371M168.254 265.934H183.691M168.254 281.371H183.691M183.691 -27.3672V-11.9303M183.691 -27.3672H199.128M183.691 -11.9303V3.5066M183.691 -11.9303H199.128M183.691 3.5066V18.9435M183.691 3.5066H199.128M183.691 18.9435V34.3804M183.691 18.9435H199.128M183.691 34.3804V49.8173M183.691 34.3804H199.128M183.691 49.8173V65.2542M183.691 49.8173H199.128M183.691 65.2542V80.6911M183.691 65.2542H199.128M183.691 80.6911V96.1279M183.691 80.6911H199.128M183.691 96.1279V111.565M183.691 96.1279H199.128M183.691 111.565V127.002M183.691 111.565H199.128M183.691 127.002V142.439M183.691 127.002H199.128M183.691 142.439V157.876M183.691 142.439H199.128M183.691 157.876V173.312M183.691 157.876H199.128M183.691 173.312V188.749M183.691 173.312H199.128M183.691 188.749V204.186M183.691 188.749H199.128M183.691 204.186V219.623M183.691 204.186H199.128M183.691 219.623V235.06M183.691 219.623H199.128M183.691 235.06V250.497M183.691 235.06H199.128M183.691 250.497V265.934M183.691 250.497H199.128M183.691 265.934V281.371M183.691 265.934H199.128M183.691 281.371H199.128M199.128 -27.3672V-11.9303M199.128 -27.3672H214.565M199.128 -11.9303V3.5066M199.128 -11.9303H214.565M199.128 3.5066V18.9435M199.128 3.5066H214.565M199.128 18.9435V34.3804M199.128 18.9435H214.565M199.128 34.3804V49.8173M199.128 34.3804H214.565M199.128 49.8173V65.2542M199.128 49.8173H214.565M199.128 65.2542V80.6911M199.128 65.2542H214.565M199.128 80.6911V96.1279M199.128 80.6911H214.565M199.128 96.1279V111.565M199.128 96.1279H214.565M199.128 111.565V127.002M199.128 111.565H214.565M199.128 127.002V142.439M199.128 127.002H214.565M199.128 142.439V157.876M199.128 142.439H214.565M199.128 157.876V173.312M199.128 157.876H214.565M199.128 173.312V188.749M199.128 173.312H214.565M199.128 188.749V204.186M199.128 188.749H214.565M199.128 204.186V219.623M199.128 204.186H214.565M199.128 219.623V235.06M199.128 219.623H214.565M199.128 235.06V250.497M199.128 235.06H214.565M199.128 250.497V265.934M199.128 250.497H214.565M199.128 265.934V281.371M199.128 265.934H214.565M199.128 281.371H214.565M214.565 -27.3672V-11.9303M214.565 -27.3672H230.002M214.565 -11.9303V3.5066M214.565 -11.9303H230.002M214.565 3.5066V18.9435M214.565 3.5066H230.002M214.565 18.9435V34.3804M214.565 18.9435H230.002M214.565 34.3804V49.8173M214.565 34.3804H230.002M214.565 49.8173V65.2542M214.565 49.8173H230.002M214.565 65.2542V80.6911M214.565 65.2542H230.002M214.565 80.6911V96.1279M214.565 80.6911H230.002M214.565 96.1279V111.565M214.565 96.1279H230.002M214.565 111.565V127.002M214.565 111.565H230.002M214.565 127.002V142.439M214.565 127.002H230.002M214.565 142.439V157.876M214.565 142.439H230.002M214.565 157.876V173.312M214.565 157.876H230.002M214.565 173.312V188.749M214.565 173.312H230.002M214.565 188.749V204.186M214.565 188.749H230.002M214.565 204.186V219.623M214.565 204.186H230.002M214.565 219.623V235.06M214.565 219.623H230.002M214.565 235.06V250.497M214.565 235.06H230.002M214.565 250.497V265.934M214.565 250.497H230.002M214.565 265.934V281.371M214.565 265.934H230.002M214.565 281.371H230.002M230.002 -27.3672V-11.9303M230.002 -27.3672H245.439M230.002 -11.9303V3.5066M230.002 -11.9303H245.439M230.002 3.5066V18.9435M230.002 3.5066H245.439M230.002 18.9435V34.3804M230.002 18.9435H245.439M230.002 34.3804V49.8173M230.002 34.3804H245.439M230.002 49.8173V65.2542M230.002 49.8173H245.439M230.002 65.2542V80.6911M230.002 65.2542H245.439M230.002 80.6911V96.1279M230.002 80.6911H245.439M230.002 96.1279V111.565M230.002 96.1279H245.439M230.002 111.565V127.002M230.002 111.565H245.439M230.002 127.002V142.439M230.002 127.002H245.439M230.002 142.439V157.876M230.002 142.439H245.439M230.002 157.876V173.312M230.002 157.876H245.439M230.002 173.312V188.749M230.002 173.312H245.439M230.002 188.749V204.186M230.002 188.749H245.439M230.002 204.186V219.623M230.002 204.186H245.439M230.002 219.623V235.06M230.002 219.623H245.439M230.002 235.06V250.497M230.002 235.06H245.439M230.002 250.497V265.934M230.002 250.497H245.439M230.002 265.934V281.371M230.002 265.934H245.439M230.002 281.371H245.439M245.439 -27.3672V-11.9303M245.439 -27.3672H260.876M245.439 -11.9303V3.5066M245.439 -11.9303H260.876M245.439 3.5066V18.9435M245.439 3.5066H260.876M245.439 18.9435V34.3804M245.439 18.9435H260.876M245.439 34.3804V49.8173M245.439 34.3804H260.876M245.439 49.8173V65.2542M245.439 49.8173H260.876M245.439 65.2542V80.6911M245.439 65.2542H260.876M245.439 80.6911V96.1279M245.439 80.6911H260.876M245.439 96.1279V111.565M245.439 96.1279H260.876M245.439 111.565V127.002M245.439 111.565H260.876M245.439 127.002V142.439M245.439 127.002H260.876M245.439 142.439V157.876M245.439 142.439H260.876M245.439 157.876V173.312M245.439 157.876H260.876M245.439 173.312V188.749M245.439 173.312H260.876M245.439 188.749V204.186M245.439 188.749H260.876M245.439 204.186V219.623M245.439 204.186H260.876M245.439 219.623V235.06M245.439 219.623H260.876M245.439 235.06V250.497M245.439 235.06H260.876M245.439 250.497V265.934M245.439 250.497H260.876M245.439 265.934V281.371M245.439 265.934H260.876M245.439 281.371H260.876M260.876 -27.3672V-11.9303M260.876 -27.3672H276.312M260.876 -11.9303V3.5066M260.876 -11.9303H276.312M260.876 3.5066V18.9435M260.876 3.5066H276.312M260.876 18.9435V34.3804M260.876 18.9435H276.312M260.876 34.3804V49.8173M260.876 34.3804H276.312M260.876 49.8173V65.2542M260.876 49.8173H276.312M260.876 65.2542V80.6911M260.876 65.2542H276.312M260.876 80.6911V96.1279M260.876 80.6911H276.312M260.876 96.1279V111.565M260.876 96.1279H276.312M260.876 111.565V127.002M260.876 111.565H276.312M260.876 127.002V142.439M260.876 127.002H276.312M260.876 142.439V157.876M260.876 142.439H276.312M260.876 157.876V173.312M260.876 157.876H276.312M260.876 173.312V188.749M260.876 173.312H276.312M260.876 188.749V204.186M260.876 188.749H276.312M260.876 204.186V219.623M260.876 204.186H276.312M260.876 219.623V235.06M260.876 219.623H276.312M260.876 235.06V250.497M260.876 235.06H276.312M260.876 250.497V265.934M260.876 250.497H276.312M260.876 265.934V281.371M260.876 265.934H276.312M260.876 281.371H276.312M276.312 -27.3672V-11.9303M276.312 -27.3672H291.749M276.312 -11.9303V3.5066M276.312 -11.9303H291.749M276.312 3.5066V18.9435M276.312 3.5066H291.749M276.312 18.9435V34.3804M276.312 18.9435H291.749M276.312 34.3804V49.8173M276.312 34.3804H291.749M276.312 49.8173V65.2542M276.312 49.8173H291.749M276.312 65.2542V80.6911M276.312 65.2542H291.749M276.312 80.6911V96.1279M276.312 80.6911H291.749M276.312 96.1279V111.565M276.312 96.1279H291.749M276.312 111.565V127.002M276.312 111.565H291.749M276.312 127.002V142.439M276.312 127.002H291.749M276.312 142.439V157.876M276.312 142.439H291.749M276.312 157.876V173.312M276.312 157.876H291.749M276.312 173.312V188.749M276.312 173.312H291.749M276.312 188.749V204.186M276.312 188.749H291.749M276.312 204.186V219.623M276.312 204.186H291.749M276.312 219.623V235.06M276.312 219.623H291.749M276.312 235.06V250.497M276.312 235.06H291.749M276.312 250.497V265.934M276.312 250.497H291.749M276.312 265.934V281.371M276.312 265.934H291.749M276.312 281.371H291.749M291.749 -27.3672V-11.9303M291.749 -27.3672H307.186M291.749 -11.9303V3.5066M291.749 -11.9303H307.186M291.749 3.5066V18.9435M291.749 3.5066H307.186M291.749 18.9435V34.3804M291.749 18.9435H307.186M291.749 34.3804V49.8173M291.749 34.3804H307.186M291.749 49.8173V65.2542M291.749 49.8173H307.186M291.749 65.2542V80.6911M291.749 65.2542H307.186M291.749 80.6911V96.1279M291.749 80.6911H307.186M291.749 96.1279V111.565M291.749 96.1279H307.186M291.749 111.565V127.002M291.749 111.565H307.186M291.749 127.002V142.439M291.749 127.002H307.186M291.749 142.439V157.876M291.749 142.439H307.186M291.749 157.876V173.312M291.749 157.876H307.186M291.749 173.312V188.749M291.749 173.312H307.186M291.749 188.749V204.186M291.749 188.749H307.186M291.749 204.186V219.623M291.749 204.186H307.186M291.749 219.623V235.06M291.749 219.623H307.186M291.749 235.06V250.497M291.749 235.06H307.186M291.749 250.497V265.934M291.749 250.497H307.186M291.749 265.934V281.371M291.749 265.934H307.186M291.749 281.371H307.186M307.186 -27.3672V-11.9303M307.186 -27.3672H322.623M307.186 -11.9303V3.5066M307.186 -11.9303H322.623M307.186 3.5066V18.9435M307.186 3.5066H322.623M307.186 18.9435V34.3804M307.186 18.9435H322.623M307.186 34.3804V49.8173M307.186 34.3804H322.623M307.186 49.8173V65.2542M307.186 49.8173H322.623M307.186 65.2542V80.6911M307.186 65.2542H322.623M307.186 80.6911V96.1279M307.186 80.6911H322.623M307.186 96.1279V111.565M307.186 96.1279H322.623M307.186 111.565V127.002M307.186 111.565H322.623M307.186 127.002V142.439M307.186 127.002H322.623M307.186 142.439V157.876M307.186 142.439H322.623M307.186 157.876V173.312M307.186 157.876H322.623M307.186 173.312V188.749M307.186 173.312H322.623M307.186 188.749V204.186M307.186 188.749H322.623M307.186 204.186V219.623M307.186 204.186H322.623M307.186 219.623V235.06M307.186 219.623H322.623M307.186 235.06V250.497M307.186 235.06H322.623M307.186 250.497V265.934M307.186 250.497H322.623M307.186 265.934V281.371M307.186 265.934H322.623M307.186 281.371H322.623M322.623 -27.3672V-11.9303M322.623 -27.3672H338.06M322.623 -11.9303V3.5066M322.623 -11.9303H338.06M322.623 3.5066V18.9435M322.623 3.5066H338.06M322.623 18.9435V34.3804M322.623 18.9435H338.06M322.623 34.3804V49.8173M322.623 34.3804H338.06M322.623 49.8173V65.2542M322.623 49.8173H338.06M322.623 65.2542V80.6911M322.623 65.2542H338.06M322.623 80.6911V96.1279M322.623 80.6911H338.06M322.623 96.1279V111.565M322.623 96.1279H338.06M322.623 111.565V127.002M322.623 111.565H338.06M322.623 127.002V142.439M322.623 127.002H338.06M322.623 142.439V157.876M322.623 142.439H338.06M322.623 157.876V173.312M322.623 157.876H338.06M322.623 173.312V188.749M322.623 173.312H338.06M322.623 188.749V204.186M322.623 188.749H338.06M322.623 204.186V219.623M322.623 204.186H338.06M322.623 219.623V235.06M322.623 219.623H338.06M322.623 235.06V250.497M322.623 235.06H338.06M322.623 250.497V265.934M322.623 250.497H338.06M322.623 265.934V281.371M322.623 265.934H338.06M322.623 281.371H338.06M338.06 -27.3672V-11.9303M338.06 -27.3672H353.497M338.06 -11.9303V3.5066M338.06 -11.9303H353.497M338.06 3.5066V18.9435M338.06 3.5066H353.497M338.06 18.9435V34.3804M338.06 18.9435H353.497M338.06 34.3804V49.8173M338.06 34.3804H353.497M338.06 49.8173V65.2542M338.06 49.8173H353.497M338.06 65.2542V80.6911M338.06 65.2542H353.497M338.06 80.6911V96.1279M338.06 80.6911H353.497M338.06 96.1279V111.565M338.06 96.1279H353.497M338.06 111.565V127.002M338.06 111.565H353.497M338.06 127.002V142.439M338.06 127.002H353.497M338.06 142.439V157.876M338.06 142.439H353.497M338.06 157.876V173.312M338.06 157.876H353.497M338.06 173.312V188.749M338.06 173.312H353.497M338.06 188.749V204.186M338.06 188.749H353.497M338.06 204.186V219.623M338.06 204.186H353.497M338.06 219.623V235.06M338.06 219.623H353.497M338.06 235.06V250.497M338.06 235.06H353.497M338.06 250.497V265.934M338.06 250.497H353.497M338.06 265.934V281.371M338.06 265.934H353.497M338.06 281.371H353.497M353.497 -27.3672V-11.9303M353.497 -27.3672H368.934M353.497 -11.9303V3.5066M353.497 -11.9303H368.934M353.497 3.5066V18.9435M353.497 3.5066H368.934M353.497 18.9435V34.3804M353.497 18.9435H368.934M353.497 34.3804V49.8173M353.497 34.3804H368.934M353.497 49.8173V65.2542M353.497 49.8173H368.934M353.497 65.2542V80.6911M353.497 65.2542H368.934M353.497 80.6911V96.1279M353.497 80.6911H368.934M353.497 96.1279V111.565M353.497 96.1279H368.934M353.497 111.565V127.002M353.497 111.565H368.934M353.497 127.002V142.439M353.497 127.002H368.934M353.497 142.439V157.876M353.497 142.439H368.934M353.497 157.876V173.312M353.497 157.876H368.934M353.497 173.312V188.749M353.497 173.312H368.934M353.497 188.749V204.186M353.497 188.749H368.934M353.497 204.186V219.623M353.497 204.186H368.934M353.497 219.623V235.06M353.497 219.623H368.934M353.497 235.06V250.497M353.497 235.06H368.934M353.497 250.497V265.934M353.497 250.497H368.934M353.497 265.934V281.371M353.497 265.934H368.934M353.497 281.371H368.934M368.934 -27.3672V-11.9303M368.934 -27.3672H384.371M368.934 -11.9303V3.5066M368.934 -11.9303H384.371M368.934 3.5066V18.9435M368.934 3.5066H384.371M368.934 18.9435V34.3804M368.934 18.9435H384.371M368.934 34.3804V49.8173M368.934 34.3804H384.371M368.934 49.8173V65.2542M368.934 49.8173H384.371M368.934 65.2542V80.6911M368.934 65.2542H384.371M368.934 80.6911V96.1279M368.934 80.6911H384.371M368.934 96.1279V111.565M368.934 96.1279H384.371M368.934 111.565V127.002M368.934 111.565H384.371M368.934 127.002V142.439M368.934 127.002H384.371M368.934 142.439V157.876M368.934 142.439H384.371M368.934 157.876V173.312M368.934 157.876H384.371M368.934 173.312V188.749M368.934 173.312H384.371M368.934 188.749V204.186M368.934 188.749H384.371M368.934 204.186V219.623M368.934 204.186H384.371M368.934 219.623V235.06M368.934 219.623H384.371M368.934 235.06V250.497M368.934 235.06H384.371M368.934 250.497V265.934M368.934 250.497H384.371M368.934 265.934V281.371M368.934 265.934H384.371M368.934 281.371H384.371M384.371 -27.3672V-11.9303M384.371 -27.3672H399.808M384.371 -11.9303V3.5066M384.371 -11.9303H399.808M384.371 3.5066V18.9435M384.371 3.5066H399.808M384.371 18.9435V34.3804M384.371 18.9435H399.808M384.371 34.3804V49.8173M384.371 34.3804H399.808M384.371 49.8173V65.2542M384.371 49.8173H399.808M384.371 65.2542V80.6911M384.371 65.2542H399.808M384.371 80.6911V96.1279M384.371 80.6911H399.808M384.371 96.1279V111.565M384.371 96.1279H399.808M384.371 111.565V127.002M384.371 111.565H399.808M384.371 127.002V142.439M384.371 127.002H399.808M384.371 142.439V157.876M384.371 142.439H399.808M384.371 157.876V173.312M384.371 157.876H399.808M384.371 173.312V188.749M384.371 173.312H399.808M384.371 188.749V204.186M384.371 188.749H399.808M384.371 204.186V219.623M384.371 204.186H399.808M384.371 219.623V235.06M384.371 219.623H399.808M384.371 235.06V250.497M384.371 235.06H399.808M384.371 250.497V265.934M384.371 250.497H399.808M384.371 265.934V281.371M384.371 265.934H399.808M384.371 281.371H399.808M399.808 -27.3672V-11.9303M399.808 -27.3672H415.244M399.808 -11.9303V3.5066M399.808 -11.9303H415.244M399.808 3.5066V18.9435M399.808 3.5066H415.244M399.808 18.9435V34.3804M399.808 18.9435H415.244M399.808 34.3804V49.8173M399.808 34.3804H415.244M399.808 49.8173V65.2542M399.808 49.8173H415.244M399.808 65.2542V80.6911M399.808 65.2542H415.244M399.808 80.6911V96.1279M399.808 80.6911H415.244M399.808 96.1279V111.565M399.808 96.1279H415.244M399.808 111.565V127.002M399.808 111.565H415.244M399.808 127.002V142.439M399.808 127.002H415.244M399.808 142.439V157.876M399.808 142.439H415.244M399.808 157.876V173.312M399.808 157.876H415.244M399.808 173.312V188.749M399.808 173.312H415.244M399.808 188.749V204.186M399.808 188.749H415.244M399.808 204.186V219.623M399.808 204.186H415.244M399.808 219.623V235.06M399.808 219.623H415.244M399.808 235.06V250.497M399.808 235.06H415.244M399.808 250.497V265.934M399.808 250.497H415.244M399.808 265.934V281.371M399.808 265.934H415.244M399.808 281.371H415.244M415.244 -27.3672V-11.9303M415.244 -27.3672H430.681M415.244 -11.9303V3.5066M415.244 -11.9303H430.681M415.244 3.5066V18.9435M415.244 3.5066H430.681M415.244 18.9435V34.3804M415.244 18.9435H430.681M415.244 34.3804V49.8173M415.244 34.3804H430.681M415.244 49.8173V65.2542M415.244 49.8173H430.681M415.244 65.2542V80.6911M415.244 65.2542H430.681M415.244 80.6911V96.1279M415.244 80.6911H430.681M415.244 96.1279V111.565M415.244 96.1279H430.681M415.244 111.565V127.002M415.244 111.565H430.681M415.244 127.002V142.439M415.244 127.002H430.681M415.244 142.439V157.876M415.244 142.439H430.681M415.244 157.876V173.312M415.244 157.876H430.681M415.244 173.312V188.749M415.244 173.312H430.681M415.244 188.749V204.186M415.244 188.749H430.681M415.244 204.186V219.623M415.244 204.186H430.681M415.244 219.623V235.06M415.244 219.623H430.681M415.244 235.06V250.497M415.244 235.06H430.681M415.244 250.497V265.934M415.244 250.497H430.681M415.244 265.934V281.371M415.244 265.934H430.681M415.244 281.371H430.681M430.681 -27.3672V-11.9303M430.681 -27.3672H446.118M430.681 -11.9303V3.5066M430.681 -11.9303H446.118M430.681 3.5066V18.9435M430.681 3.5066H446.118M430.681 18.9435V34.3804M430.681 18.9435H446.118M430.681 34.3804V49.8173M430.681 34.3804H446.118M430.681 49.8173V65.2542M430.681 49.8173H446.118M430.681 65.2542V80.6911M430.681 65.2542H446.118M430.681 80.6911V96.1279M430.681 80.6911H446.118M430.681 96.1279V111.565M430.681 96.1279H446.118M430.681 111.565V127.002M430.681 111.565H446.118M430.681 127.002V142.439M430.681 127.002H446.118M430.681 142.439V157.876M430.681 142.439H446.118M430.681 157.876V173.312M430.681 157.876H446.118M430.681 173.312V188.749M430.681 173.312H446.118M430.681 188.749V204.186M430.681 188.749H446.118M430.681 204.186V219.623M430.681 204.186H446.118M430.681 219.623V235.06M430.681 219.623H446.118M430.681 235.06V250.497M430.681 235.06H446.118M430.681 250.497V265.934M430.681 250.497H446.118M430.681 265.934V281.371M430.681 265.934H446.118M430.681 281.371H446.118M446.118 -27.3672V-11.9303M446.118 -27.3672H461.555M446.118 -11.9303V3.5066M446.118 -11.9303H461.555M446.118 3.5066V18.9435M446.118 3.5066H461.555M446.118 18.9435V34.3804M446.118 18.9435H461.555M446.118 34.3804V49.8173M446.118 34.3804H461.555M446.118 49.8173V65.2542M446.118 49.8173H461.555M446.118 65.2542V80.6911M446.118 65.2542H461.555M446.118 80.6911V96.1279M446.118 80.6911H461.555M446.118 96.1279V111.565M446.118 96.1279H461.555M446.118 111.565V127.002M446.118 111.565H461.555M446.118 127.002V142.439M446.118 127.002H461.555M446.118 142.439V157.876M446.118 142.439H461.555M446.118 157.876V173.312M446.118 157.876H461.555M446.118 173.312V188.749M446.118 173.312H461.555M446.118 188.749V204.186M446.118 188.749H461.555M446.118 204.186V219.623M446.118 204.186H461.555M446.118 219.623V235.06M446.118 219.623H461.555M446.118 235.06V250.497M446.118 235.06H461.555M446.118 250.497V265.934M446.118 250.497H461.555M446.118 265.934V281.371M446.118 265.934H461.555M446.118 281.371H461.555M461.555 -27.3672V-11.9303M461.555 -27.3672H476.992M461.555 -11.9303V3.5066M461.555 -11.9303H476.992M461.555 3.5066V18.9435M461.555 3.5066H476.992M461.555 18.9435V34.3804M461.555 18.9435H476.992M461.555 34.3804V49.8173M461.555 34.3804H476.992M461.555 49.8173V65.2542M461.555 49.8173H476.992M461.555 65.2542V80.6911M461.555 65.2542H476.992M461.555 80.6911V96.1279M461.555 80.6911H476.992M461.555 96.1279V111.565M461.555 96.1279H476.992M461.555 111.565V127.002M461.555 111.565H476.992M461.555 127.002V142.439M461.555 127.002H476.992M461.555 142.439V157.876M461.555 142.439H476.992M461.555 157.876V173.312M461.555 157.876H476.992M461.555 173.312V188.749M461.555 173.312H476.992M461.555 188.749V204.186M461.555 188.749H476.992M461.555 204.186V219.623M461.555 204.186H476.992M461.555 219.623V235.06M461.555 219.623H476.992M461.555 235.06V250.497M461.555 235.06H476.992M461.555 250.497V265.934M461.555 250.497H476.992M461.555 265.934V281.371M461.555 265.934H476.992M461.555 281.371H476.992M476.992 -27.3672V-11.9303M476.992 -27.3672H492.429M476.992 -11.9303V3.5066M476.992 -11.9303H492.429M476.992 3.5066V18.9435M476.992 3.5066H492.429M476.992 18.9435V34.3804M476.992 18.9435H492.429M476.992 34.3804V49.8173M476.992 34.3804H492.429M476.992 49.8173V65.2542M476.992 49.8173H492.429M476.992 65.2542V80.6911M476.992 65.2542H492.429M476.992 80.6911V96.1279M476.992 80.6911H492.429M476.992 96.1279V111.565M476.992 96.1279H492.429M476.992 111.565V127.002M476.992 111.565H492.429M476.992 127.002V142.439M476.992 127.002H492.429M476.992 142.439V157.876M476.992 142.439H492.429M476.992 157.876V173.312M476.992 157.876H492.429M476.992 173.312V188.749M476.992 173.312H492.429M476.992 188.749V204.186M476.992 188.749H492.429M476.992 204.186V219.623M476.992 204.186H492.429M476.992 219.623V235.06M476.992 219.623H492.429M476.992 235.06V250.497M476.992 235.06H492.429M476.992 250.497V265.934M476.992 250.497H492.429M476.992 265.934V281.371M476.992 265.934H492.429M476.992 281.371H492.429M492.429 -27.3672V-11.9303M492.429 -27.3672H507.866M492.429 -11.9303V3.5066M492.429 -11.9303H507.866M492.429 3.5066V18.9435M492.429 3.5066H507.866M492.429 18.9435V34.3804M492.429 18.9435H507.866M492.429 34.3804V49.8173M492.429 34.3804H507.866M492.429 49.8173V65.2542M492.429 49.8173H507.866M492.429 65.2542V80.6911M492.429 65.2542H507.866M492.429 80.6911V96.1279M492.429 80.6911H507.866M492.429 96.1279V111.565M492.429 96.1279H507.866M492.429 111.565V127.002M492.429 111.565H507.866M492.429 127.002V142.439M492.429 127.002H507.866M492.429 142.439V157.876M492.429 142.439H507.866M492.429 157.876V173.312M492.429 157.876H507.866M492.429 173.312V188.749M492.429 173.312H507.866M492.429 188.749V204.186M492.429 188.749H507.866M492.429 204.186V219.623M492.429 204.186H507.866M492.429 219.623V235.06M492.429 219.623H507.866M492.429 235.06V250.497M492.429 235.06H507.866M492.429 250.497V265.934M492.429 250.497H507.866M492.429 265.934V281.371M492.429 265.934H507.866M492.429 281.371H507.866M507.866 -27.3672V-11.9303M507.866 -27.3672H523.303M507.866 -11.9303V3.5066M507.866 -11.9303H523.303M507.866 3.5066V18.9435M507.866 3.5066H523.303M507.866 18.9435V34.3804M507.866 18.9435H523.303M507.866 34.3804V49.8173M507.866 34.3804H523.303M507.866 49.8173V65.2542M507.866 49.8173H523.303M507.866 65.2542V80.6911M507.866 65.2542H523.303M507.866 80.6911V96.1279M507.866 80.6911H523.303M507.866 96.1279V111.565M507.866 96.1279H523.303M507.866 111.565V127.002M507.866 111.565H523.303M507.866 127.002V142.439M507.866 127.002H523.303M507.866 142.439V157.876M507.866 142.439H523.303M507.866 157.876V173.312M507.866 157.876H523.303M507.866 173.312V188.749M507.866 173.312H523.303M507.866 188.749V204.186M507.866 188.749H523.303M507.866 204.186V219.623M507.866 204.186H523.303M507.866 219.623V235.06M507.866 219.623H523.303M507.866 235.06V250.497M507.866 235.06H523.303M507.866 250.497V265.934M507.866 250.497H523.303M507.866 265.934V281.371M507.866 265.934H523.303M507.866 281.371H523.303M523.303 -27.3672V-11.9303M523.303 -27.3672H538.74M523.303 -11.9303V3.5066M523.303 -11.9303H538.74M523.303 3.5066V18.9435M523.303 3.5066H538.74M523.303 18.9435V34.3804M523.303 18.9435H538.74M523.303 34.3804V49.8173M523.303 34.3804H538.74M523.303 49.8173V65.2542M523.303 49.8173H538.74M523.303 65.2542V80.6911M523.303 65.2542H538.74M523.303 80.6911V96.1279M523.303 80.6911H538.74M523.303 96.1279V111.565M523.303 96.1279H538.74M523.303 111.565V127.002M523.303 111.565H538.74M523.303 127.002V142.439M523.303 127.002H538.74M523.303 142.439V157.876M523.303 142.439H538.74M523.303 157.876V173.312M523.303 157.876H538.74M523.303 173.312V188.749M523.303 173.312H538.74M523.303 188.749V204.186M523.303 188.749H538.74M523.303 204.186V219.623M523.303 204.186H538.74M523.303 219.623V235.06M523.303 219.623H538.74M523.303 235.06V250.497M523.303 235.06H538.74M523.303 250.497V265.934M523.303 250.497H538.74M523.303 265.934V281.371M523.303 265.934H538.74M523.303 281.371H538.74M538.74 -27.3672V-11.9303M538.74 -27.3672H554.176M538.74 -11.9303V3.5066M538.74 -11.9303H554.176M538.74 3.5066V18.9435M538.74 3.5066H554.176M538.74 18.9435V34.3804M538.74 18.9435H554.176M538.74 34.3804V49.8173M538.74 34.3804H554.176M538.74 49.8173V65.2542M538.74 49.8173H554.176M538.74 65.2542V80.6911M538.74 65.2542H554.176M538.74 80.6911V96.1279M538.74 80.6911H554.176M538.74 96.1279V111.565M538.74 96.1279H554.176M538.74 111.565V127.002M538.74 111.565H554.176M538.74 127.002V142.439M538.74 127.002H554.176M538.74 142.439V157.876M538.74 142.439H554.176M538.74 157.876V173.312M538.74 157.876H554.176M538.74 173.312V188.749M538.74 173.312H554.176M538.74 188.749V204.186M538.74 188.749H554.176M538.74 204.186V219.623M538.74 204.186H554.176M538.74 219.623V235.06M538.74 219.623H554.176M538.74 235.06V250.497M538.74 235.06H554.176M538.74 250.497V265.934M538.74 250.497H554.176M538.74 265.934V281.371M538.74 265.934H554.176M538.74 281.371H554.176M554.176 -27.3672V-11.9303M554.176 -27.3672H569.613M554.176 -11.9303V3.5066M554.176 -11.9303H569.613M554.176 3.5066V18.9435M554.176 3.5066H569.613M554.176 18.9435V34.3804M554.176 18.9435H569.613M554.176 34.3804V49.8173M554.176 34.3804H569.613M554.176 49.8173V65.2542M554.176 49.8173H569.613M554.176 65.2542V80.6911M554.176 65.2542H569.613M554.176 80.6911V96.1279M554.176 80.6911H569.613M554.176 96.1279V111.565M554.176 96.1279H569.613M554.176 111.565V127.002M554.176 111.565H569.613M554.176 127.002V142.439M554.176 127.002H569.613M554.176 142.439V157.876M554.176 142.439H569.613M554.176 157.876V173.312M554.176 157.876H569.613M554.176 173.312V188.749M554.176 173.312H569.613M554.176 188.749V204.186M554.176 188.749H569.613M554.176 204.186V219.623M554.176 204.186H569.613M554.176 219.623V235.06M554.176 219.623H569.613M554.176 235.06V250.497M554.176 235.06H569.613M554.176 250.497V265.934M554.176 250.497H569.613M554.176 265.934V281.371M554.176 265.934H569.613M554.176 281.371H569.613M569.613 -27.3672V-11.9303M569.613 -27.3672H585.05M569.613 -11.9303V3.5066M569.613 -11.9303H585.05M569.613 3.5066V18.9435M569.613 3.5066H585.05M569.613 18.9435V34.3804M569.613 18.9435H585.05M569.613 34.3804V49.8173M569.613 34.3804H585.05M569.613 49.8173V65.2542M569.613 49.8173H585.05M569.613 65.2542V80.6911M569.613 65.2542H585.05M569.613 80.6911V96.1279M569.613 80.6911H585.05M569.613 96.1279V111.565M569.613 96.1279H585.05M569.613 111.565V127.002M569.613 111.565H585.05M569.613 127.002V142.439M569.613 127.002H585.05M569.613 142.439V157.876M569.613 142.439H585.05M569.613 157.876V173.312M569.613 157.876H585.05M569.613 173.312V188.749M569.613 173.312H585.05M569.613 188.749V204.186M569.613 188.749H585.05M569.613 204.186V219.623M569.613 204.186H585.05M569.613 219.623V235.06M569.613 219.623H585.05M569.613 235.06V250.497M569.613 235.06H585.05M569.613 250.497V265.934M569.613 250.497H585.05M569.613 265.934V281.371M569.613 265.934H585.05M569.613 281.371H585.05M585.05 -27.3672V-11.9303M585.05 -27.3672H600.487M585.05 -11.9303V3.5066M585.05 -11.9303H600.487M585.05 3.5066V18.9435M585.05 3.5066H600.487M585.05 18.9435V34.3804M585.05 18.9435H600.487M585.05 34.3804V49.8173M585.05 34.3804H600.487M585.05 49.8173V65.2542M585.05 49.8173H600.487M585.05 65.2542V80.6911M585.05 65.2542H600.487M585.05 80.6911V96.1279M585.05 80.6911H600.487M585.05 96.1279V111.565M585.05 96.1279H600.487M585.05 111.565V127.002M585.05 111.565H600.487M585.05 127.002V142.439M585.05 127.002H600.487M585.05 142.439V157.876M585.05 142.439H600.487M585.05 157.876V173.312M585.05 157.876H600.487M585.05 173.312V188.749M585.05 173.312H600.487M585.05 188.749V204.186M585.05 188.749H600.487M585.05 204.186V219.623M585.05 204.186H600.487M585.05 219.623V235.06M585.05 219.623H600.487M585.05 235.06V250.497M585.05 235.06H600.487M585.05 250.497V265.934M585.05 250.497H600.487M585.05 265.934V281.371M585.05 265.934H600.487M585.05 281.371H600.487M600.487 -27.3672V-11.9303M600.487 -27.3672H615.924M600.487 -11.9303V3.5066M600.487 -11.9303H615.924M600.487 3.5066V18.9435M600.487 3.5066H615.924M600.487 18.9435V34.3804M600.487 18.9435H615.924M600.487 34.3804V49.8173M600.487 34.3804H615.924M600.487 49.8173V65.2542M600.487 49.8173H615.924M600.487 65.2542V80.6911M600.487 65.2542H615.924M600.487 80.6911V96.1279M600.487 80.6911H615.924M600.487 96.1279V111.565M600.487 96.1279H615.924M600.487 111.565V127.002M600.487 111.565H615.924M600.487 127.002V142.439M600.487 127.002H615.924M600.487 142.439V157.876M600.487 142.439H615.924M600.487 157.876V173.312M600.487 157.876H615.924M600.487 173.312V188.749M600.487 173.312H615.924M600.487 188.749V204.186M600.487 188.749H615.924M600.487 204.186V219.623M600.487 204.186H615.924M600.487 219.623V235.06M600.487 219.623H615.924M600.487 235.06V250.497M600.487 235.06H615.924M600.487 250.497V265.934M600.487 250.497H615.924M600.487 265.934V281.371M600.487 265.934H615.924M600.487 281.371H615.924M615.924 -27.3672V-11.9303M615.924 -27.3672H631.361M615.924 -11.9303V3.5066M615.924 -11.9303H631.361M615.924 3.5066V18.9435M615.924 3.5066H631.361M615.924 18.9435V34.3804M615.924 18.9435H631.361M615.924 34.3804V49.8173M615.924 34.3804H631.361M615.924 49.8173V65.2542M615.924 49.8173H631.361M615.924 65.2542V80.6911M615.924 65.2542H631.361M615.924 80.6911V96.1279M615.924 80.6911H631.361M615.924 96.1279V111.565M615.924 96.1279H631.361M615.924 111.565V127.002M615.924 111.565H631.361M615.924 127.002V142.439M615.924 127.002H631.361M615.924 142.439V157.876M615.924 142.439H631.361M615.924 157.876V173.312M615.924 157.876H631.361M615.924 173.312V188.749M615.924 173.312H631.361M615.924 188.749V204.186M615.924 188.749H631.361M615.924 204.186V219.623M615.924 204.186H631.361M615.924 219.623V235.06M615.924 219.623H631.361M615.924 235.06V250.497M615.924 235.06H631.361M615.924 250.497V265.934M615.924 250.497H631.361M615.924 265.934V281.371M615.924 265.934H631.361M615.924 281.371H631.361M631.361 -27.3672V-11.9303M631.361 -27.3672H646.798M631.361 -11.9303V3.5066M631.361 -11.9303H646.798M631.361 3.5066V18.9435M631.361 3.5066H646.798M631.361 18.9435V34.3804M631.361 18.9435H646.798M631.361 34.3804V49.8173M631.361 34.3804H646.798M631.361 49.8173V65.2542M631.361 49.8173H646.798M631.361 65.2542V80.6911M631.361 65.2542H646.798M631.361 80.6911V96.1279M631.361 80.6911H646.798M631.361 96.1279V111.565M631.361 96.1279H646.798M631.361 111.565V127.002M631.361 111.565H646.798M631.361 127.002V142.439M631.361 127.002H646.798M631.361 142.439V157.876M631.361 142.439H646.798M631.361 157.876V173.312M631.361 157.876H646.798M631.361 173.312V188.749M631.361 173.312H646.798M631.361 188.749V204.186M631.361 188.749H646.798M631.361 204.186V219.623M631.361 204.186H646.798M631.361 219.623V235.06M631.361 219.623H646.798M631.361 235.06V250.497M631.361 235.06H646.798M631.361 250.497V265.934M631.361 250.497H646.798M631.361 265.934V281.371M631.361 265.934H646.798M631.361 281.371H646.798M646.798 -27.3672V-11.9303M646.798 -27.3672H662.235M646.798 -11.9303V3.5066M646.798 -11.9303H662.235M646.798 3.5066V18.9435M646.798 3.5066H662.235M646.798 18.9435V34.3804M646.798 18.9435H662.235M646.798 34.3804V49.8173M646.798 34.3804H662.235M646.798 49.8173V65.2542M646.798 49.8173H662.235M646.798 65.2542V80.6911M646.798 65.2542H662.235M646.798 80.6911V96.1279M646.798 80.6911H662.235M646.798 96.1279V111.565M646.798 96.1279H662.235M646.798 111.565V127.002M646.798 111.565H662.235M646.798 127.002V142.439M646.798 127.002H662.235M646.798 142.439V157.876M646.798 142.439H662.235M646.798 157.876V173.312M646.798 157.876H662.235M646.798 173.312V188.749M646.798 173.312H662.235M646.798 188.749V204.186M646.798 188.749H662.235M646.798 204.186V219.623M646.798 204.186H662.235M646.798 219.623V235.06M646.798 219.623H662.235M646.798 235.06V250.497M646.798 235.06H662.235M646.798 250.497V265.934M646.798 250.497H662.235M646.798 265.934V281.371M646.798 265.934H662.235M646.798 281.371H662.235M662.235 -27.3672V-11.9303M662.235 -27.3672H677.672M662.235 -11.9303V3.5066M662.235 -11.9303H677.672M662.235 3.5066V18.9435M662.235 3.5066H677.672M662.235 18.9435V34.3804M662.235 18.9435H677.672M662.235 34.3804V49.8173M662.235 34.3804H677.672M662.235 49.8173V65.2542M662.235 49.8173H677.672M662.235 65.2542V80.6911M662.235 65.2542H677.672M662.235 80.6911V96.1279M662.235 80.6911H677.672M662.235 96.1279V111.565M662.235 96.1279H677.672M662.235 111.565V127.002M662.235 111.565H677.672M662.235 127.002V142.439M662.235 127.002H677.672M662.235 142.439V157.876M662.235 142.439H677.672M662.235 157.876V173.312M662.235 157.876H677.672M662.235 173.312V188.749M662.235 173.312H677.672M662.235 188.749V204.186M662.235 188.749H677.672M662.235 204.186V219.623M662.235 204.186H677.672M662.235 219.623V235.06M662.235 219.623H677.672M662.235 235.06V250.497M662.235 235.06H677.672M662.235 250.497V265.934M662.235 250.497H677.672M662.235 265.934V281.371M662.235 265.934H677.672M662.235 281.371H677.672M677.672 -27.3672V-11.9303M677.672 -27.3672H693.109M677.672 -11.9303V3.5066M677.672 -11.9303H693.109M677.672 3.5066V18.9435M677.672 3.5066H693.109M677.672 18.9435V34.3804M677.672 18.9435H693.109M677.672 34.3804V49.8173M677.672 34.3804H693.109M677.672 49.8173V65.2542M677.672 49.8173H693.109M677.672 65.2542V80.6911M677.672 65.2542H693.109M677.672 80.6911V96.1279M677.672 80.6911H693.109M677.672 96.1279V111.565M677.672 96.1279H693.109M677.672 111.565V127.002M677.672 111.565H693.109M677.672 127.002V142.439M677.672 127.002H693.109M677.672 142.439V157.876M677.672 142.439H693.109M677.672 157.876V173.312M677.672 157.876H693.109M677.672 173.312V188.749M677.672 173.312H693.109M677.672 188.749V204.186M677.672 188.749H693.109M677.672 204.186V219.623M677.672 204.186H693.109M677.672 219.623V235.06M677.672 219.623H693.109M677.672 235.06V250.497M677.672 235.06H693.109M677.672 250.497V265.934M677.672 250.497H693.109M677.672 265.934V281.371M677.672 265.934H693.109M677.672 281.371H693.109M693.109 -27.3672V-11.9303M693.109 -27.3672H708.545M693.109 -11.9303V3.5066M693.109 -11.9303H708.545M693.109 3.5066V18.9435M693.109 3.5066H708.545M693.109 18.9435V34.3804M693.109 18.9435H708.545M693.109 34.3804V49.8173M693.109 34.3804H708.545M693.109 49.8173V65.2542M693.109 49.8173H708.545M693.109 65.2542V80.6911M693.109 65.2542H708.545M693.109 80.6911V96.1279M693.109 80.6911H708.545M693.109 96.1279V111.565M693.109 96.1279H708.545M693.109 111.565V127.002M693.109 111.565H708.545M693.109 127.002V142.439M693.109 127.002H708.545M693.109 142.439V157.876M693.109 142.439H708.545M693.109 157.876V173.312M693.109 157.876H708.545M693.109 173.312V188.749M693.109 173.312H708.545M693.109 188.749V204.186M693.109 188.749H708.545M693.109 204.186V219.623M693.109 204.186H708.545M693.109 219.623V235.06M693.109 219.623H708.545M693.109 235.06V250.497M693.109 235.06H708.545M693.109 250.497V265.934M693.109 250.497H708.545M693.109 265.934V281.371M693.109 265.934H708.545M693.109 281.371H708.545M708.545 -27.3672V-11.9303M708.545 -27.3672H723.982M708.545 -11.9303V3.5066M708.545 -11.9303H723.982M708.545 3.5066V18.9435M708.545 3.5066H723.982M708.545 18.9435V34.3804M708.545 18.9435H723.982M708.545 34.3804V49.8173M708.545 34.3804H723.982M708.545 49.8173V65.2542M708.545 49.8173H723.982M708.545 65.2542V80.6911M708.545 65.2542H723.982M708.545 80.6911V96.1279M708.545 80.6911H723.982M708.545 96.1279V111.565M708.545 96.1279H723.982M708.545 111.565V127.002M708.545 111.565H723.982M708.545 127.002V142.439M708.545 127.002H723.982M708.545 142.439V157.876M708.545 142.439H723.982M708.545 157.876V173.312M708.545 157.876H723.982M708.545 173.312V188.749M708.545 173.312H723.982M708.545 188.749V204.186M708.545 188.749H723.982M708.545 204.186V219.623M708.545 204.186H723.982M708.545 219.623V235.06M708.545 219.623H723.982M708.545 235.06V250.497M708.545 235.06H723.982M708.545 250.497V265.934M708.545 250.497H723.982M708.545 265.934V281.371M708.545 265.934H723.982M708.545 281.371H723.982M723.982 -27.3672V-11.9303M723.982 -27.3672H739.419M723.982 -11.9303V3.5066M723.982 -11.9303H739.419M723.982 3.5066V18.9435M723.982 3.5066H739.419M723.982 18.9435V34.3804M723.982 18.9435H739.419M723.982 34.3804V49.8173M723.982 34.3804H739.419M723.982 49.8173V65.2542M723.982 49.8173H739.419M723.982 65.2542V80.6911M723.982 65.2542H739.419M723.982 80.6911V96.1279M723.982 80.6911H739.419M723.982 96.1279V111.565M723.982 96.1279H739.419M723.982 111.565V127.002M723.982 111.565H739.419M723.982 127.002V142.439M723.982 127.002H739.419M723.982 142.439V157.876M723.982 142.439H739.419M723.982 157.876V173.312M723.982 157.876H739.419M723.982 173.312V188.749M723.982 173.312H739.419M723.982 188.749V204.186M723.982 188.749H739.419M723.982 204.186V219.623M723.982 204.186H739.419M723.982 219.623V235.06M723.982 219.623H739.419M723.982 235.06V250.497M723.982 235.06H739.419M723.982 250.497V265.934M723.982 250.497H739.419M723.982 265.934V281.371M723.982 265.934H739.419M723.982 281.371H739.419M739.419 -27.3672V-11.9303M739.419 -27.3672H754.856V-11.9303M739.419 -11.9303V3.5066M739.419 -11.9303H754.856M739.419 3.5066V18.9435M739.419 3.5066H754.856M739.419 18.9435V34.3804M739.419 18.9435H754.856M739.419 34.3804V49.8173M739.419 34.3804H754.856M739.419 49.8173V65.2542M739.419 49.8173H754.856M739.419 65.2542V80.6911M739.419 65.2542H754.856M739.419 80.6911V96.1279M739.419 80.6911H754.856M739.419 96.1279V111.565M739.419 96.1279H754.856M739.419 111.565V127.002M739.419 111.565H754.856M739.419 127.002V142.439M739.419 127.002H754.856M739.419 142.439V157.876M739.419 142.439H754.856M739.419 157.876V173.312M739.419 157.876H754.856M739.419 173.312V188.749M739.419 173.312H754.856M739.419 188.749V204.186M739.419 188.749H754.856M739.419 204.186V219.623M739.419 204.186H754.856M739.419 219.623V235.06M739.419 219.623H754.856M739.419 235.06V250.497M739.419 235.06H754.856M739.419 250.497V265.934M739.419 250.497H754.856M739.419 265.934V281.371M739.419 265.934H754.856M739.419 281.371H754.856V265.934M754.856 -11.9303V3.5066M754.856 3.5066V18.9435M754.856 18.9435V34.3804M754.856 34.3804V49.8173M754.856 49.8173V65.2542M754.856 65.2542V80.6911M754.856 80.6911V96.1279M754.856 96.1279V111.565M754.856 111.565V127.002M754.856 127.002V142.439M754.856 142.439V157.876M754.856 157.876V173.312M754.856 173.312V188.749M754.856 188.749V204.186M754.856 204.186V219.623M754.856 219.623V235.06M754.856 235.06V250.497M754.856 250.497V265.934" stroke="url(#paint0_radial_4497_32677)" stroke-opacity="0.5" stroke-width="0.192961"/>
</g>
<g style="mix-blend-mode:soft-light" opacity="0.8">
<path d="M152.379 60.7475V65.3786M152.379 65.3786V70.0097M152.379 65.3786H147.748M152.379 65.3786H157.01M152.379 184.243V188.874M152.379 188.874V193.505M152.379 188.874H147.748M152.379 188.874H157.01M152.379 307.738V312.369M152.379 312.369V317M152.379 312.369H147.748M152.379 312.369H157.01M275.874 184.243V188.874M275.874 188.874V193.505M275.874 188.874H271.243M275.874 188.874H280.505M275.874 307.738V312.369M275.874 312.369V317M275.874 312.369H271.243M275.874 312.369H280.505M399.369 184.243V188.874M399.369 188.874V193.505M399.369 188.874H394.738M399.369 188.874H404M399.369 307.738V312.369M399.369 312.369V317M399.369 312.369H394.738M399.369 312.369H404M522.864 60.7475V65.3786M522.864 65.3786V70.0097M522.864 65.3786H518.233M522.864 65.3786H527.495M522.864 184.243V188.874M522.864 188.874V193.505M522.864 188.874H518.233M522.864 188.874H527.495M522.864 307.738V312.369M522.864 312.369V317M522.864 312.369H518.233M522.864 312.369H527.495M646.359 60.7475V65.3786M646.359 65.3786V70.0097M646.359 65.3786H641.728M646.359 65.3786H650.99M646.359 184.243V188.874M646.359 188.874V193.505M646.359 188.874H641.728M646.359 188.874H650.99M646.359 307.738V312.369M646.359 312.369V317M646.359 312.369H641.728M646.359 312.369H650.99M769.854 60.7475V65.3786M769.854 65.3786V70.0097M769.854 65.3786H765.223M769.854 65.3786H774.485M769.854 184.243V188.874M769.854 188.874V193.505M769.854 188.874H765.223M769.854 188.874H774.485M769.854 307.738V312.369M769.854 312.369V317M769.854 312.369H765.223M769.854 312.369H774.485M152.379 -1V3.63107M152.379 3.63107V8.26214M152.379 3.63107H147.748M152.379 3.63107H157.01M152.379 122.495V127.126M152.379 127.126V131.757M152.379 127.126H147.748M152.379 127.126H157.01M152.379 245.99V250.621M152.379 250.621V255.252M152.379 250.621H147.748M152.379 250.621H157.01M275.874 -1V3.63107M275.874 3.63107V8.26214M275.874 3.63107H271.243M275.874 3.63107H280.505M275.874 245.99V250.621M275.874 250.621V255.252M275.874 250.621H271.243M275.874 250.621H280.505M399.369 245.99V250.621M399.369 250.621V255.252M399.369 250.621H394.738M399.369 250.621H404M522.864 -1V3.63107M522.864 3.63107V8.26214M522.864 3.63107H518.233M522.864 3.63107H527.495M522.864 122.495V127.126M522.864 127.126V131.757M522.864 127.126H518.233M522.864 127.126H527.495M522.864 245.99V250.621M522.864 250.621V255.252M522.864 250.621H518.233M522.864 250.621H527.495M646.359 -1V3.63107M646.359 3.63107V8.26214M646.359 3.63107H641.728M646.359 3.63107H650.99M646.359 122.495V127.126M646.359 127.126V131.757M646.359 127.126H641.728M646.359 127.126H650.99M646.359 245.99V250.621M646.359 250.621V255.252M646.359 250.621H641.728M646.359 250.621H650.99M769.854 -1V3.63107M769.854 3.63107V8.26214M769.854 3.63107H765.223M769.854 3.63107H774.485M769.854 122.495V127.126M769.854 127.126V131.757M769.854 127.126H765.223M769.854 127.126H774.485M769.854 245.99V250.621M769.854 250.621V255.252M769.854 250.621H765.223M769.854 250.621H774.485M90.6311 60.7475V65.3786M90.6311 65.3786V70.0097M90.6311 65.3786H86M90.6311 65.3786H95.2621M90.6311 184.243V188.874M90.6311 188.874V193.505M90.6311 188.874H86M90.6311 188.874H95.2621M90.6311 307.738V312.369M90.6311 312.369V317M90.6311 312.369H86M90.6311 312.369H95.2621M214.126 184.243V188.874M214.126 188.874V193.505M214.126 188.874H209.495M214.126 188.874H218.757M214.126 307.738V312.369M214.126 312.369V317M214.126 312.369H209.495M214.126 312.369H218.757M337.621 184.243V188.874M337.621 188.874V193.505M337.621 188.874H332.99M337.621 188.874H342.252M337.621 307.738V312.369M337.621 312.369V317M337.621 312.369H332.99M337.621 312.369H342.252M461.117 184.243V188.874M461.117 188.874V193.505M461.117 188.874H456.485M461.117 188.874H465.748M461.117 307.738V312.369M461.117 312.369V317M461.117 312.369H456.485M461.117 312.369H465.748M584.612 60.7475V65.3786M584.612 65.3786V70.0097M584.612 65.3786H579.981M584.612 65.3786H589.243M584.612 184.243V188.874M584.612 188.874V193.505M584.612 188.874H579.981M584.612 188.874H589.243M584.612 307.738V312.369M584.612 312.369V317M584.612 312.369H579.981M584.612 312.369H589.243M708.107 60.7475V65.3786M708.107 65.3786V70.0097M708.107 65.3786H703.476M708.107 65.3786H712.738M708.107 184.243V188.874M708.107 188.874V193.505M708.107 188.874H703.476M708.107 188.874H712.738M708.107 307.738V312.369M708.107 312.369V317M708.107 312.369H703.476M708.107 312.369H712.738M90.6311 -0.999977V3.63109M90.6311 3.63109V8.26216M90.6311 3.63109H86M90.6311 3.63109H95.2621M90.6311 122.495V127.126M90.6311 127.126V131.757M90.6311 127.126H86M90.6311 127.126H95.2621M90.6311 245.99V250.621M90.6311 250.621V255.252M90.6311 250.621H86M90.6311 250.621H95.2621M214.126 -1V3.63107M214.126 3.63107V8.26214M214.126 3.63107H209.495M214.126 3.63107H218.757M214.126 245.99V250.621M214.126 250.621V255.252M214.126 250.621H209.495M214.126 250.621H218.757M337.621 -1V3.63107M337.621 3.63107V8.26214M337.621 3.63107H332.99M337.621 3.63107H342.252M337.621 245.99V250.621M337.621 250.621V255.252M337.621 250.621H332.99M337.621 250.621H342.252M244.869 60.7475V65.3786M244.869 65.3786V70.0097M244.869 65.3786H240.238M244.869 65.3786H249.5M461.117 245.99V250.621M461.117 250.621V255.252M461.117 250.621H456.485M461.117 250.621H465.748M584.612 -1V3.63107M584.612 3.63107V8.26214M584.612 3.63107H579.981M584.612 3.63107H589.243M584.612 122.495V127.126M584.612 127.126V131.757M584.612 127.126H579.981M584.612 127.126H589.243M584.612 245.99V250.621M584.612 250.621V255.252M584.612 250.621H579.981M584.612 250.621H589.243M708.107 -1V3.63107M708.107 3.63107V8.26214M708.107 3.63107H703.476M708.107 3.63107H712.738M708.107 122.495V127.126M708.107 127.126V131.757M708.107 127.126H703.476M708.107 127.126H712.738M708.107 245.99V250.621M708.107 250.621V255.252M708.107 250.621H703.476M708.107 250.621H712.738M399.582 107.238V111.869M399.582 111.869V116.5M399.582 111.869H394.951M399.582 111.869H404.213M461.369 107.238V111.869M461.369 111.869V116.5M461.369 111.869H456.738M461.369 111.869H466" stroke="url(#paint1_radial_4497_32677)" stroke-opacity="0.5" stroke-width="0.385922"/>
</g>
</g>
</g>
<defs>
<radialGradient id="paint0_radial_4497_32677" cx="0" cy="0" r="1" gradientUnits="userSpaceOnUse" gradientTransform="translate(415.244 127.002) rotate(90.1619) scale(86.5006 190.301)">
<stop stop-color="#F2F2F2"/>
<stop offset="1" stop-color="#F2F2F2" stop-opacity="0"/>
</radialGradient>
<radialGradient id="paint1_radial_4497_32677" cx="0" cy="0" r="1" gradientUnits="userSpaceOnUse" gradientTransform="translate(430.243 158) rotate(90) scale(159 344.243)">
<stop stop-color="#F2F2F2"/>
<stop offset="1" stop-color="#F2F2F2" stop-opacity="0"/>
</radialGradient>
<clipPath id="clip0_4497_32677">
<rect width="478" height="142" fill="white"/>
</clipPath>
<clipPath id="clip1_4497_32677">
<rect width="478" height="142" fill="white"/>
</clipPath>
</defs>
</svg>
