<svg width="600" height="96" viewBox="0 0 600 96" fill="none" xmlns="http://www.w3.org/2000/svg">
<g clip-path="url(#clip0_4155_29911)">
<g style="mix-blend-mode:soft-light" opacity="0.7">
<path d="M214.07 -57.3672H198.633V-41.9303M214.07 -57.3672V-41.9303M214.07 -57.3672H229.507M214.07 -41.9303H198.633M214.07 -41.9303V-26.4934M214.07 -41.9303H229.507M198.633 -41.9303V-26.4934M214.07 -26.4934H198.633M214.07 -26.4934V-11.0565M214.07 -26.4934H229.507M198.633 -26.4934V-11.0565M214.07 -11.0565H198.633M214.07 -11.0565V4.38038M214.07 -11.0565H229.507M198.633 -11.0565V4.38038M214.07 4.38038H198.633M214.07 4.38038V19.8173M214.07 4.38038H229.507M198.633 4.38038V19.8173M214.07 19.8173H198.633M214.07 19.8173V35.2542M214.07 19.8173H229.507M198.633 19.8173V35.2542M214.07 35.2542H198.633M214.07 35.2542V50.6911M214.07 35.2542H229.507M198.633 35.2542V50.6911M214.07 50.6911H198.633M214.07 50.6911V66.1279M214.07 50.6911H229.507M198.633 50.6911V66.1279M214.07 66.1279H198.633M214.07 66.1279V81.5648M214.07 66.1279H229.507M198.633 66.1279V81.5648M214.07 81.5648H198.633M214.07 81.5648V97.0017M214.07 81.5648H229.507M198.633 81.5648V97.0017M214.07 97.0017H198.633M214.07 97.0017V112.439M214.07 97.0017H229.507M198.633 97.0017V112.439M214.07 112.439H198.633M214.07 112.439V127.876M214.07 112.439H229.507M198.633 112.439V127.876M214.07 127.876H198.633M214.07 127.876V143.312M214.07 127.876H229.507M198.633 127.876V143.312M214.07 143.312H198.633M214.07 143.312V158.749M214.07 143.312H229.507M198.633 143.312V158.749M214.07 158.749H198.633M214.07 158.749V174.186M214.07 158.749H229.507M198.633 158.749V174.186M214.07 174.186H198.633M214.07 174.186V189.623M214.07 174.186H229.507M198.633 174.186V189.623M214.07 189.623H198.633M214.07 189.623V205.06M214.07 189.623H229.507M198.633 189.623V205.06M214.07 205.06H198.633M214.07 205.06V220.497M214.07 205.06H229.507M198.633 205.06V220.497M214.07 220.497H198.633M214.07 220.497V235.934M214.07 220.497H229.507M198.633 220.497V235.934M214.07 235.934H198.633M214.07 235.934V251.371M214.07 235.934H229.507M198.633 235.934V251.371H214.07M214.07 251.371H229.507M229.507 -57.3672V-41.9303M229.507 -57.3672H244.943M229.507 -41.9303V-26.4934M229.507 -41.9303H244.943M229.507 -26.4934V-11.0565M229.507 -26.4934H244.943M229.507 -11.0565V4.38038M229.507 -11.0565H244.943M229.507 4.38038V19.8173M229.507 4.38038H244.943M229.507 19.8173V35.2542M229.507 19.8173H244.943M229.507 35.2542V50.6911M229.507 35.2542H244.943M229.507 50.6911V66.1279M229.507 50.6911H244.943M229.507 66.1279V81.5648M229.507 66.1279H244.943M229.507 81.5648V97.0017M229.507 81.5648H244.943M229.507 97.0017V112.439M229.507 97.0017H244.943M229.507 112.439V127.876M229.507 112.439H244.943M229.507 127.876V143.312M229.507 127.876H244.943M229.507 143.312V158.749M229.507 143.312H244.943M229.507 158.749V174.186M229.507 158.749H244.943M229.507 174.186V189.623M229.507 174.186H244.943M229.507 189.623V205.06M229.507 189.623H244.943M229.507 205.06V220.497M229.507 205.06H244.943M229.507 220.497V235.934M229.507 220.497H244.943M229.507 235.934V251.371M229.507 235.934H244.943M229.507 251.371H244.943M244.943 -57.3672V-41.9303M244.943 -57.3672H260.38M244.943 -41.9303V-26.4934M244.943 -41.9303H260.38M244.943 -26.4934V-11.0565M244.943 -26.4934H260.38M244.943 -11.0565V4.38038M244.943 -11.0565H260.38M244.943 4.38038V19.8173M244.943 4.38038H260.38M244.943 19.8173V35.2542M244.943 19.8173H260.38M244.943 35.2542V50.6911M244.943 35.2542H260.38M244.943 50.6911V66.1279M244.943 50.6911H260.38M244.943 66.1279V81.5648M244.943 66.1279H260.38M244.943 81.5648V97.0017M244.943 81.5648H260.38M244.943 97.0017V112.439M244.943 97.0017H260.38M244.943 112.439V127.876M244.943 112.439H260.38M244.943 127.876V143.312M244.943 127.876H260.38M244.943 143.312V158.749M244.943 143.312H260.38M244.943 158.749V174.186M244.943 158.749H260.38M244.943 174.186V189.623M244.943 174.186H260.38M244.943 189.623V205.06M244.943 189.623H260.38M244.943 205.06V220.497M244.943 205.06H260.38M244.943 220.497V235.934M244.943 220.497H260.38M244.943 235.934V251.371M244.943 235.934H260.38M244.943 251.371H260.38M260.38 -57.3672V-41.9303M260.38 -57.3672H275.817M260.38 -41.9303V-26.4934M260.38 -41.9303H275.817M260.38 -26.4934V-11.0565M260.38 -26.4934H275.817M260.38 -11.0565V4.38038M260.38 -11.0565H275.817M260.38 4.38038V19.8173M260.38 4.38038H275.817M260.38 19.8173V35.2542M260.38 19.8173H275.817M260.38 35.2542V50.6911M260.38 35.2542H275.817M260.38 50.6911V66.1279M260.38 50.6911H275.817M260.38 66.1279V81.5648M260.38 66.1279H275.817M260.38 81.5648V97.0017M260.38 81.5648H275.817M260.38 97.0017V112.439M260.38 97.0017H275.817M260.38 112.439V127.876M260.38 112.439H275.817M260.38 127.876V143.312M260.38 127.876H275.817M260.38 143.312V158.749M260.38 143.312H275.817M260.38 158.749V174.186M260.38 158.749H275.817M260.38 174.186V189.623M260.38 174.186H275.817M260.38 189.623V205.06M260.38 189.623H275.817M260.38 205.06V220.497M260.38 205.06H275.817M260.38 220.497V235.934M260.38 220.497H275.817M260.38 235.934V251.371M260.38 235.934H275.817M260.38 251.371H275.817M275.817 -57.3672V-41.9303M275.817 -57.3672H291.254M275.817 -41.9303V-26.4934M275.817 -41.9303H291.254M275.817 -26.4934V-11.0565M275.817 -26.4934H291.254M275.817 -11.0565V4.38038M275.817 -11.0565H291.254M275.817 4.38038V19.8173M275.817 4.38038H291.254M275.817 19.8173V35.2542M275.817 19.8173H291.254M275.817 35.2542V50.6911M275.817 35.2542H291.254M275.817 50.6911V66.1279M275.817 50.6911H291.254M275.817 66.1279V81.5648M275.817 66.1279H291.254M275.817 81.5648V97.0017M275.817 81.5648H291.254M275.817 97.0017V112.439M275.817 97.0017H291.254M275.817 112.439V127.876M275.817 112.439H291.254M275.817 127.876V143.312M275.817 127.876H291.254M275.817 143.312V158.749M275.817 143.312H291.254M275.817 158.749V174.186M275.817 158.749H291.254M275.817 174.186V189.623M275.817 174.186H291.254M275.817 189.623V205.06M275.817 189.623H291.254M275.817 205.06V220.497M275.817 205.06H291.254M275.817 220.497V235.934M275.817 220.497H291.254M275.817 235.934V251.371M275.817 235.934H291.254M275.817 251.371H291.254M291.254 -57.3672V-41.9303M291.254 -57.3672H306.691M291.254 -41.9303V-26.4934M291.254 -41.9303H306.691M291.254 -26.4934V-11.0565M291.254 -26.4934H306.691M291.254 -11.0565V4.38038M291.254 -11.0565H306.691M291.254 4.38038V19.8173M291.254 4.38038H306.691M291.254 19.8173V35.2542M291.254 19.8173H306.691M291.254 35.2542V50.6911M291.254 35.2542H306.691M291.254 50.6911V66.1279M291.254 50.6911H306.691M291.254 66.1279V81.5648M291.254 66.1279H306.691M291.254 81.5648V97.0017M291.254 81.5648H306.691M291.254 97.0017V112.439M291.254 97.0017H306.691M291.254 112.439V127.876M291.254 112.439H306.691M291.254 127.876V143.312M291.254 127.876H306.691M291.254 143.312V158.749M291.254 143.312H306.691M291.254 158.749V174.186M291.254 158.749H306.691M291.254 174.186V189.623M291.254 174.186H306.691M291.254 189.623V205.06M291.254 189.623H306.691M291.254 205.06V220.497M291.254 205.06H306.691M291.254 220.497V235.934M291.254 220.497H306.691M291.254 235.934V251.371M291.254 235.934H306.691M291.254 251.371H306.691M306.691 -57.3672V-41.9303M306.691 -57.3672H322.128M306.691 -41.9303V-26.4934M306.691 -41.9303H322.128M306.691 -26.4934V-11.0565M306.691 -26.4934H322.128M306.691 -11.0565V4.38038M306.691 -11.0565H322.128M306.691 4.38038V19.8173M306.691 4.38038H322.128M306.691 19.8173V35.2542M306.691 19.8173H322.128M306.691 35.2542V50.6911M306.691 35.2542H322.128M306.691 50.6911V66.1279M306.691 50.6911H322.128M306.691 66.1279V81.5648M306.691 66.1279H322.128M306.691 81.5648V97.0017M306.691 81.5648H322.128M306.691 97.0017V112.439M306.691 97.0017H322.128M306.691 112.439V127.876M306.691 112.439H322.128M306.691 127.876V143.312M306.691 127.876H322.128M306.691 143.312V158.749M306.691 143.312H322.128M306.691 158.749V174.186M306.691 158.749H322.128M306.691 174.186V189.623M306.691 174.186H322.128M306.691 189.623V205.06M306.691 189.623H322.128M306.691 205.06V220.497M306.691 205.06H322.128M306.691 220.497V235.934M306.691 220.497H322.128M306.691 235.934V251.371M306.691 235.934H322.128M306.691 251.371H322.128M322.128 -57.3672V-41.9303M322.128 -57.3672H337.565M322.128 -41.9303V-26.4934M322.128 -41.9303H337.565M322.128 -26.4934V-11.0565M322.128 -26.4934H337.565M322.128 -11.0565V4.38038M322.128 -11.0565H337.565M322.128 4.38038V19.8173M322.128 4.38038H337.565M322.128 19.8173V35.2542M322.128 19.8173H337.565M322.128 35.2542V50.6911M322.128 35.2542H337.565M322.128 50.6911V66.1279M322.128 50.6911H337.565M322.128 66.1279V81.5648M322.128 66.1279H337.565M322.128 81.5648V97.0017M322.128 81.5648H337.565M322.128 97.0017V112.439M322.128 97.0017H337.565M322.128 112.439V127.876M322.128 112.439H337.565M322.128 127.876V143.312M322.128 127.876H337.565M322.128 143.312V158.749M322.128 143.312H337.565M322.128 158.749V174.186M322.128 158.749H337.565M322.128 174.186V189.623M322.128 174.186H337.565M322.128 189.623V205.06M322.128 189.623H337.565M322.128 205.06V220.497M322.128 205.06H337.565M322.128 220.497V235.934M322.128 220.497H337.565M322.128 235.934V251.371M322.128 235.934H337.565M322.128 251.371H337.565M337.565 -57.3672V-41.9303M337.565 -57.3672H353.002M337.565 -41.9303V-26.4934M337.565 -41.9303H353.002M337.565 -26.4934V-11.0565M337.565 -26.4934H353.002M337.565 -11.0565V4.38038M337.565 -11.0565H353.002M337.565 4.38038V19.8173M337.565 4.38038H353.002M337.565 19.8173V35.2542M337.565 19.8173H353.002M337.565 35.2542V50.6911M337.565 35.2542H353.002M337.565 50.6911V66.1279M337.565 50.6911H353.002M337.565 66.1279V81.5648M337.565 66.1279H353.002M337.565 81.5648V97.0017M337.565 81.5648H353.002M337.565 97.0017V112.439M337.565 97.0017H353.002M337.565 112.439V127.876M337.565 112.439H353.002M337.565 127.876V143.312M337.565 127.876H353.002M337.565 143.312V158.749M337.565 143.312H353.002M337.565 158.749V174.186M337.565 158.749H353.002M337.565 174.186V189.623M337.565 174.186H353.002M337.565 189.623V205.06M337.565 189.623H353.002M337.565 205.06V220.497M337.565 205.06H353.002M337.565 220.497V235.934M337.565 220.497H353.002M337.565 235.934V251.371M337.565 235.934H353.002M337.565 251.371H353.002M353.002 -57.3672V-41.9303M353.002 -57.3672H368.439M353.002 -41.9303V-26.4934M353.002 -41.9303H368.439M353.002 -26.4934V-11.0565M353.002 -26.4934H368.439M353.002 -11.0565V4.38038M353.002 -11.0565H368.439M353.002 4.38038V19.8173M353.002 4.38038H368.439M353.002 19.8173V35.2542M353.002 19.8173H368.439M353.002 35.2542V50.6911M353.002 35.2542H368.439M353.002 50.6911V66.1279M353.002 50.6911H368.439M353.002 66.1279V81.5648M353.002 66.1279H368.439M353.002 81.5648V97.0017M353.002 81.5648H368.439M353.002 97.0017V112.439M353.002 97.0017H368.439M353.002 112.439V127.876M353.002 112.439H368.439M353.002 127.876V143.312M353.002 127.876H368.439M353.002 143.312V158.749M353.002 143.312H368.439M353.002 158.749V174.186M353.002 158.749H368.439M353.002 174.186V189.623M353.002 174.186H368.439M353.002 189.623V205.06M353.002 189.623H368.439M353.002 205.06V220.497M353.002 205.06H368.439M353.002 220.497V235.934M353.002 220.497H368.439M353.002 235.934V251.371M353.002 235.934H368.439M353.002 251.371H368.439M368.439 -57.3672V-41.9303M368.439 -57.3672H383.876M368.439 -41.9303V-26.4934M368.439 -41.9303H383.876M368.439 -26.4934V-11.0565M368.439 -26.4934H383.876M368.439 -11.0565V4.38038M368.439 -11.0565H383.876M368.439 4.38038V19.8173M368.439 4.38038H383.876M368.439 19.8173V35.2542M368.439 19.8173H383.876M368.439 35.2542V50.6911M368.439 35.2542H383.876M368.439 50.6911V66.1279M368.439 50.6911H383.876M368.439 66.1279V81.5648M368.439 66.1279H383.876M368.439 81.5648V97.0017M368.439 81.5648H383.876M368.439 97.0017V112.439M368.439 97.0017H383.876M368.439 112.439V127.876M368.439 112.439H383.876M368.439 127.876V143.312M368.439 127.876H383.876M368.439 143.312V158.749M368.439 143.312H383.876M368.439 158.749V174.186M368.439 158.749H383.876M368.439 174.186V189.623M368.439 174.186H383.876M368.439 189.623V205.06M368.439 189.623H383.876M368.439 205.06V220.497M368.439 205.06H383.876M368.439 220.497V235.934M368.439 220.497H383.876M368.439 235.934V251.371M368.439 235.934H383.876M368.439 251.371H383.876M383.876 -57.3672V-41.9303M383.876 -57.3672H399.312M383.876 -41.9303V-26.4934M383.876 -41.9303H399.312M383.876 -26.4934V-11.0565M383.876 -26.4934H399.312M383.876 -11.0565V4.38038M383.876 -11.0565H399.312M383.876 4.38038V19.8173M383.876 4.38038H399.312M383.876 19.8173V35.2542M383.876 19.8173H399.312M383.876 35.2542V50.6911M383.876 35.2542H399.312M383.876 50.6911V66.1279M383.876 50.6911H399.312M383.876 66.1279V81.5648M383.876 66.1279H399.312M383.876 81.5648V97.0017M383.876 81.5648H399.312M383.876 97.0017V112.439M383.876 97.0017H399.312M383.876 112.439V127.876M383.876 112.439H399.312M383.876 127.876V143.312M383.876 127.876H399.312M383.876 143.312V158.749M383.876 143.312H399.312M383.876 158.749V174.186M383.876 158.749H399.312M383.876 174.186V189.623M383.876 174.186H399.312M383.876 189.623V205.06M383.876 189.623H399.312M383.876 205.06V220.497M383.876 205.06H399.312M383.876 220.497V235.934M383.876 220.497H399.312M383.876 235.934V251.371M383.876 235.934H399.312M383.876 251.371H399.312M399.312 -57.3672V-41.9303M399.312 -57.3672H414.749M399.312 -41.9303V-26.4934M399.312 -41.9303H414.749M399.312 -26.4934V-11.0565M399.312 -26.4934H414.749M399.312 -11.0565V4.38038M399.312 -11.0565H414.749M399.312 4.38038V19.8173M399.312 4.38038H414.749M399.312 19.8173V35.2542M399.312 19.8173H414.749M399.312 35.2542V50.6911M399.312 35.2542H414.749M399.312 50.6911V66.1279M399.312 50.6911H414.749M399.312 66.1279V81.5648M399.312 66.1279H414.749M399.312 81.5648V97.0017M399.312 81.5648H414.749M399.312 97.0017V112.439M399.312 97.0017H414.749M399.312 112.439V127.876M399.312 112.439H414.749M399.312 127.876V143.312M399.312 127.876H414.749M399.312 143.312V158.749M399.312 143.312H414.749M399.312 158.749V174.186M399.312 158.749H414.749M399.312 174.186V189.623M399.312 174.186H414.749M399.312 189.623V205.06M399.312 189.623H414.749M399.312 205.06V220.497M399.312 205.06H414.749M399.312 220.497V235.934M399.312 220.497H414.749M399.312 235.934V251.371M399.312 235.934H414.749M399.312 251.371H414.749M414.749 -57.3672V-41.9303M414.749 -57.3672H430.186M414.749 -41.9303V-26.4934M414.749 -41.9303H430.186M414.749 -26.4934V-11.0565M414.749 -26.4934H430.186M414.749 -11.0565V4.38038M414.749 -11.0565H430.186M414.749 4.38038V19.8173M414.749 4.38038H430.186M414.749 19.8173V35.2542M414.749 19.8173H430.186M414.749 35.2542V50.6911M414.749 35.2542H430.186M414.749 50.6911V66.1279M414.749 50.6911H430.186M414.749 66.1279V81.5648M414.749 66.1279H430.186M414.749 81.5648V97.0017M414.749 81.5648H430.186M414.749 97.0017V112.439M414.749 97.0017H430.186M414.749 112.439V127.876M414.749 112.439H430.186M414.749 127.876V143.312M414.749 127.876H430.186M414.749 143.312V158.749M414.749 143.312H430.186M414.749 158.749V174.186M414.749 158.749H430.186M414.749 174.186V189.623M414.749 174.186H430.186M414.749 189.623V205.06M414.749 189.623H430.186M414.749 205.06V220.497M414.749 205.06H430.186M414.749 220.497V235.934M414.749 220.497H430.186M414.749 235.934V251.371M414.749 235.934H430.186M414.749 251.371H430.186M430.186 -57.3672V-41.9303M430.186 -57.3672H445.623M430.186 -41.9303V-26.4934M430.186 -41.9303H445.623M430.186 -26.4934V-11.0565M430.186 -26.4934H445.623M430.186 -11.0565V4.38038M430.186 -11.0565H445.623M430.186 4.38038V19.8173M430.186 4.38038H445.623M430.186 19.8173V35.2542M430.186 19.8173H445.623M430.186 35.2542V50.6911M430.186 35.2542H445.623M430.186 50.6911V66.1279M430.186 50.6911H445.623M430.186 66.1279V81.5648M430.186 66.1279H445.623M430.186 81.5648V97.0017M430.186 81.5648H445.623M430.186 97.0017V112.439M430.186 97.0017H445.623M430.186 112.439V127.876M430.186 112.439H445.623M430.186 127.876V143.312M430.186 127.876H445.623M430.186 143.312V158.749M430.186 143.312H445.623M430.186 158.749V174.186M430.186 158.749H445.623M430.186 174.186V189.623M430.186 174.186H445.623M430.186 189.623V205.06M430.186 189.623H445.623M430.186 205.06V220.497M430.186 205.06H445.623M430.186 220.497V235.934M430.186 220.497H445.623M430.186 235.934V251.371M430.186 235.934H445.623M430.186 251.371H445.623M445.623 -57.3672V-41.9303M445.623 -57.3672H461.06M445.623 -41.9303V-26.4934M445.623 -41.9303H461.06M445.623 -26.4934V-11.0565M445.623 -26.4934H461.06M445.623 -11.0565V4.38038M445.623 -11.0565H461.06M445.623 4.38038V19.8173M445.623 4.38038H461.06M445.623 19.8173V35.2542M445.623 19.8173H461.06M445.623 35.2542V50.6911M445.623 35.2542H461.06M445.623 50.6911V66.1279M445.623 50.6911H461.06M445.623 66.1279V81.5648M445.623 66.1279H461.06M445.623 81.5648V97.0017M445.623 81.5648H461.06M445.623 97.0017V112.439M445.623 97.0017H461.06M445.623 112.439V127.876M445.623 112.439H461.06M445.623 127.876V143.312M445.623 127.876H461.06M445.623 143.312V158.749M445.623 143.312H461.06M445.623 158.749V174.186M445.623 158.749H461.06M445.623 174.186V189.623M445.623 174.186H461.06M445.623 189.623V205.06M445.623 189.623H461.06M445.623 205.06V220.497M445.623 205.06H461.06M445.623 220.497V235.934M445.623 220.497H461.06M445.623 235.934V251.371M445.623 235.934H461.06M445.623 251.371H461.06M461.06 -57.3672V-41.9303M461.06 -57.3672H476.497M461.06 -41.9303V-26.4934M461.06 -41.9303H476.497M461.06 -26.4934V-11.0565M461.06 -26.4934H476.497M461.06 -11.0565V4.38038M461.06 -11.0565H476.497M461.06 4.38038V19.8173M461.06 4.38038H476.497M461.06 19.8173V35.2542M461.06 19.8173H476.497M461.06 35.2542V50.6911M461.06 35.2542H476.497M461.06 50.6911V66.1279M461.06 50.6911H476.497M461.06 66.1279V81.5648M461.06 66.1279H476.497M461.06 81.5648V97.0017M461.06 81.5648H476.497M461.06 97.0017V112.439M461.06 97.0017H476.497M461.06 112.439V127.876M461.06 112.439H476.497M461.06 127.876V143.312M461.06 127.876H476.497M461.06 143.312V158.749M461.06 143.312H476.497M461.06 158.749V174.186M461.06 158.749H476.497M461.06 174.186V189.623M461.06 174.186H476.497M461.06 189.623V205.06M461.06 189.623H476.497M461.06 205.06V220.497M461.06 205.06H476.497M461.06 220.497V235.934M461.06 220.497H476.497M461.06 235.934V251.371M461.06 235.934H476.497M461.06 251.371H476.497M476.497 -57.3672V-41.9303M476.497 -57.3672H491.934M476.497 -41.9303V-26.4934M476.497 -41.9303H491.934M476.497 -26.4934V-11.0565M476.497 -26.4934H491.934M476.497 -11.0565V4.38038M476.497 -11.0565H491.934M476.497 4.38038V19.8173M476.497 4.38038H491.934M476.497 19.8173V35.2542M476.497 19.8173H491.934M476.497 35.2542V50.6911M476.497 35.2542H491.934M476.497 50.6911V66.1279M476.497 50.6911H491.934M476.497 66.1279V81.5648M476.497 66.1279H491.934M476.497 81.5648V97.0017M476.497 81.5648H491.934M476.497 97.0017V112.439M476.497 97.0017H491.934M476.497 112.439V127.876M476.497 112.439H491.934M476.497 127.876V143.312M476.497 127.876H491.934M476.497 143.312V158.749M476.497 143.312H491.934M476.497 158.749V174.186M476.497 158.749H491.934M476.497 174.186V189.623M476.497 174.186H491.934M476.497 189.623V205.06M476.497 189.623H491.934M476.497 205.06V220.497M476.497 205.06H491.934M476.497 220.497V235.934M476.497 220.497H491.934M476.497 235.934V251.371M476.497 235.934H491.934M476.497 251.371H491.934M491.934 -57.3672V-41.9303M491.934 -57.3672H507.371M491.934 -41.9303V-26.4934M491.934 -41.9303H507.371M491.934 -26.4934V-11.0565M491.934 -26.4934H507.371M491.934 -11.0565V4.38038M491.934 -11.0565H507.371M491.934 4.38038V19.8173M491.934 4.38038H507.371M491.934 19.8173V35.2542M491.934 19.8173H507.371M491.934 35.2542V50.6911M491.934 35.2542H507.371M491.934 50.6911V66.1279M491.934 50.6911H507.371M491.934 66.1279V81.5648M491.934 66.1279H507.371M491.934 81.5648V97.0017M491.934 81.5648H507.371M491.934 97.0017V112.439M491.934 97.0017H507.371M491.934 112.439V127.876M491.934 112.439H507.371M491.934 127.876V143.312M491.934 127.876H507.371M491.934 143.312V158.749M491.934 143.312H507.371M491.934 158.749V174.186M491.934 158.749H507.371M491.934 174.186V189.623M491.934 174.186H507.371M491.934 189.623V205.06M491.934 189.623H507.371M491.934 205.06V220.497M491.934 205.06H507.371M491.934 220.497V235.934M491.934 220.497H507.371M491.934 235.934V251.371M491.934 235.934H507.371M491.934 251.371H507.371M507.371 -57.3672V-41.9303M507.371 -57.3672H522.808M507.371 -41.9303V-26.4934M507.371 -41.9303H522.808M507.371 -26.4934V-11.0565M507.371 -26.4934H522.808M507.371 -11.0565V4.38038M507.371 -11.0565H522.808M507.371 4.38038V19.8173M507.371 4.38038H522.808M507.371 19.8173V35.2542M507.371 19.8173H522.808M507.371 35.2542V50.6911M507.371 35.2542H522.808M507.371 50.6911V66.1279M507.371 50.6911H522.808M507.371 66.1279V81.5648M507.371 66.1279H522.808M507.371 81.5648V97.0017M507.371 81.5648H522.808M507.371 97.0017V112.439M507.371 97.0017H522.808M507.371 112.439V127.876M507.371 112.439H522.808M507.371 127.876V143.312M507.371 127.876H522.808M507.371 143.312V158.749M507.371 143.312H522.808M507.371 158.749V174.186M507.371 158.749H522.808M507.371 174.186V189.623M507.371 174.186H522.808M507.371 189.623V205.06M507.371 189.623H522.808M507.371 205.06V220.497M507.371 205.06H522.808M507.371 220.497V235.934M507.371 220.497H522.808M507.371 235.934V251.371M507.371 235.934H522.808M507.371 251.371H522.808M522.808 -57.3672V-41.9303M522.808 -57.3672H538.244M522.808 -41.9303V-26.4934M522.808 -41.9303H538.244M522.808 -26.4934V-11.0565M522.808 -26.4934H538.244M522.808 -11.0565V4.38038M522.808 -11.0565H538.244M522.808 4.38038V19.8173M522.808 4.38038H538.244M522.808 19.8173V35.2542M522.808 19.8173H538.244M522.808 35.2542V50.6911M522.808 35.2542H538.244M522.808 50.6911V66.1279M522.808 50.6911H538.244M522.808 66.1279V81.5648M522.808 66.1279H538.244M522.808 81.5648V97.0017M522.808 81.5648H538.244M522.808 97.0017V112.439M522.808 97.0017H538.244M522.808 112.439V127.876M522.808 112.439H538.244M522.808 127.876V143.312M522.808 127.876H538.244M522.808 143.312V158.749M522.808 143.312H538.244M522.808 158.749V174.186M522.808 158.749H538.244M522.808 174.186V189.623M522.808 174.186H538.244M522.808 189.623V205.06M522.808 189.623H538.244M522.808 205.06V220.497M522.808 205.06H538.244M522.808 220.497V235.934M522.808 220.497H538.244M522.808 235.934V251.371M522.808 235.934H538.244M522.808 251.371H538.244M538.244 -57.3672V-41.9303M538.244 -57.3672H553.681M538.244 -41.9303V-26.4934M538.244 -41.9303H553.681M538.244 -26.4934V-11.0565M538.244 -26.4934H553.681M538.244 -11.0565V4.38038M538.244 -11.0565H553.681M538.244 4.38038V19.8173M538.244 4.38038H553.681M538.244 19.8173V35.2542M538.244 19.8173H553.681M538.244 35.2542V50.6911M538.244 35.2542H553.681M538.244 50.6911V66.1279M538.244 50.6911H553.681M538.244 66.1279V81.5648M538.244 66.1279H553.681M538.244 81.5648V97.0017M538.244 81.5648H553.681M538.244 97.0017V112.439M538.244 97.0017H553.681M538.244 112.439V127.876M538.244 112.439H553.681M538.244 127.876V143.312M538.244 127.876H553.681M538.244 143.312V158.749M538.244 143.312H553.681M538.244 158.749V174.186M538.244 158.749H553.681M538.244 174.186V189.623M538.244 174.186H553.681M538.244 189.623V205.06M538.244 189.623H553.681M538.244 205.06V220.497M538.244 205.06H553.681M538.244 220.497V235.934M538.244 220.497H553.681M538.244 235.934V251.371M538.244 235.934H553.681M538.244 251.371H553.681M553.681 -57.3672V-41.9303M553.681 -57.3672H569.118M553.681 -41.9303V-26.4934M553.681 -41.9303H569.118M553.681 -26.4934V-11.0565M553.681 -26.4934H569.118M553.681 -11.0565V4.38038M553.681 -11.0565H569.118M553.681 4.38038V19.8173M553.681 4.38038H569.118M553.681 19.8173V35.2542M553.681 19.8173H569.118M553.681 35.2542V50.6911M553.681 35.2542H569.118M553.681 50.6911V66.1279M553.681 50.6911H569.118M553.681 66.1279V81.5648M553.681 66.1279H569.118M553.681 81.5648V97.0017M553.681 81.5648H569.118M553.681 97.0017V112.439M553.681 97.0017H569.118M553.681 112.439V127.876M553.681 112.439H569.118M553.681 127.876V143.312M553.681 127.876H569.118M553.681 143.312V158.749M553.681 143.312H569.118M553.681 158.749V174.186M553.681 158.749H569.118M553.681 174.186V189.623M553.681 174.186H569.118M553.681 189.623V205.06M553.681 189.623H569.118M553.681 205.06V220.497M553.681 205.06H569.118M553.681 220.497V235.934M553.681 220.497H569.118M553.681 235.934V251.371M553.681 235.934H569.118M553.681 251.371H569.118M569.118 -57.3672V-41.9303M569.118 -57.3672H584.555M569.118 -41.9303V-26.4934M569.118 -41.9303H584.555M569.118 -26.4934V-11.0565M569.118 -26.4934H584.555M569.118 -11.0565V4.38038M569.118 -11.0565H584.555M569.118 4.38038V19.8173M569.118 4.38038H584.555M569.118 19.8173V35.2542M569.118 19.8173H584.555M569.118 35.2542V50.6911M569.118 35.2542H584.555M569.118 50.6911V66.1279M569.118 50.6911H584.555M569.118 66.1279V81.5648M569.118 66.1279H584.555M569.118 81.5648V97.0017M569.118 81.5648H584.555M569.118 97.0017V112.439M569.118 97.0017H584.555M569.118 112.439V127.876M569.118 112.439H584.555M569.118 127.876V143.312M569.118 127.876H584.555M569.118 143.312V158.749M569.118 143.312H584.555M569.118 158.749V174.186M569.118 158.749H584.555M569.118 174.186V189.623M569.118 174.186H584.555M569.118 189.623V205.06M569.118 189.623H584.555M569.118 205.06V220.497M569.118 205.06H584.555M569.118 220.497V235.934M569.118 220.497H584.555M569.118 235.934V251.371M569.118 235.934H584.555M569.118 251.371H584.555M584.555 -57.3672V-41.9303M584.555 -57.3672H599.992M584.555 -41.9303V-26.4934M584.555 -41.9303H599.992M584.555 -26.4934V-11.0565M584.555 -26.4934H599.992M584.555 -11.0565V4.38038M584.555 -11.0565H599.992M584.555 4.38038V19.8173M584.555 4.38038H599.992M584.555 19.8173V35.2542M584.555 19.8173H599.992M584.555 35.2542V50.6911M584.555 35.2542H599.992M584.555 50.6911V66.1279M584.555 50.6911H599.992M584.555 66.1279V81.5648M584.555 66.1279H599.992M584.555 81.5648V97.0017M584.555 81.5648H599.992M584.555 97.0017V112.439M584.555 97.0017H599.992M584.555 112.439V127.876M584.555 112.439H599.992M584.555 127.876V143.312M584.555 127.876H599.992M584.555 143.312V158.749M584.555 143.312H599.992M584.555 158.749V174.186M584.555 158.749H599.992M584.555 174.186V189.623M584.555 174.186H599.992M584.555 189.623V205.06M584.555 189.623H599.992M584.555 205.06V220.497M584.555 205.06H599.992M584.555 220.497V235.934M584.555 220.497H599.992M584.555 235.934V251.371M584.555 235.934H599.992M584.555 251.371H599.992M599.992 -57.3672V-41.9303M599.992 -57.3672H615.429M599.992 -41.9303V-26.4934M599.992 -41.9303H615.429M599.992 -26.4934V-11.0565M599.992 -26.4934H615.429M599.992 -11.0565V4.38038M599.992 -11.0565H615.429M599.992 4.38038V19.8173M599.992 4.38038H615.429M599.992 19.8173V35.2542M599.992 19.8173H615.429M599.992 35.2542V50.6911M599.992 35.2542H615.429M599.992 50.6911V66.1279M599.992 50.6911H615.429M599.992 66.1279V81.5648M599.992 66.1279H615.429M599.992 81.5648V97.0017M599.992 81.5648H615.429M599.992 97.0017V112.439M599.992 97.0017H615.429M599.992 112.439V127.876M599.992 112.439H615.429M599.992 127.876V143.312M599.992 127.876H615.429M599.992 143.312V158.749M599.992 143.312H615.429M599.992 158.749V174.186M599.992 158.749H615.429M599.992 174.186V189.623M599.992 174.186H615.429M599.992 189.623V205.06M599.992 189.623H615.429M599.992 205.06V220.497M599.992 205.06H615.429M599.992 220.497V235.934M599.992 220.497H615.429M599.992 235.934V251.371M599.992 235.934H615.429M599.992 251.371H615.429M615.429 -57.3672V-41.9303M615.429 -57.3672H630.866M615.429 -41.9303V-26.4934M615.429 -41.9303H630.866M615.429 -26.4934V-11.0565M615.429 -26.4934H630.866M615.429 -11.0565V4.38038M615.429 -11.0565H630.866M615.429 4.38038V19.8173M615.429 4.38038H630.866M615.429 19.8173V35.2542M615.429 19.8173H630.866M615.429 35.2542V50.6911M615.429 35.2542H630.866M615.429 50.6911V66.1279M615.429 50.6911H630.866M615.429 66.1279V81.5648M615.429 66.1279H630.866M615.429 81.5648V97.0017M615.429 81.5648H630.866M615.429 97.0017V112.439M615.429 97.0017H630.866M615.429 112.439V127.876M615.429 112.439H630.866M615.429 127.876V143.312M615.429 127.876H630.866M615.429 143.312V158.749M615.429 143.312H630.866M615.429 158.749V174.186M615.429 158.749H630.866M615.429 174.186V189.623M615.429 174.186H630.866M615.429 189.623V205.06M615.429 189.623H630.866M615.429 205.06V220.497M615.429 205.06H630.866M615.429 220.497V235.934M615.429 220.497H630.866M615.429 235.934V251.371M615.429 235.934H630.866M615.429 251.371H630.866M630.866 -57.3672V-41.9303M630.866 -57.3672H646.303M630.866 -41.9303V-26.4934M630.866 -41.9303H646.303M630.866 -26.4934V-11.0565M630.866 -26.4934H646.303M630.866 -11.0565V4.38038M630.866 -11.0565H646.303M630.866 4.38038V19.8173M630.866 4.38038H646.303M630.866 19.8173V35.2542M630.866 19.8173H646.303M630.866 35.2542V50.6911M630.866 35.2542H646.303M630.866 50.6911V66.1279M630.866 50.6911H646.303M630.866 66.1279V81.5648M630.866 66.1279H646.303M630.866 81.5648V97.0017M630.866 81.5648H646.303M630.866 97.0017V112.439M630.866 97.0017H646.303M630.866 112.439V127.876M630.866 112.439H646.303M630.866 127.876V143.312M630.866 127.876H646.303M630.866 143.312V158.749M630.866 143.312H646.303M630.866 158.749V174.186M630.866 158.749H646.303M630.866 174.186V189.623M630.866 174.186H646.303M630.866 189.623V205.06M630.866 189.623H646.303M630.866 205.06V220.497M630.866 205.06H646.303M630.866 220.497V235.934M630.866 220.497H646.303M630.866 235.934V251.371M630.866 235.934H646.303M630.866 251.371H646.303M646.303 -57.3672V-41.9303M646.303 -57.3672H661.74M646.303 -41.9303V-26.4934M646.303 -41.9303H661.74M646.303 -26.4934V-11.0565M646.303 -26.4934H661.74M646.303 -11.0565V4.38038M646.303 -11.0565H661.74M646.303 4.38038V19.8173M646.303 4.38038H661.74M646.303 19.8173V35.2542M646.303 19.8173H661.74M646.303 35.2542V50.6911M646.303 35.2542H661.74M646.303 50.6911V66.1279M646.303 50.6911H661.74M646.303 66.1279V81.5648M646.303 66.1279H661.74M646.303 81.5648V97.0017M646.303 81.5648H661.74M646.303 97.0017V112.439M646.303 97.0017H661.74M646.303 112.439V127.876M646.303 112.439H661.74M646.303 127.876V143.312M646.303 127.876H661.74M646.303 143.312V158.749M646.303 143.312H661.74M646.303 158.749V174.186M646.303 158.749H661.74M646.303 174.186V189.623M646.303 174.186H661.74M646.303 189.623V205.06M646.303 189.623H661.74M646.303 205.06V220.497M646.303 205.06H661.74M646.303 220.497V235.934M646.303 220.497H661.74M646.303 235.934V251.371M646.303 235.934H661.74M646.303 251.371H661.74M661.74 -57.3672V-41.9303M661.74 -57.3672H677.176M661.74 -41.9303V-26.4934M661.74 -41.9303H677.176M661.74 -26.4934V-11.0565M661.74 -26.4934H677.176M661.74 -11.0565V4.38038M661.74 -11.0565H677.176M661.74 4.38038V19.8173M661.74 4.38038H677.176M661.74 19.8173V35.2542M661.74 19.8173H677.176M661.74 35.2542V50.6911M661.74 35.2542H677.176M661.74 50.6911V66.1279M661.74 50.6911H677.176M661.74 66.1279V81.5648M661.74 66.1279H677.176M661.74 81.5648V97.0017M661.74 81.5648H677.176M661.74 97.0017V112.439M661.74 97.0017H677.176M661.74 112.439V127.876M661.74 112.439H677.176M661.74 127.876V143.312M661.74 127.876H677.176M661.74 143.312V158.749M661.74 143.312H677.176M661.74 158.749V174.186M661.74 158.749H677.176M661.74 174.186V189.623M661.74 174.186H677.176M661.74 189.623V205.06M661.74 189.623H677.176M661.74 205.06V220.497M661.74 205.06H677.176M661.74 220.497V235.934M661.74 220.497H677.176M661.74 235.934V251.371M661.74 235.934H677.176M661.74 251.371H677.176M677.176 -57.3672V-41.9303M677.176 -57.3672H692.613M677.176 -41.9303V-26.4934M677.176 -41.9303H692.613M677.176 -26.4934V-11.0565M677.176 -26.4934H692.613M677.176 -11.0565V4.38038M677.176 -11.0565H692.613M677.176 4.38038V19.8173M677.176 4.38038H692.613M677.176 19.8173V35.2542M677.176 19.8173H692.613M677.176 35.2542V50.6911M677.176 35.2542H692.613M677.176 50.6911V66.1279M677.176 50.6911H692.613M677.176 66.1279V81.5648M677.176 66.1279H692.613M677.176 81.5648V97.0017M677.176 81.5648H692.613M677.176 97.0017V112.439M677.176 97.0017H692.613M677.176 112.439V127.876M677.176 112.439H692.613M677.176 127.876V143.312M677.176 127.876H692.613M677.176 143.312V158.749M677.176 143.312H692.613M677.176 158.749V174.186M677.176 158.749H692.613M677.176 174.186V189.623M677.176 174.186H692.613M677.176 189.623V205.06M677.176 189.623H692.613M677.176 205.06V220.497M677.176 205.06H692.613M677.176 220.497V235.934M677.176 220.497H692.613M677.176 235.934V251.371M677.176 235.934H692.613M677.176 251.371H692.613M692.613 -57.3672V-41.9303M692.613 -57.3672H708.05M692.613 -41.9303V-26.4934M692.613 -41.9303H708.05M692.613 -26.4934V-11.0565M692.613 -26.4934H708.05M692.613 -11.0565V4.38038M692.613 -11.0565H708.05M692.613 4.38038V19.8173M692.613 4.38038H708.05M692.613 19.8173V35.2542M692.613 19.8173H708.05M692.613 35.2542V50.6911M692.613 35.2542H708.05M692.613 50.6911V66.1279M692.613 50.6911H708.05M692.613 66.1279V81.5648M692.613 66.1279H708.05M692.613 81.5648V97.0017M692.613 81.5648H708.05M692.613 97.0017V112.439M692.613 97.0017H708.05M692.613 112.439V127.876M692.613 112.439H708.05M692.613 127.876V143.312M692.613 127.876H708.05M692.613 143.312V158.749M692.613 143.312H708.05M692.613 158.749V174.186M692.613 158.749H708.05M692.613 174.186V189.623M692.613 174.186H708.05M692.613 189.623V205.06M692.613 189.623H708.05M692.613 205.06V220.497M692.613 205.06H708.05M692.613 220.497V235.934M692.613 220.497H708.05M692.613 235.934V251.371M692.613 235.934H708.05M692.613 251.371H708.05M708.05 -57.3672V-41.9303M708.05 -57.3672H723.487M708.05 -41.9303V-26.4934M708.05 -41.9303H723.487M708.05 -26.4934V-11.0565M708.05 -26.4934H723.487M708.05 -11.0565V4.38038M708.05 -11.0565H723.487M708.05 4.38038V19.8173M708.05 4.38038H723.487M708.05 19.8173V35.2542M708.05 19.8173H723.487M708.05 35.2542V50.6911M708.05 35.2542H723.487M708.05 50.6911V66.1279M708.05 50.6911H723.487M708.05 66.1279V81.5648M708.05 66.1279H723.487M708.05 81.5648V97.0017M708.05 81.5648H723.487M708.05 97.0017V112.439M708.05 97.0017H723.487M708.05 112.439V127.876M708.05 112.439H723.487M708.05 127.876V143.312M708.05 127.876H723.487M708.05 143.312V158.749M708.05 143.312H723.487M708.05 158.749V174.186M708.05 158.749H723.487M708.05 174.186V189.623M708.05 174.186H723.487M708.05 189.623V205.06M708.05 189.623H723.487M708.05 205.06V220.497M708.05 205.06H723.487M708.05 220.497V235.934M708.05 220.497H723.487M708.05 235.934V251.371M708.05 235.934H723.487M708.05 251.371H723.487M723.487 -57.3672V-41.9303M723.487 -57.3672H738.924M723.487 -41.9303V-26.4934M723.487 -41.9303H738.924M723.487 -26.4934V-11.0565M723.487 -26.4934H738.924M723.487 -11.0565V4.38038M723.487 -11.0565H738.924M723.487 4.38038V19.8173M723.487 4.38038H738.924M723.487 19.8173V35.2542M723.487 19.8173H738.924M723.487 35.2542V50.6911M723.487 35.2542H738.924M723.487 50.6911V66.1279M723.487 50.6911H738.924M723.487 66.1279V81.5648M723.487 66.1279H738.924M723.487 81.5648V97.0017M723.487 81.5648H738.924M723.487 97.0017V112.439M723.487 97.0017H738.924M723.487 112.439V127.876M723.487 112.439H738.924M723.487 127.876V143.312M723.487 127.876H738.924M723.487 143.312V158.749M723.487 143.312H738.924M723.487 158.749V174.186M723.487 158.749H738.924M723.487 174.186V189.623M723.487 174.186H738.924M723.487 189.623V205.06M723.487 189.623H738.924M723.487 205.06V220.497M723.487 205.06H738.924M723.487 220.497V235.934M723.487 220.497H738.924M723.487 235.934V251.371M723.487 235.934H738.924M723.487 251.371H738.924M738.924 -57.3672V-41.9303M738.924 -57.3672H754.361M738.924 -41.9303V-26.4934M738.924 -41.9303H754.361M738.924 -26.4934V-11.0565M738.924 -26.4934H754.361M738.924 -11.0565V4.38038M738.924 -11.0565H754.361M738.924 4.38038V19.8173M738.924 4.38038H754.361M738.924 19.8173V35.2542M738.924 19.8173H754.361M738.924 35.2542V50.6911M738.924 35.2542H754.361M738.924 50.6911V66.1279M738.924 50.6911H754.361M738.924 66.1279V81.5648M738.924 66.1279H754.361M738.924 81.5648V97.0017M738.924 81.5648H754.361M738.924 97.0017V112.439M738.924 97.0017H754.361M738.924 112.439V127.876M738.924 112.439H754.361M738.924 127.876V143.312M738.924 127.876H754.361M738.924 143.312V158.749M738.924 143.312H754.361M738.924 158.749V174.186M738.924 158.749H754.361M738.924 174.186V189.623M738.924 174.186H754.361M738.924 189.623V205.06M738.924 189.623H754.361M738.924 205.06V220.497M738.924 205.06H754.361M738.924 220.497V235.934M738.924 220.497H754.361M738.924 235.934V251.371M738.924 235.934H754.361M738.924 251.371H754.361M754.361 -57.3672V-41.9303M754.361 -57.3672H769.798M754.361 -41.9303V-26.4934M754.361 -41.9303H769.798M754.361 -26.4934V-11.0565M754.361 -26.4934H769.798M754.361 -11.0565V4.38038M754.361 -11.0565H769.798M754.361 4.38038V19.8173M754.361 4.38038H769.798M754.361 19.8173V35.2542M754.361 19.8173H769.798M754.361 35.2542V50.6911M754.361 35.2542H769.798M754.361 50.6911V66.1279M754.361 50.6911H769.798M754.361 66.1279V81.5648M754.361 66.1279H769.798M754.361 81.5648V97.0017M754.361 81.5648H769.798M754.361 97.0017V112.439M754.361 97.0017H769.798M754.361 112.439V127.876M754.361 112.439H769.798M754.361 127.876V143.312M754.361 127.876H769.798M754.361 143.312V158.749M754.361 143.312H769.798M754.361 158.749V174.186M754.361 158.749H769.798M754.361 174.186V189.623M754.361 174.186H769.798M754.361 189.623V205.06M754.361 189.623H769.798M754.361 205.06V220.497M754.361 205.06H769.798M754.361 220.497V235.934M754.361 220.497H769.798M754.361 235.934V251.371M754.361 235.934H769.798M754.361 251.371H769.798M769.798 -57.3672V-41.9303M769.798 -57.3672H785.235M769.798 -41.9303V-26.4934M769.798 -41.9303H785.235M769.798 -26.4934V-11.0565M769.798 -26.4934H785.235M769.798 -11.0565V4.38038M769.798 -11.0565H785.235M769.798 4.38038V19.8173M769.798 4.38038H785.235M769.798 19.8173V35.2542M769.798 19.8173H785.235M769.798 35.2542V50.6911M769.798 35.2542H785.235M769.798 50.6911V66.1279M769.798 50.6911H785.235M769.798 66.1279V81.5648M769.798 66.1279H785.235M769.798 81.5648V97.0017M769.798 81.5648H785.235M769.798 97.0017V112.439M769.798 97.0017H785.235M769.798 112.439V127.876M769.798 112.439H785.235M769.798 127.876V143.312M769.798 127.876H785.235M769.798 143.312V158.749M769.798 143.312H785.235M769.798 158.749V174.186M769.798 158.749H785.235M769.798 174.186V189.623M769.798 174.186H785.235M769.798 189.623V205.06M769.798 189.623H785.235M769.798 205.06V220.497M769.798 205.06H785.235M769.798 220.497V235.934M769.798 220.497H785.235M769.798 235.934V251.371M769.798 235.934H785.235M769.798 251.371H785.235M785.235 -57.3672V-41.9303M785.235 -57.3672H800.672M785.235 -41.9303V-26.4934M785.235 -41.9303H800.672M785.235 -26.4934V-11.0565M785.235 -26.4934H800.672M785.235 -11.0565V4.38038M785.235 -11.0565H800.672M785.235 4.38038V19.8173M785.235 4.38038H800.672M785.235 19.8173V35.2542M785.235 19.8173H800.672M785.235 35.2542V50.6911M785.235 35.2542H800.672M785.235 50.6911V66.1279M785.235 50.6911H800.672M785.235 66.1279V81.5648M785.235 66.1279H800.672M785.235 81.5648V97.0017M785.235 81.5648H800.672M785.235 97.0017V112.439M785.235 97.0017H800.672M785.235 112.439V127.876M785.235 112.439H800.672M785.235 127.876V143.312M785.235 127.876H800.672M785.235 143.312V158.749M785.235 143.312H800.672M785.235 158.749V174.186M785.235 158.749H800.672M785.235 174.186V189.623M785.235 174.186H800.672M785.235 189.623V205.06M785.235 189.623H800.672M785.235 205.06V220.497M785.235 205.06H800.672M785.235 220.497V235.934M785.235 220.497H800.672M785.235 235.934V251.371M785.235 235.934H800.672M785.235 251.371H800.672M800.672 -57.3672V-41.9303M800.672 -57.3672H816.109M800.672 -41.9303V-26.4934M800.672 -41.9303H816.109M800.672 -26.4934V-11.0565M800.672 -26.4934H816.109M800.672 -11.0565V4.38038M800.672 -11.0565H816.109M800.672 4.38038V19.8173M800.672 4.38038H816.109M800.672 19.8173V35.2542M800.672 19.8173H816.109M800.672 35.2542V50.6911M800.672 35.2542H816.109M800.672 50.6911V66.1279M800.672 50.6911H816.109M800.672 66.1279V81.5648M800.672 66.1279H816.109M800.672 81.5648V97.0017M800.672 81.5648H816.109M800.672 97.0017V112.439M800.672 97.0017H816.109M800.672 112.439V127.876M800.672 112.439H816.109M800.672 127.876V143.312M800.672 127.876H816.109M800.672 143.312V158.749M800.672 143.312H816.109M800.672 158.749V174.186M800.672 158.749H816.109M800.672 174.186V189.623M800.672 174.186H816.109M800.672 189.623V205.06M800.672 189.623H816.109M800.672 205.06V220.497M800.672 205.06H816.109M800.672 220.497V235.934M800.672 220.497H816.109M800.672 235.934V251.371M800.672 235.934H816.109M800.672 251.371H816.109M816.109 -57.3672V-41.9303M816.109 -57.3672H831.545M816.109 -41.9303V-26.4934M816.109 -41.9303H831.545M816.109 -26.4934V-11.0565M816.109 -26.4934H831.545M816.109 -11.0565V4.38038M816.109 -11.0565H831.545M816.109 4.38038V19.8173M816.109 4.38038H831.545M816.109 19.8173V35.2542M816.109 19.8173H831.545M816.109 35.2542V50.6911M816.109 35.2542H831.545M816.109 50.6911V66.1279M816.109 50.6911H831.545M816.109 66.1279V81.5648M816.109 66.1279H831.545M816.109 81.5648V97.0017M816.109 81.5648H831.545M816.109 97.0017V112.439M816.109 97.0017H831.545M816.109 112.439V127.876M816.109 112.439H831.545M816.109 127.876V143.312M816.109 127.876H831.545M816.109 143.312V158.749M816.109 143.312H831.545M816.109 158.749V174.186M816.109 158.749H831.545M816.109 174.186V189.623M816.109 174.186H831.545M816.109 189.623V205.06M816.109 189.623H831.545M816.109 205.06V220.497M816.109 205.06H831.545M816.109 220.497V235.934M816.109 220.497H831.545M816.109 235.934V251.371M816.109 235.934H831.545M816.109 251.371H831.545M831.545 -57.3672V-41.9303M831.545 -57.3672H846.982M831.545 -41.9303V-26.4934M831.545 -41.9303H846.982M831.545 -26.4934V-11.0565M831.545 -26.4934H846.982M831.545 -11.0565V4.38038M831.545 -11.0565H846.982M831.545 4.38038V19.8173M831.545 4.38038H846.982M831.545 19.8173V35.2542M831.545 19.8173H846.982M831.545 35.2542V50.6911M831.545 35.2542H846.982M831.545 50.6911V66.1279M831.545 50.6911H846.982M831.545 66.1279V81.5648M831.545 66.1279H846.982M831.545 81.5648V97.0017M831.545 81.5648H846.982M831.545 97.0017V112.439M831.545 97.0017H846.982M831.545 112.439V127.876M831.545 112.439H846.982M831.545 127.876V143.312M831.545 127.876H846.982M831.545 143.312V158.749M831.545 143.312H846.982M831.545 158.749V174.186M831.545 158.749H846.982M831.545 174.186V189.623M831.545 174.186H846.982M831.545 189.623V205.06M831.545 189.623H846.982M831.545 205.06V220.497M831.545 205.06H846.982M831.545 220.497V235.934M831.545 220.497H846.982M831.545 235.934V251.371M831.545 235.934H846.982M831.545 251.371H846.982M846.982 -57.3672V-41.9303M846.982 -57.3672H862.419M846.982 -41.9303V-26.4934M846.982 -41.9303H862.419M846.982 -26.4934V-11.0565M846.982 -26.4934H862.419M846.982 -11.0565V4.38038M846.982 -11.0565H862.419M846.982 4.38038V19.8173M846.982 4.38038H862.419M846.982 19.8173V35.2542M846.982 19.8173H862.419M846.982 35.2542V50.6911M846.982 35.2542H862.419M846.982 50.6911V66.1279M846.982 50.6911H862.419M846.982 66.1279V81.5648M846.982 66.1279H862.419M846.982 81.5648V97.0017M846.982 81.5648H862.419M846.982 97.0017V112.439M846.982 97.0017H862.419M846.982 112.439V127.876M846.982 112.439H862.419M846.982 127.876V143.312M846.982 127.876H862.419M846.982 143.312V158.749M846.982 143.312H862.419M846.982 158.749V174.186M846.982 158.749H862.419M846.982 174.186V189.623M846.982 174.186H862.419M846.982 189.623V205.06M846.982 189.623H862.419M846.982 205.06V220.497M846.982 205.06H862.419M846.982 220.497V235.934M846.982 220.497H862.419M846.982 235.934V251.371M846.982 235.934H862.419M846.982 251.371H862.419M862.419 -57.3672V-41.9303M862.419 -57.3672H877.856V-41.9303M862.419 -41.9303V-26.4934M862.419 -41.9303H877.856M862.419 -26.4934V-11.0565M862.419 -26.4934H877.856M862.419 -11.0565V4.38038M862.419 -11.0565H877.856M862.419 4.38038V19.8173M862.419 4.38038H877.856M862.419 19.8173V35.2542M862.419 19.8173H877.856M862.419 35.2542V50.6911M862.419 35.2542H877.856M862.419 50.6911V66.1279M862.419 50.6911H877.856M862.419 66.1279V81.5648M862.419 66.1279H877.856M862.419 81.5648V97.0017M862.419 81.5648H877.856M862.419 97.0017V112.439M862.419 97.0017H877.856M862.419 112.439V127.876M862.419 112.439H877.856M862.419 127.876V143.312M862.419 127.876H877.856M862.419 143.312V158.749M862.419 143.312H877.856M862.419 158.749V174.186M862.419 158.749H877.856M862.419 174.186V189.623M862.419 174.186H877.856M862.419 189.623V205.06M862.419 189.623H877.856M862.419 205.06V220.497M862.419 205.06H877.856M862.419 220.497V235.934M862.419 220.497H877.856M862.419 235.934V251.371M862.419 235.934H877.856M862.419 251.371H877.856V235.934M877.856 -41.9303V-26.4934M877.856 -26.4934V-11.0565M877.856 -11.0565V4.38038M877.856 4.38038V19.8173M877.856 19.8173V35.2542M877.856 35.2542V50.6911M877.856 50.6911V66.1279M877.856 66.1279V81.5648M877.856 81.5648V97.0017M877.856 97.0017V112.439M877.856 112.439V127.876M877.856 127.876V143.312M877.856 143.312V158.749M877.856 158.749V174.186M877.856 174.186V189.623M877.856 189.623V205.06M877.856 205.06V220.497M877.856 220.497V235.934" stroke="url(#paint0_radial_4155_29911)" stroke-opacity="0.5" stroke-width="0.192961"/>
</g>
<g style="mix-blend-mode:soft-light" opacity="0.8">
<path d="M275.379 14.7475V19.3786M275.379 19.3786V24.0097M275.379 19.3786H270.748M275.379 19.3786H280.01M275.379 138.243V142.874M275.379 142.874V147.505M275.379 142.874H270.748M275.379 142.874H280.01M275.379 261.738V266.369M275.379 266.369V271M275.379 266.369H270.748M275.379 266.369H280.01M398.874 138.243V142.874M398.874 142.874V147.505M398.874 142.874H394.243M398.874 142.874H403.505M398.874 261.738V266.369M398.874 266.369V271M398.874 266.369H394.243M398.874 266.369H403.505M522.369 138.243V142.874M522.369 142.874V147.505M522.369 142.874H517.738M522.369 142.874H527M522.369 261.738V266.369M522.369 266.369V271M522.369 266.369H517.738M522.369 266.369H527M645.864 14.7475V19.3786M645.864 19.3786V24.0097M645.864 19.3786H641.233M645.864 19.3786H650.495M645.864 138.243V142.874M645.864 142.874V147.505M645.864 142.874H641.233M645.864 142.874H650.495M645.864 261.738V266.369M645.864 266.369V271M645.864 266.369H641.233M645.864 266.369H650.495M769.359 14.7475V19.3786M769.359 19.3786V24.0097M769.359 19.3786H764.728M769.359 19.3786H773.99M769.359 138.243V142.874M769.359 142.874V147.505M769.359 142.874H764.728M769.359 142.874H773.99M769.359 261.738V266.369M769.359 266.369V271M769.359 266.369H764.728M769.359 266.369H773.99M892.854 14.7475V19.3786M892.854 19.3786V24.0097M892.854 19.3786H888.223M892.854 19.3786H897.485M892.854 138.243V142.874M892.854 142.874V147.505M892.854 142.874H888.223M892.854 142.874H897.485M892.854 261.738V266.369M892.854 266.369V271M892.854 266.369H888.223M892.854 266.369H897.485M275.379 -47V-42.3689M275.379 -42.3689V-37.7379M275.379 -42.3689H270.748M275.379 -42.3689H280.01M275.379 76.4952V81.1262M275.379 81.1262V85.7573M275.379 81.1262H270.748M275.379 81.1262H280.01M275.379 199.99V204.621M275.379 204.621V209.252M275.379 204.621H270.748M275.379 204.621H280.01M398.874 -47V-42.3689M398.874 -42.3689V-37.7379M398.874 -42.3689H394.243M398.874 -42.3689H403.505M398.874 199.99V204.621M398.874 204.621V209.252M398.874 204.621H394.243M398.874 204.621H403.505M522.369 199.99V204.621M522.369 204.621V209.252M522.369 204.621H517.738M522.369 204.621H527M645.864 -47V-42.3689M645.864 -42.3689V-37.7379M645.864 -42.3689H641.233M645.864 -42.3689H650.495M645.864 76.4952V81.1262M645.864 81.1262V85.7573M645.864 81.1262H641.233M645.864 81.1262H650.495M645.864 199.99V204.621M645.864 204.621V209.252M645.864 204.621H641.233M645.864 204.621H650.495M769.359 -47V-42.3689M769.359 -42.3689V-37.7379M769.359 -42.3689H764.728M769.359 -42.3689H773.99M769.359 76.4952V81.1262M769.359 81.1262V85.7573M769.359 81.1262H764.728M769.359 81.1262H773.99M769.359 199.99V204.621M769.359 204.621V209.252M769.359 204.621H764.728M769.359 204.621H773.99M892.854 -47V-42.3689M892.854 -42.3689V-37.7379M892.854 -42.3689H888.223M892.854 -42.3689H897.485M892.854 76.4952V81.1262M892.854 81.1262V85.7573M892.854 81.1262H888.223M892.854 81.1262H897.485M892.854 199.99V204.621M892.854 204.621V209.252M892.854 204.621H888.223M892.854 204.621H897.485M213.631 14.7475V19.3786M213.631 19.3786V24.0097M213.631 19.3786H209M213.631 19.3786H218.262M213.631 138.243V142.874M213.631 142.874V147.505M213.631 142.874H209M213.631 142.874H218.262M213.631 261.738V266.369M213.631 266.369V271M213.631 266.369H209M213.631 266.369H218.262M337.126 138.243V142.874M337.126 142.874V147.505M337.126 142.874H332.495M337.126 142.874H341.757M337.126 261.738V266.369M337.126 266.369V271M337.126 266.369H332.495M337.126 266.369H341.757M460.621 138.243V142.874M460.621 142.874V147.505M460.621 142.874H455.99M460.621 142.874H465.252M460.621 261.738V266.369M460.621 266.369V271M460.621 266.369H455.99M460.621 266.369H465.252M584.117 138.243V142.874M584.117 142.874V147.505M584.117 142.874H579.485M584.117 142.874H588.748M584.117 261.738V266.369M584.117 266.369V271M584.117 266.369H579.485M584.117 266.369H588.748M707.612 14.7475V19.3786M707.612 19.3786V24.0097M707.612 19.3786H702.981M707.612 19.3786H712.243M707.612 138.243V142.874M707.612 142.874V147.505M707.612 142.874H702.981M707.612 142.874H712.243M707.612 261.738V266.369M707.612 266.369V271M707.612 266.369H702.981M707.612 266.369H712.243M831.107 14.7475V19.3786M831.107 19.3786V24.0097M831.107 19.3786H826.476M831.107 19.3786H835.738M831.107 138.243V142.874M831.107 142.874V147.505M831.107 142.874H826.476M831.107 142.874H835.738M831.107 261.738V266.369M831.107 266.369V271M831.107 266.369H826.476M831.107 266.369H835.738M213.631 -47V-42.3689M213.631 -42.3689V-37.7378M213.631 -42.3689H209M213.631 -42.3689H218.262M213.631 76.4952V81.1262M213.631 81.1262V85.7573M213.631 81.1262H209M213.631 81.1262H218.262M213.631 199.99V204.621M213.631 204.621V209.252M213.631 204.621H209M213.631 204.621H218.262M337.126 -47V-42.3689M337.126 -42.3689V-37.7379M337.126 -42.3689H332.495M337.126 -42.3689H341.757M337.126 199.99V204.621M337.126 204.621V209.252M337.126 204.621H332.495M337.126 204.621H341.757M460.621 -47V-42.3689M460.621 -42.3689V-37.7379M460.621 -42.3689H455.99M460.621 -42.3689H465.252M460.621 199.99V204.621M460.621 204.621V209.252M460.621 204.621H455.99M460.621 204.621H465.252M367.869 14.7475V19.3786M367.869 19.3786V24.0097M367.869 19.3786H363.238M367.869 19.3786H372.5M584.117 199.99V204.621M584.117 204.621V209.252M584.117 204.621H579.485M584.117 204.621H588.748M707.612 -47V-42.3689M707.612 -42.3689V-37.7379M707.612 -42.3689H702.981M707.612 -42.3689H712.243M707.612 76.4952V81.1262M707.612 81.1262V85.7573M707.612 81.1262H702.981M707.612 81.1262H712.243M707.612 199.99V204.621M707.612 204.621V209.252M707.612 204.621H702.981M707.612 204.621H712.243M831.107 -47V-42.3689M831.107 -42.3689V-37.7379M831.107 -42.3689H826.476M831.107 -42.3689H835.738M831.107 76.4952V81.1262M831.107 81.1262V85.7573M831.107 81.1262H826.476M831.107 81.1262H835.738M831.107 199.99V204.621M831.107 204.621V209.252M831.107 204.621H826.476M831.107 204.621H835.738M522.582 61.2379V65.8689M522.582 65.8689V70.5M522.582 65.8689H517.951M522.582 65.8689H527.213M584.369 61.2379V65.8689M584.369 65.8689V70.5M584.369 65.8689H579.738M584.369 65.8689H589" stroke="url(#paint1_radial_4155_29911)" stroke-opacity="0.5" stroke-width="0.385922"/>
</g>
</g>
<defs>
<radialGradient id="paint0_radial_4155_29911" cx="0" cy="0" r="1" gradientUnits="userSpaceOnUse" gradientTransform="translate(538.244 97.0017) rotate(90.1619) scale(86.5006 190.301)">
<stop stop-color="#F2F2F2"/>
<stop offset="1" stop-color="#F2F2F2" stop-opacity="0"/>
</radialGradient>
<radialGradient id="paint1_radial_4155_29911" cx="0" cy="0" r="1" gradientUnits="userSpaceOnUse" gradientTransform="translate(553.243 112) rotate(90) scale(159 344.243)">
<stop stop-color="#F2F2F2"/>
<stop offset="1" stop-color="#F2F2F2" stop-opacity="0"/>
</radialGradient>
<clipPath id="clip0_4155_29911">
<rect width="600" height="96" fill="white"/>
</clipPath>
</defs>
</svg>
