    <svg
        width="57"
        height="20"
        viewBox="0 0 57 20"
        fill="none"
        xmlns="http://www.w3.org/2000/svg"
    >
        <circle cx="2" cy="10" r="2" fill="#FE20A2" />
        <path
            d="M9.956 9.524H12.14C13.292 9.524 13.88 9.104 13.88 8.084C13.88 7.052 13.292 6.62 12.14 6.62H9.956V9.524ZM8.588 14V5.42H12.224C14.264 5.42 15.296 6.392 15.296 8.084C15.296 9.776 14.264 10.724 12.224 10.724H9.956V14H8.588ZM16.1449 14V7.508H17.3809L17.4289 8.84C17.6809 7.916 18.2569 7.508 19.1209 7.508H19.8409V8.9H19.0609C18.0049 8.9 17.5009 9.464 17.5009 10.508V14H16.1449ZM21.447 10.232H25.047C24.927 9.164 24.303 8.48 23.283 8.48C22.251 8.48 21.603 9.164 21.447 10.232ZM20.043 10.748C20.043 8.72 21.315 7.352 23.271 7.352C25.191 7.352 26.427 8.672 26.427 10.64V11.144H21.435C21.555 12.284 22.227 13.028 23.295 13.028C24.099 13.028 24.663 12.608 24.915 11.912H26.343C25.971 13.28 24.831 14.156 23.283 14.156C21.315 14.156 20.043 12.776 20.043 10.748ZM27.2657 14V7.508H28.5137L28.5377 8.66C28.8617 7.808 29.5937 7.352 30.5417 7.352C31.5377 7.352 32.2577 7.868 32.5697 8.756C32.8817 7.844 33.6377 7.352 34.6337 7.352C36.0017 7.352 36.8657 8.288 36.8657 9.824V14H35.5097V10.28C35.5097 9.116 35.1017 8.54 34.2497 8.54C33.3377 8.54 32.7377 9.2 32.7377 10.28V14H31.3937V10.28C31.3937 9.116 30.9857 8.54 30.1337 8.54C29.2097 8.54 28.6217 9.2 28.6217 10.28V14H27.2657ZM37.8603 14V7.508H39.1923V14H37.8603ZM37.8243 6.68V5.252H39.2403V6.68H37.8243ZM40.2021 11.684V7.508H41.5581V11.228C41.5581 12.392 42.0021 12.968 42.9141 12.968C43.8981 12.968 44.5341 12.308 44.5341 11.228V7.508H45.8901V14H44.6421L44.6181 12.836C44.2821 13.7 43.5141 14.156 42.5181 14.156C41.1021 14.156 40.2021 13.22 40.2021 11.684ZM46.8946 14V7.508H48.1426L48.1666 8.66C48.4906 7.808 49.2226 7.352 50.1706 7.352C51.1666 7.352 51.8866 7.868 52.1986 8.756C52.5106 7.844 53.2666 7.352 54.2626 7.352C55.6306 7.352 56.4946 8.288 56.4946 9.824V14H55.1386V10.28C55.1386 9.116 54.7306 8.54 53.8786 8.54C52.9666 8.54 52.3666 9.2 52.3666 10.28V14H51.0226V10.28C51.0226 9.116 50.6146 8.54 49.7626 8.54C48.8386 8.54 48.2506 9.2 48.2506 10.28V14H46.8946Z"
            fill="url(#paint0_linear_650_6456)"
        />
        <defs>
            <linearGradient
                id="paint0_linear_650_6456"
                x1="7.48836"
                y1="16.3942"
                x2="49.0286"
                y2="32.2538"
                gradientUnits="userSpaceOnUse"
            >
                <stop stop-color="#FF20A2" />
                <stop offset="1" stop-color="#FF5B20" />
            </linearGradient>
        </defs>
    </svg>