<svg width="332" height="260" viewBox="0 0 332 260" fill="none" xmlns="http://www.w3.org/2000/svg">
<g clip-path="url(#clip0_4001_29364)">
<g style="mix-blend-mode:soft-light" opacity="0.7">
<path d="M-256.854 -102H-277V-81.8543M-256.854 -102V-81.8543M-256.854 -102H-236.709M-256.854 -81.8543H-277M-256.854 -81.8543V-61.7086M-256.854 -81.8543H-236.709M-277 -81.8543V-61.7086M-256.854 -61.7086H-277M-256.854 -61.7086V-41.563M-256.854 -61.7086H-236.709M-277 -61.7086V-41.563M-256.854 -41.563H-277M-256.854 -41.563V-21.4173M-256.854 -41.563H-236.709M-277 -41.563V-21.4173M-256.854 -21.4173H-277M-256.854 -21.4173V-1.27162M-256.854 -21.4173H-236.709M-277 -21.4173V-1.27162M-256.854 -1.27162H-277M-256.854 -1.27162V18.8741M-256.854 -1.27162H-236.709M-277 -1.27162V18.8741M-256.854 18.8741H-277M-256.854 18.8741V39.0197M-256.854 18.8741H-236.709M-277 18.8741V39.0197M-256.854 39.0197H-277M-256.854 39.0197V59.1654M-256.854 39.0197H-236.709M-277 39.0197V59.1654M-256.854 59.1654H-277M-256.854 59.1654V79.3111M-256.854 59.1654H-236.709M-277 59.1654V79.3111M-256.854 79.3111H-277M-256.854 79.3111V99.4568M-256.854 79.3111H-236.709M-277 79.3111V99.4568M-256.854 99.4568H-277M-256.854 99.4568V119.602M-256.854 99.4568H-236.709M-277 99.4568V119.602M-256.854 119.602H-277M-256.854 119.602V139.748M-256.854 119.602H-236.709M-277 119.602V139.748M-256.854 139.748H-277M-256.854 139.748V159.894M-256.854 139.748H-236.709M-277 139.748V159.894M-256.854 159.894H-277M-256.854 159.894V180.039M-256.854 159.894H-236.709M-277 159.894V180.039M-256.854 180.039H-277M-256.854 180.039V200.185M-256.854 180.039H-236.709M-277 180.039V200.185M-256.854 200.185H-277M-256.854 200.185V220.331M-256.854 200.185H-236.709M-277 200.185V220.331M-256.854 220.331H-277M-256.854 220.331V240.476M-256.854 220.331H-236.709M-277 220.331V240.476M-256.854 240.476H-277M-256.854 240.476V260.622M-256.854 240.476H-236.709M-277 240.476V260.622M-256.854 260.622H-277M-256.854 260.622V280.768M-256.854 260.622H-236.709M-277 260.622V280.768M-256.854 280.768H-277M-256.854 280.768V300.914M-256.854 280.768H-236.709M-277 280.768V300.914H-256.854M-256.854 300.914H-236.709M-236.709 -102V-81.8543M-236.709 -102H-216.563M-236.709 -81.8543V-61.7086M-236.709 -81.8543H-216.563M-236.709 -61.7086V-41.563M-236.709 -61.7086H-216.563M-236.709 -41.563V-21.4173M-236.709 -41.563H-216.563M-236.709 -21.4173V-1.27162M-236.709 -21.4173H-216.563M-236.709 -1.27162V18.8741M-236.709 -1.27162H-216.563M-236.709 18.8741V39.0197M-236.709 18.8741H-216.563M-236.709 39.0197V59.1654M-236.709 39.0197H-216.563M-236.709 59.1654V79.3111M-236.709 59.1654H-216.563M-236.709 79.3111V99.4568M-236.709 79.3111H-216.563M-236.709 99.4568V119.602M-236.709 99.4568H-216.563M-236.709 119.602V139.748M-236.709 119.602H-216.563M-236.709 139.748V159.894M-236.709 139.748H-216.563M-236.709 159.894V180.039M-236.709 159.894H-216.563M-236.709 180.039V200.185M-236.709 180.039H-216.563M-236.709 200.185V220.331M-236.709 200.185H-216.563M-236.709 220.331V240.476M-236.709 220.331H-216.563M-236.709 240.476V260.622M-236.709 240.476H-216.563M-236.709 260.622V280.768M-236.709 260.622H-216.563M-236.709 280.768V300.914M-236.709 280.768H-216.563M-236.709 300.914H-216.563M-216.563 -102V-81.8543M-216.563 -102H-196.417M-216.563 -81.8543V-61.7086M-216.563 -81.8543H-196.417M-216.563 -61.7086V-41.563M-216.563 -61.7086H-196.417M-216.563 -41.563V-21.4173M-216.563 -41.563H-196.417M-216.563 -21.4173V-1.27162M-216.563 -21.4173H-196.417M-216.563 -1.27162V18.8741M-216.563 -1.27162H-196.417M-216.563 18.8741V39.0197M-216.563 18.8741H-196.417M-216.563 39.0197V59.1654M-216.563 39.0197H-196.417M-216.563 59.1654V79.3111M-216.563 59.1654H-196.417M-216.563 79.3111V99.4568M-216.563 79.3111H-196.417M-216.563 99.4568V119.602M-216.563 99.4568H-196.417M-216.563 119.602V139.748M-216.563 119.602H-196.417M-216.563 139.748V159.894M-216.563 139.748H-196.417M-216.563 159.894V180.039M-216.563 159.894H-196.417M-216.563 180.039V200.185M-216.563 180.039H-196.417M-216.563 200.185V220.331M-216.563 200.185H-196.417M-216.563 220.331V240.476M-216.563 220.331H-196.417M-216.563 240.476V260.622M-216.563 240.476H-196.417M-216.563 260.622V280.768M-216.563 260.622H-196.417M-216.563 280.768V300.914M-216.563 280.768H-196.417M-216.563 300.914H-196.417M-196.417 -102V-81.8543M-196.417 -102H-176.272M-196.417 -81.8543V-61.7086M-196.417 -81.8543H-176.272M-196.417 -61.7086V-41.563M-196.417 -61.7086H-176.272M-196.417 -41.563V-21.4173M-196.417 -41.563H-176.272M-196.417 -21.4173V-1.27162M-196.417 -21.4173H-176.272M-196.417 -1.27162V18.8741M-196.417 -1.27162H-176.272M-196.417 18.8741V39.0197M-196.417 18.8741H-176.272M-196.417 39.0197V59.1654M-196.417 39.0197H-176.272M-196.417 59.1654V79.3111M-196.417 59.1654H-176.272M-196.417 79.3111V99.4568M-196.417 79.3111H-176.272M-196.417 99.4568V119.602M-196.417 99.4568H-176.272M-196.417 119.602V139.748M-196.417 119.602H-176.272M-196.417 139.748V159.894M-196.417 139.748H-176.272M-196.417 159.894V180.039M-196.417 159.894H-176.272M-196.417 180.039V200.185M-196.417 180.039H-176.272M-196.417 200.185V220.331M-196.417 200.185H-176.272M-196.417 220.331V240.476M-196.417 220.331H-176.272M-196.417 240.476V260.622M-196.417 240.476H-176.272M-196.417 260.622V280.768M-196.417 260.622H-176.272M-196.417 280.768V300.914M-196.417 280.768H-176.272M-196.417 300.914H-176.272M-176.272 -102V-81.8543M-176.272 -102H-156.126M-176.272 -81.8543V-61.7086M-176.272 -81.8543H-156.126M-176.272 -61.7086V-41.563M-176.272 -61.7086H-156.126M-176.272 -41.563V-21.4173M-176.272 -41.563H-156.126M-176.272 -21.4173V-1.27162M-176.272 -21.4173H-156.126M-176.272 -1.27162V18.8741M-176.272 -1.27162H-156.126M-176.272 18.8741V39.0197M-176.272 18.8741H-156.126M-176.272 39.0197V59.1654M-176.272 39.0197H-156.126M-176.272 59.1654V79.3111M-176.272 59.1654H-156.126M-176.272 79.3111V99.4568M-176.272 79.3111H-156.126M-176.272 99.4568V119.602M-176.272 99.4568H-156.126M-176.272 119.602V139.748M-176.272 119.602H-156.126M-176.272 139.748V159.894M-176.272 139.748H-156.126M-176.272 159.894V180.039M-176.272 159.894H-156.126M-176.272 180.039V200.185M-176.272 180.039H-156.126M-176.272 200.185V220.331M-176.272 200.185H-156.126M-176.272 220.331V240.476M-176.272 220.331H-156.126M-176.272 240.476V260.622M-176.272 240.476H-156.126M-176.272 260.622V280.768M-176.272 260.622H-156.126M-176.272 280.768V300.914M-176.272 280.768H-156.126M-176.272 300.914H-156.126M-156.126 -102V-81.8543M-156.126 -102H-135.98M-156.126 -81.8543V-61.7086M-156.126 -81.8543H-135.98M-156.126 -61.7086V-41.563M-156.126 -61.7086H-135.98M-156.126 -41.563V-21.4173M-156.126 -41.563H-135.98M-156.126 -21.4173V-1.27162M-156.126 -21.4173H-135.98M-156.126 -1.27162V18.8741M-156.126 -1.27162H-135.98M-156.126 18.8741V39.0197M-156.126 18.8741H-135.98M-156.126 39.0197V59.1654M-156.126 39.0197H-135.98M-156.126 59.1654V79.3111M-156.126 59.1654H-135.98M-156.126 79.3111V99.4568M-156.126 79.3111H-135.98M-156.126 99.4568V119.602M-156.126 99.4568H-135.98M-156.126 119.602V139.748M-156.126 119.602H-135.98M-156.126 139.748V159.894M-156.126 139.748H-135.98M-156.126 159.894V180.039M-156.126 159.894H-135.98M-156.126 180.039V200.185M-156.126 180.039H-135.98M-156.126 200.185V220.331M-156.126 200.185H-135.98M-156.126 220.331V240.476M-156.126 220.331H-135.98M-156.126 240.476V260.622M-156.126 240.476H-135.98M-156.126 260.622V280.768M-156.126 260.622H-135.98M-156.126 280.768V300.914M-156.126 280.768H-135.98M-156.126 300.914H-135.98M-135.98 -102V-81.8543M-135.98 -102H-115.835M-135.98 -81.8543V-61.7086M-135.98 -81.8543H-115.835M-135.98 -61.7086V-41.563M-135.98 -61.7086H-115.835M-135.98 -41.563V-21.4173M-135.98 -41.563H-115.835M-135.98 -21.4173V-1.27162M-135.98 -21.4173H-115.835M-135.98 -1.27162V18.8741M-135.98 -1.27162H-115.835M-135.98 18.8741V39.0197M-135.98 18.8741H-115.835M-135.98 39.0197V59.1654M-135.98 39.0197H-115.835M-135.98 59.1654V79.3111M-135.98 59.1654H-115.835M-135.98 79.3111V99.4568M-135.98 79.3111H-115.835M-135.98 99.4568V119.602M-135.98 99.4568H-115.835M-135.98 119.602V139.748M-135.98 119.602H-115.835M-135.98 139.748V159.894M-135.98 139.748H-115.835M-135.98 159.894V180.039M-135.98 159.894H-115.835M-135.98 180.039V200.185M-135.98 180.039H-115.835M-135.98 200.185V220.331M-135.98 200.185H-115.835M-135.98 220.331V240.476M-135.98 220.331H-115.835M-135.98 240.476V260.622M-135.98 240.476H-115.835M-135.98 260.622V280.768M-135.98 260.622H-115.835M-135.98 280.768V300.914M-135.98 280.768H-115.835M-135.98 300.914H-115.835M-115.835 -102V-81.8543M-115.835 -102H-95.6889M-115.835 -81.8543V-61.7086M-115.835 -81.8543H-95.6889M-115.835 -61.7086V-41.563M-115.835 -61.7086H-95.6889M-115.835 -41.563V-21.4173M-115.835 -41.563H-95.6889M-115.835 -21.4173V-1.27162M-115.835 -21.4173H-95.6889M-115.835 -1.27162V18.8741M-115.835 -1.27162H-95.6889M-115.835 18.8741V39.0197M-115.835 18.8741H-95.6889M-115.835 39.0197V59.1654M-115.835 39.0197H-95.6889M-115.835 59.1654V79.3111M-115.835 59.1654H-95.6889M-115.835 79.3111V99.4568M-115.835 79.3111H-95.6889M-115.835 99.4568V119.602M-115.835 99.4568H-95.6889M-115.835 119.602V139.748M-115.835 119.602H-95.6889M-115.835 139.748V159.894M-115.835 139.748H-95.6889M-115.835 159.894V180.039M-115.835 159.894H-95.6889M-115.835 180.039V200.185M-115.835 180.039H-95.6889M-115.835 200.185V220.331M-115.835 200.185H-95.6889M-115.835 220.331V240.476M-115.835 220.331H-95.6889M-115.835 240.476V260.622M-115.835 240.476H-95.6889M-115.835 260.622V280.768M-115.835 260.622H-95.6889M-115.835 280.768V300.914M-115.835 280.768H-95.6889M-115.835 300.914H-95.6889M-95.6889 -102V-81.8543M-95.6889 -102H-75.5432M-95.6889 -81.8543V-61.7086M-95.6889 -81.8543H-75.5432M-95.6889 -61.7086V-41.563M-95.6889 -61.7086H-75.5432M-95.6889 -41.563V-21.4173M-95.6889 -41.563H-75.5432M-95.6889 -21.4173V-1.27162M-95.6889 -21.4173H-75.5432M-95.6889 -1.27162V18.8741M-95.6889 -1.27162H-75.5432M-95.6889 18.8741V39.0197M-95.6889 18.8741H-75.5432M-95.6889 39.0197V59.1654M-95.6889 39.0197H-75.5432M-95.6889 59.1654V79.3111M-95.6889 59.1654H-75.5432M-95.6889 79.3111V99.4568M-95.6889 79.3111H-75.5432M-95.6889 99.4568V119.602M-95.6889 99.4568H-75.5432M-95.6889 119.602V139.748M-95.6889 119.602H-75.5432M-95.6889 139.748V159.894M-95.6889 139.748H-75.5432M-95.6889 159.894V180.039M-95.6889 159.894H-75.5432M-95.6889 180.039V200.185M-95.6889 180.039H-75.5432M-95.6889 200.185V220.331M-95.6889 200.185H-75.5432M-95.6889 220.331V240.476M-95.6889 220.331H-75.5432M-95.6889 240.476V260.622M-95.6889 240.476H-75.5432M-95.6889 260.622V280.768M-95.6889 260.622H-75.5432M-95.6889 280.768V300.914M-95.6889 280.768H-75.5432M-95.6889 300.914H-75.5432M-75.5432 -102V-81.8543M-75.5432 -102H-55.3975M-75.5432 -81.8543V-61.7086M-75.5432 -81.8543H-55.3975M-75.5432 -61.7086V-41.563M-75.5432 -61.7086H-55.3975M-75.5432 -41.563V-21.4173M-75.5432 -41.563H-55.3975M-75.5432 -21.4173V-1.27162M-75.5432 -21.4173H-55.3975M-75.5432 -1.27162V18.8741M-75.5432 -1.27162H-55.3975M-75.5432 18.8741V39.0197M-75.5432 18.8741H-55.3975M-75.5432 39.0197V59.1654M-75.5432 39.0197H-55.3975M-75.5432 59.1654V79.3111M-75.5432 59.1654H-55.3975M-75.5432 79.3111V99.4568M-75.5432 79.3111H-55.3975M-75.5432 99.4568V119.602M-75.5432 99.4568H-55.3975M-75.5432 119.602V139.748M-75.5432 119.602H-55.3975M-75.5432 139.748V159.894M-75.5432 139.748H-55.3975M-75.5432 159.894V180.039M-75.5432 159.894H-55.3975M-75.5432 180.039V200.185M-75.5432 180.039H-55.3975M-75.5432 200.185V220.331M-75.5432 200.185H-55.3975M-75.5432 220.331V240.476M-75.5432 220.331H-55.3975M-75.5432 240.476V260.622M-75.5432 240.476H-55.3975M-75.5432 260.622V280.768M-75.5432 260.622H-55.3975M-75.5432 280.768V300.914M-75.5432 280.768H-55.3975M-75.5432 300.914H-55.3975M-55.3975 -102V-81.8543M-55.3975 -102H-35.2519M-55.3975 -81.8543V-61.7086M-55.3975 -81.8543H-35.2519M-55.3975 -61.7086V-41.563M-55.3975 -61.7086H-35.2519M-55.3975 -41.563V-21.4173M-55.3975 -41.563H-35.2519M-55.3975 -21.4173V-1.27162M-55.3975 -21.4173H-35.2519M-55.3975 -1.27162V18.8741M-55.3975 -1.27162H-35.2519M-55.3975 18.8741V39.0197M-55.3975 18.8741H-35.2519M-55.3975 39.0197V59.1654M-55.3975 39.0197H-35.2519M-55.3975 59.1654V79.3111M-55.3975 59.1654H-35.2519M-55.3975 79.3111V99.4568M-55.3975 79.3111H-35.2519M-55.3975 99.4568V119.602M-55.3975 99.4568H-35.2519M-55.3975 119.602V139.748M-55.3975 119.602H-35.2519M-55.3975 139.748V159.894M-55.3975 139.748H-35.2519M-55.3975 159.894V180.039M-55.3975 159.894H-35.2519M-55.3975 180.039V200.185M-55.3975 180.039H-35.2519M-55.3975 200.185V220.331M-55.3975 200.185H-35.2519M-55.3975 220.331V240.476M-55.3975 220.331H-35.2519M-55.3975 240.476V260.622M-55.3975 240.476H-35.2519M-55.3975 260.622V280.768M-55.3975 260.622H-35.2519M-55.3975 280.768V300.914M-55.3975 280.768H-35.2519M-55.3975 300.914H-35.2519M-35.2519 -102V-81.8543M-35.2519 -102H-15.1062M-35.2519 -81.8543V-61.7086M-35.2519 -81.8543H-15.1062M-35.2519 -61.7086V-41.563M-35.2519 -61.7086H-15.1062M-35.2519 -41.563V-21.4173M-35.2519 -41.563H-15.1062M-35.2519 -21.4173V-1.27162M-35.2519 -21.4173H-15.1062M-35.2519 -1.27162V18.8741M-35.2519 -1.27162H-15.1062M-35.2519 18.8741V39.0197M-35.2519 18.8741H-15.1062M-35.2519 39.0197V59.1654M-35.2519 39.0197H-15.1062M-35.2519 59.1654V79.3111M-35.2519 59.1654H-15.1062M-35.2519 79.3111V99.4568M-35.2519 79.3111H-15.1062M-35.2519 99.4568V119.602M-35.2519 99.4568H-15.1062M-35.2519 119.602V139.748M-35.2519 119.602H-15.1062M-35.2519 139.748V159.894M-35.2519 139.748H-15.1062M-35.2519 159.894V180.039M-35.2519 159.894H-15.1062M-35.2519 180.039V200.185M-35.2519 180.039H-15.1062M-35.2519 200.185V220.331M-35.2519 200.185H-15.1062M-35.2519 220.331V240.476M-35.2519 220.331H-15.1062M-35.2519 240.476V260.622M-35.2519 240.476H-15.1062M-35.2519 260.622V280.768M-35.2519 260.622H-15.1062M-35.2519 280.768V300.914M-35.2519 280.768H-15.1062M-35.2519 300.914H-15.1062M-15.1062 -102V-81.8543M-15.1062 -102H5.03952M-15.1062 -81.8543V-61.7086M-15.1062 -81.8543H5.03952M-15.1062 -61.7086V-41.563M-15.1062 -61.7086H5.03952M-15.1062 -41.563V-21.4173M-15.1062 -41.563H5.03952M-15.1062 -21.4173V-1.27162M-15.1062 -21.4173H5.03952M-15.1062 -1.27162V18.8741M-15.1062 -1.27162H5.03952M-15.1062 18.8741V39.0197M-15.1062 18.8741H5.03952M-15.1062 39.0197V59.1654M-15.1062 39.0197H5.03952M-15.1062 59.1654V79.3111M-15.1062 59.1654H5.03952M-15.1062 79.3111V99.4568M-15.1062 79.3111H5.03952M-15.1062 99.4568V119.602M-15.1062 99.4568H5.03952M-15.1062 119.602V139.748M-15.1062 119.602H5.03952M-15.1062 139.748V159.894M-15.1062 139.748H5.03952M-15.1062 159.894V180.039M-15.1062 159.894H5.03952M-15.1062 180.039V200.185M-15.1062 180.039H5.03952M-15.1062 200.185V220.331M-15.1062 200.185H5.03952M-15.1062 220.331V240.476M-15.1062 220.331H5.03952M-15.1062 240.476V260.622M-15.1062 240.476H5.03952M-15.1062 260.622V280.768M-15.1062 260.622H5.03952M-15.1062 280.768V300.914M-15.1062 280.768H5.03952M-15.1062 300.914H5.03952M5.03952 -102V-81.8543M5.03952 -102H25.1852M5.03952 -81.8543V-61.7086M5.03952 -81.8543H25.1852M5.03952 -61.7086V-41.563M5.03952 -61.7086H25.1852M5.03952 -41.563V-21.4173M5.03952 -41.563H25.1852M5.03952 -21.4173V-1.27162M5.03952 -21.4173H25.1852M5.03952 -1.27162V18.8741M5.03952 -1.27162H25.1852M5.03952 18.8741V39.0197M5.03952 18.8741H25.1852M5.03952 39.0197V59.1654M5.03952 39.0197H25.1852M5.03952 59.1654V79.3111M5.03952 59.1654H25.1852M5.03952 79.3111V99.4568M5.03952 79.3111H25.1852M5.03952 99.4568V119.602M5.03952 99.4568H25.1852M5.03952 119.602V139.748M5.03952 119.602H25.1852M5.03952 139.748V159.894M5.03952 139.748H25.1852M5.03952 159.894V180.039M5.03952 159.894H25.1852M5.03952 180.039V200.185M5.03952 180.039H25.1852M5.03952 200.185V220.331M5.03952 200.185H25.1852M5.03952 220.331V240.476M5.03952 220.331H25.1852M5.03952 240.476V260.622M5.03952 240.476H25.1852M5.03952 260.622V280.768M5.03952 260.622H25.1852M5.03952 280.768V300.914M5.03952 280.768H25.1852M5.03952 300.914H25.1852M25.1852 -102V-81.8543M25.1852 -102H45.3309M25.1852 -81.8543V-61.7086M25.1852 -81.8543H45.3309M25.1852 -61.7086V-41.563M25.1852 -61.7086H45.3309M25.1852 -41.563V-21.4173M25.1852 -41.563H45.3309M25.1852 -21.4173V-1.27162M25.1852 -21.4173H45.3309M25.1852 -1.27162V18.8741M25.1852 -1.27162H45.3309M25.1852 18.8741V39.0197M25.1852 18.8741H45.3309M25.1852 39.0197V59.1654M25.1852 39.0197H45.3309M25.1852 59.1654V79.3111M25.1852 59.1654H45.3309M25.1852 79.3111V99.4568M25.1852 79.3111H45.3309M25.1852 99.4568V119.602M25.1852 99.4568H45.3309M25.1852 119.602V139.748M25.1852 119.602H45.3309M25.1852 139.748V159.894M25.1852 139.748H45.3309M25.1852 159.894V180.039M25.1852 159.894H45.3309M25.1852 180.039V200.185M25.1852 180.039H45.3309M25.1852 200.185V220.331M25.1852 200.185H45.3309M25.1852 220.331V240.476M25.1852 220.331H45.3309M25.1852 240.476V260.622M25.1852 240.476H45.3309M25.1852 260.622V280.768M25.1852 260.622H45.3309M25.1852 280.768V300.914M25.1852 280.768H45.3309M25.1852 300.914H45.3309M45.3309 -102V-81.8543M45.3309 -102H65.4766M45.3309 -81.8543V-61.7086M45.3309 -81.8543H65.4766M45.3309 -61.7086V-41.563M45.3309 -61.7086H65.4766M45.3309 -41.563V-21.4173M45.3309 -41.563H65.4766M45.3309 -21.4173V-1.27162M45.3309 -21.4173H65.4766M45.3309 -1.27162V18.8741M45.3309 -1.27162H65.4766M45.3309 18.8741V39.0197M45.3309 18.8741H65.4766M45.3309 39.0197V59.1654M45.3309 39.0197H65.4766M45.3309 59.1654V79.3111M45.3309 59.1654H65.4766M45.3309 79.3111V99.4568M45.3309 79.3111H65.4766M45.3309 99.4568V119.602M45.3309 99.4568H65.4766M45.3309 119.602V139.748M45.3309 119.602H65.4766M45.3309 139.748V159.894M45.3309 139.748H65.4766M45.3309 159.894V180.039M45.3309 159.894H65.4766M45.3309 180.039V200.185M45.3309 180.039H65.4766M45.3309 200.185V220.331M45.3309 200.185H65.4766M45.3309 220.331V240.476M45.3309 220.331H65.4766M45.3309 240.476V260.622M45.3309 240.476H65.4766M45.3309 260.622V280.768M45.3309 260.622H65.4766M45.3309 280.768V300.914M45.3309 280.768H65.4766M45.3309 300.914H65.4766M65.4766 -102V-81.8543M65.4766 -102H85.6222M65.4766 -81.8543V-61.7086M65.4766 -81.8543H85.6222M65.4766 -61.7086V-41.563M65.4766 -61.7086H85.6222M65.4766 -41.563V-21.4173M65.4766 -41.563H85.6222M65.4766 -21.4173V-1.27162M65.4766 -21.4173H85.6222M65.4766 -1.27162V18.8741M65.4766 -1.27162H85.6222M65.4766 18.8741V39.0197M65.4766 18.8741H85.6222M65.4766 39.0197V59.1654M65.4766 39.0197H85.6222M65.4766 59.1654V79.3111M65.4766 59.1654H85.6222M65.4766 79.3111V99.4568M65.4766 79.3111H85.6222M65.4766 99.4568V119.602M65.4766 99.4568H85.6222M65.4766 119.602V139.748M65.4766 119.602H85.6222M65.4766 139.748V159.894M65.4766 139.748H85.6222M65.4766 159.894V180.039M65.4766 159.894H85.6222M65.4766 180.039V200.185M65.4766 180.039H85.6222M65.4766 200.185V220.331M65.4766 200.185H85.6222M65.4766 220.331V240.476M65.4766 220.331H85.6222M65.4766 240.476V260.622M65.4766 240.476H85.6222M65.4766 260.622V280.768M65.4766 260.622H85.6222M65.4766 280.768V300.914M65.4766 280.768H85.6222M65.4766 300.914H85.6222M85.6222 -102V-81.8543M85.6222 -102H105.768M85.6222 -81.8543V-61.7086M85.6222 -81.8543H105.768M85.6222 -61.7086V-41.563M85.6222 -61.7086H105.768M85.6222 -41.563V-21.4173M85.6222 -41.563H105.768M85.6222 -21.4173V-1.27162M85.6222 -21.4173H105.768M85.6222 -1.27162V18.8741M85.6222 -1.27162H105.768M85.6222 18.8741V39.0197M85.6222 18.8741H105.768M85.6222 39.0197V59.1654M85.6222 39.0197H105.768M85.6222 59.1654V79.3111M85.6222 59.1654H105.768M85.6222 79.3111V99.4568M85.6222 79.3111H105.768M85.6222 99.4568V119.602M85.6222 99.4568H105.768M85.6222 119.602V139.748M85.6222 119.602H105.768M85.6222 139.748V159.894M85.6222 139.748H105.768M85.6222 159.894V180.039M85.6222 159.894H105.768M85.6222 180.039V200.185M85.6222 180.039H105.768M85.6222 200.185V220.331M85.6222 200.185H105.768M85.6222 220.331V240.476M85.6222 220.331H105.768M85.6222 240.476V260.622M85.6222 240.476H105.768M85.6222 260.622V280.768M85.6222 260.622H105.768M85.6222 280.768V300.914M85.6222 280.768H105.768M85.6222 300.914H105.768M105.768 -102V-81.8543M105.768 -102H125.914M105.768 -81.8543V-61.7086M105.768 -81.8543H125.914M105.768 -61.7086V-41.563M105.768 -61.7086H125.914M105.768 -41.563V-21.4173M105.768 -41.563H125.914M105.768 -21.4173V-1.27162M105.768 -21.4173H125.914M105.768 -1.27162V18.8741M105.768 -1.27162H125.914M105.768 18.8741V39.0197M105.768 18.8741H125.914M105.768 39.0197V59.1654M105.768 39.0197H125.914M105.768 59.1654V79.3111M105.768 59.1654H125.914M105.768 79.3111V99.4568M105.768 79.3111H125.914M105.768 99.4568V119.602M105.768 99.4568H125.914M105.768 119.602V139.748M105.768 119.602H125.914M105.768 139.748V159.894M105.768 139.748H125.914M105.768 159.894V180.039M105.768 159.894H125.914M105.768 180.039V200.185M105.768 180.039H125.914M105.768 200.185V220.331M105.768 200.185H125.914M105.768 220.331V240.476M105.768 220.331H125.914M105.768 240.476V260.622M105.768 240.476H125.914M105.768 260.622V280.768M105.768 260.622H125.914M105.768 280.768V300.914M105.768 280.768H125.914M105.768 300.914H125.914M125.914 -102V-81.8543M125.914 -102H146.059M125.914 -81.8543V-61.7086M125.914 -81.8543H146.059M125.914 -61.7086V-41.563M125.914 -61.7086H146.059M125.914 -41.563V-21.4173M125.914 -41.563H146.059M125.914 -21.4173V-1.27162M125.914 -21.4173H146.059M125.914 -1.27162V18.8741M125.914 -1.27162H146.059M125.914 18.8741V39.0197M125.914 18.8741H146.059M125.914 39.0197V59.1654M125.914 39.0197H146.059M125.914 59.1654V79.3111M125.914 59.1654H146.059M125.914 79.3111V99.4568M125.914 79.3111H146.059M125.914 99.4568V119.602M125.914 99.4568H146.059M125.914 119.602V139.748M125.914 119.602H146.059M125.914 139.748V159.894M125.914 139.748H146.059M125.914 159.894V180.039M125.914 159.894H146.059M125.914 180.039V200.185M125.914 180.039H146.059M125.914 200.185V220.331M125.914 200.185H146.059M125.914 220.331V240.476M125.914 220.331H146.059M125.914 240.476V260.622M125.914 240.476H146.059M125.914 260.622V280.768M125.914 260.622H146.059M125.914 280.768V300.914M125.914 280.768H146.059M125.914 300.914H146.059M146.059 -102V-81.8543M146.059 -102H166.205M146.059 -81.8543V-61.7086M146.059 -81.8543H166.205M146.059 -61.7086V-41.563M146.059 -61.7086H166.205M146.059 -41.563V-21.4173M146.059 -41.563H166.205M146.059 -21.4173V-1.27162M146.059 -21.4173H166.205M146.059 -1.27162V18.8741M146.059 -1.27162H166.205M146.059 18.8741V39.0197M146.059 18.8741H166.205M146.059 39.0197V59.1654M146.059 39.0197H166.205M146.059 59.1654V79.3111M146.059 59.1654H166.205M146.059 79.3111V99.4568M146.059 79.3111H166.205M146.059 99.4568V119.602M146.059 99.4568H166.205M146.059 119.602V139.748M146.059 119.602H166.205M146.059 139.748V159.894M146.059 139.748H166.205M146.059 159.894V180.039M146.059 159.894H166.205M146.059 180.039V200.185M146.059 180.039H166.205M146.059 200.185V220.331M146.059 200.185H166.205M146.059 220.331V240.476M146.059 220.331H166.205M146.059 240.476V260.622M146.059 240.476H166.205M146.059 260.622V280.768M146.059 260.622H166.205M146.059 280.768V300.914M146.059 280.768H166.205M146.059 300.914H166.205M166.205 -102V-81.8543M166.205 -102H186.351M166.205 -81.8543V-61.7086M166.205 -81.8543H186.351M166.205 -61.7086V-41.563M166.205 -61.7086H186.351M166.205 -41.563V-21.4173M166.205 -41.563H186.351M166.205 -21.4173V-1.27162M166.205 -21.4173H186.351M166.205 -1.27162V18.8741M166.205 -1.27162H186.351M166.205 18.8741V39.0197M166.205 18.8741H186.351M166.205 39.0197V59.1654M166.205 39.0197H186.351M166.205 59.1654V79.3111M166.205 59.1654H186.351M166.205 79.3111V99.4568M166.205 79.3111H186.351M166.205 99.4568V119.602M166.205 99.4568H186.351M166.205 119.602V139.748M166.205 119.602H186.351M166.205 139.748V159.894M166.205 139.748H186.351M166.205 159.894V180.039M166.205 159.894H186.351M166.205 180.039V200.185M166.205 180.039H186.351M166.205 200.185V220.331M166.205 200.185H186.351M166.205 220.331V240.476M166.205 220.331H186.351M166.205 240.476V260.622M166.205 240.476H186.351M166.205 260.622V280.768M166.205 260.622H186.351M166.205 280.768V300.914M166.205 280.768H186.351M166.205 300.914H186.351M186.351 -102V-81.8543M186.351 -102H206.496M186.351 -81.8543V-61.7086M186.351 -81.8543H206.496M186.351 -61.7086V-41.563M186.351 -61.7086H206.496M186.351 -41.563V-21.4173M186.351 -41.563H206.496M186.351 -21.4173V-1.27162M186.351 -21.4173H206.496M186.351 -1.27162V18.8741M186.351 -1.27162H206.496M186.351 18.8741V39.0197M186.351 18.8741H206.496M186.351 39.0197V59.1654M186.351 39.0197H206.496M186.351 59.1654V79.3111M186.351 59.1654H206.496M186.351 79.3111V99.4568M186.351 79.3111H206.496M186.351 99.4568V119.602M186.351 99.4568H206.496M186.351 119.602V139.748M186.351 119.602H206.496M186.351 139.748V159.894M186.351 139.748H206.496M186.351 159.894V180.039M186.351 159.894H206.496M186.351 180.039V200.185M186.351 180.039H206.496M186.351 200.185V220.331M186.351 200.185H206.496M186.351 220.331V240.476M186.351 220.331H206.496M186.351 240.476V260.622M186.351 240.476H206.496M186.351 260.622V280.768M186.351 260.622H206.496M186.351 280.768V300.914M186.351 280.768H206.496M186.351 300.914H206.496M206.496 -102V-81.8543M206.496 -102H226.642M206.496 -81.8543V-61.7086M206.496 -81.8543H226.642M206.496 -61.7086V-41.563M206.496 -61.7086H226.642M206.496 -41.563V-21.4173M206.496 -41.563H226.642M206.496 -21.4173V-1.27162M206.496 -21.4173H226.642M206.496 -1.27162V18.8741M206.496 -1.27162H226.642M206.496 18.8741V39.0197M206.496 18.8741H226.642M206.496 39.0197V59.1654M206.496 39.0197H226.642M206.496 59.1654V79.3111M206.496 59.1654H226.642M206.496 79.3111V99.4568M206.496 79.3111H226.642M206.496 99.4568V119.602M206.496 99.4568H226.642M206.496 119.602V139.748M206.496 119.602H226.642M206.496 139.748V159.894M206.496 139.748H226.642M206.496 159.894V180.039M206.496 159.894H226.642M206.496 180.039V200.185M206.496 180.039H226.642M206.496 200.185V220.331M206.496 200.185H226.642M206.496 220.331V240.476M206.496 220.331H226.642M206.496 240.476V260.622M206.496 240.476H226.642M206.496 260.622V280.768M206.496 260.622H226.642M206.496 280.768V300.914M206.496 280.768H226.642M206.496 300.914H226.642M226.642 -102V-81.8543M226.642 -102H246.788M226.642 -81.8543V-61.7086M226.642 -81.8543H246.788M226.642 -61.7086V-41.563M226.642 -61.7086H246.788M226.642 -41.563V-21.4173M226.642 -41.563H246.788M226.642 -21.4173V-1.27162M226.642 -21.4173H246.788M226.642 -1.27162V18.8741M226.642 -1.27162H246.788M226.642 18.8741V39.0197M226.642 18.8741H246.788M226.642 39.0197V59.1654M226.642 39.0197H246.788M226.642 59.1654V79.3111M226.642 59.1654H246.788M226.642 79.3111V99.4568M226.642 79.3111H246.788M226.642 99.4568V119.602M226.642 99.4568H246.788M226.642 119.602V139.748M226.642 119.602H246.788M226.642 139.748V159.894M226.642 139.748H246.788M226.642 159.894V180.039M226.642 159.894H246.788M226.642 180.039V200.185M226.642 180.039H246.788M226.642 200.185V220.331M226.642 200.185H246.788M226.642 220.331V240.476M226.642 220.331H246.788M226.642 240.476V260.622M226.642 240.476H246.788M226.642 260.622V280.768M226.642 260.622H246.788M226.642 280.768V300.914M226.642 280.768H246.788M226.642 300.914H246.788M246.788 -102V-81.8543M246.788 -102H266.933M246.788 -81.8543V-61.7086M246.788 -81.8543H266.933M246.788 -61.7086V-41.563M246.788 -61.7086H266.933M246.788 -41.563V-21.4173M246.788 -41.563H266.933M246.788 -21.4173V-1.27162M246.788 -21.4173H266.933M246.788 -1.27162V18.8741M246.788 -1.27162H266.933M246.788 18.8741V39.0197M246.788 18.8741H266.933M246.788 39.0197V59.1654M246.788 39.0197H266.933M246.788 59.1654V79.3111M246.788 59.1654H266.933M246.788 79.3111V99.4568M246.788 79.3111H266.933M246.788 99.4568V119.602M246.788 99.4568H266.933M246.788 119.602V139.748M246.788 119.602H266.933M246.788 139.748V159.894M246.788 139.748H266.933M246.788 159.894V180.039M246.788 159.894H266.933M246.788 180.039V200.185M246.788 180.039H266.933M246.788 200.185V220.331M246.788 200.185H266.933M246.788 220.331V240.476M246.788 220.331H266.933M246.788 240.476V260.622M246.788 240.476H266.933M246.788 260.622V280.768M246.788 260.622H266.933M246.788 280.768V300.914M246.788 280.768H266.933M246.788 300.914H266.933M266.933 -102V-81.8543M266.933 -102H287.079M266.933 -81.8543V-61.7086M266.933 -81.8543H287.079M266.933 -61.7086V-41.563M266.933 -61.7086H287.079M266.933 -41.563V-21.4173M266.933 -41.563H287.079M266.933 -21.4173V-1.27162M266.933 -21.4173H287.079M266.933 -1.27162V18.8741M266.933 -1.27162H287.079M266.933 18.8741V39.0197M266.933 18.8741H287.079M266.933 39.0197V59.1654M266.933 39.0197H287.079M266.933 59.1654V79.3111M266.933 59.1654H287.079M266.933 79.3111V99.4568M266.933 79.3111H287.079M266.933 99.4568V119.602M266.933 99.4568H287.079M266.933 119.602V139.748M266.933 119.602H287.079M266.933 139.748V159.894M266.933 139.748H287.079M266.933 159.894V180.039M266.933 159.894H287.079M266.933 180.039V200.185M266.933 180.039H287.079M266.933 200.185V220.331M266.933 200.185H287.079M266.933 220.331V240.476M266.933 220.331H287.079M266.933 240.476V260.622M266.933 240.476H287.079M266.933 260.622V280.768M266.933 260.622H287.079M266.933 280.768V300.914M266.933 280.768H287.079M266.933 300.914H287.079M287.079 -102V-81.8543M287.079 -102H307.225M287.079 -81.8543V-61.7086M287.079 -81.8543H307.225M287.079 -61.7086V-41.563M287.079 -61.7086H307.225M287.079 -41.563V-21.4173M287.079 -41.563H307.225M287.079 -21.4173V-1.27162M287.079 -21.4173H307.225M287.079 -1.27162V18.8741M287.079 -1.27162H307.225M287.079 18.8741V39.0197M287.079 18.8741H307.225M287.079 39.0197V59.1654M287.079 39.0197H307.225M287.079 59.1654V79.3111M287.079 59.1654H307.225M287.079 79.3111V99.4568M287.079 79.3111H307.225M287.079 99.4568V119.602M287.079 99.4568H307.225M287.079 119.602V139.748M287.079 119.602H307.225M287.079 139.748V159.894M287.079 139.748H307.225M287.079 159.894V180.039M287.079 159.894H307.225M287.079 180.039V200.185M287.079 180.039H307.225M287.079 200.185V220.331M287.079 200.185H307.225M287.079 220.331V240.476M287.079 220.331H307.225M287.079 240.476V260.622M287.079 240.476H307.225M287.079 260.622V280.768M287.079 260.622H307.225M287.079 280.768V300.914M287.079 280.768H307.225M287.079 300.914H307.225M307.225 -102V-81.8543M307.225 -102H327.37M307.225 -81.8543V-61.7086M307.225 -81.8543H327.37M307.225 -61.7086V-41.563M307.225 -61.7086H327.37M307.225 -41.563V-21.4173M307.225 -41.563H327.37M307.225 -21.4173V-1.27162M307.225 -21.4173H327.37M307.225 -1.27162V18.8741M307.225 -1.27162H327.37M307.225 18.8741V39.0197M307.225 18.8741H327.37M307.225 39.0197V59.1654M307.225 39.0197H327.37M307.225 59.1654V79.3111M307.225 59.1654H327.37M307.225 79.3111V99.4568M307.225 79.3111H327.37M307.225 99.4568V119.602M307.225 99.4568H327.37M307.225 119.602V139.748M307.225 119.602H327.37M307.225 139.748V159.894M307.225 139.748H327.37M307.225 159.894V180.039M307.225 159.894H327.37M307.225 180.039V200.185M307.225 180.039H327.37M307.225 200.185V220.331M307.225 200.185H327.37M307.225 220.331V240.476M307.225 220.331H327.37M307.225 240.476V260.622M307.225 240.476H327.37M307.225 260.622V280.768M307.225 260.622H327.37M307.225 280.768V300.914M307.225 280.768H327.37M307.225 300.914H327.37M327.37 -102V-81.8543M327.37 -102H347.516M327.37 -81.8543V-61.7086M327.37 -81.8543H347.516M327.37 -61.7086V-41.563M327.37 -61.7086H347.516M327.37 -41.563V-21.4173M327.37 -41.563H347.516M327.37 -21.4173V-1.27162M327.37 -21.4173H347.516M327.37 -1.27162V18.8741M327.37 -1.27162H347.516M327.37 18.8741V39.0197M327.37 18.8741H347.516M327.37 39.0197V59.1654M327.37 39.0197H347.516M327.37 59.1654V79.3111M327.37 59.1654H347.516M327.37 79.3111V99.4568M327.37 79.3111H347.516M327.37 99.4568V119.602M327.37 99.4568H347.516M327.37 119.602V139.748M327.37 119.602H347.516M327.37 139.748V159.894M327.37 139.748H347.516M327.37 159.894V180.039M327.37 159.894H347.516M327.37 180.039V200.185M327.37 180.039H347.516M327.37 200.185V220.331M327.37 200.185H347.516M327.37 220.331V240.476M327.37 220.331H347.516M327.37 240.476V260.622M327.37 240.476H347.516M327.37 260.622V280.768M327.37 260.622H347.516M327.37 280.768V300.914M327.37 280.768H347.516M327.37 300.914H347.516M347.516 -102V-81.8543M347.516 -102H367.662M347.516 -81.8543V-61.7086M347.516 -81.8543H367.662M347.516 -61.7086V-41.563M347.516 -61.7086H367.662M347.516 -41.563V-21.4173M347.516 -41.563H367.662M347.516 -21.4173V-1.27162M347.516 -21.4173H367.662M347.516 -1.27162V18.8741M347.516 -1.27162H367.662M347.516 18.8741V39.0197M347.516 18.8741H367.662M347.516 39.0197V59.1654M347.516 39.0197H367.662M347.516 59.1654V79.3111M347.516 59.1654H367.662M347.516 79.3111V99.4568M347.516 79.3111H367.662M347.516 99.4568V119.602M347.516 99.4568H367.662M347.516 119.602V139.748M347.516 119.602H367.662M347.516 139.748V159.894M347.516 139.748H367.662M347.516 159.894V180.039M347.516 159.894H367.662M347.516 180.039V200.185M347.516 180.039H367.662M347.516 200.185V220.331M347.516 200.185H367.662M347.516 220.331V240.476M347.516 220.331H367.662M347.516 240.476V260.622M347.516 240.476H367.662M347.516 260.622V280.768M347.516 260.622H367.662M347.516 280.768V300.914M347.516 280.768H367.662M347.516 300.914H367.662M367.662 -102V-81.8543M367.662 -102H387.807M367.662 -81.8543V-61.7086M367.662 -81.8543H387.807M367.662 -61.7086V-41.563M367.662 -61.7086H387.807M367.662 -41.563V-21.4173M367.662 -41.563H387.807M367.662 -21.4173V-1.27162M367.662 -21.4173H387.807M367.662 -1.27162V18.8741M367.662 -1.27162H387.807M367.662 18.8741V39.0197M367.662 18.8741H387.807M367.662 39.0197V59.1654M367.662 39.0197H387.807M367.662 59.1654V79.3111M367.662 59.1654H387.807M367.662 79.3111V99.4568M367.662 79.3111H387.807M367.662 99.4568V119.602M367.662 99.4568H387.807M367.662 119.602V139.748M367.662 119.602H387.807M367.662 139.748V159.894M367.662 139.748H387.807M367.662 159.894V180.039M367.662 159.894H387.807M367.662 180.039V200.185M367.662 180.039H387.807M367.662 200.185V220.331M367.662 200.185H387.807M367.662 220.331V240.476M367.662 220.331H387.807M367.662 240.476V260.622M367.662 240.476H387.807M367.662 260.622V280.768M367.662 260.622H387.807M367.662 280.768V300.914M367.662 280.768H387.807M367.662 300.914H387.807M387.807 -102V-81.8543M387.807 -102H407.953M387.807 -81.8543V-61.7086M387.807 -81.8543H407.953M387.807 -61.7086V-41.563M387.807 -61.7086H407.953M387.807 -41.563V-21.4173M387.807 -41.563H407.953M387.807 -21.4173V-1.27162M387.807 -21.4173H407.953M387.807 -1.27162V18.8741M387.807 -1.27162H407.953M387.807 18.8741V39.0197M387.807 18.8741H407.953M387.807 39.0197V59.1654M387.807 39.0197H407.953M387.807 59.1654V79.3111M387.807 59.1654H407.953M387.807 79.3111V99.4568M387.807 79.3111H407.953M387.807 99.4568V119.602M387.807 99.4568H407.953M387.807 119.602V139.748M387.807 119.602H407.953M387.807 139.748V159.894M387.807 139.748H407.953M387.807 159.894V180.039M387.807 159.894H407.953M387.807 180.039V200.185M387.807 180.039H407.953M387.807 200.185V220.331M387.807 200.185H407.953M387.807 220.331V240.476M387.807 220.331H407.953M387.807 240.476V260.622M387.807 240.476H407.953M387.807 260.622V280.768M387.807 260.622H407.953M387.807 280.768V300.914M387.807 280.768H407.953M387.807 300.914H407.953M407.953 -102V-81.8543M407.953 -102H428.099M407.953 -81.8543V-61.7086M407.953 -81.8543H428.099M407.953 -61.7086V-41.563M407.953 -61.7086H428.099M407.953 -41.563V-21.4173M407.953 -41.563H428.099M407.953 -21.4173V-1.27162M407.953 -21.4173H428.099M407.953 -1.27162V18.8741M407.953 -1.27162H428.099M407.953 18.8741V39.0197M407.953 18.8741H428.099M407.953 39.0197V59.1654M407.953 39.0197H428.099M407.953 59.1654V79.3111M407.953 59.1654H428.099M407.953 79.3111V99.4568M407.953 79.3111H428.099M407.953 99.4568V119.602M407.953 99.4568H428.099M407.953 119.602V139.748M407.953 119.602H428.099M407.953 139.748V159.894M407.953 139.748H428.099M407.953 159.894V180.039M407.953 159.894H428.099M407.953 180.039V200.185M407.953 180.039H428.099M407.953 200.185V220.331M407.953 200.185H428.099M407.953 220.331V240.476M407.953 220.331H428.099M407.953 240.476V260.622M407.953 240.476H428.099M407.953 260.622V280.768M407.953 260.622H428.099M407.953 280.768V300.914M407.953 280.768H428.099M407.953 300.914H428.099M428.099 -102V-81.8543M428.099 -102H448.244M428.099 -81.8543V-61.7086M428.099 -81.8543H448.244M428.099 -61.7086V-41.563M428.099 -61.7086H448.244M428.099 -41.563V-21.4173M428.099 -41.563H448.244M428.099 -21.4173V-1.27162M428.099 -21.4173H448.244M428.099 -1.27162V18.8741M428.099 -1.27162H448.244M428.099 18.8741V39.0197M428.099 18.8741H448.244M428.099 39.0197V59.1654M428.099 39.0197H448.244M428.099 59.1654V79.3111M428.099 59.1654H448.244M428.099 79.3111V99.4568M428.099 79.3111H448.244M428.099 99.4568V119.602M428.099 99.4568H448.244M428.099 119.602V139.748M428.099 119.602H448.244M428.099 139.748V159.894M428.099 139.748H448.244M428.099 159.894V180.039M428.099 159.894H448.244M428.099 180.039V200.185M428.099 180.039H448.244M428.099 200.185V220.331M428.099 200.185H448.244M428.099 220.331V240.476M428.099 220.331H448.244M428.099 240.476V260.622M428.099 240.476H448.244M428.099 260.622V280.768M428.099 260.622H448.244M428.099 280.768V300.914M428.099 280.768H448.244M428.099 300.914H448.244M448.244 -102V-81.8543M448.244 -102H468.39M448.244 -81.8543V-61.7086M448.244 -81.8543H468.39M448.244 -61.7086V-41.563M448.244 -61.7086H468.39M448.244 -41.563V-21.4173M448.244 -41.563H468.39M448.244 -21.4173V-1.27162M448.244 -21.4173H468.39M448.244 -1.27162V18.8741M448.244 -1.27162H468.39M448.244 18.8741V39.0197M448.244 18.8741H468.39M448.244 39.0197V59.1654M448.244 39.0197H468.39M448.244 59.1654V79.3111M448.244 59.1654H468.39M448.244 79.3111V99.4568M448.244 79.3111H468.39M448.244 99.4568V119.602M448.244 99.4568H468.39M448.244 119.602V139.748M448.244 119.602H468.39M448.244 139.748V159.894M448.244 139.748H468.39M448.244 159.894V180.039M448.244 159.894H468.39M448.244 180.039V200.185M448.244 180.039H468.39M448.244 200.185V220.331M448.244 200.185H468.39M448.244 220.331V240.476M448.244 220.331H468.39M448.244 240.476V260.622M448.244 240.476H468.39M448.244 260.622V280.768M448.244 260.622H468.39M448.244 280.768V300.914M448.244 280.768H468.39M448.244 300.914H468.39M468.39 -102V-81.8543M468.39 -102H488.536M468.39 -81.8543V-61.7086M468.39 -81.8543H488.536M468.39 -61.7086V-41.563M468.39 -61.7086H488.536M468.39 -41.563V-21.4173M468.39 -41.563H488.536M468.39 -21.4173V-1.27162M468.39 -21.4173H488.536M468.39 -1.27162V18.8741M468.39 -1.27162H488.536M468.39 18.8741V39.0197M468.39 18.8741H488.536M468.39 39.0197V59.1654M468.39 39.0197H488.536M468.39 59.1654V79.3111M468.39 59.1654H488.536M468.39 79.3111V99.4568M468.39 79.3111H488.536M468.39 99.4568V119.602M468.39 99.4568H488.536M468.39 119.602V139.748M468.39 119.602H488.536M468.39 139.748V159.894M468.39 139.748H488.536M468.39 159.894V180.039M468.39 159.894H488.536M468.39 180.039V200.185M468.39 180.039H488.536M468.39 200.185V220.331M468.39 200.185H488.536M468.39 220.331V240.476M468.39 220.331H488.536M468.39 240.476V260.622M468.39 240.476H488.536M468.39 260.622V280.768M468.39 260.622H488.536M468.39 280.768V300.914M468.39 280.768H488.536M468.39 300.914H488.536M488.536 -102V-81.8543M488.536 -102H508.682M488.536 -81.8543V-61.7086M488.536 -81.8543H508.682M488.536 -61.7086V-41.563M488.536 -61.7086H508.682M488.536 -41.563V-21.4173M488.536 -41.563H508.682M488.536 -21.4173V-1.27162M488.536 -21.4173H508.682M488.536 -1.27162V18.8741M488.536 -1.27162H508.682M488.536 18.8741V39.0197M488.536 18.8741H508.682M488.536 39.0197V59.1654M488.536 39.0197H508.682M488.536 59.1654V79.3111M488.536 59.1654H508.682M488.536 79.3111V99.4568M488.536 79.3111H508.682M488.536 99.4568V119.602M488.536 99.4568H508.682M488.536 119.602V139.748M488.536 119.602H508.682M488.536 139.748V159.894M488.536 139.748H508.682M488.536 159.894V180.039M488.536 159.894H508.682M488.536 180.039V200.185M488.536 180.039H508.682M488.536 200.185V220.331M488.536 200.185H508.682M488.536 220.331V240.476M488.536 220.331H508.682M488.536 240.476V260.622M488.536 240.476H508.682M488.536 260.622V280.768M488.536 260.622H508.682M488.536 280.768V300.914M488.536 280.768H508.682M488.536 300.914H508.682M508.682 -102V-81.8543M508.682 -102H528.827M508.682 -81.8543V-61.7086M508.682 -81.8543H528.827M508.682 -61.7086V-41.563M508.682 -61.7086H528.827M508.682 -41.563V-21.4173M508.682 -41.563H528.827M508.682 -21.4173V-1.27162M508.682 -21.4173H528.827M508.682 -1.27162V18.8741M508.682 -1.27162H528.827M508.682 18.8741V39.0197M508.682 18.8741H528.827M508.682 39.0197V59.1654M508.682 39.0197H528.827M508.682 59.1654V79.3111M508.682 59.1654H528.827M508.682 79.3111V99.4568M508.682 79.3111H528.827M508.682 99.4568V119.602M508.682 99.4568H528.827M508.682 119.602V139.748M508.682 119.602H528.827M508.682 139.748V159.894M508.682 139.748H528.827M508.682 159.894V180.039M508.682 159.894H528.827M508.682 180.039V200.185M508.682 180.039H528.827M508.682 200.185V220.331M508.682 200.185H528.827M508.682 220.331V240.476M508.682 220.331H528.827M508.682 240.476V260.622M508.682 240.476H528.827M508.682 260.622V280.768M508.682 260.622H528.827M508.682 280.768V300.914M508.682 280.768H528.827M508.682 300.914H528.827M528.827 -102V-81.8543M528.827 -102H548.973M528.827 -81.8543V-61.7086M528.827 -81.8543H548.973M528.827 -61.7086V-41.563M528.827 -61.7086H548.973M528.827 -41.563V-21.4173M528.827 -41.563H548.973M528.827 -21.4173V-1.27162M528.827 -21.4173H548.973M528.827 -1.27162V18.8741M528.827 -1.27162H548.973M528.827 18.8741V39.0197M528.827 18.8741H548.973M528.827 39.0197V59.1654M528.827 39.0197H548.973M528.827 59.1654V79.3111M528.827 59.1654H548.973M528.827 79.3111V99.4568M528.827 79.3111H548.973M528.827 99.4568V119.602M528.827 99.4568H548.973M528.827 119.602V139.748M528.827 119.602H548.973M528.827 139.748V159.894M528.827 139.748H548.973M528.827 159.894V180.039M528.827 159.894H548.973M528.827 180.039V200.185M528.827 180.039H548.973M528.827 200.185V220.331M528.827 200.185H548.973M528.827 220.331V240.476M528.827 220.331H548.973M528.827 240.476V260.622M528.827 240.476H548.973M528.827 260.622V280.768M528.827 260.622H548.973M528.827 280.768V300.914M528.827 280.768H548.973M528.827 300.914H548.973M548.973 -102V-81.8543M548.973 -102H569.119M548.973 -81.8543V-61.7086M548.973 -81.8543H569.119M548.973 -61.7086V-41.563M548.973 -61.7086H569.119M548.973 -41.563V-21.4173M548.973 -41.563H569.119M548.973 -21.4173V-1.27162M548.973 -21.4173H569.119M548.973 -1.27162V18.8741M548.973 -1.27162H569.119M548.973 18.8741V39.0197M548.973 18.8741H569.119M548.973 39.0197V59.1654M548.973 39.0197H569.119M548.973 59.1654V79.3111M548.973 59.1654H569.119M548.973 79.3111V99.4568M548.973 79.3111H569.119M548.973 99.4568V119.602M548.973 99.4568H569.119M548.973 119.602V139.748M548.973 119.602H569.119M548.973 139.748V159.894M548.973 139.748H569.119M548.973 159.894V180.039M548.973 159.894H569.119M548.973 180.039V200.185M548.973 180.039H569.119M548.973 200.185V220.331M548.973 200.185H569.119M548.973 220.331V240.476M548.973 220.331H569.119M548.973 240.476V260.622M548.973 240.476H569.119M548.973 260.622V280.768M548.973 260.622H569.119M548.973 280.768V300.914M548.973 280.768H569.119M548.973 300.914H569.119M569.119 -102V-81.8543M569.119 -102H589.264M569.119 -81.8543V-61.7086M569.119 -81.8543H589.264M569.119 -61.7086V-41.563M569.119 -61.7086H589.264M569.119 -41.563V-21.4173M569.119 -41.563H589.264M569.119 -21.4173V-1.27162M569.119 -21.4173H589.264M569.119 -1.27162V18.8741M569.119 -1.27162H589.264M569.119 18.8741V39.0197M569.119 18.8741H589.264M569.119 39.0197V59.1654M569.119 39.0197H589.264M569.119 59.1654V79.3111M569.119 59.1654H589.264M569.119 79.3111V99.4568M569.119 79.3111H589.264M569.119 99.4568V119.602M569.119 99.4568H589.264M569.119 119.602V139.748M569.119 119.602H589.264M569.119 139.748V159.894M569.119 139.748H589.264M569.119 159.894V180.039M569.119 159.894H589.264M569.119 180.039V200.185M569.119 180.039H589.264M569.119 200.185V220.331M569.119 200.185H589.264M569.119 220.331V240.476M569.119 220.331H589.264M569.119 240.476V260.622M569.119 240.476H589.264M569.119 260.622V280.768M569.119 260.622H589.264M569.119 280.768V300.914M569.119 280.768H589.264M569.119 300.914H589.264M589.264 -102V-81.8543M589.264 -102H609.41V-81.8543M589.264 -81.8543V-61.7086M589.264 -81.8543H609.41M589.264 -61.7086V-41.563M589.264 -61.7086H609.41M589.264 -41.563V-21.4173M589.264 -41.563H609.41M589.264 -21.4173V-1.27162M589.264 -21.4173H609.41M589.264 -1.27162V18.8741M589.264 -1.27162H609.41M589.264 18.8741V39.0197M589.264 18.8741H609.41M589.264 39.0197V59.1654M589.264 39.0197H609.41M589.264 59.1654V79.3111M589.264 59.1654H609.41M589.264 79.3111V99.4568M589.264 79.3111H609.41M589.264 99.4568V119.602M589.264 99.4568H609.41M589.264 119.602V139.748M589.264 119.602H609.41M589.264 139.748V159.894M589.264 139.748H609.41M589.264 159.894V180.039M589.264 159.894H609.41M589.264 180.039V200.185M589.264 180.039H609.41M589.264 200.185V220.331M589.264 200.185H609.41M589.264 220.331V240.476M589.264 220.331H609.41M589.264 240.476V260.622M589.264 240.476H609.41M589.264 260.622V280.768M589.264 260.622H609.41M589.264 280.768V300.914M589.264 280.768H609.41M589.264 300.914H609.41V280.768M609.41 -81.8543V-61.7086M609.41 -61.7086V-41.563M609.41 -41.563V-21.4173M609.41 -21.4173V-1.27162M609.41 -1.27162V18.8741M609.41 18.8741V39.0197M609.41 39.0197V59.1654M609.41 59.1654V79.3111M609.41 79.3111V99.4568M609.41 99.4568V119.602M609.41 119.602V139.748M609.41 139.748V159.894M609.41 159.894V180.039M609.41 180.039V200.185M609.41 200.185V220.331M609.41 220.331V240.476M609.41 240.476V260.622M609.41 260.622V280.768" stroke="url(#paint0_radial_4001_29364)" stroke-opacity="0.2" stroke-width="0.5"/>
</g>
<g style="mix-blend-mode:soft-light" opacity="0.8">
<path d="M85.5476 113.658V119.702M85.5476 119.702V125.746M85.5476 119.702H79.5039M85.5476 119.702H91.5913M246.77 53.1211V59.1648M246.77 59.1648V65.2085M246.77 59.1648H240.726M246.77 59.1648H252.813M246.77 113.658V119.702M246.77 119.702V125.746M246.77 119.702H240.726M246.77 119.702H252.813M85.5476 53.1211V59.1648M85.5476 59.1648V65.2085M85.5476 59.1648H79.5039M85.5476 59.1648H91.5914" stroke="url(#paint1_radial_4001_29364)" stroke-opacity="0.5" stroke-width="0.503642"/>
</g>
</g>
<defs>
<radialGradient id="paint0_radial_4001_29364" cx="0" cy="0" r="1" gradientUnits="userSpaceOnUse" gradientTransform="translate(166.205 99.4568) rotate(90) scale(201.457 443.205)">
<stop offset="0.149605" stop-color="#F2F2F2"/>
<stop offset="0.508874" stop-color="#F2F2F2" stop-opacity="0"/>
</radialGradient>
<radialGradient id="paint1_radial_4001_29364" cx="0" cy="0" r="1" gradientUnits="userSpaceOnUse" gradientTransform="translate(166.198 99.456) rotate(90) scale(207.5 449.249)">
<stop stop-color="#F2F2F2"/>
<stop offset="0.40685" stop-color="#F2F2F2" stop-opacity="0"/>
</radialGradient>
<clipPath id="clip0_4001_29364">
<rect width="332" height="260" fill="white"/>
</clipPath>
</defs>
</svg>
