<svg width="52" height="52" viewBox="0 0 52 52" fill="none" xmlns="http://www.w3.org/2000/svg">
<rect x="0.5" y="0.5" width="51" height="51" rx="25.5" stroke="#282D33"/>
<path opacity="0.4" fill-rule="evenodd" clip-rule="evenodd" d="M25.0625 17.666C25.0625 17.1482 25.4822 16.7285 26 16.7285C31.1201 16.7285 35.2708 20.8792 35.2708 25.9993C35.2708 26.5171 34.8511 26.9368 34.3333 26.9368C33.8156 26.9368 33.3958 26.5171 33.3958 25.9993C33.3958 21.9147 30.0846 18.6035 26 18.6035C25.4822 18.6035 25.0625 18.1838 25.0625 17.666Z" fill="#F2F2F2"/>
<path fill-rule="evenodd" clip-rule="evenodd" d="M18.9495 21.4566C19.4131 21.687 19.6022 22.2497 19.3718 22.7133C18.8803 23.7023 18.6035 24.8174 18.6035 25.9998C18.6035 30.0844 21.9147 33.3956 25.9993 33.3956C30.084 33.3956 33.3952 30.0844 33.3952 25.9998C33.3952 25.482 33.8149 25.0623 34.3327 25.0623C34.8505 25.0623 35.2702 25.482 35.2702 25.9998C35.2702 31.1199 31.1195 35.2706 25.9993 35.2706C20.8792 35.2706 16.7285 31.1199 16.7285 25.9998C16.7285 24.5214 17.0753 23.1213 17.6927 21.8789C17.9231 21.4152 18.4858 21.2261 18.9495 21.4566Z" fill="#F2F2F2"/>
</svg>
