<svg width="314" height="81" viewBox="0 0 314 81" fill="none" xmlns="http://www.w3.org/2000/svg">
<g clip-path="url(#clip0_1630_34672)">
<g style="" opacity="0.7">
<path d="M-65.9303 -57.3691H-81.3672V-41.9322M-65.9303 -57.3691V-41.9322M-65.9303 -57.3691H-50.4934M-65.9303 -41.9322H-81.3672M-65.9303 -41.9322V-26.4954M-65.9303 -41.9322H-50.4934M-81.3672 -41.9322V-26.4954M-65.9303 -26.4954H-81.3672M-65.9303 -26.4954V-11.0585M-65.9303 -26.4954H-50.4934M-81.3672 -26.4954V-11.0585M-65.9303 -11.0585H-81.3672M-65.9303 -11.0585V4.37843M-65.9303 -11.0585H-50.4934M-81.3672 -11.0585V4.37843M-65.9303 4.37843H-81.3672M-65.9303 4.37843V19.8153M-65.9303 4.37843H-50.4934M-81.3672 4.37843V19.8153M-65.9303 19.8153H-81.3672M-65.9303 19.8153V35.2522M-65.9303 19.8153H-50.4934M-81.3672 19.8153V35.2522M-65.9303 35.2522H-81.3672M-65.9303 35.2522V50.6891M-65.9303 35.2522H-50.4934M-81.3672 35.2522V50.6891M-65.9303 50.6891H-81.3672M-65.9303 50.6891V66.126M-65.9303 50.6891H-50.4934M-81.3672 50.6891V66.126M-65.9303 66.126H-81.3672M-65.9303 66.126V81.5629M-65.9303 66.126H-50.4934M-81.3672 66.126V81.5629M-65.9303 81.5629H-81.3672M-65.9303 81.5629V96.9998M-65.9303 81.5629H-50.4934M-81.3672 81.5629V96.9998M-65.9303 96.9998H-81.3672M-65.9303 96.9998V112.437M-65.9303 96.9998H-50.4934M-81.3672 96.9998V112.437M-65.9303 112.437H-81.3672M-65.9303 112.437V127.874M-65.9303 112.437H-50.4934M-81.3672 112.437V127.874M-65.9303 127.874H-81.3672M-65.9303 127.874V143.31M-65.9303 127.874H-50.4934M-81.3672 127.874V143.31M-65.9303 143.31H-81.3672M-65.9303 143.31V158.747M-65.9303 143.31H-50.4934M-81.3672 143.31V158.747M-65.9303 158.747H-81.3672M-65.9303 158.747V174.184M-65.9303 158.747H-50.4934M-81.3672 158.747V174.184M-65.9303 174.184H-81.3672M-65.9303 174.184V189.621M-65.9303 174.184H-50.4934M-81.3672 174.184V189.621M-65.9303 189.621H-81.3672M-65.9303 189.621V205.058M-65.9303 189.621H-50.4934M-81.3672 189.621V205.058M-65.9303 205.058H-81.3672M-65.9303 205.058V220.495M-65.9303 205.058H-50.4934M-81.3672 205.058V220.495M-65.9303 220.495H-81.3672M-65.9303 220.495V235.932M-65.9303 220.495H-50.4934M-81.3672 220.495V235.932M-65.9303 235.932H-81.3672M-65.9303 235.932V251.369M-65.9303 235.932H-50.4934M-81.3672 235.932V251.369H-65.9303M-65.9303 251.369H-50.4934M-50.4934 -57.3691V-41.9322M-50.4934 -57.3691H-35.0565M-50.4934 -41.9322V-26.4954M-50.4934 -41.9322H-35.0565M-50.4934 -26.4954V-11.0585M-50.4934 -26.4954H-35.0565M-50.4934 -11.0585V4.37843M-50.4934 -11.0585H-35.0565M-50.4934 4.37843V19.8153M-50.4934 4.37843H-35.0565M-50.4934 19.8153V35.2522M-50.4934 19.8153H-35.0565M-50.4934 35.2522V50.6891M-50.4934 35.2522H-35.0565M-50.4934 50.6891V66.126M-50.4934 50.6891H-35.0565M-50.4934 66.126V81.5629M-50.4934 66.126H-35.0565M-50.4934 81.5629V96.9998M-50.4934 81.5629H-35.0565M-50.4934 96.9998V112.437M-50.4934 96.9998H-35.0565M-50.4934 112.437V127.874M-50.4934 112.437H-35.0565M-50.4934 127.874V143.31M-50.4934 127.874H-35.0565M-50.4934 143.31V158.747M-50.4934 143.31H-35.0565M-50.4934 158.747V174.184M-50.4934 158.747H-35.0565M-50.4934 174.184V189.621M-50.4934 174.184H-35.0565M-50.4934 189.621V205.058M-50.4934 189.621H-35.0565M-50.4934 205.058V220.495M-50.4934 205.058H-35.0565M-50.4934 220.495V235.932M-50.4934 220.495H-35.0565M-50.4934 235.932V251.369M-50.4934 235.932H-35.0565M-50.4934 251.369H-35.0565M-35.0565 -57.3691V-41.9322M-35.0565 -57.3691H-19.6196M-35.0565 -41.9322V-26.4954M-35.0565 -41.9322H-19.6196M-35.0565 -26.4954V-11.0585M-35.0565 -26.4954H-19.6196M-35.0565 -11.0585V4.37843M-35.0565 -11.0585H-19.6196M-35.0565 4.37843V19.8153M-35.0565 4.37843H-19.6196M-35.0565 19.8153V35.2522M-35.0565 19.8153H-19.6196M-35.0565 35.2522V50.6891M-35.0565 35.2522H-19.6196M-35.0565 50.6891V66.126M-35.0565 50.6891H-19.6196M-35.0565 66.126V81.5629M-35.0565 66.126H-19.6196M-35.0565 81.5629V96.9998M-35.0565 81.5629H-19.6196M-35.0565 96.9998V112.437M-35.0565 96.9998H-19.6196M-35.0565 112.437V127.874M-35.0565 112.437H-19.6196M-35.0565 127.874V143.31M-35.0565 127.874H-19.6196M-35.0565 143.31V158.747M-35.0565 143.31H-19.6196M-35.0565 158.747V174.184M-35.0565 158.747H-19.6196M-35.0565 174.184V189.621M-35.0565 174.184H-19.6196M-35.0565 189.621V205.058M-35.0565 189.621H-19.6196M-35.0565 205.058V220.495M-35.0565 205.058H-19.6196M-35.0565 220.495V235.932M-35.0565 220.495H-19.6196M-35.0565 235.932V251.369M-35.0565 235.932H-19.6196M-35.0565 251.369H-19.6196M-19.6196 -57.3691V-41.9322M-19.6196 -57.3691H-4.18272M-19.6196 -41.9322V-26.4954M-19.6196 -41.9322H-4.18272M-19.6196 -26.4954V-11.0585M-19.6196 -26.4954H-4.18272M-19.6196 -11.0585V4.37843M-19.6196 -11.0585H-4.18272M-19.6196 4.37843V19.8153M-19.6196 4.37843H-4.18272M-19.6196 19.8153V35.2522M-19.6196 19.8153H-4.18272M-19.6196 35.2522V50.6891M-19.6196 35.2522H-4.18272M-19.6196 50.6891V66.126M-19.6196 50.6891H-4.18272M-19.6196 66.126V81.5629M-19.6196 66.126H-4.18272M-19.6196 81.5629V96.9998M-19.6196 81.5629H-4.18272M-19.6196 96.9998V112.437M-19.6196 96.9998H-4.18272M-19.6196 112.437V127.874M-19.6196 112.437H-4.18272M-19.6196 127.874V143.31M-19.6196 127.874H-4.18272M-19.6196 143.31V158.747M-19.6196 143.31H-4.18272M-19.6196 158.747V174.184M-19.6196 158.747H-4.18272M-19.6196 174.184V189.621M-19.6196 174.184H-4.18272M-19.6196 189.621V205.058M-19.6196 189.621H-4.18272M-19.6196 205.058V220.495M-19.6196 205.058H-4.18272M-19.6196 220.495V235.932M-19.6196 220.495H-4.18272M-19.6196 235.932V251.369M-19.6196 235.932H-4.18272M-19.6196 251.369H-4.18272M-4.18272 -57.3691V-41.9322M-4.18272 -57.3691H11.2542M-4.18272 -41.9322V-26.4954M-4.18272 -41.9322H11.2542M-4.18272 -26.4954V-11.0585M-4.18272 -26.4954H11.2542M-4.18272 -11.0585V4.37843M-4.18272 -11.0585H11.2542M-4.18272 4.37843V19.8153M-4.18272 4.37843H11.2542M-4.18272 19.8153V35.2522M-4.18272 19.8153H11.2542M-4.18272 35.2522V50.6891M-4.18272 35.2522H11.2542M-4.18272 50.6891V66.126M-4.18272 50.6891H11.2542M-4.18272 66.126V81.5629M-4.18272 66.126H11.2542M-4.18272 81.5629V96.9998M-4.18272 81.5629H11.2542M-4.18272 96.9998V112.437M-4.18272 96.9998H11.2542M-4.18272 112.437V127.874M-4.18272 112.437H11.2542M-4.18272 127.874V143.31M-4.18272 127.874H11.2542M-4.18272 143.31V158.747M-4.18272 143.31H11.2542M-4.18272 158.747V174.184M-4.18272 158.747H11.2542M-4.18272 174.184V189.621M-4.18272 174.184H11.2542M-4.18272 189.621V205.058M-4.18272 189.621H11.2542M-4.18272 205.058V220.495M-4.18272 205.058H11.2542M-4.18272 220.495V235.932M-4.18272 220.495H11.2542M-4.18272 235.932V251.369M-4.18272 235.932H11.2542M-4.18272 251.369H11.2542M11.2542 -57.3691V-41.9322M11.2542 -57.3691H26.6911M11.2542 -41.9322V-26.4954M11.2542 -41.9322H26.6911M11.2542 -26.4954V-11.0585M11.2542 -26.4954H26.6911M11.2542 -11.0585V4.37843M11.2542 -11.0585H26.6911M11.2542 4.37843V19.8153M11.2542 4.37843H26.6911M11.2542 19.8153V35.2522M11.2542 19.8153H26.6911M11.2542 35.2522V50.6891M11.2542 35.2522H26.6911M11.2542 50.6891V66.126M11.2542 50.6891H26.6911M11.2542 66.126V81.5629M11.2542 66.126H26.6911M11.2542 81.5629V96.9998M11.2542 81.5629H26.6911M11.2542 96.9998V112.437M11.2542 96.9998H26.6911M11.2542 112.437V127.874M11.2542 112.437H26.6911M11.2542 127.874V143.31M11.2542 127.874H26.6911M11.2542 143.31V158.747M11.2542 143.31H26.6911M11.2542 158.747V174.184M11.2542 158.747H26.6911M11.2542 174.184V189.621M11.2542 174.184H26.6911M11.2542 189.621V205.058M11.2542 189.621H26.6911M11.2542 205.058V220.495M11.2542 205.058H26.6911M11.2542 220.495V235.932M11.2542 220.495H26.6911M11.2542 235.932V251.369M11.2542 235.932H26.6911M11.2542 251.369H26.6911M26.6911 -57.3691V-41.9322M26.6911 -57.3691H42.128M26.6911 -41.9322V-26.4954M26.6911 -41.9322H42.128M26.6911 -26.4954V-11.0585M26.6911 -26.4954H42.128M26.6911 -11.0585V4.37843M26.6911 -11.0585H42.128M26.6911 4.37843V19.8153M26.6911 4.37843H42.128M26.6911 19.8153V35.2522M26.6911 19.8153H42.128M26.6911 35.2522V50.6891M26.6911 35.2522H42.128M26.6911 50.6891V66.126M26.6911 50.6891H42.128M26.6911 66.126V81.5629M26.6911 66.126H42.128M26.6911 81.5629V96.9998M26.6911 81.5629H42.128M26.6911 96.9998V112.437M26.6911 96.9998H42.128M26.6911 112.437V127.874M26.6911 112.437H42.128M26.6911 127.874V143.31M26.6911 127.874H42.128M26.6911 143.31V158.747M26.6911 143.31H42.128M26.6911 158.747V174.184M26.6911 158.747H42.128M26.6911 174.184V189.621M26.6911 174.184H42.128M26.6911 189.621V205.058M26.6911 189.621H42.128M26.6911 205.058V220.495M26.6911 205.058H42.128M26.6911 220.495V235.932M26.6911 220.495H42.128M26.6911 235.932V251.369M26.6911 235.932H42.128M26.6911 251.369H42.128M42.128 -57.3691V-41.9322M42.128 -57.3691H57.5648M42.128 -41.9322V-26.4954M42.128 -41.9322H57.5648M42.128 -26.4954V-11.0585M42.128 -26.4954H57.5648M42.128 -11.0585V4.37843M42.128 -11.0585H57.5648M42.128 4.37843V19.8153M42.128 4.37843H57.5648M42.128 19.8153V35.2522M42.128 19.8153H57.5648M42.128 35.2522V50.6891M42.128 35.2522H57.5648M42.128 50.6891V66.126M42.128 50.6891H57.5648M42.128 66.126V81.5629M42.128 66.126H57.5648M42.128 81.5629V96.9998M42.128 81.5629H57.5648M42.128 96.9998V112.437M42.128 96.9998H57.5648M42.128 112.437V127.874M42.128 112.437H57.5648M42.128 127.874V143.31M42.128 127.874H57.5648M42.128 143.31V158.747M42.128 143.31H57.5648M42.128 158.747V174.184M42.128 158.747H57.5648M42.128 174.184V189.621M42.128 174.184H57.5648M42.128 189.621V205.058M42.128 189.621H57.5648M42.128 205.058V220.495M42.128 205.058H57.5648M42.128 220.495V235.932M42.128 220.495H57.5648M42.128 235.932V251.369M42.128 235.932H57.5648M42.128 251.369H57.5648M57.5648 -57.3691V-41.9322M57.5648 -57.3691H73.0017M57.5648 -41.9322V-26.4954M57.5648 -41.9322H73.0017M57.5648 -26.4954V-11.0585M57.5648 -26.4954H73.0017M57.5648 -11.0585V4.37843M57.5648 -11.0585H73.0017M57.5648 4.37843V19.8153M57.5648 4.37843H73.0017M57.5648 19.8153V35.2522M57.5648 19.8153H73.0017M57.5648 35.2522V50.6891M57.5648 35.2522H73.0017M57.5648 50.6891V66.126M57.5648 50.6891H73.0017M57.5648 66.126V81.5629M57.5648 66.126H73.0017M57.5648 81.5629V96.9998M57.5648 81.5629H73.0017M57.5648 96.9998V112.437M57.5648 96.9998H73.0017M57.5648 112.437V127.874M57.5648 112.437H73.0017M57.5648 127.874V143.31M57.5648 127.874H73.0017M57.5648 143.31V158.747M57.5648 143.31H73.0017M57.5648 158.747V174.184M57.5648 158.747H73.0017M57.5648 174.184V189.621M57.5648 174.184H73.0017M57.5648 189.621V205.058M57.5648 189.621H73.0017M57.5648 205.058V220.495M57.5648 205.058H73.0017M57.5648 220.495V235.932M57.5648 220.495H73.0017M57.5648 235.932V251.369M57.5648 235.932H73.0017M57.5648 251.369H73.0017M73.0017 -57.3691V-41.9322M73.0017 -57.3691H88.4386M73.0017 -41.9322V-26.4954M73.0017 -41.9322H88.4386M73.0017 -26.4954V-11.0585M73.0017 -26.4954H88.4386M73.0017 -11.0585V4.37843M73.0017 -11.0585H88.4386M73.0017 4.37843V19.8153M73.0017 4.37843H88.4386M73.0017 19.8153V35.2522M73.0017 19.8153H88.4386M73.0017 35.2522V50.6891M73.0017 35.2522H88.4386M73.0017 50.6891V66.126M73.0017 50.6891H88.4386M73.0017 66.126V81.5629M73.0017 66.126H88.4386M73.0017 81.5629V96.9998M73.0017 81.5629H88.4386M73.0017 96.9998V112.437M73.0017 96.9998H88.4386M73.0017 112.437V127.874M73.0017 112.437H88.4386M73.0017 127.874V143.31M73.0017 127.874H88.4386M73.0017 143.31V158.747M73.0017 143.31H88.4386M73.0017 158.747V174.184M73.0017 158.747H88.4386M73.0017 174.184V189.621M73.0017 174.184H88.4386M73.0017 189.621V205.058M73.0017 189.621H88.4386M73.0017 205.058V220.495M73.0017 205.058H88.4386M73.0017 220.495V235.932M73.0017 220.495H88.4386M73.0017 235.932V251.369M73.0017 235.932H88.4386M73.0017 251.369H88.4386M88.4386 -57.3691V-41.9322M88.4386 -57.3691H103.876M88.4386 -41.9322V-26.4954M88.4386 -41.9322H103.876M88.4386 -26.4954V-11.0585M88.4386 -26.4954H103.876M88.4386 -11.0585V4.37843M88.4386 -11.0585H103.876M88.4386 4.37843V19.8153M88.4386 4.37843H103.876M88.4386 19.8153V35.2522M88.4386 19.8153H103.876M88.4386 35.2522V50.6891M88.4386 35.2522H103.876M88.4386 50.6891V66.126M88.4386 50.6891H103.876M88.4386 66.126V81.5629M88.4386 66.126H103.876M88.4386 81.5629V96.9998M88.4386 81.5629H103.876M88.4386 96.9998V112.437M88.4386 96.9998H103.876M88.4386 112.437V127.874M88.4386 112.437H103.876M88.4386 127.874V143.31M88.4386 127.874H103.876M88.4386 143.31V158.747M88.4386 143.31H103.876M88.4386 158.747V174.184M88.4386 158.747H103.876M88.4386 174.184V189.621M88.4386 174.184H103.876M88.4386 189.621V205.058M88.4386 189.621H103.876M88.4386 205.058V220.495M88.4386 205.058H103.876M88.4386 220.495V235.932M88.4386 220.495H103.876M88.4386 235.932V251.369M88.4386 235.932H103.876M88.4386 251.369H103.876M103.876 -57.3691V-41.9322M103.876 -57.3691H119.312M103.876 -41.9322V-26.4954M103.876 -41.9322H119.312M103.876 -26.4954V-11.0585M103.876 -26.4954H119.312M103.876 -11.0585V4.37843M103.876 -11.0585H119.312M103.876 4.37843V19.8153M103.876 4.37843H119.312M103.876 19.8153V35.2522M103.876 19.8153H119.312M103.876 35.2522V50.6891M103.876 35.2522H119.312M103.876 50.6891V66.126M103.876 50.6891H119.312M103.876 66.126V81.5629M103.876 66.126H119.312M103.876 81.5629V96.9998M103.876 81.5629H119.312M103.876 96.9998V112.437M103.876 96.9998H119.312M103.876 112.437V127.874M103.876 112.437H119.312M103.876 127.874V143.31M103.876 127.874H119.312M103.876 143.31V158.747M103.876 143.31H119.312M103.876 158.747V174.184M103.876 158.747H119.312M103.876 174.184V189.621M103.876 174.184H119.312M103.876 189.621V205.058M103.876 189.621H119.312M103.876 205.058V220.495M103.876 205.058H119.312M103.876 220.495V235.932M103.876 220.495H119.312M103.876 235.932V251.369M103.876 235.932H119.312M103.876 251.369H119.312M119.312 -57.3691V-41.9322M119.312 -57.3691H134.749M119.312 -41.9322V-26.4954M119.312 -41.9322H134.749M119.312 -26.4954V-11.0585M119.312 -26.4954H134.749M119.312 -11.0585V4.37843M119.312 -11.0585H134.749M119.312 4.37843V19.8153M119.312 4.37843H134.749M119.312 19.8153V35.2522M119.312 19.8153H134.749M119.312 35.2522V50.6891M119.312 35.2522H134.749M119.312 50.6891V66.126M119.312 50.6891H134.749M119.312 66.126V81.5629M119.312 66.126H134.749M119.312 81.5629V96.9998M119.312 81.5629H134.749M119.312 96.9998V112.437M119.312 96.9998H134.749M119.312 112.437V127.874M119.312 112.437H134.749M119.312 127.874V143.31M119.312 127.874H134.749M119.312 143.31V158.747M119.312 143.31H134.749M119.312 158.747V174.184M119.312 158.747H134.749M119.312 174.184V189.621M119.312 174.184H134.749M119.312 189.621V205.058M119.312 189.621H134.749M119.312 205.058V220.495M119.312 205.058H134.749M119.312 220.495V235.932M119.312 220.495H134.749M119.312 235.932V251.369M119.312 235.932H134.749M119.312 251.369H134.749M134.749 -57.3691V-41.9322M134.749 -57.3691H150.186M134.749 -41.9322V-26.4954M134.749 -41.9322H150.186M134.749 -26.4954V-11.0585M134.749 -26.4954H150.186M134.749 -11.0585V4.37843M134.749 -11.0585H150.186M134.749 4.37843V19.8153M134.749 4.37843H150.186M134.749 19.8153V35.2522M134.749 19.8153H150.186M134.749 35.2522V50.6891M134.749 35.2522H150.186M134.749 50.6891V66.126M134.749 50.6891H150.186M134.749 66.126V81.5629M134.749 66.126H150.186M134.749 81.5629V96.9998M134.749 81.5629H150.186M134.749 96.9998V112.437M134.749 96.9998H150.186M134.749 112.437V127.874M134.749 112.437H150.186M134.749 127.874V143.31M134.749 127.874H150.186M134.749 143.31V158.747M134.749 143.31H150.186M134.749 158.747V174.184M134.749 158.747H150.186M134.749 174.184V189.621M134.749 174.184H150.186M134.749 189.621V205.058M134.749 189.621H150.186M134.749 205.058V220.495M134.749 205.058H150.186M134.749 220.495V235.932M134.749 220.495H150.186M134.749 235.932V251.369M134.749 235.932H150.186M134.749 251.369H150.186M150.186 -57.3691V-41.9322M150.186 -57.3691H165.623M150.186 -41.9322V-26.4954M150.186 -41.9322H165.623M150.186 -26.4954V-11.0585M150.186 -26.4954H165.623M150.186 -11.0585V4.37843M150.186 -11.0585H165.623M150.186 4.37843V19.8153M150.186 4.37843H165.623M150.186 19.8153V35.2522M150.186 19.8153H165.623M150.186 35.2522V50.6891M150.186 35.2522H165.623M150.186 50.6891V66.126M150.186 50.6891H165.623M150.186 66.126V81.5629M150.186 66.126H165.623M150.186 81.5629V96.9998M150.186 81.5629H165.623M150.186 96.9998V112.437M150.186 96.9998H165.623M150.186 112.437V127.874M150.186 112.437H165.623M150.186 127.874V143.31M150.186 127.874H165.623M150.186 143.31V158.747M150.186 143.31H165.623M150.186 158.747V174.184M150.186 158.747H165.623M150.186 174.184V189.621M150.186 174.184H165.623M150.186 189.621V205.058M150.186 189.621H165.623M150.186 205.058V220.495M150.186 205.058H165.623M150.186 220.495V235.932M150.186 220.495H165.623M150.186 235.932V251.369M150.186 235.932H165.623M150.186 251.369H165.623M165.623 -57.3691V-41.9322M165.623 -57.3691H181.06M165.623 -41.9322V-26.4954M165.623 -41.9322H181.06M165.623 -26.4954V-11.0585M165.623 -26.4954H181.06M165.623 -11.0585V4.37843M165.623 -11.0585H181.06M165.623 4.37843V19.8153M165.623 4.37843H181.06M165.623 19.8153V35.2522M165.623 19.8153H181.06M165.623 35.2522V50.6891M165.623 35.2522H181.06M165.623 50.6891V66.126M165.623 50.6891H181.06M165.623 66.126V81.5629M165.623 66.126H181.06M165.623 81.5629V96.9998M165.623 81.5629H181.06M165.623 96.9998V112.437M165.623 96.9998H181.06M165.623 112.437V127.874M165.623 112.437H181.06M165.623 127.874V143.31M165.623 127.874H181.06M165.623 143.31V158.747M165.623 143.31H181.06M165.623 158.747V174.184M165.623 158.747H181.06M165.623 174.184V189.621M165.623 174.184H181.06M165.623 189.621V205.058M165.623 189.621H181.06M165.623 205.058V220.495M165.623 205.058H181.06M165.623 220.495V235.932M165.623 220.495H181.06M165.623 235.932V251.369M165.623 235.932H181.06M165.623 251.369H181.06M181.06 -57.3691V-41.9322M181.06 -57.3691H196.497M181.06 -41.9322V-26.4954M181.06 -41.9322H196.497M181.06 -26.4954V-11.0585M181.06 -26.4954H196.497M181.06 -11.0585V4.37843M181.06 -11.0585H196.497M181.06 4.37843V19.8153M181.06 4.37843H196.497M181.06 19.8153V35.2522M181.06 19.8153H196.497M181.06 35.2522V50.6891M181.06 35.2522H196.497M181.06 50.6891V66.126M181.06 50.6891H196.497M181.06 66.126V81.5629M181.06 66.126H196.497M181.06 81.5629V96.9998M181.06 81.5629H196.497M181.06 96.9998V112.437M181.06 96.9998H196.497M181.06 112.437V127.874M181.06 112.437H196.497M181.06 127.874V143.31M181.06 127.874H196.497M181.06 143.31V158.747M181.06 143.31H196.497M181.06 158.747V174.184M181.06 158.747H196.497M181.06 174.184V189.621M181.06 174.184H196.497M181.06 189.621V205.058M181.06 189.621H196.497M181.06 205.058V220.495M181.06 205.058H196.497M181.06 220.495V235.932M181.06 220.495H196.497M181.06 235.932V251.369M181.06 235.932H196.497M181.06 251.369H196.497M196.497 -57.3691V-41.9322M196.497 -57.3691H211.934M196.497 -41.9322V-26.4954M196.497 -41.9322H211.934M196.497 -26.4954V-11.0585M196.497 -26.4954H211.934M196.497 -11.0585V4.37843M196.497 -11.0585H211.934M196.497 4.37843V19.8153M196.497 4.37843H211.934M196.497 19.8153V35.2522M196.497 19.8153H211.934M196.497 35.2522V50.6891M196.497 35.2522H211.934M196.497 50.6891V66.126M196.497 50.6891H211.934M196.497 66.126V81.5629M196.497 66.126H211.934M196.497 81.5629V96.9998M196.497 81.5629H211.934M196.497 96.9998V112.437M196.497 96.9998H211.934M196.497 112.437V127.874M196.497 112.437H211.934M196.497 127.874V143.31M196.497 127.874H211.934M196.497 143.31V158.747M196.497 143.31H211.934M196.497 158.747V174.184M196.497 158.747H211.934M196.497 174.184V189.621M196.497 174.184H211.934M196.497 189.621V205.058M196.497 189.621H211.934M196.497 205.058V220.495M196.497 205.058H211.934M196.497 220.495V235.932M196.497 220.495H211.934M196.497 235.932V251.369M196.497 235.932H211.934M196.497 251.369H211.934M211.934 -57.3691V-41.9322M211.934 -57.3691H227.371M211.934 -41.9322V-26.4954M211.934 -41.9322H227.371M211.934 -26.4954V-11.0585M211.934 -26.4954H227.371M211.934 -11.0585V4.37843M211.934 -11.0585H227.371M211.934 4.37843V19.8153M211.934 4.37843H227.371M211.934 19.8153V35.2522M211.934 19.8153H227.371M211.934 35.2522V50.6891M211.934 35.2522H227.371M211.934 50.6891V66.126M211.934 50.6891H227.371M211.934 66.126V81.5629M211.934 66.126H227.371M211.934 81.5629V96.9998M211.934 81.5629H227.371M211.934 96.9998V112.437M211.934 96.9998H227.371M211.934 112.437V127.874M211.934 112.437H227.371M211.934 127.874V143.31M211.934 127.874H227.371M211.934 143.31V158.747M211.934 143.31H227.371M211.934 158.747V174.184M211.934 158.747H227.371M211.934 174.184V189.621M211.934 174.184H227.371M211.934 189.621V205.058M211.934 189.621H227.371M211.934 205.058V220.495M211.934 205.058H227.371M211.934 220.495V235.932M211.934 220.495H227.371M211.934 235.932V251.369M211.934 235.932H227.371M211.934 251.369H227.371M227.371 -57.3691V-41.9322M227.371 -57.3691H242.808M227.371 -41.9322V-26.4954M227.371 -41.9322H242.808M227.371 -26.4954V-11.0585M227.371 -26.4954H242.808M227.371 -11.0585V4.37843M227.371 -11.0585H242.808M227.371 4.37843V19.8153M227.371 4.37843H242.808M227.371 19.8153V35.2522M227.371 19.8153H242.808M227.371 35.2522V50.6891M227.371 35.2522H242.808M227.371 50.6891V66.126M227.371 50.6891H242.808M227.371 66.126V81.5629M227.371 66.126H242.808M227.371 81.5629V96.9998M227.371 81.5629H242.808M227.371 96.9998V112.437M227.371 96.9998H242.808M227.371 112.437V127.874M227.371 112.437H242.808M227.371 127.874V143.31M227.371 127.874H242.808M227.371 143.31V158.747M227.371 143.31H242.808M227.371 158.747V174.184M227.371 158.747H242.808M227.371 174.184V189.621M227.371 174.184H242.808M227.371 189.621V205.058M227.371 189.621H242.808M227.371 205.058V220.495M227.371 205.058H242.808M227.371 220.495V235.932M227.371 220.495H242.808M227.371 235.932V251.369M227.371 235.932H242.808M227.371 251.369H242.808M242.808 -57.3691V-41.9322M242.808 -57.3691H258.244M242.808 -41.9322V-26.4954M242.808 -41.9322H258.244M242.808 -26.4954V-11.0585M242.808 -26.4954H258.244M242.808 -11.0585V4.37843M242.808 -11.0585H258.244M242.808 4.37843V19.8153M242.808 4.37843H258.244M242.808 19.8153V35.2522M242.808 19.8153H258.244M242.808 35.2522V50.6891M242.808 35.2522H258.244M242.808 50.6891V66.126M242.808 50.6891H258.244M242.808 66.126V81.5629M242.808 66.126H258.244M242.808 81.5629V96.9998M242.808 81.5629H258.244M242.808 96.9998V112.437M242.808 96.9998H258.244M242.808 112.437V127.874M242.808 112.437H258.244M242.808 127.874V143.31M242.808 127.874H258.244M242.808 143.31V158.747M242.808 143.31H258.244M242.808 158.747V174.184M242.808 158.747H258.244M242.808 174.184V189.621M242.808 174.184H258.244M242.808 189.621V205.058M242.808 189.621H258.244M242.808 205.058V220.495M242.808 205.058H258.244M242.808 220.495V235.932M242.808 220.495H258.244M242.808 235.932V251.369M242.808 235.932H258.244M242.808 251.369H258.244M258.244 -57.3691V-41.9322M258.244 -57.3691H273.681M258.244 -41.9322V-26.4954M258.244 -41.9322H273.681M258.244 -26.4954V-11.0585M258.244 -26.4954H273.681M258.244 -11.0585V4.37843M258.244 -11.0585H273.681M258.244 4.37843V19.8153M258.244 4.37843H273.681M258.244 19.8153V35.2522M258.244 19.8153H273.681M258.244 35.2522V50.6891M258.244 35.2522H273.681M258.244 50.6891V66.126M258.244 50.6891H273.681M258.244 66.126V81.5629M258.244 66.126H273.681M258.244 81.5629V96.9998M258.244 81.5629H273.681M258.244 96.9998V112.437M258.244 96.9998H273.681M258.244 112.437V127.874M258.244 112.437H273.681M258.244 127.874V143.31M258.244 127.874H273.681M258.244 143.31V158.747M258.244 143.31H273.681M258.244 158.747V174.184M258.244 158.747H273.681M258.244 174.184V189.621M258.244 174.184H273.681M258.244 189.621V205.058M258.244 189.621H273.681M258.244 205.058V220.495M258.244 205.058H273.681M258.244 220.495V235.932M258.244 220.495H273.681M258.244 235.932V251.369M258.244 235.932H273.681M258.244 251.369H273.681M273.681 -57.3691V-41.9322M273.681 -57.3691H289.118M273.681 -41.9322V-26.4954M273.681 -41.9322H289.118M273.681 -26.4954V-11.0585M273.681 -26.4954H289.118M273.681 -11.0585V4.37843M273.681 -11.0585H289.118M273.681 4.37843V19.8153M273.681 4.37843H289.118M273.681 19.8153V35.2522M273.681 19.8153H289.118M273.681 35.2522V50.6891M273.681 35.2522H289.118M273.681 50.6891V66.126M273.681 50.6891H289.118M273.681 66.126V81.5629M273.681 66.126H289.118M273.681 81.5629V96.9998M273.681 81.5629H289.118M273.681 96.9998V112.437M273.681 96.9998H289.118M273.681 112.437V127.874M273.681 112.437H289.118M273.681 127.874V143.31M273.681 127.874H289.118M273.681 143.31V158.747M273.681 143.31H289.118M273.681 158.747V174.184M273.681 158.747H289.118M273.681 174.184V189.621M273.681 174.184H289.118M273.681 189.621V205.058M273.681 189.621H289.118M273.681 205.058V220.495M273.681 205.058H289.118M273.681 220.495V235.932M273.681 220.495H289.118M273.681 235.932V251.369M273.681 235.932H289.118M273.681 251.369H289.118M289.118 -57.3691V-41.9322M289.118 -57.3691H304.555M289.118 -41.9322V-26.4954M289.118 -41.9322H304.555M289.118 -26.4954V-11.0585M289.118 -26.4954H304.555M289.118 -11.0585V4.37843M289.118 -11.0585H304.555M289.118 4.37843V19.8153M289.118 4.37843H304.555M289.118 19.8153V35.2522M289.118 19.8153H304.555M289.118 35.2522V50.6891M289.118 35.2522H304.555M289.118 50.6891V66.126M289.118 50.6891H304.555M289.118 66.126V81.5629M289.118 66.126H304.555M289.118 81.5629V96.9998M289.118 81.5629H304.555M289.118 96.9998V112.437M289.118 96.9998H304.555M289.118 112.437V127.874M289.118 112.437H304.555M289.118 127.874V143.31M289.118 127.874H304.555M289.118 143.31V158.747M289.118 143.31H304.555M289.118 158.747V174.184M289.118 158.747H304.555M289.118 174.184V189.621M289.118 174.184H304.555M289.118 189.621V205.058M289.118 189.621H304.555M289.118 205.058V220.495M289.118 205.058H304.555M289.118 220.495V235.932M289.118 220.495H304.555M289.118 235.932V251.369M289.118 235.932H304.555M289.118 251.369H304.555M304.555 -57.3691V-41.9322M304.555 -57.3691H319.992M304.555 -41.9322V-26.4954M304.555 -41.9322H319.992M304.555 -26.4954V-11.0585M304.555 -26.4954H319.992M304.555 -11.0585V4.37843M304.555 -11.0585H319.992M304.555 4.37843V19.8153M304.555 4.37843H319.992M304.555 19.8153V35.2522M304.555 19.8153H319.992M304.555 35.2522V50.6891M304.555 35.2522H319.992M304.555 50.6891V66.126M304.555 50.6891H319.992M304.555 66.126V81.5629M304.555 66.126H319.992M304.555 81.5629V96.9998M304.555 81.5629H319.992M304.555 96.9998V112.437M304.555 96.9998H319.992M304.555 112.437V127.874M304.555 112.437H319.992M304.555 127.874V143.31M304.555 127.874H319.992M304.555 143.31V158.747M304.555 143.31H319.992M304.555 158.747V174.184M304.555 158.747H319.992M304.555 174.184V189.621M304.555 174.184H319.992M304.555 189.621V205.058M304.555 189.621H319.992M304.555 205.058V220.495M304.555 205.058H319.992M304.555 220.495V235.932M304.555 220.495H319.992M304.555 235.932V251.369M304.555 235.932H319.992M304.555 251.369H319.992M319.992 -57.3691V-41.9322M319.992 -57.3691H335.429M319.992 -41.9322V-26.4954M319.992 -41.9322H335.429M319.992 -26.4954V-11.0585M319.992 -26.4954H335.429M319.992 -11.0585V4.37843M319.992 -11.0585H335.429M319.992 4.37843V19.8153M319.992 4.37843H335.429M319.992 19.8153V35.2522M319.992 19.8153H335.429M319.992 35.2522V50.6891M319.992 35.2522H335.429M319.992 50.6891V66.126M319.992 50.6891H335.429M319.992 66.126V81.5629M319.992 66.126H335.429M319.992 81.5629V96.9998M319.992 81.5629H335.429M319.992 96.9998V112.437M319.992 96.9998H335.429M319.992 112.437V127.874M319.992 112.437H335.429M319.992 127.874V143.31M319.992 127.874H335.429M319.992 143.31V158.747M319.992 143.31H335.429M319.992 158.747V174.184M319.992 158.747H335.429M319.992 174.184V189.621M319.992 174.184H335.429M319.992 189.621V205.058M319.992 189.621H335.429M319.992 205.058V220.495M319.992 205.058H335.429M319.992 220.495V235.932M319.992 220.495H335.429M319.992 235.932V251.369M319.992 235.932H335.429M319.992 251.369H335.429M335.429 -57.3691V-41.9322M335.429 -57.3691H350.866M335.429 -41.9322V-26.4954M335.429 -41.9322H350.866M335.429 -26.4954V-11.0585M335.429 -26.4954H350.866M335.429 -11.0585V4.37843M335.429 -11.0585H350.866M335.429 4.37843V19.8153M335.429 4.37843H350.866M335.429 19.8153V35.2522M335.429 19.8153H350.866M335.429 35.2522V50.6891M335.429 35.2522H350.866M335.429 50.6891V66.126M335.429 50.6891H350.866M335.429 66.126V81.5629M335.429 66.126H350.866M335.429 81.5629V96.9998M335.429 81.5629H350.866M335.429 96.9998V112.437M335.429 96.9998H350.866M335.429 112.437V127.874M335.429 112.437H350.866M335.429 127.874V143.31M335.429 127.874H350.866M335.429 143.31V158.747M335.429 143.31H350.866M335.429 158.747V174.184M335.429 158.747H350.866M335.429 174.184V189.621M335.429 174.184H350.866M335.429 189.621V205.058M335.429 189.621H350.866M335.429 205.058V220.495M335.429 205.058H350.866M335.429 220.495V235.932M335.429 220.495H350.866M335.429 235.932V251.369M335.429 235.932H350.866M335.429 251.369H350.866M350.866 -57.3691V-41.9322M350.866 -57.3691H366.303M350.866 -41.9322V-26.4954M350.866 -41.9322H366.303M350.866 -26.4954V-11.0585M350.866 -26.4954H366.303M350.866 -11.0585V4.37843M350.866 -11.0585H366.303M350.866 4.37843V19.8153M350.866 4.37843H366.303M350.866 19.8153V35.2522M350.866 19.8153H366.303M350.866 35.2522V50.6891M350.866 35.2522H366.303M350.866 50.6891V66.126M350.866 50.6891H366.303M350.866 66.126V81.5629M350.866 66.126H366.303M350.866 81.5629V96.9998M350.866 81.5629H366.303M350.866 96.9998V112.437M350.866 96.9998H366.303M350.866 112.437V127.874M350.866 112.437H366.303M350.866 127.874V143.31M350.866 127.874H366.303M350.866 143.31V158.747M350.866 143.31H366.303M350.866 158.747V174.184M350.866 158.747H366.303M350.866 174.184V189.621M350.866 174.184H366.303M350.866 189.621V205.058M350.866 189.621H366.303M350.866 205.058V220.495M350.866 205.058H366.303M350.866 220.495V235.932M350.866 220.495H366.303M350.866 235.932V251.369M350.866 235.932H366.303M350.866 251.369H366.303M366.303 -57.3691V-41.9322M366.303 -57.3691H381.74M366.303 -41.9322V-26.4954M366.303 -41.9322H381.74M366.303 -26.4954V-11.0585M366.303 -26.4954H381.74M366.303 -11.0585V4.37843M366.303 -11.0585H381.74M366.303 4.37843V19.8153M366.303 4.37843H381.74M366.303 19.8153V35.2522M366.303 19.8153H381.74M366.303 35.2522V50.6891M366.303 35.2522H381.74M366.303 50.6891V66.126M366.303 50.6891H381.74M366.303 66.126V81.5629M366.303 66.126H381.74M366.303 81.5629V96.9998M366.303 81.5629H381.74M366.303 96.9998V112.437M366.303 96.9998H381.74M366.303 112.437V127.874M366.303 112.437H381.74M366.303 127.874V143.31M366.303 127.874H381.74M366.303 143.31V158.747M366.303 143.31H381.74M366.303 158.747V174.184M366.303 158.747H381.74M366.303 174.184V189.621M366.303 174.184H381.74M366.303 189.621V205.058M366.303 189.621H381.74M366.303 205.058V220.495M366.303 205.058H381.74M366.303 220.495V235.932M366.303 220.495H381.74M366.303 235.932V251.369M366.303 235.932H381.74M366.303 251.369H381.74M381.74 -57.3691V-41.9322M381.74 -57.3691H397.176M381.74 -41.9322V-26.4954M381.74 -41.9322H397.176M381.74 -26.4954V-11.0585M381.74 -26.4954H397.176M381.74 -11.0585V4.37843M381.74 -11.0585H397.176M381.74 4.37843V19.8153M381.74 4.37843H397.176M381.74 19.8153V35.2522M381.74 19.8153H397.176M381.74 35.2522V50.6891M381.74 35.2522H397.176M381.74 50.6891V66.126M381.74 50.6891H397.176M381.74 66.126V81.5629M381.74 66.126H397.176M381.74 81.5629V96.9998M381.74 81.5629H397.176M381.74 96.9998V112.437M381.74 96.9998H397.176M381.74 112.437V127.874M381.74 112.437H397.176M381.74 127.874V143.31M381.74 127.874H397.176M381.74 143.31V158.747M381.74 143.31H397.176M381.74 158.747V174.184M381.74 158.747H397.176M381.74 174.184V189.621M381.74 174.184H397.176M381.74 189.621V205.058M381.74 189.621H397.176M381.74 205.058V220.495M381.74 205.058H397.176M381.74 220.495V235.932M381.74 220.495H397.176M381.74 235.932V251.369M381.74 235.932H397.176M381.74 251.369H397.176M397.176 -57.3691V-41.9322M397.176 -57.3691H412.613M397.176 -41.9322V-26.4954M397.176 -41.9322H412.613M397.176 -26.4954V-11.0585M397.176 -26.4954H412.613M397.176 -11.0585V4.37843M397.176 -11.0585H412.613M397.176 4.37843V19.8153M397.176 4.37843H412.613M397.176 19.8153V35.2522M397.176 19.8153H412.613M397.176 35.2522V50.6891M397.176 35.2522H412.613M397.176 50.6891V66.126M397.176 50.6891H412.613M397.176 66.126V81.5629M397.176 66.126H412.613M397.176 81.5629V96.9998M397.176 81.5629H412.613M397.176 96.9998V112.437M397.176 96.9998H412.613M397.176 112.437V127.874M397.176 112.437H412.613M397.176 127.874V143.31M397.176 127.874H412.613M397.176 143.31V158.747M397.176 143.31H412.613M397.176 158.747V174.184M397.176 158.747H412.613M397.176 174.184V189.621M397.176 174.184H412.613M397.176 189.621V205.058M397.176 189.621H412.613M397.176 205.058V220.495M397.176 205.058H412.613M397.176 220.495V235.932M397.176 220.495H412.613M397.176 235.932V251.369M397.176 235.932H412.613M397.176 251.369H412.613M412.613 -57.3691V-41.9322M412.613 -57.3691H428.05M412.613 -41.9322V-26.4954M412.613 -41.9322H428.05M412.613 -26.4954V-11.0585M412.613 -26.4954H428.05M412.613 -11.0585V4.37843M412.613 -11.0585H428.05M412.613 4.37843V19.8153M412.613 4.37843H428.05M412.613 19.8153V35.2522M412.613 19.8153H428.05M412.613 35.2522V50.6891M412.613 35.2522H428.05M412.613 50.6891V66.126M412.613 50.6891H428.05M412.613 66.126V81.5629M412.613 66.126H428.05M412.613 81.5629V96.9998M412.613 81.5629H428.05M412.613 96.9998V112.437M412.613 96.9998H428.05M412.613 112.437V127.874M412.613 112.437H428.05M412.613 127.874V143.31M412.613 127.874H428.05M412.613 143.31V158.747M412.613 143.31H428.05M412.613 158.747V174.184M412.613 158.747H428.05M412.613 174.184V189.621M412.613 174.184H428.05M412.613 189.621V205.058M412.613 189.621H428.05M412.613 205.058V220.495M412.613 205.058H428.05M412.613 220.495V235.932M412.613 220.495H428.05M412.613 235.932V251.369M412.613 235.932H428.05M412.613 251.369H428.05M428.05 -57.3691V-41.9322M428.05 -57.3691H443.487M428.05 -41.9322V-26.4954M428.05 -41.9322H443.487M428.05 -26.4954V-11.0585M428.05 -26.4954H443.487M428.05 -11.0585V4.37843M428.05 -11.0585H443.487M428.05 4.37843V19.8153M428.05 4.37843H443.487M428.05 19.8153V35.2522M428.05 19.8153H443.487M428.05 35.2522V50.6891M428.05 35.2522H443.487M428.05 50.6891V66.126M428.05 50.6891H443.487M428.05 66.126V81.5629M428.05 66.126H443.487M428.05 81.5629V96.9998M428.05 81.5629H443.487M428.05 96.9998V112.437M428.05 96.9998H443.487M428.05 112.437V127.874M428.05 112.437H443.487M428.05 127.874V143.31M428.05 127.874H443.487M428.05 143.31V158.747M428.05 143.31H443.487M428.05 158.747V174.184M428.05 158.747H443.487M428.05 174.184V189.621M428.05 174.184H443.487M428.05 189.621V205.058M428.05 189.621H443.487M428.05 205.058V220.495M428.05 205.058H443.487M428.05 220.495V235.932M428.05 220.495H443.487M428.05 235.932V251.369M428.05 235.932H443.487M428.05 251.369H443.487M443.487 -57.3691V-41.9322M443.487 -57.3691H458.924M443.487 -41.9322V-26.4954M443.487 -41.9322H458.924M443.487 -26.4954V-11.0585M443.487 -26.4954H458.924M443.487 -11.0585V4.37843M443.487 -11.0585H458.924M443.487 4.37843V19.8153M443.487 4.37843H458.924M443.487 19.8153V35.2522M443.487 19.8153H458.924M443.487 35.2522V50.6891M443.487 35.2522H458.924M443.487 50.6891V66.126M443.487 50.6891H458.924M443.487 66.126V81.5629M443.487 66.126H458.924M443.487 81.5629V96.9998M443.487 81.5629H458.924M443.487 96.9998V112.437M443.487 96.9998H458.924M443.487 112.437V127.874M443.487 112.437H458.924M443.487 127.874V143.31M443.487 127.874H458.924M443.487 143.31V158.747M443.487 143.31H458.924M443.487 158.747V174.184M443.487 158.747H458.924M443.487 174.184V189.621M443.487 174.184H458.924M443.487 189.621V205.058M443.487 189.621H458.924M443.487 205.058V220.495M443.487 205.058H458.924M443.487 220.495V235.932M443.487 220.495H458.924M443.487 235.932V251.369M443.487 235.932H458.924M443.487 251.369H458.924M458.924 -57.3691V-41.9322M458.924 -57.3691H474.361M458.924 -41.9322V-26.4954M458.924 -41.9322H474.361M458.924 -26.4954V-11.0585M458.924 -26.4954H474.361M458.924 -11.0585V4.37843M458.924 -11.0585H474.361M458.924 4.37843V19.8153M458.924 4.37843H474.361M458.924 19.8153V35.2522M458.924 19.8153H474.361M458.924 35.2522V50.6891M458.924 35.2522H474.361M458.924 50.6891V66.126M458.924 50.6891H474.361M458.924 66.126V81.5629M458.924 66.126H474.361M458.924 81.5629V96.9998M458.924 81.5629H474.361M458.924 96.9998V112.437M458.924 96.9998H474.361M458.924 112.437V127.874M458.924 112.437H474.361M458.924 127.874V143.31M458.924 127.874H474.361M458.924 143.31V158.747M458.924 143.31H474.361M458.924 158.747V174.184M458.924 158.747H474.361M458.924 174.184V189.621M458.924 174.184H474.361M458.924 189.621V205.058M458.924 189.621H474.361M458.924 205.058V220.495M458.924 205.058H474.361M458.924 220.495V235.932M458.924 220.495H474.361M458.924 235.932V251.369M458.924 235.932H474.361M458.924 251.369H474.361M474.361 -57.3691V-41.9322M474.361 -57.3691H489.798M474.361 -41.9322V-26.4954M474.361 -41.9322H489.798M474.361 -26.4954V-11.0585M474.361 -26.4954H489.798M474.361 -11.0585V4.37843M474.361 -11.0585H489.798M474.361 4.37843V19.8153M474.361 4.37843H489.798M474.361 19.8153V35.2522M474.361 19.8153H489.798M474.361 35.2522V50.6891M474.361 35.2522H489.798M474.361 50.6891V66.126M474.361 50.6891H489.798M474.361 66.126V81.5629M474.361 66.126H489.798M474.361 81.5629V96.9998M474.361 81.5629H489.798M474.361 96.9998V112.437M474.361 96.9998H489.798M474.361 112.437V127.874M474.361 112.437H489.798M474.361 127.874V143.31M474.361 127.874H489.798M474.361 143.31V158.747M474.361 143.31H489.798M474.361 158.747V174.184M474.361 158.747H489.798M474.361 174.184V189.621M474.361 174.184H489.798M474.361 189.621V205.058M474.361 189.621H489.798M474.361 205.058V220.495M474.361 205.058H489.798M474.361 220.495V235.932M474.361 220.495H489.798M474.361 235.932V251.369M474.361 235.932H489.798M474.361 251.369H489.798M489.798 -57.3691V-41.9322M489.798 -57.3691H505.235M489.798 -41.9322V-26.4954M489.798 -41.9322H505.235M489.798 -26.4954V-11.0585M489.798 -26.4954H505.235M489.798 -11.0585V4.37843M489.798 -11.0585H505.235M489.798 4.37843V19.8153M489.798 4.37843H505.235M489.798 19.8153V35.2522M489.798 19.8153H505.235M489.798 35.2522V50.6891M489.798 35.2522H505.235M489.798 50.6891V66.126M489.798 50.6891H505.235M489.798 66.126V81.5629M489.798 66.126H505.235M489.798 81.5629V96.9998M489.798 81.5629H505.235M489.798 96.9998V112.437M489.798 96.9998H505.235M489.798 112.437V127.874M489.798 112.437H505.235M489.798 127.874V143.31M489.798 127.874H505.235M489.798 143.31V158.747M489.798 143.31H505.235M489.798 158.747V174.184M489.798 158.747H505.235M489.798 174.184V189.621M489.798 174.184H505.235M489.798 189.621V205.058M489.798 189.621H505.235M489.798 205.058V220.495M489.798 205.058H505.235M489.798 220.495V235.932M489.798 220.495H505.235M489.798 235.932V251.369M489.798 235.932H505.235M489.798 251.369H505.235M505.235 -57.3691V-41.9322M505.235 -57.3691H520.672M505.235 -41.9322V-26.4954M505.235 -41.9322H520.672M505.235 -26.4954V-11.0585M505.235 -26.4954H520.672M505.235 -11.0585V4.37843M505.235 -11.0585H520.672M505.235 4.37843V19.8153M505.235 4.37843H520.672M505.235 19.8153V35.2522M505.235 19.8153H520.672M505.235 35.2522V50.6891M505.235 35.2522H520.672M505.235 50.6891V66.126M505.235 50.6891H520.672M505.235 66.126V81.5629M505.235 66.126H520.672M505.235 81.5629V96.9998M505.235 81.5629H520.672M505.235 96.9998V112.437M505.235 96.9998H520.672M505.235 112.437V127.874M505.235 112.437H520.672M505.235 127.874V143.31M505.235 127.874H520.672M505.235 143.31V158.747M505.235 143.31H520.672M505.235 158.747V174.184M505.235 158.747H520.672M505.235 174.184V189.621M505.235 174.184H520.672M505.235 189.621V205.058M505.235 189.621H520.672M505.235 205.058V220.495M505.235 205.058H520.672M505.235 220.495V235.932M505.235 220.495H520.672M505.235 235.932V251.369M505.235 235.932H520.672M505.235 251.369H520.672M520.672 -57.3691V-41.9322M520.672 -57.3691H536.109M520.672 -41.9322V-26.4954M520.672 -41.9322H536.109M520.672 -26.4954V-11.0585M520.672 -26.4954H536.109M520.672 -11.0585V4.37843M520.672 -11.0585H536.109M520.672 4.37843V19.8153M520.672 4.37843H536.109M520.672 19.8153V35.2522M520.672 19.8153H536.109M520.672 35.2522V50.6891M520.672 35.2522H536.109M520.672 50.6891V66.126M520.672 50.6891H536.109M520.672 66.126V81.5629M520.672 66.126H536.109M520.672 81.5629V96.9998M520.672 81.5629H536.109M520.672 96.9998V112.437M520.672 96.9998H536.109M520.672 112.437V127.874M520.672 112.437H536.109M520.672 127.874V143.31M520.672 127.874H536.109M520.672 143.31V158.747M520.672 143.31H536.109M520.672 158.747V174.184M520.672 158.747H536.109M520.672 174.184V189.621M520.672 174.184H536.109M520.672 189.621V205.058M520.672 189.621H536.109M520.672 205.058V220.495M520.672 205.058H536.109M520.672 220.495V235.932M520.672 220.495H536.109M520.672 235.932V251.369M520.672 235.932H536.109M520.672 251.369H536.109M536.109 -57.3691V-41.9322M536.109 -57.3691H551.545M536.109 -41.9322V-26.4954M536.109 -41.9322H551.545M536.109 -26.4954V-11.0585M536.109 -26.4954H551.545M536.109 -11.0585V4.37843M536.109 -11.0585H551.545M536.109 4.37843V19.8153M536.109 4.37843H551.545M536.109 19.8153V35.2522M536.109 19.8153H551.545M536.109 35.2522V50.6891M536.109 35.2522H551.545M536.109 50.6891V66.126M536.109 50.6891H551.545M536.109 66.126V81.5629M536.109 66.126H551.545M536.109 81.5629V96.9998M536.109 81.5629H551.545M536.109 96.9998V112.437M536.109 96.9998H551.545M536.109 112.437V127.874M536.109 112.437H551.545M536.109 127.874V143.31M536.109 127.874H551.545M536.109 143.31V158.747M536.109 143.31H551.545M536.109 158.747V174.184M536.109 158.747H551.545M536.109 174.184V189.621M536.109 174.184H551.545M536.109 189.621V205.058M536.109 189.621H551.545M536.109 205.058V220.495M536.109 205.058H551.545M536.109 220.495V235.932M536.109 220.495H551.545M536.109 235.932V251.369M536.109 235.932H551.545M536.109 251.369H551.545M551.545 -57.3691V-41.9322M551.545 -57.3691H566.982M551.545 -41.9322V-26.4954M551.545 -41.9322H566.982M551.545 -26.4954V-11.0585M551.545 -26.4954H566.982M551.545 -11.0585V4.37843M551.545 -11.0585H566.982M551.545 4.37843V19.8153M551.545 4.37843H566.982M551.545 19.8153V35.2522M551.545 19.8153H566.982M551.545 35.2522V50.6891M551.545 35.2522H566.982M551.545 50.6891V66.126M551.545 50.6891H566.982M551.545 66.126V81.5629M551.545 66.126H566.982M551.545 81.5629V96.9998M551.545 81.5629H566.982M551.545 96.9998V112.437M551.545 96.9998H566.982M551.545 112.437V127.874M551.545 112.437H566.982M551.545 127.874V143.31M551.545 127.874H566.982M551.545 143.31V158.747M551.545 143.31H566.982M551.545 158.747V174.184M551.545 158.747H566.982M551.545 174.184V189.621M551.545 174.184H566.982M551.545 189.621V205.058M551.545 189.621H566.982M551.545 205.058V220.495M551.545 205.058H566.982M551.545 220.495V235.932M551.545 220.495H566.982M551.545 235.932V251.369M551.545 235.932H566.982M551.545 251.369H566.982M566.982 -57.3691V-41.9322M566.982 -57.3691H582.419M566.982 -41.9322V-26.4954M566.982 -41.9322H582.419M566.982 -26.4954V-11.0585M566.982 -26.4954H582.419M566.982 -11.0585V4.37843M566.982 -11.0585H582.419M566.982 4.37843V19.8153M566.982 4.37843H582.419M566.982 19.8153V35.2522M566.982 19.8153H582.419M566.982 35.2522V50.6891M566.982 35.2522H582.419M566.982 50.6891V66.126M566.982 50.6891H582.419M566.982 66.126V81.5629M566.982 66.126H582.419M566.982 81.5629V96.9998M566.982 81.5629H582.419M566.982 96.9998V112.437M566.982 96.9998H582.419M566.982 112.437V127.874M566.982 112.437H582.419M566.982 127.874V143.31M566.982 127.874H582.419M566.982 143.31V158.747M566.982 143.31H582.419M566.982 158.747V174.184M566.982 158.747H582.419M566.982 174.184V189.621M566.982 174.184H582.419M566.982 189.621V205.058M566.982 189.621H582.419M566.982 205.058V220.495M566.982 205.058H582.419M566.982 220.495V235.932M566.982 220.495H582.419M566.982 235.932V251.369M566.982 235.932H582.419M566.982 251.369H582.419M582.419 -57.3691V-41.9322M582.419 -57.3691H597.856V-41.9322M582.419 -41.9322V-26.4954M582.419 -41.9322H597.856M582.419 -26.4954V-11.0585M582.419 -26.4954H597.856M582.419 -11.0585V4.37843M582.419 -11.0585H597.856M582.419 4.37843V19.8153M582.419 4.37843H597.856M582.419 19.8153V35.2522M582.419 19.8153H597.856M582.419 35.2522V50.6891M582.419 35.2522H597.856M582.419 50.6891V66.126M582.419 50.6891H597.856M582.419 66.126V81.5629M582.419 66.126H597.856M582.419 81.5629V96.9998M582.419 81.5629H597.856M582.419 96.9998V112.437M582.419 96.9998H597.856M582.419 112.437V127.874M582.419 112.437H597.856M582.419 127.874V143.31M582.419 127.874H597.856M582.419 143.31V158.747M582.419 143.31H597.856M582.419 158.747V174.184M582.419 158.747H597.856M582.419 174.184V189.621M582.419 174.184H597.856M582.419 189.621V205.058M582.419 189.621H597.856M582.419 205.058V220.495M582.419 205.058H597.856M582.419 220.495V235.932M582.419 220.495H597.856M582.419 235.932V251.369M582.419 235.932H597.856M582.419 251.369H597.856V235.932M597.856 -41.9322V-26.4954M597.856 -26.4954V-11.0585M597.856 -11.0585V4.37843M597.856 4.37843V19.8153M597.856 19.8153V35.2522M597.856 35.2522V50.6891M597.856 50.6891V66.126M597.856 66.126V81.5629M597.856 81.5629V96.9998M597.856 96.9998V112.437M597.856 112.437V127.874M597.856 127.874V143.31M597.856 143.31V158.747M597.856 158.747V174.184M597.856 174.184V189.621M597.856 189.621V205.058M597.856 205.058V220.495M597.856 220.495V235.932" stroke="url(#paint0_radial_1630_34672)" stroke-opacity="0.5" stroke-width="0.192961"/>
</g>
<g style="" opacity="0.8">
<path d="M-19.6214 -0.252468V4.37859M-19.6214 4.37859V9.00967M-19.6214 4.37859H-24.2524M-19.6214 4.37859H-14.9903M-19.6214 123.243V127.874M-19.6214 127.874V132.505M-19.6214 127.874H-24.2524M-19.6214 127.874H-14.9903M-19.6214 246.738V251.369M-19.6214 251.369V256M-19.6214 251.369H-24.2524M-19.6214 251.369H-14.9903M103.874 123.243V127.874M103.874 127.874V132.505M103.874 127.874H99.2427M103.874 127.874H108.505M103.874 246.738V251.369M103.874 251.369V256M103.874 251.369H99.2427M103.874 251.369H108.505M227.369 15.3687V19.9998M227.369 19.9998V24.6308M227.369 19.9998H222.738M227.369 19.9998H232M227.369 123.243V127.874M227.369 127.874V132.505M227.369 127.874H222.738M227.369 127.874H232M227.369 246.738V251.369M227.369 251.369V256M227.369 251.369H222.738M227.369 251.369H232M350.864 -0.252468V4.37859M350.864 4.37859V9.00967M350.864 4.37859H346.233M350.864 4.37859H355.495M350.864 123.243V127.874M350.864 127.874V132.505M350.864 127.874H346.233M350.864 127.874H355.495M350.864 246.738V251.369M350.864 251.369V256M350.864 251.369H346.233M350.864 251.369H355.495M474.359 -0.252468V4.37859M474.359 4.37859V9.00967M474.359 4.37859H469.728M474.359 4.37859H478.99M474.359 123.243V127.874M474.359 127.874V132.505M474.359 127.874H469.728M474.359 127.874H478.99M474.359 246.738V251.369M474.359 251.369V256M474.359 251.369H469.728M474.359 251.369H478.99M597.854 -0.252468V4.37859M597.854 4.37859V9.00967M597.854 4.37859H593.223M597.854 4.37859H602.485M597.854 123.243V127.874M597.854 127.874V132.505M597.854 127.874H593.223M597.854 127.874H602.485M597.854 246.738V251.369M597.854 251.369V256M597.854 251.369H593.223M597.854 251.369H602.485M-19.6214 -62V-57.3689M-19.6214 -57.3689V-52.7379M-19.6214 -57.3689H-24.2524M-19.6214 -57.3689H-14.9903M-19.6214 61.4952V66.1262M-19.6214 66.1262V70.7573M-19.6214 66.1262H-24.2524M-19.6214 66.1262H-14.9903M-19.6214 184.99V189.621M-19.6214 189.621V194.252M-19.6214 189.621H-24.2524M-19.6214 189.621H-14.9903M103.874 -62V-57.3689M103.874 -57.3689V-52.7379M103.874 -57.3689H99.2427M103.874 -57.3689H108.505M103.874 184.99V189.621M103.874 189.621V194.252M103.874 189.621H99.2427M103.874 189.621H108.505M227.369 184.99V189.621M227.369 189.621V194.252M227.369 189.621H222.738M227.369 189.621H232M350.864 -62V-57.3689M350.864 -57.3689V-52.7379M350.864 -57.3689H346.233M350.864 -57.3689H355.495M350.864 61.4952V66.1262M350.864 66.1262V70.7573M350.864 66.1262H346.233M350.864 66.1262H355.495M350.864 184.99V189.621M350.864 189.621V194.252M350.864 189.621H346.233M350.864 189.621H355.495M474.359 -62V-57.3689M474.359 -57.3689V-52.7379M474.359 -57.3689H469.728M474.359 -57.3689H478.99M474.359 61.4952V66.1262M474.359 66.1262V70.7573M474.359 66.1262H469.728M474.359 66.1262H478.99M474.359 184.99V189.621M474.359 189.621V194.252M474.359 189.621H469.728M474.359 189.621H478.99M597.854 -62V-57.3689M597.854 -57.3689V-52.7379M597.854 -57.3689H593.223M597.854 -57.3689H602.485M597.854 61.4952V66.1262M597.854 66.1262V70.7573M597.854 66.1262H593.223M597.854 66.1262H602.485M597.854 184.99V189.621M597.854 189.621V194.252M597.854 189.621H593.223M597.854 189.621H602.485M-81.3689 -0.252468V4.37859M-81.3689 4.37859V9.00967M-81.3689 4.37859H-86M-81.3689 4.37859H-76.7379M-81.3689 123.243V127.874M-81.3689 127.874V132.505M-81.3689 127.874H-86M-81.3689 127.874H-76.7379M-81.3689 246.738V251.369M-81.3689 251.369V256M-81.3689 251.369H-86M-81.3689 251.369H-76.7379M42.1262 123.243V127.874M42.1262 127.874V132.505M42.1262 127.874H37.4952M42.1262 127.874H46.7573M42.1262 246.738V251.369M42.1262 251.369V256M42.1262 251.369H37.4952M42.1262 251.369H46.7573M165.621 123.243V127.874M165.621 127.874V132.505M165.621 127.874H160.99M165.621 127.874H170.252M165.621 246.738V251.369M165.621 251.369V256M165.621 251.369H160.99M165.621 251.369H170.252M289.117 15.3687V19.9998M289.117 19.9998V24.6308M289.117 19.9998H284.485M289.117 19.9998H293.748M289.117 123.243V127.874M289.117 127.874V132.505M289.117 127.874H284.485M289.117 127.874H293.748M289.117 246.738V251.369M289.117 251.369V256M289.117 251.369H284.485M289.117 251.369H293.748M412.612 -0.252468V4.37859M412.612 4.37859V9.00967M412.612 4.37859H407.981M412.612 4.37859H417.243M412.612 123.243V127.874M412.612 127.874V132.505M412.612 127.874H407.981M412.612 127.874H417.243M412.612 246.738V251.369M412.612 251.369V256M412.612 251.369H407.981M412.612 251.369H417.243M536.107 -0.252468V4.37859M536.107 4.37859V9.00967M536.107 4.37859H531.476M536.107 4.37859H540.738M536.107 123.243V127.874M536.107 127.874V132.505M536.107 127.874H531.476M536.107 127.874H540.738M536.107 246.738V251.369M536.107 251.369V256M536.107 251.369H531.476M536.107 251.369H540.738M-81.3689 -62V-57.3689M-81.3689 -57.3689V-52.7378M-81.3689 -57.3689H-86M-81.3689 -57.3689H-76.7379M-81.3689 61.4952V66.1262M-81.3689 66.1262V70.7573M-81.3689 66.1262H-86M-81.3689 66.1262H-76.7379M-81.3689 184.99V189.621M-81.3689 189.621V194.252M-81.3689 189.621H-86M-81.3689 189.621H-76.7379M42.1262 -62V-57.3689M42.1262 -57.3689V-52.7379M42.1262 -57.3689H37.4952M42.1262 -57.3689H46.7573M42.1262 184.99V189.621M42.1262 189.621V194.252M42.1262 189.621H37.4952M42.1262 189.621H46.7573M165.621 -62V-57.3689M165.621 -57.3689V-52.7379M165.621 -57.3689H160.99M165.621 -57.3689H170.252M165.621 184.99V189.621M165.621 189.621V194.252M165.621 189.621H160.99M165.621 189.621H170.252M72.8689 -0.252472V4.37859M72.8689 4.37859V9.00965M72.8689 4.37859H68.2379M72.8689 4.37859H77.5M289.117 184.99V189.621M289.117 189.621V194.252M289.117 189.621H284.485M289.117 189.621H293.748M412.612 -62V-57.3689M412.612 -57.3689V-52.7379M412.612 -57.3689H407.981M412.612 -57.3689H417.243M412.612 61.4952V66.1262M412.612 66.1262V70.7573M412.612 66.1262H407.981M412.612 66.1262H417.243M412.612 184.99V189.621M412.612 189.621V194.252M412.612 189.621H407.981M412.612 189.621H417.243M536.107 -62V-57.3689M536.107 -57.3689V-52.7379M536.107 -57.3689H531.476M536.107 -57.3689H540.738M536.107 61.4952V66.1262M536.107 66.1262V70.7573M536.107 66.1262H531.476M536.107 66.1262H540.738M536.107 184.99V189.621M536.107 189.621V194.252M536.107 189.621H531.476M536.107 189.621H540.738M227.329 61.7376V66.3687M227.329 66.3687V70.9998M227.329 66.3687H222.698M227.329 66.3687H231.961M289.117 61.7376V66.3687M289.117 66.3687V70.9998M289.117 66.3687H284.485M289.117 66.3687H293.748" stroke="url(#paint1_radial_1630_34672)" stroke-opacity="0.5" stroke-width="0.385922"/>
</g>
</g>
<defs>
<radialGradient id="paint0_radial_1630_34672" cx="0" cy="0" r="1" gradientUnits="userSpaceOnUse" gradientTransform="translate(258.244 96.9998) rotate(90) scale(154.369 339.612)">
<stop stop-color="#F2F2F2"/>
<stop offset="0.549431" stop-color="#F2F2F2" stop-opacity="0"/>
</radialGradient>
<radialGradient id="paint1_radial_1630_34672" cx="0" cy="0" r="1" gradientUnits="userSpaceOnUse" gradientTransform="translate(258.243 97) rotate(90) scale(159 344.243)">
<stop stop-color="#F2F2F2"/>
<stop offset="0.657647" stop-color="#F2F2F2" stop-opacity="0"/>
</radialGradient>
<clipPath id="clip0_1630_34672">
<rect width="314" height="81" fill="white"/>
</clipPath>
</defs>
</svg>
