<svg width="36" height="36" viewBox="0 0 36 36" fill="none" xmlns="http://www.w3.org/2000/svg">
<rect width="36" height="36" rx="18" fill="#01050D"/>
<path d="M22.0013 18.6665C20.1613 18.6665 18.668 20.1598 18.668 21.9998C18.668 23.8398 20.1613 25.3332 22.0013 25.3332C23.8413 25.3332 25.3346 23.8398 25.3346 21.9998C25.3346 20.1598 23.8413 18.6665 22.0013 18.6665ZM21.4413 22.8465C21.608 23.0132 21.608 23.2865 21.4413 23.4598C21.3546 23.5465 21.248 23.5865 21.1346 23.5865C21.0213 23.5865 20.9146 23.5465 20.828 23.4598L19.6746 22.3065C19.508 22.1398 19.508 21.8665 19.6746 21.6932L20.828 20.5398C20.9946 20.3732 21.268 20.3732 21.4413 20.5398C21.608 20.7065 21.608 20.9798 21.4413 21.1532L20.5946 21.9998L21.4413 22.8465ZM24.3213 22.3065L23.168 23.4598C23.0813 23.5465 22.9746 23.5865 22.8613 23.5865C22.748 23.5865 22.6413 23.5465 22.5546 23.4598C22.388 23.2932 22.388 23.0198 22.5546 22.8465L23.408 21.9998L22.5613 21.1532C22.3946 20.9865 22.3946 20.7132 22.5613 20.5398C22.728 20.3732 23.0013 20.3732 23.1746 20.5398L24.328 21.6932C24.488 21.8665 24.488 22.1332 24.3213 22.3065Z" fill="#F2F2F2"/>
<path d="M24 14.6665V17.6465C24 17.8799 23.7733 18.0399 23.56 17.9599C22.82 17.6732 21.9933 17.5799 21.1267 17.7532C19.3933 18.0999 18.0133 19.5199 17.7267 21.2665C17.5533 22.3332 17.7667 23.3399 18.2533 24.1599C18.3867 24.3865 18.2267 24.6665 17.9667 24.6665H15.3333C13 24.6665 12 23.3332 12 21.3332V14.6665C12 12.8932 12.7867 11.6465 14.5933 11.3865C14.7867 11.3599 14.96 11.5132 14.9667 11.7132L14.9867 12.3865C15.0067 13.4532 15.9067 14.3332 16.9867 14.3332H19C20.1 14.3332 21 13.4332 21 12.3332V11.7132C21 11.5132 21.1733 11.3532 21.3667 11.3799C23.2 11.6265 24 12.8799 24 14.6665Z" fill="#F2F2F2"/>
<path d="M19.9998 12.0002V12.3335C19.9998 12.8802 19.5464 13.3335 18.9998 13.3335H16.9798C16.4398 13.3335 15.9931 12.9002 15.9798 12.3602L15.9731 12.0202C15.9598 11.6402 16.2598 11.3335 16.6398 11.3335H19.3331C19.6998 11.3335 19.9998 11.6335 19.9998 12.0002Z" fill="#F2F2F2"/>
</svg>
