<svg width="36" height="36" viewBox="0 0 36 36" fill="none" xmlns="http://www.w3.org/2000/svg">
<rect width="36" height="36" rx="18" fill="#01050D"/>
<path d="M20.792 11.3335H15.2054C12.7787 11.3335 11.332 12.7802 11.332 15.2068V20.7868C11.332 23.2202 12.7787 24.6668 15.2054 24.6668H20.7854C23.212 24.6668 24.6587 23.2202 24.6587 20.7935V15.2068C24.6654 12.7802 23.2187 11.3335 20.792 11.3335ZM17.2987 21.6735C17.1054 21.8668 16.7387 22.0535 16.472 22.0935L14.832 22.3268C14.772 22.3335 14.712 22.3402 14.652 22.3402C14.3787 22.3402 14.1254 22.2468 13.9454 22.0668C13.7254 21.8468 13.632 21.5268 13.6854 21.1735L13.9187 19.5335C13.9587 19.2602 14.1387 18.9002 14.3387 18.7068L17.312 15.7335C17.3654 15.8735 17.4187 16.0135 17.492 16.1735C17.5587 16.3135 17.632 16.4602 17.712 16.5935C17.7787 16.7068 17.852 16.8135 17.912 16.8935C17.9854 17.0068 18.072 17.1135 18.1254 17.1735C18.1587 17.2202 18.1854 17.2535 18.1987 17.2668C18.3654 17.4668 18.5587 17.6535 18.7254 17.7935C18.772 17.8402 18.7987 17.8668 18.812 17.8735C18.912 17.9535 19.012 18.0335 19.0987 18.0935C19.2054 18.1735 19.312 18.2468 19.4254 18.3068C19.5587 18.3868 19.7054 18.4602 19.852 18.5335C20.0054 18.6002 20.1454 18.6602 20.2854 18.7068L17.2987 21.6735ZM21.5787 17.3935L20.9654 18.0135C20.9254 18.0535 20.872 18.0735 20.8187 18.0735C20.7987 18.0735 20.772 18.0735 20.7587 18.0668C19.4054 17.6802 18.3254 16.6002 17.9387 15.2468C17.9187 15.1735 17.9387 15.0935 17.992 15.0468L18.612 14.4268C19.6254 13.4135 20.592 13.4335 21.5854 14.4268C22.092 14.9335 22.3387 15.4202 22.3387 15.9268C22.332 16.4068 22.0854 16.8868 21.5787 17.3935Z" fill="#F2F2F2"/>
</svg>
