<svg width="20" height="20" viewBox="0 0 20 20" fill="none" xmlns="http://www.w3.org/2000/svg">
<path d="M5.91406 15.2494C5.5919 15.5715 5.06956 15.5715 4.7474 15.2493C4.42523 14.9272 4.42523 14.4048 4.7474 14.0827L8.83073 9.99935L4.7474 5.91602C4.42523 5.59385 4.42523 5.07152 4.7474 4.74935C5.06956 4.42718 5.5919 4.42718 5.91406 4.74935L9.9974 8.83268L14.0807 4.74935C14.4029 4.42718 14.9252 4.42718 15.2474 4.74935C15.5696 5.07151 15.5696 5.59385 15.2474 5.91602L11.1641 9.99935L15.2474 14.0827C15.5696 14.4049 15.5696 14.9272 15.2474 15.2493C14.9252 15.5715 14.4029 15.5715 14.0807 15.2493L9.9974 11.166L5.91406 15.2494Z" fill="#F2F2F2"/>
</svg>
