<svg width="20" height="20" viewBox="0 0 20 20" fill="none" xmlns="http://www.w3.org/2000/svg">
<g clip-path="url(#clip0_2131_29474)">
<path d="M18.3255 14.582H12.4922" stroke="#9AA6B5" stroke-miterlimit="10" stroke-linecap="round" stroke-linejoin="round"/>
<path d="M4.16406 14.582H1.66406" stroke="#9AA6B5" stroke-miterlimit="10" stroke-linecap="round" stroke-linejoin="round"/>
<path d="M18.3359 5.41797H15.8359" stroke="#9AA6B5" stroke-miterlimit="10" stroke-linecap="round" stroke-linejoin="round"/>
<path d="M7.4974 5.41797H1.66406" stroke="#9AA6B5" stroke-miterlimit="10" stroke-linecap="round" stroke-linejoin="round"/>
<path d="M5.83073 12.082H10.8307C11.7474 12.082 12.4974 12.4987 12.4974 13.7487V15.4154C12.4974 16.6654 11.7474 17.082 10.8307 17.082H5.83073C4.91406 17.082 4.16406 16.6654 4.16406 15.4154V13.7487C4.16406 12.4987 4.91406 12.082 5.83073 12.082Z" stroke="#9AA6B5" stroke-miterlimit="10" stroke-linecap="round" stroke-linejoin="round"/>
<path d="M9.15885 2.91797H14.1589C15.0755 2.91797 15.8255 3.33464 15.8255 4.58464V6.2513C15.8255 7.5013 15.0755 7.91797 14.1589 7.91797H9.15885C8.24219 7.91797 7.49219 7.5013 7.49219 6.2513V4.58464C7.49219 3.33464 8.24219 2.91797 9.15885 2.91797Z" stroke="#9AA6B5" stroke-miterlimit="10" stroke-linecap="round" stroke-linejoin="round"/>
</g>
<defs>
<clipPath id="clip0_2131_29474">
<rect width="20" height="20" fill="white"/>
</clipPath>
</defs>
</svg>
