<svg width="418" height="90" viewBox="0 0 418 90" fill="none" xmlns="http://www.w3.org/2000/svg">
<g clip-path="url(#clip0_1629_34030)">
<g style="mix-blend-mode:soft-light" opacity="0.7">
<path d="M38.0697 -49.3691H22.6328V-33.9322M38.0697 -49.3691V-33.9322M38.0697 -49.3691H53.5066M38.0697 -33.9322H22.6328M38.0697 -33.9322V-18.4954M38.0697 -33.9322H53.5066M22.6328 -33.9322V-18.4954M38.0697 -18.4954H22.6328M38.0697 -18.4954V-3.05847M38.0697 -18.4954H53.5066M22.6328 -18.4954V-3.05847M38.0697 -3.05847H22.6328M38.0697 -3.05847V12.3784M38.0697 -3.05847H53.5066M22.6328 -3.05847V12.3784M38.0697 12.3784H22.6328M38.0697 12.3784V27.8153M38.0697 12.3784H53.5066M22.6328 12.3784V27.8153M38.0697 27.8153H22.6328M38.0697 27.8153V43.2522M38.0697 27.8153H53.5066M22.6328 27.8153V43.2522M38.0697 43.2522H22.6328M38.0697 43.2522V58.6891M38.0697 43.2522H53.5066M22.6328 43.2522V58.6891M38.0697 58.6891H22.6328M38.0697 58.6891V74.126M38.0697 58.6891H53.5066M22.6328 58.6891V74.126M38.0697 74.126H22.6328M38.0697 74.126V89.5629M38.0697 74.126H53.5066M22.6328 74.126V89.5629M38.0697 89.5629H22.6328M38.0697 89.5629V105M38.0697 89.5629H53.5066M22.6328 89.5629V105M38.0697 105H22.6328M38.0697 105V120.437M38.0697 105H53.5066M22.6328 105V120.437M38.0697 120.437H22.6328M38.0697 120.437V135.874M38.0697 120.437H53.5066M22.6328 120.437V135.874M38.0697 135.874H22.6328M38.0697 135.874V151.31M38.0697 135.874H53.5066M22.6328 135.874V151.31M38.0697 151.31H22.6328M38.0697 151.31V166.747M38.0697 151.31H53.5066M22.6328 151.31V166.747M38.0697 166.747H22.6328M38.0697 166.747V182.184M38.0697 166.747H53.5066M22.6328 166.747V182.184M38.0697 182.184H22.6328M38.0697 182.184V197.621M38.0697 182.184H53.5066M22.6328 182.184V197.621M38.0697 197.621H22.6328M38.0697 197.621V213.058M38.0697 197.621H53.5066M22.6328 197.621V213.058M38.0697 213.058H22.6328M38.0697 213.058V228.495M38.0697 213.058H53.5066M22.6328 213.058V228.495M38.0697 228.495H22.6328M38.0697 228.495V243.932M38.0697 228.495H53.5066M22.6328 228.495V243.932M38.0697 243.932H22.6328M38.0697 243.932V259.369M38.0697 243.932H53.5066M22.6328 243.932V259.369H38.0697M38.0697 259.369H53.5066M53.5066 -49.3691V-33.9322M53.5066 -49.3691H68.9435M53.5066 -33.9322V-18.4954M53.5066 -33.9322H68.9435M53.5066 -18.4954V-3.05847M53.5066 -18.4954H68.9435M53.5066 -3.05847V12.3784M53.5066 -3.05847H68.9435M53.5066 12.3784V27.8153M53.5066 12.3784H68.9435M53.5066 27.8153V43.2522M53.5066 27.8153H68.9435M53.5066 43.2522V58.6891M53.5066 43.2522H68.9435M53.5066 58.6891V74.126M53.5066 58.6891H68.9435M53.5066 74.126V89.5629M53.5066 74.126H68.9435M53.5066 89.5629V105M53.5066 89.5629H68.9435M53.5066 105V120.437M53.5066 105H68.9435M53.5066 120.437V135.874M53.5066 120.437H68.9435M53.5066 135.874V151.31M53.5066 135.874H68.9435M53.5066 151.31V166.747M53.5066 151.31H68.9435M53.5066 166.747V182.184M53.5066 166.747H68.9435M53.5066 182.184V197.621M53.5066 182.184H68.9435M53.5066 197.621V213.058M53.5066 197.621H68.9435M53.5066 213.058V228.495M53.5066 213.058H68.9435M53.5066 228.495V243.932M53.5066 228.495H68.9435M53.5066 243.932V259.369M53.5066 243.932H68.9435M53.5066 259.369H68.9435M68.9435 -49.3691V-33.9322M68.9435 -49.3691H84.3804M68.9435 -33.9322V-18.4954M68.9435 -33.9322H84.3804M68.9435 -18.4954V-3.05847M68.9435 -18.4954H84.3804M68.9435 -3.05847V12.3784M68.9435 -3.05847H84.3804M68.9435 12.3784V27.8153M68.9435 12.3784H84.3804M68.9435 27.8153V43.2522M68.9435 27.8153H84.3804M68.9435 43.2522V58.6891M68.9435 43.2522H84.3804M68.9435 58.6891V74.126M68.9435 58.6891H84.3804M68.9435 74.126V89.5629M68.9435 74.126H84.3804M68.9435 89.5629V105M68.9435 89.5629H84.3804M68.9435 105V120.437M68.9435 105H84.3804M68.9435 120.437V135.874M68.9435 120.437H84.3804M68.9435 135.874V151.31M68.9435 135.874H84.3804M68.9435 151.31V166.747M68.9435 151.31H84.3804M68.9435 166.747V182.184M68.9435 166.747H84.3804M68.9435 182.184V197.621M68.9435 182.184H84.3804M68.9435 197.621V213.058M68.9435 197.621H84.3804M68.9435 213.058V228.495M68.9435 213.058H84.3804M68.9435 228.495V243.932M68.9435 228.495H84.3804M68.9435 243.932V259.369M68.9435 243.932H84.3804M68.9435 259.369H84.3804M84.3804 -49.3691V-33.9322M84.3804 -49.3691H99.8173M84.3804 -33.9322V-18.4954M84.3804 -33.9322H99.8173M84.3804 -18.4954V-3.05847M84.3804 -18.4954H99.8173M84.3804 -3.05847V12.3784M84.3804 -3.05847H99.8173M84.3804 12.3784V27.8153M84.3804 12.3784H99.8173M84.3804 27.8153V43.2522M84.3804 27.8153H99.8173M84.3804 43.2522V58.6891M84.3804 43.2522H99.8173M84.3804 58.6891V74.126M84.3804 58.6891H99.8173M84.3804 74.126V89.5629M84.3804 74.126H99.8173M84.3804 89.5629V105M84.3804 89.5629H99.8173M84.3804 105V120.437M84.3804 105H99.8173M84.3804 120.437V135.874M84.3804 120.437H99.8173M84.3804 135.874V151.31M84.3804 135.874H99.8173M84.3804 151.31V166.747M84.3804 151.31H99.8173M84.3804 166.747V182.184M84.3804 166.747H99.8173M84.3804 182.184V197.621M84.3804 182.184H99.8173M84.3804 197.621V213.058M84.3804 197.621H99.8173M84.3804 213.058V228.495M84.3804 213.058H99.8173M84.3804 228.495V243.932M84.3804 228.495H99.8173M84.3804 243.932V259.369M84.3804 243.932H99.8173M84.3804 259.369H99.8173M99.8173 -49.3691V-33.9322M99.8173 -49.3691H115.254M99.8173 -33.9322V-18.4954M99.8173 -33.9322H115.254M99.8173 -18.4954V-3.05847M99.8173 -18.4954H115.254M99.8173 -3.05847V12.3784M99.8173 -3.05847H115.254M99.8173 12.3784V27.8153M99.8173 12.3784H115.254M99.8173 27.8153V43.2522M99.8173 27.8153H115.254M99.8173 43.2522V58.6891M99.8173 43.2522H115.254M99.8173 58.6891V74.126M99.8173 58.6891H115.254M99.8173 74.126V89.5629M99.8173 74.126H115.254M99.8173 89.5629V105M99.8173 89.5629H115.254M99.8173 105V120.437M99.8173 105H115.254M99.8173 120.437V135.874M99.8173 120.437H115.254M99.8173 135.874V151.31M99.8173 135.874H115.254M99.8173 151.31V166.747M99.8173 151.31H115.254M99.8173 166.747V182.184M99.8173 166.747H115.254M99.8173 182.184V197.621M99.8173 182.184H115.254M99.8173 197.621V213.058M99.8173 197.621H115.254M99.8173 213.058V228.495M99.8173 213.058H115.254M99.8173 228.495V243.932M99.8173 228.495H115.254M99.8173 243.932V259.369M99.8173 243.932H115.254M99.8173 259.369H115.254M115.254 -49.3691V-33.9322M115.254 -49.3691H130.691M115.254 -33.9322V-18.4954M115.254 -33.9322H130.691M115.254 -18.4954V-3.05847M115.254 -18.4954H130.691M115.254 -3.05847V12.3784M115.254 -3.05847H130.691M115.254 12.3784V27.8153M115.254 12.3784H130.691M115.254 27.8153V43.2522M115.254 27.8153H130.691M115.254 43.2522V58.6891M115.254 43.2522H130.691M115.254 58.6891V74.126M115.254 58.6891H130.691M115.254 74.126V89.5629M115.254 74.126H130.691M115.254 89.5629V105M115.254 89.5629H130.691M115.254 105V120.437M115.254 105H130.691M115.254 120.437V135.874M115.254 120.437H130.691M115.254 135.874V151.31M115.254 135.874H130.691M115.254 151.31V166.747M115.254 151.31H130.691M115.254 166.747V182.184M115.254 166.747H130.691M115.254 182.184V197.621M115.254 182.184H130.691M115.254 197.621V213.058M115.254 197.621H130.691M115.254 213.058V228.495M115.254 213.058H130.691M115.254 228.495V243.932M115.254 228.495H130.691M115.254 243.932V259.369M115.254 243.932H130.691M115.254 259.369H130.691M130.691 -49.3691V-33.9322M130.691 -49.3691H146.128M130.691 -33.9322V-18.4954M130.691 -33.9322H146.128M130.691 -18.4954V-3.05847M130.691 -18.4954H146.128M130.691 -3.05847V12.3784M130.691 -3.05847H146.128M130.691 12.3784V27.8153M130.691 12.3784H146.128M130.691 27.8153V43.2522M130.691 27.8153H146.128M130.691 43.2522V58.6891M130.691 43.2522H146.128M130.691 58.6891V74.126M130.691 58.6891H146.128M130.691 74.126V89.5629M130.691 74.126H146.128M130.691 89.5629V105M130.691 89.5629H146.128M130.691 105V120.437M130.691 105H146.128M130.691 120.437V135.874M130.691 120.437H146.128M130.691 135.874V151.31M130.691 135.874H146.128M130.691 151.31V166.747M130.691 151.31H146.128M130.691 166.747V182.184M130.691 166.747H146.128M130.691 182.184V197.621M130.691 182.184H146.128M130.691 197.621V213.058M130.691 197.621H146.128M130.691 213.058V228.495M130.691 213.058H146.128M130.691 228.495V243.932M130.691 228.495H146.128M130.691 243.932V259.369M130.691 243.932H146.128M130.691 259.369H146.128M146.128 -49.3691V-33.9322M146.128 -49.3691H161.565M146.128 -33.9322V-18.4954M146.128 -33.9322H161.565M146.128 -18.4954V-3.05847M146.128 -18.4954H161.565M146.128 -3.05847V12.3784M146.128 -3.05847H161.565M146.128 12.3784V27.8153M146.128 12.3784H161.565M146.128 27.8153V43.2522M146.128 27.8153H161.565M146.128 43.2522V58.6891M146.128 43.2522H161.565M146.128 58.6891V74.126M146.128 58.6891H161.565M146.128 74.126V89.5629M146.128 74.126H161.565M146.128 89.5629V105M146.128 89.5629H161.565M146.128 105V120.437M146.128 105H161.565M146.128 120.437V135.874M146.128 120.437H161.565M146.128 135.874V151.31M146.128 135.874H161.565M146.128 151.31V166.747M146.128 151.31H161.565M146.128 166.747V182.184M146.128 166.747H161.565M146.128 182.184V197.621M146.128 182.184H161.565M146.128 197.621V213.058M146.128 197.621H161.565M146.128 213.058V228.495M146.128 213.058H161.565M146.128 228.495V243.932M146.128 228.495H161.565M146.128 243.932V259.369M146.128 243.932H161.565M146.128 259.369H161.565M161.565 -49.3691V-33.9322M161.565 -49.3691H177.002M161.565 -33.9322V-18.4954M161.565 -33.9322H177.002M161.565 -18.4954V-3.05847M161.565 -18.4954H177.002M161.565 -3.05847V12.3784M161.565 -3.05847H177.002M161.565 12.3784V27.8153M161.565 12.3784H177.002M161.565 27.8153V43.2522M161.565 27.8153H177.002M161.565 43.2522V58.6891M161.565 43.2522H177.002M161.565 58.6891V74.126M161.565 58.6891H177.002M161.565 74.126V89.5629M161.565 74.126H177.002M161.565 89.5629V105M161.565 89.5629H177.002M161.565 105V120.437M161.565 105H177.002M161.565 120.437V135.874M161.565 120.437H177.002M161.565 135.874V151.31M161.565 135.874H177.002M161.565 151.31V166.747M161.565 151.31H177.002M161.565 166.747V182.184M161.565 166.747H177.002M161.565 182.184V197.621M161.565 182.184H177.002M161.565 197.621V213.058M161.565 197.621H177.002M161.565 213.058V228.495M161.565 213.058H177.002M161.565 228.495V243.932M161.565 228.495H177.002M161.565 243.932V259.369M161.565 243.932H177.002M161.565 259.369H177.002M177.002 -49.3691V-33.9322M177.002 -49.3691H192.439M177.002 -33.9322V-18.4954M177.002 -33.9322H192.439M177.002 -18.4954V-3.05847M177.002 -18.4954H192.439M177.002 -3.05847V12.3784M177.002 -3.05847H192.439M177.002 12.3784V27.8153M177.002 12.3784H192.439M177.002 27.8153V43.2522M177.002 27.8153H192.439M177.002 43.2522V58.6891M177.002 43.2522H192.439M177.002 58.6891V74.126M177.002 58.6891H192.439M177.002 74.126V89.5629M177.002 74.126H192.439M177.002 89.5629V105M177.002 89.5629H192.439M177.002 105V120.437M177.002 105H192.439M177.002 120.437V135.874M177.002 120.437H192.439M177.002 135.874V151.31M177.002 135.874H192.439M177.002 151.31V166.747M177.002 151.31H192.439M177.002 166.747V182.184M177.002 166.747H192.439M177.002 182.184V197.621M177.002 182.184H192.439M177.002 197.621V213.058M177.002 197.621H192.439M177.002 213.058V228.495M177.002 213.058H192.439M177.002 228.495V243.932M177.002 228.495H192.439M177.002 243.932V259.369M177.002 243.932H192.439M177.002 259.369H192.439M192.439 -49.3691V-33.9322M192.439 -49.3691H207.876M192.439 -33.9322V-18.4954M192.439 -33.9322H207.876M192.439 -18.4954V-3.05847M192.439 -18.4954H207.876M192.439 -3.05847V12.3784M192.439 -3.05847H207.876M192.439 12.3784V27.8153M192.439 12.3784H207.876M192.439 27.8153V43.2522M192.439 27.8153H207.876M192.439 43.2522V58.6891M192.439 43.2522H207.876M192.439 58.6891V74.126M192.439 58.6891H207.876M192.439 74.126V89.5629M192.439 74.126H207.876M192.439 89.5629V105M192.439 89.5629H207.876M192.439 105V120.437M192.439 105H207.876M192.439 120.437V135.874M192.439 120.437H207.876M192.439 135.874V151.31M192.439 135.874H207.876M192.439 151.31V166.747M192.439 151.31H207.876M192.439 166.747V182.184M192.439 166.747H207.876M192.439 182.184V197.621M192.439 182.184H207.876M192.439 197.621V213.058M192.439 197.621H207.876M192.439 213.058V228.495M192.439 213.058H207.876M192.439 228.495V243.932M192.439 228.495H207.876M192.439 243.932V259.369M192.439 243.932H207.876M192.439 259.369H207.876M207.876 -49.3691V-33.9322M207.876 -49.3691H223.312M207.876 -33.9322V-18.4954M207.876 -33.9322H223.312M207.876 -18.4954V-3.05847M207.876 -18.4954H223.312M207.876 -3.05847V12.3784M207.876 -3.05847H223.312M207.876 12.3784V27.8153M207.876 12.3784H223.312M207.876 27.8153V43.2522M207.876 27.8153H223.312M207.876 43.2522V58.6891M207.876 43.2522H223.312M207.876 58.6891V74.126M207.876 58.6891H223.312M207.876 74.126V89.5629M207.876 74.126H223.312M207.876 89.5629V105M207.876 89.5629H223.312M207.876 105V120.437M207.876 105H223.312M207.876 120.437V135.874M207.876 120.437H223.312M207.876 135.874V151.31M207.876 135.874H223.312M207.876 151.31V166.747M207.876 151.31H223.312M207.876 166.747V182.184M207.876 166.747H223.312M207.876 182.184V197.621M207.876 182.184H223.312M207.876 197.621V213.058M207.876 197.621H223.312M207.876 213.058V228.495M207.876 213.058H223.312M207.876 228.495V243.932M207.876 228.495H223.312M207.876 243.932V259.369M207.876 243.932H223.312M207.876 259.369H223.312M223.312 -49.3691V-33.9322M223.312 -49.3691H238.749M223.312 -33.9322V-18.4954M223.312 -33.9322H238.749M223.312 -18.4954V-3.05847M223.312 -18.4954H238.749M223.312 -3.05847V12.3784M223.312 -3.05847H238.749M223.312 12.3784V27.8153M223.312 12.3784H238.749M223.312 27.8153V43.2522M223.312 27.8153H238.749M223.312 43.2522V58.6891M223.312 43.2522H238.749M223.312 58.6891V74.126M223.312 58.6891H238.749M223.312 74.126V89.5629M223.312 74.126H238.749M223.312 89.5629V105M223.312 89.5629H238.749M223.312 105V120.437M223.312 105H238.749M223.312 120.437V135.874M223.312 120.437H238.749M223.312 135.874V151.31M223.312 135.874H238.749M223.312 151.31V166.747M223.312 151.31H238.749M223.312 166.747V182.184M223.312 166.747H238.749M223.312 182.184V197.621M223.312 182.184H238.749M223.312 197.621V213.058M223.312 197.621H238.749M223.312 213.058V228.495M223.312 213.058H238.749M223.312 228.495V243.932M223.312 228.495H238.749M223.312 243.932V259.369M223.312 243.932H238.749M223.312 259.369H238.749M238.749 -49.3691V-33.9322M238.749 -49.3691H254.186M238.749 -33.9322V-18.4954M238.749 -33.9322H254.186M238.749 -18.4954V-3.05847M238.749 -18.4954H254.186M238.749 -3.05847V12.3784M238.749 -3.05847H254.186M238.749 12.3784V27.8153M238.749 12.3784H254.186M238.749 27.8153V43.2522M238.749 27.8153H254.186M238.749 43.2522V58.6891M238.749 43.2522H254.186M238.749 58.6891V74.126M238.749 58.6891H254.186M238.749 74.126V89.5629M238.749 74.126H254.186M238.749 89.5629V105M238.749 89.5629H254.186M238.749 105V120.437M238.749 105H254.186M238.749 120.437V135.874M238.749 120.437H254.186M238.749 135.874V151.31M238.749 135.874H254.186M238.749 151.31V166.747M238.749 151.31H254.186M238.749 166.747V182.184M238.749 166.747H254.186M238.749 182.184V197.621M238.749 182.184H254.186M238.749 197.621V213.058M238.749 197.621H254.186M238.749 213.058V228.495M238.749 213.058H254.186M238.749 228.495V243.932M238.749 228.495H254.186M238.749 243.932V259.369M238.749 243.932H254.186M238.749 259.369H254.186M254.186 -49.3691V-33.9322M254.186 -49.3691H269.623M254.186 -33.9322V-18.4954M254.186 -33.9322H269.623M254.186 -18.4954V-3.05847M254.186 -18.4954H269.623M254.186 -3.05847V12.3784M254.186 -3.05847H269.623M254.186 12.3784V27.8153M254.186 12.3784H269.623M254.186 27.8153V43.2522M254.186 27.8153H269.623M254.186 43.2522V58.6891M254.186 43.2522H269.623M254.186 58.6891V74.126M254.186 58.6891H269.623M254.186 74.126V89.5629M254.186 74.126H269.623M254.186 89.5629V105M254.186 89.5629H269.623M254.186 105V120.437M254.186 105H269.623M254.186 120.437V135.874M254.186 120.437H269.623M254.186 135.874V151.31M254.186 135.874H269.623M254.186 151.31V166.747M254.186 151.31H269.623M254.186 166.747V182.184M254.186 166.747H269.623M254.186 182.184V197.621M254.186 182.184H269.623M254.186 197.621V213.058M254.186 197.621H269.623M254.186 213.058V228.495M254.186 213.058H269.623M254.186 228.495V243.932M254.186 228.495H269.623M254.186 243.932V259.369M254.186 243.932H269.623M254.186 259.369H269.623M269.623 -49.3691V-33.9322M269.623 -49.3691H285.06M269.623 -33.9322V-18.4954M269.623 -33.9322H285.06M269.623 -18.4954V-3.05847M269.623 -18.4954H285.06M269.623 -3.05847V12.3784M269.623 -3.05847H285.06M269.623 12.3784V27.8153M269.623 12.3784H285.06M269.623 27.8153V43.2522M269.623 27.8153H285.06M269.623 43.2522V58.6891M269.623 43.2522H285.06M269.623 58.6891V74.126M269.623 58.6891H285.06M269.623 74.126V89.5629M269.623 74.126H285.06M269.623 89.5629V105M269.623 89.5629H285.06M269.623 105V120.437M269.623 105H285.06M269.623 120.437V135.874M269.623 120.437H285.06M269.623 135.874V151.31M269.623 135.874H285.06M269.623 151.31V166.747M269.623 151.31H285.06M269.623 166.747V182.184M269.623 166.747H285.06M269.623 182.184V197.621M269.623 182.184H285.06M269.623 197.621V213.058M269.623 197.621H285.06M269.623 213.058V228.495M269.623 213.058H285.06M269.623 228.495V243.932M269.623 228.495H285.06M269.623 243.932V259.369M269.623 243.932H285.06M269.623 259.369H285.06M285.06 -49.3691V-33.9322M285.06 -49.3691H300.497M285.06 -33.9322V-18.4954M285.06 -33.9322H300.497M285.06 -18.4954V-3.05847M285.06 -18.4954H300.497M285.06 -3.05847V12.3784M285.06 -3.05847H300.497M285.06 12.3784V27.8153M285.06 12.3784H300.497M285.06 27.8153V43.2522M285.06 27.8153H300.497M285.06 43.2522V58.6891M285.06 43.2522H300.497M285.06 58.6891V74.126M285.06 58.6891H300.497M285.06 74.126V89.5629M285.06 74.126H300.497M285.06 89.5629V105M285.06 89.5629H300.497M285.06 105V120.437M285.06 105H300.497M285.06 120.437V135.874M285.06 120.437H300.497M285.06 135.874V151.31M285.06 135.874H300.497M285.06 151.31V166.747M285.06 151.31H300.497M285.06 166.747V182.184M285.06 166.747H300.497M285.06 182.184V197.621M285.06 182.184H300.497M285.06 197.621V213.058M285.06 197.621H300.497M285.06 213.058V228.495M285.06 213.058H300.497M285.06 228.495V243.932M285.06 228.495H300.497M285.06 243.932V259.369M285.06 243.932H300.497M285.06 259.369H300.497M300.497 -49.3691V-33.9322M300.497 -49.3691H315.934M300.497 -33.9322V-18.4954M300.497 -33.9322H315.934M300.497 -18.4954V-3.05847M300.497 -18.4954H315.934M300.497 -3.05847V12.3784M300.497 -3.05847H315.934M300.497 12.3784V27.8153M300.497 12.3784H315.934M300.497 27.8153V43.2522M300.497 27.8153H315.934M300.497 43.2522V58.6891M300.497 43.2522H315.934M300.497 58.6891V74.126M300.497 58.6891H315.934M300.497 74.126V89.5629M300.497 74.126H315.934M300.497 89.5629V105M300.497 89.5629H315.934M300.497 105V120.437M300.497 105H315.934M300.497 120.437V135.874M300.497 120.437H315.934M300.497 135.874V151.31M300.497 135.874H315.934M300.497 151.31V166.747M300.497 151.31H315.934M300.497 166.747V182.184M300.497 166.747H315.934M300.497 182.184V197.621M300.497 182.184H315.934M300.497 197.621V213.058M300.497 197.621H315.934M300.497 213.058V228.495M300.497 213.058H315.934M300.497 228.495V243.932M300.497 228.495H315.934M300.497 243.932V259.369M300.497 243.932H315.934M300.497 259.369H315.934M315.934 -49.3691V-33.9322M315.934 -49.3691H331.371M315.934 -33.9322V-18.4954M315.934 -33.9322H331.371M315.934 -18.4954V-3.05847M315.934 -18.4954H331.371M315.934 -3.05847V12.3784M315.934 -3.05847H331.371M315.934 12.3784V27.8153M315.934 12.3784H331.371M315.934 27.8153V43.2522M315.934 27.8153H331.371M315.934 43.2522V58.6891M315.934 43.2522H331.371M315.934 58.6891V74.126M315.934 58.6891H331.371M315.934 74.126V89.5629M315.934 74.126H331.371M315.934 89.5629V105M315.934 89.5629H331.371M315.934 105V120.437M315.934 105H331.371M315.934 120.437V135.874M315.934 120.437H331.371M315.934 135.874V151.31M315.934 135.874H331.371M315.934 151.31V166.747M315.934 151.31H331.371M315.934 166.747V182.184M315.934 166.747H331.371M315.934 182.184V197.621M315.934 182.184H331.371M315.934 197.621V213.058M315.934 197.621H331.371M315.934 213.058V228.495M315.934 213.058H331.371M315.934 228.495V243.932M315.934 228.495H331.371M315.934 243.932V259.369M315.934 243.932H331.371M315.934 259.369H331.371M331.371 -49.3691V-33.9322M331.371 -49.3691H346.808M331.371 -33.9322V-18.4954M331.371 -33.9322H346.808M331.371 -18.4954V-3.05847M331.371 -18.4954H346.808M331.371 -3.05847V12.3784M331.371 -3.05847H346.808M331.371 12.3784V27.8153M331.371 12.3784H346.808M331.371 27.8153V43.2522M331.371 27.8153H346.808M331.371 43.2522V58.6891M331.371 43.2522H346.808M331.371 58.6891V74.126M331.371 58.6891H346.808M331.371 74.126V89.5629M331.371 74.126H346.808M331.371 89.5629V105M331.371 89.5629H346.808M331.371 105V120.437M331.371 105H346.808M331.371 120.437V135.874M331.371 120.437H346.808M331.371 135.874V151.31M331.371 135.874H346.808M331.371 151.31V166.747M331.371 151.31H346.808M331.371 166.747V182.184M331.371 166.747H346.808M331.371 182.184V197.621M331.371 182.184H346.808M331.371 197.621V213.058M331.371 197.621H346.808M331.371 213.058V228.495M331.371 213.058H346.808M331.371 228.495V243.932M331.371 228.495H346.808M331.371 243.932V259.369M331.371 243.932H346.808M331.371 259.369H346.808M346.808 -49.3691V-33.9322M346.808 -49.3691H362.244M346.808 -33.9322V-18.4954M346.808 -33.9322H362.244M346.808 -18.4954V-3.05847M346.808 -18.4954H362.244M346.808 -3.05847V12.3784M346.808 -3.05847H362.244M346.808 12.3784V27.8153M346.808 12.3784H362.244M346.808 27.8153V43.2522M346.808 27.8153H362.244M346.808 43.2522V58.6891M346.808 43.2522H362.244M346.808 58.6891V74.126M346.808 58.6891H362.244M346.808 74.126V89.5629M346.808 74.126H362.244M346.808 89.5629V105M346.808 89.5629H362.244M346.808 105V120.437M346.808 105H362.244M346.808 120.437V135.874M346.808 120.437H362.244M346.808 135.874V151.31M346.808 135.874H362.244M346.808 151.31V166.747M346.808 151.31H362.244M346.808 166.747V182.184M346.808 166.747H362.244M346.808 182.184V197.621M346.808 182.184H362.244M346.808 197.621V213.058M346.808 197.621H362.244M346.808 213.058V228.495M346.808 213.058H362.244M346.808 228.495V243.932M346.808 228.495H362.244M346.808 243.932V259.369M346.808 243.932H362.244M346.808 259.369H362.244M362.244 -49.3691V-33.9322M362.244 -49.3691H377.681M362.244 -33.9322V-18.4954M362.244 -33.9322H377.681M362.244 -18.4954V-3.05847M362.244 -18.4954H377.681M362.244 -3.05847V12.3784M362.244 -3.05847H377.681M362.244 12.3784V27.8153M362.244 12.3784H377.681M362.244 27.8153V43.2522M362.244 27.8153H377.681M362.244 43.2522V58.6891M362.244 43.2522H377.681M362.244 58.6891V74.126M362.244 58.6891H377.681M362.244 74.126V89.5629M362.244 74.126H377.681M362.244 89.5629V105M362.244 89.5629H377.681M362.244 105V120.437M362.244 105H377.681M362.244 120.437V135.874M362.244 120.437H377.681M362.244 135.874V151.31M362.244 135.874H377.681M362.244 151.31V166.747M362.244 151.31H377.681M362.244 166.747V182.184M362.244 166.747H377.681M362.244 182.184V197.621M362.244 182.184H377.681M362.244 197.621V213.058M362.244 197.621H377.681M362.244 213.058V228.495M362.244 213.058H377.681M362.244 228.495V243.932M362.244 228.495H377.681M362.244 243.932V259.369M362.244 243.932H377.681M362.244 259.369H377.681M377.681 -49.3691V-33.9322M377.681 -49.3691H393.118M377.681 -33.9322V-18.4954M377.681 -33.9322H393.118M377.681 -18.4954V-3.05847M377.681 -18.4954H393.118M377.681 -3.05847V12.3784M377.681 -3.05847H393.118M377.681 12.3784V27.8153M377.681 12.3784H393.118M377.681 27.8153V43.2522M377.681 27.8153H393.118M377.681 43.2522V58.6891M377.681 43.2522H393.118M377.681 58.6891V74.126M377.681 58.6891H393.118M377.681 74.126V89.5629M377.681 74.126H393.118M377.681 89.5629V105M377.681 89.5629H393.118M377.681 105V120.437M377.681 105H393.118M377.681 120.437V135.874M377.681 120.437H393.118M377.681 135.874V151.31M377.681 135.874H393.118M377.681 151.31V166.747M377.681 151.31H393.118M377.681 166.747V182.184M377.681 166.747H393.118M377.681 182.184V197.621M377.681 182.184H393.118M377.681 197.621V213.058M377.681 197.621H393.118M377.681 213.058V228.495M377.681 213.058H393.118M377.681 228.495V243.932M377.681 228.495H393.118M377.681 243.932V259.369M377.681 243.932H393.118M377.681 259.369H393.118M393.118 -49.3691V-33.9322M393.118 -49.3691H408.555M393.118 -33.9322V-18.4954M393.118 -33.9322H408.555M393.118 -18.4954V-3.05847M393.118 -18.4954H408.555M393.118 -3.05847V12.3784M393.118 -3.05847H408.555M393.118 12.3784V27.8153M393.118 12.3784H408.555M393.118 27.8153V43.2522M393.118 27.8153H408.555M393.118 43.2522V58.6891M393.118 43.2522H408.555M393.118 58.6891V74.126M393.118 58.6891H408.555M393.118 74.126V89.5629M393.118 74.126H408.555M393.118 89.5629V105M393.118 89.5629H408.555M393.118 105V120.437M393.118 105H408.555M393.118 120.437V135.874M393.118 120.437H408.555M393.118 135.874V151.31M393.118 135.874H408.555M393.118 151.31V166.747M393.118 151.31H408.555M393.118 166.747V182.184M393.118 166.747H408.555M393.118 182.184V197.621M393.118 182.184H408.555M393.118 197.621V213.058M393.118 197.621H408.555M393.118 213.058V228.495M393.118 213.058H408.555M393.118 228.495V243.932M393.118 228.495H408.555M393.118 243.932V259.369M393.118 243.932H408.555M393.118 259.369H408.555M408.555 -49.3691V-33.9322M408.555 -49.3691H423.992M408.555 -33.9322V-18.4954M408.555 -33.9322H423.992M408.555 -18.4954V-3.05847M408.555 -18.4954H423.992M408.555 -3.05847V12.3784M408.555 -3.05847H423.992M408.555 12.3784V27.8153M408.555 12.3784H423.992M408.555 27.8153V43.2522M408.555 27.8153H423.992M408.555 43.2522V58.6891M408.555 43.2522H423.992M408.555 58.6891V74.126M408.555 58.6891H423.992M408.555 74.126V89.5629M408.555 74.126H423.992M408.555 89.5629V105M408.555 89.5629H423.992M408.555 105V120.437M408.555 105H423.992M408.555 120.437V135.874M408.555 120.437H423.992M408.555 135.874V151.31M408.555 135.874H423.992M408.555 151.31V166.747M408.555 151.31H423.992M408.555 166.747V182.184M408.555 166.747H423.992M408.555 182.184V197.621M408.555 182.184H423.992M408.555 197.621V213.058M408.555 197.621H423.992M408.555 213.058V228.495M408.555 213.058H423.992M408.555 228.495V243.932M408.555 228.495H423.992M408.555 243.932V259.369M408.555 243.932H423.992M408.555 259.369H423.992M423.992 -49.3691V-33.9322M423.992 -49.3691H439.429M423.992 -33.9322V-18.4954M423.992 -33.9322H439.429M423.992 -18.4954V-3.05847M423.992 -18.4954H439.429M423.992 -3.05847V12.3784M423.992 -3.05847H439.429M423.992 12.3784V27.8153M423.992 12.3784H439.429M423.992 27.8153V43.2522M423.992 27.8153H439.429M423.992 43.2522V58.6891M423.992 43.2522H439.429M423.992 58.6891V74.126M423.992 58.6891H439.429M423.992 74.126V89.5629M423.992 74.126H439.429M423.992 89.5629V105M423.992 89.5629H439.429M423.992 105V120.437M423.992 105H439.429M423.992 120.437V135.874M423.992 120.437H439.429M423.992 135.874V151.31M423.992 135.874H439.429M423.992 151.31V166.747M423.992 151.31H439.429M423.992 166.747V182.184M423.992 166.747H439.429M423.992 182.184V197.621M423.992 182.184H439.429M423.992 197.621V213.058M423.992 197.621H439.429M423.992 213.058V228.495M423.992 213.058H439.429M423.992 228.495V243.932M423.992 228.495H439.429M423.992 243.932V259.369M423.992 243.932H439.429M423.992 259.369H439.429M439.429 -49.3691V-33.9322M439.429 -49.3691H454.866M439.429 -33.9322V-18.4954M439.429 -33.9322H454.866M439.429 -18.4954V-3.05847M439.429 -18.4954H454.866M439.429 -3.05847V12.3784M439.429 -3.05847H454.866M439.429 12.3784V27.8153M439.429 12.3784H454.866M439.429 27.8153V43.2522M439.429 27.8153H454.866M439.429 43.2522V58.6891M439.429 43.2522H454.866M439.429 58.6891V74.126M439.429 58.6891H454.866M439.429 74.126V89.5629M439.429 74.126H454.866M439.429 89.5629V105M439.429 89.5629H454.866M439.429 105V120.437M439.429 105H454.866M439.429 120.437V135.874M439.429 120.437H454.866M439.429 135.874V151.31M439.429 135.874H454.866M439.429 151.31V166.747M439.429 151.31H454.866M439.429 166.747V182.184M439.429 166.747H454.866M439.429 182.184V197.621M439.429 182.184H454.866M439.429 197.621V213.058M439.429 197.621H454.866M439.429 213.058V228.495M439.429 213.058H454.866M439.429 228.495V243.932M439.429 228.495H454.866M439.429 243.932V259.369M439.429 243.932H454.866M439.429 259.369H454.866M454.866 -49.3691V-33.9322M454.866 -49.3691H470.303M454.866 -33.9322V-18.4954M454.866 -33.9322H470.303M454.866 -18.4954V-3.05847M454.866 -18.4954H470.303M454.866 -3.05847V12.3784M454.866 -3.05847H470.303M454.866 12.3784V27.8153M454.866 12.3784H470.303M454.866 27.8153V43.2522M454.866 27.8153H470.303M454.866 43.2522V58.6891M454.866 43.2522H470.303M454.866 58.6891V74.126M454.866 58.6891H470.303M454.866 74.126V89.5629M454.866 74.126H470.303M454.866 89.5629V105M454.866 89.5629H470.303M454.866 105V120.437M454.866 105H470.303M454.866 120.437V135.874M454.866 120.437H470.303M454.866 135.874V151.31M454.866 135.874H470.303M454.866 151.31V166.747M454.866 151.31H470.303M454.866 166.747V182.184M454.866 166.747H470.303M454.866 182.184V197.621M454.866 182.184H470.303M454.866 197.621V213.058M454.866 197.621H470.303M454.866 213.058V228.495M454.866 213.058H470.303M454.866 228.495V243.932M454.866 228.495H470.303M454.866 243.932V259.369M454.866 243.932H470.303M454.866 259.369H470.303M470.303 -49.3691V-33.9322M470.303 -49.3691H485.74M470.303 -33.9322V-18.4954M470.303 -33.9322H485.74M470.303 -18.4954V-3.05847M470.303 -18.4954H485.74M470.303 -3.05847V12.3784M470.303 -3.05847H485.74M470.303 12.3784V27.8153M470.303 12.3784H485.74M470.303 27.8153V43.2522M470.303 27.8153H485.74M470.303 43.2522V58.6891M470.303 43.2522H485.74M470.303 58.6891V74.126M470.303 58.6891H485.74M470.303 74.126V89.5629M470.303 74.126H485.74M470.303 89.5629V105M470.303 89.5629H485.74M470.303 105V120.437M470.303 105H485.74M470.303 120.437V135.874M470.303 120.437H485.74M470.303 135.874V151.31M470.303 135.874H485.74M470.303 151.31V166.747M470.303 151.31H485.74M470.303 166.747V182.184M470.303 166.747H485.74M470.303 182.184V197.621M470.303 182.184H485.74M470.303 197.621V213.058M470.303 197.621H485.74M470.303 213.058V228.495M470.303 213.058H485.74M470.303 228.495V243.932M470.303 228.495H485.74M470.303 243.932V259.369M470.303 243.932H485.74M470.303 259.369H485.74M485.74 -49.3691V-33.9322M485.74 -49.3691H501.176M485.74 -33.9322V-18.4954M485.74 -33.9322H501.176M485.74 -18.4954V-3.05847M485.74 -18.4954H501.176M485.74 -3.05847V12.3784M485.74 -3.05847H501.176M485.74 12.3784V27.8153M485.74 12.3784H501.176M485.74 27.8153V43.2522M485.74 27.8153H501.176M485.74 43.2522V58.6891M485.74 43.2522H501.176M485.74 58.6891V74.126M485.74 58.6891H501.176M485.74 74.126V89.5629M485.74 74.126H501.176M485.74 89.5629V105M485.74 89.5629H501.176M485.74 105V120.437M485.74 105H501.176M485.74 120.437V135.874M485.74 120.437H501.176M485.74 135.874V151.31M485.74 135.874H501.176M485.74 151.31V166.747M485.74 151.31H501.176M485.74 166.747V182.184M485.74 166.747H501.176M485.74 182.184V197.621M485.74 182.184H501.176M485.74 197.621V213.058M485.74 197.621H501.176M485.74 213.058V228.495M485.74 213.058H501.176M485.74 228.495V243.932M485.74 228.495H501.176M485.74 243.932V259.369M485.74 243.932H501.176M485.74 259.369H501.176M501.176 -49.3691V-33.9322M501.176 -49.3691H516.613M501.176 -33.9322V-18.4954M501.176 -33.9322H516.613M501.176 -18.4954V-3.05847M501.176 -18.4954H516.613M501.176 -3.05847V12.3784M501.176 -3.05847H516.613M501.176 12.3784V27.8153M501.176 12.3784H516.613M501.176 27.8153V43.2522M501.176 27.8153H516.613M501.176 43.2522V58.6891M501.176 43.2522H516.613M501.176 58.6891V74.126M501.176 58.6891H516.613M501.176 74.126V89.5629M501.176 74.126H516.613M501.176 89.5629V105M501.176 89.5629H516.613M501.176 105V120.437M501.176 105H516.613M501.176 120.437V135.874M501.176 120.437H516.613M501.176 135.874V151.31M501.176 135.874H516.613M501.176 151.31V166.747M501.176 151.31H516.613M501.176 166.747V182.184M501.176 166.747H516.613M501.176 182.184V197.621M501.176 182.184H516.613M501.176 197.621V213.058M501.176 197.621H516.613M501.176 213.058V228.495M501.176 213.058H516.613M501.176 228.495V243.932M501.176 228.495H516.613M501.176 243.932V259.369M501.176 243.932H516.613M501.176 259.369H516.613M516.613 -49.3691V-33.9322M516.613 -49.3691H532.05M516.613 -33.9322V-18.4954M516.613 -33.9322H532.05M516.613 -18.4954V-3.05847M516.613 -18.4954H532.05M516.613 -3.05847V12.3784M516.613 -3.05847H532.05M516.613 12.3784V27.8153M516.613 12.3784H532.05M516.613 27.8153V43.2522M516.613 27.8153H532.05M516.613 43.2522V58.6891M516.613 43.2522H532.05M516.613 58.6891V74.126M516.613 58.6891H532.05M516.613 74.126V89.5629M516.613 74.126H532.05M516.613 89.5629V105M516.613 89.5629H532.05M516.613 105V120.437M516.613 105H532.05M516.613 120.437V135.874M516.613 120.437H532.05M516.613 135.874V151.31M516.613 135.874H532.05M516.613 151.31V166.747M516.613 151.31H532.05M516.613 166.747V182.184M516.613 166.747H532.05M516.613 182.184V197.621M516.613 182.184H532.05M516.613 197.621V213.058M516.613 197.621H532.05M516.613 213.058V228.495M516.613 213.058H532.05M516.613 228.495V243.932M516.613 228.495H532.05M516.613 243.932V259.369M516.613 243.932H532.05M516.613 259.369H532.05M532.05 -49.3691V-33.9322M532.05 -49.3691H547.487M532.05 -33.9322V-18.4954M532.05 -33.9322H547.487M532.05 -18.4954V-3.05847M532.05 -18.4954H547.487M532.05 -3.05847V12.3784M532.05 -3.05847H547.487M532.05 12.3784V27.8153M532.05 12.3784H547.487M532.05 27.8153V43.2522M532.05 27.8153H547.487M532.05 43.2522V58.6891M532.05 43.2522H547.487M532.05 58.6891V74.126M532.05 58.6891H547.487M532.05 74.126V89.5629M532.05 74.126H547.487M532.05 89.5629V105M532.05 89.5629H547.487M532.05 105V120.437M532.05 105H547.487M532.05 120.437V135.874M532.05 120.437H547.487M532.05 135.874V151.31M532.05 135.874H547.487M532.05 151.31V166.747M532.05 151.31H547.487M532.05 166.747V182.184M532.05 166.747H547.487M532.05 182.184V197.621M532.05 182.184H547.487M532.05 197.621V213.058M532.05 197.621H547.487M532.05 213.058V228.495M532.05 213.058H547.487M532.05 228.495V243.932M532.05 228.495H547.487M532.05 243.932V259.369M532.05 243.932H547.487M532.05 259.369H547.487M547.487 -49.3691V-33.9322M547.487 -49.3691H562.924M547.487 -33.9322V-18.4954M547.487 -33.9322H562.924M547.487 -18.4954V-3.05847M547.487 -18.4954H562.924M547.487 -3.05847V12.3784M547.487 -3.05847H562.924M547.487 12.3784V27.8153M547.487 12.3784H562.924M547.487 27.8153V43.2522M547.487 27.8153H562.924M547.487 43.2522V58.6891M547.487 43.2522H562.924M547.487 58.6891V74.126M547.487 58.6891H562.924M547.487 74.126V89.5629M547.487 74.126H562.924M547.487 89.5629V105M547.487 89.5629H562.924M547.487 105V120.437M547.487 105H562.924M547.487 120.437V135.874M547.487 120.437H562.924M547.487 135.874V151.31M547.487 135.874H562.924M547.487 151.31V166.747M547.487 151.31H562.924M547.487 166.747V182.184M547.487 166.747H562.924M547.487 182.184V197.621M547.487 182.184H562.924M547.487 197.621V213.058M547.487 197.621H562.924M547.487 213.058V228.495M547.487 213.058H562.924M547.487 228.495V243.932M547.487 228.495H562.924M547.487 243.932V259.369M547.487 243.932H562.924M547.487 259.369H562.924M562.924 -49.3691V-33.9322M562.924 -49.3691H578.361M562.924 -33.9322V-18.4954M562.924 -33.9322H578.361M562.924 -18.4954V-3.05847M562.924 -18.4954H578.361M562.924 -3.05847V12.3784M562.924 -3.05847H578.361M562.924 12.3784V27.8153M562.924 12.3784H578.361M562.924 27.8153V43.2522M562.924 27.8153H578.361M562.924 43.2522V58.6891M562.924 43.2522H578.361M562.924 58.6891V74.126M562.924 58.6891H578.361M562.924 74.126V89.5629M562.924 74.126H578.361M562.924 89.5629V105M562.924 89.5629H578.361M562.924 105V120.437M562.924 105H578.361M562.924 120.437V135.874M562.924 120.437H578.361M562.924 135.874V151.31M562.924 135.874H578.361M562.924 151.31V166.747M562.924 151.31H578.361M562.924 166.747V182.184M562.924 166.747H578.361M562.924 182.184V197.621M562.924 182.184H578.361M562.924 197.621V213.058M562.924 197.621H578.361M562.924 213.058V228.495M562.924 213.058H578.361M562.924 228.495V243.932M562.924 228.495H578.361M562.924 243.932V259.369M562.924 243.932H578.361M562.924 259.369H578.361M578.361 -49.3691V-33.9322M578.361 -49.3691H593.798M578.361 -33.9322V-18.4954M578.361 -33.9322H593.798M578.361 -18.4954V-3.05847M578.361 -18.4954H593.798M578.361 -3.05847V12.3784M578.361 -3.05847H593.798M578.361 12.3784V27.8153M578.361 12.3784H593.798M578.361 27.8153V43.2522M578.361 27.8153H593.798M578.361 43.2522V58.6891M578.361 43.2522H593.798M578.361 58.6891V74.126M578.361 58.6891H593.798M578.361 74.126V89.5629M578.361 74.126H593.798M578.361 89.5629V105M578.361 89.5629H593.798M578.361 105V120.437M578.361 105H593.798M578.361 120.437V135.874M578.361 120.437H593.798M578.361 135.874V151.31M578.361 135.874H593.798M578.361 151.31V166.747M578.361 151.31H593.798M578.361 166.747V182.184M578.361 166.747H593.798M578.361 182.184V197.621M578.361 182.184H593.798M578.361 197.621V213.058M578.361 197.621H593.798M578.361 213.058V228.495M578.361 213.058H593.798M578.361 228.495V243.932M578.361 228.495H593.798M578.361 243.932V259.369M578.361 243.932H593.798M578.361 259.369H593.798M593.798 -49.3691V-33.9322M593.798 -49.3691H609.235M593.798 -33.9322V-18.4954M593.798 -33.9322H609.235M593.798 -18.4954V-3.05847M593.798 -18.4954H609.235M593.798 -3.05847V12.3784M593.798 -3.05847H609.235M593.798 12.3784V27.8153M593.798 12.3784H609.235M593.798 27.8153V43.2522M593.798 27.8153H609.235M593.798 43.2522V58.6891M593.798 43.2522H609.235M593.798 58.6891V74.126M593.798 58.6891H609.235M593.798 74.126V89.5629M593.798 74.126H609.235M593.798 89.5629V105M593.798 89.5629H609.235M593.798 105V120.437M593.798 105H609.235M593.798 120.437V135.874M593.798 120.437H609.235M593.798 135.874V151.31M593.798 135.874H609.235M593.798 151.31V166.747M593.798 151.31H609.235M593.798 166.747V182.184M593.798 166.747H609.235M593.798 182.184V197.621M593.798 182.184H609.235M593.798 197.621V213.058M593.798 197.621H609.235M593.798 213.058V228.495M593.798 213.058H609.235M593.798 228.495V243.932M593.798 228.495H609.235M593.798 243.932V259.369M593.798 243.932H609.235M593.798 259.369H609.235M609.235 -49.3691V-33.9322M609.235 -49.3691H624.672M609.235 -33.9322V-18.4954M609.235 -33.9322H624.672M609.235 -18.4954V-3.05847M609.235 -18.4954H624.672M609.235 -3.05847V12.3784M609.235 -3.05847H624.672M609.235 12.3784V27.8153M609.235 12.3784H624.672M609.235 27.8153V43.2522M609.235 27.8153H624.672M609.235 43.2522V58.6891M609.235 43.2522H624.672M609.235 58.6891V74.126M609.235 58.6891H624.672M609.235 74.126V89.5629M609.235 74.126H624.672M609.235 89.5629V105M609.235 89.5629H624.672M609.235 105V120.437M609.235 105H624.672M609.235 120.437V135.874M609.235 120.437H624.672M609.235 135.874V151.31M609.235 135.874H624.672M609.235 151.31V166.747M609.235 151.31H624.672M609.235 166.747V182.184M609.235 166.747H624.672M609.235 182.184V197.621M609.235 182.184H624.672M609.235 197.621V213.058M609.235 197.621H624.672M609.235 213.058V228.495M609.235 213.058H624.672M609.235 228.495V243.932M609.235 228.495H624.672M609.235 243.932V259.369M609.235 243.932H624.672M609.235 259.369H624.672M624.672 -49.3691V-33.9322M624.672 -49.3691H640.109M624.672 -33.9322V-18.4954M624.672 -33.9322H640.109M624.672 -18.4954V-3.05847M624.672 -18.4954H640.109M624.672 -3.05847V12.3784M624.672 -3.05847H640.109M624.672 12.3784V27.8153M624.672 12.3784H640.109M624.672 27.8153V43.2522M624.672 27.8153H640.109M624.672 43.2522V58.6891M624.672 43.2522H640.109M624.672 58.6891V74.126M624.672 58.6891H640.109M624.672 74.126V89.5629M624.672 74.126H640.109M624.672 89.5629V105M624.672 89.5629H640.109M624.672 105V120.437M624.672 105H640.109M624.672 120.437V135.874M624.672 120.437H640.109M624.672 135.874V151.31M624.672 135.874H640.109M624.672 151.31V166.747M624.672 151.31H640.109M624.672 166.747V182.184M624.672 166.747H640.109M624.672 182.184V197.621M624.672 182.184H640.109M624.672 197.621V213.058M624.672 197.621H640.109M624.672 213.058V228.495M624.672 213.058H640.109M624.672 228.495V243.932M624.672 228.495H640.109M624.672 243.932V259.369M624.672 243.932H640.109M624.672 259.369H640.109M640.109 -49.3691V-33.9322M640.109 -49.3691H655.545M640.109 -33.9322V-18.4954M640.109 -33.9322H655.545M640.109 -18.4954V-3.05847M640.109 -18.4954H655.545M640.109 -3.05847V12.3784M640.109 -3.05847H655.545M640.109 12.3784V27.8153M640.109 12.3784H655.545M640.109 27.8153V43.2522M640.109 27.8153H655.545M640.109 43.2522V58.6891M640.109 43.2522H655.545M640.109 58.6891V74.126M640.109 58.6891H655.545M640.109 74.126V89.5629M640.109 74.126H655.545M640.109 89.5629V105M640.109 89.5629H655.545M640.109 105V120.437M640.109 105H655.545M640.109 120.437V135.874M640.109 120.437H655.545M640.109 135.874V151.31M640.109 135.874H655.545M640.109 151.31V166.747M640.109 151.31H655.545M640.109 166.747V182.184M640.109 166.747H655.545M640.109 182.184V197.621M640.109 182.184H655.545M640.109 197.621V213.058M640.109 197.621H655.545M640.109 213.058V228.495M640.109 213.058H655.545M640.109 228.495V243.932M640.109 228.495H655.545M640.109 243.932V259.369M640.109 243.932H655.545M640.109 259.369H655.545M655.545 -49.3691V-33.9322M655.545 -49.3691H670.982M655.545 -33.9322V-18.4954M655.545 -33.9322H670.982M655.545 -18.4954V-3.05847M655.545 -18.4954H670.982M655.545 -3.05847V12.3784M655.545 -3.05847H670.982M655.545 12.3784V27.8153M655.545 12.3784H670.982M655.545 27.8153V43.2522M655.545 27.8153H670.982M655.545 43.2522V58.6891M655.545 43.2522H670.982M655.545 58.6891V74.126M655.545 58.6891H670.982M655.545 74.126V89.5629M655.545 74.126H670.982M655.545 89.5629V105M655.545 89.5629H670.982M655.545 105V120.437M655.545 105H670.982M655.545 120.437V135.874M655.545 120.437H670.982M655.545 135.874V151.31M655.545 135.874H670.982M655.545 151.31V166.747M655.545 151.31H670.982M655.545 166.747V182.184M655.545 166.747H670.982M655.545 182.184V197.621M655.545 182.184H670.982M655.545 197.621V213.058M655.545 197.621H670.982M655.545 213.058V228.495M655.545 213.058H670.982M655.545 228.495V243.932M655.545 228.495H670.982M655.545 243.932V259.369M655.545 243.932H670.982M655.545 259.369H670.982M670.982 -49.3691V-33.9322M670.982 -49.3691H686.419M670.982 -33.9322V-18.4954M670.982 -33.9322H686.419M670.982 -18.4954V-3.05847M670.982 -18.4954H686.419M670.982 -3.05847V12.3784M670.982 -3.05847H686.419M670.982 12.3784V27.8153M670.982 12.3784H686.419M670.982 27.8153V43.2522M670.982 27.8153H686.419M670.982 43.2522V58.6891M670.982 43.2522H686.419M670.982 58.6891V74.126M670.982 58.6891H686.419M670.982 74.126V89.5629M670.982 74.126H686.419M670.982 89.5629V105M670.982 89.5629H686.419M670.982 105V120.437M670.982 105H686.419M670.982 120.437V135.874M670.982 120.437H686.419M670.982 135.874V151.31M670.982 135.874H686.419M670.982 151.31V166.747M670.982 151.31H686.419M670.982 166.747V182.184M670.982 166.747H686.419M670.982 182.184V197.621M670.982 182.184H686.419M670.982 197.621V213.058M670.982 197.621H686.419M670.982 213.058V228.495M670.982 213.058H686.419M670.982 228.495V243.932M670.982 228.495H686.419M670.982 243.932V259.369M670.982 243.932H686.419M670.982 259.369H686.419M686.419 -49.3691V-33.9322M686.419 -49.3691H701.856V-33.9322M686.419 -33.9322V-18.4954M686.419 -33.9322H701.856M686.419 -18.4954V-3.05847M686.419 -18.4954H701.856M686.419 -3.05847V12.3784M686.419 -3.05847H701.856M686.419 12.3784V27.8153M686.419 12.3784H701.856M686.419 27.8153V43.2522M686.419 27.8153H701.856M686.419 43.2522V58.6891M686.419 43.2522H701.856M686.419 58.6891V74.126M686.419 58.6891H701.856M686.419 74.126V89.5629M686.419 74.126H701.856M686.419 89.5629V105M686.419 89.5629H701.856M686.419 105V120.437M686.419 105H701.856M686.419 120.437V135.874M686.419 120.437H701.856M686.419 135.874V151.31M686.419 135.874H701.856M686.419 151.31V166.747M686.419 151.31H701.856M686.419 166.747V182.184M686.419 166.747H701.856M686.419 182.184V197.621M686.419 182.184H701.856M686.419 197.621V213.058M686.419 197.621H701.856M686.419 213.058V228.495M686.419 213.058H701.856M686.419 228.495V243.932M686.419 228.495H701.856M686.419 243.932V259.369M686.419 243.932H701.856M686.419 259.369H701.856V243.932M701.856 -33.9322V-18.4954M701.856 -18.4954V-3.05847M701.856 -3.05847V12.3784M701.856 12.3784V27.8153M701.856 27.8153V43.2522M701.856 43.2522V58.6891M701.856 58.6891V74.126M701.856 74.126V89.5629M701.856 89.5629V105M701.856 105V120.437M701.856 120.437V135.874M701.856 135.874V151.31M701.856 151.31V166.747M701.856 166.747V182.184M701.856 182.184V197.621M701.856 197.621V213.058M701.856 213.058V228.495M701.856 228.495V243.932" stroke="url(#paint0_radial_1629_34030)" stroke-opacity="0.5" stroke-width="0.192961"/>
</g>
<g style="mix-blend-mode:soft-light" opacity="0.8">
<path d="M84.3786 7.74753V12.3786M84.3786 12.3786V17.0097M84.3786 12.3786H79.7476M84.3786 12.3786H89.0097M84.3786 131.243V135.874M84.3786 135.874V140.505M84.3786 135.874H79.7476M84.3786 135.874H89.0097M84.3786 254.738V259.369M84.3786 259.369V264M84.3786 259.369H79.7476M84.3786 259.369H89.0097M207.874 131.243V135.874M207.874 135.874V140.505M207.874 135.874H203.243M207.874 135.874H212.505M207.874 254.738V259.369M207.874 259.369V264M207.874 259.369H203.243M207.874 259.369H212.505M331.369 23.3687V27.9998M331.369 27.9998V32.6308M331.369 27.9998H326.738M331.369 27.9998H336M331.369 131.243V135.874M331.369 135.874V140.505M331.369 135.874H326.738M331.369 135.874H336M331.369 254.738V259.369M331.369 259.369V264M331.369 259.369H326.738M331.369 259.369H336M454.864 7.74753V12.3786M454.864 12.3786V17.0097M454.864 12.3786H450.233M454.864 12.3786H459.495M454.864 131.243V135.874M454.864 135.874V140.505M454.864 135.874H450.233M454.864 135.874H459.495M454.864 254.738V259.369M454.864 259.369V264M454.864 259.369H450.233M454.864 259.369H459.495M578.359 7.74753V12.3786M578.359 12.3786V17.0097M578.359 12.3786H573.728M578.359 12.3786H582.99M578.359 131.243V135.874M578.359 135.874V140.505M578.359 135.874H573.728M578.359 135.874H582.99M578.359 254.738V259.369M578.359 259.369V264M578.359 259.369H573.728M578.359 259.369H582.99M701.854 7.74753V12.3786M701.854 12.3786V17.0097M701.854 12.3786H697.223M701.854 12.3786H706.485M701.854 131.243V135.874M701.854 135.874V140.505M701.854 135.874H697.223M701.854 135.874H706.485M701.854 254.738V259.369M701.854 259.369V264M701.854 259.369H697.223M701.854 259.369H706.485M84.3786 -54V-49.3689M84.3786 -49.3689V-44.7379M84.3786 -49.3689H79.7476M84.3786 -49.3689H89.0097M84.3786 69.4952V74.1262M84.3786 74.1262V78.7573M84.3786 74.1262H79.7476M84.3786 74.1262H89.0097M84.3786 192.99V197.621M84.3786 197.621V202.252M84.3786 197.621H79.7476M84.3786 197.621H89.0097M207.874 -54V-49.3689M207.874 -49.3689V-44.7379M207.874 -49.3689H203.243M207.874 -49.3689H212.505M207.874 192.99V197.621M207.874 197.621V202.252M207.874 197.621H203.243M207.874 197.621H212.505M331.369 192.99V197.621M331.369 197.621V202.252M331.369 197.621H326.738M331.369 197.621H336M454.864 -54V-49.3689M454.864 -49.3689V-44.7379M454.864 -49.3689H450.233M454.864 -49.3689H459.495M454.864 69.4952V74.1262M454.864 74.1262V78.7573M454.864 74.1262H450.233M454.864 74.1262H459.495M454.864 192.99V197.621M454.864 197.621V202.252M454.864 197.621H450.233M454.864 197.621H459.495M578.359 -54V-49.3689M578.359 -49.3689V-44.7379M578.359 -49.3689H573.728M578.359 -49.3689H582.99M578.359 69.4952V74.1262M578.359 74.1262V78.7573M578.359 74.1262H573.728M578.359 74.1262H582.99M578.359 192.99V197.621M578.359 197.621V202.252M578.359 197.621H573.728M578.359 197.621H582.99M701.854 -54V-49.3689M701.854 -49.3689V-44.7379M701.854 -49.3689H697.223M701.854 -49.3689H706.485M701.854 69.4952V74.1262M701.854 74.1262V78.7573M701.854 74.1262H697.223M701.854 74.1262H706.485M701.854 192.99V197.621M701.854 197.621V202.252M701.854 197.621H697.223M701.854 197.621H706.485M22.6311 7.74753V12.3786M22.6311 12.3786V17.0097M22.6311 12.3786H18M22.6311 12.3786H27.2621M22.6311 131.243V135.874M22.6311 135.874V140.505M22.6311 135.874H18M22.6311 135.874H27.2621M22.6311 254.738V259.369M22.6311 259.369V264M22.6311 259.369H18M22.6311 259.369H27.2621M146.126 131.243V135.874M146.126 135.874V140.505M146.126 135.874H141.495M146.126 135.874H150.757M146.126 254.738V259.369M146.126 259.369V264M146.126 259.369H141.495M146.126 259.369H150.757M269.621 131.243V135.874M269.621 135.874V140.505M269.621 135.874H264.99M269.621 135.874H274.252M269.621 254.738V259.369M269.621 259.369V264M269.621 259.369H264.99M269.621 259.369H274.252M393.117 23.3687V27.9998M393.117 27.9998V32.6308M393.117 27.9998H388.485M393.117 27.9998H397.748M393.117 131.243V135.874M393.117 135.874V140.505M393.117 135.874H388.485M393.117 135.874H397.748M393.117 254.738V259.369M393.117 259.369V264M393.117 259.369H388.485M393.117 259.369H397.748M516.612 7.74753V12.3786M516.612 12.3786V17.0097M516.612 12.3786H511.981M516.612 12.3786H521.243M516.612 131.243V135.874M516.612 135.874V140.505M516.612 135.874H511.981M516.612 135.874H521.243M516.612 254.738V259.369M516.612 259.369V264M516.612 259.369H511.981M516.612 259.369H521.243M640.107 7.74753V12.3786M640.107 12.3786V17.0097M640.107 12.3786H635.476M640.107 12.3786H644.738M640.107 131.243V135.874M640.107 135.874V140.505M640.107 135.874H635.476M640.107 135.874H644.738M640.107 254.738V259.369M640.107 259.369V264M640.107 259.369H635.476M640.107 259.369H644.738M22.6311 -54V-49.3689M22.6311 -49.3689V-44.7378M22.6311 -49.3689H18M22.6311 -49.3689H27.2621M22.6311 69.4952V74.1262M22.6311 74.1262V78.7573M22.6311 74.1262H18M22.6311 74.1262H27.2621M22.6311 192.99V197.621M22.6311 197.621V202.252M22.6311 197.621H18M22.6311 197.621H27.2621M146.126 -54V-49.3689M146.126 -49.3689V-44.7379M146.126 -49.3689H141.495M146.126 -49.3689H150.757M146.126 192.99V197.621M146.126 197.621V202.252M146.126 197.621H141.495M146.126 197.621H150.757M269.621 -54V-49.3689M269.621 -49.3689V-44.7379M269.621 -49.3689H264.99M269.621 -49.3689H274.252M269.621 192.99V197.621M269.621 197.621V202.252M269.621 197.621H264.99M269.621 197.621H274.252M176.869 7.74753V12.3786M176.869 12.3786V17.0097M176.869 12.3786H172.238M176.869 12.3786H181.5M393.117 192.99V197.621M393.117 197.621V202.252M393.117 197.621H388.485M393.117 197.621H397.748M516.612 -54V-49.3689M516.612 -49.3689V-44.7379M516.612 -49.3689H511.981M516.612 -49.3689H521.243M516.612 69.4952V74.1262M516.612 74.1262V78.7573M516.612 74.1262H511.981M516.612 74.1262H521.243M516.612 192.99V197.621M516.612 197.621V202.252M516.612 197.621H511.981M516.612 197.621H521.243M640.107 -54V-49.3689M640.107 -49.3689V-44.7379M640.107 -49.3689H635.476M640.107 -49.3689H644.738M640.107 69.4952V74.1262M640.107 74.1262V78.7573M640.107 74.1262H635.476M640.107 74.1262H644.738M640.107 192.99V197.621M640.107 197.621V202.252M640.107 197.621H635.476M640.107 197.621H644.738M331.329 69.7376V74.3687M331.329 74.3687V78.9998M331.329 74.3687H326.698M331.329 74.3687H335.961M393.117 69.7376V74.3687M393.117 74.3687V78.9998M393.117 74.3687H388.485M393.117 74.3687H397.748" stroke="url(#paint1_radial_1629_34030)" stroke-opacity="0.5" stroke-width="0.385922"/>
</g>
</g>
<defs>
<radialGradient id="paint0_radial_1629_34030" cx="0" cy="0" r="1" gradientUnits="userSpaceOnUse" gradientTransform="translate(362.244 105) rotate(90) scale(154.369 339.612)">
<stop stop-color="#F2F2F2"/>
<stop offset="1" stop-color="#F2F2F2" stop-opacity="0"/>
</radialGradient>
<radialGradient id="paint1_radial_1629_34030" cx="0" cy="0" r="1" gradientUnits="userSpaceOnUse" gradientTransform="translate(362.243 105) rotate(90) scale(159 344.243)">
<stop stop-color="#F2F2F2"/>
<stop offset="1" stop-color="#F2F2F2" stop-opacity="0"/>
</radialGradient>
<clipPath id="clip0_1629_34030">
<rect width="418" height="90" fill="white"/>
</clipPath>
</defs>
</svg>
