<svg width="244" height="75" viewBox="0 0 244 75" fill="none" xmlns="http://www.w3.org/2000/svg">
<rect y="0.5" width="244" height="74" rx="8.8" fill="#01050D" fill-opacity="0.3"/>
<rect x="0.275" y="0.775" width="243.45" height="73.45" rx="8.525" stroke="url(#paint0_linear_423_5859)" stroke-opacity="0.1" stroke-width="0.55"/>
<path d="M36.3473 40.8098V43.2848H22.8121L22.709 41.4157L30.8043 28.7313H33.2922L30.598 33.3461L25.9445 40.8098H36.3473ZM34.0012 28.7313V47.5H30.8945V28.7313H34.0012ZM38.732 45.9532C38.732 45.4719 38.8953 45.068 39.2219 44.7414C39.5484 44.4063 39.991 44.2387 40.5496 44.2387C41.1168 44.2387 41.5594 44.4063 41.8773 44.7414C42.2039 45.068 42.3672 45.4719 42.3672 45.9532C42.3672 46.4344 42.2039 46.8383 41.8773 47.1649C41.5594 47.4914 41.1168 47.6547 40.5496 47.6547C39.991 47.6547 39.5484 47.4914 39.2219 47.1649C38.8953 46.8383 38.732 46.4344 38.732 45.9532ZM48.2711 45.0508H48.5289C49.7148 45.0508 50.7031 44.8961 51.4938 44.5867C52.293 44.2688 52.9289 43.8305 53.4016 43.2719C53.8742 42.7133 54.2137 42.0559 54.4199 41.2996C54.6262 40.5434 54.7293 39.7227 54.7293 38.8375V35.602C54.7293 34.8371 54.6477 34.1668 54.4844 33.591C54.3297 33.0067 54.1063 32.5211 53.8141 32.1344C53.5305 31.7391 53.1996 31.4426 52.8215 31.245C52.452 31.0473 52.0523 30.9485 51.6227 30.9485C51.15 30.9485 50.7246 31.0559 50.3465 31.2707C49.977 31.477 49.6633 31.7649 49.4055 32.1344C49.1563 32.4953 48.9629 32.9207 48.8254 33.4106C48.6965 33.8918 48.632 34.4075 48.632 34.9575C48.632 35.4731 48.6922 35.9715 48.8125 36.4528C48.9414 36.9254 49.1305 37.3465 49.3797 37.716C49.6289 38.0856 49.9426 38.3778 50.3207 38.5926C50.6988 38.8075 51.1414 38.9149 51.6484 38.9149C52.1297 38.9149 52.5723 38.8246 52.9762 38.6442C53.3801 38.4551 53.7324 38.2016 54.0332 37.8836C54.334 37.5657 54.5703 37.209 54.7422 36.8137C54.9141 36.4184 55.0086 36.0145 55.0258 35.602L56.2117 35.9629C56.2117 36.616 56.0742 37.2606 55.7992 37.8965C55.5328 38.5239 55.159 39.0996 54.6777 39.6239C54.2051 40.1395 53.6508 40.552 53.0148 40.8614C52.3875 41.1707 51.7043 41.3254 50.9652 41.3254C50.0715 41.3254 49.2809 41.1578 48.5934 40.8227C47.9145 40.4789 47.3473 40.0149 46.8918 39.4305C46.4449 38.8461 46.1098 38.1758 45.8863 37.4196C45.6629 36.6633 45.5512 35.8684 45.5512 35.0348C45.5512 34.1325 45.6887 33.286 45.9637 32.4953C46.2387 31.7047 46.6383 31.0086 47.1625 30.4071C47.6867 29.7969 48.3227 29.3242 49.0703 28.9891C49.8266 28.6453 50.6816 28.4735 51.6355 28.4735C52.6496 28.4735 53.5391 28.6711 54.3039 29.0664C55.0688 29.4617 55.7133 30.0075 56.2375 30.7035C56.7617 31.3996 57.157 32.2075 57.4234 33.127C57.6898 34.0465 57.823 35.0348 57.823 36.0918V37.1875C57.823 38.2961 57.7242 39.366 57.5266 40.3973C57.3289 41.42 57.0066 42.3696 56.5598 43.2461C56.1215 44.1141 55.5414 44.8789 54.8195 45.5407C54.1063 46.1938 53.2297 46.7051 52.1898 47.0746C51.1586 47.4356 49.9469 47.616 48.5547 47.616H48.2711V45.0508ZM73.0727 37.2133V40.0106H60.2078V37.2133H73.0727ZM68.1484 31.9539V45.618H65.1449V31.9539H68.1484Z" fill="#F2F2F2"/>
<path fillRule="evenodd" clipRule="evenodd" d="M120.963 29.9241C120.416 29.6647 119.782 29.6647 119.235 29.9241C118.856 30.1037 118.588 30.4436 118.35 30.8278C118.11 31.214 117.848 31.7391 117.521 32.3929L117.508 32.4185L117.245 32.9455C117.021 33.3938 116.955 33.5113 116.874 33.597C116.789 33.6853 116.688 33.7559 116.576 33.8046C116.467 33.8518 116.334 33.8723 115.836 33.9277L115.597 33.9542L115.568 33.9574L115.568 33.9574C114.783 34.0447 114.156 34.1144 113.681 34.211C113.212 34.3063 112.776 34.4473 112.47 34.7591C112.033 35.2052 111.827 35.8287 111.913 36.4475C111.973 36.8799 112.239 37.2531 112.559 37.6086C112.883 37.969 113.346 38.3985 113.925 38.9362L113.925 38.9362L113.946 38.9559L114.198 39.1903C114.637 39.5976 114.749 39.7129 114.812 39.8355C114.878 39.9622 114.912 40.1023 114.914 40.2447C114.915 40.3824 114.868 40.5396 114.668 41.1121L114.658 41.1392C114.362 41.984 114.127 42.6531 113.994 43.1736C113.864 43.6793 113.792 44.1758 113.96 44.6058C114.198 45.2108 114.712 45.6643 115.343 45.8238C115.789 45.9368 116.268 45.8052 116.749 45.6154C117.243 45.4207 117.868 45.108 118.657 44.7139L118.657 44.7139L118.683 44.7009L119.296 44.3944C119.709 44.1878 119.822 44.1369 119.93 44.1166C120.042 44.0956 120.156 44.0956 120.268 44.1166C120.377 44.1369 120.489 44.1878 120.903 44.3944L121.516 44.7009L121.542 44.7139L121.542 44.7139C122.33 45.1081 122.955 45.4207 123.449 45.6154C123.93 45.8052 124.409 45.9368 124.856 45.8238C125.486 45.6643 126 45.2108 126.238 44.6058C126.407 44.1758 126.334 43.6793 126.205 43.1736C126.071 42.6531 125.837 41.984 125.54 41.1392L125.54 41.1392L125.531 41.1121C125.33 40.5396 125.283 40.3824 125.285 40.2447C125.286 40.1023 125.321 39.9622 125.386 39.8355C125.449 39.7129 125.561 39.5976 126 39.1903L126.252 38.9559L126.274 38.9362L126.274 38.9361C126.853 38.3985 127.315 37.969 127.639 37.6086C127.959 37.2531 128.226 36.8799 128.286 36.4475C128.371 35.8287 128.165 35.2052 127.728 34.7591C127.423 34.4473 126.986 34.3063 126.518 34.211C126.043 34.1144 125.415 34.0447 124.63 33.9574L124.63 33.9574L124.601 33.9542L124.362 33.9277C123.864 33.8723 123.731 33.8518 123.622 33.8046C123.51 33.7559 123.409 33.6853 123.325 33.597C123.243 33.5113 123.178 33.3938 122.953 32.9455L122.69 32.4185L122.677 32.3929C122.35 31.7391 122.088 31.214 121.848 30.8278C121.61 30.4436 121.342 30.1037 120.963 29.9241Z" fill="#FEF360"/>
<path fillRule="evenodd" clipRule="evenodd" d="M144.43 29.9241C143.883 29.6647 143.249 29.6647 142.702 29.9241C142.323 30.1037 142.055 30.4436 141.817 30.8278C141.577 31.214 141.315 31.7391 140.988 32.3929L140.975 32.4185L140.712 32.9455C140.487 33.3938 140.422 33.5113 140.34 33.597C140.256 33.6853 140.155 33.7559 140.043 33.8046C139.934 33.8518 139.801 33.8723 139.303 33.9277L139.064 33.9542L139.035 33.9574L139.035 33.9574C138.25 34.0447 137.622 34.1144 137.147 34.211C136.679 34.3063 136.242 34.4473 135.937 34.7591C135.5 35.2052 135.294 35.8287 135.379 36.4475C135.439 36.8799 135.706 37.2531 136.026 37.6086C136.35 37.969 136.812 38.3985 137.391 38.9362L137.391 38.9362L137.413 38.9559L137.665 39.1903C138.104 39.5976 138.216 39.7129 138.279 39.8355C138.344 39.9622 138.379 40.1023 138.38 40.2447C138.382 40.3824 138.335 40.5396 138.134 41.1121L138.125 41.1392C137.828 41.984 137.594 42.6531 137.46 43.1736C137.331 43.6793 137.258 44.1758 137.427 44.6058C137.665 45.2108 138.179 45.6643 138.809 45.8238C139.256 45.9368 139.735 45.8052 140.216 45.6154C140.71 45.4207 141.335 45.108 142.124 44.7139L142.124 44.7139L142.149 44.7009L142.762 44.3944C143.176 44.1878 143.289 44.1369 143.397 44.1166C143.509 44.0956 143.623 44.0956 143.735 44.1166C143.843 44.1369 143.956 44.1878 144.369 44.3944L144.982 44.7009L145.008 44.7139L145.008 44.7139C145.797 45.1081 146.422 45.4207 146.916 45.6154C147.397 45.8052 147.876 45.9368 148.322 45.8238C148.953 45.6643 149.467 45.2108 149.705 44.6058C149.874 44.1758 149.801 43.6793 149.671 43.1736C149.538 42.6531 149.303 41.984 149.007 41.1392L149.007 41.1392L148.997 41.1121C148.797 40.5396 148.75 40.3824 148.751 40.2447C148.753 40.1023 148.787 39.9622 148.853 39.8355C148.916 39.7129 149.028 39.5976 149.467 39.1903L149.719 38.9559L149.74 38.9362L149.74 38.9361C150.319 38.3985 150.782 37.969 151.106 37.6086C151.426 37.2531 151.692 36.8799 151.752 36.4475C151.838 35.8287 151.632 35.2052 151.195 34.7591C150.889 34.4473 150.453 34.3063 149.984 34.211C149.509 34.1144 148.882 34.0447 148.097 33.9574L148.097 33.9574L148.068 33.9542L147.829 33.9277C147.331 33.8723 147.198 33.8518 147.089 33.8046C146.977 33.7559 146.876 33.6853 146.791 33.597C146.71 33.5113 146.644 33.3938 146.42 32.9455L146.157 32.4185L146.144 32.3929C145.817 31.7391 145.555 31.214 145.315 30.8278C145.077 30.4436 144.809 30.1037 144.43 29.9241Z" fill="#FEF360"/>
<path fillRule="evenodd" clipRule="evenodd" d="M167.897 29.9241C167.35 29.6647 166.715 29.6647 166.169 29.9241C165.79 30.1037 165.521 30.4436 165.283 30.8278C165.044 31.214 164.782 31.7391 164.455 32.3929L164.442 32.4185L164.178 32.9455C163.954 33.3938 163.889 33.5113 163.807 33.597C163.723 33.6853 163.622 33.7559 163.509 33.8046C163.401 33.8518 163.268 33.8723 162.77 33.9277L162.531 33.9542L162.502 33.9574L162.502 33.9574C161.717 34.0447 161.089 34.1144 160.614 34.211C160.146 34.3063 159.709 34.4473 159.404 34.7591C158.966 35.2052 158.761 35.8287 158.846 36.4475C158.906 36.8799 159.173 37.2531 159.493 37.6086C159.817 37.969 160.279 38.3985 160.858 38.9362L160.858 38.9362L160.879 38.9559L161.132 39.1903C161.571 39.5976 161.683 39.7129 161.746 39.8355C161.811 39.9622 161.846 40.1023 161.847 40.2447C161.849 40.3824 161.802 40.5396 161.601 41.1121L161.592 41.1392C161.295 41.984 161.06 42.6531 160.927 43.1736C160.798 43.6793 160.725 44.1758 160.894 44.6058C161.131 45.2108 161.646 45.6643 162.276 45.8238C162.723 45.9368 163.202 45.8052 163.683 45.6154C164.177 45.4207 164.802 45.108 165.59 44.7139L165.59 44.7139L165.616 44.7009L166.229 44.3944C166.643 44.1878 166.755 44.1369 166.864 44.1166C166.975 44.0956 167.09 44.0956 167.202 44.1166C167.31 44.1369 167.423 44.1878 167.836 44.3944L168.449 44.7009L168.475 44.7139L168.475 44.7139C169.263 45.1081 169.889 45.4207 170.382 45.6154C170.863 45.8052 171.343 45.9368 171.789 45.8238C172.419 45.6643 172.934 45.2108 173.172 44.6058C173.34 44.1758 173.268 43.6793 173.138 43.1736C173.005 42.6531 172.77 41.984 172.474 41.1392L172.474 41.1392L172.464 41.1121C172.263 40.5396 172.217 40.3824 172.218 40.2447C172.22 40.1023 172.254 39.9622 172.319 39.8355C172.382 39.7129 172.495 39.5976 172.933 39.1903L173.186 38.9559L173.207 38.9362L173.207 38.9361C173.786 38.3985 174.249 37.969 174.573 37.6086C174.892 37.2531 175.159 36.8799 175.219 36.4475C175.305 35.8287 175.099 35.2052 174.662 34.7591C174.356 34.4473 173.92 34.3063 173.451 34.211C172.976 34.1144 172.349 34.0447 171.564 33.9574L171.564 33.9574L171.535 33.9542L171.296 33.9277C170.797 33.8723 170.665 33.8518 170.556 33.8046C170.444 33.7559 170.343 33.6853 170.258 33.597C170.176 33.5113 170.111 33.3938 169.887 32.9455L169.624 32.4185L169.611 32.3929C169.284 31.7391 169.021 31.214 168.782 30.8278C168.544 30.4436 168.276 30.1037 167.897 29.9241Z" fill="#FEF360"/>
<path fillRule="evenodd" clipRule="evenodd" d="M191.364 29.9241C190.817 29.6647 190.182 29.6647 189.635 29.9241C189.257 30.1037 188.988 30.4436 188.75 30.8278C188.511 31.214 188.248 31.7391 187.921 32.3929L187.909 32.4185L187.645 32.9455C187.421 33.3938 187.356 33.5113 187.274 33.597C187.19 33.6853 187.088 33.7559 186.976 33.8046C186.868 33.8518 186.735 33.8723 186.237 33.9277L185.997 33.9542L185.969 33.9574L185.969 33.9574C185.183 34.0447 184.556 34.1144 184.081 34.211C183.613 34.3063 183.176 34.4473 182.87 34.7591C182.433 35.2052 182.227 35.8287 182.313 36.4475C182.373 36.8799 182.64 37.2531 182.959 37.6086C183.283 37.969 183.746 38.3985 184.325 38.9362L184.325 38.9362L184.346 38.9559L184.599 39.1903C185.037 39.5976 185.15 39.7129 185.213 39.8355C185.278 39.9622 185.313 40.1023 185.314 40.2447C185.316 40.3824 185.269 40.5396 185.068 41.1121L185.058 41.1392C184.762 41.984 184.527 42.6531 184.394 43.1736C184.264 43.6793 184.192 44.1758 184.361 44.6058C184.598 45.2108 185.113 45.6643 185.743 45.8238C186.19 45.9368 186.669 45.8052 187.15 45.6154C187.644 45.4207 188.269 45.108 189.057 44.7139L189.057 44.7139L189.083 44.7009L189.696 44.3944C190.109 44.1878 190.222 44.1369 190.33 44.1166C190.442 44.0956 190.557 44.0956 190.669 44.1166C190.777 44.1369 190.89 44.1878 191.303 44.3944L191.916 44.7009L191.942 44.7139L191.942 44.7139C192.73 45.1081 193.355 45.4207 193.849 45.6154C194.33 45.8052 194.809 45.9368 195.256 45.8238C195.886 45.6643 196.401 45.2108 196.638 44.6058C196.807 44.1758 196.735 43.6793 196.605 43.1736C196.472 42.6531 196.237 41.984 195.941 41.1392L195.941 41.1392L195.931 41.1121C195.73 40.5396 195.684 40.3824 195.685 40.2447C195.686 40.1023 195.721 39.9622 195.786 39.8355C195.849 39.7129 195.962 39.5976 196.4 39.1903L196.653 38.9559L196.674 38.9362L196.674 38.9361C197.253 38.3985 197.716 37.969 198.04 37.6086C198.359 37.2531 198.626 36.8799 198.686 36.4475C198.772 35.8287 198.566 35.2052 198.129 34.7591C197.823 34.4473 197.386 34.3063 196.918 34.211C196.443 34.1144 195.816 34.0447 195.03 33.9574L195.03 33.9574L195.002 33.9542L194.762 33.9277C194.264 33.8723 194.131 33.8518 194.023 33.8046C193.911 33.7559 193.809 33.6853 193.725 33.597C193.643 33.5113 193.578 33.3938 193.354 32.9455L193.09 32.4185L193.078 32.3929C192.751 31.7391 192.488 31.214 192.249 30.8278C192.011 30.4436 191.742 30.1037 191.364 29.9241Z" fill="#FEF360"/>
<path fillRule="evenodd" clipRule="evenodd" d="M214.83 29.9241C214.283 29.6647 213.648 29.6647 213.101 29.9241C212.723 30.1037 212.454 30.4436 212.216 30.8278C211.977 31.214 211.714 31.7391 211.387 32.3929L211.374 32.4185L211.111 32.9455C210.887 33.3938 210.822 33.5113 210.74 33.597C210.655 33.6853 210.554 33.7559 210.442 33.8046C210.333 33.8518 210.201 33.8723 209.702 33.9277L209.463 33.9542L209.435 33.9574L209.434 33.9574C208.649 34.0447 208.022 34.1144 207.547 34.211C207.078 34.3063 206.642 34.4473 206.336 34.7591C205.899 35.2052 205.693 35.8287 205.779 36.4475C205.839 36.8799 206.106 37.2531 206.425 37.6086C206.749 37.969 207.212 38.3985 207.791 38.9362L207.791 38.9362L207.812 38.9559L208.065 39.1903C208.503 39.5976 208.616 39.7129 208.679 39.8355C208.744 39.9622 208.778 40.1023 208.78 40.2447C208.781 40.3824 208.735 40.5396 208.534 41.1121L208.524 41.1392C208.228 41.984 207.993 42.6531 207.86 43.1736C207.73 43.6793 207.658 44.1758 207.827 44.6058C208.064 45.2108 208.579 45.6643 209.209 45.8238C209.655 45.9368 210.135 45.8052 210.616 45.6154C211.109 45.4207 211.735 45.108 212.523 44.7139L212.523 44.7139L212.549 44.7009L213.162 44.3944C213.575 44.1878 213.688 44.1369 213.796 44.1166C213.908 44.0956 214.023 44.0956 214.134 44.1166C214.243 44.1369 214.356 44.1878 214.769 44.3944L215.382 44.7009L215.408 44.7139L215.408 44.7139C216.196 45.1081 216.821 45.4207 217.315 45.6154C217.796 45.8052 218.275 45.9368 218.722 45.8238C219.352 45.6643 219.867 45.2108 220.104 44.6058C220.273 44.1758 220.2 43.6793 220.071 43.1736C219.938 42.6531 219.703 41.984 219.406 41.1392L219.406 41.1392L219.397 41.1121C219.196 40.5396 219.149 40.3824 219.151 40.2447C219.152 40.1023 219.187 39.9622 219.252 39.8355C219.315 39.7129 219.427 39.5976 219.866 39.1903L220.119 38.9559L220.14 38.9362L220.14 38.9361C220.719 38.3985 221.181 37.969 221.505 37.6086C221.825 37.2531 222.092 36.8799 222.152 36.4475C222.238 35.8287 222.032 35.2052 221.594 34.7591C221.289 34.4473 220.852 34.3063 220.384 34.211C219.909 34.1144 219.282 34.0447 218.496 33.9574L218.496 33.9574L218.467 33.9542L218.228 33.9277C217.73 33.8723 217.597 33.8518 217.489 33.8046C217.377 33.7559 217.275 33.6853 217.191 33.597C217.109 33.5113 217.044 33.3938 216.82 32.9455L216.556 32.4185L216.543 32.3929C216.216 31.7391 215.954 31.214 215.715 30.8278C215.477 30.4436 215.208 30.1037 214.83 29.9241Z" fill="#FEF360"/>
<defs>
<linearGradient id="paint0_linear_423_5859" x1="0" y1="37.5" x2="244" y2="37.5" gradientUnits="userSpaceOnUse">
<stop stop-color="#F2F2F2"/>
<stop offset="1" stop-color="#F2F2F2" stop-opacity="0"/>
</linearGradient>
</defs>
</svg>
