<svg width="112" height="19" viewBox="0 0 112 19" fill="none" xmlns="http://www.w3.org/2000/svg">
<path fillRule="evenodd" clipRule="evenodd" d="M9.9643 1.42416C9.41737 1.16477 8.78284 1.16476 8.23591 1.42416C7.85729 1.60374 7.58874 1.94365 7.35076 2.32782C7.11148 2.7141 6.84896 3.23915 6.52204 3.89299L6.50924 3.91859L6.24577 4.44554C6.0216 4.89388 5.95641 5.01137 5.87457 5.09703C5.79015 5.18539 5.68892 5.25597 5.57683 5.30464C5.46816 5.35182 5.33538 5.37237 4.83719 5.42773L4.598 5.4543L4.56932 5.45749L4.56925 5.4575C3.78391 5.54475 3.15656 5.61445 2.68159 5.71106C2.21315 5.80634 1.77659 5.94739 1.47099 6.25917C1.03375 6.70526 0.827914 7.32879 0.913625 7.94752C0.97353 8.37997 1.24032 8.7532 1.55996 9.10865C1.88406 9.46905 2.34662 9.89857 2.92565 10.4362L2.92566 10.4362L2.94685 10.4559L3.19936 10.6904C3.63799 11.0977 3.75046 11.2129 3.81346 11.3356C3.87852 11.4623 3.91317 11.6024 3.91467 11.7447C3.91611 11.8825 3.8694 12.0397 3.66853 12.6122L3.65903 12.6392C3.36259 13.4841 3.12782 14.1532 2.99453 14.6737C2.86504 15.1794 2.79249 15.6759 2.9613 16.1058C3.19884 16.7109 3.71346 17.1644 4.3436 17.3239C4.79014 17.4369 5.26935 17.3052 5.75036 17.1155C6.24414 16.9207 6.86939 16.6081 7.65771 16.2139L7.65772 16.2139L7.68359 16.201L8.29661 15.8945C8.70993 15.6878 8.82273 15.637 8.93107 15.6167C9.04279 15.5957 9.15742 15.5957 9.26914 15.6167C9.37748 15.637 9.49028 15.6878 9.9036 15.8945L10.5166 16.201L10.5425 16.2139L10.5425 16.214C11.3308 16.6081 11.9561 16.9207 12.4498 17.1155C12.9308 17.3052 13.4101 17.4369 13.8566 17.3239C14.4867 17.1644 15.0014 16.7109 15.2389 16.1058C15.4077 15.6759 15.3352 15.1793 15.2057 14.6737C15.0724 14.1532 14.8376 13.4841 14.5412 12.6393L14.5412 12.6393L14.5317 12.6122C14.3308 12.0397 14.2841 11.8825 14.2855 11.7447C14.287 11.6024 14.3217 11.4623 14.3867 11.3356C14.4497 11.2129 14.5622 11.0977 15.0008 10.6904L15.2534 10.4559L15.2745 10.4363L15.2746 10.4362C15.8536 9.89855 16.3161 9.46905 16.6402 9.10865C16.9599 8.7532 17.2267 8.37997 17.2866 7.94752C17.3723 7.32879 17.1664 6.70526 16.7292 6.25917C16.4236 5.94739 15.987 5.80634 15.5186 5.71106C15.0436 5.61445 14.4163 5.54475 13.6309 5.45749L13.6309 5.45749L13.6022 5.4543L13.363 5.42773C12.8648 5.37237 12.732 5.35182 12.6234 5.30464C12.5113 5.25597 12.41 5.18539 12.3256 5.09703C12.2438 5.01137 12.1786 4.89388 11.9544 4.44554L11.691 3.91859L11.6782 3.89298C11.3512 3.23914 11.0887 2.7141 10.8494 2.32783C10.6115 1.94365 10.3429 1.60374 9.9643 1.42416Z" fill="#FEF360"/>
<path fillRule="evenodd" clipRule="evenodd" d="M33.4291 1.42416C32.8822 1.16477 32.2477 1.16476 31.7008 1.42416C31.3221 1.60374 31.0536 1.94365 30.8156 2.32782C30.5763 2.7141 30.3138 3.23915 29.9869 3.89299L29.9741 3.91859L29.7106 4.44554C29.4864 4.89388 29.4212 5.01137 29.3394 5.09703C29.255 5.18539 29.1538 5.25597 29.0417 5.30464C28.933 5.35182 28.8002 5.37237 28.302 5.42773L28.0628 5.4543L28.0342 5.45749L28.0341 5.4575C27.2488 5.54475 26.6214 5.61445 26.1464 5.71106C25.678 5.80634 25.2414 5.94739 24.9358 6.25917C24.4986 6.70526 24.2928 7.32879 24.3785 7.94752C24.4384 8.37997 24.7052 8.7532 25.0248 9.10865C25.3489 9.46905 25.8115 9.89857 26.3905 10.4362L26.3905 10.4362L26.4117 10.4559L26.6642 10.6904C27.1028 11.0977 27.2153 11.2129 27.2783 11.3356C27.3434 11.4623 27.378 11.6024 27.3795 11.7447C27.381 11.8825 27.3342 12.0397 27.1334 12.6122L27.1239 12.6392C26.8274 13.4841 26.5927 14.1532 26.4594 14.6737C26.3299 15.1794 26.2573 15.6759 26.4261 16.1058C26.6637 16.7109 27.1783 17.1644 27.8084 17.3239C28.255 17.4369 28.7342 17.3052 29.2152 17.1155C29.709 16.9207 30.3342 16.6081 31.1226 16.2139L31.1226 16.2139L31.1484 16.201L31.7615 15.8945C32.1748 15.6878 32.2876 15.637 32.3959 15.6167C32.5076 15.5957 32.6223 15.5957 32.734 15.6167C32.8423 15.637 32.9551 15.6878 33.3684 15.8945L33.9814 16.201L34.0073 16.2139L34.0074 16.214C34.7957 16.6081 35.4209 16.9207 35.9147 17.1155C36.3957 17.3052 36.8749 17.4369 37.3214 17.3239C37.9516 17.1644 38.4662 16.7109 38.7037 16.1058C38.8725 15.6759 38.8 15.1793 38.6705 14.6737C38.5372 14.1532 38.3025 13.4841 38.006 12.6393L38.006 12.6393L37.9965 12.6122C37.7956 12.0397 37.7489 11.8825 37.7504 11.7447C37.7519 11.6024 37.7865 11.4623 37.8516 11.3356C37.9146 11.2129 38.027 11.0977 38.4657 10.6904L38.7182 10.4559L38.7394 10.4363L38.7394 10.4362C39.3184 9.89855 39.781 9.46905 40.1051 9.10865C40.4247 8.7532 40.6915 8.37997 40.7514 7.94752C40.8371 7.32879 40.6313 6.70526 40.1941 6.25917C39.8885 5.94739 39.4519 5.80634 38.9834 5.71106C38.5085 5.61445 37.8811 5.54475 37.0958 5.45749L37.0957 5.45749L37.067 5.4543L36.8279 5.42773C36.3297 5.37237 36.1969 5.35182 36.0882 5.30464C35.9761 5.25597 35.8749 5.18539 35.7905 5.09703C35.7086 5.01137 35.6434 4.89388 35.4193 4.44554L35.1558 3.91859L35.143 3.89298C34.8161 3.23914 34.5536 2.7141 34.3143 2.32783C34.0763 1.94365 33.8078 1.60374 33.4291 1.42416Z" fill="#FEF360"/>
<path fillRule="evenodd" clipRule="evenodd" d="M56.8979 1.42416C56.351 1.16477 55.7164 1.16476 55.1695 1.42416C54.7909 1.60374 54.5223 1.94365 54.2843 2.32782C54.0451 2.7141 53.7826 3.23915 53.4556 3.89299L53.4428 3.91859L53.1794 4.44554C52.9552 4.89388 52.89 5.01137 52.8082 5.09703C52.7237 5.18539 52.6225 5.25597 52.5104 5.30464C52.4018 5.35182 52.269 5.37237 51.7708 5.42773L51.5316 5.4543L51.5029 5.45749L51.5028 5.4575C50.7175 5.54475 50.0902 5.61445 49.6152 5.71106C49.1467 5.80634 48.7102 5.94739 48.4046 6.25917C47.9673 6.70526 47.7615 7.32879 47.8472 7.94752C47.9071 8.37997 48.1739 8.7532 48.4936 9.10865C48.8177 9.46905 49.2802 9.89857 49.8592 10.4362L49.8593 10.4362L49.8804 10.4559L50.133 10.6904C50.5716 11.0977 50.684 11.2129 50.7471 11.3356C50.8121 11.4623 50.8468 11.6024 50.8483 11.7447C50.8497 11.8825 50.803 12.0397 50.6021 12.6122L50.5926 12.6392C50.2962 13.4841 50.0614 14.1532 49.9281 14.6737C49.7986 15.1794 49.7261 15.6759 49.8949 16.1058C50.1324 16.7109 50.6471 17.1644 51.2772 17.3239C51.7237 17.4369 52.2029 17.3052 52.6839 17.1155C53.1777 16.9207 53.803 16.6081 54.5913 16.2139L54.5913 16.2139L54.6172 16.201L55.2302 15.8945C55.6435 15.6878 55.7563 15.637 55.8647 15.6167C55.9764 15.5957 56.091 15.5957 56.2027 15.6167C56.3111 15.637 56.4239 15.6878 56.8372 15.8945L57.4502 16.201L57.4761 16.2139L57.4761 16.214C58.2644 16.6081 58.8897 16.9207 59.3834 17.1155C59.8644 17.3052 60.3437 17.4369 60.7902 17.3239C61.4203 17.1644 61.9349 16.7109 62.1725 16.1058C62.3413 15.6759 62.2687 15.1793 62.1393 14.6737C62.006 14.1532 61.7712 13.4841 61.4748 12.6393L61.4748 12.6393L61.4653 12.6122C61.2644 12.0397 61.2177 11.8825 61.2191 11.7447C61.2206 11.6024 61.2553 11.4623 61.3203 11.3356C61.3833 11.2129 61.4958 11.0977 61.9344 10.6904L62.1869 10.4559L62.2081 10.4363L62.2082 10.4362C62.7872 9.89855 63.2497 9.46905 63.5738 9.10865C63.8935 8.7532 64.1603 8.37997 64.2202 7.94752C64.3059 7.32879 64.1 6.70526 63.6628 6.25917C63.3572 5.94739 62.9206 5.80634 62.4522 5.71106C61.9772 5.61445 61.3499 5.54475 60.5645 5.45749L60.5645 5.45749L60.5358 5.4543L60.2966 5.42773C59.7984 5.37237 59.6656 5.35182 59.557 5.30464C59.4449 5.25597 59.3436 5.18539 59.2592 5.09703C59.1774 5.01137 59.1122 4.89388 58.888 4.44554L58.6246 3.91859L58.6117 3.89298C58.2848 3.23914 58.0223 2.7141 57.783 2.32783C57.5451 1.94365 57.2765 1.60374 56.8979 1.42416Z" fill="#FEF360"/>
<path fillRule="evenodd" clipRule="evenodd" d="M80.3627 1.42416C79.8158 1.16477 79.1813 1.16476 78.6343 1.42416C78.2557 1.60374 77.9872 1.94365 77.7492 2.32782C77.5099 2.7141 77.2474 3.23915 76.9205 3.89299L76.9077 3.91859L76.6442 4.44554C76.42 4.89388 76.3548 5.01137 76.273 5.09703C76.1886 5.18539 76.0874 5.25597 75.9753 5.30464C75.8666 5.35182 75.7338 5.37237 75.2356 5.42773L74.9964 5.4543L74.9678 5.45749L74.9677 5.4575C74.1824 5.54475 73.555 5.61445 73.08 5.71106C72.6116 5.80634 72.175 5.94739 71.8694 6.25917C71.4322 6.70526 71.2264 7.32879 71.3121 7.94752C71.372 8.37997 71.6388 8.7532 71.9584 9.10865C72.2825 9.46905 72.7451 9.89857 73.3241 10.4362L73.3241 10.4362L73.3453 10.4559L73.5978 10.6904C74.0364 11.0977 74.1489 11.2129 74.2119 11.3356C74.277 11.4623 74.3116 11.6024 74.3131 11.7447C74.3146 11.8825 74.2678 12.0397 74.067 12.6122L74.0575 12.6392C73.761 13.4841 73.5263 14.1532 73.393 14.6737C73.2635 15.1794 73.1909 15.6759 73.3597 16.1058C73.5973 16.7109 74.1119 17.1644 74.742 17.3239C75.1886 17.4369 75.6678 17.3052 76.1488 17.1155C76.6426 16.9207 77.2678 16.6081 78.0561 16.2139L78.0562 16.2139L78.082 16.201L78.695 15.8945C79.1084 15.6878 79.2212 15.637 79.3295 15.6167C79.4412 15.5957 79.5559 15.5957 79.6676 15.6167C79.7759 15.637 79.8887 15.6878 80.302 15.8945L80.915 16.201L80.9409 16.2139L80.941 16.214C81.7293 16.6081 82.3545 16.9207 82.8483 17.1155C83.3293 17.3052 83.8085 17.4369 84.255 17.3239C84.8852 17.1644 85.3998 16.7109 85.6373 16.1058C85.8061 15.6759 85.7336 15.1793 85.6041 14.6737C85.4708 14.1532 85.236 13.4841 84.9396 12.6393L84.9396 12.6393L84.9301 12.6122C84.7292 12.0397 84.6825 11.8825 84.684 11.7447C84.6855 11.6024 84.7201 11.4623 84.7852 11.3356C84.8482 11.2129 84.9606 11.0977 85.3993 10.6904L85.6518 10.4559L85.6729 10.4363L85.673 10.4362C86.252 9.89855 86.7146 9.46905 87.0387 9.10865C87.3583 8.7532 87.6251 8.37997 87.685 7.94752C87.7707 7.32879 87.5649 6.70526 87.1276 6.25917C86.8221 5.94739 86.3855 5.80634 85.917 5.71106C85.4421 5.61445 84.8147 5.54475 84.0294 5.45749L84.0293 5.45749L84.0006 5.4543L83.7614 5.42773C83.2633 5.37237 83.1305 5.35182 83.0218 5.30464C82.9097 5.25597 82.8085 5.18539 82.7241 5.09703C82.6422 5.01137 82.577 4.89388 82.3529 4.44554L82.0894 3.91859L82.0766 3.89298C81.7497 3.23914 81.4872 2.7141 81.2479 2.32783C81.0099 1.94365 80.7414 1.60374 80.3627 1.42416Z" fill="#FEF360"/>
<path fillRule="evenodd" clipRule="evenodd" d="M103.831 1.42416C103.285 1.16477 102.65 1.16476 102.103 1.42416C101.724 1.60374 101.456 1.94365 101.218 2.32782C100.979 2.7141 100.716 3.23915 100.389 3.89299L100.376 3.91859L100.113 4.44554C99.8888 4.89388 99.8236 5.01137 99.7418 5.09703C99.6573 5.18539 99.5561 5.25597 99.444 5.30464C99.3354 5.35182 99.2026 5.37237 98.7044 5.42773L98.4652 5.4543L98.4365 5.45749L98.4364 5.4575C97.6511 5.54475 97.0237 5.61445 96.5488 5.71106C96.0803 5.80634 95.6438 5.94739 95.3382 6.25917C94.9009 6.70526 94.6951 7.32879 94.7808 7.94752C94.8407 8.37997 95.1075 8.7532 95.4271 9.10865C95.7512 9.46905 96.2138 9.89857 96.7928 10.4362L96.7928 10.4362L96.814 10.4559L97.0666 10.6904C97.5052 11.0977 97.6176 11.2129 97.6807 11.3356C97.7457 11.4623 97.7804 11.6024 97.7819 11.7447C97.7833 11.8825 97.7366 12.0397 97.5357 12.6122L97.5262 12.6392C97.2298 13.4841 96.995 14.1532 96.8617 14.6737C96.7322 15.1794 96.6597 15.6759 96.8285 16.1058C97.066 16.7109 97.5807 17.1644 98.2108 17.3239C98.6573 17.4369 99.1365 17.3052 99.6175 17.1155C100.111 16.9207 100.737 16.6081 101.525 16.2139L101.525 16.2139L101.551 16.201L102.164 15.8945C102.577 15.6878 102.69 15.637 102.798 15.6167C102.91 15.5957 103.025 15.5957 103.136 15.6167C103.245 15.637 103.357 15.6878 103.771 15.8945L104.384 16.201L104.41 16.2139L104.41 16.214C105.198 16.6081 105.823 16.9207 106.317 17.1155C106.798 17.3052 107.277 17.4369 107.724 17.3239C108.354 17.1644 108.869 16.7109 109.106 16.1058C109.275 15.6759 109.202 15.1793 109.073 14.6737C108.94 14.1532 108.705 13.4841 108.408 12.6393L108.408 12.6393L108.399 12.6122C108.198 12.0397 108.151 11.8825 108.153 11.7447C108.154 11.6024 108.189 11.4623 108.254 11.3356C108.317 11.2129 108.429 11.0977 108.868 10.6904L109.121 10.4559L109.142 10.4363L109.142 10.4362C109.721 9.89855 110.183 9.46905 110.507 9.10865C110.827 8.7532 111.094 8.37997 111.154 7.94752C111.239 7.32879 111.034 6.70526 110.596 6.25917C110.291 5.94739 109.854 5.80634 109.386 5.71106C108.911 5.61445 108.283 5.54475 107.498 5.45749L107.498 5.45749L107.469 5.4543L107.23 5.42773C106.732 5.37237 106.599 5.35182 106.491 5.30464C106.378 5.25597 106.277 5.18539 106.193 5.09703C106.111 5.01137 106.046 4.89388 105.822 4.44554L105.558 3.91859L105.545 3.89298C105.218 3.23914 104.956 2.7141 104.717 2.32783C104.479 1.94365 104.21 1.60374 103.831 1.42416Z" fill="#FEF360"/>
</svg>
