<svg width="320" height="175" viewBox="0 0 320 175" fill="none" xmlns="http://www.w3.org/2000/svg">
<g clip-path="url(#clip0_1463_29808)">
<g clip-path="url(#clip1_1463_29808)">
<g style="mix-blend-mode:soft-light" opacity="0.7">
<path d="M-66.9303 5.63086H-82.3672V21.0678M-66.9303 5.63086V21.0678M-66.9303 5.63086H-51.4934M-66.9303 21.0678H-82.3672M-66.9303 21.0678V36.5046M-66.9303 21.0678H-51.4934M-82.3672 21.0678V36.5046M-66.9303 36.5046H-82.3672M-66.9303 36.5046V51.9415M-66.9303 36.5046H-51.4934M-82.3672 36.5046V51.9415M-66.9303 51.9415H-82.3672M-66.9303 51.9415V67.3784M-66.9303 51.9415H-51.4934M-82.3672 51.9415V67.3784M-66.9303 67.3784H-82.3672M-66.9303 67.3784V82.8153M-66.9303 67.3784H-51.4934M-82.3672 67.3784V82.8153M-66.9303 82.8153H-82.3672M-66.9303 82.8153V98.2522M-66.9303 82.8153H-51.4934M-82.3672 82.8153V98.2522M-66.9303 98.2522H-82.3672M-66.9303 98.2522V113.689M-66.9303 98.2522H-51.4934M-82.3672 98.2522V113.689M-66.9303 113.689H-82.3672M-66.9303 113.689V129.126M-66.9303 113.689H-51.4934M-82.3672 113.689V129.126M-66.9303 129.126H-82.3672M-66.9303 129.126V144.563M-66.9303 129.126H-51.4934M-82.3672 129.126V144.563M-66.9303 144.563H-82.3672M-66.9303 144.563V160M-66.9303 144.563H-51.4934M-82.3672 144.563V160M-66.9303 160H-82.3672M-66.9303 160V175.437M-66.9303 160H-51.4934M-82.3672 160V175.437M-66.9303 175.437H-82.3672M-66.9303 175.437V190.874M-66.9303 175.437H-51.4934M-82.3672 175.437V190.874M-66.9303 190.874H-82.3672M-66.9303 190.874V206.31M-66.9303 190.874H-51.4934M-82.3672 190.874V206.31M-66.9303 206.31H-82.3672M-66.9303 206.31V221.747M-66.9303 206.31H-51.4934M-82.3672 206.31V221.747M-66.9303 221.747H-82.3672M-66.9303 221.747V237.184M-66.9303 221.747H-51.4934M-82.3672 221.747V237.184M-66.9303 237.184H-82.3672M-66.9303 237.184V252.621M-66.9303 237.184H-51.4934M-82.3672 237.184V252.621M-66.9303 252.621H-82.3672M-66.9303 252.621V268.058M-66.9303 252.621H-51.4934M-82.3672 252.621V268.058M-66.9303 268.058H-82.3672M-66.9303 268.058V283.495M-66.9303 268.058H-51.4934M-82.3672 268.058V283.495M-66.9303 283.495H-82.3672M-66.9303 283.495V298.932M-66.9303 283.495H-51.4934M-82.3672 283.495V298.932M-66.9303 298.932H-82.3672M-66.9303 298.932V314.369M-66.9303 298.932H-51.4934M-82.3672 298.932V314.369H-66.9303M-66.9303 314.369H-51.4934M-51.4934 5.63086V21.0678M-51.4934 5.63086H-36.0565M-51.4934 21.0678V36.5046M-51.4934 21.0678H-36.0565M-51.4934 36.5046V51.9415M-51.4934 36.5046H-36.0565M-51.4934 51.9415V67.3784M-51.4934 51.9415H-36.0565M-51.4934 67.3784V82.8153M-51.4934 67.3784H-36.0565M-51.4934 82.8153V98.2522M-51.4934 82.8153H-36.0565M-51.4934 98.2522V113.689M-51.4934 98.2522H-36.0565M-51.4934 113.689V129.126M-51.4934 113.689H-36.0565M-51.4934 129.126V144.563M-51.4934 129.126H-36.0565M-51.4934 144.563V160M-51.4934 144.563H-36.0565M-51.4934 160V175.437M-51.4934 160H-36.0565M-51.4934 175.437V190.874M-51.4934 175.437H-36.0565M-51.4934 190.874V206.31M-51.4934 190.874H-36.0565M-51.4934 206.31V221.747M-51.4934 206.31H-36.0565M-51.4934 221.747V237.184M-51.4934 221.747H-36.0565M-51.4934 237.184V252.621M-51.4934 237.184H-36.0565M-51.4934 252.621V268.058M-51.4934 252.621H-36.0565M-51.4934 268.058V283.495M-51.4934 268.058H-36.0565M-51.4934 283.495V298.932M-51.4934 283.495H-36.0565M-51.4934 298.932V314.369M-51.4934 298.932H-36.0565M-51.4934 314.369H-36.0565M-36.0565 5.63086V21.0678M-36.0565 5.63086H-20.6196M-36.0565 21.0678V36.5046M-36.0565 21.0678H-20.6196M-36.0565 36.5046V51.9415M-36.0565 36.5046H-20.6196M-36.0565 51.9415V67.3784M-36.0565 51.9415H-20.6196M-36.0565 67.3784V82.8153M-36.0565 67.3784H-20.6196M-36.0565 82.8153V98.2522M-36.0565 82.8153H-20.6196M-36.0565 98.2522V113.689M-36.0565 98.2522H-20.6196M-36.0565 113.689V129.126M-36.0565 113.689H-20.6196M-36.0565 129.126V144.563M-36.0565 129.126H-20.6196M-36.0565 144.563V160M-36.0565 144.563H-20.6196M-36.0565 160V175.437M-36.0565 160H-20.6196M-36.0565 175.437V190.874M-36.0565 175.437H-20.6196M-36.0565 190.874V206.31M-36.0565 190.874H-20.6196M-36.0565 206.31V221.747M-36.0565 206.31H-20.6196M-36.0565 221.747V237.184M-36.0565 221.747H-20.6196M-36.0565 237.184V252.621M-36.0565 237.184H-20.6196M-36.0565 252.621V268.058M-36.0565 252.621H-20.6196M-36.0565 268.058V283.495M-36.0565 268.058H-20.6196M-36.0565 283.495V298.932M-36.0565 283.495H-20.6196M-36.0565 298.932V314.369M-36.0565 298.932H-20.6196M-36.0565 314.369H-20.6196M-20.6196 5.63086V21.0678M-20.6196 5.63086H-5.18272M-20.6196 21.0678V36.5046M-20.6196 21.0678H-5.18272M-20.6196 36.5046V51.9415M-20.6196 36.5046H-5.18272M-20.6196 51.9415V67.3784M-20.6196 51.9415H-5.18272M-20.6196 67.3784V82.8153M-20.6196 67.3784H-5.18272M-20.6196 82.8153V98.2522M-20.6196 82.8153H-5.18272M-20.6196 98.2522V113.689M-20.6196 98.2522H-5.18272M-20.6196 113.689V129.126M-20.6196 113.689H-5.18272M-20.6196 129.126V144.563M-20.6196 129.126H-5.18272M-20.6196 144.563V160M-20.6196 144.563H-5.18272M-20.6196 160V175.437M-20.6196 160H-5.18272M-20.6196 175.437V190.874M-20.6196 175.437H-5.18272M-20.6196 190.874V206.31M-20.6196 190.874H-5.18272M-20.6196 206.31V221.747M-20.6196 206.31H-5.18272M-20.6196 221.747V237.184M-20.6196 221.747H-5.18272M-20.6196 237.184V252.621M-20.6196 237.184H-5.18272M-20.6196 252.621V268.058M-20.6196 252.621H-5.18272M-20.6196 268.058V283.495M-20.6196 268.058H-5.18272M-20.6196 283.495V298.932M-20.6196 283.495H-5.18272M-20.6196 298.932V314.369M-20.6196 298.932H-5.18272M-20.6196 314.369H-5.18272M-5.18272 5.63086V21.0678M-5.18272 5.63086H10.2542M-5.18272 21.0678V36.5046M-5.18272 21.0678H10.2542M-5.18272 36.5046V51.9415M-5.18272 36.5046H10.2542M-5.18272 51.9415V67.3784M-5.18272 51.9415H10.2542M-5.18272 67.3784V82.8153M-5.18272 67.3784H10.2542M-5.18272 82.8153V98.2522M-5.18272 82.8153H10.2542M-5.18272 98.2522V113.689M-5.18272 98.2522H10.2542M-5.18272 113.689V129.126M-5.18272 113.689H10.2542M-5.18272 129.126V144.563M-5.18272 129.126H10.2542M-5.18272 144.563V160M-5.18272 144.563H10.2542M-5.18272 160V175.437M-5.18272 160H10.2542M-5.18272 175.437V190.874M-5.18272 175.437H10.2542M-5.18272 190.874V206.31M-5.18272 190.874H10.2542M-5.18272 206.31V221.747M-5.18272 206.31H10.2542M-5.18272 221.747V237.184M-5.18272 221.747H10.2542M-5.18272 237.184V252.621M-5.18272 237.184H10.2542M-5.18272 252.621V268.058M-5.18272 252.621H10.2542M-5.18272 268.058V283.495M-5.18272 268.058H10.2542M-5.18272 283.495V298.932M-5.18272 283.495H10.2542M-5.18272 298.932V314.369M-5.18272 298.932H10.2542M-5.18272 314.369H10.2542M10.2542 5.63086V21.0678M10.2542 5.63086H25.6911M10.2542 21.0678V36.5046M10.2542 21.0678H25.6911M10.2542 36.5046V51.9415M10.2542 36.5046H25.6911M10.2542 51.9415V67.3784M10.2542 51.9415H25.6911M10.2542 67.3784V82.8153M10.2542 67.3784H25.6911M10.2542 82.8153V98.2522M10.2542 82.8153H25.6911M10.2542 98.2522V113.689M10.2542 98.2522H25.6911M10.2542 113.689V129.126M10.2542 113.689H25.6911M10.2542 129.126V144.563M10.2542 129.126H25.6911M10.2542 144.563V160M10.2542 144.563H25.6911M10.2542 160V175.437M10.2542 160H25.6911M10.2542 175.437V190.874M10.2542 175.437H25.6911M10.2542 190.874V206.31M10.2542 190.874H25.6911M10.2542 206.31V221.747M10.2542 206.31H25.6911M10.2542 221.747V237.184M10.2542 221.747H25.6911M10.2542 237.184V252.621M10.2542 237.184H25.6911M10.2542 252.621V268.058M10.2542 252.621H25.6911M10.2542 268.058V283.495M10.2542 268.058H25.6911M10.2542 283.495V298.932M10.2542 283.495H25.6911M10.2542 298.932V314.369M10.2542 298.932H25.6911M10.2542 314.369H25.6911M25.6911 5.63086V21.0678M25.6911 5.63086H41.128M25.6911 21.0678V36.5046M25.6911 21.0678H41.128M25.6911 36.5046V51.9415M25.6911 36.5046H41.128M25.6911 51.9415V67.3784M25.6911 51.9415H41.128M25.6911 67.3784V82.8153M25.6911 67.3784H41.128M25.6911 82.8153V98.2522M25.6911 82.8153H41.128M25.6911 98.2522V113.689M25.6911 98.2522H41.128M25.6911 113.689V129.126M25.6911 113.689H41.128M25.6911 129.126V144.563M25.6911 129.126H41.128M25.6911 144.563V160M25.6911 144.563H41.128M25.6911 160V175.437M25.6911 160H41.128M25.6911 175.437V190.874M25.6911 175.437H41.128M25.6911 190.874V206.31M25.6911 190.874H41.128M25.6911 206.31V221.747M25.6911 206.31H41.128M25.6911 221.747V237.184M25.6911 221.747H41.128M25.6911 237.184V252.621M25.6911 237.184H41.128M25.6911 252.621V268.058M25.6911 252.621H41.128M25.6911 268.058V283.495M25.6911 268.058H41.128M25.6911 283.495V298.932M25.6911 283.495H41.128M25.6911 298.932V314.369M25.6911 298.932H41.128M25.6911 314.369H41.128M41.128 5.63086V21.0678M41.128 5.63086H56.5648M41.128 21.0678V36.5046M41.128 21.0678H56.5648M41.128 36.5046V51.9415M41.128 36.5046H56.5648M41.128 51.9415V67.3784M41.128 51.9415H56.5648M41.128 67.3784V82.8153M41.128 67.3784H56.5648M41.128 82.8153V98.2522M41.128 82.8153H56.5648M41.128 98.2522V113.689M41.128 98.2522H56.5648M41.128 113.689V129.126M41.128 113.689H56.5648M41.128 129.126V144.563M41.128 129.126H56.5648M41.128 144.563V160M41.128 144.563H56.5648M41.128 160V175.437M41.128 160H56.5648M41.128 175.437V190.874M41.128 175.437H56.5648M41.128 190.874V206.31M41.128 190.874H56.5648M41.128 206.31V221.747M41.128 206.31H56.5648M41.128 221.747V237.184M41.128 221.747H56.5648M41.128 237.184V252.621M41.128 237.184H56.5648M41.128 252.621V268.058M41.128 252.621H56.5648M41.128 268.058V283.495M41.128 268.058H56.5648M41.128 283.495V298.932M41.128 283.495H56.5648M41.128 298.932V314.369M41.128 298.932H56.5648M41.128 314.369H56.5648M56.5648 5.63086V21.0678M56.5648 5.63086H72.0017M56.5648 21.0678V36.5046M56.5648 21.0678H72.0017M56.5648 36.5046V51.9415M56.5648 36.5046H72.0017M56.5648 51.9415V67.3784M56.5648 51.9415H72.0017M56.5648 67.3784V82.8153M56.5648 67.3784H72.0017M56.5648 82.8153V98.2522M56.5648 82.8153H72.0017M56.5648 98.2522V113.689M56.5648 98.2522H72.0017M56.5648 113.689V129.126M56.5648 113.689H72.0017M56.5648 129.126V144.563M56.5648 129.126H72.0017M56.5648 144.563V160M56.5648 144.563H72.0017M56.5648 160V175.437M56.5648 160H72.0017M56.5648 175.437V190.874M56.5648 175.437H72.0017M56.5648 190.874V206.31M56.5648 190.874H72.0017M56.5648 206.31V221.747M56.5648 206.31H72.0017M56.5648 221.747V237.184M56.5648 221.747H72.0017M56.5648 237.184V252.621M56.5648 237.184H72.0017M56.5648 252.621V268.058M56.5648 252.621H72.0017M56.5648 268.058V283.495M56.5648 268.058H72.0017M56.5648 283.495V298.932M56.5648 283.495H72.0017M56.5648 298.932V314.369M56.5648 298.932H72.0017M56.5648 314.369H72.0017M72.0017 5.63086V21.0678M72.0017 5.63086H87.4386M72.0017 21.0678V36.5046M72.0017 21.0678H87.4386M72.0017 36.5046V51.9415M72.0017 36.5046H87.4386M72.0017 51.9415V67.3784M72.0017 51.9415H87.4386M72.0017 67.3784V82.8153M72.0017 67.3784H87.4386M72.0017 82.8153V98.2522M72.0017 82.8153H87.4386M72.0017 98.2522V113.689M72.0017 98.2522H87.4386M72.0017 113.689V129.126M72.0017 113.689H87.4386M72.0017 129.126V144.563M72.0017 129.126H87.4386M72.0017 144.563V160M72.0017 144.563H87.4386M72.0017 160V175.437M72.0017 160H87.4386M72.0017 175.437V190.874M72.0017 175.437H87.4386M72.0017 190.874V206.31M72.0017 190.874H87.4386M72.0017 206.31V221.747M72.0017 206.31H87.4386M72.0017 221.747V237.184M72.0017 221.747H87.4386M72.0017 237.184V252.621M72.0017 237.184H87.4386M72.0017 252.621V268.058M72.0017 252.621H87.4386M72.0017 268.058V283.495M72.0017 268.058H87.4386M72.0017 283.495V298.932M72.0017 283.495H87.4386M72.0017 298.932V314.369M72.0017 298.932H87.4386M72.0017 314.369H87.4386M87.4386 5.63086V21.0678M87.4386 5.63086H102.876M87.4386 21.0678V36.5046M87.4386 21.0678H102.876M87.4386 36.5046V51.9415M87.4386 36.5046H102.876M87.4386 51.9415V67.3784M87.4386 51.9415H102.876M87.4386 67.3784V82.8153M87.4386 67.3784H102.876M87.4386 82.8153V98.2522M87.4386 82.8153H102.876M87.4386 98.2522V113.689M87.4386 98.2522H102.876M87.4386 113.689V129.126M87.4386 113.689H102.876M87.4386 129.126V144.563M87.4386 129.126H102.876M87.4386 144.563V160M87.4386 144.563H102.876M87.4386 160V175.437M87.4386 160H102.876M87.4386 175.437V190.874M87.4386 175.437H102.876M87.4386 190.874V206.31M87.4386 190.874H102.876M87.4386 206.31V221.747M87.4386 206.31H102.876M87.4386 221.747V237.184M87.4386 221.747H102.876M87.4386 237.184V252.621M87.4386 237.184H102.876M87.4386 252.621V268.058M87.4386 252.621H102.876M87.4386 268.058V283.495M87.4386 268.058H102.876M87.4386 283.495V298.932M87.4386 283.495H102.876M87.4386 298.932V314.369M87.4386 298.932H102.876M87.4386 314.369H102.876M102.876 5.63086V21.0678M102.876 5.63086H118.312M102.876 21.0678V36.5046M102.876 21.0678H118.312M102.876 36.5046V51.9415M102.876 36.5046H118.312M102.876 51.9415V67.3784M102.876 51.9415H118.312M102.876 67.3784V82.8153M102.876 67.3784H118.312M102.876 82.8153V98.2522M102.876 82.8153H118.312M102.876 98.2522V113.689M102.876 98.2522H118.312M102.876 113.689V129.126M102.876 113.689H118.312M102.876 129.126V144.563M102.876 129.126H118.312M102.876 144.563V160M102.876 144.563H118.312M102.876 160V175.437M102.876 160H118.312M102.876 175.437V190.874M102.876 175.437H118.312M102.876 190.874V206.31M102.876 190.874H118.312M102.876 206.31V221.747M102.876 206.31H118.312M102.876 221.747V237.184M102.876 221.747H118.312M102.876 237.184V252.621M102.876 237.184H118.312M102.876 252.621V268.058M102.876 252.621H118.312M102.876 268.058V283.495M102.876 268.058H118.312M102.876 283.495V298.932M102.876 283.495H118.312M102.876 298.932V314.369M102.876 298.932H118.312M102.876 314.369H118.312M118.312 5.63086V21.0678M118.312 5.63086H133.749M118.312 21.0678V36.5046M118.312 21.0678H133.749M118.312 36.5046V51.9415M118.312 36.5046H133.749M118.312 51.9415V67.3784M118.312 51.9415H133.749M118.312 67.3784V82.8153M118.312 67.3784H133.749M118.312 82.8153V98.2522M118.312 82.8153H133.749M118.312 98.2522V113.689M118.312 98.2522H133.749M118.312 113.689V129.126M118.312 113.689H133.749M118.312 129.126V144.563M118.312 129.126H133.749M118.312 144.563V160M118.312 144.563H133.749M118.312 160V175.437M118.312 160H133.749M118.312 175.437V190.874M118.312 175.437H133.749M118.312 190.874V206.31M118.312 190.874H133.749M118.312 206.31V221.747M118.312 206.31H133.749M118.312 221.747V237.184M118.312 221.747H133.749M118.312 237.184V252.621M118.312 237.184H133.749M118.312 252.621V268.058M118.312 252.621H133.749M118.312 268.058V283.495M118.312 268.058H133.749M118.312 283.495V298.932M118.312 283.495H133.749M118.312 298.932V314.369M118.312 298.932H133.749M118.312 314.369H133.749M133.749 5.63086V21.0678M133.749 5.63086H149.186M133.749 21.0678V36.5046M133.749 21.0678H149.186M133.749 36.5046V51.9415M133.749 36.5046H149.186M133.749 51.9415V67.3784M133.749 51.9415H149.186M133.749 67.3784V82.8153M133.749 67.3784H149.186M133.749 82.8153V98.2522M133.749 82.8153H149.186M133.749 98.2522V113.689M133.749 98.2522H149.186M133.749 113.689V129.126M133.749 113.689H149.186M133.749 129.126V144.563M133.749 129.126H149.186M133.749 144.563V160M133.749 144.563H149.186M133.749 160V175.437M133.749 160H149.186M133.749 175.437V190.874M133.749 175.437H149.186M133.749 190.874V206.31M133.749 190.874H149.186M133.749 206.31V221.747M133.749 206.31H149.186M133.749 221.747V237.184M133.749 221.747H149.186M133.749 237.184V252.621M133.749 237.184H149.186M133.749 252.621V268.058M133.749 252.621H149.186M133.749 268.058V283.495M133.749 268.058H149.186M133.749 283.495V298.932M133.749 283.495H149.186M133.749 298.932V314.369M133.749 298.932H149.186M133.749 314.369H149.186M149.186 5.63086V21.0678M149.186 5.63086H164.623M149.186 21.0678V36.5046M149.186 21.0678H164.623M149.186 36.5046V51.9415M149.186 36.5046H164.623M149.186 51.9415V67.3784M149.186 51.9415H164.623M149.186 67.3784V82.8153M149.186 67.3784H164.623M149.186 82.8153V98.2522M149.186 82.8153H164.623M149.186 98.2522V113.689M149.186 98.2522H164.623M149.186 113.689V129.126M149.186 113.689H164.623M149.186 129.126V144.563M149.186 129.126H164.623M149.186 144.563V160M149.186 144.563H164.623M149.186 160V175.437M149.186 160H164.623M149.186 175.437V190.874M149.186 175.437H164.623M149.186 190.874V206.31M149.186 190.874H164.623M149.186 206.31V221.747M149.186 206.31H164.623M149.186 221.747V237.184M149.186 221.747H164.623M149.186 237.184V252.621M149.186 237.184H164.623M149.186 252.621V268.058M149.186 252.621H164.623M149.186 268.058V283.495M149.186 268.058H164.623M149.186 283.495V298.932M149.186 283.495H164.623M149.186 298.932V314.369M149.186 298.932H164.623M149.186 314.369H164.623M164.623 5.63086V21.0678M164.623 5.63086H180.06M164.623 21.0678V36.5046M164.623 21.0678H180.06M164.623 36.5046V51.9415M164.623 36.5046H180.06M164.623 51.9415V67.3784M164.623 51.9415H180.06M164.623 67.3784V82.8153M164.623 67.3784H180.06M164.623 82.8153V98.2522M164.623 82.8153H180.06M164.623 98.2522V113.689M164.623 98.2522H180.06M164.623 113.689V129.126M164.623 113.689H180.06M164.623 129.126V144.563M164.623 129.126H180.06M164.623 144.563V160M164.623 144.563H180.06M164.623 160V175.437M164.623 160H180.06M164.623 175.437V190.874M164.623 175.437H180.06M164.623 190.874V206.31M164.623 190.874H180.06M164.623 206.31V221.747M164.623 206.31H180.06M164.623 221.747V237.184M164.623 221.747H180.06M164.623 237.184V252.621M164.623 237.184H180.06M164.623 252.621V268.058M164.623 252.621H180.06M164.623 268.058V283.495M164.623 268.058H180.06M164.623 283.495V298.932M164.623 283.495H180.06M164.623 298.932V314.369M164.623 298.932H180.06M164.623 314.369H180.06M180.06 5.63086V21.0678M180.06 5.63086H195.497M180.06 21.0678V36.5046M180.06 21.0678H195.497M180.06 36.5046V51.9415M180.06 36.5046H195.497M180.06 51.9415V67.3784M180.06 51.9415H195.497M180.06 67.3784V82.8153M180.06 67.3784H195.497M180.06 82.8153V98.2522M180.06 82.8153H195.497M180.06 98.2522V113.689M180.06 98.2522H195.497M180.06 113.689V129.126M180.06 113.689H195.497M180.06 129.126V144.563M180.06 129.126H195.497M180.06 144.563V160M180.06 144.563H195.497M180.06 160V175.437M180.06 160H195.497M180.06 175.437V190.874M180.06 175.437H195.497M180.06 190.874V206.31M180.06 190.874H195.497M180.06 206.31V221.747M180.06 206.31H195.497M180.06 221.747V237.184M180.06 221.747H195.497M180.06 237.184V252.621M180.06 237.184H195.497M180.06 252.621V268.058M180.06 252.621H195.497M180.06 268.058V283.495M180.06 268.058H195.497M180.06 283.495V298.932M180.06 283.495H195.497M180.06 298.932V314.369M180.06 298.932H195.497M180.06 314.369H195.497M195.497 5.63086V21.0678M195.497 5.63086H210.934M195.497 21.0678V36.5046M195.497 21.0678H210.934M195.497 36.5046V51.9415M195.497 36.5046H210.934M195.497 51.9415V67.3784M195.497 51.9415H210.934M195.497 67.3784V82.8153M195.497 67.3784H210.934M195.497 82.8153V98.2522M195.497 82.8153H210.934M195.497 98.2522V113.689M195.497 98.2522H210.934M195.497 113.689V129.126M195.497 113.689H210.934M195.497 129.126V144.563M195.497 129.126H210.934M195.497 144.563V160M195.497 144.563H210.934M195.497 160V175.437M195.497 160H210.934M195.497 175.437V190.874M195.497 175.437H210.934M195.497 190.874V206.31M195.497 190.874H210.934M195.497 206.31V221.747M195.497 206.31H210.934M195.497 221.747V237.184M195.497 221.747H210.934M195.497 237.184V252.621M195.497 237.184H210.934M195.497 252.621V268.058M195.497 252.621H210.934M195.497 268.058V283.495M195.497 268.058H210.934M195.497 283.495V298.932M195.497 283.495H210.934M195.497 298.932V314.369M195.497 298.932H210.934M195.497 314.369H210.934M210.934 5.63086V21.0678M210.934 5.63086H226.371M210.934 21.0678V36.5046M210.934 21.0678H226.371M210.934 36.5046V51.9415M210.934 36.5046H226.371M210.934 51.9415V67.3784M210.934 51.9415H226.371M210.934 67.3784V82.8153M210.934 67.3784H226.371M210.934 82.8153V98.2522M210.934 82.8153H226.371M210.934 98.2522V113.689M210.934 98.2522H226.371M210.934 113.689V129.126M210.934 113.689H226.371M210.934 129.126V144.563M210.934 129.126H226.371M210.934 144.563V160M210.934 144.563H226.371M210.934 160V175.437M210.934 160H226.371M210.934 175.437V190.874M210.934 175.437H226.371M210.934 190.874V206.31M210.934 190.874H226.371M210.934 206.31V221.747M210.934 206.31H226.371M210.934 221.747V237.184M210.934 221.747H226.371M210.934 237.184V252.621M210.934 237.184H226.371M210.934 252.621V268.058M210.934 252.621H226.371M210.934 268.058V283.495M210.934 268.058H226.371M210.934 283.495V298.932M210.934 283.495H226.371M210.934 298.932V314.369M210.934 298.932H226.371M210.934 314.369H226.371M226.371 5.63086V21.0678M226.371 5.63086H241.808M226.371 21.0678V36.5046M226.371 21.0678H241.808M226.371 36.5046V51.9415M226.371 36.5046H241.808M226.371 51.9415V67.3784M226.371 51.9415H241.808M226.371 67.3784V82.8153M226.371 67.3784H241.808M226.371 82.8153V98.2522M226.371 82.8153H241.808M226.371 98.2522V113.689M226.371 98.2522H241.808M226.371 113.689V129.126M226.371 113.689H241.808M226.371 129.126V144.563M226.371 129.126H241.808M226.371 144.563V160M226.371 144.563H241.808M226.371 160V175.437M226.371 160H241.808M226.371 175.437V190.874M226.371 175.437H241.808M226.371 190.874V206.31M226.371 190.874H241.808M226.371 206.31V221.747M226.371 206.31H241.808M226.371 221.747V237.184M226.371 221.747H241.808M226.371 237.184V252.621M226.371 237.184H241.808M226.371 252.621V268.058M226.371 252.621H241.808M226.371 268.058V283.495M226.371 268.058H241.808M226.371 283.495V298.932M226.371 283.495H241.808M226.371 298.932V314.369M226.371 298.932H241.808M226.371 314.369H241.808M241.808 5.63086V21.0678M241.808 5.63086H257.244M241.808 21.0678V36.5046M241.808 21.0678H257.244M241.808 36.5046V51.9415M241.808 36.5046H257.244M241.808 51.9415V67.3784M241.808 51.9415H257.244M241.808 67.3784V82.8153M241.808 67.3784H257.244M241.808 82.8153V98.2522M241.808 82.8153H257.244M241.808 98.2522V113.689M241.808 98.2522H257.244M241.808 113.689V129.126M241.808 113.689H257.244M241.808 129.126V144.563M241.808 129.126H257.244M241.808 144.563V160M241.808 144.563H257.244M241.808 160V175.437M241.808 160H257.244M241.808 175.437V190.874M241.808 175.437H257.244M241.808 190.874V206.31M241.808 190.874H257.244M241.808 206.31V221.747M241.808 206.31H257.244M241.808 221.747V237.184M241.808 221.747H257.244M241.808 237.184V252.621M241.808 237.184H257.244M241.808 252.621V268.058M241.808 252.621H257.244M241.808 268.058V283.495M241.808 268.058H257.244M241.808 283.495V298.932M241.808 283.495H257.244M241.808 298.932V314.369M241.808 298.932H257.244M241.808 314.369H257.244M257.244 5.63086V21.0678M257.244 5.63086H272.681M257.244 21.0678V36.5046M257.244 21.0678H272.681M257.244 36.5046V51.9415M257.244 36.5046H272.681M257.244 51.9415V67.3784M257.244 51.9415H272.681M257.244 67.3784V82.8153M257.244 67.3784H272.681M257.244 82.8153V98.2522M257.244 82.8153H272.681M257.244 98.2522V113.689M257.244 98.2522H272.681M257.244 113.689V129.126M257.244 113.689H272.681M257.244 129.126V144.563M257.244 129.126H272.681M257.244 144.563V160M257.244 144.563H272.681M257.244 160V175.437M257.244 160H272.681M257.244 175.437V190.874M257.244 175.437H272.681M257.244 190.874V206.31M257.244 190.874H272.681M257.244 206.31V221.747M257.244 206.31H272.681M257.244 221.747V237.184M257.244 221.747H272.681M257.244 237.184V252.621M257.244 237.184H272.681M257.244 252.621V268.058M257.244 252.621H272.681M257.244 268.058V283.495M257.244 268.058H272.681M257.244 283.495V298.932M257.244 283.495H272.681M257.244 298.932V314.369M257.244 298.932H272.681M257.244 314.369H272.681M272.681 5.63086V21.0678M272.681 5.63086H288.118M272.681 21.0678V36.5046M272.681 21.0678H288.118M272.681 36.5046V51.9415M272.681 36.5046H288.118M272.681 51.9415V67.3784M272.681 51.9415H288.118M272.681 67.3784V82.8153M272.681 67.3784H288.118M272.681 82.8153V98.2522M272.681 82.8153H288.118M272.681 98.2522V113.689M272.681 98.2522H288.118M272.681 113.689V129.126M272.681 113.689H288.118M272.681 129.126V144.563M272.681 129.126H288.118M272.681 144.563V160M272.681 144.563H288.118M272.681 160V175.437M272.681 160H288.118M272.681 175.437V190.874M272.681 175.437H288.118M272.681 190.874V206.31M272.681 190.874H288.118M272.681 206.31V221.747M272.681 206.31H288.118M272.681 221.747V237.184M272.681 221.747H288.118M272.681 237.184V252.621M272.681 237.184H288.118M272.681 252.621V268.058M272.681 252.621H288.118M272.681 268.058V283.495M272.681 268.058H288.118M272.681 283.495V298.932M272.681 283.495H288.118M272.681 298.932V314.369M272.681 298.932H288.118M272.681 314.369H288.118M288.118 5.63086V21.0678M288.118 5.63086H303.555M288.118 21.0678V36.5046M288.118 21.0678H303.555M288.118 36.5046V51.9415M288.118 36.5046H303.555M288.118 51.9415V67.3784M288.118 51.9415H303.555M288.118 67.3784V82.8153M288.118 67.3784H303.555M288.118 82.8153V98.2522M288.118 82.8153H303.555M288.118 98.2522V113.689M288.118 98.2522H303.555M288.118 113.689V129.126M288.118 113.689H303.555M288.118 129.126V144.563M288.118 129.126H303.555M288.118 144.563V160M288.118 144.563H303.555M288.118 160V175.437M288.118 160H303.555M288.118 175.437V190.874M288.118 175.437H303.555M288.118 190.874V206.31M288.118 190.874H303.555M288.118 206.31V221.747M288.118 206.31H303.555M288.118 221.747V237.184M288.118 221.747H303.555M288.118 237.184V252.621M288.118 237.184H303.555M288.118 252.621V268.058M288.118 252.621H303.555M288.118 268.058V283.495M288.118 268.058H303.555M288.118 283.495V298.932M288.118 283.495H303.555M288.118 298.932V314.369M288.118 298.932H303.555M288.118 314.369H303.555M303.555 5.63086V21.0678M303.555 5.63086H318.992M303.555 21.0678V36.5046M303.555 21.0678H318.992M303.555 36.5046V51.9415M303.555 36.5046H318.992M303.555 51.9415V67.3784M303.555 51.9415H318.992M303.555 67.3784V82.8153M303.555 67.3784H318.992M303.555 82.8153V98.2522M303.555 82.8153H318.992M303.555 98.2522V113.689M303.555 98.2522H318.992M303.555 113.689V129.126M303.555 113.689H318.992M303.555 129.126V144.563M303.555 129.126H318.992M303.555 144.563V160M303.555 144.563H318.992M303.555 160V175.437M303.555 160H318.992M303.555 175.437V190.874M303.555 175.437H318.992M303.555 190.874V206.31M303.555 190.874H318.992M303.555 206.31V221.747M303.555 206.31H318.992M303.555 221.747V237.184M303.555 221.747H318.992M303.555 237.184V252.621M303.555 237.184H318.992M303.555 252.621V268.058M303.555 252.621H318.992M303.555 268.058V283.495M303.555 268.058H318.992M303.555 283.495V298.932M303.555 283.495H318.992M303.555 298.932V314.369M303.555 298.932H318.992M303.555 314.369H318.992M318.992 5.63086V21.0678M318.992 5.63086H334.429M318.992 21.0678V36.5046M318.992 21.0678H334.429M318.992 36.5046V51.9415M318.992 36.5046H334.429M318.992 51.9415V67.3784M318.992 51.9415H334.429M318.992 67.3784V82.8153M318.992 67.3784H334.429M318.992 82.8153V98.2522M318.992 82.8153H334.429M318.992 98.2522V113.689M318.992 98.2522H334.429M318.992 113.689V129.126M318.992 113.689H334.429M318.992 129.126V144.563M318.992 129.126H334.429M318.992 144.563V160M318.992 144.563H334.429M318.992 160V175.437M318.992 160H334.429M318.992 175.437V190.874M318.992 175.437H334.429M318.992 190.874V206.31M318.992 190.874H334.429M318.992 206.31V221.747M318.992 206.31H334.429M318.992 221.747V237.184M318.992 221.747H334.429M318.992 237.184V252.621M318.992 237.184H334.429M318.992 252.621V268.058M318.992 252.621H334.429M318.992 268.058V283.495M318.992 268.058H334.429M318.992 283.495V298.932M318.992 283.495H334.429M318.992 298.932V314.369M318.992 298.932H334.429M318.992 314.369H334.429M334.429 5.63086V21.0678M334.429 5.63086H349.866M334.429 21.0678V36.5046M334.429 21.0678H349.866M334.429 36.5046V51.9415M334.429 36.5046H349.866M334.429 51.9415V67.3784M334.429 51.9415H349.866M334.429 67.3784V82.8153M334.429 67.3784H349.866M334.429 82.8153V98.2522M334.429 82.8153H349.866M334.429 98.2522V113.689M334.429 98.2522H349.866M334.429 113.689V129.126M334.429 113.689H349.866M334.429 129.126V144.563M334.429 129.126H349.866M334.429 144.563V160M334.429 144.563H349.866M334.429 160V175.437M334.429 160H349.866M334.429 175.437V190.874M334.429 175.437H349.866M334.429 190.874V206.31M334.429 190.874H349.866M334.429 206.31V221.747M334.429 206.31H349.866M334.429 221.747V237.184M334.429 221.747H349.866M334.429 237.184V252.621M334.429 237.184H349.866M334.429 252.621V268.058M334.429 252.621H349.866M334.429 268.058V283.495M334.429 268.058H349.866M334.429 283.495V298.932M334.429 283.495H349.866M334.429 298.932V314.369M334.429 298.932H349.866M334.429 314.369H349.866M349.866 5.63086V21.0678M349.866 5.63086H365.303M349.866 21.0678V36.5046M349.866 21.0678H365.303M349.866 36.5046V51.9415M349.866 36.5046H365.303M349.866 51.9415V67.3784M349.866 51.9415H365.303M349.866 67.3784V82.8153M349.866 67.3784H365.303M349.866 82.8153V98.2522M349.866 82.8153H365.303M349.866 98.2522V113.689M349.866 98.2522H365.303M349.866 113.689V129.126M349.866 113.689H365.303M349.866 129.126V144.563M349.866 129.126H365.303M349.866 144.563V160M349.866 144.563H365.303M349.866 160V175.437M349.866 160H365.303M349.866 175.437V190.874M349.866 175.437H365.303M349.866 190.874V206.31M349.866 190.874H365.303M349.866 206.31V221.747M349.866 206.31H365.303M349.866 221.747V237.184M349.866 221.747H365.303M349.866 237.184V252.621M349.866 237.184H365.303M349.866 252.621V268.058M349.866 252.621H365.303M349.866 268.058V283.495M349.866 268.058H365.303M349.866 283.495V298.932M349.866 283.495H365.303M349.866 298.932V314.369M349.866 298.932H365.303M349.866 314.369H365.303M365.303 5.63086V21.0678M365.303 5.63086H380.74M365.303 21.0678V36.5046M365.303 21.0678H380.74M365.303 36.5046V51.9415M365.303 36.5046H380.74M365.303 51.9415V67.3784M365.303 51.9415H380.74M365.303 67.3784V82.8153M365.303 67.3784H380.74M365.303 82.8153V98.2522M365.303 82.8153H380.74M365.303 98.2522V113.689M365.303 98.2522H380.74M365.303 113.689V129.126M365.303 113.689H380.74M365.303 129.126V144.563M365.303 129.126H380.74M365.303 144.563V160M365.303 144.563H380.74M365.303 160V175.437M365.303 160H380.74M365.303 175.437V190.874M365.303 175.437H380.74M365.303 190.874V206.31M365.303 190.874H380.74M365.303 206.31V221.747M365.303 206.31H380.74M365.303 221.747V237.184M365.303 221.747H380.74M365.303 237.184V252.621M365.303 237.184H380.74M365.303 252.621V268.058M365.303 252.621H380.74M365.303 268.058V283.495M365.303 268.058H380.74M365.303 283.495V298.932M365.303 283.495H380.74M365.303 298.932V314.369M365.303 298.932H380.74M365.303 314.369H380.74M380.74 5.63086V21.0678M380.74 5.63086H396.176M380.74 21.0678V36.5046M380.74 21.0678H396.176M380.74 36.5046V51.9415M380.74 36.5046H396.176M380.74 51.9415V67.3784M380.74 51.9415H396.176M380.74 67.3784V82.8153M380.74 67.3784H396.176M380.74 82.8153V98.2522M380.74 82.8153H396.176M380.74 98.2522V113.689M380.74 98.2522H396.176M380.74 113.689V129.126M380.74 113.689H396.176M380.74 129.126V144.563M380.74 129.126H396.176M380.74 144.563V160M380.74 144.563H396.176M380.74 160V175.437M380.74 160H396.176M380.74 175.437V190.874M380.74 175.437H396.176M380.74 190.874V206.31M380.74 190.874H396.176M380.74 206.31V221.747M380.74 206.31H396.176M380.74 221.747V237.184M380.74 221.747H396.176M380.74 237.184V252.621M380.74 237.184H396.176M380.74 252.621V268.058M380.74 252.621H396.176M380.74 268.058V283.495M380.74 268.058H396.176M380.74 283.495V298.932M380.74 283.495H396.176M380.74 298.932V314.369M380.74 298.932H396.176M380.74 314.369H396.176M396.176 5.63086V21.0678M396.176 5.63086H411.613M396.176 21.0678V36.5046M396.176 21.0678H411.613M396.176 36.5046V51.9415M396.176 36.5046H411.613M396.176 51.9415V67.3784M396.176 51.9415H411.613M396.176 67.3784V82.8153M396.176 67.3784H411.613M396.176 82.8153V98.2522M396.176 82.8153H411.613M396.176 98.2522V113.689M396.176 98.2522H411.613M396.176 113.689V129.126M396.176 113.689H411.613M396.176 129.126V144.563M396.176 129.126H411.613M396.176 144.563V160M396.176 144.563H411.613M396.176 160V175.437M396.176 160H411.613M396.176 175.437V190.874M396.176 175.437H411.613M396.176 190.874V206.31M396.176 190.874H411.613M396.176 206.31V221.747M396.176 206.31H411.613M396.176 221.747V237.184M396.176 221.747H411.613M396.176 237.184V252.621M396.176 237.184H411.613M396.176 252.621V268.058M396.176 252.621H411.613M396.176 268.058V283.495M396.176 268.058H411.613M396.176 283.495V298.932M396.176 283.495H411.613M396.176 298.932V314.369M396.176 298.932H411.613M396.176 314.369H411.613M411.613 5.63086V21.0678M411.613 5.63086H427.05M411.613 21.0678V36.5046M411.613 21.0678H427.05M411.613 36.5046V51.9415M411.613 36.5046H427.05M411.613 51.9415V67.3784M411.613 51.9415H427.05M411.613 67.3784V82.8153M411.613 67.3784H427.05M411.613 82.8153V98.2522M411.613 82.8153H427.05M411.613 98.2522V113.689M411.613 98.2522H427.05M411.613 113.689V129.126M411.613 113.689H427.05M411.613 129.126V144.563M411.613 129.126H427.05M411.613 144.563V160M411.613 144.563H427.05M411.613 160V175.437M411.613 160H427.05M411.613 175.437V190.874M411.613 175.437H427.05M411.613 190.874V206.31M411.613 190.874H427.05M411.613 206.31V221.747M411.613 206.31H427.05M411.613 221.747V237.184M411.613 221.747H427.05M411.613 237.184V252.621M411.613 237.184H427.05M411.613 252.621V268.058M411.613 252.621H427.05M411.613 268.058V283.495M411.613 268.058H427.05M411.613 283.495V298.932M411.613 283.495H427.05M411.613 298.932V314.369M411.613 298.932H427.05M411.613 314.369H427.05M427.05 5.63086V21.0678M427.05 5.63086H442.487M427.05 21.0678V36.5046M427.05 21.0678H442.487M427.05 36.5046V51.9415M427.05 36.5046H442.487M427.05 51.9415V67.3784M427.05 51.9415H442.487M427.05 67.3784V82.8153M427.05 67.3784H442.487M427.05 82.8153V98.2522M427.05 82.8153H442.487M427.05 98.2522V113.689M427.05 98.2522H442.487M427.05 113.689V129.126M427.05 113.689H442.487M427.05 129.126V144.563M427.05 129.126H442.487M427.05 144.563V160M427.05 144.563H442.487M427.05 160V175.437M427.05 160H442.487M427.05 175.437V190.874M427.05 175.437H442.487M427.05 190.874V206.31M427.05 190.874H442.487M427.05 206.31V221.747M427.05 206.31H442.487M427.05 221.747V237.184M427.05 221.747H442.487M427.05 237.184V252.621M427.05 237.184H442.487M427.05 252.621V268.058M427.05 252.621H442.487M427.05 268.058V283.495M427.05 268.058H442.487M427.05 283.495V298.932M427.05 283.495H442.487M427.05 298.932V314.369M427.05 298.932H442.487M427.05 314.369H442.487M442.487 5.63086V21.0678M442.487 5.63086H457.924M442.487 21.0678V36.5046M442.487 21.0678H457.924M442.487 36.5046V51.9415M442.487 36.5046H457.924M442.487 51.9415V67.3784M442.487 51.9415H457.924M442.487 67.3784V82.8153M442.487 67.3784H457.924M442.487 82.8153V98.2522M442.487 82.8153H457.924M442.487 98.2522V113.689M442.487 98.2522H457.924M442.487 113.689V129.126M442.487 113.689H457.924M442.487 129.126V144.563M442.487 129.126H457.924M442.487 144.563V160M442.487 144.563H457.924M442.487 160V175.437M442.487 160H457.924M442.487 175.437V190.874M442.487 175.437H457.924M442.487 190.874V206.31M442.487 190.874H457.924M442.487 206.31V221.747M442.487 206.31H457.924M442.487 221.747V237.184M442.487 221.747H457.924M442.487 237.184V252.621M442.487 237.184H457.924M442.487 252.621V268.058M442.487 252.621H457.924M442.487 268.058V283.495M442.487 268.058H457.924M442.487 283.495V298.932M442.487 283.495H457.924M442.487 298.932V314.369M442.487 298.932H457.924M442.487 314.369H457.924M457.924 5.63086V21.0678M457.924 5.63086H473.361M457.924 21.0678V36.5046M457.924 21.0678H473.361M457.924 36.5046V51.9415M457.924 36.5046H473.361M457.924 51.9415V67.3784M457.924 51.9415H473.361M457.924 67.3784V82.8153M457.924 67.3784H473.361M457.924 82.8153V98.2522M457.924 82.8153H473.361M457.924 98.2522V113.689M457.924 98.2522H473.361M457.924 113.689V129.126M457.924 113.689H473.361M457.924 129.126V144.563M457.924 129.126H473.361M457.924 144.563V160M457.924 144.563H473.361M457.924 160V175.437M457.924 160H473.361M457.924 175.437V190.874M457.924 175.437H473.361M457.924 190.874V206.31M457.924 190.874H473.361M457.924 206.31V221.747M457.924 206.31H473.361M457.924 221.747V237.184M457.924 221.747H473.361M457.924 237.184V252.621M457.924 237.184H473.361M457.924 252.621V268.058M457.924 252.621H473.361M457.924 268.058V283.495M457.924 268.058H473.361M457.924 283.495V298.932M457.924 283.495H473.361M457.924 298.932V314.369M457.924 298.932H473.361M457.924 314.369H473.361M473.361 5.63086V21.0678M473.361 5.63086H488.798M473.361 21.0678V36.5046M473.361 21.0678H488.798M473.361 36.5046V51.9415M473.361 36.5046H488.798M473.361 51.9415V67.3784M473.361 51.9415H488.798M473.361 67.3784V82.8153M473.361 67.3784H488.798M473.361 82.8153V98.2522M473.361 82.8153H488.798M473.361 98.2522V113.689M473.361 98.2522H488.798M473.361 113.689V129.126M473.361 113.689H488.798M473.361 129.126V144.563M473.361 129.126H488.798M473.361 144.563V160M473.361 144.563H488.798M473.361 160V175.437M473.361 160H488.798M473.361 175.437V190.874M473.361 175.437H488.798M473.361 190.874V206.31M473.361 190.874H488.798M473.361 206.31V221.747M473.361 206.31H488.798M473.361 221.747V237.184M473.361 221.747H488.798M473.361 237.184V252.621M473.361 237.184H488.798M473.361 252.621V268.058M473.361 252.621H488.798M473.361 268.058V283.495M473.361 268.058H488.798M473.361 283.495V298.932M473.361 283.495H488.798M473.361 298.932V314.369M473.361 298.932H488.798M473.361 314.369H488.798M488.798 5.63086V21.0678M488.798 5.63086H504.235M488.798 21.0678V36.5046M488.798 21.0678H504.235M488.798 36.5046V51.9415M488.798 36.5046H504.235M488.798 51.9415V67.3784M488.798 51.9415H504.235M488.798 67.3784V82.8153M488.798 67.3784H504.235M488.798 82.8153V98.2522M488.798 82.8153H504.235M488.798 98.2522V113.689M488.798 98.2522H504.235M488.798 113.689V129.126M488.798 113.689H504.235M488.798 129.126V144.563M488.798 129.126H504.235M488.798 144.563V160M488.798 144.563H504.235M488.798 160V175.437M488.798 160H504.235M488.798 175.437V190.874M488.798 175.437H504.235M488.798 190.874V206.31M488.798 190.874H504.235M488.798 206.31V221.747M488.798 206.31H504.235M488.798 221.747V237.184M488.798 221.747H504.235M488.798 237.184V252.621M488.798 237.184H504.235M488.798 252.621V268.058M488.798 252.621H504.235M488.798 268.058V283.495M488.798 268.058H504.235M488.798 283.495V298.932M488.798 283.495H504.235M488.798 298.932V314.369M488.798 298.932H504.235M488.798 314.369H504.235M504.235 5.63086V21.0678M504.235 5.63086H519.672M504.235 21.0678V36.5046M504.235 21.0678H519.672M504.235 36.5046V51.9415M504.235 36.5046H519.672M504.235 51.9415V67.3784M504.235 51.9415H519.672M504.235 67.3784V82.8153M504.235 67.3784H519.672M504.235 82.8153V98.2522M504.235 82.8153H519.672M504.235 98.2522V113.689M504.235 98.2522H519.672M504.235 113.689V129.126M504.235 113.689H519.672M504.235 129.126V144.563M504.235 129.126H519.672M504.235 144.563V160M504.235 144.563H519.672M504.235 160V175.437M504.235 160H519.672M504.235 175.437V190.874M504.235 175.437H519.672M504.235 190.874V206.31M504.235 190.874H519.672M504.235 206.31V221.747M504.235 206.31H519.672M504.235 221.747V237.184M504.235 221.747H519.672M504.235 237.184V252.621M504.235 237.184H519.672M504.235 252.621V268.058M504.235 252.621H519.672M504.235 268.058V283.495M504.235 268.058H519.672M504.235 283.495V298.932M504.235 283.495H519.672M504.235 298.932V314.369M504.235 298.932H519.672M504.235 314.369H519.672M519.672 5.63086V21.0678M519.672 5.63086H535.109M519.672 21.0678V36.5046M519.672 21.0678H535.109M519.672 36.5046V51.9415M519.672 36.5046H535.109M519.672 51.9415V67.3784M519.672 51.9415H535.109M519.672 67.3784V82.8153M519.672 67.3784H535.109M519.672 82.8153V98.2522M519.672 82.8153H535.109M519.672 98.2522V113.689M519.672 98.2522H535.109M519.672 113.689V129.126M519.672 113.689H535.109M519.672 129.126V144.563M519.672 129.126H535.109M519.672 144.563V160M519.672 144.563H535.109M519.672 160V175.437M519.672 160H535.109M519.672 175.437V190.874M519.672 175.437H535.109M519.672 190.874V206.31M519.672 190.874H535.109M519.672 206.31V221.747M519.672 206.31H535.109M519.672 221.747V237.184M519.672 221.747H535.109M519.672 237.184V252.621M519.672 237.184H535.109M519.672 252.621V268.058M519.672 252.621H535.109M519.672 268.058V283.495M519.672 268.058H535.109M519.672 283.495V298.932M519.672 283.495H535.109M519.672 298.932V314.369M519.672 298.932H535.109M519.672 314.369H535.109M535.109 5.63086V21.0678M535.109 5.63086H550.545M535.109 21.0678V36.5046M535.109 21.0678H550.545M535.109 36.5046V51.9415M535.109 36.5046H550.545M535.109 51.9415V67.3784M535.109 51.9415H550.545M535.109 67.3784V82.8153M535.109 67.3784H550.545M535.109 82.8153V98.2522M535.109 82.8153H550.545M535.109 98.2522V113.689M535.109 98.2522H550.545M535.109 113.689V129.126M535.109 113.689H550.545M535.109 129.126V144.563M535.109 129.126H550.545M535.109 144.563V160M535.109 144.563H550.545M535.109 160V175.437M535.109 160H550.545M535.109 175.437V190.874M535.109 175.437H550.545M535.109 190.874V206.31M535.109 190.874H550.545M535.109 206.31V221.747M535.109 206.31H550.545M535.109 221.747V237.184M535.109 221.747H550.545M535.109 237.184V252.621M535.109 237.184H550.545M535.109 252.621V268.058M535.109 252.621H550.545M535.109 268.058V283.495M535.109 268.058H550.545M535.109 283.495V298.932M535.109 283.495H550.545M535.109 298.932V314.369M535.109 298.932H550.545M535.109 314.369H550.545M550.545 5.63086V21.0678M550.545 5.63086H565.982M550.545 21.0678V36.5046M550.545 21.0678H565.982M550.545 36.5046V51.9415M550.545 36.5046H565.982M550.545 51.9415V67.3784M550.545 51.9415H565.982M550.545 67.3784V82.8153M550.545 67.3784H565.982M550.545 82.8153V98.2522M550.545 82.8153H565.982M550.545 98.2522V113.689M550.545 98.2522H565.982M550.545 113.689V129.126M550.545 113.689H565.982M550.545 129.126V144.563M550.545 129.126H565.982M550.545 144.563V160M550.545 144.563H565.982M550.545 160V175.437M550.545 160H565.982M550.545 175.437V190.874M550.545 175.437H565.982M550.545 190.874V206.31M550.545 190.874H565.982M550.545 206.31V221.747M550.545 206.31H565.982M550.545 221.747V237.184M550.545 221.747H565.982M550.545 237.184V252.621M550.545 237.184H565.982M550.545 252.621V268.058M550.545 252.621H565.982M550.545 268.058V283.495M550.545 268.058H565.982M550.545 283.495V298.932M550.545 283.495H565.982M550.545 298.932V314.369M550.545 298.932H565.982M550.545 314.369H565.982M565.982 5.63086V21.0678M565.982 5.63086H581.419M565.982 21.0678V36.5046M565.982 21.0678H581.419M565.982 36.5046V51.9415M565.982 36.5046H581.419M565.982 51.9415V67.3784M565.982 51.9415H581.419M565.982 67.3784V82.8153M565.982 67.3784H581.419M565.982 82.8153V98.2522M565.982 82.8153H581.419M565.982 98.2522V113.689M565.982 98.2522H581.419M565.982 113.689V129.126M565.982 113.689H581.419M565.982 129.126V144.563M565.982 129.126H581.419M565.982 144.563V160M565.982 144.563H581.419M565.982 160V175.437M565.982 160H581.419M565.982 175.437V190.874M565.982 175.437H581.419M565.982 190.874V206.31M565.982 190.874H581.419M565.982 206.31V221.747M565.982 206.31H581.419M565.982 221.747V237.184M565.982 221.747H581.419M565.982 237.184V252.621M565.982 237.184H581.419M565.982 252.621V268.058M565.982 252.621H581.419M565.982 268.058V283.495M565.982 268.058H581.419M565.982 283.495V298.932M565.982 283.495H581.419M565.982 298.932V314.369M565.982 298.932H581.419M565.982 314.369H581.419M581.419 5.63086V21.0678M581.419 5.63086H596.856V21.0678M581.419 21.0678V36.5046M581.419 21.0678H596.856M581.419 36.5046V51.9415M581.419 36.5046H596.856M581.419 51.9415V67.3784M581.419 51.9415H596.856M581.419 67.3784V82.8153M581.419 67.3784H596.856M581.419 82.8153V98.2522M581.419 82.8153H596.856M581.419 98.2522V113.689M581.419 98.2522H596.856M581.419 113.689V129.126M581.419 113.689H596.856M581.419 129.126V144.563M581.419 129.126H596.856M581.419 144.563V160M581.419 144.563H596.856M581.419 160V175.437M581.419 160H596.856M581.419 175.437V190.874M581.419 175.437H596.856M581.419 190.874V206.31M581.419 190.874H596.856M581.419 206.31V221.747M581.419 206.31H596.856M581.419 221.747V237.184M581.419 221.747H596.856M581.419 237.184V252.621M581.419 237.184H596.856M581.419 252.621V268.058M581.419 252.621H596.856M581.419 268.058V283.495M581.419 268.058H596.856M581.419 283.495V298.932M581.419 283.495H596.856M581.419 298.932V314.369M581.419 298.932H596.856M581.419 314.369H596.856V298.932M596.856 21.0678V36.5046M596.856 36.5046V51.9415M596.856 51.9415V67.3784M596.856 67.3784V82.8153M596.856 82.8153V98.2522M596.856 98.2522V113.689M596.856 113.689V129.126M596.856 129.126V144.563M596.856 144.563V160M596.856 160V175.437M596.856 175.437V190.874M596.856 190.874V206.31M596.856 206.31V221.747M596.856 221.747V237.184M596.856 237.184V252.621M596.856 252.621V268.058M596.856 268.058V283.495M596.856 283.495V298.932" stroke="url(#paint0_radial_1463_29808)" stroke-opacity="0.5" stroke-width="0.192961"/>
</g>
<g style="mix-blend-mode:soft-light" opacity="0.8">
<path d="M-5.62135 93.7475V98.3786M-5.62135 98.3786V103.01M-5.62135 98.3786H-10.2524M-5.62135 98.3786H-0.990288M-5.62135 217.243V221.874M-5.62135 221.874V226.505M-5.62135 221.874H-10.2524M-5.62135 221.874H-0.990288M-5.62135 340.738V345.369M-5.62135 345.369V350M-5.62135 345.369H-10.2524M-5.62135 345.369H-0.990288M117.874 217.243V221.874M117.874 221.874V226.505M117.874 221.874H113.243M117.874 221.874H122.505M117.874 340.738V345.369M117.874 345.369V350M117.874 345.369H113.243M117.874 345.369H122.505M241.369 217.243V221.874M241.369 221.874V226.505M241.369 221.874H236.738M241.369 221.874H246M241.369 340.738V345.369M241.369 345.369V350M241.369 345.369H236.738M241.369 345.369H246M364.864 93.7475V98.3786M364.864 98.3786V103.01M364.864 98.3786H360.233M364.864 98.3786H369.495M364.864 217.243V221.874M364.864 221.874V226.505M364.864 221.874H360.233M364.864 221.874H369.495M364.864 340.738V345.369M364.864 345.369V350M364.864 345.369H360.233M364.864 345.369H369.495M488.359 93.7475V98.3786M488.359 98.3786V103.01M488.359 98.3786H483.728M488.359 98.3786H492.99M488.359 217.243V221.874M488.359 221.874V226.505M488.359 221.874H483.728M488.359 221.874H492.99M488.359 340.738V345.369M488.359 345.369V350M488.359 345.369H483.728M488.359 345.369H492.99M611.854 93.7475V98.3786M611.854 98.3786V103.01M611.854 98.3786H607.223M611.854 98.3786H616.485M611.854 217.243V221.874M611.854 221.874V226.505M611.854 221.874H607.223M611.854 221.874H616.485M611.854 340.738V345.369M611.854 345.369V350M611.854 345.369H607.223M611.854 345.369H616.485M-5.62135 32V36.6311M-5.62135 36.6311V41.2621M-5.62135 36.6311H-10.2524M-5.62135 36.6311H-0.990288M-5.62135 155.495V160.126M-5.62135 160.126V164.757M-5.62135 160.126H-10.2524M-5.62135 160.126H-0.990288M-5.62135 278.99V283.621M-5.62135 283.621V288.252M-5.62135 283.621H-10.2524M-5.62135 283.621H-0.990288M117.874 32V36.6311M117.874 36.6311V41.2621M117.874 36.6311H113.243M117.874 36.6311H122.505M117.874 278.99V283.621M117.874 283.621V288.252M117.874 283.621H113.243M117.874 283.621H122.505M241.369 278.99V283.621M241.369 283.621V288.252M241.369 283.621H236.738M241.369 283.621H246M364.864 32V36.6311M364.864 36.6311V41.2621M364.864 36.6311H360.233M364.864 36.6311H369.495M364.864 155.495V160.126M364.864 160.126V164.757M364.864 160.126H360.233M364.864 160.126H369.495M364.864 278.99V283.621M364.864 283.621V288.252M364.864 283.621H360.233M364.864 283.621H369.495M488.359 32V36.6311M488.359 36.6311V41.2621M488.359 36.6311H483.728M488.359 36.6311H492.99M488.359 155.495V160.126M488.359 160.126V164.757M488.359 160.126H483.728M488.359 160.126H492.99M488.359 278.99V283.621M488.359 283.621V288.252M488.359 283.621H483.728M488.359 283.621H492.99M611.854 32V36.6311M611.854 36.6311V41.2621M611.854 36.6311H607.223M611.854 36.6311H616.485M611.854 155.495V160.126M611.854 160.126V164.757M611.854 160.126H607.223M611.854 160.126H616.485M611.854 278.99V283.621M611.854 283.621V288.252M611.854 283.621H607.223M611.854 283.621H616.485M-67.3689 93.7475V98.3786M-67.3689 98.3786V103.01M-67.3689 98.3786H-72M-67.3689 98.3786H-62.7379M-67.3689 217.243V221.874M-67.3689 221.874V226.505M-67.3689 221.874H-72M-67.3689 221.874H-62.7379M-67.3689 340.738V345.369M-67.3689 345.369V350M-67.3689 345.369H-72M-67.3689 345.369H-62.7379M56.1262 217.243V221.874M56.1262 221.874V226.505M56.1262 221.874H51.4952M56.1262 221.874H60.7573M56.1262 340.738V345.369M56.1262 345.369V350M56.1262 345.369H51.4952M56.1262 345.369H60.7573M179.621 217.243V221.874M179.621 221.874V226.505M179.621 221.874H174.99M179.621 221.874H184.252M179.621 340.738V345.369M179.621 345.369V350M179.621 345.369H174.99M179.621 345.369H184.252M303.117 217.243V221.874M303.117 221.874V226.505M303.117 221.874H298.485M303.117 221.874H307.748M303.117 340.738V345.369M303.117 345.369V350M303.117 345.369H298.485M303.117 345.369H307.748M426.612 93.7475V98.3786M426.612 98.3786V103.01M426.612 98.3786H421.981M426.612 98.3786H431.243M426.612 217.243V221.874M426.612 221.874V226.505M426.612 221.874H421.981M426.612 221.874H431.243M426.612 340.738V345.369M426.612 345.369V350M426.612 345.369H421.981M426.612 345.369H431.243M550.107 93.7475V98.3786M550.107 98.3786V103.01M550.107 98.3786H545.476M550.107 98.3786H554.738M550.107 217.243V221.874M550.107 221.874V226.505M550.107 221.874H545.476M550.107 221.874H554.738M550.107 340.738V345.369M550.107 345.369V350M550.107 345.369H545.476M550.107 345.369H554.738M-67.3689 32V36.6311M-67.3689 36.6311V41.2622M-67.3689 36.6311H-72M-67.3689 36.6311H-62.7379M-67.3689 155.495V160.126M-67.3689 160.126V164.757M-67.3689 160.126H-72M-67.3689 160.126H-62.7379M-67.3689 278.99V283.621M-67.3689 283.621V288.252M-67.3689 283.621H-72M-67.3689 283.621H-62.7379M56.1262 32V36.6311M56.1262 36.6311V41.2621M56.1262 36.6311H51.4952M56.1262 36.6311H60.7573M56.1262 278.99V283.621M56.1262 283.621V288.252M56.1262 283.621H51.4952M56.1262 283.621H60.7573M179.621 32V36.6311M179.621 36.6311V41.2621M179.621 36.6311H174.99M179.621 36.6311H184.252M179.621 278.99V283.621M179.621 283.621V288.252M179.621 283.621H174.99M179.621 283.621H184.252M86.8689 93.7475V98.3786M86.8689 98.3786V103.01M86.8689 98.3786H82.2379M86.8689 98.3786H91.5M303.117 278.99V283.621M303.117 283.621V288.252M303.117 283.621H298.485M303.117 283.621H307.748M426.612 32V36.6311M426.612 36.6311V41.2621M426.612 36.6311H421.981M426.612 36.6311H431.243M426.612 155.495V160.126M426.612 160.126V164.757M426.612 160.126H421.981M426.612 160.126H431.243M426.612 278.99V283.621M426.612 283.621V288.252M426.612 283.621H421.981M426.612 283.621H431.243M550.107 32V36.6311M550.107 36.6311V41.2621M550.107 36.6311H545.476M550.107 36.6311H554.738M550.107 155.495V160.126M550.107 160.126V164.757M550.107 160.126H545.476M550.107 160.126H554.738M550.107 278.99V283.621M550.107 283.621V288.252M550.107 283.621H545.476M550.107 283.621H554.738M241.582 140.238V144.869M241.582 144.869V149.5M241.582 144.869H236.951M241.582 144.869H246.213M303.369 140.238V144.869M303.369 144.869V149.5M303.369 144.869H298.738M303.369 144.869H308" stroke="url(#paint1_radial_1463_29808)" stroke-opacity="0.5" stroke-width="0.385922"/>
</g>
</g>
</g>
<defs>
<radialGradient id="paint0_radial_1463_29808" cx="0" cy="0" r="1" gradientUnits="userSpaceOnUse" gradientTransform="translate(257.244 160) rotate(90.1619) scale(86.5006 190.301)">
<stop stop-color="#F2F2F2"/>
<stop offset="1" stop-color="#F2F2F2" stop-opacity="0"/>
</radialGradient>
<radialGradient id="paint1_radial_1463_29808" cx="0" cy="0" r="1" gradientUnits="userSpaceOnUse" gradientTransform="translate(272.243 191) rotate(90) scale(159 344.243)">
<stop stop-color="#F2F2F2"/>
<stop offset="1" stop-color="#F2F2F2" stop-opacity="0"/>
</radialGradient>
<clipPath id="clip0_1463_29808">
<rect width="320" height="175" fill="white"/>
</clipPath>
<clipPath id="clip1_1463_29808">
<rect width="320" height="175" fill="white"/>
</clipPath>
</defs>
</svg>
