<svg width="53" height="24" viewBox="0 0 53 24" fill="none" xmlns="http://www.w3.org/2000/svg">
<rect width="53" height="24" rx="8" fill="url(#paint0_linear_1973_32169)" fill-opacity="0.1"/>
<circle cx="10" cy="12" r="2" fill="#F36423"/>
<path d="M16.204 13.036H17.272C17.416 14.392 18.328 15.184 19.816 15.184C21.088 15.184 21.868 14.608 21.868 13.684C21.868 12.58 20.8 12.352 19.432 12.076C17.968 11.788 16.408 11.44 16.408 9.724C16.408 8.248 17.548 7.276 19.408 7.276C21.46 7.276 22.66 8.536 22.792 10.18H21.712C21.592 9.088 20.776 8.236 19.384 8.236C18.256 8.236 17.488 8.836 17.488 9.688C17.488 10.708 18.616 10.936 19.852 11.188C21.436 11.5 22.948 11.848 22.948 13.612C22.948 15.208 21.628 16.144 19.792 16.144C17.62 16.144 16.288 14.848 16.204 13.036ZM24.6699 12.76C24.6699 14.224 25.4499 15.208 26.7579 15.208C28.0659 15.208 28.8339 14.224 28.8339 12.76C28.8339 11.308 28.0659 10.324 26.7579 10.324C25.4499 10.324 24.6699 11.308 24.6699 12.76ZM23.6139 12.76C23.6139 10.756 24.8619 9.388 26.7579 9.388C28.6539 9.388 29.8899 10.756 29.8899 12.76C29.8899 14.764 28.6539 16.144 26.7579 16.144C24.8619 16.144 23.6139 14.764 23.6139 12.76ZM31.666 12.76C31.666 14.224 32.446 15.208 33.754 15.208C35.062 15.208 35.83 14.224 35.83 12.76C35.83 11.308 35.062 10.324 33.754 10.324C32.446 10.324 31.666 11.308 31.666 12.76ZM30.61 12.76C30.61 10.756 31.858 9.388 33.754 9.388C35.65 9.388 36.886 10.756 36.886 12.76C36.886 14.764 35.65 16.144 33.754 16.144C31.858 16.144 30.61 14.764 30.61 12.76ZM37.8101 16V9.532H38.7461L38.7821 10.696C39.1181 9.868 39.8861 9.388 40.9061 9.388C42.3461 9.388 43.2341 10.324 43.2341 11.836V16H42.2021V12.22C42.2021 10.972 41.6981 10.324 40.6781 10.324C39.5741 10.324 38.8421 11.08 38.8421 12.22V16H37.8101Z" fill="url(#paint1_linear_1973_32169)"/>
<defs>
<linearGradient id="paint0_linear_1973_32169" x1="4.22124" y1="35.0769" x2="63.931" y2="19.1984" gradientUnits="userSpaceOnUse">
<stop stop-color="#F46919"/>
<stop offset="1" stop-color="#F419AB"/>
</linearGradient>
<linearGradient id="paint1_linear_1973_32169" x1="11" y1="22" x2="40.7306" y2="34.4836" gradientUnits="userSpaceOnUse">
<stop stop-color="#F46919"/>
<stop offset="1" stop-color="#F419AB"/>
</linearGradient>
</defs>
</svg>
