<svg width="16" height="16" viewBox="0 0 16 16" fill="none" xmlns="http://www.w3.org/2000/svg">
<path d="M7.9987 14.6673C11.6806 14.6673 14.6654 11.6825 14.6654 8.00065C14.6654 4.31875 11.6806 1.33398 7.9987 1.33398C4.3168 1.33398 1.33203 4.31875 1.33203 8.00065C1.33203 11.6825 4.3168 14.6673 7.9987 14.6673Z" stroke="#F2F2F2" stroke-linecap="round" stroke-linejoin="round"/>
<path d="M5.33568 2H6.00234C4.70234 5.89333 4.70234 10.1067 6.00234 14H5.33568" stroke="#F2F2F2" stroke-linecap="round" stroke-linejoin="round"/>
<path d="M10 2C11.3 5.89333 11.3 10.1067 10 14" stroke="#F2F2F2" stroke-linecap="round" stroke-linejoin="round"/>
<path d="M2 10.6667V10C5.89333 11.3 10.1067 11.3 14 10V10.6667" stroke="#F2F2F2" stroke-linecap="round" stroke-linejoin="round"/>
<path d="M2 6.00039C5.89333 4.70039 10.1067 4.70039 14 6.00039" stroke="#F2F2F2" stroke-linecap="round" stroke-linejoin="round"/>
</svg>
