<svg width="20" height="20" viewBox="0 0 20 20" fill="none" xmlns="http://www.w3.org/2000/svg">
<path d="M13.0029 10.6757V13.8257C13.0029 16.4507 11.9529 17.5007 9.32793 17.5007H6.17793C3.55293 17.5007 2.50293 16.4507 2.50293 13.8257V10.6757C2.50293 8.05073 3.55293 7.00073 6.17793 7.00073H9.32793C11.9529 7.00073 13.0029 8.05073 13.0029 10.6757Z" stroke="#195AF4" stroke-linecap="round" stroke-linejoin="round"/>
<path d="M17.5029 6.17573V9.32573C17.5029 11.9507 16.4529 13.0007 13.8279 13.0007H13.0029V10.6757C13.0029 8.05073 11.9529 7.00073 9.32793 7.00073H7.00293V6.17573C7.00293 3.55073 8.05293 2.50073 10.6779 2.50073H13.8279C16.4529 2.50073 17.5029 3.55073 17.5029 6.17573Z" stroke="#195AF4" stroke-linecap="round" stroke-linejoin="round"/>
</svg>
