<svg width="15" height="14" viewBox="0 0 15 14" fill="none" xmlns="http://www.w3.org/2000/svg">
<path d="M12.0441 2.46165C10.3174 0.740812 7.51738 0.740812 5.80238 2.46165C4.59488 3.65748 4.23322 5.37831 4.69988 6.89498L1.95822 9.63665C1.76572 9.83498 1.63155 10.2258 1.67238 10.5058L1.84738 11.7775C1.91155 12.1975 2.30238 12.5941 2.72238 12.6525L3.99405 12.8275C4.27405 12.8683 4.66488 12.74 4.86322 12.5358L5.34155 12.0575C5.45822 11.9466 5.45822 11.76 5.34155 11.6433L4.20988 10.5116C4.04072 10.3425 4.04072 10.0625 4.20988 9.89331C4.37905 9.72415 4.65905 9.72415 4.82822 9.89331L5.96572 11.0308C6.07655 11.1416 6.26322 11.1416 6.37405 11.0308L7.61072 9.79998C9.12155 10.2725 10.8424 9.90498 12.0441 8.70915C13.7649 6.98831 13.7649 4.18248 12.0441 2.46165ZM8.95822 6.99998C8.15322 6.99998 7.49988 6.34665 7.49988 5.54165C7.49988 4.73665 8.15322 4.08331 8.95822 4.08331C9.76322 4.08331 10.4165 4.73665 10.4165 5.54165C10.4165 6.34665 9.76322 6.99998 8.95822 6.99998Z" fill="#9AA6B5" fill-opacity="0.5"/>
</svg>
