<svg width="166" height="48" viewBox="0 0 166 48" fill="none" xmlns="http://www.w3.org/2000/svg">
<rect x="0.59082" y="0.5" width="164.818" height="47" rx="23.5" stroke="url(#paint0_linear_3226_28169)"/>
<g clip-path="url(#clip0_3226_28169)">
<rect x="26.2729" y="13.0909" width="21.8182" height="21.8182" rx="4.36364" fill="#195AF4"/>
<path d="M39.6747 25.9279L42.8407 23.9095V21.4219L35.9457 26.0417L42.8407 30.5656V28.1432L39.6755 26.1584L39.4928 26.0438L39.6747 25.9279Z" fill="#F2F2F2" stroke="#195AF4" stroke-width="0.272727"/>
<path d="M34.6886 21.9433L31.5226 19.9249V17.4373L38.4176 22.0571L31.5226 26.581V24.1586L34.6877 22.1738L34.8705 22.0592L34.6886 21.9433Z" fill="#F2F2F2" stroke="#195AF4" stroke-width="0.272727"/>
</g>
<path d="M59.9981 28.5906H63.3843C65.0425 28.5906 65.9676 27.9273 65.9676 26.688C65.9676 25.4488 65.0599 24.7331 63.3843 24.7331H59.9981V28.5906ZM59.9981 23.1448H62.8432C64.6061 23.1448 65.5661 22.4815 65.5661 21.3295C65.5661 20.1077 64.6759 19.5317 62.8432 19.5317H59.9981V23.1448ZM58.0083 30.3011V17.8211H63.0003C66.1596 17.8211 67.6607 18.851 67.6607 21.1724C67.6607 22.6211 66.7356 23.6335 65.1472 23.843C66.8752 24.0873 68.0447 25.1171 68.0447 26.8626C68.0447 29.1491 66.4912 30.3011 63.5414 30.3011H58.0083Z" fill="#F2F2F2"/>
<path d="M69.5193 30.3011V17.472H71.4568V30.3011H69.5193Z" fill="#F2F2F2"/>
<path d="M75.0229 25.571C75.0229 27.5433 76.0528 28.8524 77.7808 28.8524C79.5088 28.8524 80.5211 27.5433 80.5211 25.571C80.5211 23.616 79.5088 22.307 77.7808 22.307C76.0528 22.307 75.0229 23.616 75.0229 25.571ZM73.0331 25.571C73.0331 22.6386 74.9182 20.6313 77.7808 20.6313C80.6433 20.6313 82.5284 22.6386 82.5284 25.571C82.5284 28.5208 80.6433 30.528 77.7808 30.528C74.9182 30.528 73.0331 28.5208 73.0331 25.571Z" fill="#F2F2F2"/>
<path d="M83.8311 25.571C83.8311 22.6211 85.6987 20.6313 88.5613 20.6313C90.9874 20.6313 92.698 22.0626 93.1169 24.2619H91.0747C90.7605 23.0575 89.8878 22.307 88.5787 22.307C86.8333 22.307 85.8209 23.5986 85.8209 25.571C85.8209 27.5433 86.8333 28.8524 88.5787 28.8524C89.9576 28.8524 90.8478 28.0146 91.1096 26.7055H93.1518C92.7853 29.027 91.0398 30.528 88.5613 30.528C85.6987 30.528 83.8311 28.5208 83.8311 25.571Z" fill="#F2F2F2"/>
<path d="M94.6352 30.3011V17.472H96.5726V24.8902L101.093 20.8582H103.642L99.4526 24.611L103.799 30.3011H101.442L98.0737 25.7979L96.5726 27.1593V30.3011H94.6352Z" fill="#F2F2F2"/>
<path d="M104.856 30.3011V17.8211H113.269V19.5666H106.846V23.3542H112.972V25.0648H106.846V30.3011H104.856Z" fill="#F2F2F2"/>
<path d="M114.851 30.3011V20.8582H116.789V30.3011H114.851ZM114.799 19.6539V17.5768H116.858V19.6539H114.799Z" fill="#F2F2F2"/>
<path d="M118.694 30.3011V20.8582H120.492L120.561 22.7957C120.928 21.4517 121.766 20.8582 123.023 20.8582H124.07V22.883H122.935C121.399 22.883 120.666 23.7033 120.666 25.2219V30.3011H118.694Z" fill="#F2F2F2"/>
<path d="M124.707 27.1768H126.697C126.784 28.2764 127.569 28.9571 129.123 28.9571C130.257 28.9571 131.165 28.5731 131.165 27.683C131.165 26.7055 130.1 26.531 128.599 26.304C126.923 26.0248 124.934 25.6408 124.934 23.5637C124.934 21.8182 126.365 20.6313 128.809 20.6313C131.392 20.6313 132.806 21.9928 132.998 23.8604H131.025C130.903 22.8306 130.065 22.2022 128.774 22.2022C127.569 22.2022 126.941 22.7433 126.941 23.4066C126.941 24.3491 128.075 24.5586 129.402 24.768C131.217 25.0822 133.172 25.4488 133.172 27.5782C133.172 29.568 131.444 30.528 129.123 30.528C126.365 30.528 124.811 29.1666 124.707 27.1768Z" fill="#F2F2F2"/>
<path d="M135.236 27.0371V22.5339H133.734V20.8582H135.236V18.467H137.208V20.8582H140.542V22.5339H137.208V27.0197C137.208 28.3288 137.749 28.7826 139.093 28.7826C139.477 28.7826 140.018 28.7477 140.542 28.6255V30.3186C139.791 30.4408 139.145 30.5106 138.587 30.5106C136.318 30.5106 135.236 29.4284 135.236 27.0371Z" fill="#F2F2F2"/>
<defs>
<linearGradient id="paint0_linear_3226_28169" x1="-15.7274" y1="48" x2="174.091" y2="6" gradientUnits="userSpaceOnUse">
<stop stop-color="#195AF4"/>
<stop offset="0.491762" stop-color="#19F4DE"/>
<stop offset="1" stop-color="#F49119"/>
</linearGradient>
<clipPath id="clip0_3226_28169">
<rect width="21.8182" height="21.8182" fill="white" transform="translate(26.2729 13.0909)"/>
</clipPath>
</defs>
</svg>
