<svg width="40" height="40" viewBox="0 0 40 40" fill="none" xmlns="http://www.w3.org/2000/svg">
<g clip-path="url(#clip0_3226_28106)">
<path d="M30.9999 19.8421C30.9999 22.7565 30.5115 25.1205 29.9088 25.1205C29.3061 25.1205 28.8179 22.7571 28.8179 19.8421C28.8179 16.9271 29.3063 14.5637 29.9088 14.5637C30.5112 14.5637 30.9999 16.9269 30.9999 19.8421Z" fill="white"/>
<path d="M28.216 19.8421C28.216 23.0956 26.827 25.7342 25.1136 25.7342C23.4002 25.7342 22.0112 23.0956 22.0112 19.8421C22.0112 16.5885 23.4 13.95 25.1134 13.95C26.8268 13.95 28.2158 16.5877 28.2158 19.8421" fill="white"/>
<path d="M21.4093 19.8421C21.4093 23.2986 18.6314 26.1006 15.2048 26.1006C11.7782 26.1006 9 23.298 9 19.8421C9 16.3862 11.778 13.5834 15.2048 13.5834C18.6316 13.5834 21.4093 16.3856 21.4093 19.8421Z" fill="white"/>
</g>
<defs>
<clipPath id="clip0_3226_28106">
<rect width="22" height="22" fill="white" transform="translate(9 9)"/>
</clipPath>
</defs>
</svg>
