<svg width="40" height="40" viewBox="0 0 40 40" fill="none" xmlns="http://www.w3.org/2000/svg">
<path fill-rule="evenodd" clip-rule="evenodd" d="M21.2579 14.7188C19.8398 15.3556 17.0057 16.6736 12.7555 18.6728C12.0653 18.9691 11.7037 19.259 11.6708 19.5425C11.6152 20.0215 12.1708 20.2101 12.9275 20.467C13.0304 20.5019 13.137 20.5381 13.2463 20.5765C13.9908 20.8377 14.9921 21.1434 15.5127 21.1555C15.9849 21.1665 16.5119 20.9564 17.0938 20.525C21.0649 17.6309 23.1148 16.1681 23.2435 16.1365C23.3343 16.1143 23.4601 16.0863 23.5453 16.1681C23.6306 16.2499 23.6222 16.4048 23.6132 16.4464C23.5581 16.6997 21.3771 18.889 20.2484 20.0219C19.8965 20.375 19.6469 20.6256 19.5959 20.6828C19.4816 20.8109 19.3651 20.9322 19.2532 21.0487C18.5616 21.7685 18.043 22.3082 19.2819 23.1897C19.8772 23.6133 20.3536 23.9635 20.8289 24.313C21.348 24.6946 21.8657 25.0752 22.5355 25.5493C22.7062 25.6701 22.8692 25.7955 23.0279 25.9177C23.632 26.3826 24.1747 26.8004 24.8451 26.7337C25.2347 26.695 25.6371 26.2995 25.8415 25.12C26.3245 22.3323 27.2739 16.2922 27.4933 13.8032C27.5125 13.5852 27.4883 13.3061 27.4689 13.1836C27.4495 13.0611 27.4089 12.8865 27.2614 12.7573C27.0867 12.6043 26.8171 12.572 26.6965 12.5742C26.1481 12.5847 25.3068 12.9006 21.2579 14.7188Z" fill="white"/>
</svg>