<svg width="40" height="40" viewBox="0 0 40 40" fill="none" xmlns="http://www.w3.org/2000/svg">
<path d="M30.7809 15.6C30.7809 15.6 30.566 14.0832 29.9043 13.4172C29.0664 12.5406 28.1297 12.5364 27.7 12.4848C24.6234 12.2614 20.0043 12.2614 20.0043 12.2614H19.9957C19.9957 12.2614 15.3766 12.2614 12.3 12.4848C11.8703 12.5364 10.9336 12.5406 10.0957 13.4172C9.43398 14.0832 9.22344 15.6 9.22344 15.6C9.22344 15.6 9 17.3832 9 19.1621V20.8293C9 22.6082 9.21914 24.3914 9.21914 24.3914C9.21914 24.3914 9.43398 25.9082 10.0914 26.5742C10.9293 27.4508 12.0293 27.4207 12.5191 27.5153C14.2809 27.6828 20 27.7344 20 27.7344C20 27.7344 24.6234 27.7258 27.7 27.5067C28.1297 27.4551 29.0664 27.4508 29.9043 26.5742C30.566 25.9082 30.7809 24.3914 30.7809 24.3914C30.7809 24.3914 31 22.6125 31 20.8293V19.1621C31 17.3832 30.7809 15.6 30.7809 15.6ZM17.727 22.8531V16.6699L23.6695 19.7723L17.727 22.8531Z" fill="white"/>
</svg>
