<svg width="484" height="323" viewBox="0 0 484 323" fill="none" xmlns="http://www.w3.org/2000/svg">
<g clip-path="url(#clip0_1506_25686)">
<path d="M337.157 94.1317C325.862 99.6784 314.354 105.102 303.059 110.649L303.329 111.657C310.731 110.393 318.346 109.253 325.748 107.989C338.492 105.835 337.898 105.634 340.93 92.7606C345.019 75.1034 350.038 57.557 355.271 40.1336C356.107 37.2092 359.61 34.8304 361.803 32.2628C362.412 35.8799 364.331 39.6859 363.54 42.7783C359.049 61.6233 353.963 80.2675 349.046 98.8666C348.41 101.197 347.73 103.36 347.016 106.071C355.462 106.688 363.36 107.272 371.638 107.935C373.824 99.9682 375.841 92.0469 378.24 84.2035C379.2 81.0662 380.327 77.8837 381.971 75.2832C383.122 73.5345 385.384 72.5685 387.174 71.1887C388.095 73.2821 389.733 75.3635 389.511 77.2231C387.943 86.824 385.826 96.392 383.71 105.96C383.521 107.271 383.119 108.458 382.717 109.646C389.307 112.741 395.852 115.668 403.248 119.086C414.219 104.266 428.731 91.9164 432.269 71.5268C435.65 51.899 441.272 32.5709 446.177 13.2549C447.17 9.56866 449.26 5.94831 451.317 2.87685C452.223 1.55408 454.484 0.588103 456.131 0.686939C457.229 0.752827 458.744 3.04716 458.936 4.43582C459.422 8.2659 459.572 12.186 459.174 16.0731C456.701 37.0775 448.716 56.3188 438.904 74.7894C435.797 80.6623 433.374 87.072 432.049 93.5477C428.886 108.616 426.272 123.718 423.424 139.963C430.04 137.11 435.48 134.572 440.966 132.202C441.269 132.661 441.785 133.243 442.088 133.702C440.633 134.991 439.269 136.617 437.466 137.28C426.606 141.09 419.198 147.036 420.558 160.172C420.954 163.667 418.237 167.635 417.077 171.366C416.102 171.087 415.127 170.808 414.152 170.529C415.253 163.214 416.398 156.067 417.887 146.847C409.481 151.079 402.664 154.526 395.891 158.141C386.612 163.148 377.165 168.199 368.02 173.71C365.726 175.225 364.05 178.374 362.787 181.053C361.48 183.563 361.024 186.565 360.31 189.277C359.548 189.121 359 189.088 358.238 188.932C358.357 186.02 358.522 183.275 358.663 179.097C351.768 182.925 345.634 186.909 338.85 189.807C328.383 194.411 322.679 201.34 322.29 213.326C322.021 222.398 319.343 231.217 318.279 240.683C340.226 216.44 367.189 199.495 395.666 184.844C423.852 170.451 409.283 173.151 440.695 167.435C440.875 168.107 441.268 168.901 441.616 169.528C441.034 170.044 440.497 170.728 439.825 170.908C412.057 178.348 432.97 170.888 409.205 182.296C382.551 195.019 357.277 209.531 335.213 229.305C326.776 236.786 317.578 244.111 312.663 255.329C313.201 237.183 318.266 219.804 320.471 200.492C306.66 209.413 293.89 217.515 281.378 225.908C276.039 229.499 270.791 233.425 265.497 237.184C254.865 244.533 246.576 253.235 241.775 266.222C238.95 273.82 232.092 279.798 226.633 286.301C225.146 288.14 222.93 289.274 220.668 290.24C219.034 290.858 216.424 291.197 215.269 290.246C214.328 289.418 213.898 286.473 214.636 285.195C218.616 278.548 221.473 270.402 227.303 265.96C241.627 254.921 248.812 240.755 251.513 223.289C255.413 196.862 259.907 170.636 264.356 144.241C264.934 141.026 266.152 138.18 266.943 135.087C267.705 135.243 268.467 135.399 269.061 135.6C266.45 153.401 264.265 171.448 261.273 189.171C258.281 206.895 254.741 224.585 251.167 242.824C256.686 239.905 261.319 237.043 262.554 230.232C266.727 207.512 271.158 185.082 275.545 162.485C276.168 159.438 277.173 156.469 278.009 153.544C278.984 153.823 279.914 153.934 280.721 154.258C275.879 179.857 271.205 205.412 266.007 232.367C272.845 227.654 277.814 224.703 278.812 216.335C280.608 200.192 284.643 184.349 287.749 168.396C288.016 166.704 288.832 165.046 289.479 163.432C290.409 163.543 291.216 163.867 292.146 163.978C288.785 182.34 285.425 200.702 281.875 220.374C284.595 219.105 286.398 218.442 287.942 217.489C297.792 211.249 307.809 204.965 317.613 198.557C319.281 197.391 321.362 195.753 321.629 194.061C323.901 183.731 325.58 173.2 326.284 162.391C323.3 168.051 320.361 173.879 316.996 179.461C314.001 184.404 312.966 190.622 305.228 191.975C302.664 192.482 301.372 198.409 298.934 201.402C297.278 203.286 294.681 204.342 292.554 205.812C291.834 203.125 290.184 200.326 290.394 197.75C291.195 192.675 292.88 187.543 294.823 182.702C297.414 176.247 302.146 171.739 310.355 170.799C309.387 175.919 308.452 180.49 307.561 185.229C308.155 185.43 308.581 185.676 309.13 185.709C322.79 162.787 333.861 138.939 336.18 111.315C312.492 112.262 290.243 118.583 268.412 127.133C268.142 126.125 267.872 125.117 267.602 124.11C290.237 113.184 312.872 102.259 335.462 91.1656C335.9 92.1283 336.551 93.214 336.988 94.1767L337.157 94.1317ZM340.367 147.096C340.916 147.129 341.465 147.162 342.014 147.195C342.9 157.219 337.936 165.569 333.063 174.256C339.758 171.022 344.019 166.1 346.184 159.399C346.943 156.855 347.32 154.234 348.505 151.936C349.32 150.278 351.414 149.357 353.081 148.19C353.409 150.082 354.117 152.053 353.682 153.79C352.89 156.882 351.46 159.605 350.164 162.833C361.397 161.083 373.232 130.009 369.961 111.084C363.588 110.812 357.091 110.752 350.628 110.144C346.909 109.7 345.241 110.867 344.036 114.43C341.871 121.131 338.686 127.385 337.025 133.951C334.261 145.132 332.426 156.425 330.21 167.639C331.017 167.963 331.947 168.074 332.754 168.398C335.333 161.226 337.911 154.055 340.277 146.76L340.367 147.096ZM394.054 139.191C391.997 142.263 390.734 144.941 388.62 147.128C386.383 149.528 383.417 151.223 380.709 153.208C379.026 150.959 377.511 148.665 375.873 146.583C368.633 152.484 364.162 159.982 364.847 170.6C382.029 161.495 398.875 152.481 416.348 143.119C413.61 138.272 411.006 133.929 408.267 129.083C401.664 142.733 400.914 143.294 394.054 139.191ZM381.647 113.713C377.248 125.513 373.128 136.338 369.176 147.118C369.602 147.364 369.815 147.487 370.24 147.733C374.4 141.758 378.727 135.738 382.887 129.763C383.526 130.131 384.21 130.668 384.681 131.082C383.176 136.886 377.951 142.246 381.308 148.727C382.115 149.051 382.967 149.543 383.774 149.867C389.274 140.832 394.987 131.921 401.101 121.822C392.775 118.292 387.508 116.103 381.602 113.545L381.647 113.713ZM328.676 176.691C327.674 182.36 326.997 187.222 325.84 193.653C335.779 187.749 344.296 182.587 352.904 177.76C360.84 173.113 362.27 170.39 360.938 161.386C358.353 163.159 355.378 166.836 352.801 166.627C347.054 166.006 344.661 169.168 342.022 172.755C338.768 177.407 335.064 180.38 328.463 176.568L328.676 176.691ZM454.815 5.18011C443.839 24.6826 441.256 46.6167 437.271 68.0261C448.034 48.4007 456.085 28.0617 454.815 5.18011ZM419.704 139.519C422.196 124.63 424.699 110.458 427.469 94.5948C419.539 104.64 413.02 113.228 406.578 121.434C410.852 127.31 414.914 133.062 419.749 139.687L419.704 139.519ZM360.952 41.8517C359.764 41.4499 358.408 41.093 357.22 40.6912C352.114 60.6011 347.053 80.6789 341.779 100.634C342.754 100.913 343.897 101.147 344.871 101.425C350.145 81.4705 355.465 61.6836 360.907 41.6837L360.952 41.8517ZM218.011 287.711C229.248 281.28 240.219 266.459 240.176 258.91C230.9 266.616 222.004 274.4 218.011 287.711ZM294.743 200.545C300.402 193.448 303.641 185.38 304.291 176.385C297.231 182.957 294.968 191.304 294.743 200.545ZM375.525 108.333C376.332 108.657 377.262 108.768 378.068 109.092C382.672 99.3976 384.395 89.0349 385.738 78.5942C385.144 78.3933 384.382 78.2373 383.788 78.0364C381.09 88.1203 378.223 98.2492 375.57 108.501L375.525 108.333ZM404.029 125.358C403.054 125.079 402.079 124.8 401.104 124.521C399.866 128.633 398.751 132.533 397.512 136.645C398.487 136.924 399.462 137.202 400.437 137.481C401.675 133.369 402.745 129.302 404.029 125.358Z" fill="#DEDEDE"/>
<path d="M216.036 70.0607C212.109 92.3549 208.395 114.772 204.402 138.164C240.179 121.197 274.949 104.5 310.639 89.896L311.863 92.4482C305.169 95.6821 298.598 98.703 291.904 101.937C263.402 115.154 234.901 128.372 206.445 141.757C205.191 142.453 203.658 144.124 203.302 145.479C200.331 161.937 197.528 178.349 194.524 195.356C200.726 192.974 206.044 190.649 211.496 188.828C214.979 187.715 218.719 186.892 222.258 186.664C241.399 186.216 250.194 197.54 245.49 216.262C244.387 220.878 242.521 225.339 241.037 229.877C241.934 230.537 242.999 231.151 243.896 231.811C243.572 232.618 243.494 232.999 243.203 233.257C239.802 236.688 235.717 239.583 232.955 243.383C209.605 274.482 183.541 302.168 147.505 318.844C143.028 320.944 137.095 324.334 134.021 319.577C132.248 316.992 134.782 309.652 137.556 306.569C146.538 296.421 156.372 286.766 166.295 277.446C169.741 274.183 170.545 271.807 167.986 267.632C154.226 244.497 132.909 233.467 107.568 228.916C83.414 224.767 60.6289 231.773 38.0117 238.733C28.0242 241.769 18.2168 245.477 8.35228 248.3C6.33679 248.841 3.70332 247.746 1.29486 247.491C2.78236 245.653 4.13488 243.31 6.01536 242.266C44.0179 222.182 81.8974 202.312 119.945 182.396C145.534 169.059 171.168 155.89 196.712 142.385C198.76 141.296 200.482 138.314 200.949 136.029C204.622 116.143 207.958 96.3473 211.418 76.3386C211.718 74.0981 212.566 71.8905 213.079 69.773C214.177 69.8388 215.151 70.1177 216.249 70.1836L216.036 70.0607ZM20.0008 238.699C20.0458 238.867 20.1358 239.203 20.1808 239.37C26.0593 237.795 31.7698 236.265 37.6484 234.69C51.4659 231.168 65.3373 225.831 79.4039 224.582C119.162 221.129 152.555 232.884 173.937 270.358C175.38 268.352 177.629 266.669 178.019 264.764C181.691 244.878 185.151 224.87 188.877 203.169C184.087 206.793 180.293 209.43 176.925 212.312C173.725 215.15 170.828 218.446 167.841 221.407C167.157 220.87 166.641 220.288 165.958 219.751C169.023 216.41 171.437 211.983 175.153 209.727C187.431 202.477 192.436 191.595 193.596 177.783C194.513 167.096 196.785 156.766 198.731 144.544C138.105 176.27 78.9015 207.255 19.7428 238.408L20.0008 238.699ZM182.976 261.095C199.61 251.958 215.952 243.079 232.127 234.244C233.38 233.549 235.093 232.55 235.372 231.575C238.016 223.305 240.874 215.159 242.421 206.824C243.299 201.368 241.097 195.838 235.695 193.145C225.227 187.669 215.117 190.918 204.973 194.716C196.465 197.896 192.125 203.199 191.061 212.665C189.188 229.188 185.791 245.4 183.021 261.263L182.976 261.095ZM177.046 294.727C197.839 279.615 215.09 262.032 228.696 240.924C211.801 247.071 197.544 257.012 183.466 267.625C182.425 268.444 181.396 269.98 181.04 271.335C179.526 279.122 178.392 286.986 177.046 294.727ZM172.501 277.764C156.842 287.18 136.932 309.616 137.02 317.334C137.569 317.366 138.375 317.69 138.879 317.555C149.67 312.144 160.416 306.564 170.994 301.029C171.666 300.849 172.449 299.739 172.437 299.023C172.619 292.313 172.421 285.526 172.546 277.932L172.501 277.764Z" fill="#DEDEDE"/>
</g>
<defs>
<clipPath id="clip0_1506_25686">
<rect width="484" height="323" fill="white"/>
</clipPath>
</defs>
</svg>
